<?xml version="1.0" standalone="no"?>
<!DOCTYPE svg PUBLIC "-//W3C//DTD SVG 1.1//EN" "http://www.w3.org/Graphics/SVG/1.1/DTD/svg11.dtd" >
<svg xmlns="http://www.w3.org/2000/svg" xmlns:xlink="http://www.w3.org/1999/xlink" version="1.1">
<metadata>
Created by FontForge 20201107 at Fri Aug  4 06:25:00 2023
 By 
Copyright (c) 2017 by Alberto Romanos. All rights reserved.
</metadata>
<defs>
<font id="SVN-AlphaCreative-Light" horiz-adv-x="597" >
  <font-face 
    font-family="SVN-AlphaCreative Light"
    font-weight="300"
    font-stretch="normal"
    units-per-em="1000"
    panose-1="0 0 4 0 0 0 0 0 0 0"
    ascent="800"
    descent="-200"
    x-height="492"
    cap-height="740"
    bbox="-714 -240 1220 1101"
    underline-thickness="50"
    underline-position="-100"
    unicode-range="U+000D-FB02"
  />
<missing-glyph horiz-adv-x="1274" 
d="M846 -3q-7 -7 -17 -7q-14 0 -17 7.5t-3 15.5v324l-339 -340q-7 -7 -17 -7q-14 0 -17 7.5t-3 15.5v324l-340 -340q-7 -7 -17 -7q-8 0 -12.5 5t-4.5 13q0 10 5 15l342 341h-324q-8 0 -15.5 3t-7.5 16q0 5 2 8.5t5 7.5l340 342h-327q-20 0 -20 19v1q0 19 20 19h370
q8 0 15.5 -3t7.5 -17q0 -10 -8 -17l-341 -340h330q8 0 14 -6t6 -14v-327l339 338q7 8 17 8q13 0 15.5 -7.5t2.5 -14.5v-324l340 338q6 8 16 8q8 0 12.5 -5.5t4.5 -13.5q0 -3 -1 -7t-5 -7z" />
    <glyph glyph-name="fi" unicode="fi" horiz-adv-x="572" 
d="M489 492v-492h-60v444h-262v-444h-60v444h-81v48h132v2q-26 23 -41 57t-15 73q0 74 44 115t124 41q48 0 86 -18l-9 -48q-32 15 -67 15q-60 0 -89 -29t-29 -82v-126h327zM489 704v-96h-60v96h60z" />
    <glyph glyph-name="fl" unicode="fl" horiz-adv-x="585" 
d="M102 624q0 74 44 115t124 41q48 0 86 -18l-9 -48q-32 15 -67 15q-60 0 -89 -29t-29 -82v-126h181v-48h-176v-444h-60v444h-81v48h132v2q-26 23 -41 57t-15 73zM502 770v-770h-60v770h60z" />
    <glyph glyph-name="f_f" unicode="ff" horiz-adv-x="669" 
d="M590 729q-60 0 -89 -29t-29 -82v-126h181v-48h-176v-444h-60v444h-250v-444h-60v444h-81v48h132v2q-26 23 -41 57t-15 73q0 74 44 115t124 41q48 0 86 -18l-9 -48q-32 15 -67 15q-60 0 -89 -29t-29 -82v-126h306v2q-26 23 -41 57t-15 73q0 74 44 115t124 41q49 0 89 -19
l-9 -48q-32 16 -70 16z" />
    <glyph glyph-name="f_f_i" unicode="ffi" horiz-adv-x="882" 
d="M799 492v-492h-60v444h-262v-444h-60v444h-250v-444h-60v444h-81v48h132v2q-26 23 -41 57t-15 73q0 74 44 115t124 41q48 0 86 -18l-9 -48q-32 15 -67 15q-60 0 -89 -29t-29 -82v-126h306v2q-26 23 -41 57t-15 73q0 74 44 115t124 41q48 0 86 -18l-9 -48q-32 15 -67 15
q-60 0 -89 -29t-29 -82v-126h327zM799 704v-96h-60v96h60z" />
    <glyph glyph-name="f_f_l" unicode="ffl" horiz-adv-x="895" 
d="M412 624q0 74 44 115t124 41q48 0 86 -18l-9 -48q-32 15 -67 15q-60 0 -89 -29t-29 -82v-126h181v-48h-176v-444h-60v444h-250v-444h-60v444h-81v48h132v2q-26 23 -41 57t-15 73q0 74 44 115t124 41q48 0 86 -18l-9 -48q-32 15 -67 15q-60 0 -89 -29t-29 -82v-126h306v2
q-26 23 -41 57t-15 73zM812 770v-770h-60v770h60z" />
    <glyph glyph-name=".notdef" horiz-adv-x="1274" 
d="M846 -3q-7 -7 -17 -7q-14 0 -17 7.5t-3 15.5v324l-339 -340q-7 -7 -17 -7q-14 0 -17 7.5t-3 15.5v324l-340 -340q-7 -7 -17 -7q-8 0 -12.5 5t-4.5 13q0 10 5 15l342 341h-324q-8 0 -15.5 3t-7.5 16q0 5 2 8.5t5 7.5l340 342h-327q-20 0 -20 19v1q0 19 20 19h370
q8 0 15.5 -3t7.5 -17q0 -10 -8 -17l-341 -340h330q8 0 14 -6t6 -14v-327l339 338q7 8 17 8q13 0 15.5 -7.5t2.5 -14.5v-324l340 338q6 8 16 8q8 0 12.5 -5.5t4.5 -13.5q0 -3 -1 -7t-5 -7z" />
    <glyph glyph-name=".null" horiz-adv-x="0" 
 />
    <glyph glyph-name="nonmarkingreturn" unicode="&#xd;" horiz-adv-x="247" 
 />
    <glyph glyph-name="space" unicode=" " horiz-adv-x="247" 
 />
    <glyph glyph-name="exclam" unicode="!" horiz-adv-x="249" 
d="M92 740h64l-5 -563h-54zM163 74v-74h-78v74h78z" />
    <glyph glyph-name="quotedbl" unicode="&#x22;" horiz-adv-x="303" 
d="M123 770v-190h-58v190h58zM238 770v-190h-58v190h58z" />
    <glyph glyph-name="numbersign" unicode="#" horiz-adv-x="686" 
d="M514 506l-25 -248h128l-6 -40h-126l-22 -218h-46l23 218h-229l-23 -218h-46l23 218h-128l5 40h127l26 248h-126l5 40h126l20 194h46l-19 -194h226l19 194h46l-20 -194h131l-5 -40h-130zM469 506h-226l-28 -247h228z" />
    <glyph glyph-name="dollar" unicode="$" horiz-adv-x="634" 
d="M593 204q0 -97 -66.5 -152.5t-187.5 -60.5v-103h-44v102q-116 6 -183.5 74.5t-73.5 186.5h62q6 -92 56.5 -145.5t138.5 -58.5v314q-44 7 -86.5 17t-76 29.5t-54 52.5t-20.5 87q0 94 62 146t175 57v100h44v-101q106 -7 167.5 -72t66.5 -177h-62q-5 85 -49.5 135t-122.5 58
v-283q46 -7 91.5 -17.5t81.5 -32.5t58.5 -59t22.5 -97zM122 549q0 -35 14 -57.5t37.5 -36.5t55 -22.5t66.5 -14.5v276q-82 -5 -127.5 -42t-45.5 -103zM339 47q91 5 140.5 45t49.5 109q0 41 -15.5 67.5t-41.5 43t-60.5 26t-72.5 15.5v-306z" />
    <glyph glyph-name="percent" unicode="%" horiz-adv-x="702" 
d="M572 750l32 -24l-474 -736l-32 24zM178 360q-64 0 -99 48.5t-35 136.5t35 136.5t99 48.5t99 -48.5t35 -136.5t-35 -136.5t-99 -48.5zM178 403q38 0 60 37.5t22 104.5t-22 104.5t-60 37.5t-60 -37.5t-22 -104.5t22 -104.5t60 -37.5zM526 -10q-63 0 -98.5 48.5t-35.5 136.5
t35.5 136.5t98.5 48.5q64 0 99.5 -48.5t35.5 -136.5t-35.5 -136.5t-99.5 -48.5zM526 33q38 0 60 37.5t22 104.5t-22 104.5t-60 37.5t-60 -37.5t-22 -104.5t22 -104.5t60 -37.5z" />
    <glyph glyph-name="ampersand" unicode="&#x26;" horiz-adv-x="786" 
d="M726 -10l-148 131q-55 -64 -125 -97.5t-155 -33.5q-118 0 -184 54.5t-66 148.5q0 61 22.5 102.5t58.5 70t80.5 47t88.5 33.5q7 2 13.5 5t13.5 5q-47 0 -85 10t-65 28t-42 43t-15 56q0 75 55 116t155 41q99 0 153.5 -42.5t54.5 -119.5q0 -41 -18 -69.5t-47 -50t-67 -38
t-77 -31.5q-40 -15 -78.5 -31.5t-69 -40t-49 -55.5t-18.5 -79q0 -68 49.5 -107.5t138.5 -39.5q68 0 126.5 27.5t104.5 79.5t78.5 127t48.5 171l56 -13q-29 -162 -99 -268l151 -135zM181 586q0 -58 41 -93t108 -35h-1q30 11 56 22.5t45.5 26.5t30.5 34t11 45q0 52 -37.5 80
t-106.5 28t-108 -28t-39 -80z" />
    <glyph glyph-name="quotesingle" unicode="'" horiz-adv-x="189" 
d="M123 770v-190h-58v190h58z" />
    <glyph glyph-name="parenleft" unicode="(" horiz-adv-x="269" 
d="M248 -217l-37 -23q-84 125 -120.5 253t-36.5 257t36.5 257t120.5 253l37 -23q-80 -120 -113.5 -245t-33.5 -242q0 -58 8 -119t25.5 -122.5t45.5 -123.5t68 -122z" />
    <glyph glyph-name="parenright" unicode=")" horiz-adv-x="269" 
d="M21 -217q40 60 68 122t45.5 123.5t25.5 122.5t8 119q0 117 -33.5 242t-113.5 245l37 23q84 -125 120.5 -253t36.5 -257t-36.5 -257t-120.5 -253z" />
    <glyph glyph-name="asterisk" unicode="*" horiz-adv-x="375" 
d="M268 617q-19 0 -38 4t-39 12l-1 -1l76 -106l-39 -30q-11 16 -19 31t-12 32q-5 17 -7 34.5t-1 37.5l-2 2l-77 -106l-40 27q31 47 81 67q8 4 17 7.5t19 6.5v1l-125 42l14 46q38 -10 64.5 -32t47.5 -54h3v132h49q0 -38 -12 -70t-36 -63l1 -2l125 40l16 -47q-17 -5 -32.5 -8
t-32.5 -3z" />
    <glyph glyph-name="plus" unicode="+" horiz-adv-x="462" 
d="M416 233h-163v-166h-45v166h-162v38h162v166h45v-166h163v-38z" />
    <glyph glyph-name="comma" unicode="," horiz-adv-x="212" 
d="M151 74v-65q0 -51 -20.5 -90.5t-58.5 -59.5v46q33 13 52.5 38t21.5 57h-73v74h78z" />
    <glyph glyph-name="hyphen" unicode="-" horiz-adv-x="396" 
d="M324 269v-38h-252v38h252z" />
    <glyph glyph-name="period" unicode="." horiz-adv-x="217" 
d="M147 74v-74h-78v74h78z" />
    <glyph glyph-name="slash" unicode="/" horiz-adv-x="403" 
d="M373 787l-303 -927l-41 13l303 927z" />
    <glyph glyph-name="zero" unicode="0" horiz-adv-x="640" 
d="M320 -10q-62 0 -110 26t-81.5 74.5t-51 119t-17.5 160.5t17.5 160.5t51 119t81.5 74.5t110 26q61 0 109.5 -26t82 -74.5t51 -119t17.5 -160.5t-17.5 -160.5t-51 -119t-82 -74.5t-109.5 -26zM320 46q93 0 144.5 85t51.5 239t-51.5 239t-144.5 85t-144.5 -85t-51.5 -239
t51.5 -239t144.5 -85z" />
    <glyph glyph-name="one" unicode="1" horiz-adv-x="326" 
d="M226 740v-740h-62v710h-2q0 -56 -35.5 -87t-99.5 -31v56q65 0 101 24t36 68h62z" />
    <glyph glyph-name="two" unicode="2" horiz-adv-x="592" 
d="M544 54v-54h-499v49q98 25 175 68t130 101.5t81 130.5t28 154q0 91 -44 141t-123 50t-125.5 -55t-51.5 -155h-61q5 126 68 196t171 70q110 0 171 -65t61 -183q0 -88 -29.5 -162t-85.5 -131t-137 -96t-184 -57v-2h455z" />
    <glyph glyph-name="three" unicode="3" horiz-adv-x="594" 
d="M284 406q120 0 186.5 -54.5t66.5 -151.5q0 -100 -65.5 -155t-183.5 -55q-109 0 -171.5 63t-66.5 175h60q4 -87 50.5 -135.5t127.5 -48.5q88 0 136.5 41t48.5 115q0 73 -50 113.5t-141 40.5h-22v54q91 12 141 52t50 101q0 64 -43 99.5t-120 35.5q-74 0 -117.5 -49
t-47.5 -137h-60q5 113 66.5 176.5t166.5 63.5q104 0 161.5 -46t57.5 -127q0 -80 -61 -124.5t-172 -44.5v-2h2v0z" />
    <glyph glyph-name="four" unicode="4" horiz-adv-x="580" 
d="M547 200h-96v-200h-63v200h-362v59l305 481h120v-486h96v-54zM89 256v-2h300v479h-2z" />
    <glyph glyph-name="five" unicode="5" horiz-adv-x="595" 
d="M297 -10q-103 0 -168 56t-77 156h62q11 -73 59.5 -114.5t123.5 -41.5q89 0 138 51t49 144q0 92 -48.5 143t-136.5 51q-37 0 -66.5 -10.5t-52 -29t-38 -44t-24.5 -56.5l-61 8l57 437h379v-54h-321l-53 -372h2q14 82 67 128t135 46q107 0 166.5 -64.5t59.5 -181.5
q0 -119 -66 -185.5t-186 -66.5z" />
    <glyph glyph-name="six" unicode="6" horiz-adv-x="623" 
d="M339 476q109 0 169 -61.5t60 -173.5q0 -59 -18 -106t-51 -79t-78.5 -49t-100.5 -17q-133 0 -196.5 87t-63.5 266q0 96 18.5 171.5t53 128t84.5 80t113 27.5q99 0 157.5 -56.5t64.5 -157.5h-62q-5 75 -47 116.5t-113 41.5q-48 0 -86.5 -23t-64.5 -67t-40 -107.5
t-14 -144.5v-71h2q0 92 56 143.5t157 51.5zM316 46q89 0 138.5 50.5t49.5 142.5q0 87 -49.5 134.5t-138.5 47.5q-88 0 -137 -45.5t-49 -128.5q0 -47 14 -84t38.5 -63t58.5 -40t75 -14z" />
    <glyph glyph-name="seven" unicode="7" horiz-adv-x="526" 
d="M508 740v-49q-60 -14 -107 -61.5t-79.5 -124.5t-49.5 -181.5t-17 -231.5v-92h-67v80q0 130 19 236t55.5 184t89 125t118.5 59v2h-455v54h493z" />
    <glyph glyph-name="eight" unicode="8" horiz-adv-x="619" 
d="M382 406q87 -15 133.5 -67.5t46.5 -136.5q0 -100 -66.5 -156t-185.5 -56q-120 0 -186.5 56t-66.5 156q0 84 47 136.5t133 67.5v2q-74 0 -115 42t-41 117q0 86 60 134.5t169 48.5q108 0 168 -48.5t60 -134.5q0 -75 -41 -117t-115 -42v-2zM145 549q0 -71 43.5 -110
t121.5 -39t121 39t43 110q0 69 -43 107t-121 38t-121.5 -38t-43.5 -107zM310 46q89 0 138.5 41t49.5 115t-49.5 115t-138.5 41t-139 -41t-50 -115t50 -115t139 -41z" />
    <glyph glyph-name="nine" unicode="9" horiz-adv-x="622" 
d="M306 750q134 0 195 -89.5t61 -263.5q0 -96 -18.5 -171.5t-53 -128t-84.5 -80t-114 -27.5q-98 0 -156.5 62t-65.5 172h62q6 -85 48 -131.5t112 -46.5q48 0 86.5 23t65 67t40.5 107.5t14 144.5v81h-2q0 -88 -56 -136.5t-157 -48.5q-109 0 -169.5 59t-60.5 166
q0 57 18.5 102t52 75.5t80 47t102.5 16.5zM306 339q88 0 137 43t49 121q0 44 -14 79.5t-39 60t-59 38t-74 13.5q-89 0 -138.5 -47.5t-49.5 -135.5q0 -82 49.5 -127t138.5 -45z" />
    <glyph glyph-name="colon" unicode=":" horiz-adv-x="222" 
d="M150 501v-74h-78v74h78zM150 74v-74h-78v74h78z" />
    <glyph glyph-name="semicolon" unicode=";" horiz-adv-x="223" 
d="M151 501v-74h-78v74h78zM73 74h78v-65q0 -51 -20.5 -90.5t-58.5 -59.5v46q33 13 52.5 38t21.5 57h-73v74z" />
    <glyph glyph-name="less" unicode="&#x3c;" horiz-adv-x="477" 
d="M52 253v-2l359 -151v-43l-365 158v75l365 159v-43z" />
    <glyph glyph-name="equal" unicode="=" horiz-adv-x="516" 
d="M73 336h370v-38h-370v38zM73 206h370v-38h-370v38z" />
    <glyph glyph-name="greater" unicode="&#x3e;" horiz-adv-x="477" 
d="M431 290v-75l-365 -158v43l359 151v2l-359 153v43z" />
    <glyph glyph-name="question" unicode="?" horiz-adv-x="532" 
d="M30 514q5 112 65 174t164 62q105 0 163 -55t58 -152q0 -41 -14.5 -86t-42 -92t-67.5 -94.5t-90 -93.5h-61v2q49 48 88 96.5t66 95t41.5 90t14.5 80.5q0 72 -41.5 112.5t-115.5 40.5q-75 0 -119 -47.5t-48 -132.5h-61zM271 74v-74h-79v74h79z" />
    <glyph glyph-name="at" unicode="@" horiz-adv-x="1113" 
d="M685 137v13t2 16l3 20h-2q-13 -73 -66.5 -114t-137.5 -41q-81 0 -124 48t-43 135q0 64 17 117.5t48.5 91t76.5 58.5t100 21q77 0 119 -32t42 -90q0 -8 -1 -15.5t-2 -16.5h2l26 144h59l-59 -330q-1 -6 -1.5 -11t-0.5 -10q0 -61 67 -61q91 0 141.5 72t50.5 201
q0 90 -28 160.5t-81.5 119t-130.5 74.5t-174 26q-113 0 -202.5 -34.5t-151.5 -100.5t-94.5 -161t-32.5 -216q0 -98 29 -174.5t84.5 -130t135.5 -81.5t182 -28q68 0 142 14.5t140 41.5l19 -46q-66 -26 -144.5 -41.5t-156.5 -15.5q-115 0 -205 31t-152.5 90.5t-95.5 145
t-33 194.5q0 132 36.5 235.5t105.5 175.5t168.5 110t225.5 38q111 0 198 -29t147 -84t92 -134.5t32 -179.5q0 -75 -17.5 -134.5t-50 -101t-80 -63t-107.5 -21.5q-57 0 -87 27t-30 77zM514 80q75 0 126 46t68 127l3 13q2 14 3.5 26.5t1.5 23.5q0 66 -35 101t-101 35
q-46 0 -83 -16.5t-63.5 -46t-40.5 -71t-14 -92.5q0 -69 34.5 -107.5t100.5 -38.5z" />
    <glyph glyph-name="A" unicode="A" horiz-adv-x="670" 
d="M518 195h-370l-67 -195h-66l265 740h111l263 -740h-69zM500 249l-165 484h-2l-166 -484h333z" />
    <glyph glyph-name="B" unicode="B" horiz-adv-x="665" 
d="M393 406q106 0 164.5 -53t58.5 -149q0 -97 -60.5 -150.5t-170.5 -53.5h-285v740h259q95 0 147 -46t52 -129q0 -75 -46.5 -116t-129.5 -41v-2h11zM493 545q0 67 -40.5 104t-112.5 37h-177v-278h177q72 0 112.5 36t40.5 101zM389 54q77 0 120 39.5t43 110.5q0 72 -43 111
t-120 39h-226v-300h226z" />
    <glyph glyph-name="C" unicode="C" horiz-adv-x="702" 
d="M657 265q-11 -64 -35.5 -115t-62 -86.5t-86.5 -54.5t-107 -19q-73 0 -130 26t-96.5 74.5t-60.5 119t-21 160.5t21 160.5t60.5 119t96.5 74.5t130 26q117 0 193.5 -70.5t97.5 -196.5h-61q-20 100 -80.5 155.5t-149.5 55.5q-57 0 -102.5 -22t-77 -63.5t-48 -102
t-16.5 -136.5q0 -77 16.5 -137t48 -101.5t77 -63.5t102.5 -22q89 0 149.5 58t80.5 161h61v0z" />
    <glyph glyph-name="D" unicode="D" horiz-adv-x="702" 
d="M100 740h203q81 0 144.5 -25t108 -73t67.5 -116.5t23 -155.5t-23 -155.5t-67.5 -116.5t-108 -73t-144.5 -25h-203v740zM309 54q129 0 201 83t72 233t-72 233t-201 83h-146v-632h146z" />
    <glyph glyph-name="E" unicode="E" horiz-adv-x="614" 
d="M570 54v-54h-470v740h459v-54h-396v-276h361v-54h-361v-302h407z" />
    <glyph glyph-name="F" unicode="F" horiz-adv-x="554" 
d="M163 686v-282h315v-54h-315v-350h-63v740h430v-54h-367z" />
    <glyph glyph-name="G" unicode="G" horiz-adv-x="724" 
d="M659 380v-380h-60v270h-2q0 -133 -68 -206.5t-192 -73.5q-63 0 -114.5 26t-88 74.5t-56.5 119t-20 160.5t21 160.5t61 119t97.5 74.5t130.5 26q114 0 188.5 -69.5t96.5 -191.5h-61q-20 97 -79.5 151t-144.5 54q-117 0 -181.5 -85t-64.5 -239q0 -77 16 -137t46.5 -101.5
t74.5 -63.5t100 -22q112 0 174.5 74.5t63.5 208.5h-250v51h312z" />
    <glyph glyph-name="H" unicode="H" horiz-adv-x="725" 
d="M625 740v-740h-63v349h-399v-349h-63v740h63v-337h399v337h63z" />
    <glyph glyph-name="I" unicode="I" horiz-adv-x="263" 
d="M100 740h63v-740h-63v740z" />
    <glyph glyph-name="J" unicode="J" horiz-adv-x="542" 
d="M386 206v534h63v-529q0 -104 -54.5 -162.5t-151.5 -58.5q-93 0 -149.5 65.5t-64.5 183.5h59q8 -91 49 -142t107 -51q67 0 104.5 42.5t37.5 117.5z" />
    <glyph glyph-name="K" unicode="K" horiz-adv-x="674" 
d="M674 0h-92l-418 381h-2v-381h-62v740h62v-351h2l390 351h86l-396 -355z" />
    <glyph glyph-name="L" unicode="L" horiz-adv-x="531" 
d="M510 54v-54h-410v740h63v-686h347z" />
    <glyph glyph-name="M" unicode="M" horiz-adv-x="922" 
d="M833 0h-63l-21 733h-2l-235 -733h-115l-225 733h-2l-21 -733h-60l22 740h123l221 -733h3l230 733h124z" />
    <glyph glyph-name="N" unicode="N" horiz-adv-x="725" 
d="M625 740v-740h-117l-346 733h-2l1 -733h-61v740h118l346 -733h2l-1 733h60z" />
    <glyph glyph-name="O" unicode="O" horiz-adv-x="738" 
d="M369 -10q-74 0 -131.5 26t-97.5 74.5t-61 119t-21 160.5t21 160.5t61 119t97.5 74.5t131.5 26q73 0 131 -26t98 -74.5t61 -119t21 -160.5t-21 -160.5t-61 -119t-98 -74.5t-131 -26zM369 46q58 0 104 22t77.5 63.5t48.5 101.5t17 137q0 76 -17 136.5t-48.5 102t-77.5 63.5
t-104 22q-118 0 -182.5 -85t-64.5 -239t64.5 -239t182.5 -85z" />
    <glyph glyph-name="P" unicode="P" horiz-adv-x="620" 
d="M346 740q112 0 174.5 -57.5t62.5 -161.5t-62.5 -162t-175.5 -58h-182v-301h-63v740h246zM349 355q80 0 124.5 44t44.5 122t-44 121.5t-124 43.5h-187v-331h186z" />
    <glyph glyph-name="Q" unicode="Q" horiz-adv-x="754" 
d="M721 54v-54h-352q-74 0 -131.5 25.5t-97.5 74t-61 118t-21 157.5t21 157.5t61 118t97.5 74t131.5 25.5q73 0 131 -25t98 -71.5t61 -114t21 -151.5q0 -158 -63 -246t-178 -88v-2zM122 374q0 -76 17 -136t48.5 -101.5t77.5 -63.5t104 -22t104 22t77.5 63.5t48.5 101.5
t17 136q0 75 -17 134.5t-48.5 101t-77.5 63t-104 21.5t-104 -21.5t-77.5 -63t-48.5 -101t-17 -134.5z" />
    <glyph glyph-name="R" unicode="R" horiz-adv-x="656" 
d="M619 0h-72l-195 323h-189v-323h-63v740h254q115 0 179.5 -53t64.5 -147q0 -102 -62.5 -158.5t-174.5 -56.5v-2q27 0 58.5 -23.5t58.5 -67.5zM361 375q82 0 127.5 42t45.5 118q0 72 -46 111.5t-128 39.5h-197v-311h198z" />
    <glyph glyph-name="S" unicode="S" horiz-adv-x="653" 
d="M325 -10q-125 0 -198 68.5t-79 192.5h62q6 -97 62 -151t153 -54q102 0 158 40.5t56 114.5q0 45 -19 73t-50 44.5t-71 25t-83 15.5q-45 7 -89.5 17t-80 29.5t-57 53t-21.5 88.5q0 97 67.5 150t189.5 53q58 0 104.5 -17t80 -49t52 -78.5t21.5 -105.5h-62q-5 92 -57 143
t-141 51q-91 0 -141 -38t-50 -107q0 -39 17.5 -62.5t46 -38t66 -22.5t77.5 -14q48 -8 95 -18t84.5 -31.5t61 -59t23.5 -99.5q0 -102 -73.5 -158t-204.5 -56z" />
    <glyph glyph-name="T" unicode="T" horiz-adv-x="569" 
d="M549 686h-233v-686h-63v686h-233v54h529v-54z" />
    <glyph glyph-name="U" unicode="U" horiz-adv-x="708" 
d="M556 740h60v-488q0 -124 -69 -193t-193 -69t-193 69t-69 193v488h63v-493q0 -95 52.5 -148t146.5 -53q96 0 149 53t53 148v493z" />
    <glyph glyph-name="V" unicode="V" horiz-adv-x="641" 
d="M620 740l-240 -740h-119l-240 740h70l229 -733h2l232 733h66z" />
    <glyph glyph-name="W" unicode="W" horiz-adv-x="993" 
d="M967 740l-184 -740h-122l-164 733h-2l-163 -733h-122l-184 740h69l178 -733h2l164 733h115l166 -733h2l179 733h66z" />
    <glyph glyph-name="X" unicode="X" horiz-adv-x="626" 
d="M612 0h-83l-215 381h-2l-214 -381h-83l227 385l-204 355h76l198 -351h2l198 351h76l-203 -355z" />
    <glyph glyph-name="Y" unicode="Y" horiz-adv-x="642" 
d="M645 740l-385 -740h-71l138 269h-62l-245 471h74l240 -464h2l238 464h71z" />
    <glyph glyph-name="Z" unicode="Z" horiz-adv-x="653" 
d="M618 54v-54h-579v126l549 558v2h-535v54h546v-126l-550 -558v-2h569z" />
    <glyph glyph-name="bracketleft" unicode="[" horiz-adv-x="300" 
d="M141 728v-916h137v-42h-183v1000h183v-42h-137z" />
    <glyph glyph-name="backslash" unicode="\" horiz-adv-x="403" 
d="M374 -127l-41 -13l-303 927l41 13z" />
    <glyph glyph-name="bracketright" unicode="]" horiz-adv-x="300" 
d="M205 -230h-183v42h137v916h-137v42h183v-1000z" />
    <glyph glyph-name="asciicircum" unicode="^" horiz-adv-x="522" 
d="M482 353h-49l-171 361h-2l-171 -361h-49l175 367h92z" />
    <glyph glyph-name="underscore" unicode="_" horiz-adv-x="535" 
d="M495 -72v-38h-455v38h455z" />
    <glyph glyph-name="grave" unicode="`" horiz-adv-x="220" 
d="M203 632l-20 -36l-166 84l22 40z" />
    <glyph glyph-name="a" unicode="a" 
d="M514 492v-492h-60v158h-2q0 -79 -48.5 -123.5t-135.5 -44.5q-102 0 -158.5 67.5t-56.5 188.5t56.5 188.5t158.5 67.5q87 0 135.5 -44.5t48.5 -123.5h2v158h60zM287 41q82 0 127.5 54.5t45.5 150.5q0 97 -45.5 151.5t-127.5 54.5t-127.5 -54.5t-45.5 -151.5t45.5 -151
t127.5 -54z" />
    <glyph glyph-name="b" unicode="b" 
d="M329 502q102 0 158.5 -67.5t56.5 -188.5t-56.5 -188.5t-158.5 -67.5q-87 0 -135.5 44.5t-48.5 123.5h-2v-158h-60v770h60v-436h2q0 79 48.5 123.5t135.5 44.5zM310 41q82 0 127.5 54t45.5 151t-45.5 151.5t-127.5 54.5t-127.5 -54.5t-45.5 -151.5q0 -96 45.5 -150.5
t127.5 -54.5z" />
    <glyph glyph-name="c" unicode="c" horiz-adv-x="547" 
d="M284 -10q-109 0 -170 67.5t-61 188.5t61 188.5t170 67.5q86 0 142.5 -43t76.5 -121h-62q-18 54 -57.5 84t-99.5 30q-81 0 -125.5 -54.5t-44.5 -151.5t44.5 -151t125.5 -54q63 0 104 33t57 94h61q-17 -85 -74 -131.5t-148 -46.5z" />
    <glyph glyph-name="d" unicode="d" 
d="M514 770v-770h-60v158h-2q0 -79 -48.5 -123.5t-135.5 -44.5q-102 0 -158.5 67.5t-56.5 188.5t56.5 188.5t158.5 67.5q87 0 135.5 -44.5t48.5 -123.5h2v436h60zM287 41q82 0 127.5 54.5t45.5 150.5q0 97 -45.5 151.5t-127.5 54.5t-127.5 -54.5t-45.5 -151.5t45.5 -151
t127.5 -54z" />
    <glyph glyph-name="e" unicode="e" horiz-adv-x="548" 
d="M496 234h-383q2 -92 44.5 -143t117.5 -51q66 0 108.5 34.5t52.5 97.5h60q-11 -86 -69 -134t-152 -48q-106 0 -164 67t-58 188q0 122 58 189.5t164 67.5q105 0 163 -67.5t58 -189.5v-11zM275 453q-71 0 -113 -47t-48 -132h321q-6 85 -48 132t-112 47z" />
    <glyph glyph-name="f" unicode="f" horiz-adv-x="359" 
d="M280 729q-60 0 -89 -29t-29 -82v-126h181v-48h-176v-444h-60v444h-81v48h132v2q-26 23 -41 57t-15 73q0 74 44 115t124 41q49 0 89 -19l-9 -48q-32 16 -70 16z" />
    <glyph glyph-name="g" unicode="g" 
d="M514 492v-505q0 -107 -60 -167t-169 -60q-99 0 -157 49t-63 137l57 3q4 -65 47 -101.5t116 -36.5q80 0 124.5 44.5t44.5 125.5v178h-2q0 -79 -48.5 -123.5t-135.5 -44.5q-102 0 -158.5 67.5t-56.5 188.5t56.5 188t158.5 67q87 0 135.5 -44.5t48.5 -123.5h2v158h60z
M287 42q82 0 127.5 54t45.5 151q0 96 -45.5 150.5t-127.5 54.5t-127.5 -54t-45.5 -151t45.5 -151t127.5 -54z" />
    <glyph glyph-name="h" unicode="h" horiz-adv-x="575" 
d="M317 502q85 0 132.5 -51t47.5 -142v-309h-60v308q0 69 -36.5 106.5t-102.5 37.5q-73 0 -114 -47.5t-41 -134.5v-270h-60v770h60v-445h2q0 85 45.5 131t126.5 46z" />
    <glyph glyph-name="i" unicode="i" horiz-adv-x="226" 
d="M83 704h60v-96h-60v96zM83 492h60v-492h-60v492z" />
    <glyph glyph-name="j" unicode="j" horiz-adv-x="226" 
d="M83 704h60v-96h-60v96zM83 492h60v-722h-60v722z" />
    <glyph glyph-name="k" unicode="k" horiz-adv-x="537" 
d="M530 0h-85l-300 252h-2v-252h-60v770h60v-510h2l284 232h83l-292 -235z" />
    <glyph glyph-name="l" unicode="l" horiz-adv-x="226" 
d="M83 770h60v-770h-60v770z" />
    <glyph glyph-name="m" unicode="m" horiz-adv-x="908" 
d="M655 502q84 0 130 -49.5t46 -138.5v-314h-60v313q0 66 -35.5 102.5t-98.5 36.5q-71 0 -110.5 -46t-39.5 -131v-275h-60v313q0 66 -35.5 102.5t-98.5 36.5q-71 0 -110.5 -46t-39.5 -131v-275h-60v492h60v-162h2q0 81 44 126.5t123 45.5q83 0 129 -47t46 -125h2
q0 81 44 126.5t122 45.5z" />
    <glyph glyph-name="n" unicode="n" horiz-adv-x="575" 
d="M317 502q85 0 132.5 -51t47.5 -142v-309h-60v308q0 69 -36.5 106.5t-102.5 37.5q-73 0 -114 -47.5t-41 -134.5v-270h-60v492h60v-167h2q0 85 45.5 131t126.5 46z" />
    <glyph glyph-name="o" unicode="o" horiz-adv-x="574" 
d="M287 -10q-111 0 -172.5 67.5t-61.5 188.5t61.5 188.5t172.5 67.5t172.5 -67.5t61.5 -188.5t-61.5 -188.5t-172.5 -67.5zM287 41q82 0 127.5 54t45.5 151t-45.5 151.5t-127.5 54.5t-127.5 -54.5t-45.5 -151.5t45.5 -151t127.5 -54z" />
    <glyph glyph-name="p" unicode="p" 
d="M329 502q102 0 158.5 -67.5t56.5 -188.5t-56.5 -188.5t-158.5 -67.5q-87 0 -135.5 44.5t-48.5 123.5h-2v-388h-60v722h60v-158h2q0 79 48.5 123.5t135.5 44.5zM310 41q82 0 127.5 54t45.5 151t-45.5 151t-127.5 54t-127.5 -54t-45.5 -151q0 -96 45.5 -150.5t127.5 -54.5z
" />
    <glyph glyph-name="q" unicode="q" 
d="M514 492v-722h-60v388h-2q0 -79 -48.5 -123.5t-135.5 -44.5q-102 0 -158.5 67.5t-56.5 188.5t56.5 188.5t158.5 67.5q87 0 135.5 -44.5t48.5 -123.5h2v158h60zM287 41q82 0 127.5 54t45.5 151t-45.5 151t-127.5 54t-127.5 -54t-45.5 -151t45.5 -151t127.5 -54z" />
    <glyph glyph-name="r" unicode="r" horiz-adv-x="401" 
d="M312 502q46 0 76 -14l-17 -60q-15 8 -35 12.5t-40 4.5q-73 0 -113 -51t-40 -144v-250h-60v492h60v-180h2q0 91 44 140.5t123 49.5z" />
    <glyph glyph-name="s" unicode="s" horiz-adv-x="497" 
d="M248 -10q-96 0 -149 44t-53 125h59q0 -58 37.5 -90t105.5 -32t105 24t37 69q0 28 -13 45.5t-34 28.5t-48.5 17.5t-56.5 11.5q-32 6 -64 13.5t-57 21.5t-40.5 37t-15.5 61q0 63 49.5 99.5t137.5 36.5t137.5 -42.5t49.5 -120.5h-60q0 56 -33 86.5t-94 30.5q-60 0 -93.5 -23
t-33.5 -65q0 -23 11.5 -37.5t31 -24t44.5 -15t52 -10.5q33 -6 67 -14.5t61.5 -24t44.5 -41.5t17 -68q0 -67 -53 -105t-149 -38z" />
    <glyph glyph-name="t" unicode="t" horiz-adv-x="364" 
d="M167 444v-309q0 -45 25 -69.5t70 -24.5q39 0 73 16v-48q-40 -19 -91 -19q-65 0 -101 38t-36 106v310h-84v48h89v174h60v-42q0 -39 -15 -73t-41 -57v-2h226v-48h-175z" />
    <glyph glyph-name="u" unicode="u" horiz-adv-x="565" 
d="M482 492v-492h-60v167h-2q0 -84 -44 -130.5t-123 -46.5q-83 0 -129 51t-46 142v309h60v-308q0 -68 35 -105.5t98 -37.5q72 0 111.5 47.5t39.5 133.5v270h60z" />
    <glyph glyph-name="v" unicode="v" horiz-adv-x="514" 
d="M487 492l-172 -492h-117l-171 492h65l164 -487h2l164 487h65z" />
    <glyph glyph-name="w" unicode="w" horiz-adv-x="804" 
d="M776 492l-144 -492h-112l-117 487h-2l-117 -487h-112l-144 492h65l135 -487h2l118 487h110l117 -487h2l136 487h63z" />
    <glyph glyph-name="x" unicode="x" horiz-adv-x="519" 
d="M500 0h-72l-168 252h-2l-167 -252h-73l178 257l-161 235h71l152 -232h2l153 232h70l-161 -235z" />
    <glyph glyph-name="y" unicode="y" horiz-adv-x="514" 
d="M488 492l-252 -722h-65l80 230h-52l-171 492h65l164 -487h2l164 487h65z" />
    <glyph glyph-name="z" unicode="z" horiz-adv-x="509" 
d="M471 48v-48h-425v112l397 330v2h-391v48h401v-112l-397 -330v-2h415z" />
    <glyph glyph-name="braceleft" unicode="{" horiz-adv-x="269" 
d="M165 372q0 -38 -17 -63.5t-49 -38.5q32 -14 49 -39.5t17 -63.5v-293q0 -28 15.5 -45t41.5 -17v-42q-46 0 -74.5 26.5t-28.5 71.5v293q0 42 -22.5 64.5t-64.5 22.5v43q42 0 64.5 22.5t22.5 64.5v294q0 45 28.5 71.5t74.5 26.5v-42q-26 0 -41.5 -17t-15.5 -45v-294v0z" />
    <glyph glyph-name="bar" unicode="|" horiz-adv-x="236" 
d="M141 770v-1000h-46v1000h46z" />
    <glyph glyph-name="braceright" unicode="}" horiz-adv-x="269" 
d="M150 378q0 -42 22.5 -64.5t64.5 -22.5v-43q-42 0 -64.5 -22.5t-22.5 -64.5v-293q0 -45 -28.5 -71.5t-74.5 -26.5v42q26 0 41.5 17t15.5 45v293q0 38 17 63.5t49 39.5q-32 13 -49 38.5t-17 63.5v294q0 28 -15.5 45t-41.5 17v42q46 0 74.5 -26.5t28.5 -71.5v-294v0z" />
    <glyph glyph-name="asciitilde" unicode="~" horiz-adv-x="596" 
d="M411 193q-42 0 -70.5 11.5t-52 25.5t-47.5 25.5t-58 11.5q-32 0 -51.5 -21t-22.5 -57h-37q1 56 30.5 87t83.5 31q42 0 70.5 -11.5t52 -25.5t47.5 -25.5t58 -11.5q32 0 51.5 21t22.5 57h36q0 -56 -29.5 -87t-83.5 -31z" />
    <glyph glyph-name="uni00A0" unicode="&#xa0;" horiz-adv-x="247" 
 />
    <glyph glyph-name="exclamdown" unicode="&#xa1;" horiz-adv-x="230" 
d="M153 492v-74h-78v74h78zM142 315l5 -545h-64l5 545h54z" />
    <glyph glyph-name="cent" unicode="&#xa2;" horiz-adv-x="547" 
d="M506 296q-16 -79 -66.5 -125t-131.5 -52v-119h-45v119q-100 7 -155 73.5t-55 181.5t55 181.5t155 73.5v111h45v-111q76 -6 126 -48t69 -115h-62q-16 48 -49.5 77.5t-83.5 35.5v-409q54 6 88.5 38.5t48.5 87.5h61zM114 374q0 -91 39 -144t110 -60v409q-71 -8 -110 -61
t-39 -144z" />
    <glyph glyph-name="sterling" unicode="&#xa3;" horiz-adv-x="612" 
d="M568 54v-54h-519v49q65 46 89.5 98t24.5 108q0 15 -2.5 30t-7.5 31h-93v43h78q-17 42 -33.5 85t-16.5 88q0 94 61 146t171 52q108 0 171 -62t68 -174h-61q-5 85 -52 132.5t-126 47.5q-78 0 -122 -37.5t-44 -105.5q0 -43 17 -86t33 -86h240v-43h-225q4 -15 6.5 -30
t2.5 -30q0 -57 -35 -107t-124 -93v-2h499z" />
    <glyph glyph-name="currency" unicode="&#xa4;" horiz-adv-x="571" 
d="M481 337q0 -80 -36 -129l58 -59l-29 -31l-58 58q-51 -40 -130 -40q-81 0 -131 41l-57 -58l-30 30l59 59q-36 49 -36 129q0 79 36 129l-58 59l29 31l57 -59q50 41 131 41t130 -41l58 58l30 -30l-59 -59q36 -50 36 -129zM286 175q71 0 110.5 42.5t39.5 119.5t-39.5 119.5
t-110.5 42.5t-110.5 -42.5t-39.5 -119.5t39.5 -119.5t110.5 -42.5z" />
    <glyph glyph-name="yen" unicode="&#xa5;" horiz-adv-x="678" 
d="M409 272h162v-42h-184l-31 -58h215v-42h-236l-68 -130h-71l67 130h-148v42h169l30 58h-199v42h155l-243 468h74l240 -464h2l238 464h71z" />
    <glyph glyph-name="brokenbar" unicode="&#xa6;" horiz-adv-x="236" 
d="M141 770v-400h-46v400h46zM141 170v-400h-46v400h46z" />
    <glyph glyph-name="section" unicode="&#xa7;" horiz-adv-x="664" 
d="M389 42q103 0 160 -31t57 -87q0 -78 -71.5 -121t-198.5 -43q-130 0 -205 64t-81 181h63q5 -90 63.5 -139.5t159.5 -49.5q98 0 152 30t54 85q0 52 -53.5 81t-150.5 29q-127 0 -197.5 60.5t-70.5 169.5q0 98 57 156.5t160 70.5v2q-103 0 -160 31t-57 87q0 77 64.5 119.5
t181.5 42.5q122 0 193 -61t77 -173h-63q-4 85 -58.5 131.5t-147.5 46.5q-87 0 -135 -29.5t-48 -83.5q0 -53 53.5 -81.5t150.5 -28.5q127 0 197.5 -60.5t70.5 -169.5q0 -98 -57 -156.5t-160 -70.5v-2zM134 271q0 -83 53.5 -128.5t150.5 -45.5t150.5 45.5t53.5 128.5
t-53.5 128.5t-150.5 45.5q-95 0 -149.5 -45.5t-54.5 -128.5z" />
    <glyph glyph-name="dieresis" unicode="&#xa8;" horiz-adv-x="342" 
d="M69 704h59v-96h-59v96zM214 704h58v-96h-58v96z" />
    <glyph glyph-name="copyright" unicode="&#xa9;" horiz-adv-x="854" 
d="M427 -10q-87 0 -156 26t-117 74.5t-73 119t-25 160.5t25 160.5t73 119t117 74.5t156 26q88 0 157 -26t116.5 -74.5t72.5 -119t25 -160.5t-25 -160.5t-72.5 -119t-116.5 -74.5t-157 -26zM427 29q77 0 137.5 23t102.5 67t64 107.5t22 143.5t-22 143.5t-64 107.5t-102.5 67
t-137.5 23t-137.5 -23t-102.5 -67t-64 -107.5t-22 -143.5t22 -143.5t64 -107.5t102.5 -67t137.5 -23zM430 191q-77 0 -120 47.5t-43 132.5t43 133t120 48q60 0 99.5 -31.5t53.5 -88.5h-43q-12 40 -40 61.5t-70 21.5q-57 0 -88 -38t-31 -106q0 -67 31 -105t88 -38
q45 0 73.5 22.5t39.5 64.5h43q-12 -59 -52.5 -91.5t-103.5 -32.5z" />
    <glyph glyph-name="ordfeminine" unicode="&#xaa;" horiz-adv-x="414" 
d="M340 740v-297h-51v98h-1q0 -50 -28.5 -77t-80.5 -27q-60 0 -93 40.5t-33 113.5q0 74 33 114.5t93 40.5q52 0 80.5 -27.5t28.5 -76.5h1v98h51zM200 478q45 0 69 30.5t24 82.5q0 53 -24 83.5t-69 30.5t-70 -30t-25 -84t25 -83.5t70 -29.5z" />
    <glyph glyph-name="guillemotleft" unicode="&#xab;" horiz-adv-x="428" 
d="M171 443h49l-126 -193l126 -193h-49l-128 193zM326 443h49l-126 -193l126 -193h-49l-128 193z" />
    <glyph glyph-name="logicalnot" unicode="&#xac;" horiz-adv-x="519" 
d="M443 333v-163h-44v126h-326v37h370z" />
    <glyph glyph-name="uni00AD" unicode="&#xad;" horiz-adv-x="396" 
d="M324 269v-38h-252v38h252z" />
    <glyph glyph-name="registered" unicode="&#xae;" horiz-adv-x="496" 
d="M248 780q94 0 145 -50t51 -141t-51 -141t-145 -50q-93 0 -144.5 50t-51.5 141t51.5 141t144.5 50zM248 428q77 0 120 42.5t43 118.5t-43 118.5t-120 42.5t-120 -42.5t-43 -118.5t43 -118.5t120 -42.5zM258 568q14 0 26 -6t18 -16l33 -54h-35l-45 76h-51v-76h-32v194h86
q33 0 52 -15t19 -43t-19 -43t-52 -15v-2zM260 592q35 0 35 35q0 34 -35 34h-56v-69h56z" />
    <glyph glyph-name="macron" unicode="&#xaf;" horiz-adv-x="311" 
d="M288 679v-46h-264v46h264z" />
    <glyph glyph-name="degree" unicode="&#xb0;" horiz-adv-x="314" 
d="M157 570q-52 0 -80.5 27.5t-28.5 77.5t28.5 77.5t80.5 27.5t80.5 -27.5t28.5 -77.5t-28.5 -77.5t-80.5 -27.5zM157 612q28 0 43.5 16.5t15.5 46.5t-15.5 47t-43.5 17t-43.5 -17t-15.5 -47t15.5 -46.5t43.5 -16.5z" />
    <glyph glyph-name="plusminus" unicode="&#xb1;" horiz-adv-x="501" 
d="M435 332v-38h-162v-161h-45v161h-162v38h162v161h44v-161h163zM65 43h370v-38h-370v38z" />
    <glyph glyph-name="uni00B2" unicode="&#xb2;" horiz-adv-x="366" 
d="M337 401v-43h-308v40q115 32 178 101t63 161q0 48 -23.5 76t-65.5 28t-67.5 -31t-27.5 -86h-52q4 76 42.5 118.5t105.5 42.5q69 0 106.5 -39t37.5 -110q0 -103 -71.5 -170t-200.5 -86v-2h283z" />
    <glyph glyph-name="uni00B3" unicode="&#xb3;" horiz-adv-x="364" 
d="M177 606q72 0 113 -33t41 -92q0 -61 -41 -95t-114 -34q-67 0 -105.5 37.5t-42.5 106.5h51q2 -48 27 -74.5t70 -26.5q48 0 74 22.5t26 63.5q0 40 -27 62.5t-77 22.5h-12v41q49 6 76 28t27 55q0 35 -22.5 55t-64.5 20q-40 0 -63.5 -27t-25.5 -75h-51q5 69 42.5 107
t103.5 38q65 0 100.5 -27t35.5 -75q0 -47 -37.5 -72.5t-104.5 -25.5v-2h1v0z" />
    <glyph glyph-name="acute" unicode="&#xb4;" horiz-adv-x="222" 
d="M203 680l-166 -84l-20 36l164 88z" />
    <glyph glyph-name="paragraph" unicode="&#xb6;" horiz-adv-x="655" 
d="M551 -230h-55v952h-161v-952h-55v952q-91 0 -141.5 -44.5t-50.5 -125.5q0 -69 35.5 -112t98.5 -53v-53q-91 11 -142 68t-51 150q0 103 66 160.5t185 57.5h271v-1000z" />
    <glyph glyph-name="periodcentered" unicode="&#xb7;" horiz-adv-x="220" 
d="M149 295v-74h-78v74h78z" />
    <glyph glyph-name="cedilla" unicode="&#xb8;" horiz-adv-x="253" 
d="M103 -240q-23 0 -45.5 6t-39.5 17v38q17 -11 38.5 -17t43.5 -6q37 0 57 14.5t20 40.5q0 20 -13.5 31.5t-37.5 11.5q-41 2 -60 -26l-31 20q15 20 41 32t54 12q47 0 73 -21t26 -59q0 -45 -33 -69.5t-93 -24.5z" />
    <glyph glyph-name="uni00B9" unicode="&#xb9;" horiz-adv-x="218" 
d="M155 802v-444h-53v423h-2q0 -39 -21.5 -61t-60.5 -22v45q40 0 62 15.5t22 43.5h53z" />
    <glyph glyph-name="ordmasculine" unicode="&#xba;" horiz-adv-x="395" 
d="M198 437q-69 0 -107.5 40.5t-38.5 113.5q0 74 38.5 114.5t107.5 40.5t107.5 -40.5t38.5 -114.5q0 -73 -38.5 -113.5t-107.5 -40.5zM198 478q45 0 69.5 29.5t24.5 83.5t-24.5 84t-69.5 30t-70 -30t-25 -84t25 -83.5t70 -29.5z" />
    <glyph glyph-name="guillemotright" unicode="&#xbb;" horiz-adv-x="428" 
d="M102 57h-49l126 193l-126 193h49l128 -193zM257 57h-49l126 193l-126 193h49l128 -193z" />
    <glyph glyph-name="onequarter" unicode="&#xbc;" horiz-adv-x="770" 
d="M121 731q0 -39 -21.5 -61t-60.5 -22v45q40 0 62 15.5t22 43.5h53v-444h-53v423h-2zM568 726l-474 -736l-32 24l474 736zM740 114h-58v-114h-53v114h-214v48l167 282h100v-287h58v-43zM465 159v-2h165v281h-2z" />
    <glyph glyph-name="onehalf" unicode="&#xbd;" horiz-adv-x="772" 
d="M121 731q0 -39 -21.5 -61t-60.5 -22v45q40 0 62 15.5t22 43.5h53v-444h-53v423h-2zM568 726l-474 -736l-32 24l474 736zM732 43v-43h-308v40q115 32 178 101t63 161q0 48 -23.5 76t-65.5 28t-67.5 -31t-27.5 -86h-52q4 76 42.5 118.5t105.5 42.5q69 0 106.5 -39
t37.5 -110q0 -103 -71.5 -170t-200.5 -86v-2h283z" />
    <glyph glyph-name="threequarters" unicode="&#xbe;" horiz-adv-x="908" 
d="M342 431q0 -61 -41 -95t-114 -34q-67 0 -105.5 37.5t-42.5 106.5h51q2 -48 27 -74.5t70 -26.5q48 0 74 22.5t26 63.5q0 40 -27 62.5t-77 22.5h-12v41q49 6 76 28t27 55q0 35 -22.5 55t-64.5 20q-40 0 -63.5 -27t-25.5 -75h-51q5 69 42.5 107t103.5 38q65 0 100.5 -27
t35.5 -75q0 -47 -37.5 -72.5t-104.5 -25.5v-2h1q72 0 113 -33t41 -92zM706 726l-474 -736l-32 24l474 736zM878 114h-58v-114h-53v114h-214v48l167 282h100v-287h58v-43zM603 159v-2h165v281h-2z" />
    <glyph glyph-name="questiondown" unicode="&#xbf;" horiz-adv-x="518" 
d="M250 418v74h78v-74h-78zM491 -4q-5 -112 -65.5 -174t-163.5 -62q-105 0 -163 55t-58 152q0 78 56.5 169t156.5 179h62v-2q-50 -45 -89 -91t-66 -90.5t-41 -85.5t-14 -77q0 -72 41 -112.5t116 -40.5t118.5 47.5t48.5 132.5h61z" />
    <glyph glyph-name="Agrave" unicode="&#xc0;" horiz-adv-x="670" 
d="M518 195h-370l-67 -195h-66l265 740h111l263 -740h-69zM500 249l-165 484h-2l-166 -484h333zM321 802l-79 125h67l62 -125h-50z" />
    <glyph glyph-name="Aacute" unicode="&#xc1;" horiz-adv-x="670" 
d="M518 195h-370l-67 -195h-66l265 740h111l263 -740h-69zM500 249l-165 484h-2l-166 -484h333zM300 802l62 125h67l-79 -125h-50z" />
    <glyph glyph-name="Acircumflex" unicode="&#xc2;" horiz-adv-x="670" 
d="M518 195h-370l-67 -195h-66l265 740h111l263 -740h-69zM500 249l-165 484h-2l-166 -484h333zM338 908h-4l-65 -116h-54l70 125h102l70 -125h-54z" />
    <glyph glyph-name="Atilde" unicode="&#xc3;" horiz-adv-x="670" 
d="M518 195h-370l-67 -195h-66l265 740h111l263 -740h-69zM500 249l-165 484h-2l-166 -484h333zM382 805q-20 0 -32.5 8t-22.5 17t-20 17t-24 8q-25 0 -30 -53h-41q1 48 20.5 74t57.5 26q19 0 31.5 -7.5t22.5 -17t19.5 -17t24.5 -7.5q26 0 31 52h41q-1 -48 -21 -74t-57 -26z
" />
    <glyph glyph-name="Adieresis" unicode="&#xc4;" horiz-adv-x="670" 
d="M292 856h-59v96h59v-96zM436 856h-58v96h58v-96zM518 195h-370l-67 -195h-66l265 740h111l263 -740h-69zM500 249l-165 484h-2l-166 -484h333z" />
    <glyph glyph-name="Aring" unicode="&#xc5;" horiz-adv-x="670" 
d="M335 800q-54 0 -83 28t-29 79q0 50 29 78t83 28t83 -28t29 -78q0 -51 -29 -79t-83 -28zM335 974q-31 0 -48 -17.5t-17 -49.5t17 -49.5t48 -17.5t48 17.5t17 49.5t-17 49.5t-48 17.5zM518 195h-370l-67 -195h-66l265 740h111l263 -740h-69zM500 249l-165 484h-2l-166 -484
h333z" />
    <glyph glyph-name="AE" unicode="&#xc6;" horiz-adv-x="1053" 
d="M1009 54v-54h-438l-40 195h-367l-93 -195h-70l360 740h637v-54h-509l63 -285h411v-54h-399l64 -293h381zM520 249l-99 484h-2l-230 -484h331z" />
    <glyph glyph-name="Ccedilla" unicode="&#xc7;" horiz-adv-x="702" 
d="M657 265q-11 -64 -35.5 -115t-62 -86.5t-86.5 -54.5t-107 -19q-73 0 -130 26t-96.5 74.5t-60.5 119t-21 160.5t21 160.5t60.5 119t96.5 74.5t130 26q117 0 193.5 -70.5t97.5 -196.5h-61q-20 100 -80.5 155.5t-149.5 55.5q-57 0 -102.5 -22t-77 -63.5t-48 -102
t-16.5 -136.5q0 -77 16.5 -137t48 -101.5t77 -63.5t102.5 -22q89 0 149.5 58t80.5 161h61zM341 -240q-23 0 -45.5 6t-39.5 17v38q17 -11 38.5 -17t43.5 -6q37 0 57 14.5t20 40.5q0 20 -13.5 31.5t-37.5 11.5q-41 2 -60 -26l-31 20q15 20 41 32t54 12q47 0 73 -21t26 -59
q0 -45 -33 -69.5t-93 -24.5z" />
    <glyph glyph-name="Egrave" unicode="&#xc8;" horiz-adv-x="614" 
d="M570 54v-54h-470v740h459v-54h-396v-276h361v-54h-361v-302h407zM331 802l-79 125h67l62 -125h-50z" />
    <glyph glyph-name="Eacute" unicode="&#xc9;" horiz-adv-x="614" 
d="M570 54v-54h-470v740h459v-54h-396v-276h361v-54h-361v-302h407zM300 802l62 125h67l-79 -125h-50z" />
    <glyph glyph-name="Ecircumflex" unicode="&#xca;" horiz-adv-x="614" 
d="M570 54v-54h-470v740h459v-54h-396v-276h361v-54h-361v-302h407zM327 908h-4l-65 -116h-54l70 125h102l70 -125h-54z" />
    <glyph glyph-name="Edieresis" unicode="&#xcb;" horiz-adv-x="614" 
d="M284 856h-59v96h59v-96zM428 856h-58v96h58v-96zM570 54v-54h-470v740h459v-54h-396v-276h361v-54h-361v-302h407z" />
    <glyph glyph-name="Igrave" unicode="&#xcc;" horiz-adv-x="263" 
d="M100 740h63v-740h-63v740zM113 802l-79 125h67l62 -125h-50z" />
    <glyph glyph-name="Iacute" unicode="&#xcd;" horiz-adv-x="263" 
d="M100 740h63v-740h-63v740zM102 802l62 125h67l-79 -125h-50z" />
    <glyph glyph-name="Icircumflex" unicode="&#xce;" horiz-adv-x="263" 
d="M282 818h-56l-93 147h-2l-93 -147h-56l100 154h100zM100 740h63v-740h-63v740z" />
    <glyph glyph-name="Idieresis" unicode="&#xcf;" horiz-adv-x="263" 
d="M30 952h59v-96h-59v96zM175 952h58v-96h-58v96zM100 740h63v-740h-63v740z" />
    <glyph glyph-name="Eth" unicode="&#xd0;" horiz-adv-x="711" 
d="M312 740q81 0 144.5 -25t108 -73t67.5 -116.5t23 -155.5t-23 -155.5t-67.5 -116.5t-108 -73t-144.5 -25h-203v357h-98v37h98v346h203zM318 54q129 0 201 83t72 233t-72 233t-201 83h-146v-292h147v-37h-147v-303h146z" />
    <glyph glyph-name="Ntilde" unicode="&#xd1;" horiz-adv-x="725" 
d="M289 915q-23 0 -37 -19.5t-16 -53.5h-39q0 58 25 90.5t70 32.5q26 0 45 -11t35 -23.5t31 -23.5t33 -11q23 0 37 19t16 54h40q-1 -59 -26 -91t-70 -32q-26 0 -45 11t-35 23.5t-31 23.5t-33 11zM625 740v-740h-117l-346 733h-2l1 -733h-61v740h118l346 -733h2l-1 733h60z
" />
    <glyph glyph-name="Ograve" unicode="&#xd2;" horiz-adv-x="738" 
d="M369 -10q-74 0 -131.5 26t-97.5 74.5t-61 119t-21 160.5t21 160.5t61 119t97.5 74.5t131.5 26q73 0 131 -26t98 -74.5t61 -119t21 -160.5t-21 -160.5t-61 -119t-98 -74.5t-131 -26zM369 46q58 0 104 22t77.5 63.5t48.5 101.5t17 137q0 76 -17 136.5t-48.5 102t-77.5 63.5
t-104 22q-118 0 -182.5 -85t-64.5 -239t64.5 -239t182.5 -85zM353 802l-79 125h67l62 -125h-50z" />
    <glyph glyph-name="Oacute" unicode="&#xd3;" horiz-adv-x="738" 
d="M369 -10q-74 0 -131.5 26t-97.5 74.5t-61 119t-21 160.5t21 160.5t61 119t97.5 74.5t131.5 26q73 0 131 -26t98 -74.5t61 -119t21 -160.5t-21 -160.5t-61 -119t-98 -74.5t-131 -26zM369 46q58 0 104 22t77.5 63.5t48.5 101.5t17 137q0 76 -17 136.5t-48.5 102t-77.5 63.5
t-104 22q-118 0 -182.5 -85t-64.5 -239t64.5 -239t182.5 -85zM332 802l62 125h67l-79 -125h-50z" />
    <glyph glyph-name="Ocircumflex" unicode="&#xd4;" horiz-adv-x="738" 
d="M369 750q73 0 131 -26t98 -74.5t61 -119t21 -160.5t-21 -160.5t-61 -119t-98 -74.5t-131 -26q-74 0 -131.5 26t-97.5 74.5t-61 119t-21 160.5t21 160.5t61 119t97.5 74.5t131.5 26zM369 46q58 0 104 22t77.5 63.5t48.5 101.5t17 137q0 76 -17 136.5t-48.5 102t-77.5 63.5
t-104 22q-118 0 -182.5 -85t-64.5 -239t64.5 -239t182.5 -85zM371 908h-4l-65 -116h-54l70 125h102l70 -125h-54z" />
    <glyph glyph-name="Otilde" unicode="&#xd5;" horiz-adv-x="738" 
d="M369 -10q-74 0 -131.5 26t-97.5 74.5t-61 119t-21 160.5t21 160.5t61 119t97.5 74.5t131.5 26q73 0 131 -26t98 -74.5t61 -119t21 -160.5t-21 -160.5t-61 -119t-98 -74.5t-131 -26zM369 46q58 0 104 22t77.5 63.5t48.5 101.5t17 137q0 76 -17 136.5t-48.5 102t-77.5 63.5
t-104 22q-118 0 -182.5 -85t-64.5 -239t64.5 -239t182.5 -85zM415 805q-20 0 -32.5 8t-22.5 17t-20 17t-24 8q-25 0 -30 -53h-41q1 48 20.5 74t57.5 26q19 0 31.5 -7.5t22.5 -17t19.5 -17t24.5 -7.5q26 0 31 52h41q-1 -48 -21 -74t-57 -26z" />
    <glyph glyph-name="Odieresis" unicode="&#xd6;" horiz-adv-x="738" 
d="M268 952h59v-96h-59v96zM413 952h58v-96h-58v96zM369 -10q-74 0 -131.5 26t-97.5 74.5t-61 119t-21 160.5t21 160.5t61 119t97.5 74.5t131.5 26q73 0 131 -26t98 -74.5t61 -119t21 -160.5t-21 -160.5t-61 -119t-98 -74.5t-131 -26zM369 46q58 0 104 22t77.5 63.5
t48.5 101.5t17 137q0 76 -17 136.5t-48.5 102t-77.5 63.5t-104 22q-118 0 -182.5 -85t-64.5 -239t64.5 -239t182.5 -85z" />
    <glyph glyph-name="multiply" unicode="&#xd7;" horiz-adv-x="481" 
d="M271 246l148 -148l-30 -30l-148 148l-149 -148l-30 30l148 148l-148 148l30 30l149 -148l148 148l30 -30z" />
    <glyph glyph-name="Oslash" unicode="&#xd8;" horiz-adv-x="738" 
d="M578 671q50 -49 76 -124.5t26 -176.5q0 -90 -21 -160.5t-61 -119t-98 -74.5t-131 -26q-100 0 -171 47l-44 -73l-41 25l47 79q-50 49 -76 125t-26 177q0 90 21 160.5t61 119t97.5 74.5t131.5 26q51 0 94 -12.5t78 -35.5l44 74l41 -25zM122 370q0 -161 72 -247l315 527
q-58 44 -140 44q-118 0 -182.5 -85t-64.5 -239zM369 46q58 0 104 22t77.5 63.5t48.5 101.5t17 137q0 160 -71 246l-316 -527q58 -43 140 -43z" />
    <glyph glyph-name="Ugrave" unicode="&#xd9;" horiz-adv-x="708" 
d="M556 740h60v-488q0 -124 -69 -193t-193 -69t-193 69t-69 193v488h63v-493q0 -95 52.5 -148t146.5 -53q96 0 149 53t53 148v493zM347 802l-79 125h67l62 -125h-50z" />
    <glyph glyph-name="Uacute" unicode="&#xda;" horiz-adv-x="708" 
d="M556 740h60v-488q0 -124 -69 -193t-193 -69t-193 69t-69 193v488h63v-493q0 -95 52.5 -148t146.5 -53q96 0 149 53t53 148v493zM319 802l62 125h67l-79 -125h-50z" />
    <glyph glyph-name="Ucircumflex" unicode="&#xdb;" horiz-adv-x="708" 
d="M260 818h-56l100 154h100l100 -154h-56l-93 147h-2zM616 740v-488q0 -124 -69 -193t-193 -69t-193 69t-69 193v488h63v-493q0 -95 52.5 -148t146.5 -53q96 0 149 53t53 148v493h60z" />
    <glyph glyph-name="Udieresis" unicode="&#xdc;" horiz-adv-x="708" 
d="M252 952h59v-96h-59v96zM397 952h58v-96h-58v96zM556 740h60v-488q0 -124 -69 -193t-193 -69t-193 69t-69 193v488h63v-493q0 -95 52.5 -148t146.5 -53q96 0 149 53t53 148v493z" />
    <glyph glyph-name="Yacute" unicode="&#xdd;" horiz-adv-x="642" 
d="M645 740l-385 -740h-71l138 269h-62l-245 471h74l240 -464h2l238 464h71zM290 802l62 125h67l-79 -125h-50z" />
    <glyph glyph-name="Thorn" unicode="&#xde;" horiz-adv-x="633" 
d="M346 602q112 0 174.5 -59t62.5 -165t-62.5 -165.5t-175.5 -59.5h-182v-153h-63v740h63v-138h183zM349 206q80 0 124.5 45.5t44.5 126.5t-44 125.5t-124 44.5h-187v-342h186z" />
    <glyph glyph-name="germandbls" unicode="&#xdf;" horiz-adv-x="616" 
d="M301 451q125 0 195 -60t70 -168q0 -110 -62.5 -171.5t-174.5 -61.5q-25 0 -49 3t-43 9v49q18 -5 40.5 -7.5t45.5 -2.5q86 0 133.5 48t47.5 136q0 87 -53.5 134.5t-150.5 47.5h-37v46q89 5 138.5 43t49.5 102q0 62 -38 96.5t-106 34.5q-78 0 -121 -41.5t-43 -117.5v-570
h-60v568q0 101 59 156.5t165 55.5q97 0 151 -44t54 -123q0 -76 -55.5 -118t-155.5 -42v-2v0z" />
    <glyph glyph-name="agrave" unicode="&#xe0;" 
d="M514 492v-492h-60v158h-2q0 -79 -48.5 -123.5t-135.5 -44.5q-102 0 -158.5 67.5t-56.5 188.5t56.5 188.5t158.5 67.5q87 0 135.5 -44.5t48.5 -123.5h2v158h60zM287 41q82 0 127.5 54.5t45.5 150.5q0 97 -45.5 151.5t-127.5 54.5t-127.5 -54.5t-45.5 -151.5t45.5 -151
t127.5 -54zM280 560l-79 125h67l62 -125h-50z" />
    <glyph glyph-name="aacute" unicode="&#xe1;" 
d="M514 492v-492h-60v158h-2q0 -79 -48.5 -123.5t-135.5 -44.5q-102 0 -158.5 67.5t-56.5 188.5t56.5 188.5t158.5 67.5q87 0 135.5 -44.5t48.5 -123.5h2v158h60zM287 41q82 0 127.5 54.5t45.5 150.5q0 97 -45.5 151.5t-127.5 54.5t-127.5 -54.5t-45.5 -151.5t45.5 -151
t127.5 -54zM268 560l62 125h67l-79 -125h-50z" />
    <glyph glyph-name="acircumflex" unicode="&#xe2;" 
d="M514 492v-492h-60v158h-2q0 -79 -48.5 -123.5t-135.5 -44.5q-102 0 -158.5 67.5t-56.5 188.5t56.5 188.5t158.5 67.5q87 0 135.5 -44.5t48.5 -123.5h2v158h60zM287 41q82 0 127.5 54.5t45.5 150.5q0 97 -45.5 151.5t-127.5 54.5t-127.5 -54.5t-45.5 -151.5t45.5 -151
t127.5 -54zM298 666h-4l-65 -116h-54l70 125h102l70 -125h-54z" />
    <glyph glyph-name="atilde" unicode="&#xe3;" 
d="M514 492v-492h-60v158h-2q0 -79 -48.5 -123.5t-135.5 -44.5q-102 0 -158.5 67.5t-56.5 188.5t56.5 188.5t158.5 67.5q87 0 135.5 -44.5t48.5 -123.5h2v158h60zM287 41q82 0 127.5 54.5t45.5 150.5q0 97 -45.5 151.5t-127.5 54.5t-127.5 -54.5t-45.5 -151.5t45.5 -151
t127.5 -54zM343 563q-20 0 -32.5 8t-22.5 17t-20 17t-24 8q-25 0 -30 -53h-41q1 48 20.5 74t57.5 26q19 0 31.5 -7.5t22.5 -17t19.5 -17t24.5 -7.5q26 0 31 52h41q-1 -48 -21 -74t-57 -26z" />
    <glyph glyph-name="adieresis" unicode="&#xe4;" 
d="M244 608h-59v96h59v-96zM388 608h-58v96h58v-96zM514 492v-492h-60v158h-2q0 -79 -48.5 -123.5t-135.5 -44.5q-102 0 -158.5 67.5t-56.5 188.5t56.5 188.5t158.5 67.5q87 0 135.5 -44.5t48.5 -123.5h2v158h60zM287 41q82 0 127.5 54.5t45.5 150.5q0 97 -45.5 151.5
t-127.5 54.5t-127.5 -54.5t-45.5 -151.5t45.5 -151t127.5 -54z" />
    <glyph glyph-name="aring" unicode="&#xe5;" 
d="M287 552q-54 0 -83 28t-29 79q0 50 29 78t83 28t83 -28t29 -78q0 -51 -29 -79t-83 -28zM287 726q-31 0 -48 -17.5t-17 -49.5t17 -49.5t48 -17.5t48 17.5t17 49.5t-17 49.5t-48 17.5zM514 492v-492h-60v158h-2q0 -79 -48.5 -123.5t-135.5 -44.5q-102 0 -158.5 67.5
t-56.5 188.5t56.5 188.5t158.5 67.5q87 0 135.5 -44.5t48.5 -123.5h2v158h60zM287 41q82 0 127.5 54.5t45.5 150.5q0 97 -45.5 151.5t-127.5 54.5t-127.5 -54.5t-45.5 -151.5t45.5 -151t127.5 -54z" />
    <glyph glyph-name="ae" unicode="&#xe6;" horiz-adv-x="943" 
d="M892 234h-384q3 -93 45 -143.5t117 -50.5q66 0 108.5 34.5t53.5 97.5h60q-11 -86 -64 -134t-139 -48q-82 0 -127.5 43.5t-45.5 121.5h-2v-155h-60v158h-2q0 -79 -48.5 -123.5t-135.5 -44.5q-102 0 -158.5 67.5t-56.5 188.5t56.5 188.5t158.5 67.5q87 0 135.5 -44.5
t48.5 -123.5h2v158h60v-156h2q0 79 45.5 122.5t127.5 43.5q97 0 150 -67.5t53 -189.5v-11zM670 453q-71 0 -113 -47t-48 -132h322q-7 85 -49 132t-112 47zM287 41q82 0 127.5 54.5t45.5 150.5q0 97 -45.5 151.5t-127.5 54.5t-127.5 -54.5t-45.5 -151.5t45.5 -151t127.5 -54z
" />
    <glyph glyph-name="ccedilla" unicode="&#xe7;" horiz-adv-x="547" 
d="M284 -10q-109 0 -170 67.5t-61 188.5t61 188.5t170 67.5q86 0 142.5 -43t76.5 -121h-62q-18 54 -57.5 84t-99.5 30q-81 0 -125.5 -54.5t-44.5 -151.5t44.5 -151t125.5 -54q63 0 104 33t57 94h61q-17 -85 -74 -131.5t-148 -46.5zM259 -240q-23 0 -45.5 6t-39.5 17v38
q17 -11 38.5 -17t43.5 -6q37 0 57 14.5t20 40.5q0 20 -13.5 31.5t-37.5 11.5q-41 2 -60 -26l-31 20q15 20 41 32t54 12q47 0 73 -21t26 -59q0 -45 -33 -69.5t-93 -24.5z" />
    <glyph glyph-name="egrave" unicode="&#xe8;" horiz-adv-x="548" 
d="M496 234h-383q2 -92 44.5 -143t117.5 -51q66 0 108.5 34.5t52.5 97.5h60q-11 -86 -69 -134t-152 -48q-106 0 -164 67t-58 188q0 122 58 189.5t164 67.5q105 0 163 -67.5t58 -189.5v-11zM275 453q-71 0 -113 -47t-48 -132h321q-6 85 -48 132t-112 47zM260 560l-79 125h67
l62 -125h-50z" />
    <glyph glyph-name="eacute" unicode="&#xe9;" horiz-adv-x="548" 
d="M496 234h-383q2 -92 44.5 -143t117.5 -51q66 0 108.5 34.5t52.5 97.5h60q-11 -86 -69 -134t-152 -48q-106 0 -164 67t-58 188q0 122 58 189.5t164 67.5q105 0 163 -67.5t58 -189.5v-11zM275 453q-71 0 -113 -47t-48 -132h321q-6 85 -48 132t-112 47zM245 560l62 125h67
l-79 -125h-50z" />
    <glyph glyph-name="ecircumflex" unicode="&#xea;" horiz-adv-x="548" 
d="M496 234h-383q2 -92 44.5 -143t117.5 -51q66 0 108.5 34.5t52.5 97.5h60q-11 -86 -69 -134t-152 -48q-106 0 -164 67t-58 188q0 122 58 189.5t164 67.5q105 0 163 -67.5t58 -189.5v-11zM275 453q-71 0 -113 -47t-48 -132h321q-6 85 -48 132t-112 47zM278 666h-4l-65 -116
h-54l70 125h102l70 -125h-54z" />
    <glyph glyph-name="edieresis" unicode="&#xeb;" horiz-adv-x="548" 
d="M232 608h-59v96h59v-96zM376 608h-58v96h58v-96zM496 234h-383q2 -92 44.5 -143t117.5 -51q66 0 108.5 34.5t52.5 97.5h60q-11 -86 -69 -134t-152 -48q-106 0 -164 67t-58 188q0 122 58 189.5t164 67.5q105 0 163 -67.5t58 -189.5v-11zM275 453q-71 0 -113 -47t-48 -132
h321q-6 85 -48 132t-112 47z" />
    <glyph glyph-name="igrave" unicode="&#xec;" horiz-adv-x="226" 
d="M143 492v-492h-60v492h60zM92 560l-79 125h67l62 -125h-50z" />
    <glyph glyph-name="iacute" unicode="&#xed;" horiz-adv-x="226" 
d="M143 492v-492h-60v492h60zM82 560l62 125h67l-79 -125h-50z" />
    <glyph glyph-name="icircumflex" unicode="&#xee;" horiz-adv-x="226" 
d="M263 570h-56l-93 147h-2l-93 -147h-56l100 154h100zM83 492h60v-492h-60v492z" />
    <glyph glyph-name="idieresis" unicode="&#xef;" horiz-adv-x="226" 
d="M11 704h59v-96h-59v96zM156 704h58v-96h-58v96zM143 492v-492h-60v492h60z" />
    <glyph glyph-name="eth" unicode="&#xf0;" horiz-adv-x="585" 
d="M307 691q58 -36 99 -79t66.5 -94.5t37 -113.5t11.5 -136q0 -131 -61.5 -204.5t-172.5 -73.5t-172.5 67t-61.5 188q0 120 56.5 187t157.5 67q92 0 143.5 -61t51.5 -170h2q0 72 -11 131t-35.5 107t-64.5 86.5t-97 71.5l-137 -70l-23 37l113 58q-50 23 -113 46l16 45
q43 -15 80.5 -30.5t69.5 -32.5l123 63l23 -37zM287 41q82 0 127.5 53.5t45.5 150.5t-45.5 150.5t-127.5 53.5t-127.5 -53.5t-45.5 -150.5t45.5 -150.5t127.5 -53.5z" />
    <glyph glyph-name="ntilde" unicode="&#xf1;" horiz-adv-x="575" 
d="M216 667q-23 0 -37 -19.5t-16 -53.5h-39q0 58 25 90.5t70 32.5q26 0 45 -11t35 -23.5t31 -23.5t33 -11q23 0 37 19t16 54h40q-1 -59 -26 -91t-70 -32q-26 0 -45 11t-35 23.5t-31 23.5t-33 11zM317 502q85 0 132.5 -51t47.5 -142v-309h-60v308q0 69 -36.5 106.5
t-102.5 37.5q-73 0 -114 -47.5t-41 -134.5v-270h-60v492h60v-167h2q0 85 45.5 131t126.5 46z" />
    <glyph glyph-name="ograve" unicode="&#xf2;" horiz-adv-x="574" 
d="M287 -10q-111 0 -172.5 67.5t-61.5 188.5t61.5 188.5t172.5 67.5t172.5 -67.5t61.5 -188.5t-61.5 -188.5t-172.5 -67.5zM287 41q82 0 127.5 54t45.5 151t-45.5 151.5t-127.5 54.5t-127.5 -54.5t-45.5 -151.5t45.5 -151t127.5 -54zM271 560l-79 125h67l62 -125h-50z" />
    <glyph glyph-name="oacute" unicode="&#xf3;" horiz-adv-x="574" 
d="M287 -10q-111 0 -172.5 67.5t-61.5 188.5t61.5 188.5t172.5 67.5t172.5 -67.5t61.5 -188.5t-61.5 -188.5t-172.5 -67.5zM287 41q82 0 127.5 54t45.5 151t-45.5 151.5t-127.5 54.5t-127.5 -54.5t-45.5 -151.5t45.5 -151t127.5 -54zM254 560l62 125h67l-79 -125h-50z" />
    <glyph glyph-name="ocircumflex" unicode="&#xf4;" horiz-adv-x="574" 
d="M287 502q111 0 172.5 -67.5t61.5 -188.5t-61.5 -188.5t-172.5 -67.5t-172.5 67.5t-61.5 188.5t61.5 188.5t172.5 67.5zM287 41q82 0 127.5 54t45.5 151t-45.5 151.5t-127.5 54.5t-127.5 -54.5t-45.5 -151.5t45.5 -151t127.5 -54zM288 666h-4l-65 -116h-54l70 125h102
l70 -125h-54z" />
    <glyph glyph-name="otilde" unicode="&#xf5;" horiz-adv-x="574" 
d="M287 -10q-111 0 -172.5 67.5t-61.5 188.5t61.5 188.5t172.5 67.5t172.5 -67.5t61.5 -188.5t-61.5 -188.5t-172.5 -67.5zM287 41q82 0 127.5 54t45.5 151t-45.5 151.5t-127.5 54.5t-127.5 -54.5t-45.5 -151.5t45.5 -151t127.5 -54zM333 563q-20 0 -32.5 8t-22.5 17t-20 17
t-24 8q-25 0 -30 -53h-41q1 48 20.5 74t57.5 26q19 0 31.5 -7.5t22.5 -17t19.5 -17t24.5 -7.5q26 0 31 52h41q-1 -48 -21 -74t-57 -26z" />
    <glyph glyph-name="odieresis" unicode="&#xf6;" horiz-adv-x="574" 
d="M185 704h59v-96h-59v96zM330 704h58v-96h-58v96zM287 -10q-111 0 -172.5 67.5t-61.5 188.5t61.5 188.5t172.5 67.5t172.5 -67.5t61.5 -188.5t-61.5 -188.5t-172.5 -67.5zM287 41q82 0 127.5 54t45.5 151t-45.5 151.5t-127.5 54.5t-127.5 -54.5t-45.5 -151.5t45.5 -151
t127.5 -54z" />
    <glyph glyph-name="divide" unicode="&#xf7;" horiz-adv-x="514" 
d="M257 361q-32 0 -32 31q0 32 32 32q34 0 34 -32q0 -31 -34 -31zM72 271h370v-38h-370v38zM257 80q-32 0 -32 30q0 33 32 33q34 0 34 -33q0 -30 -34 -30z" />
    <glyph glyph-name="oslash" unicode="&#xf8;" horiz-adv-x="574" 
d="M446 448q36 -33 55.5 -84t19.5 -118q0 -121 -61.5 -188.5t-172.5 -67.5q-71 0 -123 29l-36 -56l-37 25l37 56q-36 33 -55.5 84t-19.5 118q0 121 61.5 188.5t172.5 67.5q71 0 123 -29l36 55l37 -23zM114 246q0 -99 47 -152l219 333q-38 25 -93 25q-82 0 -127.5 -54.5
t-45.5 -151.5zM287 41q82 0 127.5 54t45.5 151q0 98 -47 153l-218 -334q37 -24 92 -24z" />
    <glyph glyph-name="ugrave" unicode="&#xf9;" horiz-adv-x="565" 
d="M482 492v-492h-60v167h-2q0 -84 -44 -130.5t-123 -46.5q-83 0 -129 51t-46 142v309h60v-308q0 -68 35 -105.5t98 -37.5q72 0 111.5 47.5t39.5 133.5v270h60zM272 560l-79 125h67l62 -125h-50z" />
    <glyph glyph-name="uacute" unicode="&#xfa;" horiz-adv-x="565" 
d="M482 492v-492h-60v167h-2q0 -84 -44 -130.5t-123 -46.5q-83 0 -129 51t-46 142v309h60v-308q0 -68 35 -105.5t98 -37.5q72 0 111.5 47.5t39.5 133.5v270h60zM248 560l62 125h67l-79 -125h-50z" />
    <glyph glyph-name="ucircumflex" unicode="&#xfb;" horiz-adv-x="565" 
d="M186 570h-56l100 154h100l100 -154h-56l-93 147h-2zM482 492v-492h-60v167h-2q0 -84 -44 -130.5t-123 -46.5q-83 0 -129 51t-46 142v309h60v-308q0 -68 35 -105.5t98 -37.5q72 0 111.5 47.5t39.5 133.5v270h60z" />
    <glyph glyph-name="udieresis" unicode="&#xfc;" horiz-adv-x="565" 
d="M237 608h-59v96h59v-96zM381 608h-58v96h58v-96zM482 492v-492h-60v167h-2q0 -84 -44 -130.5t-123 -46.5q-83 0 -129 51t-46 142v309h60v-308q0 -68 35 -105.5t98 -37.5q72 0 111.5 47.5t39.5 133.5v270h60z" />
    <glyph glyph-name="yacute" unicode="&#xfd;" horiz-adv-x="514" 
d="M488 492l-252 -722h-65l80 230h-52l-171 492h65l164 -487h2l164 487h65zM220 560l62 125h67l-79 -125h-50z" />
    <glyph glyph-name="thorn" unicode="&#xfe;" 
d="M329 502q102 0 158.5 -67.5t56.5 -188.5t-56.5 -188.5t-158.5 -67.5q-87 0 -135.5 43.5t-48.5 121.5h-2v-385h-60v1000h60v-433h2q0 78 48.5 121.5t135.5 43.5zM310 41q82 0 127.5 54t45.5 151t-45.5 151t-127.5 54t-127.5 -54t-45.5 -151q0 -96 45.5 -150.5t127.5 -54.5
z" />
    <glyph glyph-name="ydieresis" unicode="&#xff;" horiz-adv-x="514" 
d="M217 608h-59v96h59v-96zM361 608h-58v96h58v-96zM488 492l-252 -722h-65l80 230h-52l-171 492h65l164 -487h2l164 487h65z" />
    <glyph glyph-name="Amacron" unicode="&#x100;" horiz-adv-x="670" 
d="M467 881h-264v46h264v-46zM518 195h-370l-67 -195h-66l265 740h111l263 -740h-69zM500 249l-165 484h-2l-166 -484h333z" />
    <glyph glyph-name="amacron" unicode="&#x101;" 
d="M420 633h-264v46h264v-46zM514 492v-492h-60v158h-2q0 -79 -48.5 -123.5t-135.5 -44.5q-102 0 -158.5 67.5t-56.5 188.5t56.5 188.5t158.5 67.5q87 0 135.5 -44.5t48.5 -123.5h2v158h60zM287 41q82 0 127.5 54.5t45.5 150.5q0 97 -45.5 151.5t-127.5 54.5t-127.5 -54.5
t-45.5 -151.5t45.5 -151t127.5 -54z" />
    <glyph glyph-name="Abreve" unicode="&#x102;" horiz-adv-x="670" 
d="M518 195h-370l-67 -195h-66l265 740h111l263 -740h-69zM500 249l-165 484h-2l-166 -484h333zM336 792q-59 0 -90 30.5t-31 85.5h47q0 -23 7 -37t17.5 -22t23.5 -10.5t26 -2.5t26 2.5t23.5 10.5t17 22t6.5 37h48q0 -55 -31 -85.5t-90 -30.5z" />
    <glyph glyph-name="abreve" unicode="&#x103;" 
d="M514 492v-492h-60v158h-2q0 -79 -48.5 -123.5t-135.5 -44.5q-102 0 -158.5 67.5t-56.5 188.5t56.5 188.5t158.5 67.5q87 0 135.5 -44.5t48.5 -123.5h2v158h60zM287 41q82 0 127.5 54.5t45.5 150.5q0 97 -45.5 151.5t-127.5 54.5t-127.5 -54.5t-45.5 -151.5t45.5 -151
t127.5 -54zM296 550q-59 0 -90 30.5t-31 85.5h47q0 -23 7 -37t17.5 -22t23.5 -10.5t26 -2.5t26 2.5t23.5 10.5t17 22t6.5 37h48q0 -55 -31 -85.5t-90 -30.5z" />
    <glyph glyph-name="Aogonek" unicode="&#x104;" horiz-adv-x="670" 
d="M590 -198q20 0 38 6t35 17v-42q-17 -11 -39.5 -17t-46.5 -6q-36 0 -56 18.5t-20 52.5q0 25 14 54.5t36 54.5t47 41.5t48 16.5v2h-61l-67 195h-370l-67 -195h-66l265 740h111l263 -740q-47 -42 -72.5 -85.5t-25.5 -78.5q0 -34 34 -34zM500 249l-165 484h-2l-166 -484h333z
" />
    <glyph glyph-name="aogonek" unicode="&#x105;" 
d="M450 -198q20 0 38 6t35 17v-42q-17 -11 -39.5 -17t-46.5 -6q-36 0 -56 18.5t-20 52.5q0 25 14 54.5t36 54.5t47 41.5t48 16.5v2h-52v158h-2q0 -79 -48.5 -123.5t-135.5 -44.5q-102 0 -158.5 67.5t-56.5 188.5t56.5 188.5t158.5 67.5q87 0 135.5 -44.5t48.5 -123.5h2v158
h60v-492q-47 -42 -72.5 -85.5t-25.5 -78.5q0 -34 34 -34zM287 41q82 0 127.5 54.5t45.5 150.5q0 97 -45.5 151.5t-127.5 54.5t-127.5 -54.5t-45.5 -151.5t45.5 -151t127.5 -54z" />
    <glyph glyph-name="Cacute" unicode="&#x106;" horiz-adv-x="702" 
d="M497 928l-166 -84l-20 36l164 88zM657 265q-11 -64 -35.5 -115t-62 -86.5t-86.5 -54.5t-107 -19q-73 0 -130 26t-96.5 74.5t-60.5 119t-21 160.5t21 160.5t60.5 119t96.5 74.5t130 26q117 0 193.5 -70.5t97.5 -196.5h-61q-20 100 -80.5 155.5t-149.5 55.5
q-57 0 -102.5 -22t-77 -63.5t-48 -102t-16.5 -136.5q0 -77 16.5 -137t48 -101.5t77 -63.5t102.5 -22q89 0 149.5 58t80.5 161h61z" />
    <glyph glyph-name="cacute" unicode="&#x107;" horiz-adv-x="547" 
d="M415 680l-166 -84l-20 36l164 88zM284 -10q-109 0 -170 67.5t-61 188.5t61 188.5t170 67.5q86 0 142.5 -43t76.5 -121h-62q-18 54 -57.5 84t-99.5 30q-81 0 -125.5 -54.5t-44.5 -151.5t44.5 -151t125.5 -54q63 0 104 33t57 94h61q-17 -85 -74 -131.5t-148 -46.5z" />
    <glyph glyph-name="Cdotaccent" unicode="&#x10a;" horiz-adv-x="702" 
d="M336 952h60v-96h-60v96zM657 265q-11 -64 -35.5 -115t-62 -86.5t-86.5 -54.5t-107 -19q-73 0 -130 26t-96.5 74.5t-60.5 119t-21 160.5t21 160.5t60.5 119t96.5 74.5t130 26q117 0 193.5 -70.5t97.5 -196.5h-61q-20 100 -80.5 155.5t-149.5 55.5q-57 0 -102.5 -22
t-77 -63.5t-48 -102t-16.5 -136.5q0 -77 16.5 -137t48 -101.5t77 -63.5t102.5 -22q89 0 149.5 58t80.5 161h61z" />
    <glyph glyph-name="cdotaccent" unicode="&#x10b;" horiz-adv-x="547" 
d="M254 704h60v-96h-60v96zM284 -10q-109 0 -170 67.5t-61 188.5t61 188.5t170 67.5q86 0 142.5 -43t76.5 -121h-62q-18 54 -57.5 84t-99.5 30q-81 0 -125.5 -54.5t-44.5 -151.5t44.5 -151t125.5 -54q63 0 104 33t57 94h61q-17 -85 -74 -131.5t-148 -46.5z" />
    <glyph glyph-name="Ccaron" unicode="&#x10c;" horiz-adv-x="702" 
d="M216 973h56l93 -147h2l93 147h56l-100 -154h-100zM366 46q89 0 149.5 58t80.5 161h61q-11 -64 -35.5 -115t-62 -86.5t-86.5 -54.5t-107 -19q-73 0 -130 26t-96.5 74.5t-60.5 119t-21 160.5t21 160.5t60.5 119t96.5 74.5t130 26q117 0 193.5 -70.5t97.5 -196.5h-61
q-20 100 -80.5 155.5t-149.5 55.5q-57 0 -102.5 -22t-77 -63.5t-48 -102t-16.5 -136.5q0 -77 16.5 -137t48 -101.5t77 -63.5t102.5 -22z" />
    <glyph glyph-name="ccaron" unicode="&#x10d;" horiz-adv-x="547" 
d="M134 725h56l93 -147h2l93 147h56l-100 -154h-100zM506 168q-17 -85 -74 -131.5t-148 -46.5q-109 0 -170 67.5t-61 188.5t61 188.5t170 67.5q86 0 142.5 -43t76.5 -121h-62q-18 54 -57.5 84t-99.5 30q-81 0 -125.5 -54.5t-44.5 -151.5t44.5 -151t125.5 -54q63 0 104 33
t57 94h61z" />
    <glyph glyph-name="Dcaron" unicode="&#x10e;" horiz-adv-x="702" 
d="M154 973h56l93 -147h2l93 147h56l-100 -154h-100zM303 740q81 0 144.5 -25t108 -73t67.5 -116.5t23 -155.5t-23 -155.5t-67.5 -116.5t-108 -73t-144.5 -25h-203v740h203zM309 54q129 0 201 83t72 233t-72 233t-201 83h-146v-632h146z" />
    <glyph glyph-name="dcaron" unicode="&#x10f;" horiz-adv-x="619" 
d="M666 767l-55 -206l-44 13l49 206zM454 770h60v-770h-60v158h-2q0 -79 -48.5 -123.5t-135.5 -44.5q-102 0 -158.5 67.5t-56.5 188.5t56.5 188.5t158.5 67.5q87 0 135.5 -44.5t48.5 -123.5h2v436zM287 41q82 0 127.5 54.5t45.5 150.5q0 97 -45.5 151.5t-127.5 54.5
t-127.5 -54.5t-45.5 -151.5t45.5 -151t127.5 -54z" />
    <glyph glyph-name="Dcroat" unicode="&#x110;" horiz-adv-x="711" 
d="M312 740q81 0 144.5 -25t108 -73t67.5 -116.5t23 -155.5t-23 -155.5t-67.5 -116.5t-108 -73t-144.5 -25h-203v352h-98v47h98v341h203zM318 54q129 0 201 83t72 233t-72 233t-201 83h-146v-287h147v-47h-147v-298h146z" />
    <glyph glyph-name="dcroat" unicode="&#x111;" 
d="M587 608h-73v-608h-60v158h-2q0 -79 -48.5 -123.5t-135.5 -44.5q-102 0 -158.5 67.5t-56.5 188.5t56.5 188.5t158.5 67.5q87 0 135.5 -44.5t48.5 -123.5h2v274h-175v47h175v115h60v-115h73v-47zM287 41q82 0 127.5 54.5t45.5 150.5q0 97 -45.5 151.5t-127.5 54.5
t-127.5 -54.5t-45.5 -151.5t45.5 -151t127.5 -54z" />
    <glyph glyph-name="Emacron" unicode="&#x112;" horiz-adv-x="614" 
d="M459 881h-264v46h264v-46zM570 54v-54h-470v740h459v-54h-396v-276h361v-54h-361v-302h407z" />
    <glyph glyph-name="emacron" unicode="&#x113;" horiz-adv-x="548" 
d="M407 633h-264v46h264v-46zM496 234h-383q2 -92 44.5 -143t117.5 -51q66 0 108.5 34.5t52.5 97.5h60q-11 -86 -69 -134t-152 -48q-106 0 -164 67t-58 188q0 122 58 189.5t164 67.5q105 0 163 -67.5t58 -189.5v-11zM275 453q-71 0 -113 -47t-48 -132h321q-6 85 -48 132
t-112 47z" />
    <glyph glyph-name="Edotaccent" unicode="&#x116;" horiz-adv-x="614" 
d="M357 856h-60v96h60v-96zM570 54v-54h-470v740h459v-54h-396v-276h361v-54h-361v-302h407z" />
    <glyph glyph-name="edotaccent" unicode="&#x117;" horiz-adv-x="548" 
d="M305 608h-60v96h60v-96zM496 234h-383q2 -92 44.5 -143t117.5 -51q66 0 108.5 34.5t52.5 97.5h60q-11 -86 -69 -134t-152 -48q-106 0 -164 67t-58 188q0 122 58 189.5t164 67.5q105 0 163 -67.5t58 -189.5v-11zM275 453q-71 0 -113 -47t-48 -132h321q-6 85 -48 132
t-112 47z" />
    <glyph glyph-name="Eogonek" unicode="&#x118;" horiz-adv-x="614" 
d="M467 0q-47 -42 -72.5 -85.5t-25.5 -78.5q0 -34 34 -34q20 0 38 6t35 17v-42q-17 -11 -39.5 -17t-46.5 -6q-36 0 -56 18.5t-20 52.5q0 25 14 54.5t36 54.5t47 41.5t48 16.5v2h-359v740h459v-54h-396v-276h361v-54h-361v-302h407v-54h-103v0z" />
    <glyph glyph-name="eogonek" unicode="&#x119;" horiz-adv-x="548" 
d="M496 234h-383q2 -92 44.5 -143t117.5 -51q66 0 108.5 34.5t52.5 97.5h60q-11 -91 -76 -139q-60 -51 -94 -103t-34 -94q0 -34 35 -34q20 0 38 6t34 17v-42q-17 -11 -39 -17t-46 -6q-36 0 -56.5 18.5t-20.5 52.5q0 22 13.5 47.5t35 50t49.5 47t57 37.5l-1 2
q-50 -25 -116 -25q-106 0 -164 67t-58 188q0 122 58 189.5t164 67.5q105 0 163 -67.5t58 -189.5v-11zM275 453q-71 0 -113 -47t-48 -132h321q-6 85 -48 132t-112 47z" />
    <glyph glyph-name="Ecaron" unicode="&#x11a;" horiz-adv-x="614" 
d="M177 973h56l93 -147h2l93 147h56l-100 -154h-100zM570 54v-54h-470v740h459v-54h-396v-276h361v-54h-361v-302h407z" />
    <glyph glyph-name="ecaron" unicode="&#x11b;" horiz-adv-x="548" 
d="M125 725h56l93 -147h2l93 147h56l-100 -154h-100zM496 234h-383q2 -92 44.5 -143t117.5 -51q66 0 108.5 34.5t52.5 97.5h60q-11 -86 -69 -134t-152 -48q-106 0 -164 67t-58 188q0 122 58 189.5t164 67.5q105 0 163 -67.5t58 -189.5v-11zM275 453q-71 0 -113 -47t-48 -132
h321q-6 85 -48 132t-112 47z" />
    <glyph glyph-name="Gbreve" unicode="&#x11e;" horiz-adv-x="724" 
d="M368 815q-65 0 -101 41.5t-36 115.5h48q0 -54 23.5 -84t65.5 -30t65.5 30t24.5 84h48q0 -74 -36 -115.5t-102 -41.5zM659 380v-380h-60v270h-2q0 -133 -68 -206.5t-192 -73.5q-63 0 -114.5 26t-88 74.5t-56.5 119t-20 160.5t21 160.5t61 119t97.5 74.5t130.5 26
q114 0 188.5 -69.5t96.5 -191.5h-61q-20 97 -79.5 151t-144.5 54q-117 0 -181.5 -85t-64.5 -239q0 -77 16 -137t46.5 -101.5t74.5 -63.5t100 -22q112 0 174.5 74.5t63.5 208.5h-250v51h312z" />
    <glyph glyph-name="gbreve" unicode="&#x11f;" 
d="M298 567q-65 0 -101 41.5t-36 115.5h48q0 -54 23.5 -84t65.5 -30t65.5 30t24.5 84h48q0 -74 -36 -115.5t-102 -41.5zM514 492v-505q0 -107 -60 -167t-169 -60q-99 0 -157 49t-63 137l57 3q4 -65 47 -101.5t116 -36.5q80 0 124.5 44.5t44.5 125.5v178h-2
q0 -79 -48.5 -123.5t-135.5 -44.5q-102 0 -158.5 67.5t-56.5 188.5t56.5 188t158.5 67q87 0 135.5 -44.5t48.5 -123.5h2v158h60zM287 42q82 0 127.5 54t45.5 151q0 96 -45.5 150.5t-127.5 54.5t-127.5 -54t-45.5 -151t45.5 -151t127.5 -54z" />
    <glyph glyph-name="Gdotaccent" unicode="&#x120;" horiz-adv-x="724" 
d="M398 856h-60v96h60v-96zM659 380v-380h-60v270h-2q0 -133 -68 -206.5t-192 -73.5q-63 0 -114.5 26t-88 74.5t-56.5 119t-20 160.5t21 160.5t61 119t97.5 74.5t130.5 26q114 0 188.5 -69.5t96.5 -191.5h-61q-20 97 -79.5 151t-144.5 54q-117 0 -181.5 -85t-64.5 -239
q0 -77 16 -137t46.5 -101.5t74.5 -63.5t100 -22q112 0 174.5 74.5t63.5 208.5h-250v51h312z" />
    <glyph glyph-name="gdotaccent" unicode="&#x121;" 
d="M328 608h-60v96h60v-96zM514 492v-505q0 -107 -60 -167t-169 -60q-99 0 -157 49t-63 137l57 3q4 -65 47 -101.5t116 -36.5q80 0 124.5 44.5t44.5 125.5v178h-2q0 -79 -48.5 -123.5t-135.5 -44.5q-102 0 -158.5 67.5t-56.5 188.5t56.5 188t158.5 67q87 0 135.5 -44.5
t48.5 -123.5h2v158h60zM287 42q82 0 127.5 54t45.5 151q0 96 -45.5 150.5t-127.5 54.5t-127.5 -54t-45.5 -151t45.5 -151t127.5 -54z" />
    <glyph glyph-name="Gcommaaccent" unicode="&#x122;" horiz-adv-x="724" 
d="M659 380v-380h-60v270h-2q0 -133 -68 -206.5t-192 -73.5q-63 0 -114.5 26t-88 74.5t-56.5 119t-20 160.5t21 160.5t61 119t97.5 74.5t130.5 26q114 0 188.5 -69.5t96.5 -191.5h-61q-20 97 -79.5 151t-144.5 54q-117 0 -181.5 -85t-64.5 -239q0 -77 16 -137t46.5 -101.5
t74.5 -63.5t100 -22q112 0 174.5 74.5t63.5 208.5h-250v51h312zM335 -79h67v-50q0 -41 -15.5 -66t-51.5 -45v29q59 23 62 75h-62v57z" />
    <glyph glyph-name="gcommaaccent" unicode="&#x123;" 
d="M331 606h-66v51q0 33 15 53t51 35v-29q-59 -14 -62 -51h62v-59zM514 492v-505q0 -107 -60 -167t-169 -60q-99 0 -157 49t-63 137l57 3q4 -65 47 -101.5t116 -36.5q80 0 124.5 44.5t44.5 125.5v178h-2q0 -79 -48.5 -123.5t-135.5 -44.5q-102 0 -158.5 67.5t-56.5 188.5
t56.5 188t158.5 67q87 0 135.5 -44.5t48.5 -123.5h2v158h60zM287 42q82 0 127.5 54t45.5 151q0 96 -45.5 150.5t-127.5 54.5t-127.5 -54t-45.5 -151t45.5 -151t127.5 -54z" />
    <glyph glyph-name="Hbar" unicode="&#x126;" horiz-adv-x="727" 
d="M690 564h-64v-564h-63v349h-399v-349h-63v564h-64v37h64v139h63v-139h399v139h63v-139h64v-37zM563 564h-399v-161h399v161z" />
    <glyph glyph-name="hbar" unicode="&#x127;" horiz-adv-x="575" 
d="M317 502q85 0 132.5 -51t47.5 -142v-309h-60v308q0 69 -36.5 106.5t-102.5 37.5q-73 0 -114 -47.5t-41 -134.5v-270h-60v618h-74v37h74v115h60v-115h174v-37h-174v-293h2q0 85 45.5 131t126.5 46z" />
    <glyph glyph-name="Itilde" unicode="&#x128;" horiz-adv-x="263" 
d="M178 805q-20 0 -32.5 8t-22.5 17t-20 17t-24 8q-25 0 -30 -53h-41q1 48 20.5 74t57.5 26q19 0 31.5 -7.5t22.5 -17t19.5 -17t24.5 -7.5q26 0 31 52h41q-1 -48 -21 -74t-57 -26zM100 740h63v-740h-63v740z" />
    <glyph glyph-name="itilde" unicode="&#x129;" horiz-adv-x="226" 
d="M159 563q-20 0 -32.5 8t-22.5 17t-20 17t-24 8q-25 0 -30 -53h-41q1 48 20.5 74t57.5 26q19 0 31.5 -7.5t22.5 -17t19.5 -17t24.5 -7.5q26 0 31 52h41q-1 -48 -21 -74t-57 -26zM143 492v-492h-60v492h60z" />
    <glyph glyph-name="Imacron" unicode="&#x12a;" horiz-adv-x="263" 
d="M264 927v-46h-264v46h264zM100 740h63v-740h-63v740z" />
    <glyph glyph-name="imacron" unicode="&#x12b;" horiz-adv-x="226" 
d="M246 679v-46h-264v46h264zM143 492v-492h-60v492h60z" />
    <glyph glyph-name="Iogonek" unicode="&#x12e;" horiz-adv-x="263" 
d="M98 -198q20 0 38 6t35 17v-42q-17 -11 -39.5 -17t-46.5 -6q-36 0 -56 18.5t-20 52.5q0 25 14 54.5t36 54.5t47 41.5t48 16.5v2h-54v740h63v-740h-1q-47 -42 -72.5 -85.5t-25.5 -78.5q0 -34 34 -34z" />
    <glyph glyph-name="iogonek" unicode="&#x12f;" horiz-adv-x="226" 
d="M143 608h-60v96h60v-96zM79 -198q20 0 38 6t35 17v-42q-17 -11 -39.5 -17t-46.5 -6q-36 0 -56 18.5t-20 52.5q0 25 14 54.5t36 54.5t47 41.5t48 16.5v2h-52v492h60v-492q-47 -42 -72.5 -85.5t-25.5 -78.5q0 -34 34 -34z" />
    <glyph glyph-name="Idotaccent" unicode="&#x130;" horiz-adv-x="263" 
d="M102 952h60v-96h-60v96zM100 740h63v-740h-63v740z" />
    <glyph glyph-name="dotlessi" unicode="&#x131;" horiz-adv-x="226" 
d="M143 492v-492h-60v492h60z" />
    <glyph glyph-name="Kcommaaccent" unicode="&#x136;" horiz-adv-x="674" 
d="M674 0h-92l-418 381h-2v-381h-62v740h62v-351h2l390 351h86l-396 -355zM317 -79h67v-50q0 -41 -15.5 -66t-51.5 -45v29q59 23 62 75h-62v57z" />
    <glyph glyph-name="kcommaaccent" unicode="&#x137;" horiz-adv-x="537" 
d="M530 0h-85l-300 252h-2v-252h-60v770h60v-510h2l284 232h83l-292 -235zM230 -79h67v-50q0 -41 -15.5 -66t-51.5 -45v29q59 23 62 75h-62v57z" />
    <glyph glyph-name="Lacute" unicode="&#x139;" horiz-adv-x="531" 
d="M262 928l-166 -84l-20 36l164 88zM510 54v-54h-410v740h63v-686h347z" />
    <glyph glyph-name="lacute" unicode="&#x13a;" horiz-adv-x="226" 
d="M244 958l-166 -84l-20 36l164 88zM83 770h60v-770h-60v770z" />
    <glyph glyph-name="Lcommaaccent" unicode="&#x13b;" horiz-adv-x="531" 
d="M510 54v-54h-410v740h63v-686h347zM231 -79h67v-50q0 -41 -15.5 -66t-51.5 -45v29q59 23 62 75h-62v57z" />
    <glyph glyph-name="lcommaaccent" unicode="&#x13c;" horiz-adv-x="226" 
d="M143 0h-60v770h60v-770zM147 -79v-50q0 -41 -15.5 -66t-51.5 -45v29q59 23 62 75h-62v57h67z" />
    <glyph glyph-name="Lcaron" unicode="&#x13d;" horiz-adv-x="532" 
d="M282 531l-43 13l48 206l50 -13zM510 54v-54h-410v740h63v-686h347z" />
    <glyph glyph-name="lcaron" unicode="&#x13e;" horiz-adv-x="266" 
d="M295 767l-56 -206l-43 13l49 206zM83 770h60v-770h-60v770z" />
    <glyph glyph-name="Lslash" unicode="&#x141;" horiz-adv-x="537" 
d="M516 54v-54h-410v319l-68 -45v46l68 46v374h63v-335l157 106v-46l-157 -106v-305h347z" />
    <glyph glyph-name="lslash" unicode="&#x142;" horiz-adv-x="278" 
d="M236 453l-67 -60v-393h-60v343l-66 -59v49l66 59v378h60v-327l67 59v-49z" />
    <glyph glyph-name="Nacute" unicode="&#x143;" horiz-adv-x="725" 
d="M327 844l-20 36l164 88l22 -40zM625 740v-740h-117l-346 733h-2l1 -733h-61v740h118l346 -733h2l-1 733h60z" />
    <glyph glyph-name="nacute" unicode="&#x144;" horiz-adv-x="575" 
d="M254 596l-20 36l164 88l22 -40zM317 502q85 0 132.5 -51t47.5 -142v-309h-60v308q0 69 -36.5 106.5t-102.5 37.5q-73 0 -114 -47.5t-41 -134.5v-270h-60v492h60v-167h2q0 85 45.5 131t126.5 46z" />
    <glyph glyph-name="Ncommaaccent" unicode="&#x145;" horiz-adv-x="725" 
d="M625 740v-740h-117l-346 733h-2l1 -733h-61v740h118l346 -733h2l-1 733h60zM330 -79h67v-50q0 -41 -15.5 -66t-51.5 -45v29q59 23 62 75h-62v57z" />
    <glyph glyph-name="ncommaaccent" unicode="&#x146;" horiz-adv-x="575" 
d="M317 502q85 0 132.5 -51t47.5 -142v-309h-60v308q0 69 -36.5 106.5t-102.5 37.5q-73 0 -114 -47.5t-41 -134.5v-270h-60v492h60v-167h2q0 85 45.5 131t126.5 46zM257 -79h67v-50q0 -41 -15.5 -66t-51.5 -45v29q59 23 62 75h-62v57z" />
    <glyph glyph-name="Ncaron" unicode="&#x147;" horiz-adv-x="725" 
d="M213 973h56l93 -147h2l93 147h56l-100 -154h-100zM625 740v-740h-117l-346 733h-2l1 -733h-61v740h118l346 -733h2l-1 733h60z" />
    <glyph glyph-name="ncaron" unicode="&#x148;" horiz-adv-x="575" 
d="M140 725h56l93 -147h2l93 147h56l-100 -154h-100zM317 502q85 0 132.5 -51t47.5 -142v-309h-60v308q0 69 -36.5 106.5t-102.5 37.5q-73 0 -114 -47.5t-41 -134.5v-270h-60v492h60v-167h2q0 85 45.5 131t126.5 46z" />
    <glyph glyph-name="Eng" unicode="&#x14a;" horiz-adv-x="725" 
d="M625 740v-761q0 -103 -53 -161t-149 -58q-52 0 -91 19l15 52q31 -15 73 -15q67 0 104.5 41t37.5 116v27h-54l-346 733h-2l1 -733h-61v740h118l346 -733h2l-1 733h60z" />
    <glyph glyph-name="eng" unicode="&#x14b;" horiz-adv-x="575" 
d="M317 502q85 0 132.5 -51t47.5 -142v-372q0 -85 -44.5 -131t-123.5 -46q-59 0 -99 21l16 46q20 -8 39.5 -12t43.5 -4q54 0 81 32.5t27 90.5v374q0 69 -36.5 106.5t-102.5 37.5q-73 0 -114 -47.5t-41 -134.5v-270h-60v492h60v-167h2q0 85 45.5 131t126.5 46z" />
    <glyph glyph-name="Omacron" unicode="&#x14c;" horiz-adv-x="738" 
d="M502 927v-46h-264v46h264zM369 -10q-74 0 -131.5 26t-97.5 74.5t-61 119t-21 160.5t21 160.5t61 119t97.5 74.5t131.5 26q73 0 131 -26t98 -74.5t61 -119t21 -160.5t-21 -160.5t-61 -119t-98 -74.5t-131 -26zM369 46q58 0 104 22t77.5 63.5t48.5 101.5t17 137
q0 76 -17 136.5t-48.5 102t-77.5 63.5t-104 22q-118 0 -182.5 -85t-64.5 -239t64.5 -239t182.5 -85z" />
    <glyph glyph-name="omacron" unicode="&#x14d;" horiz-adv-x="574" 
d="M419 679v-46h-264v46h264zM287 -10q-111 0 -172.5 67.5t-61.5 188.5t61.5 188.5t172.5 67.5t172.5 -67.5t61.5 -188.5t-61.5 -188.5t-172.5 -67.5zM287 41q82 0 127.5 54t45.5 151t-45.5 151.5t-127.5 54.5t-127.5 -54.5t-45.5 -151.5t45.5 -151t127.5 -54z" />
    <glyph glyph-name="Ohungarumlaut" unicode="&#x150;" horiz-adv-x="738" 
d="M441 952l-138 -125l-29 30l132 129zM561 952l-138 -125l-29 30l132 129zM369 -10q-74 0 -131.5 26t-97.5 74.5t-61 119t-21 160.5t21 160.5t61 119t97.5 74.5t131.5 26q73 0 131 -26t98 -74.5t61 -119t21 -160.5t-21 -160.5t-61 -119t-98 -74.5t-131 -26zM369 46
q58 0 104 22t77.5 63.5t48.5 101.5t17 137q0 76 -17 136.5t-48.5 102t-77.5 63.5t-104 22q-118 0 -182.5 -85t-64.5 -239t64.5 -239t182.5 -85z" />
    <glyph glyph-name="ohungarumlaut" unicode="&#x151;" horiz-adv-x="574" 
d="M358 704l-138 -125l-29 30l132 129zM478 704l-138 -125l-29 30l132 129zM287 -10q-111 0 -172.5 67.5t-61.5 188.5t61.5 188.5t172.5 67.5t172.5 -67.5t61.5 -188.5t-61.5 -188.5t-172.5 -67.5zM287 41q82 0 127.5 54t45.5 151t-45.5 151.5t-127.5 54.5t-127.5 -54.5
t-45.5 -151.5t45.5 -151t127.5 -54z" />
    <glyph glyph-name="OE" unicode="&#x152;" horiz-adv-x="1131" 
d="M1086 54v-54h-465v252h-2q0 -123 -71 -192.5t-197 -69.5q-69 0 -123.5 26t-92 75t-57.5 119.5t-20 159.5t20 159.5t57.5 119.5t92 75t123.5 26q126 0 197 -69.5t71 -192.5h2v252h454v-54h-392v-276h357v-54h-357v-302h403zM369 46q61 0 109 22.5t81 64.5t50.5 102
t17.5 135t-17.5 135t-50.5 102t-81 64.5t-109 22.5q-118 0 -182.5 -85.5t-64.5 -238.5t64.5 -238.5t182.5 -85.5z" />
    <glyph glyph-name="oe" unicode="&#x153;" horiz-adv-x="950" 
d="M898 234h-383q2 -92 44.5 -143t117.5 -51q66 0 108.5 34.5t52.5 97.5h60q-11 -86 -69 -134t-152 -48q-89 0 -144.5 48t-72.5 136h-2q0 -87 -50 -135.5t-140 -48.5q-102 0 -158.5 67.5t-56.5 188.5t56.5 188.5t158.5 67.5q90 0 140 -48.5t50 -135.5h2q16 88 72 136t145 48
q105 0 163 -67.5t58 -189.5v-11zM677 453q-71 0 -113 -47t-48 -132h321q-6 85 -48 132t-112 47zM287 41q82 0 127.5 54.5t45.5 150.5q0 97 -45.5 151.5t-127.5 54.5t-127.5 -54.5t-45.5 -151.5t45.5 -151t127.5 -54z" />
    <glyph glyph-name="Racute" unicode="&#x154;" horiz-adv-x="656" 
d="M274 844l-20 36l164 88l22 -40zM619 0h-72l-195 323h-189v-323h-63v740h254q115 0 179.5 -53t64.5 -147q0 -102 -62.5 -158.5t-174.5 -56.5v-2q27 0 58.5 -23.5t58.5 -67.5zM361 375q82 0 127.5 42t45.5 118q0 72 -46 111.5t-128 39.5h-197v-311h198z" />
    <glyph glyph-name="racute" unicode="&#x155;" horiz-adv-x="401" 
d="M159 596l-20 36l164 88l22 -40zM312 502q46 0 76 -14l-17 -60q-15 8 -35 12.5t-40 4.5q-73 0 -113 -51t-40 -144v-250h-60v492h60v-180h2q0 91 44 140.5t123 49.5z" />
    <glyph glyph-name="Rcommaaccent" unicode="&#x156;" horiz-adv-x="656" 
d="M619 0h-72l-195 323h-189v-323h-63v740h254q115 0 179.5 -53t64.5 -147q0 -102 -62.5 -158.5t-174.5 -56.5v-2q27 0 58.5 -23.5t58.5 -67.5zM361 375q82 0 127.5 42t45.5 118q0 72 -46 111.5t-128 39.5h-197v-311h198zM306 -79h67v-50q0 -41 -15.5 -66t-51.5 -45v29
q59 23 62 75h-62v57z" />
    <glyph glyph-name="rcommaaccent" unicode="&#x157;" horiz-adv-x="401" 
d="M312 502q46 0 76 -14l-17 -60q-15 8 -35 12.5t-40 4.5q-73 0 -113 -51t-40 -144v-250h-60v492h60v-180h2q0 91 44 140.5t123 49.5zM82 -79h67v-50q0 -41 -15.5 -66t-51.5 -45v29q59 23 62 75h-62v57z" />
    <glyph glyph-name="Rcaron" unicode="&#x158;" horiz-adv-x="656" 
d="M159 973h56l93 -147h2l93 147h56l-100 -154h-100zM619 0h-72l-195 323h-189v-323h-63v740h254q115 0 179.5 -53t64.5 -147q0 -102 -62.5 -158.5t-174.5 -56.5v-2q27 0 58.5 -23.5t58.5 -67.5zM361 375q82 0 127.5 42t45.5 118q0 72 -46 111.5t-128 39.5h-197v-311h198z
" />
    <glyph glyph-name="rcaron" unicode="&#x159;" horiz-adv-x="401" 
d="M45 725h56l93 -147h2l93 147h56l-100 -154h-100zM312 502q46 0 76 -14l-17 -60q-15 8 -35 12.5t-40 4.5q-73 0 -113 -51t-40 -144v-250h-60v492h60v-180h2q0 91 44 140.5t123 49.5z" />
    <glyph glyph-name="Sacute" unicode="&#x15a;" horiz-adv-x="653" 
d="M455 928l-166 -84l-20 36l164 88zM325 -10q-125 0 -198 68.5t-79 192.5h62q6 -97 62 -151t153 -54q102 0 158 40.5t56 114.5q0 45 -19 73t-50 44.5t-71 25t-83 15.5q-45 7 -89.5 17t-80 29.5t-57 53t-21.5 88.5q0 97 67.5 150t189.5 53q58 0 104.5 -17t80 -49t52 -78.5
t21.5 -105.5h-62q-5 92 -57 143t-141 51q-91 0 -141 -38t-50 -107q0 -39 17.5 -62.5t46 -38t66 -22.5t77.5 -14q48 -8 95 -18t84.5 -31.5t61 -59t23.5 -99.5q0 -102 -73.5 -158t-204.5 -56z" />
    <glyph glyph-name="sacute" unicode="&#x15b;" horiz-adv-x="497" 
d="M378 680l-166 -84l-20 36l164 88zM248 -10q-96 0 -149 44t-53 125h59q0 -58 37.5 -90t105.5 -32t105 24t37 69q0 28 -13 45.5t-34 28.5t-48.5 17.5t-56.5 11.5q-32 6 -64 13.5t-57 21.5t-40.5 37t-15.5 61q0 63 49.5 99.5t137.5 36.5t137.5 -42.5t49.5 -120.5h-60
q0 56 -33 86.5t-94 30.5q-60 0 -93.5 -23t-33.5 -65q0 -23 11.5 -37.5t31 -24t44.5 -15t52 -10.5q33 -6 67 -14.5t61.5 -24t44.5 -41.5t17 -68q0 -67 -53 -105t-149 -38z" />
    <glyph glyph-name="Scedilla" unicode="&#x15e;" horiz-adv-x="653" 
d="M325 -10q-125 0 -198 68.5t-79 192.5h62q6 -97 62 -151t153 -54q102 0 158 40.5t56 114.5q0 45 -19 73t-50 44.5t-71 25t-83 15.5q-45 7 -89.5 17t-80 29.5t-57 53t-21.5 88.5q0 97 67.5 150t189.5 53q58 0 104.5 -17t80 -49t52 -78.5t21.5 -105.5h-62q-5 92 -57 143
t-141 51q-91 0 -141 -38t-50 -107q0 -39 17.5 -62.5t46 -38t66 -22.5t77.5 -14q48 -8 95 -18t84.5 -31.5t61 -59t23.5 -99.5q0 -102 -73.5 -158t-204.5 -56zM300 -240q-23 0 -45.5 6t-39.5 17v38q17 -11 38.5 -17t43.5 -6q37 0 57 14.5t20 40.5q0 20 -13.5 31.5t-37.5 11.5
q-41 2 -60 -26l-31 20q15 20 41 32t54 12q47 0 73 -21t26 -59q0 -45 -33 -69.5t-93 -24.5z" />
    <glyph glyph-name="scedilla" unicode="&#x15f;" horiz-adv-x="497" 
d="M248 -10q-96 0 -149 44t-53 125h59q0 -58 37.5 -90t105.5 -32t105 24t37 69q0 28 -13 45.5t-34 28.5t-48.5 17.5t-56.5 11.5q-32 6 -64 13.5t-57 21.5t-40.5 37t-15.5 61q0 63 49.5 99.5t137.5 36.5t137.5 -42.5t49.5 -120.5h-60q0 56 -33 86.5t-94 30.5q-60 0 -93.5 -23
t-33.5 -65q0 -23 11.5 -37.5t31 -24t44.5 -15t52 -10.5q33 -6 67 -14.5t61.5 -24t44.5 -41.5t17 -68q0 -67 -53 -105t-149 -38zM223 -240q-23 0 -45.5 6t-39.5 17v38q17 -11 38.5 -17t43.5 -6q37 0 57 14.5t20 40.5q0 20 -13.5 31.5t-37.5 11.5q-41 2 -60 -26l-31 20
q15 20 41 32t54 12q47 0 73 -21t26 -59q0 -45 -33 -69.5t-93 -24.5z" />
    <glyph glyph-name="Scaron" unicode="&#x160;" horiz-adv-x="653" 
d="M174 973h56l93 -147h2l93 147h56l-100 -154h-100zM339 412q48 -8 95 -18t84.5 -31.5t61 -59t23.5 -99.5q0 -102 -73.5 -158t-204.5 -56q-125 0 -198 68.5t-79 192.5h62q6 -97 62 -151t153 -54q102 0 158 40.5t56 114.5q0 45 -19 73t-50 44.5t-71 25t-83 15.5
q-45 7 -89.5 17t-80 29.5t-57 53t-21.5 88.5q0 97 67.5 150t189.5 53q58 0 104.5 -17t80 -49t52 -78.5t21.5 -105.5h-62q-5 92 -57 143t-141 51q-91 0 -141 -38t-50 -107q0 -39 17.5 -62.5t46 -38t66 -22.5t77.5 -14z" />
    <glyph glyph-name="scaron" unicode="&#x161;" horiz-adv-x="497" 
d="M98 725h56l93 -147h2l93 147h56l-100 -154h-100zM260 281q33 -6 67 -14.5t61.5 -24t44.5 -41.5t17 -68q0 -67 -53 -105t-149 -38t-149 44t-53 125h59q0 -58 37.5 -90t105.5 -32t105 24t37 69q0 28 -13 45.5t-34 28.5t-48.5 17.5t-56.5 11.5q-32 6 -64 13.5t-57 21.5
t-40.5 37t-15.5 61q0 63 49.5 99.5t137.5 36.5t137.5 -42.5t49.5 -120.5h-60q0 56 -33 86.5t-94 30.5q-60 0 -93.5 -23t-33.5 -65q0 -23 11.5 -37.5t31 -24t44.5 -15t52 -10.5z" />
    <glyph glyph-name="uni0162" unicode="&#x162;" horiz-adv-x="569" 
d="M549 740v-54h-233v-686h-63v686h-233v54h529zM287 -66q47 0 73 -21t26 -59q0 -45 -33 -69.5t-93 -24.5q-23 0 -45.5 6t-39.5 17v38q17 -11 38.5 -17t43.5 -6q37 0 57 14.5t20 40.5q0 20 -13.5 31.5t-37.5 11.5q-41 2 -60 -26l-31 20q15 20 41 32t54 12z" />
    <glyph glyph-name="uni0163" unicode="&#x163;" horiz-adv-x="364" 
d="M167 444v-309q0 -45 25 -69.5t70 -24.5q39 0 73 16v-48q-40 -19 -91 -19q-65 0 -101 38t-36 106v310h-84v48h89v174h60v-42q0 -39 -15 -73t-41 -57v-2h226v-48h-175zM185 -66q47 0 73 -21t26 -59q0 -45 -33 -69.5t-93 -24.5q-23 0 -45.5 6t-39.5 17v38q17 -11 38.5 -17
t43.5 -6q37 0 57 14.5t20 40.5q0 20 -13.5 31.5t-37.5 11.5q-41 2 -60 -26l-31 20q15 20 41 32t54 12z" />
    <glyph glyph-name="Tcaron" unicode="&#x164;" horiz-adv-x="569" 
d="M135 973h56l93 -147h2l93 147h56l-100 -154h-100zM549 686h-233v-686h-63v686h-233v54h529v-54z" />
    <glyph glyph-name="tcaron" unicode="&#x165;" horiz-adv-x="364" 
d="M272 561l-43 13l49 206l50 -13zM167 444v-309q0 -45 25 -69.5t70 -24.5q39 0 73 16v-48q-40 -19 -91 -19q-65 0 -101 38t-36 106v310h-84v48h89v174h60v-42q0 -39 -15 -73t-41 -57v-2h226v-48h-175z" />
    <glyph glyph-name="Tbar" unicode="&#x166;" horiz-adv-x="575" 
d="M319 686v-298h123v-37h-123v-351h-63v351h-122v37h122v298h-233v54h529v-54h-233z" />
    <glyph glyph-name="tbar" unicode="&#x167;" horiz-adv-x="380" 
d="M176 444v-177h175v-37h-175v-95q0 -45 25 -69.5t70 -24.5q39 0 73 16v-48q-40 -19 -91 -19q-65 0 -101 38t-36 106v96h-83v37h83v177h-84v48h89v174h60v-42q0 -39 -15 -73t-41 -57v-2h226v-48h-175z" />
    <glyph glyph-name="Utilde" unicode="&#x168;" horiz-adv-x="708" 
d="M401 805q-20 0 -32.5 8t-22.5 17t-20 17t-24 8q-25 0 -30 -53h-41q1 48 20.5 74t57.5 26q19 0 31.5 -7.5t22.5 -17t19.5 -17t24.5 -7.5q26 0 31 52h41q-1 -48 -21 -74t-57 -26zM556 740h60v-488q0 -124 -69 -193t-193 -69t-193 69t-69 193v488h63v-493q0 -95 52.5 -148
t146.5 -53q96 0 149 53t53 148v493z" />
    <glyph glyph-name="utilde" unicode="&#x169;" horiz-adv-x="565" 
d="M326 563q-20 0 -32.5 8t-22.5 17t-20 17t-24 8q-25 0 -30 -53h-41q1 48 20.5 74t57.5 26q19 0 31.5 -7.5t22.5 -17t19.5 -17t24.5 -7.5q26 0 31 52h41q-1 -48 -21 -74t-57 -26zM482 492v-492h-60v167h-2q0 -84 -44 -130.5t-123 -46.5q-83 0 -129 51t-46 142v309h60v-308
q0 -68 35 -105.5t98 -37.5q72 0 111.5 47.5t39.5 133.5v270h60z" />
    <glyph glyph-name="Umacron" unicode="&#x16a;" horiz-adv-x="708" 
d="M487 927v-46h-264v46h264zM556 740h60v-488q0 -124 -69 -193t-193 -69t-193 69t-69 193v488h63v-493q0 -95 52.5 -148t146.5 -53q96 0 149 53t53 148v493z" />
    <glyph glyph-name="umacron" unicode="&#x16b;" horiz-adv-x="565" 
d="M412 633h-264v46h264v-46zM482 492v-492h-60v167h-2q0 -84 -44 -130.5t-123 -46.5q-83 0 -129 51t-46 142v309h60v-308q0 -68 35 -105.5t98 -37.5q72 0 111.5 47.5t39.5 133.5v270h60z" />
    <glyph glyph-name="Uring" unicode="&#x16e;" horiz-adv-x="708" 
d="M355 800q-54 0 -83 28t-29 79q0 50 29 78t83 28t83 -28t29 -78q0 -51 -29 -79t-83 -28zM355 840q31 0 48 17.5t17 49.5t-17 49.5t-48 17.5t-48 -17.5t-17 -49.5t17 -49.5t48 -17.5zM556 740h60v-488q0 -124 -69 -193t-193 -69t-193 69t-69 193v488h63v-493
q0 -95 52.5 -148t146.5 -53q96 0 149 53t53 148v493z" />
    <glyph glyph-name="uring" unicode="&#x16f;" horiz-adv-x="565" 
d="M280 552q-54 0 -83 28t-29 79q0 50 29 78t83 28t83 -28t29 -78q0 -51 -29 -79t-83 -28zM280 726q-31 0 -48 -17.5t-17 -49.5t17 -49.5t48 -17.5t48 17.5t17 49.5t-17 49.5t-48 17.5zM482 492v-492h-60v167h-2q0 -84 -44 -130.5t-123 -46.5q-83 0 -129 51t-46 142v309h60
v-308q0 -68 35 -105.5t98 -37.5q72 0 111.5 47.5t39.5 133.5v270h60z" />
    <glyph glyph-name="Uhungarumlaut" unicode="&#x170;" horiz-adv-x="708" 
d="M425 952l-138 -125l-29 30l132 129zM545 952l-138 -125l-29 30l132 129zM556 740h60v-488q0 -124 -69 -193t-193 -69t-193 69t-69 193v488h63v-493q0 -95 52.5 -148t146.5 -53q96 0 149 53t53 148v493z" />
    <glyph glyph-name="uhungarumlaut" unicode="&#x171;" horiz-adv-x="565" 
d="M213 579l-29 30l132 129l35 -34zM304 609l132 129l35 -34l-138 -125zM482 492v-492h-60v167h-2q0 -84 -44 -130.5t-123 -46.5q-83 0 -129 51t-46 142v309h60v-308q0 -68 35 -105.5t98 -37.5q72 0 111.5 47.5t39.5 133.5v270h60z" />
    <glyph glyph-name="Uogonek" unicode="&#x172;" horiz-adv-x="708" 
d="M616 740v-488q0 -102 -47.5 -167.5t-134.5 -85.5q-44 -43 -68.5 -85.5t-24.5 -77.5q0 -34 35 -34q20 0 38 6t34 17v-42q-17 -11 -39 -17t-46 -6q-36 0 -56.5 18.5t-20.5 52.5q0 19 11.5 42t30.5 45t43.5 42t50.5 34l-1 2q-32 -6 -67 -6q-124 0 -193 69t-69 193v488h63
v-493q0 -95 52.5 -148t146.5 -53q96 0 149 53t53 148v493h60z" />
    <glyph glyph-name="uogonek" unicode="&#x173;" horiz-adv-x="565" 
d="M418 -198q20 0 38 6t35 17v-42q-17 -11 -39.5 -17t-46.5 -6q-36 0 -56 18.5t-20 52.5q0 25 14 54.5t36 54.5t47 41.5t48 16.5v2h-52v167h-2q0 -84 -44 -130.5t-123 -46.5q-83 0 -129 51t-46 142v309h60v-308q0 -68 35 -105.5t98 -37.5q72 0 111.5 47.5t39.5 133.5v270h60
v-492q-47 -42 -72.5 -85.5t-25.5 -78.5q0 -34 34 -34z" />
    <glyph glyph-name="Wcircumflex" unicode="&#x174;" horiz-adv-x="993" 
d="M403 818h-56l100 154h100l100 -154h-56l-93 147h-2zM967 740l-184 -740h-122l-164 733h-2l-163 -733h-122l-184 740h69l178 -733h2l164 733h115l166 -733h2l179 733h66z" />
    <glyph glyph-name="wcircumflex" unicode="&#x175;" horiz-adv-x="804" 
d="M308 570h-56l100 154h100l100 -154h-56l-93 147h-2zM776 492l-144 -492h-112l-117 487h-2l-117 -487h-112l-144 492h65l135 -487h2l118 487h110l117 -487h2l136 487h63z" />
    <glyph glyph-name="Ycircumflex" unicode="&#x176;" horiz-adv-x="642" 
d="M239 818h-56l100 154h100l100 -154h-56l-93 147h-2zM645 740l-385 -740h-71l138 269h-62l-245 471h74l240 -464h2l238 464h71z" />
    <glyph glyph-name="ycircumflex" unicode="&#x177;" horiz-adv-x="514" 
d="M166 570h-56l100 154h100l100 -154h-56l-93 147h-2zM488 492l-252 -722h-65l80 230h-52l-171 492h65l164 -487h2l164 487h65z" />
    <glyph glyph-name="Ydieresis" unicode="&#x178;" horiz-adv-x="642" 
d="M290 856h-59v96h59v-96zM434 856h-58v96h58v-96zM645 740l-385 -740h-71l138 269h-62l-245 471h74l240 -464h2l238 464h71z" />
    <glyph glyph-name="Zacute" unicode="&#x179;" horiz-adv-x="653" 
d="M294 844l-20 36l164 88l22 -40zM618 54v-54h-579v126l549 558v2h-535v54h546v-126l-550 -558v-2h569z" />
    <glyph glyph-name="zacute" unicode="&#x17a;" horiz-adv-x="509" 
d="M220 596l-20 36l164 88l22 -40zM471 48v-48h-425v112l397 330v2h-391v48h401v-112l-397 -330v-2h415z" />
    <glyph glyph-name="Zdotaccent" unicode="&#x17b;" horiz-adv-x="653" 
d="M360 856h-60v96h60v-96zM618 54v-54h-579v126l549 558v2h-535v54h546v-126l-550 -558v-2h569z" />
    <glyph glyph-name="zdotaccent" unicode="&#x17c;" horiz-adv-x="509" 
d="M286 608h-60v96h60v-96zM471 48v-48h-425v112l397 330v2h-391v48h401v-112l-397 -330v-2h415z" />
    <glyph glyph-name="Zcaron" unicode="&#x17d;" horiz-adv-x="653" 
d="M179 973h56l93 -147h2l93 147h56l-100 -154h-100zM618 54v-54h-579v126l549 558v2h-535v54h546v-126l-550 -558v-2h569z" />
    <glyph glyph-name="zcaron" unicode="&#x17e;" horiz-adv-x="509" 
d="M105 725h56l93 -147h2l93 147h56l-100 -154h-100zM471 48v-48h-425v112l397 330v2h-391v48h401v-112l-397 -330v-2h415z" />
    <glyph glyph-name="florin" unicode="&#x192;" horiz-adv-x="642" 
d="M530 699q-48 0 -79.5 -33t-41.5 -92l-31 -173h168v-38h-174l-39 -219q-13 -73 -57.5 -113.5t-111.5 -40.5q-30 0 -58.5 5.5t-51.5 15.5l14 46q18 -8 41.5 -12t46.5 -4q48 0 79.5 33t41.5 92l35 197h-159v38h166l34 195q13 73 57.5 113.5t111.5 40.5q30 0 58.5 -5.5
t51.5 -15.5l-14 -46q-18 8 -41.5 12t-46.5 4z" />
    <glyph glyph-name="Ohorn" unicode="&#x1a0;" horiz-adv-x="738" 
d="M369 -10q-74 0 -131.5 26t-97.5 74.5t-61 119t-21 160.5t21 160.5t61 119t97.5 74.5t131.5 26q31 0 59 -5t54 -14q10 2 20 7t18 15.5t12.5 28t4.5 43.5h59q0 -42 -22.5 -71t-59.5 -37q80 -41 123 -129.5t43 -217.5q0 -90 -21 -160.5t-61 -119t-98 -74.5t-131 -26zM369 46
q58 0 104 22t77.5 63.5t48.5 101.5t17 137q0 76 -17 136.5t-48.5 102t-77.5 63.5t-104 22q-118 0 -182.5 -85t-64.5 -239t64.5 -239t182.5 -85z" />
    <glyph glyph-name="ohorn" unicode="&#x1a1;" horiz-adv-x="574" 
d="M287 -10q-111 0 -172.5 67.5t-61.5 188.5t61.5 188.5t172.5 67.5q53 0 96 -17q18 6 31.5 25.5t13.5 66.5h59q0 -39 -20.5 -67.5t-53.5 -38.5q52 -30 80 -87t28 -138q0 -121 -61.5 -188.5t-172.5 -67.5zM287 41q82 0 127.5 54t45.5 151t-45.5 151.5t-127.5 54.5
t-127.5 -54.5t-45.5 -151.5t45.5 -151t127.5 -54z" />
    <glyph glyph-name="Uhorn" unicode="&#x1af;" horiz-adv-x="708" 
d="M556 740h14q12 1 23.5 5t21 14t15 28.5t5.5 47.5h59q0 -41 -21.5 -70t-56.5 -37v-476q0 -124 -69 -193t-193 -69t-193 69t-69 193v488h63v-493q0 -95 52.5 -148t146.5 -53q96 0 149 53t53 148v493z" />
    <glyph glyph-name="uhorn" unicode="&#x1b0;" horiz-adv-x="565" 
d="M433 492q12 1 23.5 5t21 14t15 28.5t5.5 47.5h59q0 -39 -20.5 -67.5t-54.5 -38.5v-481h-60v167h-2q0 -84 -44 -130.5t-123 -46.5q-83 0 -129 51t-46 142v309h60v-308q0 -68 35 -105.5t98 -37.5q72 0 111.5 47.5t39.5 133.5v270h11z" />
    <glyph glyph-name="Scommaaccent" unicode="&#x218;" horiz-adv-x="653" 
d="M339 412q48 -8 95 -18t84.5 -31.5t61 -59t23.5 -99.5q0 -102 -73.5 -158t-204.5 -56q-125 0 -198 68.5t-79 192.5h62q6 -97 62 -151t153 -54q102 0 158 40.5t56 114.5q0 45 -19 73t-50 44.5t-71 25t-83 15.5q-45 7 -89.5 17t-80 29.5t-57 53t-21.5 88.5q0 97 67.5 150
t189.5 53q58 0 104.5 -17t80 -49t52 -78.5t21.5 -105.5h-62q-5 92 -57 143t-141 51q-91 0 -141 -38t-50 -107q0 -39 17.5 -62.5t46 -38t66 -22.5t77.5 -14zM291 -79h67v-50q0 -41 -15.5 -66t-51.5 -45v29q59 23 62 75h-62v57z" />
    <glyph glyph-name="scommaaccent" unicode="&#x219;" horiz-adv-x="497" 
d="M260 281q33 -6 67 -14.5t61.5 -24t44.5 -41.5t17 -68q0 -67 -53 -105t-149 -38t-149 44t-53 125h59q0 -58 37.5 -90t105.5 -32t105 24t37 69q0 28 -13 45.5t-34 28.5t-48.5 17.5t-56.5 11.5q-32 6 -64 13.5t-57 21.5t-40.5 37t-15.5 61q0 63 49.5 99.5t137.5 36.5
t137.5 -42.5t49.5 -120.5h-60q0 56 -33 86.5t-94 30.5q-60 0 -93.5 -23t-33.5 -65q0 -23 11.5 -37.5t31 -24t44.5 -15t52 -10.5zM214 -79h67v-50q0 -41 -15.5 -66t-51.5 -45v29q59 23 62 75h-62v57z" />
    <glyph glyph-name="uni021A" unicode="&#x21a;" horiz-adv-x="569" 
d="M549 740v-54h-233v-686h-63v686h-233v54h529zM252 -79h67v-50q0 -41 -15.5 -66t-51.5 -45v29q59 23 62 75h-62v57z" />
    <glyph glyph-name="uni021B" unicode="&#x21b;" horiz-adv-x="364" 
d="M167 444v-309q0 -45 25 -69.5t70 -24.5q39 0 73 16v-48q-40 -19 -91 -19q-65 0 -101 38t-36 106v310h-84v48h89v174h60v-42q0 -39 -15 -73t-41 -57v-2h226v-48h-175zM150 -79h67v-50q0 -41 -15.5 -66t-51.5 -45v29q59 23 62 75h-62v57z" />
    <glyph glyph-name="uni0237" unicode="&#x237;" horiz-adv-x="226" 
d="M143 492v-722h-60v722h60z" />
    <glyph glyph-name="circumflex" unicode="&#x2c6;" horiz-adv-x="336" 
d="M318 570h-56l-93 147h-2l-93 -147h-56l100 154h100z" />
    <glyph glyph-name="caron" unicode="&#x2c7;" horiz-adv-x="336" 
d="M318 725l-100 -154h-100l-100 154h56l93 -147h2l93 147h56z" />
    <glyph glyph-name="breve" unicode="&#x2d8;" horiz-adv-x="331" 
d="M303 724q0 -74 -36 -115.5t-102 -41.5q-65 0 -101 41.5t-36 115.5h48q0 -54 23.5 -84t65.5 -30t65.5 30t24.5 84h48v0z" />
    <glyph glyph-name="dotaccent" unicode="&#x2d9;" horiz-adv-x="195" 
d="M68 704h60v-96h-60v96z" />
    <glyph glyph-name="ring" unicode="&#x2da;" horiz-adv-x="276" 
d="M138 552q-54 0 -83 28t-29 79q0 50 29 78t83 28t83 -28t29 -78q0 -51 -29 -79t-83 -28zM138 592q31 0 48 17.5t17 49.5t-17 49.5t-48 17.5t-48 -17.5t-17 -49.5t17 -49.5t48 -17.5z" />
    <glyph glyph-name="ogonek" unicode="&#x2db;" horiz-adv-x="211" 
d="M190 -217q-17 -11 -39.5 -17t-46.5 -6q-36 0 -56 18.5t-20 52.5q0 25 14 54.5t36 54.5t47 41.5t48 16.5v2h8q-47 -42 -72.5 -85.5t-25.5 -78.5q0 -34 34 -34q20 0 38 6t35 17v-42v0z" />
    <glyph glyph-name="tilde" unicode="&#x2dc;" horiz-adv-x="398" 
d="M269 601q-26 0 -45 11t-35 23.5t-31 23.5t-33 11q-23 0 -37 -19.5t-16 -53.5h-39q0 58 25 90.5t70 32.5q26 0 45 -11t35 -23.5t31 -23.5t33 -11q23 0 37 19t16 54h40q-1 -59 -26 -91t-70 -32z" />
    <glyph glyph-name="hungarumlaut" unicode="&#x2dd;" horiz-adv-x="350" 
d="M198 704l-138 -125l-29 30l132 129zM318 704l-138 -125l-29 30l132 129z" />
    <glyph glyph-name="gravecomb" unicode="&#x300;" horiz-adv-x="0" 
d="M-17 632l-20 -36l-166 84l22 40z" />
    <glyph glyph-name="acutecomb" unicode="&#x301;" horiz-adv-x="0" 
d="M-19 680l-166 -84l-20 36l164 88z" />
    <glyph glyph-name="uni0302" unicode="&#x302;" horiz-adv-x="0" 
d="M-18 570h-56l-93 147h-2l-93 -147h-56l100 154h100z" />
    <glyph glyph-name="tildecomb" unicode="&#x303;" horiz-adv-x="0" 
d="M-128 598q-26 0 -45 11t-35 23.5t-31 23.5t-33 11q-23 0 -37 -19.5t-16 -53.5h-39q0 58 25 90.5t70 32.5q26 0 45 -11t35 -23.5t31 -23.5t33 -11q23 0 37 19t16 54h40q-1 -59 -26 -91t-70 -32z" />
    <glyph glyph-name="uni0304" unicode="&#x304;" horiz-adv-x="0" 
d="M-23 679v-46h-264v46h264z" />
    <glyph glyph-name="uni0306" unicode="&#x306;" horiz-adv-x="0" 
d="M-28 724q0 -74 -36 -115.5t-102 -41.5q-65 0 -101 41.5t-36 115.5h48q0 -54 23.5 -84t65.5 -30t65.5 30t24.5 84h48v0z" />
    <glyph glyph-name="uni0307" unicode="&#x307;" horiz-adv-x="0" 
d="M-127 704h60v-96h-60v96z" />
    <glyph glyph-name="uni0308" unicode="&#x308;" horiz-adv-x="0" 
d="M-273 704h59v-96h-59v96zM-128 704h58v-96h-58v96z" />
    <glyph glyph-name="uni030A" unicode="&#x30a;" horiz-adv-x="0" 
d="M-138 552q-54 0 -83 28t-29 79q0 50 29 78t83 28t83 -28t29 -78q0 -51 -29 -79t-83 -28zM-138 592q31 0 48 17.5t17 49.5t-17 49.5t-48 17.5t-48 -17.5t-17 -49.5t17 -49.5t48 -17.5z" />
    <glyph glyph-name="uni030B" unicode="&#x30b;" horiz-adv-x="0" 
d="M-152 704l-138 -125l-29 30l132 129zM-32 704l-138 -125l-29 30l132 129z" />
    <glyph glyph-name="uni030C" unicode="&#x30c;" horiz-adv-x="0" 
d="M-18 725l-100 -154h-100l-100 154h56l93 -147h2l93 147h56z" />
    <glyph glyph-name="uni0312" unicode="&#x312;" horiz-adv-x="0" 
d="M-17 716q-59 -14 -62 -51h62v-59h-66v51q0 33 15 53t51 35v-29v0z" />
    <glyph glyph-name="uni0326" unicode="&#x326;" horiz-adv-x="0" 
d="M-33 -79v-50q0 -41 -15.5 -66t-51.5 -45v29q59 23 62 75h-62v57h67z" />
    <glyph glyph-name="uni0327" unicode="&#x327;" horiz-adv-x="0" 
d="M-150 -240q-23 0 -45.5 6t-39.5 17v38q17 -11 38.5 -17t43.5 -6q37 0 57 14.5t20 40.5q0 20 -13.5 31.5t-37.5 11.5q-41 2 -60 -26l-31 20q15 20 41 32t54 12q47 0 73 -21t26 -59q0 -45 -33 -69.5t-93 -24.5z" />
    <glyph glyph-name="uni0328" unicode="&#x328;" horiz-adv-x="0" 
d="M-21 -217q-17 -11 -39.5 -17t-46.5 -6q-36 0 -56 18.5t-20 52.5q0 25 14 54.5t36 54.5t47 41.5t48 16.5v2h8q-47 -42 -72.5 -85.5t-25.5 -78.5q0 -34 34 -34q20 0 38 6t35 17v-42v0z" />
    <glyph glyph-name="uni0335" unicode="&#x335;" horiz-adv-x="0" 
d="M-61 368v-37h-308v37h308z" />
    <glyph glyph-name="uni0336" unicode="&#x336;" horiz-adv-x="0" 
d="M-714 368h653v-37h-653v37z" />
    <glyph glyph-name="uni0337" unicode="&#x337;" horiz-adv-x="0" 
d="M-13 505l-355 -542l-37 25l355 540z" />
    <glyph glyph-name="uni0338" unicode="&#x338;" horiz-adv-x="0" 
d="M-32 751l-472 -787l-41 25l472 787z" />
    <glyph glyph-name="uni0394" unicode="&#x394;" horiz-adv-x="670" 
d="M654 0h-639l265 740h111zM567 54l-232 679h-2l-233 -679h467z" />
    <glyph glyph-name="uni03A9" unicode="&#x3a9;" horiz-adv-x="767" 
d="M482 55h211v-55h-260v55q48 0 86 22t64.5 63t40 100.5t13.5 134.5t-17 134t-49.5 100.5t-79.5 63t-107 21.5q-121 0 -187.5 -82t-66.5 -231q0 -154 53.5 -240t150.5 -86v-55h-260v55h211v2q-52 0 -92.5 23t-69 66t-43.5 105t-15 141q0 84 21.5 150.5t62.5 112.5
t100.5 70.5t134.5 24.5t134 -24.5t100 -70.5t62.5 -112.5t21.5 -150.5q0 -79 -15 -141t-43.5 -105t-69 -66t-92.5 -23v-2z" />
    <glyph glyph-name="uni03BC" unicode="&#x3bc;" horiz-adv-x="570" 
d="M487 492v-492h-60v167h-2q0 -84 -44 -130.5t-123 -46.5q-67 0 -110 33.5t-58 94.5h-1l54 -344v-4h-60v722h60v-308q0 -68 35 -105.5t98 -37.5q72 0 111.5 47.5t39.5 133.5v270h60z" />
    <glyph glyph-name="pi" unicode="&#x3c0;" horiz-adv-x="595" 
d="M573 444h-90v-444h-60v444h-250v-444h-60v444h-90v48h550v-48z" />
    <glyph glyph-name="Wgrave" unicode="&#x1e80;" horiz-adv-x="993" 
d="M533 844l-166 84l22 40l164 -88zM967 740l-184 -740h-122l-164 733h-2l-163 -733h-122l-184 740h69l178 -733h2l164 733h115l166 -733h2l179 733h66z" />
    <glyph glyph-name="wgrave" unicode="&#x1e81;" horiz-adv-x="804" 
d="M438 596l-166 84l22 40l164 -88zM776 492l-144 -492h-112l-117 487h-2l-117 -487h-112l-144 492h65l135 -487h2l118 487h110l117 -487h2l136 487h63z" />
    <glyph glyph-name="Wacute" unicode="&#x1e82;" horiz-adv-x="993" 
d="M462 844l-20 36l164 88l22 -40zM967 740l-184 -740h-122l-164 733h-2l-163 -733h-122l-184 740h69l178 -733h2l164 733h115l166 -733h2l179 733h66z" />
    <glyph glyph-name="wacute" unicode="&#x1e83;" horiz-adv-x="804" 
d="M367 596l-20 36l164 88l22 -40zM776 492l-144 -492h-112l-117 487h-2l-117 -487h-112l-144 492h65l135 -487h2l118 487h110l117 -487h2l136 487h63z" />
    <glyph glyph-name="Wdieresis" unicode="&#x1e84;" horiz-adv-x="993" 
d="M454 856h-59v96h59v-96zM598 856h-58v96h58v-96zM967 740l-184 -740h-122l-164 733h-2l-163 -733h-122l-184 740h69l178 -733h2l164 733h115l166 -733h2l179 733h66z" />
    <glyph glyph-name="wdieresis" unicode="&#x1e85;" horiz-adv-x="804" 
d="M359 608h-59v96h59v-96zM503 608h-58v96h58v-96zM776 492l-144 -492h-112l-117 487h-2l-117 -487h-112l-144 492h65l135 -487h2l118 487h110l117 -487h2l136 487h63z" />
    <glyph glyph-name="uni1E9E" unicode="&#x1e9e;" horiz-adv-x="661" 
d="M324 404q137 0 213 -55t76 -155q0 -97 -68.5 -150.5t-189.5 -53.5q-29 0 -56 3t-49 9v55q46 -11 102 -11q94 0 145 39.5t51 109.5q0 76 -58.5 117.5t-164.5 41.5h-49v52q104 5 161.5 45t57.5 107q0 64 -44 100t-124 36q-81 0 -126 -43t-45 -121v-530h-63v528
q0 106 61.5 164t172.5 58q110 0 171 -46.5t61 -130.5q0 -78 -64.5 -122.5t-180.5 -44.5v-2h10v0z" />
    <glyph glyph-name="uni1EA0" unicode="&#x1ea0;" horiz-adv-x="670" 
d="M303 -105h60v-96h-60v96zM518 195h-370l-67 -195h-66l265 740h111l263 -740h-69zM500 249l-165 484h-2l-166 -484h333z" />
    <glyph glyph-name="uni1EA1" unicode="&#x1ea1;" 
d="M253 -105h60v-96h-60v96zM514 492v-492h-60v158h-2q0 -79 -48.5 -123.5t-135.5 -44.5q-102 0 -158.5 67.5t-56.5 188.5t56.5 188.5t158.5 67.5q87 0 135.5 -44.5t48.5 -123.5h2v158h60zM287 41q82 0 127.5 54.5t45.5 150.5q0 97 -45.5 151.5t-127.5 54.5t-127.5 -54.5
t-45.5 -151.5t45.5 -151t127.5 -54z" />
    <glyph glyph-name="uni1EA2" unicode="&#x1ea2;" horiz-adv-x="670" 
d="M255 888q0 40 23 63.5t64 23.5q42 0 63.5 -20.5t21.5 -55.5q0 -26 -15.5 -51t-47.5 -46h-56q33 19 53 42.5t20 49.5q0 19 -9 31t-32 12t-33 -13.5t-12 -35.5h-40zM518 195h-370l-67 -195h-66l265 740h111l263 -740h-69zM500 249l-165 484h-2l-166 -484h333z" />
    <glyph glyph-name="uni1EA3" unicode="&#x1ea3;" 
d="M230 646q0 40 23 63.5t64 23.5q42 0 63.5 -20.5t21.5 -55.5q0 -26 -15.5 -51t-47.5 -46h-56q33 19 53 42.5t20 49.5q0 19 -9 31t-32 12t-33 -13.5t-12 -35.5h-40zM514 492v-492h-60v158h-2q0 -79 -48.5 -123.5t-135.5 -44.5q-102 0 -158.5 67.5t-56.5 188.5t56.5 188.5
t158.5 67.5q87 0 135.5 -44.5t48.5 -123.5h2v158h60zM287 41q82 0 127.5 54.5t45.5 150.5q0 97 -45.5 151.5t-127.5 54.5t-127.5 -54.5t-45.5 -151.5t45.5 -151t127.5 -54z" />
    <glyph glyph-name="uni1EA4" unicode="&#x1ea4;" horiz-adv-x="670" 
d="M455 866l62 125h67l-79 -125h-50zM518 195h-370l-67 -195h-66l265 740h111l263 -740h-69zM500 249l-165 484h-2l-166 -484h333zM338 908h-4l-65 -116h-54l70 125h102l70 -125h-54z" />
    <glyph glyph-name="uni1EA5" unicode="&#x1ea5;" 
d="M415 624l62 125h67l-79 -125h-50zM514 492v-492h-60v158h-2q0 -79 -48.5 -123.5t-135.5 -44.5q-102 0 -158.5 67.5t-56.5 188.5t56.5 188.5t158.5 67.5q87 0 135.5 -44.5t48.5 -123.5h2v158h60zM287 41q82 0 127.5 54.5t45.5 150.5q0 97 -45.5 151.5t-127.5 54.5
t-127.5 -54.5t-45.5 -151.5t45.5 -151t127.5 -54zM298 666h-4l-65 -116h-54l70 125h102l70 -125h-54z" />
    <glyph glyph-name="uni1EA6" unicode="&#x1ea6;" horiz-adv-x="670" 
d="M477 866l-79 125h67l62 -125h-50zM518 195h-370l-67 -195h-66l265 740h111l263 -740h-69zM500 249l-165 484h-2l-166 -484h333zM338 908h-4l-65 -116h-54l70 125h102l70 -125h-54z" />
    <glyph glyph-name="uni1EA7" unicode="&#x1ea7;" 
d="M437 624l-79 125h67l62 -125h-50zM514 492v-492h-60v158h-2q0 -79 -48.5 -123.5t-135.5 -44.5q-102 0 -158.5 67.5t-56.5 188.5t56.5 188.5t158.5 67.5q87 0 135.5 -44.5t48.5 -123.5h2v158h60zM287 41q82 0 127.5 54.5t45.5 150.5q0 97 -45.5 151.5t-127.5 54.5
t-127.5 -54.5t-45.5 -151.5t45.5 -151t127.5 -54zM298 666h-4l-65 -116h-54l70 125h102l70 -125h-54z" />
    <glyph glyph-name="uni1EA8" unicode="&#x1ea8;" horiz-adv-x="670" 
d="M405 952q0 40 23 63.5t64 23.5q42 0 63.5 -20.5t21.5 -55.5q0 -26 -15.5 -51t-47.5 -46h-56q33 19 53 42.5t20 49.5q0 19 -9 31t-32 12t-33 -13.5t-12 -35.5h-40zM518 195h-370l-67 -195h-66l265 740h111l263 -740h-69zM500 249l-165 484h-2l-166 -484h333zM338 908h-4
l-65 -116h-54l70 125h102l70 -125h-54z" />
    <glyph glyph-name="uni1EA9" unicode="&#x1ea9;" 
d="M365 710q0 40 23 63.5t64 23.5q42 0 63.5 -20.5t21.5 -55.5q0 -26 -15.5 -51t-47.5 -46h-56q33 19 53 42.5t20 49.5q0 19 -9 31t-32 12t-33 -13.5t-12 -35.5h-40zM514 492v-492h-60v158h-2q0 -79 -48.5 -123.5t-135.5 -44.5q-102 0 -158.5 67.5t-56.5 188.5t56.5 188.5
t158.5 67.5q87 0 135.5 -44.5t48.5 -123.5h2v158h60zM287 41q82 0 127.5 54.5t45.5 150.5q0 97 -45.5 151.5t-127.5 54.5t-127.5 -54.5t-45.5 -151.5t45.5 -151t127.5 -54zM298 666h-4l-65 -116h-54l70 125h102l70 -125h-54z" />
    <glyph glyph-name="uni1EAA" unicode="&#x1eaa;" horiz-adv-x="670" 
d="M382 965q-20 0 -32.5 8t-22.5 17t-20 17t-24 8q-25 0 -30 -53h-41q1 48 20.5 74t57.5 26q19 0 31.5 -7.5t22.5 -17t19.5 -17t24.5 -7.5q26 0 31 52h41q-1 -48 -21 -74t-57 -26zM518 195h-370l-67 -195h-66l265 740h111l263 -740h-69zM500 249l-165 484h-2l-166 -484h333z
M338 908h-4l-65 -116h-54l70 125h102l70 -125h-54z" />
    <glyph glyph-name="uni1EAB" unicode="&#x1eab;" 
d="M342 723q-20 0 -32.5 8t-22.5 17t-20 17t-24 8q-25 0 -30 -53h-41q1 48 20.5 74t57.5 26q19 0 31.5 -7.5t22.5 -17t19.5 -17t24.5 -7.5q26 0 31 52h41q-1 -48 -21 -74t-57 -26zM514 492v-492h-60v158h-2q0 -79 -48.5 -123.5t-135.5 -44.5q-102 0 -158.5 67.5t-56.5 188.5
t56.5 188.5t158.5 67.5q87 0 135.5 -44.5t48.5 -123.5h2v158h60zM287 41q82 0 127.5 54.5t45.5 150.5q0 97 -45.5 151.5t-127.5 54.5t-127.5 -54.5t-45.5 -151.5t45.5 -151t127.5 -54zM298 666h-4l-65 -116h-54l70 125h102l70 -125h-54z" />
    <glyph glyph-name="uni1EAC" unicode="&#x1eac;" horiz-adv-x="670" 
d="M303 -105h60v-96h-60v96zM518 195h-370l-67 -195h-66l265 740h111l263 -740h-69zM500 249l-165 484h-2l-166 -484h333zM338 908h-4l-65 -116h-54l70 125h102l70 -125h-54z" />
    <glyph glyph-name="uni1EAD" unicode="&#x1ead;" 
d="M253 -105h60v-96h-60v96zM514 492v-492h-60v158h-2q0 -79 -48.5 -123.5t-135.5 -44.5q-102 0 -158.5 67.5t-56.5 188.5t56.5 188.5t158.5 67.5q87 0 135.5 -44.5t48.5 -123.5h2v158h60zM287 41q82 0 127.5 54.5t45.5 150.5q0 97 -45.5 151.5t-127.5 54.5t-127.5 -54.5
t-45.5 -151.5t45.5 -151t127.5 -54zM298 666h-4l-65 -116h-54l70 125h102l70 -125h-54z" />
    <glyph glyph-name="uni1EAE" unicode="&#x1eae;" horiz-adv-x="670" 
d="M306 928l62 125h67l-79 -125h-50zM518 195h-370l-67 -195h-66l265 740h111l263 -740h-69zM500 249l-165 484h-2l-166 -484h333zM336 792q-59 0 -90 30.5t-31 85.5h47q0 -23 7 -37t17.5 -22t23.5 -10.5t26 -2.5t26 2.5t23.5 10.5t17 22t6.5 37h48q0 -55 -31 -85.5
t-90 -30.5z" />
    <glyph glyph-name="uni1EAF" unicode="&#x1eaf;" 
d="M266 686l62 125h67l-79 -125h-50zM514 492v-492h-60v158h-2q0 -79 -48.5 -123.5t-135.5 -44.5q-102 0 -158.5 67.5t-56.5 188.5t56.5 188.5t158.5 67.5q87 0 135.5 -44.5t48.5 -123.5h2v158h60zM287 41q82 0 127.5 54.5t45.5 150.5q0 97 -45.5 151.5t-127.5 54.5
t-127.5 -54.5t-45.5 -151.5t45.5 -151t127.5 -54zM296 550q-59 0 -90 30.5t-31 85.5h47q0 -23 7 -37t17.5 -22t23.5 -10.5t26 -2.5t26 2.5t23.5 10.5t17 22t6.5 37h48q0 -55 -31 -85.5t-90 -30.5z" />
    <glyph glyph-name="uni1EB0" unicode="&#x1eb0;" horiz-adv-x="670" 
d="M319 928l-79 125h67l62 -125h-50zM518 195h-370l-67 -195h-66l265 740h111l263 -740h-69zM500 249l-165 484h-2l-166 -484h333zM336 792q-59 0 -90 30.5t-31 85.5h47q0 -23 7 -37t17.5 -22t23.5 -10.5t26 -2.5t26 2.5t23.5 10.5t17 22t6.5 37h48q0 -55 -31 -85.5
t-90 -30.5z" />
    <glyph glyph-name="uni1EB1" unicode="&#x1eb1;" 
d="M279 686l-79 125h67l62 -125h-50zM514 492v-492h-60v158h-2q0 -79 -48.5 -123.5t-135.5 -44.5q-102 0 -158.5 67.5t-56.5 188.5t56.5 188.5t158.5 67.5q87 0 135.5 -44.5t48.5 -123.5h2v158h60zM287 41q82 0 127.5 54.5t45.5 150.5q0 97 -45.5 151.5t-127.5 54.5
t-127.5 -54.5t-45.5 -151.5t45.5 -151t127.5 -54zM296 550q-59 0 -90 30.5t-31 85.5h47q0 -23 7 -37t17.5 -22t23.5 -10.5t26 -2.5t26 2.5t23.5 10.5t17 22t6.5 37h48q0 -55 -31 -85.5t-90 -30.5z" />
    <glyph glyph-name="uni1EB2" unicode="&#x1eb2;" horiz-adv-x="670" 
d="M253 1014q0 40 23 63.5t64 23.5q42 0 63.5 -20.5t21.5 -55.5q0 -26 -15.5 -51t-47.5 -46h-56q33 19 53 42.5t20 49.5q0 19 -9 31t-32 12t-33 -13.5t-12 -35.5h-40zM518 195h-370l-67 -195h-66l265 740h111l263 -740h-69zM500 249l-165 484h-2l-166 -484h333zM336 792
q-59 0 -90 30.5t-31 85.5h47q0 -23 7 -37t17.5 -22t23.5 -10.5t26 -2.5t26 2.5t23.5 10.5t17 22t6.5 37h48q0 -55 -31 -85.5t-90 -30.5z" />
    <glyph glyph-name="uni1EB3" unicode="&#x1eb3;" 
d="M213 772q0 40 23 63.5t64 23.5q42 0 63.5 -20.5t21.5 -55.5q0 -26 -15.5 -51t-47.5 -46h-56q33 19 53 42.5t20 49.5q0 19 -9 31t-32 12t-33 -13.5t-12 -35.5h-40zM514 492v-492h-60v158h-2q0 -79 -48.5 -123.5t-135.5 -44.5q-102 0 -158.5 67.5t-56.5 188.5t56.5 188.5
t158.5 67.5q87 0 135.5 -44.5t48.5 -123.5h2v158h60zM287 41q82 0 127.5 54.5t45.5 150.5q0 97 -45.5 151.5t-127.5 54.5t-127.5 -54.5t-45.5 -151.5t45.5 -151t127.5 -54zM296 550q-59 0 -90 30.5t-31 85.5h47q0 -23 7 -37t17.5 -22t23.5 -10.5t26 -2.5t26 2.5t23.5 10.5
t17 22t6.5 37h48q0 -55 -31 -85.5t-90 -30.5z" />
    <glyph glyph-name="uni1EB4" unicode="&#x1eb4;" horiz-adv-x="670" 
d="M383 956q-20 0 -32.5 8t-22.5 17t-20 17t-24 8q-25 0 -30 -53h-41q1 48 20.5 74t57.5 26q19 0 31.5 -7.5t22.5 -17t19.5 -17t24.5 -7.5q26 0 31 52h41q-1 -48 -21 -74t-57 -26zM518 195h-370l-67 -195h-66l265 740h111l263 -740h-69zM500 249l-165 484h-2l-166 -484h333z
M336 792q-59 0 -90 30.5t-31 85.5h47q0 -23 7 -37t17.5 -22t23.5 -10.5t26 -2.5t26 2.5t23.5 10.5t17 22t6.5 37h48q0 -55 -31 -85.5t-90 -30.5z" />
    <glyph glyph-name="uni1EB5" unicode="&#x1eb5;" 
d="M343 714q-20 0 -32.5 8t-22.5 17t-20 17t-24 8q-25 0 -30 -53h-41q1 48 20.5 74t57.5 26q19 0 31.5 -7.5t22.5 -17t19.5 -17t24.5 -7.5q26 0 31 52h41q-1 -48 -21 -74t-57 -26zM514 492v-492h-60v158h-2q0 -79 -48.5 -123.5t-135.5 -44.5q-102 0 -158.5 67.5t-56.5 188.5
t56.5 188.5t158.5 67.5q87 0 135.5 -44.5t48.5 -123.5h2v158h60zM287 41q82 0 127.5 54.5t45.5 150.5q0 97 -45.5 151.5t-127.5 54.5t-127.5 -54.5t-45.5 -151.5t45.5 -151t127.5 -54zM296 550q-59 0 -90 30.5t-31 85.5h47q0 -23 7 -37t17.5 -22t23.5 -10.5t26 -2.5t26 2.5
t23.5 10.5t17 22t6.5 37h48q0 -55 -31 -85.5t-90 -30.5z" />
    <glyph glyph-name="uni1EB6" unicode="&#x1eb6;" horiz-adv-x="670" 
d="M303 -105h60v-96h-60v96zM518 195h-370l-67 -195h-66l265 740h111l263 -740h-69zM500 249l-165 484h-2l-166 -484h333zM336 792q-59 0 -90 30.5t-31 85.5h47q0 -23 7 -37t17.5 -22t23.5 -10.5t26 -2.5t26 2.5t23.5 10.5t17 22t6.5 37h48q0 -55 -31 -85.5t-90 -30.5z" />
    <glyph glyph-name="uni1EB7" unicode="&#x1eb7;" 
d="M253 -105h60v-96h-60v96zM514 492v-492h-60v158h-2q0 -79 -48.5 -123.5t-135.5 -44.5q-102 0 -158.5 67.5t-56.5 188.5t56.5 188.5t158.5 67.5q87 0 135.5 -44.5t48.5 -123.5h2v158h60zM287 41q82 0 127.5 54.5t45.5 150.5q0 97 -45.5 151.5t-127.5 54.5t-127.5 -54.5
t-45.5 -151.5t45.5 -151t127.5 -54zM296 550q-59 0 -90 30.5t-31 85.5h47q0 -23 7 -37t17.5 -22t23.5 -10.5t26 -2.5t26 2.5t23.5 10.5t17 22t6.5 37h48q0 -55 -31 -85.5t-90 -30.5z" />
    <glyph glyph-name="uni1EB8" unicode="&#x1eb8;" horiz-adv-x="614" 
d="M313 -105h60v-96h-60v96zM570 54v-54h-470v740h459v-54h-396v-276h361v-54h-361v-302h407z" />
    <glyph glyph-name="uni1EB9" unicode="&#x1eb9;" horiz-adv-x="548" 
d="M253 -105h60v-96h-60v96zM496 234h-383q2 -92 44.5 -143t117.5 -51q66 0 108.5 34.5t52.5 97.5h60q-11 -86 -69 -134t-152 -48q-106 0 -164 67t-58 188q0 122 58 189.5t164 67.5q105 0 163 -67.5t58 -189.5v-11zM275 453q-71 0 -113 -47t-48 -132h321q-6 85 -48 132
t-112 47z" />
    <glyph glyph-name="uni1EBA" unicode="&#x1eba;" horiz-adv-x="614" 
d="M265 888q0 40 23 63.5t64 23.5q42 0 63.5 -20.5t21.5 -55.5q0 -26 -15.5 -51t-47.5 -46h-56q33 19 53 42.5t20 49.5q0 19 -9 31t-32 12t-33 -13.5t-12 -35.5h-40zM570 54v-54h-470v740h459v-54h-396v-276h361v-54h-361v-302h407z" />
    <glyph glyph-name="uni1EBB" unicode="&#x1ebb;" horiz-adv-x="548" 
d="M200 646q0 40 23 63.5t64 23.5q42 0 63.5 -20.5t21.5 -55.5q0 -26 -15.5 -51t-47.5 -46h-56q33 19 53 42.5t20 49.5q0 19 -9 31t-32 12t-33 -13.5t-12 -35.5h-40zM496 234h-383q2 -92 44.5 -143t117.5 -51q66 0 108.5 34.5t52.5 97.5h60q-11 -86 -69 -134t-152 -48
q-106 0 -164 67t-58 188q0 122 58 189.5t164 67.5q105 0 163 -67.5t58 -189.5v-11zM275 453q-71 0 -113 -47t-48 -132h321q-6 85 -48 132t-112 47z" />
    <glyph glyph-name="uni1EBC" unicode="&#x1ebc;" horiz-adv-x="614" 
d="M371 805q-20 0 -32.5 8t-22.5 17t-20 17t-24 8q-25 0 -30 -53h-41q1 48 20.5 74t57.5 26q19 0 31.5 -7.5t22.5 -17t19.5 -17t24.5 -7.5q26 0 31 52h41q-1 -48 -21 -74t-57 -26zM570 54v-54h-470v740h459v-54h-396v-276h361v-54h-361v-302h407z" />
    <glyph glyph-name="uni1EBD" unicode="&#x1ebd;" horiz-adv-x="548" 
d="M323 563q-20 0 -32.5 8t-22.5 17t-20 17t-24 8q-25 0 -30 -53h-41q1 48 20.5 74t57.5 26q19 0 31.5 -7.5t22.5 -17t19.5 -17t24.5 -7.5q26 0 31 52h41q-1 -48 -21 -74t-57 -26zM496 234h-383q2 -92 44.5 -143t117.5 -51q66 0 108.5 34.5t52.5 97.5h60q-11 -86 -69 -134
t-152 -48q-106 0 -164 67t-58 188q0 122 58 189.5t164 67.5q105 0 163 -67.5t58 -189.5v-11zM275 453q-71 0 -113 -47t-48 -132h321q-6 85 -48 132t-112 47z" />
    <glyph glyph-name="uni1EBE" unicode="&#x1ebe;" horiz-adv-x="614" 
d="M444 866l62 125h67l-79 -125h-50zM570 54v-54h-470v740h459v-54h-396v-276h361v-54h-361v-302h407zM327 908h-4l-65 -116h-54l70 125h102l70 -125h-54z" />
    <glyph glyph-name="uni1EBF" unicode="&#x1ebf;" horiz-adv-x="548" 
d="M395 624l62 125h67l-79 -125h-50zM496 234h-383q2 -92 44.5 -143t117.5 -51q66 0 108.5 34.5t52.5 97.5h60q-11 -86 -69 -134t-152 -48q-106 0 -164 67t-58 188q0 122 58 189.5t164 67.5q105 0 163 -67.5t58 -189.5v-11zM275 453q-71 0 -113 -47t-48 -132h321
q-6 85 -48 132t-112 47zM278 666h-4l-65 -116h-54l70 125h102l70 -125h-54z" />
    <glyph glyph-name="uni1EC0" unicode="&#x1ec0;" horiz-adv-x="614" 
d="M466 866l-79 125h67l62 -125h-50zM570 54v-54h-470v740h459v-54h-396v-276h361v-54h-361v-302h407zM327 908h-4l-65 -116h-54l70 125h102l70 -125h-54z" />
    <glyph glyph-name="uni1EC1" unicode="&#x1ec1;" horiz-adv-x="548" 
d="M417 624l-79 125h67l62 -125h-50zM496 234h-383q2 -92 44.5 -143t117.5 -51q66 0 108.5 34.5t52.5 97.5h60q-11 -86 -69 -134t-152 -48q-106 0 -164 67t-58 188q0 122 58 189.5t164 67.5q105 0 163 -67.5t58 -189.5v-11zM275 453q-71 0 -113 -47t-48 -132h321
q-6 85 -48 132t-112 47zM278 666h-4l-65 -116h-54l70 125h102l70 -125h-54z" />
    <glyph glyph-name="uni1EC2" unicode="&#x1ec2;" horiz-adv-x="614" 
d="M394 952q0 40 23 63.5t64 23.5q42 0 63.5 -20.5t21.5 -55.5q0 -26 -15.5 -51t-47.5 -46h-56q33 19 53 42.5t20 49.5q0 19 -9 31t-32 12t-33 -13.5t-12 -35.5h-40zM570 54v-54h-470v740h459v-54h-396v-276h361v-54h-361v-302h407zM327 908h-4l-65 -116h-54l70 125h102
l70 -125h-54z" />
    <glyph glyph-name="uni1EC3" unicode="&#x1ec3;" horiz-adv-x="548" 
d="M345 710q0 40 23 63.5t64 23.5q42 0 63.5 -20.5t21.5 -55.5q0 -26 -15.5 -51t-47.5 -46h-56q33 19 53 42.5t20 49.5q0 19 -9 31t-32 12t-33 -13.5t-12 -35.5h-40zM496 234h-383q2 -92 44.5 -143t117.5 -51q66 0 108.5 34.5t52.5 97.5h60q-11 -86 -69 -134t-152 -48
q-106 0 -164 67t-58 188q0 122 58 189.5t164 67.5q105 0 163 -67.5t58 -189.5v-11zM275 453q-71 0 -113 -47t-48 -132h321q-6 85 -48 132t-112 47zM278 666h-4l-65 -116h-54l70 125h102l70 -125h-54z" />
    <glyph glyph-name="uni1EC4" unicode="&#x1ec4;" horiz-adv-x="614" 
d="M371 965q-20 0 -32.5 8t-22.5 17t-20 17t-24 8q-25 0 -30 -53h-41q1 48 20.5 74t57.5 26q19 0 31.5 -7.5t22.5 -17t19.5 -17t24.5 -7.5q26 0 31 52h41q-1 -48 -21 -74t-57 -26zM570 54v-54h-470v740h459v-54h-396v-276h361v-54h-361v-302h407zM327 908h-4l-65 -116h-54
l70 125h102l70 -125h-54z" />
    <glyph glyph-name="uni1EC5" unicode="&#x1ec5;" horiz-adv-x="548" 
d="M322 723q-20 0 -32.5 8t-22.5 17t-20 17t-24 8q-25 0 -30 -53h-41q1 48 20.5 74t57.5 26q19 0 31.5 -7.5t22.5 -17t19.5 -17t24.5 -7.5q26 0 31 52h41q-1 -48 -21 -74t-57 -26zM496 234h-383q2 -92 44.5 -143t117.5 -51q66 0 108.5 34.5t52.5 97.5h60q-11 -86 -69 -134
t-152 -48q-106 0 -164 67t-58 188q0 122 58 189.5t164 67.5q105 0 163 -67.5t58 -189.5v-11zM275 453q-71 0 -113 -47t-48 -132h321q-6 85 -48 132t-112 47zM278 666h-4l-65 -116h-54l70 125h102l70 -125h-54z" />
    <glyph glyph-name="uni1EC6" unicode="&#x1ec6;" horiz-adv-x="614" 
d="M313 -105h60v-96h-60v96zM570 54v-54h-470v740h459v-54h-396v-276h361v-54h-361v-302h407zM327 908h-4l-65 -116h-54l70 125h102l70 -125h-54z" />
    <glyph glyph-name="uni1EC7" unicode="&#x1ec7;" horiz-adv-x="548" 
d="M253 -105h60v-96h-60v96zM496 234h-383q2 -92 44.5 -143t117.5 -51q66 0 108.5 34.5t52.5 97.5h60q-11 -86 -69 -134t-152 -48q-106 0 -164 67t-58 188q0 122 58 189.5t164 67.5q105 0 163 -67.5t58 -189.5v-11zM275 453q-71 0 -113 -47t-48 -132h321q-6 85 -48 132
t-112 47zM278 666h-4l-65 -116h-54l70 125h102l70 -125h-54z" />
    <glyph glyph-name="uni1EC8" unicode="&#x1ec8;" horiz-adv-x="263" 
d="M48 888q0 40 23 63.5t64 23.5q42 0 63.5 -20.5t21.5 -55.5q0 -26 -15.5 -51t-47.5 -46h-56q33 19 53 42.5t20 49.5q0 19 -9 31t-32 12t-33 -13.5t-12 -35.5h-40zM100 740h63v-740h-63v740z" />
    <glyph glyph-name="uni1EC9" unicode="&#x1ec9;" horiz-adv-x="226" 
d="M33 646q0 40 23 63.5t64 23.5q42 0 63.5 -20.5t21.5 -55.5q0 -26 -15.5 -51t-47.5 -46h-56q33 19 53 42.5t20 49.5q0 19 -9 31t-32 12t-33 -13.5t-12 -35.5h-40zM143 492v-492h-60v492h60z" />
    <glyph glyph-name="uni1ECA" unicode="&#x1eca;" horiz-adv-x="263" 
d="M102 -105h60v-96h-60v96zM100 740h63v-740h-63v740z" />
    <glyph glyph-name="uni1ECB" unicode="&#x1ecb;" horiz-adv-x="226" 
d="M83 -105h60v-96h-60v96zM83 704h60v-96h-60v96zM83 492h60v-492h-60v492z" />
    <glyph glyph-name="uni1ECC" unicode="&#x1ecc;" horiz-adv-x="738" 
d="M338 -105h60v-96h-60v96zM369 -10q-74 0 -131.5 26t-97.5 74.5t-61 119t-21 160.5t21 160.5t61 119t97.5 74.5t131.5 26q73 0 131 -26t98 -74.5t61 -119t21 -160.5t-21 -160.5t-61 -119t-98 -74.5t-131 -26zM369 46q58 0 104 22t77.5 63.5t48.5 101.5t17 137
q0 76 -17 136.5t-48.5 102t-77.5 63.5t-104 22q-118 0 -182.5 -85t-64.5 -239t64.5 -239t182.5 -85z" />
    <glyph glyph-name="uni1ECD" unicode="&#x1ecd;" horiz-adv-x="574" 
d="M256 -105h60v-96h-60v96zM287 -10q-111 0 -172.5 67.5t-61.5 188.5t61.5 188.5t172.5 67.5t172.5 -67.5t61.5 -188.5t-61.5 -188.5t-172.5 -67.5zM287 41q82 0 127.5 54t45.5 151t-45.5 151.5t-127.5 54.5t-127.5 -54.5t-45.5 -151.5t45.5 -151t127.5 -54z" />
    <glyph glyph-name="uni1ECE" unicode="&#x1ece;" horiz-adv-x="738" 
d="M289 888q0 40 23 63.5t64 23.5q42 0 63.5 -20.5t21.5 -55.5q0 -26 -15.5 -51t-47.5 -46h-56q33 19 53 42.5t20 49.5q0 19 -9 31t-32 12t-33 -13.5t-12 -35.5h-40zM369 -10q-74 0 -131.5 26t-97.5 74.5t-61 119t-21 160.5t21 160.5t61 119t97.5 74.5t131.5 26
q73 0 131 -26t98 -74.5t61 -119t21 -160.5t-21 -160.5t-61 -119t-98 -74.5t-131 -26zM369 46q58 0 104 22t77.5 63.5t48.5 101.5t17 137q0 76 -17 136.5t-48.5 102t-77.5 63.5t-104 22q-118 0 -182.5 -85t-64.5 -239t64.5 -239t182.5 -85z" />
    <glyph glyph-name="uni1ECF" unicode="&#x1ecf;" horiz-adv-x="574" 
d="M207 646q0 40 23 63.5t64 23.5q42 0 63.5 -20.5t21.5 -55.5q0 -26 -15.5 -51t-47.5 -46h-56q33 19 53 42.5t20 49.5q0 19 -9 31t-32 12t-33 -13.5t-12 -35.5h-40zM287 -10q-111 0 -172.5 67.5t-61.5 188.5t61.5 188.5t172.5 67.5t172.5 -67.5t61.5 -188.5t-61.5 -188.5
t-172.5 -67.5zM287 41q82 0 127.5 54t45.5 151t-45.5 151.5t-127.5 54.5t-127.5 -54.5t-45.5 -151.5t45.5 -151t127.5 -54z" />
    <glyph glyph-name="uni1ED0" unicode="&#x1ed0;" horiz-adv-x="738" 
d="M488 866l62 125h67l-79 -125h-50zM369 750q73 0 131 -26t98 -74.5t61 -119t21 -160.5t-21 -160.5t-61 -119t-98 -74.5t-131 -26q-74 0 -131.5 26t-97.5 74.5t-61 119t-21 160.5t21 160.5t61 119t97.5 74.5t131.5 26zM369 46q58 0 104 22t77.5 63.5t48.5 101.5t17 137
q0 76 -17 136.5t-48.5 102t-77.5 63.5t-104 22q-118 0 -182.5 -85t-64.5 -239t64.5 -239t182.5 -85zM371 908h-4l-65 -116h-54l70 125h102l70 -125h-54z" />
    <glyph glyph-name="uni1ED1" unicode="&#x1ed1;" horiz-adv-x="574" 
d="M405 624l62 125h67l-79 -125h-50zM287 502q111 0 172.5 -67.5t61.5 -188.5t-61.5 -188.5t-172.5 -67.5t-172.5 67.5t-61.5 188.5t61.5 188.5t172.5 67.5zM287 41q82 0 127.5 54t45.5 151t-45.5 151.5t-127.5 54.5t-127.5 -54.5t-45.5 -151.5t45.5 -151t127.5 -54z
M288 666h-4l-65 -116h-54l70 125h102l70 -125h-54z" />
    <glyph glyph-name="uni1ED2" unicode="&#x1ed2;" horiz-adv-x="738" 
d="M510 866l-79 125h67l62 -125h-50zM369 750q73 0 131 -26t98 -74.5t61 -119t21 -160.5t-21 -160.5t-61 -119t-98 -74.5t-131 -26q-74 0 -131.5 26t-97.5 74.5t-61 119t-21 160.5t21 160.5t61 119t97.5 74.5t131.5 26zM369 46q58 0 104 22t77.5 63.5t48.5 101.5t17 137
q0 76 -17 136.5t-48.5 102t-77.5 63.5t-104 22q-118 0 -182.5 -85t-64.5 -239t64.5 -239t182.5 -85zM371 908h-4l-65 -116h-54l70 125h102l70 -125h-54z" />
    <glyph glyph-name="uni1ED3" unicode="&#x1ed3;" horiz-adv-x="574" 
d="M427 624l-79 125h67l62 -125h-50zM287 502q111 0 172.5 -67.5t61.5 -188.5t-61.5 -188.5t-172.5 -67.5t-172.5 67.5t-61.5 188.5t61.5 188.5t172.5 67.5zM287 41q82 0 127.5 54t45.5 151t-45.5 151.5t-127.5 54.5t-127.5 -54.5t-45.5 -151.5t45.5 -151t127.5 -54z
M288 666h-4l-65 -116h-54l70 125h102l70 -125h-54z" />
    <glyph glyph-name="uni1ED4" unicode="&#x1ed4;" horiz-adv-x="738" 
d="M438 952q0 40 23 63.5t64 23.5q42 0 63.5 -20.5t21.5 -55.5q0 -26 -15.5 -51t-47.5 -46h-56q33 19 53 42.5t20 49.5q0 19 -9 31t-32 12t-33 -13.5t-12 -35.5h-40zM369 750q73 0 131 -26t98 -74.5t61 -119t21 -160.5t-21 -160.5t-61 -119t-98 -74.5t-131 -26
q-74 0 -131.5 26t-97.5 74.5t-61 119t-21 160.5t21 160.5t61 119t97.5 74.5t131.5 26zM369 46q58 0 104 22t77.5 63.5t48.5 101.5t17 137q0 76 -17 136.5t-48.5 102t-77.5 63.5t-104 22q-118 0 -182.5 -85t-64.5 -239t64.5 -239t182.5 -85zM371 908h-4l-65 -116h-54l70 125
h102l70 -125h-54z" />
    <glyph glyph-name="uni1ED5" unicode="&#x1ed5;" horiz-adv-x="574" 
d="M355 710q0 40 23 63.5t64 23.5q42 0 63.5 -20.5t21.5 -55.5q0 -26 -15.5 -51t-47.5 -46h-56q33 19 53 42.5t20 49.5q0 19 -9 31t-32 12t-33 -13.5t-12 -35.5h-40zM287 502q111 0 172.5 -67.5t61.5 -188.5t-61.5 -188.5t-172.5 -67.5t-172.5 67.5t-61.5 188.5t61.5 188.5
t172.5 67.5zM287 41q82 0 127.5 54t45.5 151t-45.5 151.5t-127.5 54.5t-127.5 -54.5t-45.5 -151.5t45.5 -151t127.5 -54zM288 666h-4l-65 -116h-54l70 125h102l70 -125h-54z" />
    <glyph glyph-name="uni1ED6" unicode="&#x1ed6;" horiz-adv-x="738" 
d="M415 965q-20 0 -32.5 8t-22.5 17t-20 17t-24 8q-25 0 -30 -53h-41q1 48 20.5 74t57.5 26q19 0 31.5 -7.5t22.5 -17t19.5 -17t24.5 -7.5q26 0 31 52h41q-1 -48 -21 -74t-57 -26zM369 750q73 0 131 -26t98 -74.5t61 -119t21 -160.5t-21 -160.5t-61 -119t-98 -74.5t-131 -26
q-74 0 -131.5 26t-97.5 74.5t-61 119t-21 160.5t21 160.5t61 119t97.5 74.5t131.5 26zM369 46q58 0 104 22t77.5 63.5t48.5 101.5t17 137q0 76 -17 136.5t-48.5 102t-77.5 63.5t-104 22q-118 0 -182.5 -85t-64.5 -239t64.5 -239t182.5 -85zM371 908h-4l-65 -116h-54l70 125
h102l70 -125h-54z" />
    <glyph glyph-name="uni1ED7" unicode="&#x1ed7;" horiz-adv-x="574" 
d="M332 723q-20 0 -32.5 8t-22.5 17t-20 17t-24 8q-25 0 -30 -53h-41q1 48 20.5 74t57.5 26q19 0 31.5 -7.5t22.5 -17t19.5 -17t24.5 -7.5q26 0 31 52h41q-1 -48 -21 -74t-57 -26zM287 502q111 0 172.5 -67.5t61.5 -188.5t-61.5 -188.5t-172.5 -67.5t-172.5 67.5
t-61.5 188.5t61.5 188.5t172.5 67.5zM287 41q82 0 127.5 54t45.5 151t-45.5 151.5t-127.5 54.5t-127.5 -54.5t-45.5 -151.5t45.5 -151t127.5 -54zM288 666h-4l-65 -116h-54l70 125h102l70 -125h-54z" />
    <glyph glyph-name="uni1ED8" unicode="&#x1ed8;" horiz-adv-x="738" 
d="M338 -105h60v-96h-60v96zM369 750q73 0 131 -26t98 -74.5t61 -119t21 -160.5t-21 -160.5t-61 -119t-98 -74.5t-131 -26q-74 0 -131.5 26t-97.5 74.5t-61 119t-21 160.5t21 160.5t61 119t97.5 74.5t131.5 26zM369 46q58 0 104 22t77.5 63.5t48.5 101.5t17 137
q0 76 -17 136.5t-48.5 102t-77.5 63.5t-104 22q-118 0 -182.5 -85t-64.5 -239t64.5 -239t182.5 -85zM371 908h-4l-65 -116h-54l70 125h102l70 -125h-54z" />
    <glyph glyph-name="uni1ED9" unicode="&#x1ed9;" horiz-adv-x="574" 
d="M256 -105h60v-96h-60v96zM287 502q111 0 172.5 -67.5t61.5 -188.5t-61.5 -188.5t-172.5 -67.5t-172.5 67.5t-61.5 188.5t61.5 188.5t172.5 67.5zM287 41q82 0 127.5 54t45.5 151t-45.5 151.5t-127.5 54.5t-127.5 -54.5t-45.5 -151.5t45.5 -151t127.5 -54zM288 666h-4
l-65 -116h-54l70 125h102l70 -125h-54z" />
    <glyph glyph-name="uni1EDA" unicode="&#x1eda;" horiz-adv-x="738" 
d="M332 802l62 125h67l-79 -125h-50zM369 -10q-74 0 -131.5 26t-97.5 74.5t-61 119t-21 160.5t21 160.5t61 119t97.5 74.5t131.5 26q31 0 59 -5t54 -14q10 2 20 7t18 15.5t12.5 28t4.5 43.5h59q0 -42 -22.5 -71t-59.5 -37q80 -41 123 -129.5t43 -217.5q0 -90 -21 -160.5
t-61 -119t-98 -74.5t-131 -26zM369 46q58 0 104 22t77.5 63.5t48.5 101.5t17 137q0 76 -17 136.5t-48.5 102t-77.5 63.5t-104 22q-118 0 -182.5 -85t-64.5 -239t64.5 -239t182.5 -85z" />
    <glyph glyph-name="uni1EDB" unicode="&#x1edb;" horiz-adv-x="574" 
d="M254 560l62 125h67l-79 -125h-50zM287 -10q-111 0 -172.5 67.5t-61.5 188.5t61.5 188.5t172.5 67.5q53 0 96 -17q18 6 31.5 25.5t13.5 66.5h59q0 -39 -20.5 -67.5t-53.5 -38.5q52 -30 80 -87t28 -138q0 -121 -61.5 -188.5t-172.5 -67.5zM287 41q82 0 127.5 54t45.5 151
t-45.5 151.5t-127.5 54.5t-127.5 -54.5t-45.5 -151.5t45.5 -151t127.5 -54z" />
    <glyph glyph-name="uni1EDC" unicode="&#x1edc;" horiz-adv-x="738" 
d="M353 802l-79 125h67l62 -125h-50zM369 -10q-74 0 -131.5 26t-97.5 74.5t-61 119t-21 160.5t21 160.5t61 119t97.5 74.5t131.5 26q31 0 59 -5t54 -14q10 2 20 7t18 15.5t12.5 28t4.5 43.5h59q0 -42 -22.5 -71t-59.5 -37q80 -41 123 -129.5t43 -217.5q0 -90 -21 -160.5
t-61 -119t-98 -74.5t-131 -26zM369 46q58 0 104 22t77.5 63.5t48.5 101.5t17 137q0 76 -17 136.5t-48.5 102t-77.5 63.5t-104 22q-118 0 -182.5 -85t-64.5 -239t64.5 -239t182.5 -85z" />
    <glyph glyph-name="uni1EDD" unicode="&#x1edd;" horiz-adv-x="574" 
d="M271 560l-79 125h67l62 -125h-50zM287 -10q-111 0 -172.5 67.5t-61.5 188.5t61.5 188.5t172.5 67.5q53 0 96 -17q18 6 31.5 25.5t13.5 66.5h59q0 -39 -20.5 -67.5t-53.5 -38.5q52 -30 80 -87t28 -138q0 -121 -61.5 -188.5t-172.5 -67.5zM287 41q82 0 127.5 54t45.5 151
t-45.5 151.5t-127.5 54.5t-127.5 -54.5t-45.5 -151.5t45.5 -151t127.5 -54z" />
    <glyph glyph-name="uni1EDE" unicode="&#x1ede;" horiz-adv-x="738" 
d="M289 888q0 40 23 63.5t64 23.5q42 0 63.5 -20.5t21.5 -55.5q0 -26 -15.5 -51t-47.5 -46h-56q33 19 53 42.5t20 49.5q0 19 -9 31t-32 12t-33 -13.5t-12 -35.5h-40zM369 -10q-74 0 -131.5 26t-97.5 74.5t-61 119t-21 160.5t21 160.5t61 119t97.5 74.5t131.5 26q31 0 59 -5
t54 -14q10 2 20 7t18 15.5t12.5 28t4.5 43.5h59q0 -42 -22.5 -71t-59.5 -37q80 -41 123 -129.5t43 -217.5q0 -90 -21 -160.5t-61 -119t-98 -74.5t-131 -26zM369 46q58 0 104 22t77.5 63.5t48.5 101.5t17 137q0 76 -17 136.5t-48.5 102t-77.5 63.5t-104 22q-118 0 -182.5 -85
t-64.5 -239t64.5 -239t182.5 -85z" />
    <glyph glyph-name="uni1EDF" unicode="&#x1edf;" horiz-adv-x="574" 
d="M207 646q0 40 23 63.5t64 23.5q42 0 63.5 -20.5t21.5 -55.5q0 -26 -15.5 -51t-47.5 -46h-56q33 19 53 42.5t20 49.5q0 19 -9 31t-32 12t-33 -13.5t-12 -35.5h-40zM287 -10q-111 0 -172.5 67.5t-61.5 188.5t61.5 188.5t172.5 67.5q53 0 96 -17q18 6 31.5 25.5t13.5 66.5
h59q0 -39 -20.5 -67.5t-53.5 -38.5q52 -30 80 -87t28 -138q0 -121 -61.5 -188.5t-172.5 -67.5zM287 41q82 0 127.5 54t45.5 151t-45.5 151.5t-127.5 54.5t-127.5 -54.5t-45.5 -151.5t45.5 -151t127.5 -54z" />
    <glyph glyph-name="uni1EE0" unicode="&#x1ee0;" horiz-adv-x="738" 
d="M415 805q-20 0 -32.5 8t-22.5 17t-20 17t-24 8q-25 0 -30 -53h-41q1 48 20.5 74t57.5 26q19 0 31.5 -7.5t22.5 -17t19.5 -17t24.5 -7.5q26 0 31 52h41q-1 -48 -21 -74t-57 -26zM369 -10q-74 0 -131.5 26t-97.5 74.5t-61 119t-21 160.5t21 160.5t61 119t97.5 74.5
t131.5 26q31 0 59 -5t54 -14q10 2 20 7t18 15.5t12.5 28t4.5 43.5h59q0 -42 -22.5 -71t-59.5 -37q80 -41 123 -129.5t43 -217.5q0 -90 -21 -160.5t-61 -119t-98 -74.5t-131 -26zM369 46q58 0 104 22t77.5 63.5t48.5 101.5t17 137q0 76 -17 136.5t-48.5 102t-77.5 63.5
t-104 22q-118 0 -182.5 -85t-64.5 -239t64.5 -239t182.5 -85z" />
    <glyph glyph-name="uni1EE1" unicode="&#x1ee1;" horiz-adv-x="574" 
d="M333 563q-20 0 -32.5 8t-22.5 17t-20 17t-24 8q-25 0 -30 -53h-41q1 48 20.5 74t57.5 26q19 0 31.5 -7.5t22.5 -17t19.5 -17t24.5 -7.5q26 0 31 52h41q-1 -48 -21 -74t-57 -26zM287 -10q-111 0 -172.5 67.5t-61.5 188.5t61.5 188.5t172.5 67.5q53 0 96 -17
q18 6 31.5 25.5t13.5 66.5h59q0 -39 -20.5 -67.5t-53.5 -38.5q52 -30 80 -87t28 -138q0 -121 -61.5 -188.5t-172.5 -67.5zM287 41q82 0 127.5 54t45.5 151t-45.5 151.5t-127.5 54.5t-127.5 -54.5t-45.5 -151.5t45.5 -151t127.5 -54z" />
    <glyph glyph-name="uni1EE2" unicode="&#x1ee2;" horiz-adv-x="738" 
d="M338 -105h60v-96h-60v96zM369 -10q-74 0 -131.5 26t-97.5 74.5t-61 119t-21 160.5t21 160.5t61 119t97.5 74.5t131.5 26q31 0 59 -5t54 -14q10 2 20 7t18 15.5t12.5 28t4.5 43.5h59q0 -42 -22.5 -71t-59.5 -37q80 -41 123 -129.5t43 -217.5q0 -90 -21 -160.5t-61 -119
t-98 -74.5t-131 -26zM369 46q58 0 104 22t77.5 63.5t48.5 101.5t17 137q0 76 -17 136.5t-48.5 102t-77.5 63.5t-104 22q-118 0 -182.5 -85t-64.5 -239t64.5 -239t182.5 -85z" />
    <glyph glyph-name="uni1EE3" unicode="&#x1ee3;" horiz-adv-x="574" 
d="M256 -105h60v-96h-60v96zM287 -10q-111 0 -172.5 67.5t-61.5 188.5t61.5 188.5t172.5 67.5q53 0 96 -17q18 6 31.5 25.5t13.5 66.5h59q0 -39 -20.5 -67.5t-53.5 -38.5q52 -30 80 -87t28 -138q0 -121 -61.5 -188.5t-172.5 -67.5zM287 41q82 0 127.5 54t45.5 151
t-45.5 151.5t-127.5 54.5t-127.5 -54.5t-45.5 -151.5t45.5 -151t127.5 -54z" />
    <glyph glyph-name="uni1EE4" unicode="&#x1ee4;" horiz-adv-x="708" 
d="M323 -105h60v-96h-60v96zM556 740h60v-488q0 -124 -69 -193t-193 -69t-193 69t-69 193v488h63v-493q0 -95 52.5 -148t146.5 -53q96 0 149 53t53 148v493z" />
    <glyph glyph-name="uni1EE5" unicode="&#x1ee5;" horiz-adv-x="565" 
d="M258 -105h60v-96h-60v96zM482 492v-492h-60v167h-2q0 -84 -44 -130.5t-123 -46.5q-83 0 -129 51t-46 142v309h60v-308q0 -68 35 -105.5t98 -37.5q72 0 111.5 47.5t39.5 133.5v270h60z" />
    <glyph glyph-name="uni1EE6" unicode="&#x1ee6;" horiz-adv-x="708" 
d="M270 888q0 40 23 63.5t64 23.5q42 0 63.5 -20.5t21.5 -55.5q0 -26 -15.5 -51t-47.5 -46h-56q33 19 53 42.5t20 49.5q0 19 -9 31t-32 12t-33 -13.5t-12 -35.5h-40zM556 740h60v-488q0 -124 -69 -193t-193 -69t-193 69t-69 193v488h63v-493q0 -95 52.5 -148t146.5 -53
q96 0 149 53t53 148v493z" />
    <glyph glyph-name="uni1EE7" unicode="&#x1ee7;" horiz-adv-x="565" 
d="M196 646q0 40 23 63.5t64 23.5q42 0 63.5 -20.5t21.5 -55.5q0 -26 -15.5 -51t-47.5 -46h-56q33 19 53 42.5t20 49.5q0 19 -9 31t-32 12t-33 -13.5t-12 -35.5h-40zM482 492v-492h-60v167h-2q0 -84 -44 -130.5t-123 -46.5q-83 0 -129 51t-46 142v309h60v-308
q0 -68 35 -105.5t98 -37.5q72 0 111.5 47.5t39.5 133.5v270h60z" />
    <glyph glyph-name="uni1EE8" unicode="&#x1ee8;" horiz-adv-x="708" 
d="M319 802l62 125h67l-79 -125h-50zM556 740h14q12 1 23.5 5t21 14t15 28.5t5.5 47.5h59q0 -41 -21.5 -70t-56.5 -37v-476q0 -124 -69 -193t-193 -69t-193 69t-69 193v488h63v-493q0 -95 52.5 -148t146.5 -53q96 0 149 53t53 148v493z" />
    <glyph glyph-name="uni1EE9" unicode="&#x1ee9;" horiz-adv-x="565" 
d="M248 560l62 125h67l-79 -125h-50zM433 492q12 1 23.5 5t21 14t15 28.5t5.5 47.5h59q0 -39 -20.5 -67.5t-54.5 -38.5v-481h-60v167h-2q0 -84 -44 -130.5t-123 -46.5q-83 0 -129 51t-46 142v309h60v-308q0 -68 35 -105.5t98 -37.5q72 0 111.5 47.5t39.5 133.5v270h11z" />
    <glyph glyph-name="uni1EEA" unicode="&#x1eea;" horiz-adv-x="708" 
d="M347 802l-79 125h67l62 -125h-50zM556 740h14q12 1 23.5 5t21 14t15 28.5t5.5 47.5h59q0 -41 -21.5 -70t-56.5 -37v-476q0 -124 -69 -193t-193 -69t-193 69t-69 193v488h63v-493q0 -95 52.5 -148t146.5 -53q96 0 149 53t53 148v493z" />
    <glyph glyph-name="uni1EEB" unicode="&#x1eeb;" horiz-adv-x="565" 
d="M272 560l-79 125h67l62 -125h-50zM433 492q12 1 23.5 5t21 14t15 28.5t5.5 47.5h59q0 -39 -20.5 -67.5t-54.5 -38.5v-481h-60v167h-2q0 -84 -44 -130.5t-123 -46.5q-83 0 -129 51t-46 142v309h60v-308q0 -68 35 -105.5t98 -37.5q72 0 111.5 47.5t39.5 133.5v270h11z" />
    <glyph glyph-name="uni1EEC" unicode="&#x1eec;" horiz-adv-x="708" 
d="M270 888q0 40 23 63.5t64 23.5q42 0 63.5 -20.5t21.5 -55.5q0 -26 -15.5 -51t-47.5 -46h-56q33 19 53 42.5t20 49.5q0 19 -9 31t-32 12t-33 -13.5t-12 -35.5h-40zM556 740h14q12 1 23.5 5t21 14t15 28.5t5.5 47.5h59q0 -41 -21.5 -70t-56.5 -37v-476q0 -124 -69 -193
t-193 -69t-193 69t-69 193v488h63v-493q0 -95 52.5 -148t146.5 -53q96 0 149 53t53 148v493z" />
    <glyph glyph-name="uni1EED" unicode="&#x1eed;" horiz-adv-x="565" 
d="M196 646q0 40 23 63.5t64 23.5q42 0 63.5 -20.5t21.5 -55.5q0 -26 -15.5 -51t-47.5 -46h-56q33 19 53 42.5t20 49.5q0 19 -9 31t-32 12t-33 -13.5t-12 -35.5h-40zM433 492q12 1 23.5 5t21 14t15 28.5t5.5 47.5h59q0 -39 -20.5 -67.5t-54.5 -38.5v-481h-60v167h-2
q0 -84 -44 -130.5t-123 -46.5q-83 0 -129 51t-46 142v309h60v-308q0 -68 35 -105.5t98 -37.5q72 0 111.5 47.5t39.5 133.5v270h11z" />
    <glyph glyph-name="uni1EEE" unicode="&#x1eee;" horiz-adv-x="708" 
d="M401 805q-20 0 -32.5 8t-22.5 17t-20 17t-24 8q-25 0 -30 -53h-41q1 48 20.5 74t57.5 26q19 0 31.5 -7.5t22.5 -17t19.5 -17t24.5 -7.5q26 0 31 52h41q-1 -48 -21 -74t-57 -26zM556 740h14q12 1 23.5 5t21 14t15 28.5t5.5 47.5h59q0 -41 -21.5 -70t-56.5 -37v-476
q0 -124 -69 -193t-193 -69t-193 69t-69 193v488h63v-493q0 -95 52.5 -148t146.5 -53q96 0 149 53t53 148v493z" />
    <glyph glyph-name="uni1EEF" unicode="&#x1eef;" horiz-adv-x="565" 
d="M326 563q-20 0 -32.5 8t-22.5 17t-20 17t-24 8q-25 0 -30 -53h-41q1 48 20.5 74t57.5 26q19 0 31.5 -7.5t22.5 -17t19.5 -17t24.5 -7.5q26 0 31 52h41q-1 -48 -21 -74t-57 -26zM433 492q12 1 23.5 5t21 14t15 28.5t5.5 47.5h59q0 -39 -20.5 -67.5t-54.5 -38.5v-481h-60
v167h-2q0 -84 -44 -130.5t-123 -46.5q-83 0 -129 51t-46 142v309h60v-308q0 -68 35 -105.5t98 -37.5q72 0 111.5 47.5t39.5 133.5v270h11z" />
    <glyph glyph-name="uni1EF0" unicode="&#x1ef0;" horiz-adv-x="708" 
d="M323 -105h60v-96h-60v96zM556 740h14q12 1 23.5 5t21 14t15 28.5t5.5 47.5h59q0 -41 -21.5 -70t-56.5 -37v-476q0 -124 -69 -193t-193 -69t-193 69t-69 193v488h63v-493q0 -95 52.5 -148t146.5 -53q96 0 149 53t53 148v493z" />
    <glyph glyph-name="uni1EF1" unicode="&#x1ef1;" horiz-adv-x="565" 
d="M258 -105h60v-96h-60v96zM433 492q12 1 23.5 5t21 14t15 28.5t5.5 47.5h59q0 -39 -20.5 -67.5t-54.5 -38.5v-481h-60v167h-2q0 -84 -44 -130.5t-123 -46.5q-83 0 -129 51t-46 142v309h60v-308q0 -68 35 -105.5t98 -37.5q72 0 111.5 47.5t39.5 133.5v270h11z" />
    <glyph glyph-name="Ygrave" unicode="&#x1ef2;" horiz-adv-x="642" 
d="M645 740l-385 -740h-71l138 269h-62l-245 471h74l240 -464h2l238 464h71zM337 802l-79 125h67l62 -125h-50z" />
    <glyph glyph-name="ygrave" unicode="&#x1ef3;" horiz-adv-x="514" 
d="M488 492l-252 -722h-65l80 230h-52l-171 492h65l164 -487h2l164 487h65zM252 560l-79 125h67l62 -125h-50z" />
    <glyph glyph-name="uni1EF4" unicode="&#x1ef4;" horiz-adv-x="642" 
d="M185 -105h60v-96h-60v96zM645 740l-385 -740h-71l138 269h-62l-245 471h74l240 -464h2l238 464h71z" />
    <glyph glyph-name="uni1EF5" unicode="&#x1ef5;" horiz-adv-x="514" 
d="M373 -105h60v-96h-60v96zM488 492l-252 -722h-65l80 230h-52l-171 492h65l164 -487h2l164 487h65z" />
    <glyph glyph-name="uni1EF6" unicode="&#x1ef6;" horiz-adv-x="642" 
d="M260 888q0 40 23 63.5t64 23.5q42 0 63.5 -20.5t21.5 -55.5q0 -26 -15.5 -51t-47.5 -46h-56q33 19 53 42.5t20 49.5q0 19 -9 31t-32 12t-33 -13.5t-12 -35.5h-40zM645 740l-385 -740h-71l138 269h-62l-245 471h74l240 -464h2l238 464h71z" />
    <glyph glyph-name="uni1EF7" unicode="&#x1ef7;" horiz-adv-x="514" 
d="M176 646q0 40 23 63.5t64 23.5q42 0 63.5 -20.5t21.5 -55.5q0 -26 -15.5 -51t-47.5 -46h-56q33 19 53 42.5t20 49.5q0 19 -9 31t-32 12t-33 -13.5t-12 -35.5h-40zM488 492l-252 -722h-65l80 230h-52l-171 492h65l164 -487h2l164 487h65z" />
    <glyph glyph-name="uni1EF8" unicode="&#x1ef8;" horiz-adv-x="642" 
d="M373 805q-20 0 -32.5 8t-22.5 17t-20 17t-24 8q-25 0 -30 -53h-41q1 48 20.5 74t57.5 26q19 0 31.5 -7.5t22.5 -17t19.5 -17t24.5 -7.5q26 0 31 52h41q-1 -48 -21 -74t-57 -26zM645 740l-385 -740h-71l138 269h-62l-245 471h74l240 -464h2l238 464h71z" />
    <glyph glyph-name="uni1EF9" unicode="&#x1ef9;" horiz-adv-x="514" 
d="M299 563q-20 0 -32.5 8t-22.5 17t-20 17t-24 8q-25 0 -30 -53h-41q1 48 20.5 74t57.5 26q19 0 31.5 -7.5t22.5 -17t19.5 -17t24.5 -7.5q26 0 31 52h41q-1 -48 -21 -74t-57 -26zM488 492l-252 -722h-65l80 230h-52l-171 492h65l164 -487h2l164 487h65z" />
    <glyph glyph-name="endash" unicode="&#x2013;" horiz-adv-x="573" 
d="M501 269v-38h-429v38h429z" />
    <glyph glyph-name="emdash" unicode="&#x2014;" horiz-adv-x="857" 
d="M785 269v-38h-713v38h713z" />
    <glyph glyph-name="quoteleft" unicode="&#x2018;" horiz-adv-x="203" 
d="M139 700q-33 -13 -52.5 -38t-21.5 -57h73v-74h-78v65q0 51 20.5 90.5t58.5 59.5v-46v0z" />
    <glyph glyph-name="quoteright" unicode="&#x2019;" horiz-adv-x="197" 
d="M145 740v-65q0 -51 -20.5 -90.5t-58.5 -59.5v46q33 13 52.5 38t21.5 57h-73v74h78z" />
    <glyph glyph-name="quotesinglbase" unicode="&#x201a;" horiz-adv-x="212" 
d="M151 74v-65q0 -51 -20.5 -90.5t-58.5 -59.5v46q33 13 52.5 38t21.5 57h-73v74h78z" />
    <glyph glyph-name="quotedblleft" unicode="&#x201c;" horiz-adv-x="331" 
d="M60 596q0 51 20.5 90.5t58.5 59.5v-46q-33 -13 -52.5 -38t-21.5 -57h73v-74h-78v65zM267 700q-33 -13 -52.5 -38t-21.5 -57h73v-74h-78v65q0 51 20.5 90.5t58.5 59.5v-46z" />
    <glyph glyph-name="quotedblright" unicode="&#x201d;" horiz-adv-x="325" 
d="M67 740h78v-65q0 -51 -20.5 -90.5t-58.5 -59.5v46q33 13 52.5 38t21.5 57h-73v74zM273 740v-65q0 -51 -20.5 -90.5t-58.5 -59.5v46q33 13 52.5 38t21.5 57h-73v74h78z" />
    <glyph glyph-name="quotedblbase" unicode="&#x201e;" horiz-adv-x="340" 
d="M73 74h78v-65q0 -51 -20.5 -90.5t-58.5 -59.5v46q33 13 52.5 38t21.5 57h-73v74zM279 74v-65q0 -51 -20.5 -90.5t-58.5 -59.5v46q33 13 52.5 38t21.5 57h-73v74h78z" />
    <glyph glyph-name="dagger" unicode="&#x2020;" horiz-adv-x="381" 
d="M326 655v-40h-113v-250h-46v159q0 32 11 55t31 34v2h-153v40h113v115h46v-115h111z" />
    <glyph glyph-name="daggerdbl" unicode="&#x2021;" horiz-adv-x="381" 
d="M213 615v-95h113v-40h-113v-115h-46v24q0 32 11 55t31 34v2h-153v40h111v4q0 32 11 55t31 34v2h-153v40h113v115h46v-115h111v-40h-113z" />
    <glyph glyph-name="bullet" unicode="&#x2022;" horiz-adv-x="337" 
d="M93 365h151v-139h-151v139z" />
    <glyph glyph-name="ellipsis" unicode="&#x2026;" horiz-adv-x="576" 
d="M147 74v-74h-78v74h78zM327 74v-74h-78v74h78zM506 74v-74h-78v74h78z" />
    <glyph glyph-name="perthousand" unicode="&#x2030;" horiz-adv-x="1013" 
d="M572 750l32 -24l-474 -736l-32 24zM178 360q-64 0 -99 48.5t-35 136.5t35 136.5t99 48.5t99 -48.5t35 -136.5t-35 -136.5t-99 -48.5zM178 403q38 0 60 37.5t22 104.5t-22 104.5t-60 37.5t-60 -37.5t-22 -104.5t22 -104.5t60 -37.5zM526 -10q-63 0 -98.5 48.5t-35.5 136.5
t35.5 136.5t98.5 48.5q64 0 99.5 -48.5t35.5 -136.5t-35.5 -136.5t-99.5 -48.5zM844 -10q-64 0 -99 48.5t-35 136.5t35 136.5t99 48.5t99 -48.5t35 -136.5t-35 -136.5t-99 -48.5zM526 33q38 0 60 37.5t22 104.5t-22 104.5t-60 37.5t-60 -37.5t-22 -104.5t22 -104.5t60 -37.5
zM844 33q38 0 60 37.5t22 104.5t-22 104.5t-60 37.5t-60 -37.5t-22 -104.5t22 -104.5t60 -37.5z" />
    <glyph glyph-name="guilsinglleft" unicode="&#x2039;" horiz-adv-x="273" 
d="M171 443h49l-126 -193l126 -193h-49l-128 193z" />
    <glyph glyph-name="guilsinglright" unicode="&#x203a;" horiz-adv-x="273" 
d="M102 57h-49l126 193l-126 193h49l128 -193z" />
    <glyph glyph-name="fraction" unicode="&#x2044;" horiz-adv-x="204" 
d="M324 750l32 -24l-474 -736l-32 24z" />
    <glyph glyph-name="uni2070" unicode="&#x2070;" horiz-adv-x="392" 
d="M196 352q-76 0 -119 60t-43 168t43 168t119 60t118.5 -60t42.5 -168t-42.5 -168t-118.5 -60zM196 396q51 0 79 48.5t28 135.5t-28 135.5t-79 48.5t-79 -48.5t-28 -135.5t28 -135.5t79 -48.5z" />
    <glyph glyph-name="uni2074" unicode="&#x2074;" horiz-adv-x="366" 
d="M344 472h-58v-114h-53v114h-214v48l167 282h100v-287h58v-43zM69 517v-2h165v281h-2z" />
    <glyph glyph-name="uni2075" unicode="&#x2075;" horiz-adv-x="366" 
d="M183 352q-65 0 -105 34.5t-48 94.5h52q7 -39 33 -62t67 -23q48 0 75.5 28t27.5 78q0 51 -26.5 79t-74.5 28q-40 0 -64 -21t-35 -54l-51 7l35 261h236v-43h-189l-32 -214h2q8 51 40 78.5t82 27.5q62 0 96.5 -38.5t34.5 -107.5q0 -72 -41 -112.5t-115 -40.5z" />
    <glyph glyph-name="uni2076" unicode="&#x2076;" horiz-adv-x="382" 
d="M216 644q65 0 100 -36.5t35 -102.5q0 -72 -42.5 -112.5t-113.5 -40.5q-161 0 -161 215q0 114 44.5 177.5t123.5 63.5q61 0 97.5 -34t41.5 -96h-52q-4 41 -26.5 63.5t-60.5 22.5q-54 0 -84.5 -51t-30.5 -142v-43h2q0 54 33.5 85t93.5 31zM193 396q49 0 76.5 28t27.5 77
q0 48 -27.5 73.5t-76.5 25.5q-48 0 -75 -24.5t-27 -69.5q0 -51 28.5 -80.5t73.5 -29.5z" />
    <glyph glyph-name="uni2077" unicode="&#x2077;" horiz-adv-x="327" 
d="M314 802v-40q-35 -9 -62 -37.5t-46 -74t-29 -106.5t-10 -135v-51h-56v42q0 78 12 141.5t35.5 109t56.5 73t75 33.5v2h-278v43h302z" />
    <glyph glyph-name="uni2078" unicode="&#x2078;" horiz-adv-x="379" 
d="M231 607q55 -8 85.5 -40.5t30.5 -84.5q0 -61 -41 -95.5t-116 -34.5q-74 0 -115.5 34.5t-41.5 95.5q0 52 30.5 84t86.5 41v2q-49 0 -76 24t-27 68q0 51 38 79t105 28t104.5 -28t37.5 -79q0 -44 -26.5 -68t-74.5 -24v-2zM102 684q0 -38 23 -59t65 -21t65 21t23 59t-23 59
t-65 21t-65 -21t-23 -59zM190 396q48 0 74.5 22.5t26.5 63.5q0 42 -26.5 64t-74.5 22t-75 -22t-27 -64q0 -41 27 -63.5t75 -22.5z" />
    <glyph glyph-name="uni2079" unicode="&#x2079;" horiz-adv-x="382" 
d="M189 808q81 0 119.5 -54.5t38.5 -160.5q0 -114 -44 -177.5t-123 -63.5q-61 0 -97.5 37.5t-41.5 104.5h51q4 -46 27 -72t61 -26q54 0 84 51t30 142v49h-2q0 -52 -33 -81t-93 -29q-64 0 -99.5 35t-35.5 98q0 69 43 108t115 39zM189 572q48 0 75 23t27 65q0 49 -28.5 76.5
t-73.5 27.5q-49 0 -76.5 -26t-27.5 -73q0 -45 27.5 -69t76.5 -24z" />
    <glyph glyph-name="uni2080" unicode="&#x2080;" horiz-adv-x="392" 
d="M196 -116q-76 0 -119 60t-43 168t43 168t119 60t118.5 -60t42.5 -168t-42.5 -168t-118.5 -60zM196 -72q51 0 79 48.5t28 135.5t-28 135.5t-79 48.5t-79 -48.5t-28 -135.5t28 -135.5t79 -48.5z" />
    <glyph glyph-name="uni2081" unicode="&#x2081;" horiz-adv-x="218" 
d="M155 334v-444h-53v423h-2q0 -39 -21.5 -61t-60.5 -22v45q40 0 62 15.5t22 43.5h53z" />
    <glyph glyph-name="uni2082" unicode="&#x2082;" horiz-adv-x="366" 
d="M337 -67v-43h-308v40q115 32 178 101t63 161q0 48 -23.5 76t-65.5 28t-67.5 -31t-27.5 -86h-52q4 76 42.5 118.5t105.5 42.5q69 0 106.5 -39t37.5 -110q0 -103 -71.5 -170t-200.5 -86v-2h283z" />
    <glyph glyph-name="uni2083" unicode="&#x2083;" horiz-adv-x="364" 
d="M177 138q72 0 113 -33t41 -92q0 -61 -41 -95t-114 -34q-67 0 -105.5 37.5t-42.5 106.5h51q2 -48 27 -74.5t70 -26.5q48 0 74 22.5t26 63.5q0 40 -27 62.5t-77 22.5h-12v41q49 6 76 28t27 55q0 35 -22.5 55t-64.5 20q-40 0 -63.5 -27t-25.5 -75h-51q5 69 42.5 107
t103.5 38q65 0 100.5 -27t35.5 -75q0 -47 -37.5 -72.5t-104.5 -25.5v-2h1v0z" />
    <glyph glyph-name="uni2084" unicode="&#x2084;" horiz-adv-x="366" 
d="M345 4h-58v-114h-53v114h-214v48l167 282h100v-287h58v-43zM70 49v-2h165v281h-2z" />
    <glyph glyph-name="uni2085" unicode="&#x2085;" horiz-adv-x="366" 
d="M183 -116q-65 0 -105 34.5t-48 94.5h52q7 -39 33 -62t67 -23q48 0 75.5 28t27.5 78q0 51 -26.5 79t-74.5 28q-40 0 -64 -21t-35 -54l-51 7l35 261h236v-43h-189l-32 -214h2q8 51 40 78.5t82 27.5q62 0 96.5 -38.5t34.5 -107.5q0 -72 -41 -112.5t-115 -40.5z" />
    <glyph glyph-name="uni2086" unicode="&#x2086;" horiz-adv-x="382" 
d="M216 176q65 0 100 -36.5t35 -102.5q0 -72 -42.5 -112.5t-113.5 -40.5q-161 0 -161 215q0 114 44.5 177.5t123.5 63.5q61 0 97.5 -34t41.5 -96h-52q-4 41 -26.5 63.5t-60.5 22.5q-54 0 -84.5 -51t-30.5 -142v-43h2q0 54 33.5 85t93.5 31zM193 -72q49 0 76.5 28t27.5 77
q0 48 -27.5 73.5t-76.5 25.5q-48 0 -75 -24.5t-27 -69.5q0 -51 28.5 -80.5t73.5 -29.5z" />
    <glyph glyph-name="uni2087" unicode="&#x2087;" horiz-adv-x="327" 
d="M315 334v-40q-35 -9 -62 -37.5t-46 -74t-29 -106.5t-10 -135v-51h-56v42q0 78 12 141.5t35.5 109t56.5 73t75 33.5v2h-278v43h302z" />
    <glyph glyph-name="uni2088" unicode="&#x2088;" horiz-adv-x="379" 
d="M231 139q55 -8 85.5 -40.5t30.5 -84.5q0 -61 -41 -95.5t-116 -34.5q-74 0 -115.5 34.5t-41.5 95.5q0 52 30.5 84t86.5 41v2q-49 0 -76 24t-27 68q0 51 38 79t105 28t104.5 -28t37.5 -79q0 -44 -26.5 -68t-74.5 -24v-2zM102 216q0 -38 23 -59t65 -21t65 21t23 59t-23 59
t-65 21t-65 -21t-23 -59zM190 -72q48 0 74.5 22.5t26.5 63.5q0 42 -26.5 64t-74.5 22t-75 -22t-27 -64q0 -41 27 -63.5t75 -22.5z" />
    <glyph glyph-name="uni2089" unicode="&#x2089;" horiz-adv-x="382" 
d="M189 340q81 0 119.5 -54.5t38.5 -160.5q0 -114 -44 -177.5t-123 -63.5q-61 0 -97.5 37.5t-41.5 104.5h51q4 -46 27 -72t61 -26q54 0 84 51t30 142v49h-2q0 -52 -33 -81t-93 -29q-64 0 -99.5 35t-35.5 98q0 69 43 108t115 39zM189 104q48 0 75 23t27 65q0 49 -28.5 76.5
t-73.5 27.5q-49 0 -76.5 -26t-27.5 -73q0 -45 27.5 -69t76.5 -24z" />
    <glyph glyph-name="Euro" unicode="&#x20ac;" horiz-adv-x="637" 
d="M605 71q-43 -38 -101 -59.5t-112 -21.5q-124 0 -198.5 79.5t-90.5 225.5h-66v41h63q-1 8 -1 16.5v17.5v20.5t1 19.5h-63v41h67q17 143 91.5 221t196.5 78q53 0 105.5 -15t91.5 -44l-29 -48q-34 26 -79 38.5t-89 12.5q-93 0 -151 -63t-73 -179h288l-23 -42h-269
q-1 -10 -1 -19.5v-20.5v-16.5t1 -16.5h229l-23 -42h-203q14 -119 72.5 -184t152.5 -65q44 0 94 17t91 55z" />
    <glyph glyph-name="trademark" unicode="&#x2122;" horiz-adv-x="673" 
d="M30 770h217v-29h-90v-267h-36v267h-91v29zM598 474h-35l-9 291h-2l-83 -291h-64l-79 291h-2l-9 -291h-33l9 296h69l77 -291h2l81 291h69z" />
    <glyph glyph-name="oneeighth" unicode="&#x215b;" horiz-adv-x="786" 
d="M121 731q0 -39 -21.5 -61t-60.5 -22v45q40 0 62 15.5t22 43.5h53v-444h-53v423h-2zM568 726l-474 -736l-32 24l474 736zM629 249q55 -8 85.5 -40.5t30.5 -84.5q0 -61 -41 -95.5t-116 -34.5q-74 0 -115.5 34.5t-41.5 95.5q0 52 30.5 84t86.5 41v2q-49 0 -76 24t-27 68
q0 51 38 79t105 28t104.5 -28t37.5 -79q0 -44 -26.5 -68t-74.5 -24v-2zM500 326q0 -38 23 -59t65 -21t65 21t23 59t-23 59t-65 21t-65 -21t-23 -59zM588 38q48 0 74.5 22.5t26.5 63.5q0 42 -26.5 64t-74.5 22t-75 -22t-27 -64q0 -41 27 -63.5t75 -22.5z" />
    <glyph glyph-name="threeeighths" unicode="&#x215c;" horiz-adv-x="924" 
d="M342 431q0 -61 -41 -95t-114 -34q-67 0 -105.5 37.5t-42.5 106.5h51q2 -48 27 -74.5t70 -26.5q48 0 74 22.5t26 63.5q0 40 -27 62.5t-77 22.5h-12v41q49 6 76 28t27 55q0 35 -22.5 55t-64.5 20q-40 0 -63.5 -27t-25.5 -75h-51q5 69 42.5 107t103.5 38q65 0 100.5 -27
t35.5 -75q0 -47 -37.5 -72.5t-104.5 -25.5v-2h1q72 0 113 -33t41 -92zM706 726l-474 -736l-32 24l474 736zM767 249q55 -8 85.5 -40.5t30.5 -84.5q0 -61 -41 -95.5t-116 -34.5q-74 0 -115.5 34.5t-41.5 95.5q0 52 30.5 84t86.5 41v2q-49 0 -76 24t-27 68q0 51 38 79t105 28
t104.5 -28t37.5 -79q0 -44 -26.5 -68t-74.5 -24v-2zM638 326q0 -38 23 -59t65 -21t65 21t23 59t-23 59t-65 21t-65 -21t-23 -59zM726 38q48 0 74.5 22.5t26.5 63.5q0 42 -26.5 64t-74.5 22t-75 -22t-27 -64q0 -41 27 -63.5t75 -22.5z" />
    <glyph glyph-name="fiveeighths" unicode="&#x215d;" horiz-adv-x="930" 
d="M349 455q0 -72 -41 -112.5t-115 -40.5q-65 0 -105 34.5t-48 94.5h52q7 -39 33 -62t67 -23q48 0 75.5 28t27.5 78q0 51 -26.5 79t-74.5 28q-40 0 -64 -21t-35 -54l-51 7l35 261h236v-43h-189l-32 -214h2q8 51 40 78.5t82 27.5q62 0 96.5 -38.5t34.5 -107.5zM712 726
l-474 -736l-32 24l474 736zM773 249q55 -8 85.5 -40.5t30.5 -84.5q0 -61 -41 -95.5t-116 -34.5q-74 0 -115.5 34.5t-41.5 95.5q0 52 30.5 84t86.5 41v2q-49 0 -76 24t-27 68q0 51 38 79t105 28t104.5 -28t37.5 -79q0 -44 -26.5 -68t-74.5 -24v-2zM644 326q0 -38 23 -59
t65 -21t65 21t23 59t-23 59t-65 21t-65 -21t-23 -59zM732 38q48 0 74.5 22.5t26.5 63.5q0 42 -26.5 64t-74.5 22t-75 -22t-27 -64q0 -41 27 -63.5t75 -22.5z" />
    <glyph glyph-name="seveneighths" unicode="&#x215e;" horiz-adv-x="905" 
d="M126 350q0 78 12 141.5t35.5 109t56.5 73t75 33.5v2h-278v43h302v-40q-35 -9 -62 -37.5t-46 -74t-29 -106.5t-10 -135v-51h-56v42zM680 726l-474 -736l-32 24l474 736zM741 249q55 -8 85.5 -40.5t30.5 -84.5q0 -61 -41 -95.5t-116 -34.5q-74 0 -115.5 34.5t-41.5 95.5
q0 52 30.5 84t86.5 41v2q-49 0 -76 24t-27 68q0 51 38 79t105 28t104.5 -28t37.5 -79q0 -44 -26.5 -68t-74.5 -24v-2zM612 326q0 -38 23 -59t65 -21t65 21t23 59t-23 59t-65 21t-65 -21t-23 -59zM700 38q48 0 74.5 22.5t26.5 63.5q0 42 -26.5 64t-74.5 22t-75 -22t-27 -64
q0 -41 27 -63.5t75 -22.5z" />
    <glyph glyph-name="partialdiff" unicode="&#x2202;" horiz-adv-x="640" 
d="M315 750q64 0 114 -26t84.5 -74.5t53 -119t18.5 -159.5q0 -90 -22 -160.5t-63.5 -119.5t-102 -75t-136.5 -26q-106 0 -164 44.5t-58 125.5q0 50 32.5 89.5t94.5 67t151.5 42t203.5 14.5q0 152 -55 236.5t-155 84.5q-76 0 -122.5 -37.5t-54.5 -105.5h-63q11 94 75 146.5
t169 52.5zM262 46q61 0 109 22t81.5 64t51 102t17.5 137q-98 0 -175.5 -14t-131.5 -40t-82.5 -64t-28.5 -86q0 -57 42 -89t117 -32z" />
    <glyph glyph-name="emptyset" unicode="&#x2205;" horiz-adv-x="635" 
d="M523 426q54 -66 54 -174q0 -124 -68 -192.5t-191 -68.5q-106 0 -173 52l-39 -40l-33 32l39 40q-55 67 -55 177q0 122 68.5 190t192.5 68q105 0 171 -51l39 40l34 -33zM103 252q0 -45 11 -80.5t31 -63.5l313 319q-56 42 -140 42q-102 0 -158.5 -57t-56.5 -160zM318 33
q101 0 157.5 57.5t56.5 161.5q0 87 -41 142l-314 -319q56 -42 141 -42z" />
    <glyph glyph-name="product" unicode="&#x220f;" horiz-adv-x="822" 
d="M798 716h-143v-946h-60v946h-368v-946h-60v946h-143v54h774v-54z" />
    <glyph glyph-name="summation" unicode="&#x2211;" horiz-adv-x="639" 
d="M611 -176v-54h-573v121l451 407v2l-440 349v121h542v-54l-532 1v-2l440 -344v-144l-450 -402v-2z" />
    <glyph glyph-name="minus" unicode="&#x2212;" horiz-adv-x="516" 
d="M73 271h370v-38h-370v38z" />
    <glyph glyph-name="radical" unicode="&#x221a;" horiz-adv-x="632" 
d="M630 770l-288 -880h-119l-104 351h-109v54h161l110 -400h2l277 875h70z" />
    <glyph glyph-name="infinity" unicode="&#x221e;" horiz-adv-x="807" 
d="M565 444q88 0 136 -50.5t48 -142.5t-48 -142.5t-136 -50.5q-61 0 -102.5 28t-58.5 81q-18 -53 -59.5 -81t-102.5 -28q-88 0 -136 50.5t-48 142.5t48 142.5t136 50.5q61 0 102.5 -28t59.5 -81q17 53 58.5 81t102.5 28zM242 97q66 0 102.5 40.5t36.5 113.5t-36.5 113.5
t-102.5 40.5t-102.5 -40.5t-36.5 -113.5t36.5 -113.5t102.5 -40.5zM565 97q66 0 102.5 40.5t36.5 113.5t-36.5 113.5t-102.5 40.5t-102.5 -40.5t-36.5 -113.5t36.5 -113.5t102.5 -40.5z" />
    <glyph glyph-name="integral" unicode="&#x222b;" horiz-adv-x="454" 
d="M197 602q0 85 44 131.5t124 46.5q57 0 99 -20l-14 -47q-20 8 -40 12t-44 4q-54 0 -81.5 -32.5t-27.5 -90.5v-668q0 -85 -44.5 -131.5t-123.5 -46.5q-57 0 -99 20l14 47q20 -8 40 -12t44 -4q54 0 81.5 32.5t27.5 90.5v668v0z" />
    <glyph glyph-name="approxequal" unicode="&#x2248;" horiz-adv-x="598" 
d="M412 276q-42 0 -70.5 11.5t-52 25.5t-47.5 25.5t-58 11.5q-32 0 -51.5 -21t-22.5 -57h-37q1 56 30.5 87t83.5 31q42 0 70.5 -11.5t52 -25.5t47.5 -25.5t58 -11.5q32 0 51.5 21t22.5 57h36q0 -56 -29.5 -87t-83.5 -31zM412 110q-42 0 -70.5 11.5t-52 25.5t-47.5 25.5
t-58 11.5q-32 0 -51.5 -21t-22.5 -57h-37q1 56 30.5 87t83.5 31q42 0 70.5 -11.5t52 -25.5t47.5 -25.5t58 -11.5q32 0 51.5 21t22.5 57h36q0 -56 -29.5 -87t-83.5 -31z" />
    <glyph glyph-name="notequal" unicode="&#x2260;" horiz-adv-x="516" 
d="M294 298l-27 -92h176v-38h-187l-49 -168h-41l48 168h-141v38h152l27 92h-179v38h190l45 156h42l-45 -156h138v-38h-149z" />
    <glyph glyph-name="lessequal" unicode="&#x2264;" horiz-adv-x="506" 
d="M72 318v-2l364 -134v-42l-370 141v74l370 142v-42zM66 43h370v-38h-370v38z" />
    <glyph glyph-name="greaterequal" unicode="&#x2265;" horiz-adv-x="506" 
d="M440 355v-74l-370 -141v42l364 134v2l-364 137v42zM70 43h370v-38h-370v38z" />
    <glyph glyph-name="lozenge" unicode="&#x25ca;" horiz-adv-x="502" 
d="M448 301v-110l-149 -191h-96l-149 191v110l149 191h96zM442 247l-190 241h-2l-190 -241v-2l190 -241h2l190 241v2z" />
    <glyph glyph-name="uniF8FF" unicode="&#xf8ff;" horiz-adv-x="1274" 
d="M846 -3q-7 -7 -17 -7q-14 0 -17 7.5t-3 15.5v324l-339 -340q-7 -7 -17 -7q-14 0 -17 7.5t-3 15.5v324l-340 -340q-7 -7 -17 -7q-8 0 -12.5 5t-4.5 13q0 10 5 15l342 341h-324q-8 0 -15.5 3t-7.5 16q0 5 2 8.5t5 7.5l340 342h-327q-20 0 -20 19v1q0 19 20 19h370
q8 0 15.5 -3t7.5 -17q0 -10 -8 -17l-341 -340h330q8 0 14 -6t6 -14v-327l339 338q7 8 17 8q13 0 15.5 -7.5t2.5 -14.5v-324l340 338q6 8 16 8q8 0 12.5 -5.5t4.5 -13.5q0 -3 -1 -7t-5 -7z" />
    <glyph glyph-name="Jacute" horiz-adv-x="542" 
d="M547 928l-166 -84l-20 36l164 88zM386 206v534h63v-529q0 -104 -54.5 -162.5t-151.5 -58.5q-93 0 -149.5 65.5t-64.5 183.5h59q8 -91 49 -142t107 -51q67 0 104.5 42.5t37.5 117.5z" />
    <glyph glyph-name="i.loclTRK" horiz-adv-x="226" 
d="M83 704h60v-96h-60v96zM143 492v-492h-60v492h60z" />
    <glyph glyph-name="jacute" horiz-adv-x="226" 
d="M244 680l-166 -84l-20 36l164 88zM143 492v-722h-60v722h60z" />
    <glyph glyph-name="f_b" horiz-adv-x="957" 
d="M102 624q0 74 44 115t124 41q48 0 86 -18l-9 -48q-32 15 -67 15q-60 0 -89 -29t-29 -82v-126h181v-48h-176v-444h-60v444h-81v48h132v2q-26 23 -41 57t-15 73zM689 502q102 0 158.5 -67.5t56.5 -188.5t-56.5 -188.5t-158.5 -67.5q-87 0 -135.5 44.5t-48.5 123.5h-2v-158
h-60v770h60v-436h2q0 79 48.5 123.5t135.5 44.5zM670 41q82 0 127.5 54t45.5 151t-45.5 151.5t-127.5 54.5t-127.5 -54.5t-45.5 -151.5q0 -96 45.5 -150.5t127.5 -54.5z" />
    <glyph glyph-name="f_f_j" horiz-adv-x="882" 
d="M799 492v-722h-60v674h-262v-444h-60v444h-250v-444h-60v444h-81v48h132v2q-26 23 -41 57t-15 73q0 74 44 115t124 41q48 0 86 -18l-9 -48q-32 15 -67 15q-60 0 -89 -29t-29 -82v-126h306v2q-26 23 -41 57t-15 73q0 74 44 115t124 41q48 0 86 -18l-9 -48q-32 15 -67 15
q-60 0 -89 -29t-29 -82v-126h327zM799 704v-96h-60v96h60z" />
    <glyph glyph-name="f_f_t" horiz-adv-x="993" 
d="M796 444v-309q0 -45 25 -69.5t70 -24.5q39 0 73 16v-48q-40 -19 -91 -19q-65 0 -101 38t-36 106v310h-259v-444h-60v444h-250v-444h-60v444h-81v48h132v2q-26 23 -41 57t-15 73q0 74 44 115t124 41q48 0 86 -18l-9 -48q-32 15 -67 15q-60 0 -89 -29t-29 -82v-126h306v2
q-26 23 -41 57t-15 73q0 74 44 115t124 41q48 0 86 -18l-9 -48q-32 15 -67 15q-60 0 -89 -29t-29 -82v-126h269v174h60v-42q0 -39 -15 -73t-41 -57v-2h226v-48h-175z" />
    <glyph glyph-name="f_h" horiz-adv-x="935" 
d="M102 624q0 74 44 115t124 41q48 0 86 -18l-9 -48q-32 15 -67 15q-60 0 -89 -29t-29 -82v-126h181v-48h-176v-444h-60v444h-81v48h132v2q-26 23 -41 57t-15 73zM678 502q85 0 132.5 -51t47.5 -142v-309h-60v308q0 69 -36.5 106.5t-102.5 37.5q-73 0 -114 -47.5t-41 -134.5
v-270h-60v770h60v-445h2q0 85 45.5 131t126.5 46z" />
    <glyph glyph-name="f_iacute" horiz-adv-x="572" 
d="M489 492v-492h-60v444h-262v-444h-60v444h-81v48h132v2q-26 23 -41 57t-15 73q0 74 44 115t124 41q48 0 86 -18l-9 -48q-32 15 -67 15q-60 0 -89 -29t-29 -82v-126h327zM424 596l-20 36l164 88l22 -40z" />
    <glyph glyph-name="f_j" horiz-adv-x="572" 
d="M489 492v-722h-60v674h-262v-444h-60v444h-81v48h132v2q-26 23 -41 57t-15 73q0 74 44 115t124 41q48 0 86 -18l-9 -48q-32 15 -67 15q-60 0 -89 -29t-29 -82v-126h327zM489 704v-96h-60v96h60z" />
    <glyph glyph-name="f_k" horiz-adv-x="898" 
d="M102 624q0 74 44 115t124 41q48 0 86 -18l-9 -48q-32 15 -67 15q-60 0 -89 -29t-29 -82v-126h181v-48h-176v-444h-60v444h-81v48h132v2q-26 23 -41 57t-15 73zM891 0h-85l-300 252h-2v-252h-60v770h60v-510h2l284 232h83l-292 -235z" />
    <glyph glyph-name="f_t" horiz-adv-x="683" 
d="M486 444v-309q0 -45 25 -69.5t70 -24.5q39 0 73 16v-48q-40 -19 -91 -19q-65 0 -101 38t-36 106v310h-259v-444h-60v444h-81v48h132v2q-26 23 -41 57t-15 73q0 74 44 115t124 41q48 0 86 -18l-9 -48q-32 15 -67 15q-60 0 -89 -29t-29 -82v-126h269v174h60v-42
q0 -39 -15 -73t-41 -57v-2h226v-48h-175z" />
    <glyph glyph-name="t_t" horiz-adv-x="699" 
d="M502 135q0 -45 25 -69.5t70 -24.5q39 0 73 16v-48q-40 -19 -91 -19q-65 0 -101 38t-36 106v310h-275v-309q0 -45 25 -69.5t70 -24.5q39 0 73 16v-48q-40 -19 -91 -19q-65 0 -101 38t-36 106v310h-84v48h89v174h60v-42q0 -39 -15 -73t-41 -57v-2h331v174h60v-42
q0 -39 -15 -73t-41 -57v-2h226v-48h-175v-309z" />
    <glyph glyph-name="zero.lf" horiz-adv-x="640" 
d="M320 -10q-62 0 -110 26t-81.5 74.5t-51 119t-17.5 160.5t17.5 160.5t51 119t81.5 74.5t110 26q61 0 109.5 -26t82 -74.5t51 -119t17.5 -160.5t-17.5 -160.5t-51 -119t-82 -74.5t-109.5 -26zM320 46q93 0 144.5 85t51.5 239t-51.5 239t-144.5 85t-144.5 -85t-51.5 -239
t51.5 -239t144.5 -85z" />
    <glyph glyph-name="one.lf" horiz-adv-x="326" 
d="M226 740v-740h-62v710h-2q0 -56 -35.5 -87t-99.5 -31v56q65 0 101 24t36 68h62z" />
    <glyph glyph-name="two.lf" horiz-adv-x="592" 
d="M544 54v-54h-499v49q98 25 175 68t130 101.5t81 130.5t28 154q0 91 -44 141t-123 50t-125.5 -55t-51.5 -155h-61q5 126 68 196t171 70q110 0 171 -65t61 -183q0 -88 -29.5 -162t-85.5 -131t-137 -96t-184 -57v-2h455z" />
    <glyph glyph-name="three.lf" horiz-adv-x="594" 
d="M284 406q120 0 186.5 -54.5t66.5 -151.5q0 -100 -65.5 -155t-183.5 -55q-109 0 -171.5 63t-66.5 175h60q4 -87 50.5 -135.5t127.5 -48.5q88 0 136.5 41t48.5 115q0 73 -50 113.5t-141 40.5h-22v54q91 12 141 52t50 101q0 64 -43 99.5t-120 35.5q-74 0 -117.5 -49
t-47.5 -137h-60q5 113 66.5 176.5t166.5 63.5q104 0 161.5 -46t57.5 -127q0 -80 -61 -124.5t-172 -44.5v-2h2v0z" />
    <glyph glyph-name="four.lf" horiz-adv-x="580" 
d="M547 200h-96v-200h-63v200h-362v59l305 481h120v-486h96v-54zM89 256v-2h300v479h-2z" />
    <glyph glyph-name="five.lf" horiz-adv-x="595" 
d="M297 -10q-103 0 -168 56t-77 156h62q11 -73 59.5 -114.5t123.5 -41.5q89 0 138 51t49 144q0 92 -48.5 143t-136.5 51q-37 0 -66.5 -10.5t-52 -29t-38 -44t-24.5 -56.5l-61 8l57 437h379v-54h-321l-53 -372h2q14 82 67 128t135 46q107 0 166.5 -64.5t59.5 -181.5
q0 -119 -66 -185.5t-186 -66.5z" />
    <glyph glyph-name="six.lf" horiz-adv-x="623" 
d="M339 476q109 0 169 -61.5t60 -173.5q0 -59 -18 -106t-51 -79t-78.5 -49t-100.5 -17q-133 0 -196.5 87t-63.5 266q0 96 18.5 171.5t53 128t84.5 80t113 27.5q99 0 157.5 -56.5t64.5 -157.5h-62q-5 75 -47 116.5t-113 41.5q-48 0 -86.5 -23t-64.5 -67t-40 -107.5
t-14 -144.5v-71h2q0 92 56 143.5t157 51.5zM316 46q89 0 138.5 50.5t49.5 142.5q0 87 -49.5 134.5t-138.5 47.5q-88 0 -137 -45.5t-49 -128.5q0 -47 14 -84t38.5 -63t58.5 -40t75 -14z" />
    <glyph glyph-name="seven.lf" horiz-adv-x="526" 
d="M508 740v-49q-60 -14 -107 -61.5t-79.5 -124.5t-49.5 -181.5t-17 -231.5v-92h-67v80q0 130 19 236t55.5 184t89 125t118.5 59v2h-455v54h493z" />
    <glyph glyph-name="eight.lf" horiz-adv-x="619" 
d="M382 406q87 -15 133.5 -67.5t46.5 -136.5q0 -100 -66.5 -156t-185.5 -56q-120 0 -186.5 56t-66.5 156q0 84 47 136.5t133 67.5v2q-74 0 -115 42t-41 117q0 86 60 134.5t169 48.5q108 0 168 -48.5t60 -134.5q0 -75 -41 -117t-115 -42v-2zM145 549q0 -71 43.5 -110
t121.5 -39t121 39t43 110q0 69 -43 107t-121 38t-121.5 -38t-43.5 -107zM310 46q89 0 138.5 41t49.5 115t-49.5 115t-138.5 41t-139 -41t-50 -115t50 -115t139 -41z" />
    <glyph glyph-name="nine.lf" horiz-adv-x="622" 
d="M306 750q134 0 195 -89.5t61 -263.5q0 -96 -18.5 -171.5t-53 -128t-84.5 -80t-114 -27.5q-98 0 -156.5 62t-65.5 172h62q6 -85 48 -131.5t112 -46.5q48 0 86.5 23t65 67t40.5 107.5t14 144.5v81h-2q0 -88 -56 -136.5t-157 -48.5q-109 0 -169.5 59t-60.5 166
q0 57 18.5 102t52 75.5t80 47t102.5 16.5zM306 339q88 0 137 43t49 121q0 44 -14 79.5t-39 60t-59 38t-74 13.5q-89 0 -138.5 -47.5t-49.5 -135.5q0 -82 49.5 -127t138.5 -45z" />
    <glyph glyph-name="zero.osf" horiz-adv-x="627" 
d="M313 -10q-121 0 -187.5 76.5t-66.5 214.5t66.5 214.5t187.5 76.5t188 -76.5t67 -214.5t-67 -214.5t-188 -76.5zM313 41q92 0 143 63t51 177t-51 177.5t-143 63.5q-91 0 -142 -63.5t-51 -177.5t51 -177t142 -63z" />
    <glyph glyph-name="one.osf" horiz-adv-x="320" 
d="M225 562v-562h-60v532h-2q0 -54 -34 -83.5t-96 -29.5v51q63 0 97.5 24.5t34.5 67.5h60z" />
    <glyph glyph-name="two.osf" horiz-adv-x="581" 
d="M533 48v-48h-485v44q95 30 170.5 68.5t127.5 82t79.5 92t27.5 98.5q0 65 -43.5 101t-122.5 36q-77 0 -122 -41.5t-50 -117.5h-58q5 100 65.5 154.5t165.5 54.5q107 0 166.5 -49t59.5 -138q0 -58 -29.5 -110t-85 -95t-135.5 -76t-182 -54v-2h451z" />
    <glyph glyph-name="three.osf" horiz-adv-x="582" 
d="M276 264q118 0 184.5 -50t66.5 -140q0 -91 -66 -142.5t-184 -51.5q-106 0 -166.5 57t-64.5 160h57q4 -78 49.5 -122.5t124.5 -44.5q90 0 139.5 37.5t49.5 106.5t-50 107.5t-141 38.5h-22v46q91 8 141 44.5t50 93.5q0 56 -43 87t-120 31q-73 0 -116.5 -43.5t-48.5 -120.5
h-57q6 101 65 157.5t159 56.5q106 0 164 -42t58 -117q0 -70 -60 -108.5t-169 -38.5v-2v0z" />
    <glyph glyph-name="four.osf" horiz-adv-x="566" 
d="M538 0h-96v-110h-60v110h-354v55l297 508h117v-515h96v-48zM90 50v-2h293v508h-2z" />
    <glyph glyph-name="five.osf" horiz-adv-x="600" 
d="M297 -120q-105 0 -169.5 49.5t-77.5 139.5h59q12 -65 62 -101.5t126 -36.5q91 0 141.5 48t50.5 135q0 85 -49 132t-138 47q-78 0 -123.5 -35t-65.5 -90l-58 8l57 386h394v-48h-340l-52 -330h2q15 75 69.5 116.5t135.5 41.5q109 0 169 -60t60 -168q0 -111 -66 -172.5
t-187 -61.5z" />
    <glyph glyph-name="six.osf" horiz-adv-x="629" 
d="M343 461q111 0 172.5 -61t61.5 -171q0 -57 -18.5 -101t-51.5 -75t-79.5 -47t-102.5 -16q-140 0 -203.5 85t-63.5 267q0 91 18.5 163.5t54 122t86.5 76t116 26.5q101 0 160.5 -53.5t66.5 -150.5h-58q-6 72 -50 112.5t-119 40.5q-50 0 -90 -23t-67.5 -66t-42 -106
t-14.5 -142v-74h2q0 92 59 142.5t163 50.5zM321 41q92 0 143.5 48.5t51.5 137.5q0 88 -51.5 136.5t-143.5 48.5q-93 0 -144.5 -46.5t-51.5 -129.5q0 -45 14.5 -81.5t40.5 -61.5t62 -38.5t79 -13.5z" />
    <glyph glyph-name="seven.osf" horiz-adv-x="535" 
d="M503 562v-44q-62 -17 -111 -68t-82.5 -131.5t-51.5 -189t-18 -239.5h-66q0 132 20 240t58 188t93 129.5t125 64.5v2h-440v48h473z" />
    <glyph glyph-name="eight.osf" horiz-adv-x="627" 
d="M381 394q91 -14 141.5 -65t50.5 -132q0 -98 -68.5 -152.5t-191.5 -54.5q-122 0 -190.5 54.5t-68.5 152.5q0 81 50 132t142 65v2q-80 0 -124 40t-44 113q0 85 62 133t173 48q112 0 174 -48t62 -133q0 -73 -44.5 -113t-123.5 -40v-2zM139 534q0 -69 46 -106.5t128 -37.5
t128 37.5t46 106.5t-46 107t-128 38t-128 -38t-46 -107zM313 41q94 0 146 41t52 115q0 73 -52 113.5t-146 40.5t-146 -40.5t-52 -113.5q0 -74 52 -115t146 -41z" />
    <glyph glyph-name="nine.osf" horiz-adv-x="629" 
d="M303 572q140 0 203.5 -80.5t63.5 -251.5q0 -85 -18.5 -151.5t-54 -113t-86.5 -71t-116 -24.5q-101 0 -161 48.5t-66 136.5h58q5 -63 49.5 -98.5t119.5 -35.5q50 0 90 21.5t67.5 62.5t42 100t14.5 134v55h-2q0 -88 -59 -135.5t-163 -47.5q-112 0 -173 58t-61 164
q0 54 18.5 97t51.5 72t79.5 44.5t102.5 15.5zM307 170q92 0 144 44t52 122q0 43 -14.5 77.5t-40.5 58.5t-62 36.5t-79 12.5q-92 0 -144 -45.5t-52 -130.5q0 -83 52 -129t144 -46z" />
    <glyph glyph-name="zero.dnom" horiz-adv-x="392" 
d="M196 -6q-76 0 -119 60t-43 168t43 168t119 60t118.5 -60t42.5 -168t-42.5 -168t-118.5 -60zM196 38q51 0 79 48.5t28 135.5t-28 135.5t-79 48.5t-79 -48.5t-28 -135.5t28 -135.5t79 -48.5z" />
    <glyph glyph-name="one.dnom" horiz-adv-x="218" 
d="M155 444v-444h-53v423h-2q0 -39 -21.5 -61t-60.5 -22v45q40 0 62 15.5t22 43.5h53z" />
    <glyph glyph-name="two.dnom" horiz-adv-x="366" 
d="M337 43v-43h-308v40q115 32 178 101t63 161q0 48 -23.5 76t-65.5 28t-67.5 -31t-27.5 -86h-52q4 76 42.5 118.5t105.5 42.5q69 0 106.5 -39t37.5 -110q0 -103 -71.5 -170t-200.5 -86v-2h283z" />
    <glyph glyph-name="three.dnom" horiz-adv-x="364" 
d="M178 248q72 0 113 -33t41 -92q0 -61 -41 -95t-114 -34q-67 0 -105.5 37.5t-42.5 106.5h51q2 -48 27 -74.5t70 -26.5q48 0 74 22.5t26 63.5q0 40 -27 62.5t-77 22.5h-12v41q49 6 76 28t27 55q0 35 -22.5 55t-64.5 20q-40 0 -63.5 -27t-25.5 -75h-51q5 69 42.5 107
t103.5 38q65 0 100.5 -27t35.5 -75q0 -47 -37.5 -72.5t-104.5 -25.5v-2h1v0z" />
    <glyph glyph-name="four.dnom" horiz-adv-x="366" 
d="M344 114h-58v-114h-53v114h-214v48l167 282h100v-287h58v-43zM69 159v-2h165v281h-2z" />
    <glyph glyph-name="five.dnom" horiz-adv-x="366" 
d="M183 -6q-65 0 -105 34.5t-48 94.5h52q7 -39 33 -62t67 -23q48 0 75.5 28t27.5 78q0 51 -26.5 79t-74.5 28q-40 0 -64 -21t-35 -54l-51 7l35 261h236v-43h-189l-32 -214h2q8 51 40 78.5t82 27.5q62 0 96.5 -38.5t34.5 -107.5q0 -72 -41 -112.5t-115 -40.5z" />
    <glyph glyph-name="six.dnom" horiz-adv-x="382" 
d="M216 286q65 0 100 -36.5t35 -102.5q0 -72 -42.5 -112.5t-113.5 -40.5q-161 0 -161 215q0 114 44.5 177.5t123.5 63.5q61 0 97.5 -34t41.5 -96h-52q-4 41 -26.5 63.5t-60.5 22.5q-54 0 -84.5 -51t-30.5 -142v-43h2q0 54 33.5 85t93.5 31zM193 38q49 0 76.5 28t27.5 77
q0 48 -27.5 73.5t-76.5 25.5q-48 0 -75 -24.5t-27 -69.5q0 -51 28.5 -80.5t73.5 -29.5z" />
    <glyph glyph-name="seven.dnom" horiz-adv-x="327" 
d="M314 444v-40q-35 -9 -62 -37.5t-46 -74t-29 -106.5t-10 -135v-51h-56v42q0 78 12 141.5t35.5 109t56.5 73t75 33.5v2h-278v43h302z" />
    <glyph glyph-name="eight.dnom" horiz-adv-x="379" 
d="M231 249q55 -8 85.5 -40.5t30.5 -84.5q0 -61 -41 -95.5t-116 -34.5q-74 0 -115.5 34.5t-41.5 95.5q0 52 30.5 84t86.5 41v2q-49 0 -76 24t-27 68q0 51 38 79t105 28t104.5 -28t37.5 -79q0 -44 -26.5 -68t-74.5 -24v-2zM102 326q0 -38 23 -59t65 -21t65 21t23 59t-23 59
t-65 21t-65 -21t-23 -59zM190 38q48 0 74.5 22.5t26.5 63.5q0 42 -26.5 64t-74.5 22t-75 -22t-27 -64q0 -41 27 -63.5t75 -22.5z" />
    <glyph glyph-name="nine.dnom" horiz-adv-x="382" 
d="M189 450q81 0 119.5 -54.5t38.5 -160.5q0 -114 -44 -177.5t-123 -63.5q-61 0 -97.5 37.5t-41.5 104.5h51q4 -46 27 -72t61 -26q54 0 84 51t30 142v49h-2q0 -52 -33 -81t-93 -29q-64 0 -99.5 35t-35.5 98q0 69 43 108t115 39zM189 214q48 0 75 23t27 65q0 49 -28.5 76.5
t-73.5 27.5q-49 0 -76.5 -26t-27.5 -73q0 -45 27.5 -69t76.5 -24z" />
    <glyph glyph-name="zero.numr" horiz-adv-x="392" 
d="M196 302q-76 0 -119 60t-43 168t43 168t119 60t118.5 -60t42.5 -168t-42.5 -168t-118.5 -60zM196 346q51 0 79 48.5t28 135.5t-28 135.5t-79 48.5t-79 -48.5t-28 -135.5t28 -135.5t79 -48.5z" />
    <glyph glyph-name="one.numr" horiz-adv-x="218" 
d="M155 752v-444h-53v423h-2q0 -39 -21.5 -61t-60.5 -22v45q40 0 62 15.5t22 43.5h53z" />
    <glyph glyph-name="two.numr" horiz-adv-x="366" 
d="M337 351v-43h-308v40q115 32 178 101t63 161q0 48 -23.5 76t-65.5 28t-67.5 -31t-27.5 -86h-52q4 76 42.5 118.5t105.5 42.5q69 0 106.5 -39t37.5 -110q0 -103 -71.5 -170t-200.5 -86v-2h283z" />
    <glyph glyph-name="three.numr" horiz-adv-x="364" 
d="M177 556q72 0 113 -33t41 -92q0 -61 -41 -95t-114 -34q-67 0 -105.5 37.5t-42.5 106.5h51q2 -48 27 -74.5t70 -26.5q48 0 74 22.5t26 63.5q0 40 -27 62.5t-77 22.5h-12v41q49 6 76 28t27 55q0 35 -22.5 55t-64.5 20q-40 0 -63.5 -27t-25.5 -75h-51q5 69 42.5 107
t103.5 38q65 0 100.5 -27t35.5 -75q0 -47 -37.5 -72.5t-104.5 -25.5v-2h1v0z" />
    <glyph glyph-name="four.numr" horiz-adv-x="366" 
d="M345 422h-58v-114h-53v114h-214v48l167 282h100v-287h58v-43zM70 467v-2h165v281h-2z" />
    <glyph glyph-name="five.numr" horiz-adv-x="366" 
d="M183 302q-65 0 -105 34.5t-48 94.5h52q7 -39 33 -62t67 -23q48 0 75.5 28t27.5 78q0 51 -26.5 79t-74.5 28q-40 0 -64 -21t-35 -54l-51 7l35 261h236v-43h-189l-32 -214h2q8 51 40 78.5t82 27.5q62 0 96.5 -38.5t34.5 -107.5q0 -72 -41 -112.5t-115 -40.5z" />
    <glyph glyph-name="six.numr" horiz-adv-x="382" 
d="M216 594q65 0 100 -36.5t35 -102.5q0 -72 -42.5 -112.5t-113.5 -40.5q-161 0 -161 215q0 114 44.5 177.5t123.5 63.5q61 0 97.5 -34t41.5 -96h-52q-4 41 -26.5 63.5t-60.5 22.5q-54 0 -84.5 -51t-30.5 -142v-43h2q0 54 33.5 85t93.5 31zM193 346q49 0 76.5 28t27.5 77
q0 48 -27.5 73.5t-76.5 25.5q-48 0 -75 -24.5t-27 -69.5q0 -51 28.5 -80.5t73.5 -29.5z" />
    <glyph glyph-name="seven.numr" horiz-adv-x="327" 
d="M315 752v-40q-35 -9 -62 -37.5t-46 -74t-29 -106.5t-10 -135v-51h-56v42q0 78 12 141.5t35.5 109t56.5 73t75 33.5v2h-278v43h302z" />
    <glyph glyph-name="eight.numr" horiz-adv-x="379" 
d="M231 557q55 -8 85.5 -40.5t30.5 -84.5q0 -61 -41 -95.5t-116 -34.5q-74 0 -115.5 34.5t-41.5 95.5q0 52 30.5 84t86.5 41v2q-49 0 -76 24t-27 68q0 51 38 79t105 28t104.5 -28t37.5 -79q0 -44 -26.5 -68t-74.5 -24v-2zM102 634q0 -38 23 -59t65 -21t65 21t23 59t-23 59
t-65 21t-65 -21t-23 -59zM190 346q48 0 74.5 22.5t26.5 63.5q0 42 -26.5 64t-74.5 22t-75 -22t-27 -64q0 -41 27 -63.5t75 -22.5z" />
    <glyph glyph-name="nine.numr" horiz-adv-x="382" 
d="M189 758q81 0 119.5 -54.5t38.5 -160.5q0 -114 -44 -177.5t-123 -63.5q-61 0 -97.5 37.5t-41.5 104.5h51q4 -46 27 -72t61 -26q54 0 84 51t30 142v49h-2q0 -52 -33 -81t-93 -29q-64 0 -99.5 35t-35.5 98q0 69 43 108t115 39zM189 522q48 0 75 23t27 65q0 49 -28.5 76.5
t-73.5 27.5q-49 0 -76.5 -26t-27.5 -73q0 -45 27.5 -69t76.5 -24z" />
    <glyph glyph-name="backslash.case" horiz-adv-x="363" 
d="M331 -17l-42 -13l-256 787l42 13z" />
    <glyph glyph-name="exclamdown.case" horiz-adv-x="259" 
d="M90 740h78v-74h-78v74zM156 563l5 -563h-64l5 563h54z" />
    <glyph glyph-name="questiondown.case" horiz-adv-x="532" 
d="M260 666v74h79v-74h-79zM501 226q-5 -112 -65 -174t-164 -62q-105 0 -163 55t-58 152q0 40 14.5 85.5t42 92.5t67.5 94.5t90 93.5h61v-2q-49 -48 -88 -96.5t-66 -95t-41.5 -90t-14.5 -80.5q0 -72 41.5 -112.5t115.5 -40.5q75 0 119 47.5t48 132.5h61z" />
    <glyph glyph-name="slash.case" horiz-adv-x="363" 
d="M330 757l-256 -787l-42 13l256 787z" />
    <glyph glyph-name="numbersign.osf" horiz-adv-x="599" 
d="M449 371l-19 -162h101l-4 -38h-101l-20 -171h-47l19 171h-188l-20 -171h-47l20 171h-104l4 38h105l19 162h-101l4 38h101l18 151h47l-18 -151h188l18 151h47l-18 -151h105l-4 -38h-105zM403 371h-190l-20 -162h191z" />
    <glyph glyph-name="braceleft.case" horiz-adv-x="279" 
d="M170 472q0 -38 -17 -63.5t-49 -38.5q32 -14 49 -39.5t17 -63.5v-213q0 -28 15.5 -45t41.5 -17v-42q-46 0 -74.5 26.5t-28.5 71.5v213q0 42 -22.5 64.5t-64.5 22.5v43q42 0 64.5 22.5t22.5 64.5v214q0 45 28.5 71.5t74.5 26.5v-42q-26 0 -41.5 -17t-15.5 -45v-214v0z" />
    <glyph glyph-name="braceright.case" horiz-adv-x="279" 
d="M155 478q0 -42 22.5 -64.5t64.5 -22.5v-43q-42 0 -64.5 -22.5t-22.5 -64.5v-213q0 -45 -28.5 -71.5t-74.5 -26.5v42q26 0 41.5 17t15.5 45v213q0 38 17 63.5t49 39.5q-32 13 -49 38.5t-17 63.5v214q0 28 -15.5 45t-41.5 17v42q46 0 74.5 -26.5t28.5 -71.5v-214v0z" />
    <glyph glyph-name="bracketleft.case" horiz-adv-x="313" 
d="M146 748v-756h137v-42h-183v840h183v-42h-137z" />
    <glyph glyph-name="bracketright.case" horiz-adv-x="313" 
d="M213 -50h-183v42h137v756h-137v42h183v-840z" />
    <glyph glyph-name="parenleft.case" horiz-adv-x="266" 
d="M231 -33l-36 -27q-74 105 -106 213t-32 217t32 217t106 213l36 -27q-69 -100 -98 -203t-29 -200t29 -200t98 -203z" />
    <glyph glyph-name="parenright.case" horiz-adv-x="266" 
d="M35 -33q69 100 98 203t29 200t-29 200t-98 203l36 27q74 -105 106 -213t32 -217t-32 -217t-106 -213z" />
    <glyph glyph-name="emdash.case" horiz-adv-x="861" 
d="M787 379v-38h-713v38h713z" />
    <glyph glyph-name="endash.case" horiz-adv-x="577" 
d="M503 379v-38h-429v38h429z" />
    <glyph glyph-name="hyphen.case" horiz-adv-x="400" 
d="M326 379v-38h-252v38h252z" />
    <glyph glyph-name="uni00AD.case" horiz-adv-x="400" 
d="M326 379v-38h-252v38h252z" />
    <glyph glyph-name="guillemotleft.case" horiz-adv-x="456" 
d="M180 553h49l-126 -193l126 -193h-49l-128 193zM335 553h49l-126 -193l126 -193h-49l-128 193z" />
    <glyph glyph-name="guillemotright.case" horiz-adv-x="456" 
d="M121 167h-49l126 193l-126 193h49l128 -193zM276 167h-49l126 193l-126 193h49l128 -193z" />
    <glyph glyph-name="guilsinglleft.case" horiz-adv-x="301" 
d="M180 553h49l-126 -193l126 -193h-49l-128 193z" />
    <glyph glyph-name="guilsinglright.case" horiz-adv-x="301" 
d="M121 167h-49l126 193l-126 193h49l128 -193z" />
    <glyph glyph-name="cent.osf" horiz-adv-x="545" 
d="M506 168q-16 -79 -66.5 -125t-131.5 -52v-101h-44v101q-100 6 -155.5 73t-55.5 182t55.5 182t155.5 73v93h44v-93q76 -6 126 -48t69 -115h-62q-16 48 -49.5 77.5t-83.5 35.5v-409q54 6 88.5 38.5t48.5 87.5h61zM114 246q0 -91 39 -144t111 -60v409q-72 -7 -111 -60.5
t-39 -144.5z" />
    <glyph glyph-name="dollar.osf" horiz-adv-x="540" 
d="M497 159q0 -75 -53.5 -118t-150.5 -48v-80h-44v80q-94 5 -148 55.5t-59 140.5h58q5 -65 43.5 -103t105.5 -43v228q-35 6 -69.5 13.5t-61.5 23t-43.5 41t-16.5 66.5q0 72 50 111.5t141 44.5v79h44v-80q85 -6 134 -54.5t54 -131.5h-58q-4 59 -38 94t-92 42v-204
q37 -6 73.5 -14t65.5 -24.5t47 -45t18 -73.5zM118 417q0 -24 10.5 -40t28.5 -26.5t41.5 -17t50.5 -10.5v197q-62 -3 -96.5 -30t-34.5 -73zM293 43q69 5 107 34t38 78q0 29 -11.5 48t-31.5 31t-46.5 18.5t-55.5 11.5v-221z" />
    <glyph glyph-name="Euro.osf" horiz-adv-x="550" 
d="M507 55q-35 -30 -82 -46.5t-91 -16.5q-103 0 -164 60t-75 171h-54v32h52q-1 7 -1 13.5v13.5v15t1 15h-52v33h55q14 109 75.5 167.5t162.5 58.5q43 0 85.5 -11.5t74.5 -33.5l-26 -44q-28 20 -63.5 29.5t-70.5 9.5q-73 0 -118.5 -45t-58.5 -130h230l-19 -34h-215
q-1 -8 -1 -15v-15v-13.5t1 -12.5h183l-18 -33h-162q12 -86 58 -133.5t120 -47.5q35 0 75 13.5t72 42.5z" />
    <glyph glyph-name="sterling.osf" horiz-adv-x="526" 
d="M478 49v-49h-424v46q53 35 72.5 78.5t19.5 85.5q0 16 -5 36h-79v38h65q-13 32 -27 65t-14 67q0 74 49 114.5t140 40.5q89 0 140 -48.5t56 -136.5h-57q-4 64 -40 99.5t-98 35.5q-61 0 -95 -27.5t-34 -78.5q0 -33 14.5 -66t28.5 -65h189v-38h-176q5 -18 5 -34
q0 -48 -30.5 -88.5t-108.5 -73.5v-1h409z" />
    <glyph glyph-name="yen.osf" horiz-adv-x="562" 
d="M346 212h117v-32h-133l-23 -45h156v-33h-173l-52 -102h-67l51 102h-117v33h134l22 45h-156v32h111l-180 350h71l175 -347h2l175 347h66z" />
    <glyph glyph-name="plus.case" horiz-adv-x="455" 
d="M413 333h-163v-166h-45v166h-162v38h162v166h45v-166h163v-38z" />
    <glyph glyph-name="minus.case" horiz-adv-x="516" 
d="M73 371h370v-38h-370v38z" />
    <glyph glyph-name="multiply.case" horiz-adv-x="477" 
d="M269 346l148 -148l-30 -30l-148 148l-149 -148l-30 30l148 148l-148 148l30 30l149 -148l148 148l30 -30z" />
    <glyph glyph-name="divide.case" horiz-adv-x="515" 
d="M257 461q-32 0 -32 31q0 32 32 32q34 0 34 -32q0 -31 -34 -31zM72 371h370v-38h-370v38zM257 180q-32 0 -32 30q0 33 32 33q34 0 34 -33q0 -30 -34 -30z" />
    <glyph glyph-name="equal.case" horiz-adv-x="516" 
d="M73 436h370v-38h-370v38zM73 306h370v-38h-370v38z" />
    <glyph glyph-name="notequal.case" horiz-adv-x="516" 
d="M294 398l-27 -92h176v-38h-187l-49 -168h-41l48 168h-141v38h152l27 92h-179v38h190l45 156h42l-45 -156h138v-38h-149z" />
    <glyph glyph-name="greater.case" horiz-adv-x="475" 
d="M433 390v-75l-365 -158v43l359 151v2l-359 153v43z" />
    <glyph glyph-name="less.case" horiz-adv-x="475" 
d="M49 353v-2l359 -151v-43l-365 158v75l365 159v-43z" />
    <glyph glyph-name="greaterequal.case" horiz-adv-x="534" 
d="M457 455v-74l-370 -141v42l364 134v2l-364 137v42zM87 143h370v-38h-370v38z" />
    <glyph glyph-name="lessequal.case" horiz-adv-x="534" 
d="M82 418v-2l364 -134v-42l-370 141v74l370 142v-42zM76 143h370v-38h-370v38z" />
    <glyph glyph-name="plusminus.case" horiz-adv-x="520" 
d="M444 432v-38h-162v-161h-45v161h-162v38h162v161h44v-161h163zM74 143h370v-38h-370v38z" />
    <glyph glyph-name="logicalnot.case" horiz-adv-x="513" 
d="M436 433v-163h-44v126h-326v37h370z" />
    <glyph glyph-name="percent.osf" horiz-adv-x="653" 
d="M168 261q-58 0 -90 41t-32 115q0 73 32 114t90 41q57 0 89 -41t32 -114q0 -74 -32 -115t-89 -41zM522 572l30 -21l-422 -561l-30 22zM168 301q34 0 53 30.5t19 85.5q0 54 -19 85t-53 31q-35 0 -54 -31t-19 -85q0 -55 19 -85.5t54 -30.5zM484 -10q-58 0 -89.5 41
t-31.5 114q0 74 31.5 115t89.5 41t90 -41t32 -115q0 -73 -32 -114t-90 -41zM484 30q35 0 54 30.5t19 84.5q0 55 -19 85.5t-54 30.5q-34 0 -53.5 -30.5t-19.5 -85.5q0 -54 19.5 -84.5t53.5 -30.5z" />
    <glyph glyph-name="perthousand.osf" horiz-adv-x="928" 
d="M168 261q-58 0 -90 41t-32 115q0 73 32 114t90 41q57 0 89 -41t32 -114q0 -74 -32 -115t-89 -41zM522 572l30 -21l-422 -561l-30 22zM168 301q34 0 53 30.5t19 85.5q0 54 -19 85t-53 31q-35 0 -54 -31t-19 -85q0 -55 19 -85.5t54 -30.5zM484 -10q-58 0 -89.5 41
t-31.5 114q0 74 31.5 115t89.5 41t90 -41t32 -115q0 -73 -32 -114t-90 -41zM769 -10q-57 0 -89 41t-32 114q0 74 32 115t89 41q58 0 90 -41t32 -115q0 -73 -32 -114t-90 -41zM484 30q35 0 54 30.5t19 84.5q0 55 -19 85.5t-54 30.5q-34 0 -53.5 -30.5t-19.5 -85.5
q0 -54 19.5 -84.5t53.5 -30.5zM769 30q35 0 54 30.5t19 84.5q0 55 -19 85.5t-54 30.5q-34 0 -53 -30.5t-19 -85.5q0 -54 19 -84.5t53 -30.5z" />
    </font>
</defs>
</svg>
