<?xml version="1.0" standalone="no"?>
<!DOCTYPE svg PUBLIC "-//W3C//DTD SVG 1.1//EN" "http://www.w3.org/Graphics/SVG/1.1/DTD/svg11.dtd" >
<svg xmlns="http://www.w3.org/2000/svg" xmlns:xlink="http://www.w3.org/1999/xlink" version="1.1">
<metadata>
Created by FontForge 20201107 at Fri Aug  4 06:24:54 2023
 By 
Copyright (c) 2017 by Alberto Romanos. All rights reserved.
</metadata>
<defs>
<font id="SVN-AlphaCreative-MediumItalic" horiz-adv-x="609" >
  <font-face 
    font-family="SVN-AlphaCreative Medium"
    font-weight="500"
    font-style="italic"
    font-stretch="normal"
    units-per-em="1000"
    panose-1="0 0 6 0 0 0 0 0 0 0"
    ascent="800"
    descent="-200"
    x-height="498"
    cap-height="740"
    bbox="-723 -240 1220 1103"
    underline-thickness="50"
    underline-position="-100"
    slope="-10"
    unicode-range="U+000D-FB02"
  />
<missing-glyph horiz-adv-x="1274" 
d="M846 -3q-7 -7 -17 -7q-14 0 -17 7.5t-3 15.5v324l-339 -340q-7 -7 -17 -7q-14 0 -17 7.5t-3 15.5v324l-340 -340q-7 -7 -17 -7q-8 0 -12.5 5t-4.5 13q0 10 5 15l342 341h-324q-8 0 -15.5 3t-7.5 16q0 5 2 8.5t5 7.5l340 342h-327q-20 0 -20 19v1q0 19 20 19h370
q8 0 15.5 -3t7.5 -17q0 -10 -8 -17l-341 -340h330q8 0 14 -6t6 -14v-327l339 338q7 8 17 8q13 0 15.5 -7.5t2.5 -14.5v-324l340 338q6 8 16 8q8 0 12.5 -5.5t4.5 -13.5q0 -3 -1 -7t-5 -7z" />
    <glyph glyph-name="fi" unicode="fi" horiz-adv-x="617" 
d="M589 498l-88 -498h-100l75 425h-244l-75 -425h-100l75 425h-78l12 73h167l1 2q-36 11 -56 37.5t-20 61.5q0 84 57 132.5t157 48.5q52 0 92 -19l-27 -76q-24 14 -57 14q-53 0 -84.5 -26.5t-39.5 -74.5l-17 -100h350zM627 715l-19 -113h-100l19 113h100z" />
    <glyph glyph-name="fl" unicode="fl" horiz-adv-x="621" 
d="M395 425h-163l-75 -425h-100l75 425h-78l12 73h167l1 2q-36 11 -56 37.5t-20 61.5q0 84 57 132.5t157 48.5q52 0 92 -19l-27 -76q-24 14 -57 14q-53 0 -84.5 -26.5t-39.5 -74.5l-17 -100h168zM641 770l-136 -770h-100l136 770h100z" />
    <glyph glyph-name="f_f" unicode="ff" horiz-adv-x="701" 
d="M707 699q-53 0 -84.5 -26.5t-39.5 -74.5l-17 -100h168l-12 -73h-163l-75 -425h-100l75 425h-227l-75 -425h-100l75 425h-78l12 73h167l1 2q-36 11 -56 37.5t-20 61.5q0 84 57 132.5t157 48.5q52 0 92 -19l-27 -76q-24 14 -57 14q-53 0 -84.5 -26.5t-39.5 -74.5l-17 -100
h321l1 2q-36 11 -56 37.5t-20 61.5q0 84 57 132.5t157 48.5q59 0 102 -23l-27 -76q-27 18 -67 18z" />
    <glyph glyph-name="f_f_i" unicode="ffi" horiz-adv-x="945" 
d="M917 498l-88 -498h-100l75 425h-244l-75 -425h-100l75 425h-228l-75 -425h-100l75 425h-78l12 73h167l1 2q-36 11 -56 37.5t-20 61.5q0 84 57 132.5t157 48.5q52 0 92 -19l-27 -76q-24 14 -57 14q-53 0 -84.5 -26.5t-39.5 -74.5l-17 -100h322l1 2q-36 11 -56 37.5
t-20 61.5q0 84 57 132.5t157 48.5q52 0 92 -19l-27 -76q-24 14 -57 14q-53 0 -84.5 -26.5t-39.5 -74.5l-17 -100h350zM955 715l-19 -113h-100l19 113h100z" />
    <glyph glyph-name="f_f_l" unicode="ffl" horiz-adv-x="949" 
d="M723 425h-163l-75 -425h-100l75 425h-228l-75 -425h-100l75 425h-78l12 73h167l1 2q-36 11 -56 37.5t-20 61.5q0 84 57 132.5t157 48.5q52 0 92 -19l-27 -76q-24 14 -57 14q-53 0 -84.5 -26.5t-39.5 -74.5l-17 -100h322l1 2q-36 11 -56 37.5t-20 61.5q0 84 57 132.5
t157 48.5q52 0 92 -19l-27 -76q-24 14 -57 14q-53 0 -84.5 -26.5t-39.5 -74.5l-17 -100h168zM969 770l-136 -770h-100l136 770h100z" />
    <glyph glyph-name=".notdef" horiz-adv-x="1274" 
d="M846 -3q-7 -7 -17 -7q-14 0 -17 7.5t-3 15.5v324l-339 -340q-7 -7 -17 -7q-14 0 -17 7.5t-3 15.5v324l-340 -340q-7 -7 -17 -7q-8 0 -12.5 5t-4.5 13q0 10 5 15l342 341h-324q-8 0 -15.5 3t-7.5 16q0 5 2 8.5t5 7.5l340 342h-327q-20 0 -20 19v1q0 19 20 19h370
q8 0 15.5 -3t7.5 -17q0 -10 -8 -17l-341 -340h330q8 0 14 -6t6 -14v-327l339 338q7 8 17 8q13 0 15.5 -7.5t2.5 -14.5v-324l340 338q6 8 16 8q8 0 12.5 -5.5t4.5 -13.5q0 -3 -1 -7t-5 -7z" />
    <glyph glyph-name=".null" horiz-adv-x="0" 
 />
    <glyph glyph-name="nonmarkingreturn" unicode="&#xd;" horiz-adv-x="230" 
 />
    <glyph glyph-name="space" unicode=" " horiz-adv-x="230" 
 />
    <glyph glyph-name="exclam" unicode="!" horiz-adv-x="271" 
d="M170 740h104l-99 -534h-94zM169 111l-20 -111h-116l19 111h117z" />
    <glyph glyph-name="quotedbl" unicode="&#x22;" horiz-adv-x="359" 
d="M243 770l-38 -213h-94l38 213h94zM392 770l-38 -213h-94l38 213h94z" />
    <glyph glyph-name="numbersign" unicode="#" horiz-adv-x="676" 
d="M554 505l-68 -246h128l-13 -42h-127l-60 -217h-48l61 217h-227l-61 -217h-48l61 217h-125l12 42h125l69 246h-124l13 42h123l54 193h48l-53 -193h225l52 193h48l-53 -193h131l-13 -42h-130zM507 505h-225l-70 -245h226z" />
    <glyph glyph-name="dollar" unicode="$" horiz-adv-x="664" 
d="M544 496q1 8 1 14.5v13.5q0 60 -30 95.5t-87 42.5l-42 -235q42 -7 84 -16t75.5 -27.5t55 -50t21.5 -82.5q0 -58 -22 -105t-62.5 -80.5t-98.5 -53t-130 -22.5l-18 -102h-47l18 103q-109 5 -167 63t-58 161q0 10 0.5 20t1.5 21h104q-1 -8 -1.5 -14.5t-0.5 -13.5
q0 -66 35.5 -105t100.5 -46l47 264q-40 7 -79 15.5t-70 26t-50 46t-19 75.5q0 55 20 99.5t57.5 76t91.5 49.5t121 21l18 100h47l-18 -101q100 -6 153 -62t53 -153v-18t-2 -20h-103zM215 528q0 -23 10 -38.5t27 -26t40 -17t49 -11.5l40 228q-78 -4 -122 -40t-44 -95zM512 227
q0 27 -11.5 45t-31 30t-45 19.5t-54.5 12.5l-46 -257q88 5 138 44.5t50 105.5z" />
    <glyph glyph-name="percent" unicode="%" horiz-adv-x="726" 
d="M678 750l29 -25l-613 -735l-29 25zM203 360q-57 0 -87 37t-30 103q0 51 13 93t37 72.5t58 47.5t75 17q57 0 87 -37t30 -103q0 -51 -13 -93t-37 -72.5t-57.5 -47.5t-75.5 -17zM215 422q21 0 38.5 13t29.5 35.5t18.5 52t6.5 62.5q0 39 -12.5 61t-37.5 22q-21 0 -38 -13
t-29.5 -35t-19 -51.5t-6.5 -63.5q0 -38 12.5 -60.5t37.5 -22.5zM498 -10q-57 0 -87 37t-30 103q0 51 13 93t37 72.5t57.5 47.5t74.5 17q57 0 87.5 -37t30.5 -103q0 -51 -13 -93t-37 -72.5t-57.5 -47.5t-75.5 -17zM509 52q21 0 38.5 13t29.5 35.5t18.5 52t6.5 62.5
q0 39 -12.5 61t-36.5 22q-21 0 -38 -13t-29.5 -35t-19 -51.5t-6.5 -63.5q0 -38 12.5 -60.5t36.5 -22.5z" />
    <glyph glyph-name="ampersand" unicode="&#x26;" horiz-adv-x="802" 
d="M780 432q-30 -74 -67 -135.5t-80 -112.5l123 -128l-71 -66l-119 125q-69 -61 -145.5 -93t-158.5 -32q-112 0 -171.5 47.5t-59.5 130.5q0 69 27.5 115t70.5 76.5t96 50.5t104 37l24 8t23 8q-96 0 -150 31.5t-54 84.5q0 39 18 70.5t51 54t80.5 34.5t106.5 12
q96 0 147 -37.5t51 -106.5q0 -50 -22.5 -85t-58.5 -60.5t-82 -44t-93 -35.5q-44 -16 -85.5 -32.5t-74 -39t-52 -53t-19.5 -74.5q0 -48 37.5 -77t107.5 -29q63 0 123 26t113.5 75t99.5 120t82 161zM272 556q0 -42 28.5 -66.5t79.5 -24.5l-4 -2q30 10 56 22t44.5 26.5t29.5 33
t11 43.5q0 36 -26.5 56t-77.5 20q-66 0 -103.5 -28.5t-37.5 -79.5z" />
    <glyph glyph-name="quotesingle" unicode="'" horiz-adv-x="210" 
d="M243 770l-38 -213h-94l38 213h94z" />
    <glyph glyph-name="parenleft" unicode="(" horiz-adv-x="270" 
d="M178 -215l-43 -25q-26 42 -44 90t-30 98.5t-17.5 101t-5.5 97.5q0 78 15.5 157t49 158t86 158.5t126.5 159.5l34 -25q-72 -77 -122 -155t-80.5 -155t-44.5 -151t-14 -144q0 -43 5 -90.5t15.5 -95.5t28 -94t41.5 -85z" />
    <glyph glyph-name="parenright" unicode=")" horiz-adv-x="270" 
d="M-71 -215q72 76 121.5 154t80.5 155t45 151.5t14 144.5q0 43 -5 90.5t-15.5 95.5t-28 93.5t-41.5 85.5l44 25q25 -42 43 -90t30 -98.5t17.5 -101t5.5 -97.5q0 -156 -64.5 -315t-211.5 -318z" />
    <glyph glyph-name="asterisk" unicode="*" horiz-adv-x="381" 
d="M344 599q-45 0 -85 26l-2 -2l61 -110l-58 -38q-17 32 -20 66q-3 39 14 82l-2 1l-100 -110l-45 37q47 54 111 68q17 6 35 9h-2l1 2l-122 43l29 60q38 -12 61.5 -37.5t34.5 -62.5h3l24 137h64q-15 -80 -86 -139h1v-2l137 41l10 -60q-35 -11 -64 -11z" />
    <glyph glyph-name="plus" unicode="+" horiz-adv-x="467" 
d="M427 231h-173l-31 -175h-47l30 175h-172l8 42h172l30 175h48l-31 -175h173z" />
    <glyph glyph-name="comma" unicode="," horiz-adv-x="236" 
d="M159 111l-16 -93q-12 -66 -50.5 -111.5t-97.5 -60.5l11 60q49 9 81.5 34t46.5 60h-111l19 111h117z" />
    <glyph glyph-name="hyphen" unicode="-" horiz-adv-x="408" 
d="M349 274l-7 -42h-281l7 42h281z" />
    <glyph glyph-name="period" unicode="." horiz-adv-x="239" 
d="M156 111l-19 -111h-117l19 111h117z" />
    <glyph glyph-name="slash" unicode="/" horiz-adv-x="417" 
d="M482 785l-476 -925l-42 15l476 925z" />
    <glyph glyph-name="zero" unicode="0" horiz-adv-x="664" 
d="M286 -10q-106 0 -162.5 74.5t-56.5 207.5q0 105 25 192.5t71.5 151t111.5 99t145 35.5q107 0 163 -74.5t56 -207.5q0 -105 -25 -192.5t-71 -151t-111.5 -99t-145.5 -35.5zM302 76q52 0 94.5 30t72.5 82.5t46.5 123t16.5 150.5q0 95 -32 148.5t-94 53.5q-52 0 -94.5 -30
t-72.5 -82.5t-46.5 -123t-16.5 -150.5q0 -95 32 -148.5t94 -53.5z" />
    <glyph glyph-name="one" unicode="1" horiz-adv-x="361" 
d="M356 740l-130 -740h-104l124 706h-2q-14 -76 -58 -118t-111 -42l16 91q68 0 110.5 27.5t50.5 75.5h104z" />
    <glyph glyph-name="two" unicode="2" horiz-adv-x="610" 
d="M54 83h483l-15 -83h-523l14 78q109 31 196.5 79.5t148.5 108.5t94 129.5t33 143.5q0 59 -28.5 92t-82.5 33q-66 0 -113.5 -48t-67.5 -135h-101q29 128 107.5 198.5t191.5 70.5q100 0 153.5 -52.5t53.5 -146.5q0 -90 -38 -168t-108.5 -138.5t-171 -101.5t-226.5 -58v-2z
" />
    <glyph glyph-name="three" unicode="3" horiz-adv-x="607" 
d="M328 417q109 0 166.5 -46t57.5 -129q0 -57 -21 -103.5t-61 -79.5t-96.5 -51t-127.5 -18q-102 0 -156.5 52t-54.5 148q0 19 3 42h101q-2 -9 -2 -16.5v-15.5q0 -60 32 -92.5t93 -32.5q84 0 133 42t49 113q0 53 -36.5 82t-105.5 29h-21l14 78q87 9 137 48.5t50 102.5
q0 45 -30 70t-86 25q-62 0 -106 -41.5t-61 -116.5h-99q28 115 104 179t186 64q100 0 153 -39t53 -105q0 -44 -19 -78.5t-54 -58.5t-86 -37t-114 -13v-2h5v0z" />
    <glyph glyph-name="four" unicode="4" horiz-adv-x="612" 
d="M570 185h-95l-33 -185h-105l32 185h-355l16 89l346 466h196l-83 -472h96zM128 268h259l81 462h-2l-338 -460v-2z" />
    <glyph glyph-name="five" unicode="5" horiz-adv-x="614" 
d="M259 -10q-106 0 -163 53t-57 147v18h103q0 -62 34.5 -97t97.5 -35q44 0 79.5 14.5t60.5 40.5t38.5 63t13.5 82q0 62 -34 96.5t-97 34.5q-62 0 -105 -32t-69 -83l-98 13l133 435h406l-14 -83h-313l-109 -347h2q29 84 89.5 130.5t141.5 46.5q87 0 132.5 -49.5t45.5 -138.5
q0 -71 -22.5 -128t-63.5 -97t-100 -62t-132 -22z" />
    <glyph glyph-name="six" unicode="6" horiz-adv-x="649" 
d="M531 532q0 5 0.5 10t0.5 10q0 53 -29.5 82.5t-84.5 29.5q-85 0 -147 -81t-87 -226l-13 -72h2q16 90 80 140.5t164 50.5q91 0 139 -48t48 -135q0 -69 -23.5 -125t-65.5 -95.5t-100.5 -61t-128.5 -21.5q-110 0 -165.5 66.5t-55.5 194.5q0 108 26 199.5t74 158t116 104
t152 37.5q97 0 149 -49t52 -139v-14.5t-1 -15.5h-102zM354 394q-87 0 -138.5 -47.5t-51.5 -132.5q0 -64 36 -101t99 -37q44 0 80 14t61.5 39t39 60.5t13.5 79.5q0 60 -36 92.5t-103 32.5z" />
    <glyph glyph-name="seven" unicode="7" horiz-adv-x="540" 
d="M609 740l-14 -78q-59 -15 -112.5 -62.5t-97.5 -122.5t-78.5 -175.5t-55.5 -222.5l-13 -79h-110l11 62q24 131 64 236.5t93.5 182t119.5 121t141 53.5v2h-474l15 83h511z" />
    <glyph glyph-name="eight" unicode="8" horiz-adv-x="635" 
d="M413 422q81 -11 124.5 -57t43.5 -118q0 -59 -21.5 -106.5t-62 -81t-98 -51.5t-128.5 -18q-112 0 -171 48t-59 136q0 103 64.5 168t178.5 80v2q-75 0 -115 32.5t-40 91.5q0 46 19.5 83.5t55.5 64t87 40.5t114 14q103 0 159 -39.5t56 -108.5q0 -40 -14.5 -73t-41.5 -56
t-65.5 -36t-85.5 -13v-2zM231 517q0 -48 30 -74.5t85 -26.5q74 0 117 40t43 107q0 48 -29.5 74.5t-85.5 26.5q-74 0 -117 -39.5t-43 -107.5zM287 76q85 0 134.5 42.5t49.5 115.5q0 53 -35.5 82.5t-101.5 29.5q-85 0 -134.5 -42.5t-49.5 -115.5q0 -53 35.5 -82.5t101.5 -29.5
z" />
    <glyph glyph-name="nine" unicode="9" horiz-adv-x="648" 
d="M408 750q111 0 164.5 -67.5t53.5 -192.5q0 -109 -26 -200.5t-74 -158t-116 -104t-152 -37.5q-96 0 -147 52.5t-51 147.5v18.5t2 19.5h102q-1 -8 -1 -13.5v-11.5q0 -60 28.5 -93.5t82.5 -33.5q85 0 146.5 81t87.5 226l14 82h-2q-15 -85 -79 -133t-164 -48q-91 0 -140 46.5
t-49 129.5q0 67 23.5 120.5t66 91t101.5 58t129 20.5zM341 366q86 0 137 44t51 123q0 61 -37 96t-99 35q-44 0 -80 -13t-61.5 -36.5t-39 -56.5t-13.5 -74q0 -56 37 -87t105 -31z" />
    <glyph glyph-name="colon" unicode=":" horiz-adv-x="243" 
d="M225 504l-19 -111h-117l19 111h117zM155 111l-19 -111h-117l19 111h117z" />
    <glyph glyph-name="semicolon" unicode=";" horiz-adv-x="244" 
d="M225 504l-19 -111h-117l19 111h117zM40 111h117l-16 -93q-12 -66 -50.5 -111.5t-97.5 -60.5l11 60q49 9 81.5 34t46.5 60h-111z" />
    <glyph glyph-name="less" unicode="&#x3c;" horiz-adv-x="469" 
d="M45 253l-1 -2l341 -156l-7 -46l-346 163l6 38l8 43l403 164l-8 -46z" />
    <glyph glyph-name="equal" unicode="=" horiz-adv-x="525" 
d="M84 349h393l-8 -42h-392zM57 197h393l-8 -42h-392z" />
    <glyph glyph-name="greater" unicode="&#x3e;" horiz-adv-x="469" 
d="M433 255l-8 -43l-403 -163l8 46l396 156l1 2l-342 158l8 46l346 -164z" />
    <glyph glyph-name="question" unicode="?" horiz-adv-x="543" 
d="M75 511q26 113 100 176t181 63q98 0 149.5 -45t51.5 -124q0 -44 -19 -90.5t-54 -94.5t-84.5 -96t-111.5 -94h-97v2q58 47 105 94.5t80 93t50.5 88t17.5 78.5q0 47 -27 74.5t-79 27.5q-60 0 -103.5 -40.5t-60.5 -112.5h-99zM277 111l-20 -111h-116l19 111h117z" />
    <glyph glyph-name="at" unicode="@" horiz-adv-x="1134" 
d="M652 125q0 14 2.5 26t7.5 24l7 20h-2q-28 -78 -88 -120.5t-142 -42.5q-66 0 -99.5 37.5t-33.5 104.5q0 68 22 128.5t61.5 106.5t93 72.5t116.5 26.5q66 0 100.5 -27.5t34.5 -77.5q0 -18 -3.5 -30t-8.5 -28h2l54 153h97l-116 -327q-2 -8 -4 -13.5t-2 -13.5q0 -43 51 -43
t93 24t71 66t45 100t16 127q0 140 -88 217t-255 77q-129 0 -233.5 -41.5t-178 -116t-113 -178t-39.5 -227.5q0 -151 92.5 -236t265.5 -85q68 0 146 15t150 43l15 -65q-74 -29 -158.5 -45t-164.5 -16q-103 0 -183 25.5t-134.5 74.5t-82.5 119t-28 159q0 142 46 260t131.5 203
t207.5 132t273 47q100 0 177 -24t129.5 -69.5t80 -110.5t27.5 -147q0 -89 -24 -162t-68.5 -125t-107.5 -80.5t-140 -28.5q-57 0 -87.5 24t-30.5 68zM506 109q66 0 117.5 42.5t78.5 117.5q5 17 9.5 31.5t4.5 36.5q0 45 -24.5 69t-72.5 24q-45 0 -83.5 -17.5t-66.5 -48
t-44 -71t-16 -86.5t24.5 -72t72.5 -26z" />
    <glyph glyph-name="A" unicode="A" horiz-adv-x="695" 
d="M504 186h-340l-91 -186h-107l376 740h185l114 -740h-112zM493 270l-62 460h-2l-224 -460h288z" />
    <glyph glyph-name="B" unicode="B" horiz-adv-x="685" 
d="M432 417q101 0 155.5 -45t54.5 -124q0 -57 -20.5 -102.5t-59 -78t-93 -50t-122.5 -17.5h-301l130 740h294q86 0 131.5 -36.5t45.5 -102.5q0 -85 -61.5 -133.5t-166.5 -48.5l-1 -2h14zM532 559q0 46 -28 72t-82 26h-156l-41 -238h155q70 0 111 37.5t41 102.5zM367 83
q75 0 120 41.5t45 111.5q0 50 -31 77.5t-89 27.5h-201l-45 -258h201z" />
    <glyph glyph-name="C" unicode="C" horiz-adv-x="723" 
d="M690 275q-21 -67 -56 -120t-81 -89.5t-101.5 -56t-118.5 -19.5q-130 0 -199.5 78t-69.5 216q0 105 28.5 190.5t81 147t127 95t166.5 33.5q123 0 190.5 -68t67.5 -190q0 -5 -0.5 -11t-0.5 -11h-100v7q-1 89 -46 138t-126 49q-63 0 -114.5 -27t-88 -75.5t-56.5 -116.5
t-20 -149q0 -103 45 -161.5t131 -58.5q81 0 144 52.5t96 146.5h101v0z" />
    <glyph glyph-name="D" unicode="D" horiz-adv-x="724" 
d="M176 740h224q73 0 129 -20t94.5 -58t58.5 -93t20 -124q0 -101 -30.5 -183t-87 -140t-136 -90t-178.5 -32h-224zM291 83q69 0 125 25.5t95 72t60.5 111t21.5 143.5q0 104 -51.5 163t-149.5 59h-125l-101 -574h125z" />
    <glyph glyph-name="E" unicode="E" horiz-adv-x="632" 
d="M267 657l-41 -234h350l-14 -84h-351l-45 -256h397l-15 -83h-502l130 740h491l-14 -83h-386z" />
    <glyph glyph-name="F" unicode="F" horiz-adv-x="573" 
d="M267 657l-43 -242h301l-14 -83h-301l-59 -332h-105l130 740h458l-14 -83h-353z" />
    <glyph glyph-name="G" unicode="G" horiz-adv-x="745" 
d="M622 478v7q-1 85 -45 132t-122 47q-64 0 -116 -27t-88.5 -76t-56.5 -116.5t-20 -149.5q0 -103 43.5 -161t127.5 -58q97 0 163.5 62t89.5 174h-222l14 74h321l-67 -386h-99l47 267h-2q-12 -65 -38.5 -116.5t-66 -87t-90.5 -54.5t-111 -19q-106 0 -163 75.5t-57 209.5
q0 108 29 195.5t82 150t127.5 96t166.5 33.5q121 0 187.5 -67t66.5 -186q0 -5 -0.5 -9.5t-0.5 -9.5h-100z" />
    <glyph glyph-name="H" unicode="H" horiz-adv-x="743" 
d="M739 740l-130 -740h-104l59 334h-354l-59 -334h-105l130 740h105l-57 -323h354l57 323h104z" />
    <glyph glyph-name="I" unicode="I" horiz-adv-x="284" 
d="M176 740h105l-130 -740h-105z" />
    <glyph glyph-name="J" unicode="J" horiz-adv-x="556" 
d="M362 215l93 525h104l-92 -519q-19 -109 -88.5 -170t-176.5 -61q-89 0 -136.5 54.5t-47.5 153.5q0 25 3 52h97q-1 -9 -1.5 -17.5t-0.5 -16.5q0 -66 27.5 -103t76.5 -37q56 0 93.5 36.5t48.5 102.5z" />
    <glyph glyph-name="K" unicode="K" horiz-adv-x="696" 
d="M337 386l327 -386h-136l-311 381h-2l-67 -381h-102l130 740h102l-61 -350h2l410 350h127z" />
    <glyph glyph-name="L" unicode="L" horiz-adv-x="544" 
d="M501 86l-15 -86h-440l130 740h105l-114 -654h334z" />
    <glyph glyph-name="M" unicode="M" horiz-adv-x="969" 
d="M953 740l-106 -740h-105l107 730h-2l-322 -730h-185l-54 730h-2l-150 -730h-99l153 740h203l45 -730h3l312 730h202z" />
    <glyph glyph-name="N" unicode="N" horiz-adv-x="743" 
d="M739 740l-130 -740h-178l-157 730h-2l-125 -730h-101l130 740h180l157 -730h2l125 730h99z" />
    <glyph glyph-name="O" unicode="O" horiz-adv-x="763" 
d="M336 -10q-66 0 -116.5 20t-85 58.5t-52.5 93t-18 123.5q0 104 28.5 190t81.5 147t128 94.5t168 33.5q132 0 201.5 -77.5t69.5 -217.5q0 -104 -28.5 -190t-81.5 -147t-128 -94.5t-167 -33.5zM351 76q64 0 115.5 27t88.5 75.5t57 116.5t20 149q0 103 -45.5 161.5
t-131.5 58.5q-65 0 -117 -27t-88.5 -75.5t-56.5 -116t-20 -148.5q0 -104 45.5 -162.5t132.5 -58.5z" />
    <glyph glyph-name="P" unicode="P" horiz-adv-x="641" 
d="M438 740q107 0 164.5 -49t57.5 -137q0 -61 -21 -110.5t-60 -84t-95 -53.5t-126 -19h-156l-51 -287h-105l130 740h262zM378 371q79 0 125.5 46.5t46.5 124.5q0 54 -31 84.5t-89 30.5h-163l-51 -286h162z" />
    <glyph glyph-name="Q" unicode="Q" horiz-adv-x="776" 
d="M422 82l291 1l-14 -83h-362q-132 0 -202 77.5t-70 214.5q0 103 28.5 187.5t81.5 144.5t127.5 93t166.5 33q67 0 118 -20t86 -56t53 -87.5t18 -114.5q0 -85 -23 -156t-65 -122.5t-101.5 -80.5t-132.5 -29v-2zM174 300q0 -103 45 -161.5t133 -58.5q63 0 115 27t88.5 75.5
t56.5 115.5t20 147q0 103 -45.5 161t-131.5 58q-64 0 -116 -26.5t-88.5 -74.5t-56.5 -115t-20 -148z" />
    <glyph glyph-name="R" unicode="R" horiz-adv-x="678" 
d="M679 566q0 -57 -21 -104t-60 -80.5t-95 -51.5t-125 -18v-2q46 0 83.5 -25t56.5 -73l87 -212h-117l-122 310h-160l-55 -310h-105l130 740h273q112 0 171 -46t59 -128zM394 390q81 0 128 43.5t47 115.5q0 51 -33 79.5t-95 28.5h-174l-47 -267h174z" />
    <glyph glyph-name="S" unicode="S" horiz-adv-x="668" 
d="M286 -10q-119 0 -183.5 58.5t-64.5 166.5q0 10 0.5 20t1.5 21h104q-1 -8 -1.5 -14.5t-0.5 -13.5q0 -72 42 -112t119 -40q98 0 154 40.5t56 110.5q0 31 -15 50.5t-40 31.5t-57.5 18.5t-67.5 12.5q-41 7 -81 15.5t-72.5 25.5t-52.5 46t-20 77q0 58 22 103.5t62.5 77
t98.5 48.5t130 17q111 0 170.5 -56.5t59.5 -159.5v-18t-2 -20h-103q1 8 1 14.5v13.5q0 67 -37.5 103.5t-107.5 36.5q-86 0 -135.5 -36.5t-49.5 -99.5q0 -27 14 -44t37.5 -28t54 -17t63.5 -12q42 -7 84 -16t76.5 -27.5t56 -50t21.5 -82.5q0 -60 -23.5 -108.5t-67.5 -82
t-106 -52t-140 -18.5z" />
    <glyph glyph-name="T" unicode="T" horiz-adv-x="585" 
d="M641 657h-224l-116 -657h-105l116 657h-224l14 83h553z" />
    <glyph glyph-name="U" unicode="U" horiz-adv-x="720" 
d="M625 740h100l-85 -483q-11 -63 -39 -112.5t-70 -84t-96.5 -52.5t-120.5 -18q-114 0 -175 53.5t-61 150.5q0 31 6 63l85 483h104l-86 -489q-3 -24 -3 -42q0 -63 38 -98t110 -35q84 0 138.5 46t68.5 129z" />
    <glyph glyph-name="V" unicode="V" horiz-adv-x="665" 
d="M736 740l-352 -740h-191l-91 740h112l78 -730h2l336 730h106z" />
    <glyph glyph-name="W" unicode="W" horiz-adv-x="1027" 
d="M1089 740l-290 -740h-192l-8 730h-2l-264 -730h-193l-28 740h112l21 -730h2l267 730h176l12 -730h2l278 730h107z" />
    <glyph glyph-name="X" unicode="X" horiz-adv-x="661" 
d="M466 386l140 -386h-127l-123 381h-2l-258 -381h-127l277 386l-123 354h119l114 -350h2l235 350h119z" />
    <glyph glyph-name="Y" unicode="Y" horiz-adv-x="672" 
d="M766 740l-495 -740h-115l186 283h-99l-145 457h122l137 -447h2l292 447h115z" />
    <glyph glyph-name="Z" unicode="Z" horiz-adv-x="672" 
d="M23 85l-1 -2h591l-15 -83h-602l33 193l649 462l1 2h-554l14 83h566l-34 -193z" />
    <glyph glyph-name="bracketleft" unicode="[" horiz-adv-x="292" 
d="M218 726l-161 -912h144l-8 -44h-193l177 1000h193l-8 -44h-144z" />
    <glyph glyph-name="backslash" unicode="\" horiz-adv-x="407" 
d="M316 -125l-47 -15l-149 925l47 15z" />
    <glyph glyph-name="bracketright" unicode="]" horiz-adv-x="292" 
d="M122 -230h-192l9 44h143l161 912h-143l7 44h192z" />
    <glyph glyph-name="asciicircum" unicode="^" horiz-adv-x="515" 
d="M502 353h-52l-107 361h-2l-235 -361h-51l240 367h97z" />
    <glyph glyph-name="underscore" unicode="_" horiz-adv-x="557" 
d="M468 -69l-6 -41h-489l6 41h489z" />
    <glyph glyph-name="grave" unicode="`" horiz-adv-x="235" 
d="M293 641l-39 -55l-169 93l44 60z" />
    <glyph glyph-name="a" unicode="a" 
d="M581 498l-88 -498h-100l29 166h-2q-14 -83 -70.5 -129.5t-141.5 -46.5q-82 0 -125 52t-43 146q0 71 18.5 130t52.5 101t81.5 65.5t106.5 23.5q75 0 114.5 -35t39.5 -100q0 -22 -4 -41h2l30 166h100zM265 71q70 0 117.5 48.5t61.5 129.5q2 14 3 25.5t1 23.5
q0 60 -30.5 94.5t-89.5 34.5q-42 0 -75.5 -16t-57.5 -45t-37 -69t-13 -89q0 -65 30.5 -101t89.5 -36z" />
    <glyph glyph-name="b" unicode="b" horiz-adv-x="610" 
d="M401 508q82 0 125.5 -52t43.5 -146q0 -71 -18.5 -130t-52.5 -101t-82 -65.5t-107 -23.5q-75 0 -114.5 35t-39.5 100q0 22 4 41h-2l-30 -166h-100l136 770h100l-77 -438h2q14 83 70.5 129.5t141.5 46.5zM282 71q42 0 75.5 16t57.5 45t37 69t13 89q0 65 -31 101t-90 36
q-69 0 -116.5 -48.5t-62.5 -129.5q-2 -14 -3 -25.5t-1 -22.5q0 -60 30.5 -95t90.5 -35z" />
    <glyph glyph-name="c" unicode="c" horiz-adv-x="561" 
d="M246 -10q-100 0 -153 54.5t-53 151.5q0 70 21 128t60 98.5t94 63t123 22.5q93 0 144.5 -47.5t56.5 -134.5h-99q-7 48 -36 74.5t-80 26.5q-41 0 -74.5 -16t-57 -45t-36.5 -69.5t-13 -89.5q0 -64 30.5 -100t87.5 -36q54 0 94 28.5t63 82.5h99q-32 -92 -102 -142t-169 -50z
" />
    <glyph glyph-name="d" unicode="d" 
d="M629 770l-136 -770h-100l29 166h-2q-14 -83 -70.5 -129.5t-141.5 -46.5q-82 0 -125 52t-43 146q0 71 18.5 130t52.5 101t81.5 65.5t106.5 23.5q75 0 114.5 -35t39.5 -100q0 -22 -4 -41h2l78 438h100zM265 71q70 0 117.5 48.5t61.5 129.5q2 14 3 25.5t1 23.5
q0 60 -30.5 94.5t-89.5 34.5q-42 0 -75.5 -16t-57.5 -45t-37 -69t-13 -89q0 -65 30.5 -101t89.5 -36z" />
    <glyph glyph-name="e" unicode="e" horiz-adv-x="560" 
d="M328 508q94 0 145.5 -49t51.5 -140q0 -16 -1.5 -33.5t-5.5 -36.5l-3 -14h-375q-1 -8 -1 -15v-15q0 -65 29 -101t83 -36q55 0 96 28.5t60 79.5h98q-28 -88 -98.5 -137t-169.5 -49q-95 0 -146 53.5t-51 149.5q0 71 20.5 129t58 99.5t90.5 64t119 22.5zM315 430
q-64 0 -108 -41.5t-60 -111.5h277q0 7 0.5 13.5t0.5 13.5q0 61 -28 93.5t-82 32.5z" />
    <glyph glyph-name="f" unicode="f" horiz-adv-x="374" 
d="M380 699q-53 0 -84.5 -26.5t-39.5 -74.5l-17 -100h168l-12 -73h-163l-75 -425h-100l75 425h-78l12 73h167l1 2q-36 11 -56 37.5t-20 61.5q0 84 57 132.5t157 48.5q59 0 102 -23l-27 -76q-27 18 -67 18z" />
    <glyph glyph-name="g" unicode="g" 
d="M581 498l-90 -508q-20 -109 -93 -169.5t-188 -60.5q-101 0 -154.5 48t-48.5 134l97 13q-5 -54 27 -84t92 -30q67 0 111 37.5t56 105.5l33 186h-2q-15 -83 -71 -129.5t-141 -46.5q-82 0 -125.5 51.5t-43.5 144.5q0 70 18.5 128.5t52.5 100.5t81.5 65.5t106.5 23.5
q75 0 114.5 -35t39.5 -100q0 -22 -4 -41h2l30 166h100zM266 75q70 0 117 47.5t61 128.5q2 14 3 25t1 22q0 60 -30.5 94.5t-89.5 34.5q-42 0 -75.5 -16t-57.5 -44.5t-37 -68t-13 -87.5q0 -65 30.5 -100.5t90.5 -35.5z" />
    <glyph glyph-name="h" unicode="h" horiz-adv-x="586" 
d="M386 508q72 0 110 -38t38 -109q0 -13 -1 -26t-4 -28l-54 -307h-100l54 304q1 8 1.5 15.5t0.5 15.5q0 44 -24.5 68t-72.5 24q-62 0 -103.5 -41t-54.5 -115l-48 -271h-100l136 770h100l-79 -445h2q16 87 68.5 135t130.5 48z" />
    <glyph glyph-name="i" unicode="i" horiz-adv-x="244" 
d="M154 715h100l-19 -113h-100zM116 498h100l-88 -498h-100z" />
    <glyph glyph-name="j" unicode="j" horiz-adv-x="244" 
d="M154 715h100l-19 -113h-100zM116 498h100l-129 -728h-100z" />
    <glyph glyph-name="k" unicode="k" horiz-adv-x="555" 
d="M290 261l224 -261h-128l-211 255h-2l-45 -255h-100l136 770h100l-90 -507h3l280 235h123z" />
    <glyph glyph-name="l" unicode="l" horiz-adv-x="244" 
d="M164 770h100l-136 -770h-100z" />
    <glyph glyph-name="m" unicode="m" horiz-adv-x="912" 
d="M718 508q70 0 106.5 -37t36.5 -106q0 -13 -1 -26t-3 -27l-56 -312h-100l55 309q3 16 3 30q0 42 -24 65t-69 23q-60 0 -100 -39.5t-53 -111.5l-48 -276h-100l55 309q1 8 1.5 15t0.5 15q0 42 -24 65t-69 23q-60 0 -99.5 -39.5t-52.5 -111.5l-49 -276h-100l88 498h100
l-30 -169h2q15 85 66.5 132t129.5 47q69 0 105.5 -36.5t36.5 -99.5q0 -21 -3 -43h2q15 85 65.5 132t127.5 47z" />
    <glyph glyph-name="n" unicode="n" horiz-adv-x="586" 
d="M386 508q72 0 110 -38t38 -109q0 -13 -1 -26t-4 -28l-54 -307h-100l54 304q1 8 1.5 15.5t0.5 15.5q0 44 -24.5 68t-72.5 24q-62 0 -103.5 -41t-54.5 -115l-48 -271h-100l88 498h100l-31 -173h2q16 87 68.5 135t130.5 48z" />
    <glyph glyph-name="o" unicode="o" horiz-adv-x="589" 
d="M249 -10q-101 0 -155 54.5t-54 151.5q0 70 21.5 128t60.5 98.5t94.5 63t124.5 22.5q101 0 155 -54.5t54 -151.5q0 -71 -21 -128.5t-60.5 -98t-95 -63t-124.5 -22.5zM264 71q42 0 75.5 16t57.5 45t37 69t13 89q0 65 -31 101t-90 36q-42 0 -75.5 -16t-57.5 -45t-37 -69
t-13 -89q0 -65 31 -101t90 -36z" />
    <glyph glyph-name="p" unicode="p" horiz-adv-x="610" 
d="M401 508q82 0 125.5 -52t43.5 -146q0 -71 -18.5 -130t-52.5 -101t-82 -65.5t-107 -23.5q-75 0 -114.5 35t-39.5 100q0 22 4 41h-2l-71 -396h-100l129 728h100l-29 -166h2q14 83 70.5 129.5t141.5 46.5zM282 71q42 0 75.5 16t57.5 45t37 69t13 89q0 65 -31 101t-90 36
q-70 0 -117 -48.5t-62 -129.5q-2 -14 -3 -25.5t-1 -22.5q0 -60 30.5 -95t90.5 -35z" />
    <glyph glyph-name="q" unicode="q" 
d="M581 498l-129 -728h-100l70 396h-2q-14 -83 -70.5 -129.5t-141.5 -46.5q-82 0 -125 52t-43 145q0 71 18.5 130t52 101.5t81.5 66t107 23.5q75 0 114.5 -35t39.5 -100q0 -22 -4 -41h2l30 166h100zM265 71q70 0 117 46.5t62 131.5q2 14 3 26t1 24q0 61 -31 94.5t-90 33.5
q-41 0 -74.5 -16t-57.5 -45t-37 -69t-13 -89q0 -65 30.5 -101t89.5 -36z" />
    <glyph glyph-name="r" unicode="r" horiz-adv-x="416" 
d="M379 508q21 0 40.5 -4t33.5 -11l-46 -93q-13 8 -31 13t-37 5q-65 0 -109.5 -47.5t-59.5 -133.5l-42 -237h-100l88 498h100l-35 -195h2q17 97 69 151t127 54z" />
    <glyph glyph-name="s" unicode="s" horiz-adv-x="510" 
d="M208 -10q-91 0 -140.5 35.5t-49.5 101.5q0 16 3 34h95q-1 -7 -1.5 -12t-0.5 -10q0 -39 27.5 -60.5t78.5 -21.5q63 0 99 24t36 66q0 20 -10 32.5t-27.5 21t-39.5 13t-46 9.5q-29 5 -58 11.5t-52.5 19t-38 33.5t-14.5 54q0 77 62 122t168 45q85 0 131 -33.5t46 -96.5
q0 -9 -1 -17.5t-3 -17.5h-95q2 7 2 12v10q0 37 -23 57t-68 20q-55 0 -87 -22t-32 -59q0 -17 9.5 -27.5t25 -17.5t36 -12t43.5 -9q30 -6 60.5 -13t55.5 -20t40.5 -35t15.5 -58q0 -41 -17 -74.5t-49.5 -56.5t-78 -35.5t-102.5 -12.5z" />
    <glyph glyph-name="t" unicode="t" horiz-adv-x="380" 
d="M180 154q-1 -5 -1.5 -9.5t-0.5 -9.5q0 -31 19.5 -47.5t54.5 -16.5q39 0 73 16l-13 -76q-23 -10 -51 -15.5t-55 -5.5q-63 0 -97 30.5t-34 85.5q0 9 1 18.5t3 19.5l49 281h-76l12 73h83l31 170h99l-7 -42q-7 -44 -38 -76.5t-79 -49.5l-1 -2h253l-12 -73h-165z" />
    <glyph glyph-name="u" unicode="u" horiz-adv-x="575" 
d="M547 498l-88 -498h-100l31 173h-2q-16 -87 -67 -135t-127 -48q-70 0 -106.5 38t-36.5 107q0 26 6 56l54 307h100l-54 -304q-3 -20 -3 -33q0 -44 24 -67t69 -23q59 0 99 41t53 115l48 271h100z" />
    <glyph glyph-name="v" unicode="v" horiz-adv-x="534" 
d="M555 498l-236 -498h-191l-62 498h108l50 -491h2l222 491h107z" />
    <glyph glyph-name="w" unicode="w" horiz-adv-x="842" 
d="M861 498l-210 -498h-177l-9 491h-2l-181 -491h-178l-35 498h107l23 -491h2l181 491h169l9 -491h2l195 491h104z" />
    <glyph glyph-name="x" unicode="x" horiz-adv-x="545" 
d="M378 261l109 -261h-116l-96 255h-2l-186 -255h-116l201 261l-96 237h112l87 -235h2l168 235h112z" />
    <glyph glyph-name="y" unicode="y" horiz-adv-x="534" 
d="M556 498l-347 -728h-107l111 230h-84l-62 498h107l51 -491h2l222 491h107z" />
    <glyph glyph-name="z" unicode="z" horiz-adv-x="520" 
d="M23 74l-1 -2h433l-12 -72h-445l30 168l458 255l1 2h-408l12 73h421l-29 -168z" />
    <glyph glyph-name="braceleft" unicode="{" horiz-adv-x="265" 
d="M186 664q8 48 45 77t88 29l-8 -44q-29 0 -50.5 -19t-26.5 -49l-50 -286q-7 -38 -29 -63.5t-57 -39.5q52 -21 52 -78v-10t-2 -14l-51 -285q-1 -5 -1 -8v-6q0 -25 14 -39.5t40 -14.5l-8 -44q-45 0 -71 23t-26 62q0 5 0.5 10t1.5 11l50 285q2 8 2 12v9q0 31 -19 48t-54 17
l6 34l2 11q42 0 68.5 22.5t33.5 63.5l50 286v0z" />
    <glyph glyph-name="bar" unicode="|" horiz-adv-x="219" 
d="M226 770l-177 -1000h-49l177 1000h49z" />
    <glyph glyph-name="braceright" unicode="}" horiz-adv-x="265" 
d="M173 357q0 -31 19 -48t55 -17l-8 -45q-42 0 -68.5 -22.5t-34.5 -63.5l-50 -285q-8 -48 -44.5 -77t-87.5 -29l8 44q29 0 50.5 19t26.5 49l50 285q7 38 29 63.5t57 38.5q-51 22 -51 79v10t2 14l49 286q1 5 1.5 8t0.5 6q0 25 -14 39.5t-40 14.5l8 44q45 0 70.5 -23t25.5 -62
q0 -5 -0.5 -9.5t-1.5 -11.5l-50 -286q-1 -7 -1.5 -11.5t-0.5 -9.5z" />
    <glyph glyph-name="asciitilde" unicode="~" horiz-adv-x="586" 
d="M395 190q-42 0 -68.5 12t-47.5 26.5t-43 26.5t-56 12q-32 0 -55 -21.5t-33 -59.5h-40q11 59 47.5 91.5t91.5 32.5q42 0 68.5 -12t47.5 -26.5t42.5 -26.5t55.5 -12q32 0 55.5 21.5t33.5 59.5h40q-11 -59 -48 -91.5t-91 -32.5z" />
    <glyph glyph-name="uni00A0" unicode="&#xa0;" horiz-adv-x="230" 
 />
    <glyph glyph-name="exclamdown" unicode="&#xa1;" horiz-adv-x="253" 
d="M229 498l-20 -111h-117l20 111h117zM182 292l-88 -522h-104l98 522h94z" />
    <glyph glyph-name="cent" unicode="&#xa2;" horiz-adv-x="567" 
d="M311 198q91 12 132 109h99q-30 -86 -93 -135.5t-153 -55.5l-20 -116h-47l20 116q-90 6 -137 59.5t-47 145.5q0 67 19.5 123t55 96.5t86.5 64t114 27.5l19 108h47l-19 -108q81 -6 126.5 -53t50.5 -128h-99q-6 42 -29 68t-63 31zM168 332q0 -57 24.5 -92t71.5 -42l62 353
q-73 -9 -115.5 -68t-42.5 -151z" />
    <glyph glyph-name="sterling" unicode="&#xa3;" horiz-adv-x="625" 
d="M522 491q1 8 1.5 14.5t0.5 14.5q0 59 -32.5 91.5t-92.5 32.5q-72 0 -114.5 -37.5t-42.5 -102.5q0 -34 11.5 -70.5t19.5 -72.5h216l-8 -46h-200q1 -5 1 -15q0 -33 -13 -63t-41.5 -57.5t-74 -51.5t-111.5 -43v-2h517l-14 -83h-544l14 78q50 27 80 55.5t46.5 56.5t22 54.5
t5.5 50.5v10t-1 10h-98l8 46h81q-8 35 -18 71.5t-10 71.5q0 51 19.5 92.5t56.5 71.5t89.5 46t117.5 16q102 0 156.5 -52t54.5 -147q0 -10 -0.5 -20t-1.5 -20h-101z" />
    <glyph glyph-name="currency" unicode="&#xa4;" horiz-adv-x="557" 
d="M477 465q19 -35 19 -87q0 -54 -16 -98t-45 -76l45 -56l-36 -33l-47 57q-28 -19 -62.5 -29t-76.5 -10q-78 0 -123 43l-69 -60l-27 32l72 61q-19 35 -19 87q0 54 15.5 97.5t44.5 75.5l-45 57l37 33l46 -57q59 39 140 39q78 0 122 -42l70 59l26 -32zM265 175q84 0 133 53.5
t49 142.5q0 60 -32.5 94t-92.5 34q-84 0 -133 -53.5t-49 -142.5q0 -60 32 -94t93 -34z" />
    <glyph glyph-name="yen" unicode="&#xa5;" horiz-adv-x="719" 
d="M475 287h141l-8 -45h-163l-40 -59h193l-8 -44h-214l-93 -139h-115l92 139h-166l8 44h187l38 59h-215l8 45h134l-144 453h122l137 -447h2l292 447h115z" />
    <glyph glyph-name="brokenbar" unicode="&#xa6;" horiz-adv-x="219" 
d="M226 770l-71 -400h-49l71 400h49zM120 170l-71 -400h-49l71 400h49z" />
    <glyph glyph-name="section" unicode="&#xa7;" horiz-adv-x="681" 
d="M557 544q2 8 2 13.5v11.5q0 60 -40.5 92.5t-114.5 32.5q-81 0 -127 -28.5t-46 -79.5q0 -39 41.5 -61t118.5 -22q119 0 183 -50.5t64 -141.5q0 -56 -19 -102.5t-55 -80.5t-87 -55.5t-115 -27.5v-2q102 0 156.5 -27.5t54.5 -78.5q0 -41 -22 -73.5t-62.5 -55.5t-99.5 -35.5
t-132 -12.5q-124 0 -191 55.5t-67 156.5q0 18 3 36h103q-1 -6 -1 -12v-12q0 -66 44 -102t126 -36q93 0 145 29.5t52 82.5q0 40 -41.5 62.5t-119.5 22.5q-118 0 -182 50t-64 141q0 57 19 103t55 80.5t87 56t115 27.5v1q-102 0 -157 27.5t-55 77.5q0 39 20 71t57.5 54.5t91 35
t121.5 12.5q118 0 181.5 -52.5t63.5 -149.5q0 -8 -0.5 -16t-1.5 -18h-104zM530 297q0 57 -40 88t-114 31q-46 0 -83.5 -11.5t-64.5 -33.5t-41.5 -53t-14.5 -70q0 -57 40 -88t114 -31q94 0 149 45t55 123z" />
    <glyph glyph-name="dieresis" unicode="&#xa8;" horiz-adv-x="399" 
d="M149 715h95l-19 -113h-95zM319 715h95l-19 -113h-95z" />
    <glyph glyph-name="copyright" unicode="&#xa9;" horiz-adv-x="850" 
d="M379 -10q-152 0 -233.5 80t-81.5 224q0 103 31.5 187.5t90 144t141.5 92t186 32.5q154 0 235 -80t81 -224q0 -104 -31.5 -188t-90 -143.5t-142 -92t-186.5 -32.5zM387 32q90 0 162.5 29t124 82t79 128.5t27.5 167.5q0 127 -70 198t-204 71q-90 0 -162.5 -29t-124 -82.5
t-79 -128.5t-27.5 -167q0 -127 70.5 -198t203.5 -71zM418 190q-66 0 -101.5 38t-35.5 105q0 49 14 89.5t40.5 69.5t63.5 45t83 16q61 0 95.5 -32.5t37.5 -91.5h-46q-4 40 -28 61.5t-66 21.5q-68 0 -107.5 -47.5t-39.5 -125.5q0 -51 24.5 -79.5t72.5 -28.5q45 0 77.5 22.5
t49.5 64.5h46q-22 -61 -69 -94.5t-111 -33.5z" />
    <glyph glyph-name="ordfeminine" unicode="&#xaa;" horiz-adv-x="414" 
d="M435 740l-53 -301h-73l18 103h-1q-10 -51 -43 -80t-84 -29q-48 0 -73 31.5t-25 87.5q0 43 11 78.5t31 61t48.5 40t63.5 14.5q44 0 67 -21.5t23 -61.5q0 -6 -0.5 -12t-1.5 -14h1l17 103h74zM243 492q38 0 63 26.5t33 70.5q2 9 2.5 15t0.5 12q0 33 -16 52t-48 19
q-46 0 -73 -33t-27 -87q0 -35 16.5 -55t48.5 -20z" />
    <glyph glyph-name="guillemotleft" unicode="&#xab;" horiz-adv-x="432" 
d="M201 443h52l-160 -193l92 -193h-52l-94 193zM367 443h51l-160 -193l92 -193h-51l-94 193z" />
    <glyph glyph-name="logicalnot" unicode="&#xac;" horiz-adv-x="523" 
d="M471 341l-32 -183h-47l24 141h-345l7 42h393z" />
    <glyph glyph-name="uni00AD" unicode="&#xad;" horiz-adv-x="408" 
d="M349 274l-7 -42h-281l7 42h281z" />
    <glyph glyph-name="registered" unicode="&#xae;" horiz-adv-x="490" 
d="M338 780q81 0 124.5 -41.5t43.5 -114.5q0 -52 -16.5 -94.5t-47 -73t-74.5 -47t-98 -16.5q-82 0 -125.5 41.5t-43.5 114.5q0 52 16.5 94.5t47.5 73t75 47t98 16.5zM275 425q44 0 80 13.5t61.5 39t39.5 60.5t14 79q0 61 -36 95.5t-102 34.5q-45 0 -81 -13.5t-61.5 -39
t-39 -61t-13.5 -78.5q0 -61 35.5 -95.5t102.5 -34.5zM331 685q62 0 62 -49q0 -32 -22 -50.5t-61 -18.5v-2q30 0 40 -22l24 -54h-37l-32 76h-48l-14 -76h-34l29 169l5 27h88zM314 591q20 0 31.5 10.5t11.5 29.5q0 12 -8 19.5t-23 7.5h-53l-12 -67h53z" />
    <glyph glyph-name="macron" unicode="&#xaf;" horiz-adv-x="338" 
d="M396 695l-13 -73h-296l13 73h296z" />
    <glyph glyph-name="degree" unicode="&#xb0;" horiz-adv-x="326" 
d="M215 548q-51 0 -78.5 24.5t-27.5 69.5q0 63 39 100.5t108 37.5q51 0 78 -24.5t27 -69.5q0 -63 -39 -100.5t-107 -37.5zM224 603q31 0 49 20.5t18 53.5q0 23 -11.5 35.5t-34.5 12.5q-30 0 -48.5 -20.5t-18.5 -53.5q0 -23 12 -35.5t34 -12.5z" />
    <glyph glyph-name="plusminus" unicode="&#xb1;" horiz-adv-x="508" 
d="M467 341l-8 -41h-173l-27 -158h-48l28 158h-173l8 41h172l28 159h47l-28 -159h174zM24 59h393l-8 -42h-392z" />
    <glyph glyph-name="uni00B2" unicode="&#xb2;" horiz-adv-x="373" 
d="M79 418h299l-10 -60h-322l10 57q64 20 114.5 48.5t86 63t54.5 73.5t19 80q0 31 -15 48.5t-43 17.5q-35 0 -60.5 -26.5t-36.5 -74.5h-74q18 77 66 120t117 43q63 0 96 -32t33 -89q0 -53 -23 -98t-66.5 -79.5t-105.5 -57.5t-139 -32v-2z" />
    <glyph glyph-name="uni00B3" unicode="&#xb3;" horiz-adv-x="371" 
d="M246 612q67 0 103.5 -28t36.5 -78q0 -71 -50.5 -112.5t-138.5 -41.5q-63 0 -97 32t-34 91v11t1 13h74q-1 -5 -1 -9v-9q0 -32 17.5 -50t50.5 -18q45 0 71 23.5t26 61.5q0 28 -19.5 44t-56.5 16h-12l10 55q47 5 74 26.5t27 56.5q0 24 -16 37.5t-46 13.5q-32 0 -55.5 -23
t-33.5 -63h-73q17 69 64 108t115 39q63 0 95.5 -23.5t32.5 -62.5q0 -51 -44 -79.5t-121 -28.5v-2v0z" />
    <glyph glyph-name="acute" unicode="&#xb4;" horiz-adv-x="242" 
d="M302 679l-202 -93l-19 55l199 98z" />
    <glyph glyph-name="paragraph" unicode="&#xb6;" horiz-adv-x="709" 
d="M526 -230h-84l163 923h-149l-163 -923h-84l163 923q-92 0 -146.5 -46.5t-54.5 -126.5q0 -48 25 -78t73 -38l-15 -84q-86 8 -132 57t-46 128q0 61 21.5 110t62 83.5t98 53t128.5 18.5h317z" />
    <glyph glyph-name="periodcentered" unicode="&#xb7;" horiz-adv-x="243" 
d="M191 316l-19 -111h-117l19 111h117z" />
    <glyph glyph-name="cedilla" unicode="&#xb8;" horiz-adv-x="273" 
d="M28 -240q-24 0 -48 5.5t-41 16.5l9 47q14 -11 34.5 -17t42.5 -6q39 0 61 15t22 41q0 32 -41 32q-35 1 -59 -23l-32 28q21 19 51.5 30t60.5 11q45 0 69 -18t24 -51q0 -51 -40.5 -81t-112.5 -30z" />
    <glyph glyph-name="uni00B9" unicode="&#xb9;" horiz-adv-x="236" 
d="M277 802l-78 -444h-77l75 422h-2q-9 -52 -37 -80.5t-69 -28.5l11 66q42 0 68.5 17.5t31.5 47.5h77z" />
    <glyph glyph-name="ordmasculine" unicode="&#xba;" horiz-adv-x="395" 
d="M229 433q-63 0 -96.5 33t-33.5 93q0 85 50 136t136 51q63 0 96 -33t33 -93q0 -85 -50 -136t-135 -51zM240 492q45 0 72 33t27 87q0 35 -16.5 55t-47.5 20q-47 0 -74 -33t-27 -87q0 -35 17 -55t49 -20z" />
    <glyph glyph-name="guillemotright" unicode="&#xbb;" horiz-adv-x="433" 
d="M66 57h-52l160 193l-92 193h52l94 -193zM231 57h-52l160 193l-92 193h52l94 -193z" />
    <glyph glyph-name="onequarter" unicode="&#xbc;" horiz-adv-x="827" 
d="M206 730q-9 -52 -37 -80.5t-69 -28.5l11 66q42 0 68.5 17.5t31.5 47.5h77l-78 -444h-77l75 422h-2zM687 725l-613 -735l-29 25l613 735zM773 106h-58l-19 -106h-77l19 106h-211l11 64l193 274h143l-49 -278h58zM508 166h142l48 271h-2l-188 -269v-2z" />
    <glyph glyph-name="onehalf" unicode="&#xbd;" horiz-adv-x="816" 
d="M205 730q-9 -52 -37 -80.5t-69 -28.5l11 66q42 0 68.5 17.5t31.5 47.5h77l-78 -444h-77l75 422h-2zM686 725l-613 -735l-29 25l613 735zM449 60h299l-10 -60h-322l10 57q64 20 114.5 48.5t86 63t54.5 73.5t19 80q0 31 -15 48.5t-43 17.5q-35 0 -60.5 -26.5t-36.5 -74.5
h-74q18 77 66 120t117 43q63 0 96 -32t33 -89q0 -53 -23 -98t-66.5 -79.5t-105.5 -57.5t-139 -32v-2z" />
    <glyph glyph-name="threequarters" unicode="&#xbe;" horiz-adv-x="954" 
d="M389 456q0 -71 -50.5 -112.5t-138.5 -41.5q-63 0 -97 32t-34 91v11t1 13h74q-1 -5 -1 -9v-9q0 -32 17.5 -50t50.5 -18q45 0 71 23.5t26 61.5q0 28 -19.5 44t-56.5 16h-12l10 55q47 5 74 26.5t27 56.5q0 24 -16 37.5t-46 13.5q-32 0 -55.5 -23t-33.5 -63h-73q17 69 64 108
t115 39q63 0 95.5 -23.5t32.5 -62.5q0 -51 -44 -79.5t-121 -28.5v-2q67 0 103.5 -28t36.5 -78zM815 725l-613 -735l-29 25l613 735zM901 106h-58l-19 -106h-77l19 106h-211l11 64l193 274h143l-49 -278h58zM636 166h142l48 271h-2l-188 -269v-2z" />
    <glyph glyph-name="questiondown" unicode="&#xbf;" horiz-adv-x="534" 
d="M261 387l19 111h117l-19 -111h-117zM465 -1q-26 -113 -99.5 -176t-181.5 -63q-98 0 -149.5 45t-51.5 124q0 43 19 88t53.5 91t84 92.5t110.5 91.5h97v-2q-58 -45 -104.5 -91t-79 -89.5t-50 -84.5t-17.5 -77q0 -47 27.5 -74.5t78.5 -27.5q60 0 103.5 40.5t60.5 112.5h99z
" />
    <glyph glyph-name="Agrave" unicode="&#xc0;" horiz-adv-x="695" 
d="M504 186h-340l-91 -186h-107l376 740h185l114 -740h-112zM493 270l-62 460h-2l-224 -460h288zM407 802l-58 125h98l41 -125h-81z" />
    <glyph glyph-name="Aacute" unicode="&#xc1;" horiz-adv-x="695" 
d="M504 186h-340l-91 -186h-107l376 740h185l114 -740h-112zM493 270l-62 460h-2l-224 -460h288zM391 802l82 125h101l-99 -125h-84z" />
    <glyph glyph-name="Acircumflex" unicode="&#xc2;" horiz-adv-x="695" 
d="M504 186h-340l-91 -186h-107l376 740h185l114 -740h-112zM493 270l-62 460h-2l-224 -460h288zM463 905h-4l-74 -113h-76l84 125h140l46 -125h-76z" />
    <glyph glyph-name="Atilde" unicode="&#xc3;" horiz-adv-x="695" 
d="M527 740l114 -740h-112l-25 186h-340l-91 -186h-107l376 740h185zM493 270l-62 460h-2l-224 -460h288zM495 805q-18 0 -30 7t-22 15t-19.5 15t-22.5 7q-14 0 -22 -13.5t-13 -33.5h-58q9 57 38 88.5t71 31.5q18 0 30 -6.5t21.5 -15t18.5 -15t23 -6.5t23 13t14 33h58
q-9 -57 -39 -88.5t-71 -31.5z" />
    <glyph glyph-name="Adieresis" unicode="&#xc4;" horiz-adv-x="695" 
d="M415 844h-95l19 113h95zM585 844h-95l19 113h95zM504 186h-340l-91 -186h-107l376 740h185l114 -740h-112zM493 270l-62 460h-2l-224 -460h288z" />
    <glyph glyph-name="Aring" unicode="&#xc5;" horiz-adv-x="695" 
d="M443 795q-51 0 -77.5 24.5t-26.5 67.5q0 61 39 97t105 36q51 0 78 -24.5t27 -67.5q0 -61 -39 -97t-106 -36zM474 968q-32 0 -51 -20t-19 -53q0 -23 12.5 -35.5t35.5 -12.5q33 0 52 20t19 53q0 23 -12.5 35.5t-36.5 12.5zM504 186h-340l-91 -186h-107l376 740h185
l114 -740h-112zM493 270l-62 460h-2l-224 -460h288z" />
    <glyph glyph-name="AE" unicode="&#xc6;" horiz-adv-x="1074" 
d="M618 657l4 -240h396l-14 -84h-380l4 -250h378l-15 -83h-473l1 186h-338l-115 -186h-111l469 740h686l-14 -83h-478zM519 270l1 460h-2l-285 -460h286z" />
    <glyph glyph-name="Ccedilla" unicode="&#xc7;" horiz-adv-x="723" 
d="M690 275q-21 -67 -56 -120t-81 -89.5t-101.5 -56t-118.5 -19.5q-130 0 -199.5 78t-69.5 216q0 105 28.5 190.5t81 147t127 95t166.5 33.5q123 0 190.5 -68t67.5 -190q0 -5 -0.5 -11t-0.5 -11h-100v7q-1 89 -46 138t-126 49q-63 0 -114.5 -27t-88 -75.5t-56.5 -116.5
t-20 -149q0 -103 45 -161.5t131 -58.5q81 0 144 52.5t96 146.5h101zM272 -240q-24 0 -48 5.5t-41 16.5l9 47q14 -11 34.5 -17t42.5 -6q39 0 61 15t22 41q0 32 -41 32q-35 1 -59 -23l-32 28q21 19 51.5 30t60.5 11q45 0 69 -18t24 -51q0 -51 -40.5 -81t-112.5 -30z" />
    <glyph glyph-name="Egrave" unicode="&#xc8;" horiz-adv-x="632" 
d="M267 657l-41 -234h350l-14 -84h-351l-45 -256h397l-15 -83h-502l130 740h491l-14 -83h-386zM399 802l-58 125h98l41 -125h-81z" />
    <glyph glyph-name="Eacute" unicode="&#xc9;" horiz-adv-x="632" 
d="M267 657l-41 -234h350l-14 -84h-351l-45 -256h397l-15 -83h-502l130 740h491l-14 -83h-386zM371 802l82 125h101l-99 -125h-84z" />
    <glyph glyph-name="Ecircumflex" unicode="&#xca;" horiz-adv-x="632" 
d="M267 657l-41 -234h350l-14 -84h-351l-45 -256h397l-15 -83h-502l130 740h491l-14 -83h-386zM436 905h-4l-74 -113h-76l84 125h140l46 -125h-76z" />
    <glyph glyph-name="Edieresis" unicode="&#xcb;" horiz-adv-x="632" 
d="M402 844h-95l19 113h95zM572 844h-95l19 113h95zM267 657l-41 -234h350l-14 -84h-351l-45 -256h397l-15 -83h-502l130 740h491l-14 -83h-386z" />
    <glyph glyph-name="Igrave" unicode="&#xcc;" horiz-adv-x="284" 
d="M176 740h105l-130 -740h-105zM201 802l-58 125h98l41 -125h-81z" />
    <glyph glyph-name="Iacute" unicode="&#xcd;" horiz-adv-x="284" 
d="M176 740h105l-130 -740h-105zM191 802l82 125h101l-99 -125h-84z" />
    <glyph glyph-name="Icircumflex" unicode="&#xce;" horiz-adv-x="284" 
d="M406 813h-82l-54 154h-2l-108 -154h-82l120 164h145zM176 740h105l-130 -740h-105z" />
    <glyph glyph-name="Idieresis" unicode="&#xcf;" horiz-adv-x="284" 
d="M134 957h95l-19 -113h-95zM304 957h95l-19 -113h-95zM176 740h105l-130 -740h-105z" />
    <glyph glyph-name="Eth" unicode="&#xd0;" horiz-adv-x="731" 
d="M408 740q73 0 129 -20t94.5 -58t58.5 -93t20 -124q0 -101 -30.5 -183t-87 -140t-136 -90t-178.5 -32h-224l62 355h-88l8 41h88l60 344h224zM299 83q69 0 125 25.5t95 72t60.5 111t21.5 143.5q0 104 -51.5 163t-149.5 59h-125l-46 -261h143l-7 -41h-143l-48 -272h125z" />
    <glyph glyph-name="Ntilde" unicode="&#xd1;" horiz-adv-x="743" 
d="M410 898q-23 0 -39 -17t-24 -46h-50q12 66 47.5 102t86.5 36q25 0 42.5 -9t31.5 -20.5t27.5 -20.5t31.5 -9q22 0 39 17t25 46h49q-12 -66 -47 -102t-87 -36q-25 0 -42 9t-31.5 20.5t-28 20.5t-31.5 9zM739 740l-130 -740h-178l-157 730h-2l-125 -730h-101l130 740h180
l157 -730h2l125 730h99z" />
    <glyph glyph-name="Ograve" unicode="&#xd2;" horiz-adv-x="763" 
d="M336 -10q-66 0 -116.5 20t-85 58.5t-52.5 93t-18 123.5q0 104 28.5 190t81.5 147t128 94.5t168 33.5q132 0 201.5 -77.5t69.5 -217.5q0 -104 -28.5 -190t-81.5 -147t-128 -94.5t-167 -33.5zM351 76q64 0 115.5 27t88.5 75.5t57 116.5t20 149q0 103 -45.5 161.5
t-131.5 58.5q-65 0 -117 -27t-88.5 -75.5t-56.5 -116t-20 -148.5q0 -104 45.5 -162.5t132.5 -58.5zM435 802l-58 125h98l41 -125h-81z" />
    <glyph glyph-name="Oacute" unicode="&#xd3;" horiz-adv-x="763" 
d="M336 -10q-66 0 -116.5 20t-85 58.5t-52.5 93t-18 123.5q0 104 28.5 190t81.5 147t128 94.5t168 33.5q132 0 201.5 -77.5t69.5 -217.5q0 -104 -28.5 -190t-81.5 -147t-128 -94.5t-167 -33.5zM351 76q64 0 115.5 27t88.5 75.5t57 116.5t20 149q0 103 -45.5 161.5
t-131.5 58.5q-65 0 -117 -27t-88.5 -75.5t-56.5 -116t-20 -148.5q0 -104 45.5 -162.5t132.5 -58.5zM414 802l82 125h101l-99 -125h-84z" />
    <glyph glyph-name="Ocircumflex" unicode="&#xd4;" horiz-adv-x="763" 
d="M470 750q132 0 201.5 -77.5t69.5 -217.5q0 -104 -28.5 -190t-81.5 -147t-128 -94.5t-167 -33.5q-66 0 -116.5 20t-85 58.5t-52.5 93t-18 123.5q0 104 28.5 190t81.5 147t128 94.5t168 33.5zM351 76q64 0 115.5 27t88.5 75.5t57 116.5t20 149q0 103 -45.5 161.5
t-131.5 58.5q-65 0 -117 -27t-88.5 -75.5t-56.5 -116t-20 -148.5q0 -104 45.5 -162.5t132.5 -58.5zM478 905h-4l-74 -113h-76l84 125h140l46 -125h-76z" />
    <glyph glyph-name="Otilde" unicode="&#xd5;" horiz-adv-x="763" 
d="M336 -10q-66 0 -116.5 20t-85 58.5t-52.5 93t-18 123.5q0 104 28.5 190t81.5 147t128 94.5t168 33.5q132 0 201.5 -77.5t69.5 -217.5q0 -104 -28.5 -190t-81.5 -147t-128 -94.5t-167 -33.5zM351 76q64 0 115.5 27t88.5 75.5t57 116.5t20 149q0 103 -45.5 161.5
t-131.5 58.5q-65 0 -117 -27t-88.5 -75.5t-56.5 -116t-20 -148.5q0 -104 45.5 -162.5t132.5 -58.5zM509 805q-18 0 -30 7t-22 15t-19.5 15t-22.5 7q-14 0 -22 -13.5t-13 -33.5h-58q9 57 38 88.5t71 31.5q18 0 30 -6.5t21.5 -15t18.5 -15t23 -6.5t23 13t14 33h58
q-9 -57 -39 -88.5t-71 -31.5z" />
    <glyph glyph-name="Odieresis" unicode="&#xd6;" horiz-adv-x="763" 
d="M374 957h95l-19 -113h-95zM544 957h95l-19 -113h-95zM336 -10q-66 0 -116.5 20t-85 58.5t-52.5 93t-18 123.5q0 104 28.5 190t81.5 147t128 94.5t168 33.5q132 0 201.5 -77.5t69.5 -217.5q0 -104 -28.5 -190t-81.5 -147t-128 -94.5t-167 -33.5zM351 76q64 0 115.5 27
t88.5 75.5t57 116.5t20 149q0 103 -45.5 161.5t-131.5 58.5q-65 0 -117 -27t-88.5 -75.5t-56.5 -116t-20 -148.5q0 -104 45.5 -162.5t132.5 -58.5z" />
    <glyph glyph-name="multiply" unicode="&#xd7;" horiz-adv-x="467" 
d="M265 246l123 -149l-38 -32l-123 149l-175 -149l-26 32l175 149l-123 149l38 32l123 -149l176 149l26 -32z" />
    <glyph glyph-name="Oslash" unicode="&#xd8;" horiz-adv-x="763" 
d="M671 672q70 -78 70 -217q0 -104 -28.5 -190t-81.5 -147t-128 -94.5t-167 -33.5q-99 0 -165 46l-58 -74l-39 27l62 78q-72 78 -72 218q0 104 28.5 190t81.5 147t128 94.5t168 33.5q101 0 165 -47l59 75l39 -27zM173 297q0 -86 32 -142l366 467q-45 42 -116 42
q-65 0 -117 -27t-88.5 -75.5t-56.5 -116t-20 -148.5zM351 76q64 0 115.5 27t88.5 75.5t57 116.5t20 149q0 83 -31 139l-366 -466q44 -41 116 -41z" />
    <glyph glyph-name="Ugrave" unicode="&#xd9;" horiz-adv-x="720" 
d="M625 740h100l-85 -483q-11 -63 -39 -112.5t-70 -84t-96.5 -52.5t-120.5 -18q-114 0 -175 53.5t-61 150.5q0 31 6 63l85 483h104l-86 -489q-3 -24 -3 -42q0 -63 38 -98t110 -35q84 0 138.5 46t68.5 129zM429 802l-58 125h98l41 -125h-81z" />
    <glyph glyph-name="Uacute" unicode="&#xda;" horiz-adv-x="720" 
d="M625 740h100l-85 -483q-11 -63 -39 -112.5t-70 -84t-96.5 -52.5t-120.5 -18q-114 0 -175 53.5t-61 150.5q0 31 6 63l85 483h104l-86 -489q-3 -24 -3 -42q0 -63 38 -98t110 -35q84 0 138.5 46t68.5 129zM393 802l82 125h101l-99 -125h-84z" />
    <glyph glyph-name="Ucircumflex" unicode="&#xdb;" horiz-adv-x="720" 
d="M380 813h-82l120 164h145l63 -164h-82l-54 154h-2zM725 740l-85 -483q-11 -63 -39 -112.5t-70 -84t-96.5 -52.5t-120.5 -18q-114 0 -175 53.5t-61 150.5q0 31 6 63l85 483h104l-86 -489q-3 -24 -3 -42q0 -63 38 -98t110 -35q84 0 138.5 46t68.5 129l86 489h100z" />
    <glyph glyph-name="Udieresis" unicode="&#xdc;" horiz-adv-x="720" 
d="M354 957h95l-19 -113h-95zM524 957h95l-19 -113h-95zM625 740h100l-85 -483q-11 -63 -39 -112.5t-70 -84t-96.5 -52.5t-120.5 -18q-114 0 -175 53.5t-61 150.5q0 31 6 63l85 483h104l-86 -489q-3 -24 -3 -42q0 -63 38 -98t110 -35q84 0 138.5 46t68.5 129z" />
    <glyph glyph-name="Yacute" unicode="&#xdd;" horiz-adv-x="672" 
d="M766 740l-495 -740h-115l186 283h-99l-145 457h122l137 -447h2l292 447h115zM379 802l82 125h101l-99 -125h-84z" />
    <glyph glyph-name="Thorn" unicode="&#xde;" horiz-adv-x="651" 
d="M415 608q107 0 164 -50t57 -140q0 -62 -21.5 -112.5t-61 -86t-95.5 -55t-125 -19.5h-157l-25 -145h-105l130 740h105l-23 -132h157zM354 228q39 0 71 13t54.5 36t35 56t12.5 74q0 55 -31 86t-90 31h-163l-52 -296h163z" />
    <glyph glyph-name="germandbls" unicode="&#xdf;" horiz-adv-x="626" 
d="M348 461q114 0 175 -50.5t61 -141.5q0 -62 -20 -113.5t-57 -88.5t-89.5 -57t-118.5 -20q-25 0 -48.5 3t-41.5 9l13 77q32 -8 70 -8q44 0 79 14t59.5 39.5t37.5 60.5t13 78q0 62 -38.5 96.5t-111.5 34.5h-31l12 69q82 4 129.5 42t47.5 103q0 42 -26 66.5t-75 24.5
q-65 0 -107 -35.5t-53 -100.5l-100 -563h-100l99 559q19 105 91.5 163t184.5 58q94 0 144.5 -36t50.5 -101q0 -85 -67 -132.5t-183 -47.5v-2v0z" />
    <glyph glyph-name="agrave" unicode="&#xe0;" 
d="M581 498l-88 -498h-100l29 166h-2q-14 -83 -70.5 -129.5t-141.5 -46.5q-82 0 -125 52t-43 146q0 71 18.5 130t52.5 101t81.5 65.5t106.5 23.5q75 0 114.5 -35t39.5 -100q0 -22 -4 -41h2l30 166h100zM265 71q70 0 117.5 48.5t61.5 129.5q2 14 3 25.5t1 23.5
q0 60 -30.5 94.5t-89.5 34.5q-42 0 -75.5 -16t-57.5 -45t-37 -69t-13 -89q0 -65 30.5 -101t89.5 -36zM307 560l-58 125h98l41 -125h-81z" />
    <glyph glyph-name="aacute" unicode="&#xe1;" 
d="M581 498l-88 -498h-100l29 166h-2q-14 -83 -70.5 -129.5t-141.5 -46.5q-82 0 -125 52t-43 146q0 71 18.5 130t52.5 101t81.5 65.5t106.5 23.5q75 0 114.5 -35t39.5 -100q0 -22 -4 -41h2l30 166h100zM265 71q70 0 117.5 48.5t61.5 129.5q2 14 3 25.5t1 23.5
q0 60 -30.5 94.5t-89.5 34.5q-42 0 -75.5 -16t-57.5 -45t-37 -69t-13 -89q0 -65 30.5 -101t89.5 -36zM297 560l82 125h101l-99 -125h-84z" />
    <glyph glyph-name="acircumflex" unicode="&#xe2;" 
d="M581 498l-88 -498h-100l29 166h-2q-14 -83 -70.5 -129.5t-141.5 -46.5q-82 0 -125 52t-43 146q0 71 18.5 130t52.5 101t81.5 65.5t106.5 23.5q75 0 114.5 -35t39.5 -100q0 -22 -4 -41h2l30 166h100zM265 71q70 0 117.5 48.5t61.5 129.5q2 14 3 25.5t1 23.5
q0 60 -30.5 94.5t-89.5 34.5q-42 0 -75.5 -16t-57.5 -45t-37 -69t-13 -89q0 -65 30.5 -101t89.5 -36zM365 663h-4l-74 -113h-76l84 125h140l46 -125h-76z" />
    <glyph glyph-name="atilde" unicode="&#xe3;" 
d="M581 498l-88 -498h-100l29 166h-2q-14 -83 -70.5 -129.5t-141.5 -46.5q-82 0 -125 52t-43 146q0 71 18.5 130t52.5 101t81.5 65.5t106.5 23.5q75 0 114.5 -35t39.5 -100q0 -22 -4 -41h2l30 166h100zM265 71q70 0 117.5 48.5t61.5 129.5q2 14 3 25.5t1 23.5
q0 60 -30.5 94.5t-89.5 34.5q-42 0 -75.5 -16t-57.5 -45t-37 -69t-13 -89q0 -65 30.5 -101t89.5 -36zM396 563q-18 0 -30 7t-22 15t-19.5 15t-22.5 7q-14 0 -22 -13.5t-13 -33.5h-58q9 57 38 88.5t71 31.5q18 0 30 -6.5t21.5 -15t18.5 -15t23 -6.5t23 13t14 33h58
q-9 -57 -39 -88.5t-71 -31.5z" />
    <glyph glyph-name="adieresis" unicode="&#xe4;" 
d="M322 602h-95l19 113h95zM492 602h-95l19 113h95zM581 498l-88 -498h-100l29 166h-2q-14 -83 -70.5 -129.5t-141.5 -46.5q-82 0 -125 52t-43 146q0 71 18.5 130t52.5 101t81.5 65.5t106.5 23.5q75 0 114.5 -35t39.5 -100q0 -22 -4 -41h2l30 166h100zM265 71
q70 0 117.5 48.5t61.5 129.5q2 14 3 25.5t1 23.5q0 60 -30.5 94.5t-89.5 34.5q-42 0 -75.5 -16t-57.5 -45t-37 -69t-13 -89q0 -65 30.5 -101t89.5 -36z" />
    <glyph glyph-name="aring" unicode="&#xe5;" 
d="M349 553q-51 0 -77.5 24.5t-26.5 67.5q0 61 39 97t105 36q51 0 78 -24.5t27 -67.5q0 -61 -39 -97t-106 -36zM380 726q-32 0 -51 -20t-19 -53q0 -23 12.5 -35.5t35.5 -12.5q33 0 52 20t19 53q0 23 -12.5 35.5t-36.5 12.5zM581 498l-88 -498h-100l29 166h-2
q-14 -83 -70.5 -129.5t-141.5 -46.5q-82 0 -125 52t-43 146q0 71 18.5 130t52.5 101t81.5 65.5t106.5 23.5q75 0 114.5 -35t39.5 -100q0 -22 -4 -41h2l30 166h100zM265 71q70 0 117.5 48.5t61.5 129.5q2 14 3 25.5t1 23.5q0 60 -30.5 94.5t-89.5 34.5q-42 0 -75.5 -16
t-57.5 -45t-37 -69t-13 -89q0 -65 30.5 -101t89.5 -36z" />
    <glyph glyph-name="ae" unicode="&#xe6;" horiz-adv-x="947" 
d="M754 508q76 0 117 -46t41 -131q0 -20 -1.5 -39.5t-6.5 -42.5l-3 -14h-373q-3 -21 -3 -40q0 -61 29 -94t83 -33q55 0 96 28.5t60 79.5h98q-26 -88 -86.5 -137t-142.5 -49q-69 0 -105.5 33.5t-36.5 95.5q0 10 1 20.5t3 21.5h-2l-29 -161h-100l29 166h-2
q-14 -83 -70.5 -129.5t-141.5 -46.5q-82 0 -125 52t-43 146q0 71 18.5 130t52.5 101t81.5 65.5t106.5 23.5q75 0 114.5 -35t39.5 -100q0 -22 -4 -41h2l30 166h100l-29 -162h2q14 81 66.5 126.5t133.5 45.5zM701 430q-60 0 -103 -40t-62 -113h274q1 7 1 13.5v13.5
q0 61 -28 93.5t-82 32.5zM265 71q70 0 117.5 48.5t61.5 129.5q2 14 3 25.5t1 23.5q0 60 -30.5 94.5t-89.5 34.5q-42 0 -75.5 -16t-57.5 -45t-37 -69t-13 -89q0 -65 30.5 -101t89.5 -36z" />
    <glyph glyph-name="ccedilla" unicode="&#xe7;" horiz-adv-x="561" 
d="M246 -10q-100 0 -153 54.5t-53 151.5q0 70 21 128t60 98.5t94 63t123 22.5q93 0 144.5 -47.5t56.5 -134.5h-99q-7 48 -36 74.5t-80 26.5q-41 0 -74.5 -16t-57 -45t-36.5 -69.5t-13 -89.5q0 -64 30.5 -100t87.5 -36q54 0 94 28.5t63 82.5h99q-32 -92 -102 -142t-169 -50z
M186 -240q-24 0 -48 5.5t-41 16.5l9 47q14 -11 34.5 -17t42.5 -6q39 0 61 15t22 41q0 32 -41 32q-35 1 -59 -23l-32 28q21 19 51.5 30t60.5 11q45 0 69 -18t24 -51q0 -51 -40.5 -81t-112.5 -30z" />
    <glyph glyph-name="egrave" unicode="&#xe8;" horiz-adv-x="560" 
d="M328 508q94 0 145.5 -49t51.5 -140q0 -16 -1.5 -33.5t-5.5 -36.5l-3 -14h-375q-1 -8 -1 -15v-15q0 -65 29 -101t83 -36q55 0 96 28.5t60 79.5h98q-28 -88 -98.5 -137t-169.5 -49q-95 0 -146 53.5t-51 149.5q0 71 20.5 129t58 99.5t90.5 64t119 22.5zM315 430
q-64 0 -108 -41.5t-60 -111.5h277q0 7 0.5 13.5t0.5 13.5q0 61 -28 93.5t-82 32.5zM297 560l-58 125h98l41 -125h-81z" />
    <glyph glyph-name="eacute" unicode="&#xe9;" horiz-adv-x="560" 
d="M328 508q94 0 145.5 -49t51.5 -140q0 -16 -1.5 -33.5t-5.5 -36.5l-3 -14h-375q-1 -8 -1 -15v-15q0 -65 29 -101t83 -36q55 0 96 28.5t60 79.5h98q-28 -88 -98.5 -137t-169.5 -49q-95 0 -146 53.5t-51 149.5q0 71 20.5 129t58 99.5t90.5 64t119 22.5zM315 430
q-64 0 -108 -41.5t-60 -111.5h277q0 7 0.5 13.5t0.5 13.5q0 61 -28 93.5t-82 32.5zM284 560l82 125h101l-99 -125h-84z" />
    <glyph glyph-name="ecircumflex" unicode="&#xea;" horiz-adv-x="560" 
d="M328 508q94 0 145.5 -49t51.5 -140q0 -16 -1.5 -33.5t-5.5 -36.5l-3 -14h-375q-1 -8 -1 -15v-15q0 -65 29 -101t83 -36q55 0 96 28.5t60 79.5h98q-28 -88 -98.5 -137t-169.5 -49q-95 0 -146 53.5t-51 149.5q0 71 20.5 129t58 99.5t90.5 64t119 22.5zM315 430
q-64 0 -108 -41.5t-60 -111.5h277q0 7 0.5 13.5t0.5 13.5q0 61 -28 93.5t-82 32.5zM350 663h-4l-74 -113h-76l84 125h140l46 -125h-76z" />
    <glyph glyph-name="edieresis" unicode="&#xeb;" horiz-adv-x="560" 
d="M308 602h-95l19 113h95zM478 602h-95l19 113h95zM328 508q94 0 145.5 -49t51.5 -140q0 -16 -1.5 -33.5t-5.5 -36.5l-3 -14h-375q-1 -8 -1 -15v-15q0 -65 29 -101t83 -36q55 0 96 28.5t60 79.5h98q-28 -88 -98.5 -137t-169.5 -49q-95 0 -146 53.5t-51 149.5q0 71 20.5 129
t58 99.5t90.5 64t119 22.5zM315 430q-64 0 -108 -41.5t-60 -111.5h277q0 7 0.5 13.5t0.5 13.5q0 61 -28 93.5t-82 32.5z" />
    <glyph glyph-name="igrave" unicode="&#xec;" horiz-adv-x="244" 
d="M216 498l-88 -498h-100l88 498h100zM136 560l-58 125h98l41 -125h-81z" />
    <glyph glyph-name="iacute" unicode="&#xed;" horiz-adv-x="244" 
d="M216 498l-88 -498h-100l88 498h100zM128 560l82 125h101l-99 -125h-84z" />
    <glyph glyph-name="icircumflex" unicode="&#xee;" horiz-adv-x="244" 
d="M344 571h-82l-54 154h-2l-108 -154h-82l120 164h145zM116 498h100l-88 -498h-100z" />
    <glyph glyph-name="idieresis" unicode="&#xef;" horiz-adv-x="244" 
d="M72 715h95l-19 -113h-95zM242 715h95l-19 -113h-95zM216 498l-88 -498h-100l88 498h100z" />
    <glyph glyph-name="eth" unicode="&#xf0;" horiz-adv-x="598" 
d="M420 679q75 -54 108.5 -121.5t33.5 -158.5q0 -29 -3.5 -60t-9.5 -65q-25 -144 -101.5 -214t-198.5 -70q-101 0 -155 53.5t-54 149.5q0 67 18 122.5t52 95.5t81.5 62.5t106.5 22.5q76 0 116 -42.5t40 -119.5q0 -14 -1.5 -29t-3.5 -31h2q12 69 12 123q0 83 -31 139
t-101 100l-154 -73l-24 52l116 55q-22 10 -46.5 19.5t-51.5 19.5l35 71q90 -30 157 -66l138 66l22 -52zM264 71q42 0 75.5 15.5t57.5 43.5t37 67.5t13 86.5q0 64 -31 99.5t-91 35.5q-41 0 -74.5 -15.5t-57 -43.5t-36.5 -67t-13 -87q0 -64 30.5 -99.5t89.5 -35.5z" />
    <glyph glyph-name="ntilde" unicode="&#xf1;" horiz-adv-x="586" 
d="M291 656q-23 0 -39 -17t-24 -46h-50q12 66 47.5 102t86.5 36q25 0 42.5 -9t31.5 -20.5t27.5 -20.5t31.5 -9q22 0 39 17t25 46h49q-12 -66 -47 -102t-87 -36q-25 0 -42 9t-31.5 20.5t-28 20.5t-31.5 9zM386 508q72 0 110 -38t38 -109q0 -13 -1 -26t-4 -28l-54 -307h-100
l54 304q1 8 1.5 15.5t0.5 15.5q0 44 -24.5 68t-72.5 24q-62 0 -103.5 -41t-54.5 -115l-48 -271h-100l88 498h100l-31 -173h2q16 87 68.5 135t130.5 48z" />
    <glyph glyph-name="ograve" unicode="&#xf2;" horiz-adv-x="589" 
d="M249 -10q-101 0 -155 54.5t-54 151.5q0 70 21.5 128t60.5 98.5t94.5 63t124.5 22.5q101 0 155 -54.5t54 -151.5q0 -71 -21 -128.5t-60.5 -98t-95 -63t-124.5 -22.5zM264 71q42 0 75.5 16t57.5 45t37 69t13 89q0 65 -31 101t-90 36q-42 0 -75.5 -16t-57.5 -45t-37 -69
t-13 -89q0 -65 31 -101t90 -36zM317 560l-58 125h98l41 -125h-81z" />
    <glyph glyph-name="oacute" unicode="&#xf3;" horiz-adv-x="589" 
d="M249 -10q-101 0 -155 54.5t-54 151.5q0 70 21.5 128t60.5 98.5t94.5 63t124.5 22.5q101 0 155 -54.5t54 -151.5q0 -71 -21 -128.5t-60.5 -98t-95 -63t-124.5 -22.5zM264 71q42 0 75.5 16t57.5 45t37 69t13 89q0 65 -31 101t-90 36q-42 0 -75.5 -16t-57.5 -45t-37 -69
t-13 -89q0 -65 31 -101t90 -36zM297 560l82 125h101l-99 -125h-84z" />
    <glyph glyph-name="ocircumflex" unicode="&#xf4;" horiz-adv-x="589" 
d="M341 508q101 0 155 -54.5t54 -151.5q0 -71 -21 -128.5t-60.5 -98t-95 -63t-124.5 -22.5q-101 0 -155 54.5t-54 151.5q0 70 21.5 128t60.5 98.5t94.5 63t124.5 22.5zM264 71q42 0 75.5 16t57.5 45t37 69t13 89q0 65 -31 101t-90 36q-42 0 -75.5 -16t-57.5 -45t-37 -69
t-13 -89q0 -65 31 -101t90 -36zM365 663h-4l-74 -113h-76l84 125h140l46 -125h-76z" />
    <glyph glyph-name="otilde" unicode="&#xf5;" horiz-adv-x="589" 
d="M249 -10q-101 0 -155 54.5t-54 151.5q0 70 21.5 128t60.5 98.5t94.5 63t124.5 22.5q101 0 155 -54.5t54 -151.5q0 -71 -21 -128.5t-60.5 -98t-95 -63t-124.5 -22.5zM264 71q42 0 75.5 16t57.5 45t37 69t13 89q0 65 -31 101t-90 36q-42 0 -75.5 -16t-57.5 -45t-37 -69
t-13 -89q0 -65 31 -101t90 -36zM396 563q-18 0 -30 7t-22 15t-19.5 15t-22.5 7q-14 0 -22 -13.5t-13 -33.5h-58q9 57 38 88.5t71 31.5q18 0 30 -6.5t21.5 -15t18.5 -15t23 -6.5t23 13t14 33h58q-9 -57 -39 -88.5t-71 -31.5z" />
    <glyph glyph-name="odieresis" unicode="&#xf6;" horiz-adv-x="589" 
d="M244 715h95l-19 -113h-95zM414 715h95l-19 -113h-95zM249 -10q-101 0 -155 54.5t-54 151.5q0 70 21.5 128t60.5 98.5t94.5 63t124.5 22.5q101 0 155 -54.5t54 -151.5q0 -71 -21 -128.5t-60.5 -98t-95 -63t-124.5 -22.5zM264 71q42 0 75.5 16t57.5 45t37 69t13 89
q0 65 -31 101t-90 36q-42 0 -75.5 -16t-57.5 -45t-37 -69t-13 -89q0 -65 31 -101t90 -36z" />
    <glyph glyph-name="divide" unicode="&#xf7;" horiz-adv-x="518" 
d="M279 364q-29 0 -29 25q0 19 11 30t29 11q30 0 30 -27q0 -39 -41 -39zM67 273h393l-8 -42h-393zM228 74q-29 0 -29 26q0 18 11 29t30 11q29 0 29 -27q0 -18 -10.5 -28.5t-30.5 -10.5z" />
    <glyph glyph-name="oslash" unicode="&#xf8;" horiz-adv-x="589" 
d="M494 455q56 -54 56 -153q0 -71 -21 -128.5t-60.5 -98t-95 -63t-124.5 -22.5t-119 28l-48 -58l-35 25l49 58q-56 54 -56 153q0 70 21.5 128t60.5 98.5t94.5 63t124.5 22.5t119 -28l48 58l35 -25zM143 208q0 -50 20 -84l235 282q-29 21 -72 21q-42 0 -75.5 -16t-57.5 -45
t-37 -69t-13 -89zM264 71q42 0 75.5 16t57.5 45t37 69t13 89q0 50 -20 84l-235 -282q28 -21 72 -21z" />
    <glyph glyph-name="ugrave" unicode="&#xf9;" horiz-adv-x="575" 
d="M547 498l-88 -498h-100l31 173h-2q-16 -87 -67 -135t-127 -48q-70 0 -106.5 38t-36.5 107q0 26 6 56l54 307h100l-54 -304q-3 -20 -3 -33q0 -44 24 -67t69 -23q59 0 99 41t53 115l48 271h100zM304 560l-58 125h98l41 -125h-81z" />
    <glyph glyph-name="uacute" unicode="&#xfa;" horiz-adv-x="575" 
d="M547 498l-88 -498h-100l31 173h-2q-16 -87 -67 -135t-127 -48q-70 0 -106.5 38t-36.5 107q0 26 6 56l54 307h100l-54 -304q-3 -20 -3 -33q0 -44 24 -67t69 -23q59 0 99 41t53 115l48 271h100zM280 560l82 125h101l-99 -125h-84z" />
    <glyph glyph-name="ucircumflex" unicode="&#xfb;" horiz-adv-x="575" 
d="M261 571h-82l120 164h145l63 -164h-82l-54 154h-2zM547 498l-88 -498h-100l31 173h-2q-16 -87 -67 -135t-127 -48q-70 0 -106.5 38t-36.5 107q0 26 6 56l54 307h100l-54 -304q-3 -20 -3 -33q0 -44 24 -67t69 -23q59 0 99 41t53 115l48 271h100z" />
    <glyph glyph-name="udieresis" unicode="&#xfc;" horiz-adv-x="575" 
d="M311 602h-95l19 113h95zM481 602h-95l19 113h95zM547 498l-88 -498h-100l31 173h-2q-16 -87 -67 -135t-127 -48q-70 0 -106.5 38t-36.5 107q0 26 6 56l54 307h100l-54 -304q-3 -20 -3 -33q0 -44 24 -67t69 -23q59 0 99 41t53 115l48 271h100z" />
    <glyph glyph-name="yacute" unicode="&#xfd;" horiz-adv-x="534" 
d="M556 498l-347 -728h-107l111 230h-84l-62 498h107l51 -491h2l222 491h107zM259 560l82 125h101l-99 -125h-84z" />
    <glyph glyph-name="thorn" unicode="&#xfe;" horiz-adv-x="610" 
d="M401 508q82 0 125.5 -52t43.5 -146q0 -71 -18.5 -130t-52.5 -101t-82 -65.5t-107 -23.5q-75 0 -115.5 34t-40.5 95q0 8 1 17.5t3 18.5h-2l-69 -385h-100l177 1000h100l-75 -427h2q14 78 69.5 121.5t140.5 43.5zM282 71q42 0 75.5 16t57.5 45t37 69t13 89q0 65 -31 101
t-90 36q-70 0 -117 -48.5t-62 -129.5q-2 -14 -3 -25.5t-1 -22.5q0 -60 30.5 -95t90.5 -35z" />
    <glyph glyph-name="ydieresis" unicode="&#xff;" horiz-adv-x="534" 
d="M296 602h-95l19 113h95zM466 602h-95l19 113h95zM556 498l-347 -728h-107l111 230h-84l-62 498h107l51 -491h2l222 491h107z" />
    <glyph glyph-name="Amacron" unicode="&#x100;" horiz-adv-x="695" 
d="M604 864h-296l13 73h296zM504 186h-340l-91 -186h-107l376 740h185l114 -740h-112zM493 270l-62 460h-2l-224 -460h288z" />
    <glyph glyph-name="amacron" unicode="&#x101;" 
d="M510 622h-296l13 73h296zM581 498l-88 -498h-100l29 166h-2q-14 -83 -70.5 -129.5t-141.5 -46.5q-82 0 -125 52t-43 146q0 71 18.5 130t52.5 101t81.5 65.5t106.5 23.5q75 0 114.5 -35t39.5 -100q0 -22 -4 -41h2l30 166h100zM265 71q70 0 117.5 48.5t61.5 129.5
q2 14 3 25.5t1 23.5q0 60 -30.5 94.5t-89.5 34.5q-42 0 -75.5 -16t-57.5 -45t-37 -69t-13 -89q0 -65 30.5 -101t89.5 -36z" />
    <glyph glyph-name="Abreve" unicode="&#x102;" horiz-adv-x="695" 
d="M504 186h-340l-91 -186h-107l376 740h185l114 -740h-112zM493 270l-62 460h-2l-224 -460h288zM444 792q-66 0 -95 32t-21 87h75q-5 -29 9.5 -42t41.5 -13t45 13t23 42h76q-8 -55 -48 -87t-106 -32z" />
    <glyph glyph-name="abreve" unicode="&#x103;" 
d="M581 498l-88 -498h-100l29 166h-2q-14 -83 -70.5 -129.5t-141.5 -46.5q-82 0 -125 52t-43 146q0 71 18.5 130t52.5 101t81.5 65.5t106.5 23.5q75 0 114.5 -35t39.5 -100q0 -22 -4 -41h2l30 166h100zM265 71q70 0 117.5 48.5t61.5 129.5q2 14 3 25.5t1 23.5
q0 60 -30.5 94.5t-89.5 34.5q-42 0 -75.5 -16t-57.5 -45t-37 -69t-13 -89q0 -65 30.5 -101t89.5 -36zM346 550q-66 0 -95 32t-21 87h75q-5 -29 9.5 -42t41.5 -13t45 13t23 42h76q-8 -55 -48 -87t-106 -32z" />
    <glyph glyph-name="Aogonek" unicode="&#x104;" horiz-adv-x="695" 
d="M516 -154q0 -25 29 -25q20 0 39 6t39 17l-11 -61q-21 -11 -47 -17t-55 -6q-39 0 -60 16.5t-21 45.5q0 26 19 56.5t48.5 57t65 44.5t69.5 18v2h-102l-25 186h-340l-91 -186h-107l376 740h185l114 -740q-58 -43 -91.5 -84t-33.5 -70zM493 270l-62 460h-2l-224 -460h288z
" />
    <glyph glyph-name="aogonek" unicode="&#x105;" 
d="M493 0q-58 -43 -91.5 -84t-33.5 -70q0 -25 29 -25q20 0 39 6t39 17l-11 -61q-21 -11 -47 -17t-55 -6q-39 0 -60 16.5t-21 45.5q0 26 19 56.5t48.5 57t65 44.5t69.5 18v2h-90l29 166h-2q-14 -83 -70.5 -129.5t-141.5 -46.5q-82 0 -125 52t-43 146q0 71 18.5 130t52.5 101
t81.5 65.5t106.5 23.5q75 0 114.5 -35t39.5 -100q0 -22 -4 -41h2l30 166h100zM265 71q70 0 117.5 48.5t61.5 129.5q2 14 3 25.5t1 23.5q0 60 -30.5 94.5t-89.5 34.5q-42 0 -75.5 -16t-57.5 -45t-37 -69t-13 -89q0 -65 30.5 -101t89.5 -36z" />
    <glyph glyph-name="Cacute" unicode="&#x106;" horiz-adv-x="723" 
d="M637 921l-202 -93l-19 55l199 98zM690 275q-21 -67 -56 -120t-81 -89.5t-101.5 -56t-118.5 -19.5q-130 0 -199.5 78t-69.5 216q0 105 28.5 190.5t81 147t127 95t166.5 33.5q123 0 190.5 -68t67.5 -190q0 -5 -0.5 -11t-0.5 -11h-100v7q-1 89 -46 138t-126 49
q-63 0 -114.5 -27t-88 -75.5t-56.5 -116.5t-20 -149q0 -103 45 -161.5t131 -58.5q81 0 144 52.5t96 146.5h101z" />
    <glyph glyph-name="cacute" unicode="&#x107;" horiz-adv-x="561" 
d="M508 679l-202 -93l-19 55l199 98zM246 -10q-100 0 -153 54.5t-53 151.5q0 70 21 128t60 98.5t94 63t123 22.5q93 0 144.5 -47.5t56.5 -134.5h-99q-7 48 -36 74.5t-80 26.5q-41 0 -74.5 -16t-57 -45t-36.5 -69.5t-13 -89.5q0 -64 30.5 -100t87.5 -36q54 0 94 28.5t63 82.5
h99q-32 -92 -102 -142t-169 -50z" />
    <glyph glyph-name="Cdotaccent" unicode="&#x10a;" horiz-adv-x="723" 
d="M453 957h100l-19 -113h-100zM690 275q-21 -67 -56 -120t-81 -89.5t-101.5 -56t-118.5 -19.5q-130 0 -199.5 78t-69.5 216q0 105 28.5 190.5t81 147t127 95t166.5 33.5q123 0 190.5 -68t67.5 -190q0 -5 -0.5 -11t-0.5 -11h-100v7q-1 89 -46 138t-126 49q-63 0 -114.5 -27
t-88 -75.5t-56.5 -116.5t-20 -149q0 -103 45 -161.5t131 -58.5q81 0 144 52.5t96 146.5h101z" />
    <glyph glyph-name="cdotaccent" unicode="&#x10b;" horiz-adv-x="561" 
d="M324 715h100l-19 -113h-100zM246 -10q-100 0 -153 54.5t-53 151.5q0 70 21 128t60 98.5t94 63t123 22.5q93 0 144.5 -47.5t56.5 -134.5h-99q-7 48 -36 74.5t-80 26.5q-41 0 -74.5 -16t-57 -45t-36.5 -69.5t-13 -89.5q0 -64 30.5 -100t87.5 -36q54 0 94 28.5t63 82.5h99
q-32 -92 -102 -142t-169 -50z" />
    <glyph glyph-name="Ccaron" unicode="&#x10c;" horiz-adv-x="723" 
d="M344 977h81l55 -155h2l108 155h81l-119 -164h-146zM624 470v7q-1 89 -46 138t-126 49q-63 0 -114.5 -27t-88 -75.5t-56.5 -116.5t-20 -149q0 -103 45 -161.5t131 -58.5q81 0 144 52.5t96 146.5h101q-21 -67 -56 -120t-81 -89.5t-101.5 -56t-118.5 -19.5q-130 0 -199.5 78
t-69.5 216q0 105 28.5 190.5t81 147t127 95t166.5 33.5q123 0 190.5 -68t67.5 -190q0 -5 -0.5 -11t-0.5 -11h-100z" />
    <glyph glyph-name="ccaron" unicode="&#x10d;" horiz-adv-x="561" 
d="M214 735h81l55 -155h2l108 155h81l-119 -164h-146zM324 427q-41 0 -74.5 -16t-57 -45t-36.5 -69.5t-13 -89.5q0 -64 30.5 -100t87.5 -36q54 0 94 28.5t63 82.5h99q-32 -92 -102 -142t-169 -50q-100 0 -153 54.5t-53 151.5q0 70 21 128t60 98.5t94 63t123 22.5
q93 0 144.5 -47.5t56.5 -134.5h-99q-7 48 -36 74.5t-80 26.5z" />
    <glyph glyph-name="Dcaron" unicode="&#x10e;" horiz-adv-x="724" 
d="M282 977h81l55 -155h2l108 155h81l-119 -164h-146zM400 740q73 0 129 -20t94.5 -58t58.5 -93t20 -124q0 -101 -30.5 -183t-87 -140t-136 -90t-178.5 -32h-224l130 740h224zM291 83q69 0 125 25.5t95 72t60.5 111t21.5 143.5q0 104 -51.5 163t-149.5 59h-125l-101 -574
h125z" />
    <glyph glyph-name="dcaron" unicode="&#x10f;" horiz-adv-x="636" 
d="M802 760l-93 -208l-65 20l86 208zM529 770h100l-136 -770h-100l29 166h-2q-14 -83 -70.5 -129.5t-141.5 -46.5q-82 0 -125 52t-43 146q0 71 18.5 130t52.5 101t81.5 65.5t106.5 23.5q75 0 114.5 -35t39.5 -100q0 -22 -4 -41h2zM265 71q70 0 117.5 48.5t61.5 129.5
q2 14 3 25.5t1 23.5q0 60 -30.5 94.5t-89.5 34.5q-42 0 -75.5 -16t-57.5 -45t-37 -69t-13 -89q0 -65 30.5 -101t89.5 -36z" />
    <glyph glyph-name="Dcroat" unicode="&#x110;" horiz-adv-x="731" 
d="M408 740q73 0 129 -20t94.5 -58t58.5 -93t20 -124q0 -101 -30.5 -183t-87 -140t-136 -90t-178.5 -32h-224l60 342h-88l12 67h88l58 331h224zM299 83q69 0 125 25.5t95 72t60.5 111t21.5 143.5q0 104 -51.5 163t-149.5 59h-125l-44 -248h143l-11 -67h-143l-46 -259h125z
" />
    <glyph glyph-name="dcroat" unicode="&#x111;" 
d="M265 71q70 0 117.5 48.5t61.5 129.5q2 14 3 25.5t1 23.5q0 60 -30.5 94.5t-89.5 34.5q-42 0 -75.5 -16t-57.5 -45t-37 -69t-13 -89q0 -65 30.5 -101t89.5 -36zM668 609h-68l-107 -609h-100l29 166h-2q-14 -83 -70.5 -129.5t-141.5 -46.5q-82 0 -125 52t-43 146
q0 71 18.5 130t52.5 101t81.5 65.5t106.5 23.5q75 0 114.5 -35t39.5 -100q0 -22 -4 -41h2l49 277h-169l12 61h168l18 100h100l-17 -100h67z" />
    <glyph glyph-name="Emacron" unicode="&#x112;" horiz-adv-x="632" 
d="M590 864h-296l13 73h296zM267 657l-41 -234h350l-14 -84h-351l-45 -256h397l-15 -83h-502l130 740h491l-14 -83h-386z" />
    <glyph glyph-name="emacron" unicode="&#x113;" horiz-adv-x="560" 
d="M496 622h-296l13 73h296zM328 508q94 0 145.5 -49t51.5 -140q0 -16 -1.5 -33.5t-5.5 -36.5l-3 -14h-375q-1 -8 -1 -15v-15q0 -65 29 -101t83 -36q55 0 96 28.5t60 79.5h98q-28 -88 -98.5 -137t-169.5 -49q-95 0 -146 53.5t-51 149.5q0 71 20.5 129t58 99.5t90.5 64
t119 22.5zM315 430q-64 0 -108 -41.5t-60 -111.5h277q0 7 0.5 13.5t0.5 13.5q0 61 -28 93.5t-82 32.5z" />
    <glyph glyph-name="Edotaccent" unicode="&#x116;" horiz-adv-x="632" 
d="M489 844h-100l19 113h100zM267 657l-41 -234h350l-14 -84h-351l-45 -256h397l-15 -83h-502l130 740h491l-14 -83h-386z" />
    <glyph glyph-name="edotaccent" unicode="&#x117;" horiz-adv-x="560" 
d="M395 602h-100l19 113h100zM328 508q94 0 145.5 -49t51.5 -140q0 -16 -1.5 -33.5t-5.5 -36.5l-3 -14h-375q-1 -8 -1 -15v-15q0 -65 29 -101t83 -36q55 0 96 28.5t60 79.5h98q-28 -88 -98.5 -137t-169.5 -49q-95 0 -146 53.5t-51 149.5q0 71 20.5 129t58 99.5t90.5 64
t119 22.5zM315 430q-64 0 -108 -41.5t-60 -111.5h277q0 7 0.5 13.5t0.5 13.5q0 61 -28 93.5t-82 32.5z" />
    <glyph glyph-name="Eogonek" unicode="&#x118;" horiz-adv-x="632" 
d="M267 657l-41 -234h350l-14 -84h-351l-45 -256h397l-15 -83h-107q-58 -43 -91.5 -84t-33.5 -70q0 -25 29 -25q20 0 39 6t39 17l-11 -61q-21 -11 -47 -17t-55 -6q-39 0 -60 16.5t-21 45.5q0 26 19 56.5t48.5 57t65 44.5t69.5 18v2h-385l130 740h491l-14 -83h-386z" />
    <glyph glyph-name="eogonek" unicode="&#x119;" horiz-adv-x="560" 
d="M328 508q94 0 145.5 -49t51.5 -140q0 -16 -1.5 -33.5t-5.5 -36.5l-3 -14h-375q-1 -8 -1 -15v-15q0 -65 29 -101t83 -36q55 0 96 28.5t60 79.5h98q-32 -99 -116 -148q-72 -52 -114 -100.5t-42 -81.5q0 -25 29 -25q20 0 39.5 6t38.5 17l-11 -61q-20 -11 -46.5 -17t-55.5 -6
q-39 0 -60 16.5t-21 45.5q0 23 17 49t46.5 51t68 48.5t81.5 41.5v1q-55 -23 -122 -23q-95 0 -146 53.5t-51 149.5q0 71 20.5 129t58 99.5t90.5 64t119 22.5zM315 430q-64 0 -108 -41.5t-60 -111.5h277q0 7 0.5 13.5t0.5 13.5q0 61 -28 93.5t-82 32.5z" />
    <glyph glyph-name="Ecaron" unicode="&#x11a;" horiz-adv-x="632" 
d="M299 977h81l55 -155h2l108 155h81l-119 -164h-146zM267 657l-41 -234h350l-14 -84h-351l-45 -256h397l-15 -83h-502l130 740h491l-14 -83h-386z" />
    <glyph glyph-name="ecaron" unicode="&#x11b;" horiz-adv-x="560" 
d="M205 735h81l55 -155h2l108 155h81l-119 -164h-146zM328 508q94 0 145.5 -49t51.5 -140q0 -16 -1.5 -33.5t-5.5 -36.5l-3 -14h-375q-1 -8 -1 -15v-15q0 -65 29 -101t83 -36q55 0 96 28.5t60 79.5h98q-28 -88 -98.5 -137t-169.5 -49q-95 0 -146 53.5t-51 149.5
q0 71 20.5 129t58 99.5t90.5 64t119 22.5zM315 430q-64 0 -108 -41.5t-60 -111.5h277q0 7 0.5 13.5t0.5 13.5q0 61 -28 93.5t-82 32.5z" />
    <glyph glyph-name="Gbreve" unicode="&#x11e;" horiz-adv-x="745" 
d="M480 809q-71 0 -103.5 44t-18.5 124h71q-8 -50 8.5 -77.5t53.5 -27.5t63 27.5t35 77.5h72q-15 -80 -62.5 -124t-118.5 -44zM622 478v7q-1 85 -45 132t-122 47q-64 0 -116 -27t-88.5 -76t-56.5 -116.5t-20 -149.5q0 -103 43.5 -161t127.5 -58q97 0 163.5 62t89.5 174h-222
l14 74h321l-67 -386h-99l47 267h-2q-12 -65 -38.5 -116.5t-66 -87t-90.5 -54.5t-111 -19q-106 0 -163 75.5t-57 209.5q0 108 29 195.5t82 150t127.5 96t166.5 33.5q121 0 187.5 -67t66.5 -186q0 -5 -0.5 -9.5t-0.5 -9.5h-100z" />
    <glyph glyph-name="gbreve" unicode="&#x11f;" 
d="M365 567q-71 0 -103.5 44t-18.5 124h71q-8 -50 8.5 -77.5t53.5 -27.5t63 27.5t35 77.5h72q-15 -80 -62.5 -124t-118.5 -44zM581 498l-90 -508q-20 -109 -93 -169.5t-188 -60.5q-101 0 -154.5 48t-48.5 134l97 13q-5 -54 27 -84t92 -30q67 0 111 37.5t56 105.5l33 186h-2
q-15 -83 -71 -129.5t-141 -46.5q-82 0 -125.5 51.5t-43.5 144.5q0 70 18.5 128.5t52.5 100.5t81.5 65.5t106.5 23.5q75 0 114.5 -35t39.5 -100q0 -22 -4 -41h2l30 166h100zM266 75q70 0 117 47.5t61 128.5q2 14 3 25t1 22q0 60 -30.5 94.5t-89.5 34.5q-42 0 -75.5 -16
t-57.5 -44.5t-37 -68t-13 -87.5q0 -65 30.5 -100.5t90.5 -35.5z" />
    <glyph glyph-name="Gdotaccent" unicode="&#x120;" horiz-adv-x="745" 
d="M536 844h-100l19 113h100zM622 478v7q-1 85 -45 132t-122 47q-64 0 -116 -27t-88.5 -76t-56.5 -116.5t-20 -149.5q0 -103 43.5 -161t127.5 -58q97 0 163.5 62t89.5 174h-222l14 74h321l-67 -386h-99l47 267h-2q-12 -65 -38.5 -116.5t-66 -87t-90.5 -54.5t-111 -19
q-106 0 -163 75.5t-57 209.5q0 108 29 195.5t82 150t127.5 96t166.5 33.5q121 0 187.5 -67t66.5 -186q0 -5 -0.5 -9.5t-0.5 -9.5h-100z" />
    <glyph glyph-name="gdotaccent" unicode="&#x121;" 
d="M421 602h-100l19 113h100zM581 498l-90 -508q-20 -109 -93 -169.5t-188 -60.5q-101 0 -154.5 48t-48.5 134l97 13q-5 -54 27 -84t92 -30q67 0 111 37.5t56 105.5l33 186h-2q-15 -83 -71 -129.5t-141 -46.5q-82 0 -125.5 51.5t-43.5 144.5q0 70 18.5 128.5t52.5 100.5
t81.5 65.5t106.5 23.5q75 0 114.5 -35t39.5 -100q0 -22 -4 -41h2l30 166h100zM266 75q70 0 117 47.5t61 128.5q2 14 3 25t1 22q0 60 -30.5 94.5t-89.5 34.5q-42 0 -75.5 -16t-57.5 -44.5t-37 -68t-13 -87.5q0 -65 30.5 -100.5t90.5 -35.5z" />
    <glyph glyph-name="Gcommaaccent" unicode="&#x122;" horiz-adv-x="745" 
d="M622 478v7q-1 85 -45 132t-122 47q-64 0 -116 -27t-88.5 -76t-56.5 -116.5t-20 -149.5q0 -103 43.5 -161t127.5 -58q97 0 163.5 62t89.5 174h-222l14 74h321l-67 -386h-99l47 267h-2q-12 -65 -38.5 -116.5t-66 -87t-90.5 -54.5t-111 -19q-106 0 -163 75.5t-57 209.5
q0 108 29 195.5t82 150t127.5 96t166.5 33.5q121 0 187.5 -67t66.5 -186q0 -5 -0.5 -9.5t-0.5 -9.5h-100zM277 -71h96l-11 -63q-8 -42 -35.5 -67t-79.5 -39l5 34q48 8 70 23.5t31 38.5h-89z" />
    <glyph glyph-name="gcommaaccent" unicode="&#x123;" 
d="M418 600h-96l12 67q8 41 35.5 64t78.5 34l-6 -33q-46 -5 -68 -18t-30 -33h89zM581 498l-90 -508q-20 -109 -93 -169.5t-188 -60.5q-101 0 -154.5 48t-48.5 134l97 13q-5 -54 27 -84t92 -30q67 0 111 37.5t56 105.5l33 186h-2q-15 -83 -71 -129.5t-141 -46.5
q-82 0 -125.5 51.5t-43.5 144.5q0 70 18.5 128.5t52.5 100.5t81.5 65.5t106.5 23.5q75 0 114.5 -35t39.5 -100q0 -22 -4 -41h2l30 166h100zM266 75q70 0 117 47.5t61 128.5q2 14 3 25t1 22q0 60 -30.5 94.5t-89.5 34.5q-42 0 -75.5 -16t-57.5 -44.5t-37 -68t-13 -87.5
q0 -65 30.5 -100.5t90.5 -35.5z" />
    <glyph glyph-name="Hbar" unicode="&#x126;" horiz-adv-x="745" 
d="M771 567h-61l-100 -567h-104l59 334h-354l-59 -334h-105l100 567h-61l8 41h60l23 132h105l-23 -132h354l23 132h104l-23 -132h62zM606 567h-354l-27 -150h354z" />
    <glyph glyph-name="hbar" unicode="&#x127;" horiz-adv-x="586" 
d="M386 508q72 0 110 -38t38 -109q0 -13 -1 -26t-4 -28l-54 -307h-100l54 304q1 8 1.5 15.5t0.5 15.5q0 44 -24.5 68t-72.5 24q-62 0 -103.5 -41t-54.5 -115l-48 -271h-100l109 619h-67l8 41h67l19 110h100l-20 -110h170l-7 -41h-170l-52 -294h2q16 87 68.5 135t130.5 48z
" />
    <glyph glyph-name="Itilde" unicode="&#x128;" horiz-adv-x="284" 
d="M281 805q-18 0 -30 7t-22 15t-19.5 15t-22.5 7q-14 0 -22 -13.5t-13 -33.5h-58q9 57 38 88.5t71 31.5q18 0 30 -6.5t21.5 -15t18.5 -15t23 -6.5t23 13t14 33h58q-9 -57 -39 -88.5t-71 -31.5zM176 740h105l-130 -740h-105z" />
    <glyph glyph-name="itilde" unicode="&#x129;" horiz-adv-x="244" 
d="M218 563q-18 0 -30 7t-22 15t-19.5 15t-22.5 7q-14 0 -22 -13.5t-13 -33.5h-58q9 57 38 88.5t71 31.5q18 0 30 -6.5t21.5 -15t18.5 -15t23 -6.5t23 13t14 33h58q-9 -57 -39 -88.5t-71 -31.5zM216 498l-88 -498h-100l88 498h100z" />
    <glyph glyph-name="Imacron" unicode="&#x12a;" horiz-adv-x="284" 
d="M412 937l-13 -73h-296l13 73h296zM176 740h105l-130 -740h-105z" />
    <glyph glyph-name="imacron" unicode="&#x12b;" horiz-adv-x="244" 
d="M349 695l-13 -73h-296l13 73h296zM216 498l-88 -498h-100l88 498h100z" />
    <glyph glyph-name="Iogonek" unicode="&#x12e;" horiz-adv-x="284" 
d="M151 0q-58 -43 -91.5 -84t-33.5 -70q0 -25 29 -25q20 0 39 6t39 17l-11 -61q-21 -11 -47 -17t-55 -6q-39 0 -60 16.5t-21 45.5q0 26 19 56.5t48.5 57t65 44.5t69.5 18v2h-95l130 740h105l-130 -740v0z" />
    <glyph glyph-name="iogonek" unicode="&#x12f;" horiz-adv-x="244" 
d="M254 715l-19 -113h-100l19 113h100zM116 498h100l-88 -498q-58 -43 -91.5 -84t-33.5 -70q0 -25 29 -25q20 0 39 6t39 17l-11 -61q-21 -11 -47 -17t-55 -6q-39 0 -60 16.5t-21 45.5q0 26 19 56.5t48.5 57t65 44.5t69.5 18v2h-90z" />
    <glyph glyph-name="Idotaccent" unicode="&#x130;" horiz-adv-x="284" 
d="M217 957h100l-19 -113h-100zM176 740h105l-130 -740h-105z" />
    <glyph glyph-name="dotlessi" unicode="&#x131;" horiz-adv-x="244" 
d="M216 498l-88 -498h-100l88 498h100z" />
    <glyph glyph-name="Kcommaaccent" unicode="&#x136;" horiz-adv-x="696" 
d="M337 386l327 -386h-136l-311 381h-2l-67 -381h-102l130 740h102l-61 -350h2l410 350h127zM260 -71h96l-11 -63q-8 -42 -35.5 -67t-79.5 -39l5 34q48 8 70 23.5t31 38.5h-89z" />
    <glyph glyph-name="kcommaaccent" unicode="&#x137;" horiz-adv-x="555" 
d="M290 261l224 -261h-128l-211 255h-2l-45 -255h-100l136 770h100l-90 -507h3l280 235h123zM177 -71h96l-11 -63q-8 -42 -35.5 -67t-79.5 -39l5 34q48 8 70 23.5t31 38.5h-89z" />
    <glyph glyph-name="Lacute" unicode="&#x139;" horiz-adv-x="544" 
d="M199 828l-19 55l199 98l22 -60zM501 86l-15 -86h-440l130 740h105l-114 -654h334z" />
    <glyph glyph-name="lacute" unicode="&#x13a;" horiz-adv-x="244" 
d="M387 951l-202 -93l-19 55l199 98zM164 770h100l-136 -770h-100z" />
    <glyph glyph-name="Lcommaaccent" unicode="&#x13b;" horiz-adv-x="544" 
d="M501 86l-15 -86h-440l130 740h105l-114 -654h334zM175 -71h96l-11 -63q-8 -42 -35.5 -67t-79.5 -39l5 34q48 8 70 23.5t31 38.5h-89z" />
    <glyph glyph-name="lcommaaccent" unicode="&#x13c;" horiz-adv-x="244" 
d="M264 770l-136 -770h-100l136 770h100zM19 -71h96l-11 -63q-8 -42 -35.5 -67t-79.5 -39l5 34q48 8 70 23.5t31 38.5h-89z" />
    <glyph glyph-name="Lcaron" unicode="&#x13d;" horiz-adv-x="551" 
d="M398 522l-64 20l85 208l72 -20zM501 86l-15 -86h-440l130 740h105l-114 -654h334z" />
    <glyph glyph-name="lcaron" unicode="&#x13e;" horiz-adv-x="284" 
d="M438 760l-93 -208l-65 20l86 208zM164 770h100l-136 -770h-100z" />
    <glyph glyph-name="Lslash" unicode="&#x141;" horiz-adv-x="551" 
d="M507 86l-15 -86h-440l53 300l-74 -42l8 48l74 42l69 392h105l-57 -328l181 102l-8 -47l-182 -103l-48 -278h334z" />
    <glyph glyph-name="lslash" unicode="&#x142;" horiz-adv-x="294" 
d="M297 459l-71 -46l-73 -413h-100l61 347l-70 -46l8 50l71 45l66 374h100l-54 -308l70 46z" />
    <glyph glyph-name="Nacute" unicode="&#x143;" horiz-adv-x="743" 
d="M429 828l-19 55l199 98l22 -60zM739 740l-130 -740h-178l-157 730h-2l-125 -730h-101l130 740h180l157 -730h2l125 730h99z" />
    <glyph glyph-name="nacute" unicode="&#x144;" horiz-adv-x="586" 
d="M310 586l-19 55l199 98l22 -60zM386 508q72 0 110 -38t38 -109q0 -13 -1 -26t-4 -28l-54 -307h-100l54 304q1 8 1.5 15.5t0.5 15.5q0 44 -24.5 68t-72.5 24q-62 0 -103.5 -41t-54.5 -115l-48 -271h-100l88 498h100l-31 -173h2q16 87 68.5 135t130.5 48z" />
    <glyph glyph-name="Ncommaaccent" unicode="&#x145;" horiz-adv-x="743" 
d="M739 740l-130 -740h-178l-157 730h-2l-125 -730h-101l130 740h180l157 -730h2l125 730h99zM268 -71h96l-11 -63q-8 -42 -35.5 -67t-79.5 -39l5 34q48 8 70 23.5t31 38.5h-89z" />
    <glyph glyph-name="ncommaaccent" unicode="&#x146;" horiz-adv-x="586" 
d="M386 508q72 0 110 -38t38 -109q0 -13 -1 -26t-4 -28l-54 -307h-100l54 304q1 8 1.5 15.5t0.5 15.5q0 44 -24.5 68t-72.5 24q-62 0 -103.5 -41t-54.5 -115l-48 -271h-100l88 498h100l-31 -173h2q16 87 68.5 135t130.5 48zM192 -71h96l-11 -63q-8 -42 -35.5 -67t-79.5 -39
l5 34q48 8 70 23.5t31 38.5h-89z" />
    <glyph glyph-name="Ncaron" unicode="&#x147;" horiz-adv-x="743" 
d="M337 977h81l55 -155h2l108 155h81l-119 -164h-146zM739 740l-130 -740h-178l-157 730h-2l-125 -730h-101l130 740h180l157 -730h2l125 730h99z" />
    <glyph glyph-name="ncaron" unicode="&#x148;" horiz-adv-x="586" 
d="M218 735h81l55 -155h2l108 155h81l-119 -164h-146zM386 508q72 0 110 -38t38 -109q0 -13 -1 -26t-4 -28l-54 -307h-100l54 304q1 8 1.5 15.5t0.5 15.5q0 44 -24.5 68t-72.5 24q-62 0 -103.5 -41t-54.5 -115l-48 -271h-100l88 498h100l-31 -173h2q16 87 68.5 135t130.5 48
z" />
    <glyph glyph-name="Eng" unicode="&#x14a;" horiz-adv-x="743" 
d="M739 740l-130 -740l-3 -16q-20 -106 -85.5 -165t-167.5 -59q-58 0 -98 22l42 79q24 -15 63 -15q55 0 92 34t48 95l4 25h-73l-157 730h-2l-125 -730h-101l130 740h180l157 -730h2l125 730h99z" />
    <glyph glyph-name="eng" unicode="&#x14b;" horiz-adv-x="586" 
d="M386 508q72 0 110 -38t38 -109q0 -13 -1 -26t-4 -28l-62 -355q-17 -91 -73.5 -141.5t-144.5 -50.5q-70 0 -111 29l41 70q17 -9 34 -13.5t38 -4.5q48 0 77 29t38 81l63 353q1 8 1.5 15.5t0.5 15.5q0 44 -24.5 68t-72.5 24q-62 0 -103.5 -41t-54.5 -115l-48 -271h-100
l88 498h100l-31 -173h2q16 87 68.5 135t130.5 48z" />
    <glyph glyph-name="Omacron" unicode="&#x14c;" horiz-adv-x="763" 
d="M651 937l-13 -73h-296l13 73h296zM336 -10q-66 0 -116.5 20t-85 58.5t-52.5 93t-18 123.5q0 104 28.5 190t81.5 147t128 94.5t168 33.5q132 0 201.5 -77.5t69.5 -217.5q0 -104 -28.5 -190t-81.5 -147t-128 -94.5t-167 -33.5zM351 76q64 0 115.5 27t88.5 75.5t57 116.5
t20 149q0 103 -45.5 161.5t-131.5 58.5q-65 0 -117 -27t-88.5 -75.5t-56.5 -116t-20 -148.5q0 -104 45.5 -162.5t132.5 -58.5z" />
    <glyph glyph-name="omacron" unicode="&#x14d;" horiz-adv-x="589" 
d="M522 695l-13 -73h-296l13 73h296zM249 -10q-101 0 -155 54.5t-54 151.5q0 70 21.5 128t60.5 98.5t94.5 63t124.5 22.5q101 0 155 -54.5t54 -151.5q0 -71 -21 -128.5t-60.5 -98t-95 -63t-124.5 -22.5zM264 71q42 0 75.5 16t57.5 45t37 69t13 89q0 65 -31 101t-90 36
q-42 0 -75.5 -16t-57.5 -45t-37 -69t-13 -89q0 -65 31 -101t90 -36z" />
    <glyph glyph-name="Ohungarumlaut" unicode="&#x150;" horiz-adv-x="763" 
d="M584 949l-181 -139l-35 44l173 143zM735 949l-181 -139l-35 44l173 143zM336 -10q-66 0 -116.5 20t-85 58.5t-52.5 93t-18 123.5q0 104 28.5 190t81.5 147t128 94.5t168 33.5q132 0 201.5 -77.5t69.5 -217.5q0 -104 -28.5 -190t-81.5 -147t-128 -94.5t-167 -33.5zM351 76
q64 0 115.5 27t88.5 75.5t57 116.5t20 149q0 103 -45.5 161.5t-131.5 58.5q-65 0 -117 -27t-88.5 -75.5t-56.5 -116t-20 -148.5q0 -104 45.5 -162.5t132.5 -58.5z" />
    <glyph glyph-name="ohungarumlaut" unicode="&#x151;" horiz-adv-x="589" 
d="M455 707l-181 -139l-35 44l173 143zM606 707l-181 -139l-35 44l173 143zM249 -10q-101 0 -155 54.5t-54 151.5q0 70 21.5 128t60.5 98.5t94.5 63t124.5 22.5q101 0 155 -54.5t54 -151.5q0 -71 -21 -128.5t-60.5 -98t-95 -63t-124.5 -22.5zM264 71q42 0 75.5 16t57.5 45
t37 69t13 89q0 65 -31 101t-90 36q-42 0 -75.5 -16t-57.5 -45t-37 -69t-13 -89q0 -65 31 -101t90 -36z" />
    <glyph glyph-name="OE" unicode="&#x152;" horiz-adv-x="1145" 
d="M784 657l-42 -234h348l-14 -84h-348l-46 -256h394l-14 -83h-499l45 257h-2q-11 -62 -37.5 -111.5t-67 -84t-93 -53t-114.5 -18.5q-112 0 -170.5 76t-58.5 210q0 105 26 192t73.5 149.5t114.5 97.5t149 35q108 0 166 -53t58 -150q0 -30 -6 -64h2l45 257h488l-15 -83h-382z
M353 76q54 0 100.5 21t83 59.5t61.5 93t37 120.5q4 23 5.5 43t1.5 40q0 97 -47 154t-138 57q-65 0 -117 -27t-88.5 -76t-56.5 -116t-20 -148q0 -104 45 -162.5t133 -58.5z" />
    <glyph glyph-name="oe" unicode="&#x153;" horiz-adv-x="952" 
d="M720 508q94 0 145.5 -49t51.5 -139q0 -17 -1.5 -34t-5.5 -37l-3 -14h-375q-1 -8 -1 -15v-15q0 -65 29 -101t83 -36q55 0 96 28.5t60 79.5h98q-28 -88 -98.5 -137t-169.5 -49q-97 0 -147 50t-50 141h-2q-16 -90 -74.5 -140.5t-147.5 -50.5q-82 0 -125 52t-43 146
q0 71 18.5 130t52.5 101t81.5 65.5t106.5 23.5q77 0 118 -37.5t41 -106.5q0 -11 -1 -23t-4 -24h2q33 91 101 141t164 50zM706 430q-64 0 -108 -41.5t-59 -111.5h277q0 7 0.5 13.5t0.5 13.5q0 61 -28.5 93.5t-82.5 32.5zM265 71q70 0 117.5 48.5t61.5 129.5q2 14 3 25.5
t1 23.5q0 60 -30.5 94.5t-89.5 34.5q-42 0 -75.5 -16t-57.5 -45t-37 -69t-13 -89q0 -65 30.5 -101t89.5 -36z" />
    <glyph glyph-name="Racute" unicode="&#x154;" horiz-adv-x="678" 
d="M371 828l-19 55l199 98l22 -60zM679 566q0 -57 -21 -104t-60 -80.5t-95 -51.5t-125 -18v-2q46 0 83.5 -25t56.5 -73l87 -212h-117l-122 310h-160l-55 -310h-105l130 740h273q112 0 171 -46t59 -128zM394 390q81 0 128 43.5t47 115.5q0 51 -33 79.5t-95 28.5h-174
l-47 -267h174z" />
    <glyph glyph-name="racute" unicode="&#x155;" horiz-adv-x="416" 
d="M219 586l-19 55l199 98l22 -60zM379 508q21 0 40.5 -4t33.5 -11l-46 -93q-13 8 -31 13t-37 5q-65 0 -109.5 -47.5t-59.5 -133.5l-42 -237h-100l88 498h100l-35 -195h2q17 97 69 151t127 54z" />
    <glyph glyph-name="Rcommaaccent" unicode="&#x156;" horiz-adv-x="678" 
d="M679 566q0 -57 -21 -104t-60 -80.5t-95 -51.5t-125 -18v-2q46 0 83.5 -25t56.5 -73l87 -212h-117l-122 310h-160l-55 -310h-105l130 740h273q112 0 171 -46t59 -128zM394 390q81 0 128 43.5t47 115.5q0 51 -33 79.5t-95 28.5h-174l-47 -267h174zM241 -71h96l-11 -63
q-8 -42 -35.5 -67t-79.5 -39l5 34q48 8 70 23.5t31 38.5h-89z" />
    <glyph glyph-name="rcommaaccent" unicode="&#x157;" horiz-adv-x="416" 
d="M379 508q21 0 40.5 -4t33.5 -11l-46 -93q-13 8 -31 13t-37 5q-65 0 -109.5 -47.5t-59.5 -133.5l-42 -237h-100l88 498h100l-35 -195h2q17 97 69 151t127 54zM19 -71h96l-11 -63q-8 -42 -35.5 -67t-79.5 -39l5 34q48 8 70 23.5t31 38.5h-89z" />
    <glyph glyph-name="Rcaron" unicode="&#x158;" horiz-adv-x="678" 
d="M279 977h81l55 -155h2l108 155h81l-119 -164h-146zM679 566q0 -57 -21 -104t-60 -80.5t-95 -51.5t-125 -18v-2q46 0 83.5 -25t56.5 -73l87 -212h-117l-122 310h-160l-55 -310h-105l130 740h273q112 0 171 -46t59 -128zM394 390q81 0 128 43.5t47 115.5q0 51 -33 79.5
t-95 28.5h-174l-47 -267h174z" />
    <glyph glyph-name="rcaron" unicode="&#x159;" horiz-adv-x="416" 
d="M128 735h81l55 -155h2l108 155h81l-119 -164h-146zM183 303q17 97 69 151t127 54q21 0 40.5 -4t33.5 -11l-46 -93q-13 8 -31 13t-37 5q-65 0 -109.5 -47.5t-59.5 -133.5l-42 -237h-100l88 498h100l-35 -195h2z" />
    <glyph glyph-name="Sacute" unicode="&#x15a;" horiz-adv-x="668" 
d="M590 921l-202 -93l-19 55l199 98zM286 -10q-119 0 -183.5 58.5t-64.5 166.5q0 10 0.5 20t1.5 21h104q-1 -8 -1.5 -14.5t-0.5 -13.5q0 -72 42 -112t119 -40q98 0 154 40.5t56 110.5q0 31 -15 50.5t-40 31.5t-57.5 18.5t-67.5 12.5q-41 7 -81 15.5t-72.5 25.5t-52.5 46
t-20 77q0 58 22 103.5t62.5 77t98.5 48.5t130 17q111 0 170.5 -56.5t59.5 -159.5v-18t-2 -20h-103q1 8 1 14.5v13.5q0 67 -37.5 103.5t-107.5 36.5q-86 0 -135.5 -36.5t-49.5 -99.5q0 -27 14 -44t37.5 -28t54 -17t63.5 -12q42 -7 84 -16t76.5 -27.5t56 -50t21.5 -82.5
q0 -60 -23.5 -108.5t-67.5 -82t-106 -52t-140 -18.5z" />
    <glyph glyph-name="sacute" unicode="&#x15b;" horiz-adv-x="510" 
d="M470 679l-202 -93l-19 55l199 98zM208 -10q-91 0 -140.5 35.5t-49.5 101.5q0 16 3 34h95q-1 -7 -1.5 -12t-0.5 -10q0 -39 27.5 -60.5t78.5 -21.5q63 0 99 24t36 66q0 20 -10 32.5t-27.5 21t-39.5 13t-46 9.5q-29 5 -58 11.5t-52.5 19t-38 33.5t-14.5 54q0 77 62 122
t168 45q85 0 131 -33.5t46 -96.5q0 -9 -1 -17.5t-3 -17.5h-95q2 7 2 12v10q0 37 -23 57t-68 20q-55 0 -87 -22t-32 -59q0 -17 9.5 -27.5t25 -17.5t36 -12t43.5 -9q30 -6 60.5 -13t55.5 -20t40.5 -35t15.5 -58q0 -41 -17 -74.5t-49.5 -56.5t-78 -35.5t-102.5 -12.5z" />
    <glyph glyph-name="Scedilla" unicode="&#x15e;" horiz-adv-x="668" 
d="M286 -10q-119 0 -183.5 58.5t-64.5 166.5q0 10 0.5 20t1.5 21h104q-1 -8 -1.5 -14.5t-0.5 -13.5q0 -72 42 -112t119 -40q98 0 154 40.5t56 110.5q0 31 -15 50.5t-40 31.5t-57.5 18.5t-67.5 12.5q-41 7 -81 15.5t-72.5 25.5t-52.5 46t-20 77q0 58 22 103.5t62.5 77
t98.5 48.5t130 17q111 0 170.5 -56.5t59.5 -159.5v-18t-2 -20h-103q1 8 1 14.5v13.5q0 67 -37.5 103.5t-107.5 36.5q-86 0 -135.5 -36.5t-49.5 -99.5q0 -27 14 -44t37.5 -28t54 -17t63.5 -12q42 -7 84 -16t76.5 -27.5t56 -50t21.5 -82.5q0 -60 -23.5 -108.5t-67.5 -82
t-106 -52t-140 -18.5zM225 -240q-24 0 -48 5.5t-41 16.5l9 47q14 -11 34.5 -17t42.5 -6q39 0 61 15t22 41q0 32 -41 32q-35 1 -59 -23l-32 28q21 19 51.5 30t60.5 11q45 0 69 -18t24 -51q0 -51 -40.5 -81t-112.5 -30z" />
    <glyph glyph-name="scedilla" unicode="&#x15f;" horiz-adv-x="510" 
d="M208 -10q-91 0 -140.5 35.5t-49.5 101.5q0 16 3 34h95q-1 -7 -1.5 -12t-0.5 -10q0 -39 27.5 -60.5t78.5 -21.5q63 0 99 24t36 66q0 20 -10 32.5t-27.5 21t-39.5 13t-46 9.5q-29 5 -58 11.5t-52.5 19t-38 33.5t-14.5 54q0 77 62 122t168 45q85 0 131 -33.5t46 -96.5
q0 -9 -1 -17.5t-3 -17.5h-95q2 7 2 12v10q0 37 -23 57t-68 20q-55 0 -87 -22t-32 -59q0 -17 9.5 -27.5t25 -17.5t36 -12t43.5 -9q30 -6 60.5 -13t55.5 -20t40.5 -35t15.5 -58q0 -41 -17 -74.5t-49.5 -56.5t-78 -35.5t-102.5 -12.5zM145 -240q-24 0 -48 5.5t-41 16.5l9 47
q14 -11 34.5 -17t42.5 -6q39 0 61 15t22 41q0 32 -41 32q-35 1 -59 -23l-32 28q21 19 51.5 30t60.5 11q45 0 69 -18t24 -51q0 -51 -40.5 -81t-112.5 -30z" />
    <glyph glyph-name="Scaron" unicode="&#x160;" horiz-adv-x="668" 
d="M296 977h81l55 -155h2l108 155h81l-119 -164h-146zM545 496q1 8 1 14.5v13.5q0 67 -37.5 103.5t-107.5 36.5q-86 0 -135.5 -36.5t-49.5 -99.5q0 -27 14 -44t37.5 -28t54 -17t63.5 -12q42 -7 84 -16t76.5 -27.5t56 -50t21.5 -82.5q0 -60 -23.5 -108.5t-67.5 -82t-106 -52
t-140 -18.5q-119 0 -183.5 58.5t-64.5 166.5q0 10 0.5 20t1.5 21h104q-1 -8 -1.5 -14.5t-0.5 -13.5q0 -72 42 -112t119 -40q98 0 154 40.5t56 110.5q0 31 -15 50.5t-40 31.5t-57.5 18.5t-67.5 12.5q-41 7 -81 15.5t-72.5 25.5t-52.5 46t-20 77q0 58 22 103.5t62.5 77
t98.5 48.5t130 17q111 0 170.5 -56.5t59.5 -159.5v-18t-2 -20h-103z" />
    <glyph glyph-name="scaron" unicode="&#x161;" horiz-adv-x="510" 
d="M176 735h81l55 -155h2l108 155h81l-119 -164h-146zM299 508q85 0 131 -33.5t46 -96.5q0 -9 -1 -17.5t-3 -17.5h-95q2 7 2 12v10q0 37 -23 57t-68 20q-55 0 -87 -22t-32 -59q0 -17 9.5 -27.5t25 -17.5t36 -12t43.5 -9q30 -6 60.5 -13t55.5 -20t40.5 -35t15.5 -58
q0 -41 -17 -74.5t-49.5 -56.5t-78 -35.5t-102.5 -12.5q-91 0 -140.5 35.5t-49.5 101.5q0 16 3 34h95q-1 -7 -1.5 -12t-0.5 -10q0 -39 27.5 -60.5t78.5 -21.5q63 0 99 24t36 66q0 20 -10 32.5t-27.5 21t-39.5 13t-46 9.5q-29 5 -58 11.5t-52.5 19t-38 33.5t-14.5 54
q0 77 62 122t168 45z" />
    <glyph glyph-name="uni0162" unicode="&#x162;" horiz-adv-x="585" 
d="M641 657h-224l-116 -657h-105l116 657h-224l14 83h553zM246 -60q45 0 69 -18t24 -51q0 -51 -40.5 -81t-112.5 -30q-24 0 -48 5.5t-41 16.5l9 47q14 -11 34.5 -17t42.5 -6q39 0 61 15t22 41q0 32 -41 32q-35 1 -59 -23l-32 28q21 19 51.5 30t60.5 11z" />
    <glyph glyph-name="uni0163" unicode="&#x163;" horiz-adv-x="380" 
d="M180 154q-1 -5 -1.5 -9.5t-0.5 -9.5q0 -31 19.5 -47.5t54.5 -16.5q39 0 73 16l-13 -76q-23 -10 -51 -15.5t-55 -5.5q-63 0 -97 30.5t-34 85.5q0 9 1 18.5t3 19.5l49 281h-76l12 73h83l31 170h99l-7 -42q-7 -44 -38 -76.5t-79 -49.5l-1 -2h253l-12 -73h-165zM145 -60
q45 0 69 -18t24 -51q0 -51 -40.5 -81t-112.5 -30q-24 0 -48 5.5t-41 16.5l9 47q14 -11 34.5 -17t42.5 -6q39 0 61 15t22 41q0 32 -41 32q-35 1 -59 -23l-32 28q21 19 51.5 30t60.5 11z" />
    <glyph glyph-name="Tcaron" unicode="&#x164;" horiz-adv-x="585" 
d="M257 977h81l55 -155h2l108 155h81l-119 -164h-146zM641 657h-224l-116 -657h-105l116 657h-224l14 83h553z" />
    <glyph glyph-name="tcaron" unicode="&#x165;" horiz-adv-x="380" 
d="M376 552l-65 20l86 208l71 -20zM152 498h253l-12 -73h-165l-48 -271q-1 -5 -1.5 -9.5t-0.5 -9.5q0 -31 19.5 -47.5t54.5 -16.5q39 0 73 16l-13 -76q-23 -10 -51 -15.5t-55 -5.5q-63 0 -97 30.5t-34 85.5q0 9 1 18.5t3 19.5l49 281h-76l12 73h83l31 170h99l-7 -42
q-7 -44 -38 -76.5t-79 -49.5z" />
    <glyph glyph-name="Tbar" unicode="&#x166;" horiz-adv-x="593" 
d="M421 657l-47 -269h114l-7 -41h-115l-61 -347h-105l61 347h-117l8 41h117l47 269h-224l14 83h553l-14 -83h-224z" />
    <glyph glyph-name="tbar" unicode="&#x167;" horiz-adv-x="393" 
d="M235 425l-27 -151h166l-7 -41h-166l-14 -79q-1 -5 -1.5 -9.5t-0.5 -9.5q0 -31 19.5 -47.5t54.5 -16.5q39 0 73 16l-13 -76q-23 -10 -51 -15.5t-55 -5.5q-63 0 -97 30.5t-34 85.5q0 9 1 18.5t3 19.5l16 89h-77l8 41h76l26 151h-76l12 73h83l31 170h99l-7 -42
q-7 -44 -38 -76.5t-79 -49.5l-1 -2h253l-12 -73h-165z" />
    <glyph glyph-name="Utilde" unicode="&#x168;" horiz-adv-x="720" 
d="M495 805q-18 0 -30 7t-22 15t-19.5 15t-22.5 7q-14 0 -22 -13.5t-13 -33.5h-58q9 57 38 88.5t71 31.5q18 0 30 -6.5t21.5 -15t18.5 -15t23 -6.5t23 13t14 33h58q-9 -57 -39 -88.5t-71 -31.5zM625 740h100l-85 -483q-11 -63 -39 -112.5t-70 -84t-96.5 -52.5t-120.5 -18
q-114 0 -175 53.5t-61 150.5q0 31 6 63l85 483h104l-86 -489q-3 -24 -3 -42q0 -63 38 -98t110 -35q84 0 138.5 46t68.5 129z" />
    <glyph glyph-name="utilde" unicode="&#x169;" horiz-adv-x="575" 
d="M380 563q-18 0 -30 7t-22 15t-19.5 15t-22.5 7q-14 0 -22 -13.5t-13 -33.5h-58q9 57 38 88.5t71 31.5q18 0 30 -6.5t21.5 -15t18.5 -15t23 -6.5t23 13t14 33h58q-9 -57 -39 -88.5t-71 -31.5zM547 498l-88 -498h-100l31 173h-2q-16 -87 -67 -135t-127 -48q-70 0 -106.5 38
t-36.5 107q0 26 6 56l54 307h100l-54 -304q-3 -20 -3 -33q0 -44 24 -67t69 -23q59 0 99 41t53 115l48 271h100z" />
    <glyph glyph-name="Umacron" unicode="&#x16a;" horiz-adv-x="720" 
d="M632 937l-13 -73h-296l13 73h296zM625 740h100l-85 -483q-11 -63 -39 -112.5t-70 -84t-96.5 -52.5t-120.5 -18q-114 0 -175 53.5t-61 150.5q0 31 6 63l85 483h104l-86 -489q-3 -24 -3 -42q0 -63 38 -98t110 -35q84 0 138.5 46t68.5 129z" />
    <glyph glyph-name="umacron" unicode="&#x16b;" horiz-adv-x="575" 
d="M499 622h-296l13 73h296zM547 498l-88 -498h-100l31 173h-2q-16 -87 -67 -135t-127 -48q-70 0 -106.5 38t-36.5 107q0 26 6 56l54 307h100l-54 -304q-3 -20 -3 -33q0 -44 24 -67t69 -23q59 0 99 41t53 115l48 271h100z" />
    <glyph glyph-name="Uring" unicode="&#x16e;" horiz-adv-x="720" 
d="M458 795q-51 0 -77.5 24.5t-26.5 67.5q0 61 39 97t105 36q51 0 78 -24.5t27 -67.5q0 -61 -39 -97t-106 -36zM467 847q33 0 52 20t19 53q0 23 -12.5 35.5t-36.5 12.5q-32 0 -51 -20t-19 -53q0 -23 12.5 -35.5t35.5 -12.5zM625 740h100l-85 -483q-11 -63 -39 -112.5
t-70 -84t-96.5 -52.5t-120.5 -18q-114 0 -175 53.5t-61 150.5q0 31 6 63l85 483h104l-86 -489q-3 -24 -3 -42q0 -63 38 -98t110 -35q84 0 138.5 46t68.5 129z" />
    <glyph glyph-name="uring" unicode="&#x16f;" horiz-adv-x="575" 
d="M339 553q-51 0 -77.5 24.5t-26.5 67.5q0 61 39 97t105 36q51 0 78 -24.5t27 -67.5q0 -61 -39 -97t-106 -36zM370 726q-32 0 -51 -20t-19 -53q0 -23 12.5 -35.5t35.5 -12.5q33 0 52 20t19 53q0 23 -12.5 35.5t-36.5 12.5zM547 498l-88 -498h-100l31 173h-2
q-16 -87 -67 -135t-127 -48q-70 0 -106.5 38t-36.5 107q0 26 6 56l54 307h100l-54 -304q-3 -20 -3 -33q0 -44 24 -67t69 -23q59 0 99 41t53 115l48 271h100z" />
    <glyph glyph-name="Uhungarumlaut" unicode="&#x170;" horiz-adv-x="720" 
d="M565 949l-181 -139l-35 44l173 143zM716 949l-181 -139l-35 44l173 143zM625 740h100l-85 -483q-11 -63 -39 -112.5t-70 -84t-96.5 -52.5t-120.5 -18q-114 0 -175 53.5t-61 150.5q0 31 6 63l85 483h104l-86 -489q-3 -24 -3 -42q0 -63 38 -98t110 -35q84 0 138.5 46
t68.5 129z" />
    <glyph glyph-name="uhungarumlaut" unicode="&#x171;" horiz-adv-x="575" 
d="M264 568l-35 44l173 143l43 -48zM380 612l173 143l43 -48l-181 -139zM447 498h100l-88 -498h-100l31 173h-2q-16 -87 -67 -135t-127 -48q-70 0 -106.5 38t-36.5 107q0 26 6 56l54 307h100l-54 -304q-3 -20 -3 -33q0 -44 24 -67t69 -23q59 0 99 41t53 115z" />
    <glyph glyph-name="Uogonek" unicode="&#x172;" horiz-adv-x="720" 
d="M725 740l-85 -483q-18 -102 -78 -167.5t-153 -88.5h1q-57 -45 -89.5 -85.5t-32.5 -69.5q0 -25 28 -25q20 0 39.5 6t38.5 17l-10 -61q-21 -11 -47.5 -17t-55.5 -6q-38 0 -59.5 16.5t-21.5 45.5q0 21 15.5 44.5t42 46.5t62 44t75.5 38l-1 3q-40 -8 -80 -8q-114 0 -175 53.5
t-61 150.5q0 31 6 63l85 483h104l-86 -489q-3 -24 -3 -42q0 -63 38 -98t110 -35q84 0 138.5 46t68.5 129l86 489h100z" />
    <glyph glyph-name="uogonek" unicode="&#x173;" horiz-adv-x="575" 
d="M459 0q-58 -43 -91.5 -84t-33.5 -70q0 -25 29 -25q20 0 39 6t39 17l-11 -61q-21 -11 -47 -17t-55 -6q-39 0 -60 16.5t-21 45.5q0 26 19 56.5t48.5 57t65 44.5t69.5 18v2h-90l31 173h-2q-16 -87 -67 -135t-127 -48q-70 0 -106.5 38t-36.5 107q0 26 6 56l54 307h100
l-54 -304q-3 -20 -3 -33q0 -44 24 -67t69 -23q59 0 99 41t53 115l48 271h100l-88 -498v0z" />
    <glyph glyph-name="Wcircumflex" unicode="&#x174;" horiz-adv-x="1027" 
d="M534 813h-82l120 164h145l63 -164h-82l-54 154h-2zM1089 740l-290 -740h-192l-8 730h-2l-264 -730h-193l-28 740h112l21 -730h2l267 730h176l12 -730h2l278 730h107z" />
    <glyph glyph-name="wcircumflex" unicode="&#x175;" horiz-adv-x="842" 
d="M397 571h-82l120 164h145l63 -164h-82l-54 154h-2zM861 498l-210 -498h-177l-9 491h-2l-181 -491h-178l-35 498h107l23 -491h2l181 491h169l9 -491h2l195 491h104z" />
    <glyph glyph-name="Ycircumflex" unicode="&#x176;" horiz-adv-x="672" 
d="M367 813h-82l120 164h145l63 -164h-82l-54 154h-2zM766 740l-495 -740h-115l186 283h-99l-145 457h122l137 -447h2l292 447h115z" />
    <glyph glyph-name="ycircumflex" unicode="&#x177;" horiz-adv-x="534" 
d="M246 571h-82l120 164h145l63 -164h-82l-54 154h-2zM556 498l-347 -728h-107l111 230h-84l-62 498h107l51 -491h2l222 491h107z" />
    <glyph glyph-name="Ydieresis" unicode="&#x178;" horiz-adv-x="672" 
d="M417 844h-95l19 113h95zM587 844h-95l19 113h95zM766 740l-495 -740h-115l186 283h-99l-145 457h122l137 -447h2l292 447h115z" />
    <glyph glyph-name="Zacute" unicode="&#x179;" horiz-adv-x="672" 
d="M398 828l-19 55l199 98l22 -60zM23 85l-1 -2h591l-15 -83h-602l33 193l649 462l1 2h-554l14 83h566l-34 -193z" />
    <glyph glyph-name="zacute" unicode="&#x17a;" horiz-adv-x="520" 
d="M274 586l-19 55l199 98l22 -60zM23 74l-1 -2h433l-12 -72h-445l30 168l458 255l1 2h-408l12 73h421l-29 -168z" />
    <glyph glyph-name="Zdotaccent" unicode="&#x17b;" horiz-adv-x="672" 
d="M496 844h-100l19 113h100zM23 85l-1 -2h591l-15 -83h-602l33 193l649 462l1 2h-554l14 83h566l-34 -193z" />
    <glyph glyph-name="zdotaccent" unicode="&#x17c;" horiz-adv-x="520" 
d="M372 602h-100l19 113h100zM23 74l-1 -2h433l-12 -72h-445l30 168l458 255l1 2h-408l12 73h421l-29 -168z" />
    <glyph glyph-name="Zcaron" unicode="&#x17d;" horiz-adv-x="672" 
d="M306 977h81l55 -155h2l108 155h81l-119 -164h-146zM23 85l-1 -2h591l-15 -83h-602l33 193l649 462l1 2h-554l14 83h566l-34 -193z" />
    <glyph glyph-name="zcaron" unicode="&#x17e;" horiz-adv-x="520" 
d="M182 735h81l55 -155h2l108 155h81l-119 -164h-146zM23 74l-1 -2h433l-12 -72h-445l30 168l458 255l1 2h-408l12 73h421l-29 -168z" />
    <glyph glyph-name="florin" unicode="&#x192;" horiz-adv-x="672" 
d="M624 750q33 0 65 -7t56 -19l-34 -73q-16 8 -37.5 13t-44.5 5q-44 0 -78 -29t-53 -82l-55 -155h153l-8 -41h-159l-75 -213q-27 -75 -83.5 -117t-131.5 -42q-33 0 -65 7t-55 19l34 73q15 -8 37 -13t46 -5q43 0 76.5 29t52.5 82l63 180h-145l8 41h152l66 188q27 75 83.5 117
t131.5 42z" />
    <glyph glyph-name="Ohorn" unicode="&#x1a0;" horiz-adv-x="763" 
d="M336 -10q-66 0 -116.5 20t-85 58.5t-52.5 93t-18 123.5q0 104 28.5 190t81.5 147t128 94.5t168 33.5q57 0 105 -17q20 6 35.5 27t23.5 70h93q-7 -45 -36 -76t-74 -39q61 -35 92.5 -101t31.5 -159q0 -104 -28.5 -190t-81.5 -147t-128 -94.5t-167 -33.5zM351 76
q64 0 115.5 27t88.5 75.5t57 116.5t20 149q0 103 -45.5 161.5t-131.5 58.5q-65 0 -117 -27t-88.5 -75.5t-56.5 -116t-20 -148.5q0 -104 45.5 -162.5t132.5 -58.5z" />
    <glyph glyph-name="ohorn" unicode="&#x1a1;" horiz-adv-x="589" 
d="M249 -10q-101 0 -155 54.5t-54 151.5q0 70 21.5 128t60.5 98.5t94.5 63t124.5 22.5q48 0 88 -14q17 8 31 28.5t21 65.5h93q-7 -43 -34.5 -74t-69.5 -40q80 -54 80 -172q0 -71 -21 -128.5t-60.5 -98t-95 -63t-124.5 -22.5zM264 71q42 0 75.5 16t57.5 45t37 69t13 89
q0 65 -31 101t-90 36q-42 0 -75.5 -16t-57.5 -45t-37 -69t-13 -89q0 -65 31 -101t90 -36z" />
    <glyph glyph-name="Uhorn" unicode="&#x1af;" horiz-adv-x="720" 
d="M625 740h9q13 0 26.5 3t25.5 13.5t21 30.5t14 53h93q-6 -39 -30.5 -68.5t-60.5 -41.5l-83 -473q-11 -63 -39 -112.5t-70 -84t-96.5 -52.5t-120.5 -18q-114 0 -175 53.5t-61 150.5q0 31 6 63l85 483h104l-86 -489q-3 -24 -3 -42q0 -63 38 -98t110 -35q84 0 138.5 46
t68.5 129z" />
    <glyph glyph-name="uhorn" unicode="&#x1b0;" horiz-adv-x="575" 
d="M457 498q13 0 26.5 3t25.5 13.5t21 30.5t14 53h93q-6 -40 -30.5 -69.5t-61.5 -41.5l-86 -487h-100l31 173h-2q-16 -87 -67 -135t-127 -48q-70 0 -106.5 38t-36.5 107q0 26 6 56l54 307h100l-54 -304q-3 -20 -3 -33q0 -44 24 -67t69 -23q59 0 99 41t53 115l48 271h10z" />
    <glyph glyph-name="Scommaaccent" unicode="&#x218;" horiz-adv-x="668" 
d="M545 496q1 8 1 14.5v13.5q0 67 -37.5 103.5t-107.5 36.5q-86 0 -135.5 -36.5t-49.5 -99.5q0 -27 14 -44t37.5 -28t54 -17t63.5 -12q42 -7 84 -16t76.5 -27.5t56 -50t21.5 -82.5q0 -60 -23.5 -108.5t-67.5 -82t-106 -52t-140 -18.5q-119 0 -183.5 58.5t-64.5 166.5
q0 10 0.5 20t1.5 21h104q-1 -8 -1.5 -14.5t-0.5 -13.5q0 -72 42 -112t119 -40q98 0 154 40.5t56 110.5q0 31 -15 50.5t-40 31.5t-57.5 18.5t-67.5 12.5q-41 7 -81 15.5t-72.5 25.5t-52.5 46t-20 77q0 58 22 103.5t62.5 77t98.5 48.5t130 17q111 0 170.5 -56.5t59.5 -159.5
v-18t-2 -20h-103zM228 -71h96l-11 -63q-8 -42 -35.5 -67t-79.5 -39l5 34q48 8 70 23.5t31 38.5h-89z" />
    <glyph glyph-name="scommaaccent" unicode="&#x219;" horiz-adv-x="510" 
d="M377 343q2 7 2 12v10q0 37 -23 57t-68 20q-55 0 -87 -22t-32 -59q0 -17 9.5 -27.5t25 -17.5t36 -12t43.5 -9q30 -6 60.5 -13t55.5 -20t40.5 -35t15.5 -58q0 -41 -17 -74.5t-49.5 -56.5t-78 -35.5t-102.5 -12.5q-91 0 -140.5 35.5t-49.5 101.5q0 16 3 34h95
q-1 -7 -1.5 -12t-0.5 -10q0 -39 27.5 -60.5t78.5 -21.5q63 0 99 24t36 66q0 20 -10 32.5t-27.5 21t-39.5 13t-46 9.5q-29 5 -58 11.5t-52.5 19t-38 33.5t-14.5 54q0 77 62 122t168 45q85 0 131 -33.5t46 -96.5q0 -9 -1 -17.5t-3 -17.5h-95zM148 -71h96l-11 -63
q-8 -42 -35.5 -67t-79.5 -39l5 34q48 8 70 23.5t31 38.5h-89z" />
    <glyph glyph-name="uni021A" unicode="&#x21a;" horiz-adv-x="585" 
d="M641 657h-224l-116 -657h-105l116 657h-224l14 83h553zM188 -71h96l-11 -63q-8 -42 -35.5 -67t-79.5 -39l5 34q48 8 70 23.5t31 38.5h-89z" />
    <glyph glyph-name="uni021B" unicode="&#x21b;" horiz-adv-x="380" 
d="M180 154q-1 -5 -1.5 -9.5t-0.5 -9.5q0 -31 19.5 -47.5t54.5 -16.5q39 0 73 16l-13 -76q-23 -10 -51 -15.5t-55 -5.5q-63 0 -97 30.5t-34 85.5q0 9 1 18.5t3 19.5l49 281h-76l12 73h83l31 170h99l-7 -42q-7 -44 -38 -76.5t-79 -49.5l-1 -2h253l-12 -73h-165zM87 -71h96
l-11 -63q-8 -42 -35.5 -67t-79.5 -39l5 34q48 8 70 23.5t31 38.5h-89z" />
    <glyph glyph-name="uni0237" unicode="&#x237;" horiz-adv-x="244" 
d="M216 498l-129 -728h-100l129 728h100z" />
    <glyph glyph-name="circumflex" unicode="&#x2c6;" horiz-adv-x="356" 
d="M399 571h-82l-54 154h-2l-108 -154h-82l120 164h145z" />
    <glyph glyph-name="caron" unicode="&#x2c7;" horiz-adv-x="356" 
d="M427 735l-119 -164h-146l-62 164h81l55 -155h2l108 155h81z" />
    <glyph glyph-name="breve" unicode="&#x2d8;" horiz-adv-x="347" 
d="M411 735q-15 -80 -62.5 -124t-118.5 -44t-103.5 44t-18.5 124h71q-8 -50 8.5 -77.5t53.5 -27.5t63 27.5t35 77.5h72v0z" />
    <glyph glyph-name="dotaccent" unicode="&#x2d9;" horiz-adv-x="223" 
d="M143 715h100l-19 -113h-100z" />
    <glyph glyph-name="ring" unicode="&#x2da;" horiz-adv-x="290" 
d="M198 553q-51 0 -77.5 24.5t-26.5 67.5q0 61 39 97t105 36q51 0 78 -24.5t27 -67.5q0 -61 -39 -97t-106 -36zM207 605q33 0 52 20t19 53q0 23 -12.5 35.5t-36.5 12.5q-32 0 -51 -20t-19 -53q0 -23 12.5 -35.5t35.5 -12.5z" />
    <glyph glyph-name="ogonek" unicode="&#x2db;" horiz-adv-x="230" 
d="M130 -217q-21 -11 -47 -17t-55 -6q-39 0 -60 16.5t-21 45.5q0 26 19 56.5t48.5 57t65 44.5t69.5 18v2h10q-58 -43 -91.5 -84t-33.5 -70q0 -25 29 -25q20 0 39 6t39 17l-11 -61v0z" />
    <glyph glyph-name="tilde" unicode="&#x2dc;" horiz-adv-x="419" 
d="M338 594q-25 0 -42 9t-31.5 20.5t-28 20.5t-31.5 9q-23 0 -39 -17t-24 -46h-50q12 66 47.5 102t86.5 36q25 0 42.5 -9t31.5 -20.5t27.5 -20.5t31.5 -9q22 0 39 17t25 46h49q-12 -66 -47 -102t-87 -36z" />
    <glyph glyph-name="hungarumlaut" unicode="&#x2dd;" horiz-adv-x="410" 
d="M308 707l-181 -139l-35 44l173 143zM459 707l-181 -139l-35 44l173 143z" />
    <glyph glyph-name="gravecomb" unicode="&#x300;" horiz-adv-x="0" 
d="M58 641l-39 -55l-169 93l44 60z" />
    <glyph glyph-name="acutecomb" unicode="&#x301;" horiz-adv-x="0" 
d="M60 679l-202 -93l-19 55l199 98z" />
    <glyph glyph-name="uni0302" unicode="&#x302;" horiz-adv-x="0" 
d="M43 571h-82l-54 154h-2l-108 -154h-82l120 164h145z" />
    <glyph glyph-name="tildecomb" unicode="&#x303;" horiz-adv-x="0" 
d="M-81 597q-25 0 -42 9t-31.5 20.5t-28 20.5t-31.5 9q-23 0 -39 -17t-24 -46h-50q12 66 47.5 102t86.5 36q25 0 42.5 -9t31.5 -20.5t27.5 -20.5t31.5 -9q22 0 39 17t25 46h49q-12 -66 -47 -102t-87 -36z" />
    <glyph glyph-name="uni0304" unicode="&#x304;" horiz-adv-x="0" 
d="M58 695l-13 -73h-296l13 73h296z" />
    <glyph glyph-name="uni0306" unicode="&#x306;" horiz-adv-x="0" 
d="M64 735q-15 -80 -62.5 -124t-118.5 -44t-103.5 44t-18.5 124h71q-8 -50 8.5 -77.5t53.5 -27.5t63 27.5t35 77.5h72v0z" />
    <glyph glyph-name="uni0307" unicode="&#x307;" horiz-adv-x="0" 
d="M-80 715h100l-19 -113h-100z" />
    <glyph glyph-name="uni0308" unicode="&#x308;" horiz-adv-x="0" 
d="M-250 715h95l-19 -113h-95zM-80 715h95l-19 -113h-95z" />
    <glyph glyph-name="uni030A" unicode="&#x30a;" horiz-adv-x="0" 
d="M-92 553q-51 0 -77.5 24.5t-26.5 67.5q0 61 39 97t105 36q51 0 78 -24.5t27 -67.5q0 -61 -39 -97t-106 -36zM-83 605q33 0 52 20t19 53q0 23 -12.5 35.5t-36.5 12.5q-32 0 -51 -20t-19 -53q0 -23 12.5 -35.5t35.5 -12.5z" />
    <glyph glyph-name="uni030B" unicode="&#x30b;" horiz-adv-x="0" 
d="M-102 707l-181 -139l-35 44l173 143zM49 707l-181 -139l-35 44l173 143z" />
    <glyph glyph-name="uni030C" unicode="&#x30c;" horiz-adv-x="0" 
d="M71 735l-119 -164h-146l-62 164h81l55 -155h2l108 155h81z" />
    <glyph glyph-name="uni0312" unicode="&#x312;" horiz-adv-x="0" 
d="M65 732q-46 -5 -68 -18t-30 -33h89l-15 -81h-96l12 67q8 41 35.5 64t78.5 34l-6 -33v0z" />
    <glyph glyph-name="uni0326" unicode="&#x326;" horiz-adv-x="0" 
d="M-87 -71l-11 -63q-8 -42 -35.5 -67t-79.5 -39l5 34q48 8 70 23.5t31 38.5h-89l13 73h96z" />
    <glyph glyph-name="uni0327" unicode="&#x327;" horiz-adv-x="0" 
d="M-245 -240q-24 0 -48 5.5t-41 16.5l9 47q14 -11 34.5 -17t42.5 -6q39 0 61 15t22 41q0 32 -41 32q-35 1 -59 -23l-32 28q21 19 51.5 30t60.5 11q45 0 69 -18t24 -51q0 -51 -40.5 -81t-112.5 -30z" />
    <glyph glyph-name="uni0328" unicode="&#x328;" horiz-adv-x="0" 
d="M-100 -217q-21 -11 -47 -17t-55 -6q-39 0 -60 16.5t-21 45.5q0 26 19 56.5t48.5 57t65 44.5t69.5 18v2h10q-58 -43 -91.5 -84t-33.5 -70q0 -25 29 -25q20 0 39 6t39 17l-11 -61v0z" />
    <glyph glyph-name="uni0335" unicode="&#x335;" horiz-adv-x="0" 
d="M-31 374l-7 -41h-337l8 41h336z" />
    <glyph glyph-name="uni0336" unicode="&#x336;" horiz-adv-x="0" 
d="M-715 374h685l-8 -41h-685z" />
    <glyph glyph-name="uni0337" unicode="&#x337;" horiz-adv-x="0" 
d="M46 513l-461 -553l-35 25l461 553z" />
    <glyph glyph-name="uni0338" unicode="&#x338;" horiz-adv-x="0" 
d="M68 751l-620 -789l-39 27l620 789z" />
    <glyph glyph-name="uni0394" unicode="&#x394;" horiz-adv-x="696" 
d="M642 0h-675l376 740h185zM519 83l-87 647h-2l-316 -647h405z" />
    <glyph glyph-name="uni03A9" unicode="&#x3a9;" horiz-adv-x="792" 
d="M460 84h231l-15 -84h-277l15 84q55 0 99 28.5t75.5 77t48.5 114t17 140.5q0 103 -47.5 161.5t-138.5 58.5q-66 0 -120 -26t-92 -74t-59 -117t-21 -154q0 -99 35.5 -154t104.5 -55l-15 -84h-277l15 84h231v2q-96 0 -146 63.5t-50 176.5q0 97 29 175.5t82 134t129 85
t169 29.5q138 0 211.5 -71.5t73.5 -199.5q0 -84 -21.5 -155.5t-62 -124.5t-97.5 -83t-127 -30v-2z" />
    <glyph glyph-name="uni03BC" unicode="&#x3bc;" horiz-adv-x="581" 
d="M553 498l-88 -498h-100l31 173h-2q-16 -87 -67 -135t-127 -48q-59 0 -94 27t-45 78l28 -322l-1 -3h-100l75 422v-1l54 307h100l-54 -304q-3 -20 -3 -33q0 -44 24 -67t69 -23q59 0 99 41t53 115l48 271h100z" />
    <glyph glyph-name="pi" unicode="&#x3c0;" horiz-adv-x="627" 
d="M640 425h-90l-76 -425h-100l76 425h-210l-76 -425h-100l76 425h-90l12 73h590z" />
    <glyph glyph-name="Wgrave" unicode="&#x1e80;" horiz-adv-x="1027" 
d="M663 828l-169 93l44 60l164 -98zM1089 740l-290 -740h-192l-8 730h-2l-264 -730h-193l-28 740h112l21 -730h2l267 730h176l12 -730h2l278 730h107z" />
    <glyph glyph-name="wgrave" unicode="&#x1e81;" horiz-adv-x="842" 
d="M526 586l-169 93l44 60l164 -98zM861 498l-210 -498h-177l-9 491h-2l-181 -491h-178l-35 498h107l23 -491h2l181 491h169l9 -491h2l195 491h104z" />
    <glyph glyph-name="Wacute" unicode="&#x1e82;" horiz-adv-x="1027" 
d="M573 828l-19 55l199 98l22 -60zM1089 740l-290 -740h-192l-8 730h-2l-264 -730h-193l-28 740h112l21 -730h2l267 730h176l12 -730h2l278 730h107z" />
    <glyph glyph-name="wacute" unicode="&#x1e83;" horiz-adv-x="842" 
d="M436 586l-19 55l199 98l22 -60zM861 498l-210 -498h-177l-9 491h-2l-181 -491h-178l-35 498h107l23 -491h2l181 491h169l9 -491h2l195 491h104z" />
    <glyph glyph-name="Wdieresis" unicode="&#x1e84;" horiz-adv-x="1027" 
d="M584 844h-95l19 113h95zM754 844h-95l19 113h95zM1089 740l-290 -740h-192l-8 730h-2l-264 -730h-193l-28 740h112l21 -730h2l267 730h176l12 -730h2l278 730h107z" />
    <glyph glyph-name="wdieresis" unicode="&#x1e85;" horiz-adv-x="842" 
d="M447 602h-95l19 113h95zM617 602h-95l19 113h95zM861 498l-210 -498h-177l-9 491h-2l-181 -491h-178l-35 498h107l23 -491h2l181 491h169l9 -491h2l195 491h104z" />
    <glyph glyph-name="uni1E9E" unicode="&#x1e9e;" horiz-adv-x="679" 
d="M365 415q128 0 197 -48t69 -134q0 -56 -21.5 -100.5t-61.5 -76.5t-97 -49t-128 -17q-27 0 -53 3t-46 9l15 84q20 -5 43.5 -7.5t49.5 -2.5q90 0 141 40t51 108q0 55 -44 86t-126 31h-49l14 76q98 4 155 43.5t57 105.5q0 46 -31.5 72t-91.5 26q-70 0 -115.5 -37t-56.5 -104
l-92 -523h-105l92 519q19 109 96 170t195 61q108 0 165 -39t57 -108q0 -44 -20 -78.5t-57.5 -58.5t-91 -36.5t-120.5 -12.5v-2h10v0z" />
    <glyph glyph-name="uni1EA0" unicode="&#x1ea0;" horiz-adv-x="695" 
d="M242 -72h97l-18 -110h-98zM504 186h-340l-91 -186h-107l376 740h185l114 -740h-112zM493 270l-62 460h-2l-224 -460h288z" />
    <glyph glyph-name="uni1EA1" unicode="&#x1ea1;" 
d="M202 -72h97l-18 -110h-98zM581 498l-88 -498h-100l29 166h-2q-14 -83 -70.5 -129.5t-141.5 -46.5q-82 0 -125 52t-43 146q0 71 18.5 130t52.5 101t81.5 65.5t106.5 23.5q75 0 114.5 -35t39.5 -100q0 -22 -4 -41h2l30 166h100zM265 71q70 0 117.5 48.5t61.5 129.5
q2 14 3 25.5t1 23.5q0 60 -30.5 94.5t-89.5 34.5q-42 0 -75.5 -16t-57.5 -45t-37 -69t-13 -89q0 -65 30.5 -101t89.5 -36z" />
    <glyph glyph-name="uni1EA2" unicode="&#x1ea2;" horiz-adv-x="695" 
d="M370 888q7 40 35.5 64t69.5 24q42 0 63 -21t16 -56q-4 -26 -24 -52.5t-53 -44.5h-73q36 20 57.5 44.5t24.5 42.5q2 19 -5 24.5t-17 5.5t-19.5 -5.5t-14.5 -25.5h-60zM504 186h-340l-91 -186h-107l376 740h185l114 -740h-112zM493 270l-62 460h-2l-224 -460h288z" />
    <glyph glyph-name="uni1EA3" unicode="&#x1ea3;" 
d="M280 646q7 40 35.5 64t69.5 24q42 0 63 -21t16 -56q-4 -26 -24 -52.5t-53 -44.5h-73q36 20 57.5 44.5t24.5 42.5q2 19 -5 24.5t-17 5.5t-19.5 -5.5t-14.5 -25.5h-60zM581 498l-88 -498h-100l29 166h-2q-14 -83 -70.5 -129.5t-141.5 -46.5q-82 0 -125 52t-43 146
q0 71 18.5 130t52.5 101t81.5 65.5t106.5 23.5q75 0 114.5 -35t39.5 -100q0 -22 -4 -41h2l30 166h100zM265 71q70 0 117.5 48.5t61.5 129.5q2 14 3 25.5t1 23.5q0 60 -30.5 94.5t-89.5 34.5q-42 0 -75.5 -16t-57.5 -45t-37 -69t-13 -89q0 -65 30.5 -101t89.5 -36z" />
    <glyph glyph-name="uni1EA4" unicode="&#x1ea4;" horiz-adv-x="695" 
d="M582 866l82 125h95l-99 -125h-78zM504 186h-340l-91 -186h-107l376 740h185l114 -740h-112zM493 270l-62 460h-2l-224 -460h288zM463 905h-4l-74 -113h-76l84 125h140l46 -125h-76z" />
    <glyph glyph-name="uni1EA5" unicode="&#x1ea5;" 
d="M484 624l82 125h95l-99 -125h-78zM581 498l-88 -498h-100l29 166h-2q-14 -83 -70.5 -129.5t-141.5 -46.5q-82 0 -125 52t-43 146q0 71 18.5 130t52.5 101t81.5 65.5t106.5 23.5q75 0 114.5 -35t39.5 -100q0 -22 -4 -41h2l30 166h100zM265 71q70 0 117.5 48.5t61.5 129.5
q2 14 3 25.5t1 23.5q0 60 -30.5 94.5t-89.5 34.5q-42 0 -75.5 -16t-57.5 -45t-37 -69t-13 -89q0 -65 30.5 -101t89.5 -36zM365 663h-4l-74 -113h-76l84 125h140l46 -125h-76z" />
    <glyph glyph-name="uni1EA6" unicode="&#x1ea6;" horiz-adv-x="695" 
d="M598 866l-58 125h91l41 -125h-74zM504 186h-340l-91 -186h-107l376 740h185l114 -740h-112zM493 270l-62 460h-2l-224 -460h288zM463 905h-4l-74 -113h-76l84 125h140l46 -125h-76z" />
    <glyph glyph-name="uni1EA7" unicode="&#x1ea7;" 
d="M500 624l-58 125h91l41 -125h-74zM581 498l-88 -498h-100l29 166h-2q-14 -83 -70.5 -129.5t-141.5 -46.5q-82 0 -125 52t-43 146q0 71 18.5 130t52.5 101t81.5 65.5t106.5 23.5q75 0 114.5 -35t39.5 -100q0 -22 -4 -41h2l30 166h100zM265 71q70 0 117.5 48.5t61.5 129.5
q2 14 3 25.5t1 23.5q0 60 -30.5 94.5t-89.5 34.5q-42 0 -75.5 -16t-57.5 -45t-37 -69t-13 -89q0 -65 30.5 -101t89.5 -36zM365 663h-4l-74 -113h-76l84 125h140l46 -125h-76z" />
    <glyph glyph-name="uni1EA8" unicode="&#x1ea8;" horiz-adv-x="695" 
d="M548 952q7 40 35.5 64t69.5 24q42 0 63 -21t16 -56q-4 -26 -24 -52.5t-53 -44.5h-73q36 20 57.5 44.5t24.5 42.5q2 19 -5 24.5t-17 5.5t-19.5 -5.5t-14.5 -25.5h-60zM504 186h-340l-91 -186h-107l376 740h185l114 -740h-112zM493 270l-62 460h-2l-224 -460h288zM463 905
h-4l-74 -113h-76l84 125h140l46 -125h-76z" />
    <glyph glyph-name="uni1EA9" unicode="&#x1ea9;" 
d="M450 710q7 40 35.5 64t69.5 24q42 0 63 -21t16 -56q-4 -26 -24 -52.5t-53 -44.5h-73q36 20 57.5 44.5t24.5 42.5q2 19 -5 24.5t-17 5.5t-19.5 -5.5t-14.5 -25.5h-60zM581 498l-88 -498h-100l29 166h-2q-14 -83 -70.5 -129.5t-141.5 -46.5q-82 0 -125 52t-43 146
q0 71 18.5 130t52.5 101t81.5 65.5t106.5 23.5q75 0 114.5 -35t39.5 -100q0 -22 -4 -41h2l30 166h100zM265 71q70 0 117.5 48.5t61.5 129.5q2 14 3 25.5t1 23.5q0 60 -30.5 94.5t-89.5 34.5q-42 0 -75.5 -16t-57.5 -45t-37 -69t-13 -89q0 -65 30.5 -101t89.5 -36zM365 663
h-4l-74 -113h-76l84 125h140l46 -125h-76z" />
    <glyph glyph-name="uni1EAA" unicode="&#x1eaa;" horiz-adv-x="695" 
d="M520 959q-18 0 -30 7t-22 15t-19.5 15t-22.5 7q-14 0 -22 -13.5t-13 -33.5h-58q9 57 38 88.5t71 31.5q18 0 30 -6.5t21.5 -15t18.5 -15t23 -6.5t23 13t14 33h58q-9 -57 -39 -88.5t-71 -31.5zM504 186h-340l-91 -186h-107l376 740h185l114 -740h-112zM493 270l-62 460h-2
l-224 -460h288zM463 905h-4l-74 -113h-76l84 125h140l46 -125h-76z" />
    <glyph glyph-name="uni1EAB" unicode="&#x1eab;" 
d="M422 717q-18 0 -30 7t-22 15t-19.5 15t-22.5 7q-14 0 -22 -13.5t-13 -33.5h-58q9 57 38 88.5t71 31.5q18 0 30 -6.5t21.5 -15t18.5 -15t23 -6.5t23 13t14 33h58q-9 -57 -39 -88.5t-71 -31.5zM581 498l-88 -498h-100l29 166h-2q-14 -83 -70.5 -129.5t-141.5 -46.5
q-82 0 -125 52t-43 146q0 71 18.5 130t52.5 101t81.5 65.5t106.5 23.5q75 0 114.5 -35t39.5 -100q0 -22 -4 -41h2l30 166h100zM265 71q70 0 117.5 48.5t61.5 129.5q2 14 3 25.5t1 23.5q0 60 -30.5 94.5t-89.5 34.5q-42 0 -75.5 -16t-57.5 -45t-37 -69t-13 -89
q0 -65 30.5 -101t89.5 -36zM365 663h-4l-74 -113h-76l84 125h140l46 -125h-76z" />
    <glyph glyph-name="uni1EAC" unicode="&#x1eac;" horiz-adv-x="695" 
d="M242 -72h97l-18 -110h-98zM504 186h-340l-91 -186h-107l376 740h185l114 -740h-112zM493 270l-62 460h-2l-224 -460h288zM463 905h-4l-74 -113h-76l84 125h140l46 -125h-76z" />
    <glyph glyph-name="uni1EAD" unicode="&#x1ead;" 
d="M202 -72h97l-18 -110h-98zM581 498l-88 -498h-100l29 166h-2q-14 -83 -70.5 -129.5t-141.5 -46.5q-82 0 -125 52t-43 146q0 71 18.5 130t52.5 101t81.5 65.5t106.5 23.5q75 0 114.5 -35t39.5 -100q0 -22 -4 -41h2l30 166h100zM265 71q70 0 117.5 48.5t61.5 129.5
q2 14 3 25.5t1 23.5q0 60 -30.5 94.5t-89.5 34.5q-42 0 -75.5 -16t-57.5 -45t-37 -69t-13 -89q0 -65 30.5 -101t89.5 -36zM365 663h-4l-74 -113h-76l84 125h140l46 -125h-76z" />
    <glyph glyph-name="uni1EAE" unicode="&#x1eae;" horiz-adv-x="695" 
d="M418 930l82 125h101l-99 -125h-84zM504 186h-340l-91 -186h-107l376 740h185l114 -740h-112zM493 270l-62 460h-2l-224 -460h288zM444 792q-66 0 -95 32t-21 87h75q-5 -29 9.5 -42t41.5 -13t45 13t23 42h76q-8 -55 -48 -87t-106 -32z" />
    <glyph glyph-name="uni1EAF" unicode="&#x1eaf;" 
d="M320 688l82 125h101l-99 -125h-84zM581 498l-88 -498h-100l29 166h-2q-14 -83 -70.5 -129.5t-141.5 -46.5q-82 0 -125 52t-43 146q0 71 18.5 130t52.5 101t81.5 65.5t106.5 23.5q75 0 114.5 -35t39.5 -100q0 -22 -4 -41h2l30 166h100zM265 71q70 0 117.5 48.5t61.5 129.5
q2 14 3 25.5t1 23.5q0 60 -30.5 94.5t-89.5 34.5q-42 0 -75.5 -16t-57.5 -45t-37 -69t-13 -89q0 -65 30.5 -101t89.5 -36zM346 550q-66 0 -95 32t-21 87h75q-5 -29 9.5 -42t41.5 -13t45 13t23 42h76q-8 -55 -48 -87t-106 -32z" />
    <glyph glyph-name="uni1EB0" unicode="&#x1eb0;" horiz-adv-x="695" 
d="M428 930l-58 125h98l41 -125h-81zM504 186h-340l-91 -186h-107l376 740h185l114 -740h-112zM493 270l-62 460h-2l-224 -460h288zM444 792q-66 0 -95 32t-21 87h75q-5 -29 9.5 -42t41.5 -13t45 13t23 42h76q-8 -55 -48 -87t-106 -32z" />
    <glyph glyph-name="uni1EB1" unicode="&#x1eb1;" 
d="M330 688l-58 125h98l41 -125h-81zM581 498l-88 -498h-100l29 166h-2q-14 -83 -70.5 -129.5t-141.5 -46.5q-82 0 -125 52t-43 146q0 71 18.5 130t52.5 101t81.5 65.5t106.5 23.5q75 0 114.5 -35t39.5 -100q0 -22 -4 -41h2l30 166h100zM265 71q70 0 117.5 48.5t61.5 129.5
q2 14 3 25.5t1 23.5q0 60 -30.5 94.5t-89.5 34.5q-42 0 -75.5 -16t-57.5 -45t-37 -69t-13 -89q0 -65 30.5 -101t89.5 -36zM346 550q-66 0 -95 32t-21 87h75q-5 -29 9.5 -42t41.5 -13t45 13t23 42h76q-8 -55 -48 -87t-106 -32z" />
    <glyph glyph-name="uni1EB2" unicode="&#x1eb2;" horiz-adv-x="695" 
d="M390 1015q7 40 35.5 64t69.5 24q42 0 63 -21t16 -56q-4 -26 -24 -52.5t-53 -44.5h-73q36 20 57.5 44.5t24.5 42.5q2 19 -5 24.5t-17 5.5t-19.5 -5.5t-14.5 -25.5h-60zM504 186h-340l-91 -186h-107l376 740h185l114 -740h-112zM493 270l-62 460h-2l-224 -460h288zM444 792
q-66 0 -95 32t-21 87h75q-5 -29 9.5 -42t41.5 -13t45 13t23 42h76q-8 -55 -48 -87t-106 -32z" />
    <glyph glyph-name="uni1EB3" unicode="&#x1eb3;" 
d="M292 774q7 40 35.5 64t69.5 24q42 0 63 -21t16 -56q-4 -26 -24 -52.5t-53 -44.5h-73q36 20 57.5 44.5t24.5 42.5q2 19 -5 24.5t-17 5.5t-19.5 -5.5t-14.5 -25.5h-60zM581 498l-88 -498h-100l29 166h-2q-14 -83 -70.5 -129.5t-141.5 -46.5q-82 0 -125 52t-43 146
q0 71 18.5 130t52.5 101t81.5 65.5t106.5 23.5q75 0 114.5 -35t39.5 -100q0 -22 -4 -41h2l30 166h100zM265 71q70 0 117.5 48.5t61.5 129.5q2 14 3 25.5t1 23.5q0 60 -30.5 94.5t-89.5 34.5q-42 0 -75.5 -16t-57.5 -45t-37 -69t-13 -89q0 -65 30.5 -101t89.5 -36zM346 550
q-66 0 -95 32t-21 87h75q-5 -29 9.5 -42t41.5 -13t45 13t23 42h76q-8 -55 -48 -87t-106 -32z" />
    <glyph glyph-name="uni1EB4" unicode="&#x1eb4;" horiz-adv-x="695" 
d="M517 954q-18 0 -30 7t-22 15t-19.5 15t-22.5 7q-14 0 -22 -13.5t-13 -33.5h-58q9 57 38 88.5t71 31.5q18 0 30 -6.5t21.5 -15t18.5 -15t23 -6.5t23 13t14 33h58q-9 -57 -39 -88.5t-71 -31.5zM504 186h-340l-91 -186h-107l376 740h185l114 -740h-112zM493 270l-62 460h-2
l-224 -460h288zM444 792q-66 0 -95 32t-21 87h75q-5 -29 9.5 -42t41.5 -13t45 13t23 42h76q-8 -55 -48 -87t-106 -32z" />
    <glyph glyph-name="uni1EB5" unicode="&#x1eb5;" 
d="M419 712q-18 0 -30 7t-22 15t-19.5 15t-22.5 7q-14 0 -22 -13.5t-13 -33.5h-58q9 57 38 88.5t71 31.5q18 0 30 -6.5t21.5 -15t18.5 -15t23 -6.5t23 13t14 33h58q-9 -57 -39 -88.5t-71 -31.5zM581 498l-88 -498h-100l29 166h-2q-14 -83 -70.5 -129.5t-141.5 -46.5
q-82 0 -125 52t-43 146q0 71 18.5 130t52.5 101t81.5 65.5t106.5 23.5q75 0 114.5 -35t39.5 -100q0 -22 -4 -41h2l30 166h100zM265 71q70 0 117.5 48.5t61.5 129.5q2 14 3 25.5t1 23.5q0 60 -30.5 94.5t-89.5 34.5q-42 0 -75.5 -16t-57.5 -45t-37 -69t-13 -89
q0 -65 30.5 -101t89.5 -36zM346 550q-66 0 -95 32t-21 87h75q-5 -29 9.5 -42t41.5 -13t45 13t23 42h76q-8 -55 -48 -87t-106 -32z" />
    <glyph glyph-name="uni1EB6" unicode="&#x1eb6;" horiz-adv-x="695" 
d="M242 -72h97l-18 -110h-98zM504 186h-340l-91 -186h-107l376 740h185l114 -740h-112zM493 270l-62 460h-2l-224 -460h288zM444 792q-66 0 -95 32t-21 87h75q-5 -29 9.5 -42t41.5 -13t45 13t23 42h76q-8 -55 -48 -87t-106 -32z" />
    <glyph glyph-name="uni1EB7" unicode="&#x1eb7;" 
d="M202 -72h97l-18 -110h-98zM581 498l-88 -498h-100l29 166h-2q-14 -83 -70.5 -129.5t-141.5 -46.5q-82 0 -125 52t-43 146q0 71 18.5 130t52.5 101t81.5 65.5t106.5 23.5q75 0 114.5 -35t39.5 -100q0 -22 -4 -41h2l30 166h100zM265 71q70 0 117.5 48.5t61.5 129.5
q2 14 3 25.5t1 23.5q0 60 -30.5 94.5t-89.5 34.5q-42 0 -75.5 -16t-57.5 -45t-37 -69t-13 -89q0 -65 30.5 -101t89.5 -36zM346 550q-66 0 -95 32t-21 87h75q-5 -29 9.5 -42t41.5 -13t45 13t23 42h76q-8 -55 -48 -87t-106 -32z" />
    <glyph glyph-name="uni1EB8" unicode="&#x1eb8;" horiz-adv-x="632" 
d="M242 -72h97l-18 -110h-98zM267 657l-41 -234h350l-14 -84h-351l-45 -256h397l-15 -83h-502l130 740h491l-14 -83h-386z" />
    <glyph glyph-name="uni1EB9" unicode="&#x1eb9;" horiz-adv-x="560" 
d="M192 -72h97l-18 -110h-98zM328 508q94 0 145.5 -49t51.5 -140q0 -16 -1.5 -33.5t-5.5 -36.5l-3 -14h-375q-1 -8 -1 -15v-15q0 -65 29 -101t83 -36q55 0 96 28.5t60 79.5h98q-28 -88 -98.5 -137t-169.5 -49q-95 0 -146 53.5t-51 149.5q0 71 20.5 129t58 99.5t90.5 64
t119 22.5zM315 430q-64 0 -108 -41.5t-60 -111.5h277q0 7 0.5 13.5t0.5 13.5q0 61 -28 93.5t-82 32.5z" />
    <glyph glyph-name="uni1EBA" unicode="&#x1eba;" horiz-adv-x="632" 
d="M350 888q7 40 35.5 64t69.5 24q42 0 63 -21t16 -56q-4 -26 -24 -52.5t-53 -44.5h-73q36 20 57.5 44.5t24.5 42.5q2 19 -5 24.5t-17 5.5t-19.5 -5.5t-14.5 -25.5h-60zM267 657l-41 -234h350l-14 -84h-351l-45 -256h397l-15 -83h-502l130 740h491l-14 -83h-386z" />
    <glyph glyph-name="uni1EBB" unicode="&#x1ebb;" horiz-adv-x="560" 
d="M260 646q7 40 35.5 64t69.5 24q42 0 63 -21t16 -56q-4 -26 -24 -52.5t-53 -44.5h-73q36 20 57.5 44.5t24.5 42.5q2 19 -5 24.5t-17 5.5t-19.5 -5.5t-14.5 -25.5h-60zM328 508q94 0 145.5 -49t51.5 -140q0 -16 -1.5 -33.5t-5.5 -36.5l-3 -14h-375q-1 -8 -1 -15v-15
q0 -65 29 -101t83 -36q55 0 96 28.5t60 79.5h98q-28 -88 -98.5 -137t-169.5 -49q-95 0 -146 53.5t-51 149.5q0 71 20.5 129t58 99.5t90.5 64t119 22.5zM315 430q-64 0 -108 -41.5t-60 -111.5h277q0 7 0.5 13.5t0.5 13.5q0 61 -28 93.5t-82 32.5z" />
    <glyph glyph-name="uni1EBC" unicode="&#x1ebc;" horiz-adv-x="632" 
d="M468 805q-18 0 -30 7t-22 15t-19.5 15t-22.5 7q-14 0 -22 -13.5t-13 -33.5h-58q9 57 38 88.5t71 31.5q18 0 30 -6.5t21.5 -15t18.5 -15t23 -6.5t23 13t14 33h58q-9 -57 -39 -88.5t-71 -31.5zM267 657l-41 -234h350l-14 -84h-351l-45 -256h397l-15 -83h-502l130 740h491
l-14 -83h-386z" />
    <glyph glyph-name="uni1EBD" unicode="&#x1ebd;" horiz-adv-x="560" 
d="M380 563q-18 0 -30 7t-22 15t-19.5 15t-22.5 7q-14 0 -22 -13.5t-13 -33.5h-58q9 57 38 88.5t71 31.5q18 0 30 -6.5t21.5 -15t18.5 -15t23 -6.5t23 13t14 33h58q-9 -57 -39 -88.5t-71 -31.5zM328 508q94 0 145.5 -49t51.5 -140q0 -16 -1.5 -33.5t-5.5 -36.5l-3 -14h-375
q-1 -8 -1 -15v-15q0 -65 29 -101t83 -36q55 0 96 28.5t60 79.5h98q-28 -88 -98.5 -137t-169.5 -49q-95 0 -146 53.5t-51 149.5q0 71 20.5 129t58 99.5t90.5 64t119 22.5zM315 430q-64 0 -108 -41.5t-60 -111.5h277q0 7 0.5 13.5t0.5 13.5q0 61 -28 93.5t-82 32.5z" />
    <glyph glyph-name="uni1EBE" unicode="&#x1ebe;" horiz-adv-x="632" 
d="M555 866l82 125h95l-99 -125h-78zM267 657l-41 -234h350l-14 -84h-351l-45 -256h397l-15 -83h-502l130 740h491l-14 -83h-386zM436 905h-4l-74 -113h-76l84 125h140l46 -125h-76z" />
    <glyph glyph-name="uni1EBF" unicode="&#x1ebf;" horiz-adv-x="560" 
d="M469 624l82 125h95l-99 -125h-78zM328 508q94 0 145.5 -49t51.5 -140q0 -16 -1.5 -33.5t-5.5 -36.5l-3 -14h-375q-1 -8 -1 -15v-15q0 -65 29 -101t83 -36q55 0 96 28.5t60 79.5h98q-28 -88 -98.5 -137t-169.5 -49q-95 0 -146 53.5t-51 149.5q0 71 20.5 129t58 99.5
t90.5 64t119 22.5zM315 430q-64 0 -108 -41.5t-60 -111.5h277q0 7 0.5 13.5t0.5 13.5q0 61 -28 93.5t-82 32.5zM350 663h-4l-74 -113h-76l84 125h140l46 -125h-76z" />
    <glyph glyph-name="uni1EC0" unicode="&#x1ec0;" horiz-adv-x="632" 
d="M571 866l-58 125h91l41 -125h-74zM267 657l-41 -234h350l-14 -84h-351l-45 -256h397l-15 -83h-502l130 740h491l-14 -83h-386zM436 905h-4l-74 -113h-76l84 125h140l46 -125h-76z" />
    <glyph glyph-name="uni1EC1" unicode="&#x1ec1;" horiz-adv-x="560" 
d="M485 624l-58 125h91l41 -125h-74zM328 508q94 0 145.5 -49t51.5 -140q0 -16 -1.5 -33.5t-5.5 -36.5l-3 -14h-375q-1 -8 -1 -15v-15q0 -65 29 -101t83 -36q55 0 96 28.5t60 79.5h98q-28 -88 -98.5 -137t-169.5 -49q-95 0 -146 53.5t-51 149.5q0 71 20.5 129t58 99.5
t90.5 64t119 22.5zM315 430q-64 0 -108 -41.5t-60 -111.5h277q0 7 0.5 13.5t0.5 13.5q0 61 -28 93.5t-82 32.5zM350 663h-4l-74 -113h-76l84 125h140l46 -125h-76z" />
    <glyph glyph-name="uni1EC2" unicode="&#x1ec2;" horiz-adv-x="632" 
d="M521 952q7 40 35.5 64t69.5 24q42 0 63 -21t16 -56q-4 -26 -24 -52.5t-53 -44.5h-73q36 20 57.5 44.5t24.5 42.5q2 19 -5 24.5t-17 5.5t-19.5 -5.5t-14.5 -25.5h-60zM267 657l-41 -234h350l-14 -84h-351l-45 -256h397l-15 -83h-502l130 740h491l-14 -83h-386zM436 905h-4
l-74 -113h-76l84 125h140l46 -125h-76z" />
    <glyph glyph-name="uni1EC3" unicode="&#x1ec3;" horiz-adv-x="560" 
d="M435 710q7 40 35.5 64t69.5 24q42 0 63 -21t16 -56q-4 -26 -24 -52.5t-53 -44.5h-73q36 20 57.5 44.5t24.5 42.5q2 19 -5 24.5t-17 5.5t-19.5 -5.5t-14.5 -25.5h-60zM328 508q94 0 145.5 -49t51.5 -140q0 -16 -1.5 -33.5t-5.5 -36.5l-3 -14h-375q-1 -8 -1 -15v-15
q0 -65 29 -101t83 -36q55 0 96 28.5t60 79.5h98q-28 -88 -98.5 -137t-169.5 -49q-95 0 -146 53.5t-51 149.5q0 71 20.5 129t58 99.5t90.5 64t119 22.5zM315 430q-64 0 -108 -41.5t-60 -111.5h277q0 7 0.5 13.5t0.5 13.5q0 61 -28 93.5t-82 32.5zM350 663h-4l-74 -113h-76
l84 125h140l46 -125h-76z" />
    <glyph glyph-name="uni1EC4" unicode="&#x1ec4;" horiz-adv-x="632" 
d="M493 959q-18 0 -30 7t-22 15t-19.5 15t-22.5 7q-14 0 -22 -13.5t-13 -33.5h-58q9 57 38 88.5t71 31.5q18 0 30 -6.5t21.5 -15t18.5 -15t23 -6.5t23 13t14 33h58q-9 -57 -39 -88.5t-71 -31.5zM267 657l-41 -234h350l-14 -84h-351l-45 -256h397l-15 -83h-502l130 740h491
l-14 -83h-386zM436 905h-4l-74 -113h-76l84 125h140l46 -125h-76z" />
    <glyph glyph-name="uni1EC5" unicode="&#x1ec5;" horiz-adv-x="560" 
d="M407 717q-18 0 -30 7t-22 15t-19.5 15t-22.5 7q-14 0 -22 -13.5t-13 -33.5h-58q9 57 38 88.5t71 31.5q18 0 30 -6.5t21.5 -15t18.5 -15t23 -6.5t23 13t14 33h58q-9 -57 -39 -88.5t-71 -31.5zM328 508q94 0 145.5 -49t51.5 -140q0 -16 -1.5 -33.5t-5.5 -36.5l-3 -14h-375
q-1 -8 -1 -15v-15q0 -65 29 -101t83 -36q55 0 96 28.5t60 79.5h98q-28 -88 -98.5 -137t-169.5 -49q-95 0 -146 53.5t-51 149.5q0 71 20.5 129t58 99.5t90.5 64t119 22.5zM315 430q-64 0 -108 -41.5t-60 -111.5h277q0 7 0.5 13.5t0.5 13.5q0 61 -28 93.5t-82 32.5zM350 663
h-4l-74 -113h-76l84 125h140l46 -125h-76z" />
    <glyph glyph-name="uni1EC6" unicode="&#x1ec6;" horiz-adv-x="632" 
d="M242 -72h97l-18 -110h-98zM267 657l-41 -234h350l-14 -84h-351l-45 -256h397l-15 -83h-502l130 740h491l-14 -83h-386zM436 905h-4l-74 -113h-76l84 125h140l46 -125h-76z" />
    <glyph glyph-name="uni1EC7" unicode="&#x1ec7;" horiz-adv-x="560" 
d="M192 -72h97l-18 -110h-98zM328 508q94 0 145.5 -49t51.5 -140q0 -16 -1.5 -33.5t-5.5 -36.5l-3 -14h-375q-1 -8 -1 -15v-15q0 -65 29 -101t83 -36q55 0 96 28.5t60 79.5h98q-28 -88 -98.5 -137t-169.5 -49q-95 0 -146 53.5t-51 149.5q0 71 20.5 129t58 99.5t90.5 64
t119 22.5zM315 430q-64 0 -108 -41.5t-60 -111.5h277q0 7 0.5 13.5t0.5 13.5q0 61 -28 93.5t-82 32.5zM350 663h-4l-74 -113h-76l84 125h140l46 -125h-76z" />
    <glyph glyph-name="uni1EC8" unicode="&#x1ec8;" horiz-adv-x="284" 
d="M162 888q7 40 35.5 64t69.5 24q42 0 63 -21t16 -56q-4 -26 -24 -52.5t-53 -44.5h-73q36 20 57.5 44.5t24.5 42.5q2 19 -5 24.5t-17 5.5t-19.5 -5.5t-14.5 -25.5h-60zM176 740h105l-130 -740h-105z" />
    <glyph glyph-name="uni1EC9" unicode="&#x1ec9;" horiz-adv-x="244" 
d="M102 646q7 40 35.5 64t69.5 24q42 0 63 -21t16 -56q-4 -26 -24 -52.5t-53 -44.5h-73q36 20 57.5 44.5t24.5 42.5q2 19 -5 24.5t-17 5.5t-19.5 -5.5t-14.5 -25.5h-60zM216 498l-88 -498h-100l88 498h100z" />
    <glyph glyph-name="uni1ECA" unicode="&#x1eca;" horiz-adv-x="284" 
d="M39 -72h97l-18 -110h-98zM176 740h105l-130 -740h-105z" />
    <glyph glyph-name="uni1ECB" unicode="&#x1ecb;" horiz-adv-x="244" 
d="M19 -72h97l-18 -110h-98zM154 715h100l-19 -113h-100zM116 498h100l-88 -498h-100z" />
    <glyph glyph-name="uni1ECC" unicode="&#x1ecc;" horiz-adv-x="763" 
d="M298 -72h97l-18 -110h-98zM336 -10q-66 0 -116.5 20t-85 58.5t-52.5 93t-18 123.5q0 104 28.5 190t81.5 147t128 94.5t168 33.5q132 0 201.5 -77.5t69.5 -217.5q0 -104 -28.5 -190t-81.5 -147t-128 -94.5t-167 -33.5zM351 76q64 0 115.5 27t88.5 75.5t57 116.5t20 149
q0 103 -45.5 161.5t-131.5 58.5q-65 0 -117 -27t-88.5 -75.5t-56.5 -116t-20 -148.5q0 -104 45.5 -162.5t132.5 -58.5z" />
    <glyph glyph-name="uni1ECD" unicode="&#x1ecd;" horiz-adv-x="589" 
d="M199 -72h97l-18 -110h-98zM249 -10q-101 0 -155 54.5t-54 151.5q0 70 21.5 128t60.5 98.5t94.5 63t124.5 22.5q101 0 155 -54.5t54 -151.5q0 -71 -21 -128.5t-60.5 -98t-95 -63t-124.5 -22.5zM264 71q42 0 75.5 16t57.5 45t37 69t13 89q0 65 -31 101t-90 36
q-42 0 -75.5 -16t-57.5 -45t-37 -69t-13 -89q0 -65 31 -101t90 -36z" />
    <glyph glyph-name="uni1ECE" unicode="&#x1ece;" horiz-adv-x="763" 
d="M390 888q7 40 35.5 64t69.5 24q42 0 63 -21t16 -56q-4 -26 -24 -52.5t-53 -44.5h-73q36 20 57.5 44.5t24.5 42.5q2 19 -5 24.5t-17 5.5t-19.5 -5.5t-14.5 -25.5h-60zM336 -10q-66 0 -116.5 20t-85 58.5t-52.5 93t-18 123.5q0 104 28.5 190t81.5 147t128 94.5t168 33.5
q132 0 201.5 -77.5t69.5 -217.5q0 -104 -28.5 -190t-81.5 -147t-128 -94.5t-167 -33.5zM351 76q64 0 115.5 27t88.5 75.5t57 116.5t20 149q0 103 -45.5 161.5t-131.5 58.5q-65 0 -117 -27t-88.5 -75.5t-56.5 -116t-20 -148.5q0 -104 45.5 -162.5t132.5 -58.5z" />
    <glyph glyph-name="uni1ECF" unicode="&#x1ecf;" horiz-adv-x="589" 
d="M280 646q7 40 35.5 64t69.5 24q42 0 63 -21t16 -56q-4 -26 -24 -52.5t-53 -44.5h-73q36 20 57.5 44.5t24.5 42.5q2 19 -5 24.5t-17 5.5t-19.5 -5.5t-14.5 -25.5h-60zM249 -10q-101 0 -155 54.5t-54 151.5q0 70 21.5 128t60.5 98.5t94.5 63t124.5 22.5q101 0 155 -54.5
t54 -151.5q0 -71 -21 -128.5t-60.5 -98t-95 -63t-124.5 -22.5zM264 71q42 0 75.5 16t57.5 45t37 69t13 89q0 65 -31 101t-90 36q-42 0 -75.5 -16t-57.5 -45t-37 -69t-13 -89q0 -65 31 -101t90 -36z" />
    <glyph glyph-name="uni1ED0" unicode="&#x1ed0;" horiz-adv-x="763" 
d="M597 866l82 125h95l-99 -125h-78zM470 750q132 0 201.5 -77.5t69.5 -217.5q0 -104 -28.5 -190t-81.5 -147t-128 -94.5t-167 -33.5q-66 0 -116.5 20t-85 58.5t-52.5 93t-18 123.5q0 104 28.5 190t81.5 147t128 94.5t168 33.5zM351 76q64 0 115.5 27t88.5 75.5t57 116.5
t20 149q0 103 -45.5 161.5t-131.5 58.5q-65 0 -117 -27t-88.5 -75.5t-56.5 -116t-20 -148.5q0 -104 45.5 -162.5t132.5 -58.5zM478 905h-4l-74 -113h-76l84 125h140l46 -125h-76z" />
    <glyph glyph-name="uni1ED1" unicode="&#x1ed1;" horiz-adv-x="589" 
d="M484 624l82 125h95l-99 -125h-78zM341 508q101 0 155 -54.5t54 -151.5q0 -71 -21 -128.5t-60.5 -98t-95 -63t-124.5 -22.5q-101 0 -155 54.5t-54 151.5q0 70 21.5 128t60.5 98.5t94.5 63t124.5 22.5zM264 71q42 0 75.5 16t57.5 45t37 69t13 89q0 65 -31 101t-90 36
q-42 0 -75.5 -16t-57.5 -45t-37 -69t-13 -89q0 -65 31 -101t90 -36zM365 663h-4l-74 -113h-76l84 125h140l46 -125h-76z" />
    <glyph glyph-name="uni1ED2" unicode="&#x1ed2;" horiz-adv-x="763" 
d="M613 866l-58 125h91l41 -125h-74zM470 750q132 0 201.5 -77.5t69.5 -217.5q0 -104 -28.5 -190t-81.5 -147t-128 -94.5t-167 -33.5q-66 0 -116.5 20t-85 58.5t-52.5 93t-18 123.5q0 104 28.5 190t81.5 147t128 94.5t168 33.5zM351 76q64 0 115.5 27t88.5 75.5t57 116.5
t20 149q0 103 -45.5 161.5t-131.5 58.5q-65 0 -117 -27t-88.5 -75.5t-56.5 -116t-20 -148.5q0 -104 45.5 -162.5t132.5 -58.5zM478 905h-4l-74 -113h-76l84 125h140l46 -125h-76z" />
    <glyph glyph-name="uni1ED3" unicode="&#x1ed3;" horiz-adv-x="589" 
d="M500 624l-58 125h91l41 -125h-74zM341 508q101 0 155 -54.5t54 -151.5q0 -71 -21 -128.5t-60.5 -98t-95 -63t-124.5 -22.5q-101 0 -155 54.5t-54 151.5q0 70 21.5 128t60.5 98.5t94.5 63t124.5 22.5zM264 71q42 0 75.5 16t57.5 45t37 69t13 89q0 65 -31 101t-90 36
q-42 0 -75.5 -16t-57.5 -45t-37 -69t-13 -89q0 -65 31 -101t90 -36zM365 663h-4l-74 -113h-76l84 125h140l46 -125h-76z" />
    <glyph glyph-name="uni1ED4" unicode="&#x1ed4;" horiz-adv-x="763" 
d="M563 952q7 40 35.5 64t69.5 24q42 0 63 -21t16 -56q-4 -26 -24 -52.5t-53 -44.5h-73q36 20 57.5 44.5t24.5 42.5q2 19 -5 24.5t-17 5.5t-19.5 -5.5t-14.5 -25.5h-60zM470 750q132 0 201.5 -77.5t69.5 -217.5q0 -104 -28.5 -190t-81.5 -147t-128 -94.5t-167 -33.5
q-66 0 -116.5 20t-85 58.5t-52.5 93t-18 123.5q0 104 28.5 190t81.5 147t128 94.5t168 33.5zM351 76q64 0 115.5 27t88.5 75.5t57 116.5t20 149q0 103 -45.5 161.5t-131.5 58.5q-65 0 -117 -27t-88.5 -75.5t-56.5 -116t-20 -148.5q0 -104 45.5 -162.5t132.5 -58.5zM478 905
h-4l-74 -113h-76l84 125h140l46 -125h-76z" />
    <glyph glyph-name="uni1ED5" unicode="&#x1ed5;" horiz-adv-x="589" 
d="M450 710q7 40 35.5 64t69.5 24q42 0 63 -21t16 -56q-4 -26 -24 -52.5t-53 -44.5h-73q36 20 57.5 44.5t24.5 42.5q2 19 -5 24.5t-17 5.5t-19.5 -5.5t-14.5 -25.5h-60zM341 508q101 0 155 -54.5t54 -151.5q0 -71 -21 -128.5t-60.5 -98t-95 -63t-124.5 -22.5
q-101 0 -155 54.5t-54 151.5q0 70 21.5 128t60.5 98.5t94.5 63t124.5 22.5zM264 71q42 0 75.5 16t57.5 45t37 69t13 89q0 65 -31 101t-90 36q-42 0 -75.5 -16t-57.5 -45t-37 -69t-13 -89q0 -65 31 -101t90 -36zM365 663h-4l-74 -113h-76l84 125h140l46 -125h-76z" />
    <glyph glyph-name="uni1ED6" unicode="&#x1ed6;" horiz-adv-x="763" 
d="M535 959q-18 0 -30 7t-22 15t-19.5 15t-22.5 7q-14 0 -22 -13.5t-13 -33.5h-58q9 57 38 88.5t71 31.5q18 0 30 -6.5t21.5 -15t18.5 -15t23 -6.5t23 13t14 33h58q-9 -57 -39 -88.5t-71 -31.5zM470 750q132 0 201.5 -77.5t69.5 -217.5q0 -104 -28.5 -190t-81.5 -147
t-128 -94.5t-167 -33.5q-66 0 -116.5 20t-85 58.5t-52.5 93t-18 123.5q0 104 28.5 190t81.5 147t128 94.5t168 33.5zM351 76q64 0 115.5 27t88.5 75.5t57 116.5t20 149q0 103 -45.5 161.5t-131.5 58.5q-65 0 -117 -27t-88.5 -75.5t-56.5 -116t-20 -148.5q0 -104 45.5 -162.5
t132.5 -58.5zM478 905h-4l-74 -113h-76l84 125h140l46 -125h-76z" />
    <glyph glyph-name="uni1ED7" unicode="&#x1ed7;" horiz-adv-x="589" 
d="M422 717q-18 0 -30 7t-22 15t-19.5 15t-22.5 7q-14 0 -22 -13.5t-13 -33.5h-58q9 57 38 88.5t71 31.5q18 0 30 -6.5t21.5 -15t18.5 -15t23 -6.5t23 13t14 33h58q-9 -57 -39 -88.5t-71 -31.5zM341 508q101 0 155 -54.5t54 -151.5q0 -71 -21 -128.5t-60.5 -98t-95 -63
t-124.5 -22.5q-101 0 -155 54.5t-54 151.5q0 70 21.5 128t60.5 98.5t94.5 63t124.5 22.5zM264 71q42 0 75.5 16t57.5 45t37 69t13 89q0 65 -31 101t-90 36q-42 0 -75.5 -16t-57.5 -45t-37 -69t-13 -89q0 -65 31 -101t90 -36zM365 663h-4l-74 -113h-76l84 125h140l46 -125
h-76z" />
    <glyph glyph-name="uni1ED8" unicode="&#x1ed8;" horiz-adv-x="763" 
d="M298 -72h97l-18 -110h-98zM470 750q132 0 201.5 -77.5t69.5 -217.5q0 -104 -28.5 -190t-81.5 -147t-128 -94.5t-167 -33.5q-66 0 -116.5 20t-85 58.5t-52.5 93t-18 123.5q0 104 28.5 190t81.5 147t128 94.5t168 33.5zM351 76q64 0 115.5 27t88.5 75.5t57 116.5t20 149
q0 103 -45.5 161.5t-131.5 58.5q-65 0 -117 -27t-88.5 -75.5t-56.5 -116t-20 -148.5q0 -104 45.5 -162.5t132.5 -58.5zM478 905h-4l-74 -113h-76l84 125h140l46 -125h-76z" />
    <glyph glyph-name="uni1ED9" unicode="&#x1ed9;" horiz-adv-x="589" 
d="M199 -72h97l-18 -110h-98zM341 508q101 0 155 -54.5t54 -151.5q0 -71 -21 -128.5t-60.5 -98t-95 -63t-124.5 -22.5q-101 0 -155 54.5t-54 151.5q0 70 21.5 128t60.5 98.5t94.5 63t124.5 22.5zM264 71q42 0 75.5 16t57.5 45t37 69t13 89q0 65 -31 101t-90 36
q-42 0 -75.5 -16t-57.5 -45t-37 -69t-13 -89q0 -65 31 -101t90 -36zM365 663h-4l-74 -113h-76l84 125h140l46 -125h-76z" />
    <glyph glyph-name="uni1EDA" unicode="&#x1eda;" horiz-adv-x="763" 
d="M414 802l82 125h101l-99 -125h-84zM336 -10q-66 0 -116.5 20t-85 58.5t-52.5 93t-18 123.5q0 104 28.5 190t81.5 147t128 94.5t168 33.5q57 0 105 -17q20 6 35.5 27t23.5 70h93q-7 -45 -36 -76t-74 -39q61 -35 92.5 -101t31.5 -159q0 -104 -28.5 -190t-81.5 -147
t-128 -94.5t-167 -33.5zM351 76q64 0 115.5 27t88.5 75.5t57 116.5t20 149q0 103 -45.5 161.5t-131.5 58.5q-65 0 -117 -27t-88.5 -75.5t-56.5 -116t-20 -148.5q0 -104 45.5 -162.5t132.5 -58.5z" />
    <glyph glyph-name="uni1EDB" unicode="&#x1edb;" horiz-adv-x="589" 
d="M297 560l82 125h101l-99 -125h-84zM249 -10q-101 0 -155 54.5t-54 151.5q0 70 21.5 128t60.5 98.5t94.5 63t124.5 22.5q48 0 88 -14q17 8 31 28.5t21 65.5h93q-7 -43 -34.5 -74t-69.5 -40q80 -54 80 -172q0 -71 -21 -128.5t-60.5 -98t-95 -63t-124.5 -22.5zM264 71
q42 0 75.5 16t57.5 45t37 69t13 89q0 65 -31 101t-90 36q-42 0 -75.5 -16t-57.5 -45t-37 -69t-13 -89q0 -65 31 -101t90 -36z" />
    <glyph glyph-name="uni1EDC" unicode="&#x1edc;" horiz-adv-x="763" 
d="M435 802l-58 125h98l41 -125h-81zM336 -10q-66 0 -116.5 20t-85 58.5t-52.5 93t-18 123.5q0 104 28.5 190t81.5 147t128 94.5t168 33.5q57 0 105 -17q20 6 35.5 27t23.5 70h93q-7 -45 -36 -76t-74 -39q61 -35 92.5 -101t31.5 -159q0 -104 -28.5 -190t-81.5 -147
t-128 -94.5t-167 -33.5zM351 76q64 0 115.5 27t88.5 75.5t57 116.5t20 149q0 103 -45.5 161.5t-131.5 58.5q-65 0 -117 -27t-88.5 -75.5t-56.5 -116t-20 -148.5q0 -104 45.5 -162.5t132.5 -58.5z" />
    <glyph glyph-name="uni1EDD" unicode="&#x1edd;" horiz-adv-x="589" 
d="M317 560l-58 125h98l41 -125h-81zM249 -10q-101 0 -155 54.5t-54 151.5q0 70 21.5 128t60.5 98.5t94.5 63t124.5 22.5q48 0 88 -14q17 8 31 28.5t21 65.5h93q-7 -43 -34.5 -74t-69.5 -40q80 -54 80 -172q0 -71 -21 -128.5t-60.5 -98t-95 -63t-124.5 -22.5zM264 71
q42 0 75.5 16t57.5 45t37 69t13 89q0 65 -31 101t-90 36q-42 0 -75.5 -16t-57.5 -45t-37 -69t-13 -89q0 -65 31 -101t90 -36z" />
    <glyph glyph-name="uni1EDE" unicode="&#x1ede;" horiz-adv-x="763" 
d="M390 888q7 40 35.5 64t69.5 24q42 0 63 -21t16 -56q-4 -26 -24 -52.5t-53 -44.5h-73q36 20 57.5 44.5t24.5 42.5q2 19 -5 24.5t-17 5.5t-19.5 -5.5t-14.5 -25.5h-60zM336 -10q-66 0 -116.5 20t-85 58.5t-52.5 93t-18 123.5q0 104 28.5 190t81.5 147t128 94.5t168 33.5
q57 0 105 -17q20 6 35.5 27t23.5 70h93q-7 -45 -36 -76t-74 -39q61 -35 92.5 -101t31.5 -159q0 -104 -28.5 -190t-81.5 -147t-128 -94.5t-167 -33.5zM351 76q64 0 115.5 27t88.5 75.5t57 116.5t20 149q0 103 -45.5 161.5t-131.5 58.5q-65 0 -117 -27t-88.5 -75.5t-56.5 -116
t-20 -148.5q0 -104 45.5 -162.5t132.5 -58.5z" />
    <glyph glyph-name="uni1EDF" unicode="&#x1edf;" horiz-adv-x="589" 
d="M280 646q7 40 35.5 64t69.5 24q42 0 63 -21t16 -56q-4 -26 -24 -52.5t-53 -44.5h-73q36 20 57.5 44.5t24.5 42.5q2 19 -5 24.5t-17 5.5t-19.5 -5.5t-14.5 -25.5h-60zM249 -10q-101 0 -155 54.5t-54 151.5q0 70 21.5 128t60.5 98.5t94.5 63t124.5 22.5q48 0 88 -14
q17 8 31 28.5t21 65.5h93q-7 -43 -34.5 -74t-69.5 -40q80 -54 80 -172q0 -71 -21 -128.5t-60.5 -98t-95 -63t-124.5 -22.5zM264 71q42 0 75.5 16t57.5 45t37 69t13 89q0 65 -31 101t-90 36q-42 0 -75.5 -16t-57.5 -45t-37 -69t-13 -89q0 -65 31 -101t90 -36z" />
    <glyph glyph-name="uni1EE0" unicode="&#x1ee0;" horiz-adv-x="763" 
d="M509 805q-18 0 -30 7t-22 15t-19.5 15t-22.5 7q-14 0 -22 -13.5t-13 -33.5h-58q9 57 38 88.5t71 31.5q18 0 30 -6.5t21.5 -15t18.5 -15t23 -6.5t23 13t14 33h58q-9 -57 -39 -88.5t-71 -31.5zM336 -10q-66 0 -116.5 20t-85 58.5t-52.5 93t-18 123.5q0 104 28.5 190
t81.5 147t128 94.5t168 33.5q57 0 105 -17q20 6 35.5 27t23.5 70h93q-7 -45 -36 -76t-74 -39q61 -35 92.5 -101t31.5 -159q0 -104 -28.5 -190t-81.5 -147t-128 -94.5t-167 -33.5zM351 76q64 0 115.5 27t88.5 75.5t57 116.5t20 149q0 103 -45.5 161.5t-131.5 58.5
q-65 0 -117 -27t-88.5 -75.5t-56.5 -116t-20 -148.5q0 -104 45.5 -162.5t132.5 -58.5z" />
    <glyph glyph-name="uni1EE1" unicode="&#x1ee1;" horiz-adv-x="589" 
d="M396 583q-18 0 -30 7t-22 15t-19.5 15t-22.5 7q-14 0 -22 -13.5t-13 -33.5h-58q9 57 38 88.5t71 31.5q18 0 30 -6.5t21.5 -15t18.5 -15t23 -6.5t23 13t14 33h58q-9 -57 -39 -88.5t-71 -31.5zM249 -10q-101 0 -155 54.5t-54 151.5q0 70 21.5 128t60.5 98.5t94.5 63
t124.5 22.5q48 0 88 -14q17 8 31 28.5t21 65.5h93q-7 -43 -34.5 -74t-69.5 -40q80 -54 80 -172q0 -71 -21 -128.5t-60.5 -98t-95 -63t-124.5 -22.5zM264 71q42 0 75.5 16t57.5 45t37 69t13 89q0 65 -31 101t-90 36q-42 0 -75.5 -16t-57.5 -45t-37 -69t-13 -89q0 -65 31 -101
t90 -36z" />
    <glyph glyph-name="uni1EE2" unicode="&#x1ee2;" horiz-adv-x="763" 
d="M298 -72h97l-18 -110h-98zM336 -10q-66 0 -116.5 20t-85 58.5t-52.5 93t-18 123.5q0 104 28.5 190t81.5 147t128 94.5t168 33.5q57 0 105 -17q20 6 35.5 27t23.5 70h93q-7 -45 -36 -76t-74 -39q61 -35 92.5 -101t31.5 -159q0 -104 -28.5 -190t-81.5 -147t-128 -94.5
t-167 -33.5zM351 76q64 0 115.5 27t88.5 75.5t57 116.5t20 149q0 103 -45.5 161.5t-131.5 58.5q-65 0 -117 -27t-88.5 -75.5t-56.5 -116t-20 -148.5q0 -104 45.5 -162.5t132.5 -58.5z" />
    <glyph glyph-name="uni1EE3" unicode="&#x1ee3;" horiz-adv-x="589" 
d="M199 -72h97l-18 -110h-98zM249 -10q-101 0 -155 54.5t-54 151.5q0 70 21.5 128t60.5 98.5t94.5 63t124.5 22.5q48 0 88 -14q17 8 31 28.5t21 65.5h93q-7 -43 -34.5 -74t-69.5 -40q80 -54 80 -172q0 -71 -21 -128.5t-60.5 -98t-95 -63t-124.5 -22.5zM264 71q42 0 75.5 16
t57.5 45t37 69t13 89q0 65 -31 101t-90 36q-42 0 -75.5 -16t-57.5 -45t-37 -69t-13 -89q0 -65 31 -101t90 -36z" />
    <glyph glyph-name="uni1EE4" unicode="&#x1ee4;" horiz-adv-x="720" 
d="M252 -72h97l-18 -110h-98zM625 740h100l-85 -483q-11 -63 -39 -112.5t-70 -84t-96.5 -52.5t-120.5 -18q-114 0 -175 53.5t-61 150.5q0 31 6 63l85 483h104l-86 -489q-3 -24 -3 -42q0 -63 38 -98t110 -35q84 0 138.5 46t68.5 129z" />
    <glyph glyph-name="uni1EE5" unicode="&#x1ee5;" horiz-adv-x="575" 
d="M199 -72h97l-18 -110h-98zM547 498l-88 -498h-100l31 173h-2q-16 -87 -67 -135t-127 -48q-70 0 -106.5 38t-36.5 107q0 26 6 56l54 307h100l-54 -304q-3 -20 -3 -33q0 -44 24 -67t69 -23q59 0 99 41t53 115l48 271h100z" />
    <glyph glyph-name="uni1EE6" unicode="&#x1ee6;" horiz-adv-x="720" 
d="M380 888q7 40 35.5 64t69.5 24q42 0 63 -21t16 -56q-4 -26 -24 -52.5t-53 -44.5h-73q36 20 57.5 44.5t24.5 42.5q2 19 -5 24.5t-17 5.5t-19.5 -5.5t-14.5 -25.5h-60zM625 740h100l-85 -483q-11 -63 -39 -112.5t-70 -84t-96.5 -52.5t-120.5 -18q-114 0 -175 53.5
t-61 150.5q0 31 6 63l85 483h104l-86 -489q-3 -24 -3 -42q0 -63 38 -98t110 -35q84 0 138.5 46t68.5 129z" />
    <glyph glyph-name="uni1EE7" unicode="&#x1ee7;" horiz-adv-x="575" 
d="M260 646q7 40 35.5 64t69.5 24q42 0 63 -21t16 -56q-4 -26 -24 -52.5t-53 -44.5h-73q36 20 57.5 44.5t24.5 42.5q2 19 -5 24.5t-17 5.5t-19.5 -5.5t-14.5 -25.5h-60zM547 498l-88 -498h-100l31 173h-2q-16 -87 -67 -135t-127 -48q-70 0 -106.5 38t-36.5 107q0 26 6 56
l54 307h100l-54 -304q-3 -20 -3 -33q0 -44 24 -67t69 -23q59 0 99 41t53 115l48 271h100z" />
    <glyph glyph-name="uni1EE8" unicode="&#x1ee8;" horiz-adv-x="720" 
d="M393 802l82 125h101l-99 -125h-84zM625 740h9q13 0 26.5 3t25.5 13.5t21 30.5t14 53h93q-6 -39 -30.5 -68.5t-60.5 -41.5l-83 -473q-11 -63 -39 -112.5t-70 -84t-96.5 -52.5t-120.5 -18q-114 0 -175 53.5t-61 150.5q0 31 6 63l85 483h104l-86 -489q-3 -24 -3 -42
q0 -63 38 -98t110 -35q84 0 138.5 46t68.5 129z" />
    <glyph glyph-name="uni1EE9" unicode="&#x1ee9;" horiz-adv-x="575" 
d="M280 560l82 125h101l-99 -125h-84zM457 498q13 0 26.5 3t25.5 13.5t21 30.5t14 53h93q-6 -40 -30.5 -69.5t-61.5 -41.5l-86 -487h-100l31 173h-2q-16 -87 -67 -135t-127 -48q-70 0 -106.5 38t-36.5 107q0 26 6 56l54 307h100l-54 -304q-3 -20 -3 -33q0 -44 24 -67t69 -23
q59 0 99 41t53 115l48 271h10z" />
    <glyph glyph-name="uni1EEA" unicode="&#x1eea;" horiz-adv-x="720" 
d="M429 802l-58 125h98l41 -125h-81zM625 740h9q13 0 26.5 3t25.5 13.5t21 30.5t14 53h93q-6 -39 -30.5 -68.5t-60.5 -41.5l-83 -473q-11 -63 -39 -112.5t-70 -84t-96.5 -52.5t-120.5 -18q-114 0 -175 53.5t-61 150.5q0 31 6 63l85 483h104l-86 -489q-3 -24 -3 -42
q0 -63 38 -98t110 -35q84 0 138.5 46t68.5 129z" />
    <glyph glyph-name="uni1EEB" unicode="&#x1eeb;" horiz-adv-x="575" 
d="M304 560l-58 125h98l41 -125h-81zM457 498q13 0 26.5 3t25.5 13.5t21 30.5t14 53h93q-6 -40 -30.5 -69.5t-61.5 -41.5l-86 -487h-100l31 173h-2q-16 -87 -67 -135t-127 -48q-70 0 -106.5 38t-36.5 107q0 26 6 56l54 307h100l-54 -304q-3 -20 -3 -33q0 -44 24 -67t69 -23
q59 0 99 41t53 115l48 271h10z" />
    <glyph glyph-name="uni1EEC" unicode="&#x1eec;" horiz-adv-x="720" 
d="M380 888q7 40 35.5 64t69.5 24q42 0 63 -21t16 -56q-4 -26 -24 -52.5t-53 -44.5h-73q36 20 57.5 44.5t24.5 42.5q2 19 -5 24.5t-17 5.5t-19.5 -5.5t-14.5 -25.5h-60zM625 740h9q13 0 26.5 3t25.5 13.5t21 30.5t14 53h93q-6 -39 -30.5 -68.5t-60.5 -41.5l-83 -473
q-11 -63 -39 -112.5t-70 -84t-96.5 -52.5t-120.5 -18q-114 0 -175 53.5t-61 150.5q0 31 6 63l85 483h104l-86 -489q-3 -24 -3 -42q0 -63 38 -98t110 -35q84 0 138.5 46t68.5 129z" />
    <glyph glyph-name="uni1EED" unicode="&#x1eed;" horiz-adv-x="575" 
d="M260 646q7 40 35.5 64t69.5 24q42 0 63 -21t16 -56q-4 -26 -24 -52.5t-53 -44.5h-73q36 20 57.5 44.5t24.5 42.5q2 19 -5 24.5t-17 5.5t-19.5 -5.5t-14.5 -25.5h-60zM457 498q13 0 26.5 3t25.5 13.5t21 30.5t14 53h93q-6 -40 -30.5 -69.5t-61.5 -41.5l-86 -487h-100
l31 173h-2q-16 -87 -67 -135t-127 -48q-70 0 -106.5 38t-36.5 107q0 26 6 56l54 307h100l-54 -304q-3 -20 -3 -33q0 -44 24 -67t69 -23q59 0 99 41t53 115l48 271h10z" />
    <glyph glyph-name="uni1EEE" unicode="&#x1eee;" horiz-adv-x="720" 
d="M495 805q-18 0 -30 7t-22 15t-19.5 15t-22.5 7q-14 0 -22 -13.5t-13 -33.5h-58q9 57 38 88.5t71 31.5q18 0 30 -6.5t21.5 -15t18.5 -15t23 -6.5t23 13t14 33h58q-9 -57 -39 -88.5t-71 -31.5zM625 740h9q13 0 26.5 3t25.5 13.5t21 30.5t14 53h93q-6 -39 -30.5 -68.5
t-60.5 -41.5l-83 -473q-11 -63 -39 -112.5t-70 -84t-96.5 -52.5t-120.5 -18q-114 0 -175 53.5t-61 150.5q0 31 6 63l85 483h104l-86 -489q-3 -24 -3 -42q0 -63 38 -98t110 -35q84 0 138.5 46t68.5 129z" />
    <glyph glyph-name="uni1EEF" unicode="&#x1eef;" horiz-adv-x="575" 
d="M380 563q-18 0 -30 7t-22 15t-19.5 15t-22.5 7q-14 0 -22 -13.5t-13 -33.5h-58q9 57 38 88.5t71 31.5q18 0 30 -6.5t21.5 -15t18.5 -15t23 -6.5t23 13t14 33h58q-9 -57 -39 -88.5t-71 -31.5zM457 498q13 0 26.5 3t25.5 13.5t21 30.5t14 53h93q-6 -40 -30.5 -69.5
t-61.5 -41.5l-86 -487h-100l31 173h-2q-16 -87 -67 -135t-127 -48q-70 0 -106.5 38t-36.5 107q0 26 6 56l54 307h100l-54 -304q-3 -20 -3 -33q0 -44 24 -67t69 -23q59 0 99 41t53 115l48 271h10z" />
    <glyph glyph-name="uni1EF0" unicode="&#x1ef0;" horiz-adv-x="720" 
d="M252 -72h97l-18 -110h-98zM625 740h9q13 0 26.5 3t25.5 13.5t21 30.5t14 53h93q-6 -39 -30.5 -68.5t-60.5 -41.5l-83 -473q-11 -63 -39 -112.5t-70 -84t-96.5 -52.5t-120.5 -18q-114 0 -175 53.5t-61 150.5q0 31 6 63l85 483h104l-86 -489q-3 -24 -3 -42q0 -63 38 -98
t110 -35q84 0 138.5 46t68.5 129z" />
    <glyph glyph-name="uni1EF1" unicode="&#x1ef1;" horiz-adv-x="575" 
d="M199 -72h97l-18 -110h-98zM457 498q13 0 26.5 3t25.5 13.5t21 30.5t14 53h93q-6 -40 -30.5 -69.5t-61.5 -41.5l-86 -487h-100l31 173h-2q-16 -87 -67 -135t-127 -48q-70 0 -106.5 38t-36.5 107q0 26 6 56l54 307h100l-54 -304q-3 -20 -3 -33q0 -44 24 -67t69 -23
q59 0 99 41t53 115l48 271h10z" />
    <glyph glyph-name="Ygrave" unicode="&#x1ef2;" horiz-adv-x="672" 
d="M766 740l-495 -740h-115l186 283h-99l-145 457h122l137 -447h2l292 447h115zM399 802l-58 125h98l41 -125h-81z" />
    <glyph glyph-name="ygrave" unicode="&#x1ef3;" horiz-adv-x="534" 
d="M556 498l-347 -728h-107l111 230h-84l-62 498h107l51 -491h2l222 491h107zM286 560l-58 125h98l41 -125h-81z" />
    <glyph glyph-name="uni1EF4" unicode="&#x1ef4;" horiz-adv-x="672" 
d="M152 -72h97l-18 -110h-98zM766 740l-495 -740h-115l186 283h-99l-145 457h122l137 -447h2l292 447h115z" />
    <glyph glyph-name="uni1EF5" unicode="&#x1ef5;" horiz-adv-x="534" 
d="M359 -92h97l-18 -110h-98zM556 498l-347 -728h-107l111 230h-84l-62 498h107l51 -491h2l222 491h107z" />
    <glyph glyph-name="uni1EF6" unicode="&#x1ef6;" horiz-adv-x="672" 
d="M359 888q7 40 35.5 64t69.5 24q42 0 63 -21t16 -56q-4 -26 -24 -52.5t-53 -44.5h-73q36 20 57.5 44.5t24.5 42.5q2 19 -5 24.5t-17 5.5t-19.5 -5.5t-14.5 -25.5h-60zM766 740l-495 -740h-115l186 283h-99l-145 457h122l137 -447h2l292 447h115z" />
    <glyph glyph-name="uni1EF7" unicode="&#x1ef7;" horiz-adv-x="534" 
d="M240 646q7 40 35.5 64t69.5 24q42 0 63 -21t16 -56q-4 -26 -24 -52.5t-53 -44.5h-73q36 20 57.5 44.5t24.5 42.5q2 19 -5 24.5t-17 5.5t-19.5 -5.5t-14.5 -25.5h-60zM556 498l-347 -728h-107l111 230h-84l-62 498h107l51 -491h2l222 491h107z" />
    <glyph glyph-name="uni1EF8" unicode="&#x1ef8;" horiz-adv-x="672" 
d="M478 805q-18 0 -30 7t-22 15t-19.5 15t-22.5 7q-14 0 -22 -13.5t-13 -33.5h-58q9 57 38 88.5t71 31.5q18 0 30 -6.5t21.5 -15t18.5 -15t23 -6.5t23 13t14 33h58q-9 -57 -39 -88.5t-71 -31.5zM766 740l-495 -740h-115l186 283h-99l-145 457h122l137 -447h2l292 447h115z
" />
    <glyph glyph-name="uni1EF9" unicode="&#x1ef9;" horiz-adv-x="534" 
d="M361 563q-18 0 -30 7t-22 15t-19.5 15t-22.5 7q-14 0 -22 -13.5t-13 -33.5h-58q9 57 38 88.5t71 31.5q18 0 30 -6.5t21.5 -15t18.5 -15t23 -6.5t23 13t14 33h58q-9 -57 -39 -88.5t-71 -31.5zM556 498l-347 -728h-107l111 230h-84l-62 498h107l51 -491h2l222 491h107z" />
    <glyph glyph-name="endash" unicode="&#x2013;" horiz-adv-x="587" 
d="M528 274l-7 -42h-460l7 42h460z" />
    <glyph glyph-name="emdash" unicode="&#x2014;" horiz-adv-x="872" 
d="M813 274l-7 -42h-745l7 42h745z" />
    <glyph glyph-name="quoteleft" unicode="&#x2018;" horiz-adv-x="229" 
d="M247 684q-49 -9 -81.5 -34t-46.5 -60h111l-19 -111h-117l16 93q12 66 50.5 111.5t97.5 60.5l-11 -60v0z" />
    <glyph glyph-name="quoteright" unicode="&#x2019;" horiz-adv-x="223" 
d="M262 740l-16 -93q-12 -66 -50.5 -111.5t-97.5 -60.5l11 60q49 9 81.5 34t46.5 60h-111l19 111h117z" />
    <glyph glyph-name="quotesinglbase" unicode="&#x201a;" horiz-adv-x="236" 
d="M159 111l-16 -93q-12 -66 -50.5 -111.5t-97.5 -60.5l11 60q49 9 81.5 34t46.5 60h-111l19 111h117z" />
    <glyph glyph-name="quotedblleft" unicode="&#x201c;" horiz-adv-x="397" 
d="M111 572q12 66 50.5 111.5t97.5 60.5l-11 -60q-49 -9 -81.5 -34t-46.5 -60h111l-19 -111h-117zM415 684q-49 -9 -81.5 -34t-46.5 -60h111l-19 -111h-117l16 93q12 66 50.5 111.5t97.5 60.5z" />
    <glyph glyph-name="quotedblright" unicode="&#x201d;" horiz-adv-x="391" 
d="M145 740h117l-16 -93q-12 -66 -50.5 -111.5t-97.5 -60.5l11 60q49 9 81.5 34t46.5 60h-111zM429 740l-16 -93q-12 -66 -50.5 -111.5t-97.5 -60.5l11 60q49 9 81.5 34t46.5 60h-111l19 111h117z" />
    <glyph glyph-name="quotedblbase" unicode="&#x201e;" horiz-adv-x="404" 
d="M42 111h117l-16 -93q-12 -66 -50.5 -111.5t-97.5 -60.5l11 60q49 9 81.5 34t46.5 60h-111zM326 111l-16 -93q-12 -66 -50.5 -111.5t-97.5 -60.5l11 60q49 9 81.5 34t46.5 60h-111l19 111h117z" />
    <glyph glyph-name="dagger" unicode="&#x2020;" horiz-adv-x="378" 
d="M402 654l-9 -52h-114l-45 -257h-59l29 166q6 35 24.5 58t46.5 31v2h-166l9 52h114l21 116h59l-21 -116h111z" />
    <glyph glyph-name="daggerdbl" unicode="&#x2021;" horiz-adv-x="378" 
d="M279 602l-16 -90h114l-9 -52h-114l-20 -115h-59l4 24q6 35 24.5 58t46.5 31v2h-166l9 52h111q6 34 24.5 57t46.5 31v2h-166l9 52h114l21 116h59l-21 -116h111l-9 -52h-114z" />
    <glyph glyph-name="bullet" unicode="&#x2022;" horiz-adv-x="361" 
d="M109 383h189l-31 -175h-189z" />
    <glyph glyph-name="ellipsis" unicode="&#x2026;" horiz-adv-x="644" 
d="M156 111l-19 -111h-117l19 111h117zM359 111l-19 -111h-117l19 111h117zM561 111l-19 -111h-117l19 111h117z" />
    <glyph glyph-name="perthousand" unicode="&#x2030;" horiz-adv-x="1059" 
d="M678 750l29 -25l-613 -735l-29 25zM203 360q-57 0 -87 37t-30 103q0 51 13 93t37 72.5t58 47.5t75 17q57 0 87 -37t30 -103q0 -51 -13 -93t-37 -72.5t-57.5 -47.5t-75.5 -17zM215 422q21 0 38.5 13t29.5 35.5t18.5 52t6.5 62.5q0 39 -12.5 61t-37.5 22q-21 0 -38 -13
t-29.5 -35t-19 -51.5t-6.5 -63.5q0 -38 12.5 -60.5t37.5 -22.5zM498 -10q-57 0 -87 37t-30 103q0 51 13 93t37 72.5t57.5 47.5t74.5 17q57 0 87.5 -37t30.5 -103q0 -51 -13 -93t-37 -72.5t-57.5 -47.5t-75.5 -17zM837 -10q-57 0 -87.5 37t-30.5 103q0 51 13 93t37 72.5
t58 47.5t75 17q57 0 87 -37t30 -103q0 -51 -13 -93t-37 -72.5t-57.5 -47.5t-74.5 -17zM509 52q21 0 38.5 13t29.5 35.5t18.5 52t6.5 62.5q0 39 -12.5 61t-36.5 22q-21 0 -38 -13t-29.5 -35t-19 -51.5t-6.5 -63.5q0 -38 12.5 -60.5t36.5 -22.5zM848 52q20 0 37 12.5
t29.5 34.5t19.5 51.5t7 64.5q0 38 -12.5 60.5t-37.5 22.5q-20 0 -37 -12.5t-29.5 -34t-19.5 -51.5t-7 -64q0 -39 13 -61.5t37 -22.5z" />
    <glyph glyph-name="guilsinglleft" unicode="&#x2039;" horiz-adv-x="267" 
d="M201 443h52l-160 -193l92 -193h-52l-94 193z" />
    <glyph glyph-name="guilsinglright" unicode="&#x203a;" horiz-adv-x="267" 
d="M66 57h-52l160 193l-92 193h52l94 -193z" />
    <glyph glyph-name="fraction" unicode="&#x2044;" horiz-adv-x="215" 
d="M421 750l29 -25l-613 -735l-29 25z" />
    <glyph glyph-name="uni2070" unicode="&#x2070;" horiz-adv-x="405" 
d="M221 352q-66 0 -101 45t-35 126q0 63 15.5 115.5t44 90t68 58.5t88.5 21q66 0 101 -45t35 -126q0 -63 -15.5 -115.5t-44 -90t-68 -58.5t-88.5 -21zM231 414q29 0 52.5 17.5t40 47.5t25.5 70t9 85q0 52 -17 82t-50 30q-29 0 -52 -17.5t-40 -47t-26 -69.5t-9 -85
q0 -53 17.5 -83t49.5 -30z" />
    <glyph glyph-name="uni2074" unicode="&#x2074;" horiz-adv-x="381" 
d="M401 464h-58l-19 -106h-77l19 106h-211l11 64l193 274h143l-49 -278h58zM136 524h142l48 271h-2l-188 -269v-2z" />
    <glyph glyph-name="uni2075" unicode="&#x2075;" horiz-adv-x="373" 
d="M203 352q-65 0 -100.5 32t-35.5 89v12h75q0 -33 18.5 -52t52.5 -19q48 0 76 29t28 79q0 34 -18 52.5t-53 18.5q-32 0 -55.5 -16.5t-37.5 -44.5l-72 10l80 260h252l-10 -60h-185l-64 -200h2q17 52 54 80t86 28q50 0 76.5 -29.5t26.5 -81.5q0 -43 -14 -77.5t-39.5 -59
t-61.5 -37.5t-81 -13z" />
    <glyph glyph-name="uni2076" unicode="&#x2076;" horiz-adv-x="396" 
d="M359 676q1 5 1 9q0 29 -16.5 45t-45.5 16q-48 0 -82 -45.5t-49 -126.5l-7 -44h2q9 54 47 84t97 30q54 0 82.5 -28.5t28.5 -79.5q0 -42 -14.5 -76t-40.5 -58t-62.5 -37t-79.5 -13q-68 0 -102.5 41.5t-34.5 119.5q0 64 16 118.5t45.5 93.5t71 61t92.5 22q61 0 93.5 -30.5
t32.5 -85.5v-16h-75zM259 585q-48 0 -76 -25.5t-28 -71.5q0 -35 19.5 -54.5t53.5 -19.5q50 0 79 28t29 75q0 32 -20 50t-57 18zM150 504v1v-1z" />
    <glyph glyph-name="uni2077" unicode="&#x2077;" horiz-adv-x="331" 
d="M417 802l-10 -57q-69 -20 -121.5 -110t-78.5 -234l-8 -43h-80l6 31q14 79 38.5 142t58 108t74.5 71t88 30v2h-289l10 60h312z" />
    <glyph glyph-name="uni2078" unicode="&#x2078;" horiz-adv-x="387" 
d="M295 616q52 -6 79.5 -34t27.5 -73q0 -72 -51 -114.5t-140 -42.5q-69 0 -105.5 29.5t-36.5 83.5q0 63 41 102.5t112 48.5v2q-48 0 -74 19t-26 54q0 54 45.5 85.5t123.5 31.5q65 0 99.5 -23t34.5 -65q0 -47 -35 -74.5t-95 -27.5v-2zM197 668q0 -55 61 -55q38 0 61 21.5
t23 57.5q0 26 -16 40t-45 14q-38 0 -61 -21.5t-23 -56.5zM222 414q46 0 72.5 23.5t26.5 63.5q0 29 -18.5 45t-53.5 16q-46 0 -73 -23.5t-27 -63.5q0 -61 73 -61z" />
    <glyph glyph-name="uni2079" unicode="&#x2079;" horiz-adv-x="394" 
d="M294 808q68 0 101.5 -42t33.5 -118q0 -65 -16 -119.5t-45.5 -93.5t-71 -61t-92.5 -22q-60 0 -92 32.5t-32 90.5v10.5t1 10.5h74q-1 -5 -1 -14q0 -32 15.5 -50t44.5 -18q48 0 82.5 45.5t48.5 126.5l9 50h-2q-10 -51 -48 -79.5t-97 -28.5q-54 0 -82 27.5t-28 77.5
q0 40 14.5 72.5t40.5 55t62 35t80 12.5zM255 587q48 0 75.5 23.5t27.5 65.5q0 33 -20 51.5t-55 18.5q-48 0 -77 -25.5t-29 -70.5q0 -30 20.5 -46.5t57.5 -16.5z" />
    <glyph glyph-name="uni2080" unicode="&#x2080;" horiz-adv-x="405" 
d="M138 -116q-66 0 -101 45t-35 126q0 63 15.5 115.5t44 90t68 58.5t88.5 21q66 0 101 -45t35 -126q0 -63 -15.5 -115.5t-44 -90t-68 -58.5t-88.5 -21zM148 -54q29 0 52.5 17.5t40 47.5t25.5 70t9 85q0 52 -17 82t-50 30q-29 0 -52 -17.5t-40 -47t-26 -69.5t-9 -85
q0 -53 17.5 -83t49.5 -30z" />
    <glyph glyph-name="uni2081" unicode="&#x2081;" horiz-adv-x="236" 
d="M194 334l-78 -444h-77l75 422h-2q-9 -52 -37 -80.5t-69 -28.5l11 66q42 0 68.5 17.5t31.5 47.5h77z" />
    <glyph glyph-name="uni2082" unicode="&#x2082;" horiz-adv-x="373" 
d="M-4 -50h299l-10 -60h-322l10 57q64 20 114.5 48.5t86 63t54.5 73.5t19 80q0 31 -15 48.5t-43 17.5q-35 0 -60.5 -26.5t-36.5 -74.5h-74q18 77 66 120t117 43q63 0 96 -32t33 -89q0 -53 -23 -98t-66.5 -79.5t-105.5 -57.5t-139 -32v-2z" />
    <glyph glyph-name="uni2083" unicode="&#x2083;" horiz-adv-x="371" 
d="M164 144q67 0 103.5 -28t36.5 -78q0 -71 -50.5 -112.5t-138.5 -41.5q-63 0 -97 32t-34 91v11t1 13h74q-1 -5 -1 -9v-9q0 -32 17.5 -50t50.5 -18q45 0 71 23.5t26 61.5q0 28 -19.5 44t-56.5 16h-12l10 55q47 5 74 26.5t27 56.5q0 24 -16 37.5t-46 13.5q-32 0 -55.5 -23
t-33.5 -63h-73q17 69 64 108t115 39q63 0 95.5 -23.5t32.5 -62.5q0 -51 -44 -79.5t-121 -28.5v-2v0z" />
    <glyph glyph-name="uni2084" unicode="&#x2084;" horiz-adv-x="381" 
d="M319 -4h-58l-19 -106h-77l19 106h-211l11 64l193 274h143l-49 -278h58zM54 56h142l48 271h-2l-188 -269v-2z" />
    <glyph glyph-name="uni2085" unicode="&#x2085;" horiz-adv-x="373" 
d="M121 -116q-65 0 -100.5 32t-35.5 89v12h75q0 -33 18.5 -52t52.5 -19q48 0 76 29t28 79q0 34 -18 52.5t-53 18.5q-32 0 -55.5 -16.5t-37.5 -44.5l-72 10l80 260h252l-10 -60h-185l-64 -200h2q17 52 54 80t86 28q50 0 76.5 -29.5t26.5 -81.5q0 -43 -14 -77.5t-39.5 -59
t-61.5 -37.5t-81 -13z" />
    <glyph glyph-name="uni2086" unicode="&#x2086;" horiz-adv-x="396" 
d="M276 208q1 5 1 9q0 29 -16.5 45t-45.5 16q-48 0 -82 -45.5t-49 -126.5l-7 -44h2q9 54 47 84t97 30q54 0 82.5 -28.5t28.5 -79.5q0 -42 -14.5 -76t-40.5 -58t-62.5 -37t-79.5 -13q-68 0 -102.5 41.5t-34.5 119.5q0 64 16 118.5t45.5 93.5t71 61t92.5 22q61 0 93.5 -30.5
t32.5 -85.5v-16h-75zM176 117q-48 0 -76 -25.5t-28 -71.5q0 -35 19.5 -54.5t53.5 -19.5q50 0 79 28t29 75q0 32 -20 50t-57 18zM67 36v1v-1z" />
    <glyph glyph-name="uni2087" unicode="&#x2087;" horiz-adv-x="331" 
d="M335 334l-10 -57q-69 -20 -121.5 -110t-78.5 -234l-8 -43h-80l6 31q14 79 38.5 142t58 108t74.5 71t88 30v2h-289l10 60h312z" />
    <glyph glyph-name="uni2088" unicode="&#x2088;" horiz-adv-x="387" 
d="M213 148q52 -6 79.5 -34t27.5 -73q0 -72 -51 -114.5t-140 -42.5q-69 0 -105.5 29.5t-36.5 83.5q0 63 41 102.5t112 48.5v2q-48 0 -74 19t-26 54q0 54 45.5 85.5t123.5 31.5q65 0 99.5 -23t34.5 -65q0 -47 -35 -74.5t-95 -27.5v-2zM115 200q0 -55 61 -55q38 0 61 21.5
t23 57.5q0 26 -16 40t-45 14q-38 0 -61 -21.5t-23 -56.5zM140 -54q46 0 72.5 23.5t26.5 63.5q0 29 -18.5 45t-53.5 16q-46 0 -73 -23.5t-27 -63.5q0 -61 73 -61z" />
    <glyph glyph-name="uni2089" unicode="&#x2089;" horiz-adv-x="394" 
d="M211 340q68 0 101.5 -42t33.5 -118q0 -65 -16 -119.5t-45.5 -93.5t-71 -61t-92.5 -22q-60 0 -92 32.5t-32 90.5v10.5t1 10.5h74q-1 -5 -1 -14q0 -32 15.5 -50t44.5 -18q48 0 82.5 45.5t48.5 126.5l9 50h-2q-10 -51 -48 -79.5t-97 -28.5q-54 0 -82 27.5t-28 77.5
q0 40 14.5 72.5t40.5 55t62 35t80 12.5zM172 119q48 0 75.5 23.5t27.5 65.5q0 33 -20 51.5t-55 18.5q-48 0 -77 -25.5t-29 -70.5q0 -30 20.5 -46.5t57.5 -16.5z" />
    <glyph glyph-name="Euro" unicode="&#x20ac;" horiz-adv-x="664" 
d="M490 664q-90 0 -154.5 -57.5t-94.5 -154.5h284l-33 -45h-262q-4 -17 -6 -34.5t-4 -35.5h221l-32 -45h-190q1 -102 44 -159t124 -57q41 0 90.5 16.5t94.5 50.5l32 -72q-27 -20 -57 -35t-60.5 -25.5t-60 -15.5t-55.5 -5q-127 0 -194 77.5t-67 214.5v10h-68l8 44h62
q3 37 9 71h-59l8 44h62q19 69 53 124t82 94t108 60t130 21q53 0 105 -15t87 -43l-57 -76q-28 24 -68 36t-82 12z" />
    <glyph glyph-name="trademark" unicode="&#x2122;" horiz-adv-x="674" 
d="M242 738l-46 -264h-39l46 264h-89l6 32h217l-6 -32h-89zM687 770l-43 -296h-38l42 290h-2l-134 -290h-69l-28 290h-2l-60 -290h-36l61 296h74l26 -290h2l132 290h75z" />
    <glyph glyph-name="oneeighth" unicode="&#x215b;" horiz-adv-x="831" 
d="M205 730q-9 -52 -37 -80.5t-69 -28.5l11 66q42 0 68.5 17.5t31.5 47.5h77l-78 -444h-77l75 422h-2zM686 725l-613 -735l-29 25l613 735zM669 258q52 -6 79.5 -34t27.5 -73q0 -72 -51 -114.5t-140 -42.5q-69 0 -105.5 29.5t-36.5 83.5q0 63 41 102.5t112 48.5v2
q-48 0 -74 19t-26 54q0 54 45.5 85.5t123.5 31.5q65 0 99.5 -23t34.5 -65q0 -47 -35 -74.5t-95 -27.5v-2zM571 310q0 -55 61 -55q38 0 61 21.5t23 57.5q0 26 -16 40t-45 14q-38 0 -61 -21.5t-23 -56.5zM596 56q46 0 72.5 23.5t26.5 63.5q0 29 -18.5 45t-53.5 16
q-46 0 -73 -23.5t-27 -63.5q0 -61 73 -61z" />
    <glyph glyph-name="threeeighths" unicode="&#x215c;" horiz-adv-x="958" 
d="M387 456q0 -71 -50.5 -112.5t-138.5 -41.5q-63 0 -97 32t-34 91v11t1 13h74q-1 -5 -1 -9v-9q0 -32 17.5 -50t50.5 -18q45 0 71 23.5t26 61.5q0 28 -19.5 44t-56.5 16h-12l10 55q47 5 74 26.5t27 56.5q0 24 -16 37.5t-46 13.5q-32 0 -55.5 -23t-33.5 -63h-73q17 69 64 108
t115 39q63 0 95.5 -23.5t32.5 -62.5q0 -51 -44 -79.5t-121 -28.5v-2q67 0 103.5 -28t36.5 -78zM813 725l-613 -735l-29 25l613 735zM796 258q52 -6 79.5 -34t27.5 -73q0 -72 -51 -114.5t-140 -42.5q-69 0 -105.5 29.5t-36.5 83.5q0 63 41 102.5t112 48.5v2q-48 0 -74 19
t-26 54q0 54 45.5 85.5t123.5 31.5q65 0 99.5 -23t34.5 -65q0 -47 -35 -74.5t-95 -27.5v-2zM698 310q0 -55 61 -55q38 0 61 21.5t23 57.5q0 26 -16 40t-45 14q-38 0 -61 -21.5t-23 -56.5zM723 56q46 0 72.5 23.5t26.5 63.5q0 29 -18.5 45t-53.5 16q-46 0 -73 -23.5
t-27 -63.5q0 -61 73 -61z" />
    <glyph glyph-name="fiveeighths" unicode="&#x215d;" horiz-adv-x="963" 
d="M399 489q0 -43 -14 -77.5t-39.5 -59t-61.5 -37.5t-81 -13q-65 0 -100.5 32t-35.5 89v12h75q0 -33 18.5 -52t52.5 -19q48 0 76 29t28 79q0 34 -18 52.5t-53 18.5q-32 0 -55.5 -16.5t-37.5 -44.5l-72 10l80 260h252l-10 -60h-185l-64 -200h2q17 52 54 80t86 28
q50 0 76.5 -29.5t26.5 -81.5zM818 725l-613 -735l-29 25l613 735zM801 258q52 -6 79.5 -34t27.5 -73q0 -72 -51 -114.5t-140 -42.5q-69 0 -105.5 29.5t-36.5 83.5q0 63 41 102.5t112 48.5v2q-48 0 -74 19t-26 54q0 54 45.5 85.5t123.5 31.5q65 0 99.5 -23t34.5 -65
q0 -47 -35 -74.5t-95 -27.5v-2zM703 310q0 -55 61 -55q38 0 61 21.5t23 57.5q0 26 -16 40t-45 14q-38 0 -61 -21.5t-23 -56.5zM728 56q46 0 72.5 23.5t26.5 63.5q0 29 -18.5 45t-53.5 16q-46 0 -73 -23.5t-27 -63.5q0 -61 73 -61z" />
    <glyph glyph-name="seveneighths" unicode="&#x215e;" horiz-adv-x="940" 
d="M133 339q14 79 38.5 142t58 108t74.5 71t88 30v2h-289l10 60h312l-10 -57q-69 -20 -121.5 -110t-78.5 -234l-8 -43h-80zM788 725l-613 -735l-29 25l613 735zM771 258q52 -6 79.5 -34t27.5 -73q0 -72 -51 -114.5t-140 -42.5q-69 0 -105.5 29.5t-36.5 83.5q0 63 41 102.5
t112 48.5v2q-48 0 -74 19t-26 54q0 54 45.5 85.5t123.5 31.5q65 0 99.5 -23t34.5 -65q0 -47 -35 -74.5t-95 -27.5v-2zM673 310q0 -55 61 -55q38 0 61 21.5t23 57.5q0 26 -16 40t-45 14q-38 0 -61 -21.5t-23 -56.5zM698 56q46 0 72.5 23.5t26.5 63.5q0 29 -18.5 45t-53.5 16
q-46 0 -73 -23.5t-27 -63.5q0 -61 73 -61z" />
    <glyph glyph-name="partialdiff" unicode="&#x2202;" horiz-adv-x="658" 
d="M407 750q114 0 173.5 -75.5t59.5 -209.5q0 -108 -29.5 -195.5t-83.5 -150t-130.5 -96t-170.5 -33.5q-104 0 -159.5 39t-55.5 109q0 55 35.5 98.5t102.5 73.5t162.5 46t215.5 16q2 20 3.5 40.5t1.5 42.5q0 98 -36.5 153.5t-106.5 55.5q-64 0 -110 -32.5t-64 -92.5h-102
q30 100 107 155.5t187 55.5zM242 76q57 0 105 20.5t84.5 59t61 92.5t33.5 122q-93 0 -167.5 -14t-127 -40.5t-80.5 -64t-28 -84.5q0 -43 31 -67t88 -24z" />
    <glyph glyph-name="emptyset" unicode="&#x2205;" horiz-adv-x="624" 
d="M547 423q31 -47 31 -120q0 -71 -22 -128.5t-62.5 -98t-98 -63t-128.5 -22.5q-52 0 -92.5 13.5t-68.5 39.5l-49 -42l-29 34l49 42q-31 51 -31 123q0 70 22 127t63 97.5t98.5 62.5t129.5 22q52 0 92 -13.5t68 -39.5l47 41l29 -34zM96 208q0 -57 22 -95l361 310
q-46 43 -128 43q-58 0 -105 -18.5t-80.5 -52t-51.5 -81.5t-18 -106zM528 294q0 56 -22 94l-360 -310q46 -43 129 -43q58 0 104.5 18.5t79.5 52.5t51 81.5t18 106.5z" />
    <glyph glyph-name="product" unicode="&#x220f;" horiz-adv-x="846" 
d="M897 679h-137l-161 -909h-100l161 909h-322l-161 -909h-100l161 909h-139l17 91h797z" />
    <glyph glyph-name="summation" unicode="&#x2211;" horiz-adv-x="676" 
d="M142 689v-2l408 -285l-5 -31l1 4l-23 -127l-6 -37v1l-5 -28l-529 -331v-2l595 2l-15 -83h-607l33 187l530 335v2l-408 290l33 186h576l-15 -83z" />
    <glyph glyph-name="minus" unicode="&#x2212;" horiz-adv-x="523" 
d="M69 273h393l-8 -42h-392z" />
    <glyph glyph-name="radical" unicode="&#x221a;" horiz-adv-x="671" 
d="M762 770l-427 -880h-193l-26 322h-117l14 83h206l19 -398h2l410 873h112z" />
    <glyph glyph-name="infinity" unicode="&#x221e;" horiz-adv-x="801" 
d="M598 447q76 0 116.5 -41t40.5 -115q0 -54 -16 -97.5t-45.5 -74t-71.5 -47.5t-93 -17q-58 0 -93.5 28t-46.5 79q-27 -51 -74 -79t-111 -28q-76 0 -116.5 41t-40.5 115q0 54 16 97.5t45.5 74t71 47.5t93.5 17q59 0 94.5 -28t46.5 -79q26 51 73 79t111 28zM211 97
q39 0 70 13.5t53.5 38t34.5 59t12 76.5q0 57 -29.5 89t-86.5 32q-38 0 -69.5 -13.5t-54 -38t-34.5 -59t-12 -76.5q0 -57 30 -89t86 -32zM537 97q39 0 70 13.5t53.5 38t34.5 59t12 76.5q0 57 -29.5 89t-86.5 32q-38 0 -69.5 -13.5t-54 -38t-34.5 -59t-12 -76.5q0 -57 30 -89
t86 -32z" />
    <glyph glyph-name="integral" unicode="&#x222b;" horiz-adv-x="473" 
d="M245 584q17 94 74.5 145t144.5 51q69 0 112 -26l-35 -73q-17 9 -35 13.5t-40 4.5q-49 0 -79.5 -29t-39.5 -81l-112 -633q-16 -94 -73.5 -145t-144.5 -51q-69 0 -112 26l35 73q34 -18 75 -18q49 0 79.5 29t39.5 81l111 633v0z" />
    <glyph glyph-name="approxequal" unicode="&#x2248;" horiz-adv-x="597" 
d="M421 279q-42 0 -68.5 12t-47.5 26.5t-43 26.5t-56 12q-32 0 -55 -21.5t-33 -59.5h-40q11 59 47.5 91.5t91.5 32.5q42 0 68.5 -12t47.5 -26.5t42.5 -26.5t55.5 -12q32 0 55.5 21.5t33.5 59.5h40q-11 -59 -48 -91.5t-91 -32.5zM381 101q-42 0 -68.5 12t-47.5 26.5t-43 26.5
t-56 12q-32 0 -55 -21.5t-33 -59.5h-40q11 59 47.5 91.5t91.5 32.5q42 0 68.5 -12t47.5 -26.5t42.5 -26.5t55.5 -12q32 0 55.5 21.5t33.5 59.5h40q-11 -59 -48 -91.5t-91 -32.5z" />
    <glyph glyph-name="notequal" unicode="&#x2260;" horiz-adv-x="525" 
d="M313 307l-52 -110h189l-8 -42h-200l-73 -155h-46l72 155h-145l7 42h158l51 110h-189l7 42h202l69 149h47l-70 -149h145l-8 -42h-156z" />
    <glyph glyph-name="lessequal" unicode="&#x2264;" horiz-adv-x="517" 
d="M81 324l-1 -2l363 -131l-7 -45l-369 138l7 37l7 42l417 139l-8 -45zM28 59h393l-8 -42h-392z" />
    <glyph glyph-name="greaterequal" unicode="&#x2265;" horiz-adv-x="512" 
d="M469 326l-7 -42l-417 -138l8 45l409 131l1 2l-363 133l8 45l368 -139zM29 59h393l-7 -41h-393z" />
    <glyph glyph-name="lozenge" unicode="&#x25ca;" horiz-adv-x="486" 
d="M442 260l-12 -69l-180 -191h-101l-113 191l8 47l12 69l180 191h101l113 -191zM434 248v2l-146 244h-2l-234 -244v-2l147 -244h2z" />
    <glyph glyph-name="uniF8FF" unicode="&#xf8ff;" horiz-adv-x="1274" 
d="M846 -3q-7 -7 -17 -7q-14 0 -17 7.5t-3 15.5v324l-339 -340q-7 -7 -17 -7q-14 0 -17 7.5t-3 15.5v324l-340 -340q-7 -7 -17 -7q-8 0 -12.5 5t-4.5 13q0 10 5 15l342 341h-324q-8 0 -15.5 3t-7.5 16q0 5 2 8.5t5 7.5l340 342h-327q-20 0 -20 19v1q0 19 20 19h370
q8 0 15.5 -3t7.5 -17q0 -10 -8 -17l-341 -340h330q8 0 14 -6t6 -14v-327l339 338q7 8 17 8q13 0 15.5 -7.5t2.5 -14.5v-324l340 338q6 8 16 8q8 0 12.5 -5.5t4.5 -13.5q0 -3 -1 -7t-5 -7z" />
    <glyph glyph-name="Jacute" horiz-adv-x="556" 
d="M679 921l-202 -93l-19 55l199 98zM362 215l93 525h104l-92 -519q-19 -109 -88.5 -170t-176.5 -61q-89 0 -136.5 54.5t-47.5 153.5q0 25 3 52h97q-1 -9 -1.5 -17.5t-0.5 -16.5q0 -66 27.5 -103t76.5 -37q56 0 93.5 36.5t48.5 102.5z" />
    <glyph glyph-name="i.loclTRK" horiz-adv-x="244" 
d="M154 715h100l-19 -113h-100zM216 498l-88 -498h-100l88 498h100z" />
    <glyph glyph-name="jacute" horiz-adv-x="244" 
d="M339 679l-202 -93l-19 55l199 98zM216 498l-129 -728h-100l129 728h100z" />
    <glyph glyph-name="f_b" horiz-adv-x="989" 
d="M239 498h168l-12 -73h-163l-75 -425h-100l75 425h-78l12 73h167l1 2q-36 11 -56 37.5t-20 61.5q0 84 57 132.5t157 48.5q52 0 92 -19l-27 -76q-24 14 -57 14q-53 0 -84.5 -26.5t-39.5 -74.5zM781 508q82 0 125.5 -52t43.5 -146q0 -71 -18.5 -130t-52.5 -101t-82 -65.5
t-107 -23.5q-75 0 -114.5 35t-39.5 100q0 22 4 41h-2l-30 -166h-100l136 770h100l-77 -438h2q14 83 70.5 129.5t141.5 46.5zM662 71q42 0 75.5 16t57.5 45t37 69t13 89q0 65 -31 101t-90 36q-69 0 -116.5 -48.5t-62.5 -129.5q-2 -14 -3 -25.5t-1 -22.5q0 -60 30.5 -95
t90.5 -35z" />
    <glyph glyph-name="f_f_j" horiz-adv-x="944" 
d="M916 498l-129 -728h-100l116 655h-244l-75 -425h-100l75 425h-227l-75 -425h-100l75 425h-78l12 73h167l1 2q-36 11 -56 37.5t-20 61.5q0 84 57 132.5t157 48.5q52 0 92 -19l-27 -76q-24 14 -57 14q-53 0 -84.5 -26.5t-39.5 -74.5l-17 -100h321l1 2q-36 11 -56 37.5
t-20 61.5q0 84 57 132.5t157 48.5q52 0 92 -19l-27 -76q-24 14 -57 14q-53 0 -84.5 -26.5t-39.5 -74.5l-17 -100h350zM954 715l-19 -113h-100l19 113h100z" />
    <glyph glyph-name="f_f_t" horiz-adv-x="1049" 
d="M849 154q-1 -5 -1.5 -9.5t-0.5 -9.5q0 -31 19.5 -47.5t54.5 -16.5q39 0 73 16l-13 -76q-23 -10 -51 -15.5t-55 -5.5q-63 0 -97 30.5t-34 85.5q0 9 1 18.5t3 19.5l49 281h-238l-75 -425h-100l75 425h-227l-75 -425h-100l75 425h-78l12 73h167l1 2q-36 11 -56 37.5
t-20 61.5q0 84 57 132.5t157 48.5q52 0 92 -19l-27 -76q-24 14 -57 14q-53 0 -84.5 -26.5t-39.5 -74.5l-17 -100h321l1 2q-36 11 -56 37.5t-20 61.5q0 84 57 132.5t157 48.5q52 0 92 -19l-27 -76q-24 14 -57 14q-53 0 -84.5 -26.5t-39.5 -74.5l-17 -100h250l31 170h99
l-7 -42q-7 -44 -38 -76.5t-79 -49.5l-1 -2h253l-12 -73h-165z" />
    <glyph glyph-name="f_h" horiz-adv-x="965" 
d="M239 498h168l-12 -73h-163l-75 -425h-100l75 425h-78l12 73h167l1 2q-36 11 -56 37.5t-20 61.5q0 84 57 132.5t157 48.5q52 0 92 -19l-27 -76q-24 14 -57 14q-53 0 -84.5 -26.5t-39.5 -74.5zM766 508q72 0 110 -38t38 -109q0 -13 -1 -26t-4 -28l-54 -307h-100l54 304
q1 8 1.5 15.5t0.5 15.5q0 44 -24.5 68t-72.5 24q-62 0 -103.5 -41t-54.5 -115l-48 -271h-100l136 770h100l-79 -445h2q16 87 68.5 135t130.5 48z" />
    <glyph glyph-name="f_iacute" horiz-adv-x="617" 
d="M589 498l-88 -498h-100l75 425h-244l-75 -425h-100l75 425h-78l12 73h167l1 2q-36 11 -56 37.5t-20 61.5q0 84 57 132.5t157 48.5q52 0 92 -19l-27 -76q-24 14 -57 14q-53 0 -84.5 -26.5t-39.5 -74.5l-17 -100h350zM510 586l-19 55l199 98l22 -60z" />
    <glyph glyph-name="f_j" horiz-adv-x="617" 
d="M589 498l-129 -728h-100l116 655h-244l-75 -425h-100l75 425h-78l12 73h167l1 2q-36 11 -56 37.5t-20 61.5q0 84 57 132.5t157 48.5q52 0 92 -19l-27 -76q-24 14 -57 14q-53 0 -84.5 -26.5t-39.5 -74.5l-17 -100h350zM627 715l-19 -113h-100l19 113h100z" />
    <glyph glyph-name="f_k" horiz-adv-x="934" 
d="M395 425h-163l-75 -425h-100l75 425h-78l12 73h167l1 2q-36 11 -56 37.5t-20 61.5q0 84 57 132.5t157 48.5q52 0 92 -19l-27 -76q-24 14 -57 14q-53 0 -84.5 -26.5t-39.5 -74.5l-17 -100h168zM669 261l224 -261h-128l-211 255h-2l-45 -255h-100l136 770h100l-90 -507h3
l280 235h123z" />
    <glyph glyph-name="f_t" horiz-adv-x="722" 
d="M522 154q-1 -5 -1.5 -9.5t-0.5 -9.5q0 -31 19.5 -47.5t54.5 -16.5q39 0 73 16l-13 -76q-23 -10 -51 -15.5t-55 -5.5q-63 0 -97 30.5t-34 85.5q0 9 1 18.5t3 19.5l49 281h-238l-75 -425h-100l75 425h-78l12 73h167l1 2q-36 11 -56 37.5t-20 61.5q0 84 57 132.5t157 48.5
q52 0 92 -19l-27 -76q-24 14 -57 14q-53 0 -84.5 -26.5t-39.5 -74.5l-17 -100h250l31 170h99l-7 -42q-7 -44 -38 -76.5t-79 -49.5l-1 -2h253l-12 -73h-165z" />
    <glyph glyph-name="t_t" horiz-adv-x="736" 
d="M536 154q-1 -5 -1.5 -9.5t-0.5 -9.5q0 -31 19.5 -47.5t54.5 -16.5q39 0 73 16l-13 -76q-23 -10 -51 -15.5t-55 -5.5q-63 0 -97 30.5t-34 85.5q0 9 1 18.5t3 19.5l49 281h-256l-48 -271q-1 -5 -1.5 -9.5t-0.5 -9.5q0 -31 19.5 -47.5t54.5 -16.5q39 0 73 16l-13 -76
q-23 -10 -51 -15.5t-55 -5.5q-63 0 -97 30.5t-34 85.5q0 9 1 18.5t3 19.5l49 281h-76l12 73h83l31 170h99l-7 -42q-7 -44 -38 -76.5t-79 -49.5l-1 -2h351l31 170h99l-7 -42q-7 -44 -38 -76.5t-79 -49.5l-1 -2h253l-12 -73h-165z" />
    <glyph glyph-name="zero.lf" horiz-adv-x="664" 
d="M286 -10q-106 0 -162.5 74.5t-56.5 207.5q0 105 25 192.5t71.5 151t111.5 99t145 35.5q107 0 163 -74.5t56 -207.5q0 -105 -25 -192.5t-71 -151t-111.5 -99t-145.5 -35.5zM302 76q52 0 94.5 30t72.5 82.5t46.5 123t16.5 150.5q0 95 -32 148.5t-94 53.5q-52 0 -94.5 -30
t-72.5 -82.5t-46.5 -123t-16.5 -150.5q0 -95 32 -148.5t94 -53.5z" />
    <glyph glyph-name="one.lf" horiz-adv-x="361" 
d="M356 740l-130 -740h-104l124 706h-2q-14 -76 -58 -118t-111 -42l16 91q68 0 110.5 27.5t50.5 75.5h104z" />
    <glyph glyph-name="two.lf" horiz-adv-x="610" 
d="M54 83h483l-15 -83h-523l14 78q109 31 196.5 79.5t148.5 108.5t94 129.5t33 143.5q0 59 -28.5 92t-82.5 33q-66 0 -113.5 -48t-67.5 -135h-101q29 128 107.5 198.5t191.5 70.5q100 0 153.5 -52.5t53.5 -146.5q0 -90 -38 -168t-108.5 -138.5t-171 -101.5t-226.5 -58v-2z
" />
    <glyph glyph-name="three.lf" horiz-adv-x="607" 
d="M328 417q109 0 166.5 -46t57.5 -129q0 -57 -21 -103.5t-61 -79.5t-96.5 -51t-127.5 -18q-102 0 -156.5 52t-54.5 148q0 19 3 42h101q-2 -9 -2 -16.5v-15.5q0 -60 32 -92.5t93 -32.5q84 0 133 42t49 113q0 53 -36.5 82t-105.5 29h-21l14 78q87 9 137 48.5t50 102.5
q0 45 -30 70t-86 25q-62 0 -106 -41.5t-61 -116.5h-99q28 115 104 179t186 64q100 0 153 -39t53 -105q0 -44 -19 -78.5t-54 -58.5t-86 -37t-114 -13v-2h5v0z" />
    <glyph glyph-name="four.lf" horiz-adv-x="612" 
d="M570 185h-95l-33 -185h-105l32 185h-355l16 89l346 466h196l-83 -472h96zM128 268h259l81 462h-2l-338 -460v-2z" />
    <glyph glyph-name="five.lf" horiz-adv-x="614" 
d="M259 -10q-106 0 -163 53t-57 147v18h103q0 -62 34.5 -97t97.5 -35q44 0 79.5 14.5t60.5 40.5t38.5 63t13.5 82q0 62 -34 96.5t-97 34.5q-62 0 -105 -32t-69 -83l-98 13l133 435h406l-14 -83h-313l-109 -347h2q29 84 89.5 130.5t141.5 46.5q87 0 132.5 -49.5t45.5 -138.5
q0 -71 -22.5 -128t-63.5 -97t-100 -62t-132 -22z" />
    <glyph glyph-name="six.lf" horiz-adv-x="649" 
d="M531 532q0 5 0.5 10t0.5 10q0 53 -29.5 82.5t-84.5 29.5q-85 0 -147 -81t-87 -226l-13 -72h2q16 90 80 140.5t164 50.5q91 0 139 -48t48 -135q0 -69 -23.5 -125t-65.5 -95.5t-100.5 -61t-128.5 -21.5q-110 0 -165.5 66.5t-55.5 194.5q0 108 26 199.5t74 158t116 104
t152 37.5q97 0 149 -49t52 -139v-14.5t-1 -15.5h-102zM354 394q-87 0 -138.5 -47.5t-51.5 -132.5q0 -64 36 -101t99 -37q44 0 80 14t61.5 39t39 60.5t13.5 79.5q0 60 -36 92.5t-103 32.5z" />
    <glyph glyph-name="seven.lf" horiz-adv-x="540" 
d="M609 740l-14 -78q-59 -15 -112.5 -62.5t-97.5 -122.5t-78.5 -175.5t-55.5 -222.5l-13 -79h-110l11 62q24 131 64 236.5t93.5 182t119.5 121t141 53.5v2h-474l15 83h511z" />
    <glyph glyph-name="eight.lf" horiz-adv-x="635" 
d="M413 422q81 -11 124.5 -57t43.5 -118q0 -59 -21.5 -106.5t-62 -81t-98 -51.5t-128.5 -18q-112 0 -171 48t-59 136q0 103 64.5 168t178.5 80v2q-75 0 -115 32.5t-40 91.5q0 46 19.5 83.5t55.5 64t87 40.5t114 14q103 0 159 -39.5t56 -108.5q0 -40 -14.5 -73t-41.5 -56
t-65.5 -36t-85.5 -13v-2zM231 517q0 -48 30 -74.5t85 -26.5q74 0 117 40t43 107q0 48 -29.5 74.5t-85.5 26.5q-74 0 -117 -39.5t-43 -107.5zM287 76q85 0 134.5 42.5t49.5 115.5q0 53 -35.5 82.5t-101.5 29.5q-85 0 -134.5 -42.5t-49.5 -115.5q0 -53 35.5 -82.5t101.5 -29.5
z" />
    <glyph glyph-name="nine.lf" horiz-adv-x="648" 
d="M408 750q111 0 164.5 -67.5t53.5 -192.5q0 -109 -26 -200.5t-74 -158t-116 -104t-152 -37.5q-96 0 -147 52.5t-51 147.5v18.5t2 19.5h102q-1 -8 -1 -13.5v-11.5q0 -60 28.5 -93.5t82.5 -33.5q85 0 146.5 81t87.5 226l14 82h-2q-15 -85 -79 -133t-164 -48q-91 0 -140 46.5
t-49 129.5q0 67 23.5 120.5t66 91t101.5 58t129 20.5zM341 366q86 0 137 44t51 123q0 61 -37 96t-99 35q-44 0 -80 -13t-61.5 -36.5t-39 -56.5t-13.5 -74q0 -56 37 -87t105 -31z" />
    <glyph glyph-name="zero.osf" horiz-adv-x="644" 
d="M276 -10q-108 0 -165.5 61t-57.5 170q0 80 23 146t65.5 113t103 72.5t135.5 25.5q109 0 166.5 -61t57.5 -170q0 -80 -23 -146t-66 -113t-103.5 -72.5t-135.5 -25.5zM291 71q48 0 86.5 19.5t66 54.5t42 83.5t14.5 107.5q0 75 -34 118t-100 43q-48 0 -87 -19.5t-66 -54.5
t-42 -83.5t-15 -107.5q0 -75 34.5 -118t100.5 -43z" />
    <glyph glyph-name="one.osf" horiz-adv-x="354" 
d="M324 568l-100 -568h-100l94 534h-2q-13 -72 -56 -112t-108 -40l14 83q66 0 108 27.5t50 75.5h100z" />
    <glyph glyph-name="two.osf" horiz-adv-x="588" 
d="M47 77h470l-13 -77h-504l14 73q102 31 184 70t139.5 81.5t88 88.5t30.5 92q0 45 -30.5 69.5t-87.5 24.5q-64 0 -108.5 -36t-60.5 -102h-96q12 51 36.5 91.5t60.5 68.5t81.5 42.5t99.5 14.5q99 0 152 -42.5t53 -117.5q0 -63 -35.5 -117t-101.5 -97.5t-160 -75.5t-212 -49
v-2z" />
    <glyph glyph-name="three.osf" horiz-adv-x="590" 
d="M286 278q109 0 168.5 -44t59.5 -122q0 -53 -21 -96t-60 -73t-94.5 -46.5t-124.5 -16.5q-99 0 -152 48.5t-53 136.5v17.5t2 18.5h95q-1 -8 -1 -14v-12q0 -55 32 -85.5t92 -30.5q85 0 133.5 38.5t48.5 104.5q0 51 -37 78.5t-106 27.5h-20l12 72q88 9 136.5 44t48.5 90
q0 40 -30.5 62.5t-87.5 22.5q-61 0 -104 -37t-59 -103h-94q25 103 98 161t178 58q99 0 152.5 -35.5t53.5 -98.5q0 -39 -18.5 -69.5t-53 -51.5t-84 -32t-110.5 -11v-2v0z" />
    <glyph glyph-name="four.osf" horiz-adv-x="597" 
d="M529 0h-96l-19 -110h-100l19 110h-347l16 84l341 485h190l-86 -492h95zM97 77h251l86 482h-2l-335 -480v-2z" />
    <glyph glyph-name="five.osf" horiz-adv-x="610" 
d="M237 -120q-107 0 -165.5 49t-58.5 139v10h97q1 -55 38 -86t103 -31q44 0 80 13.5t61.5 38t39 59t13.5 76.5q0 58 -34.5 91t-100.5 33q-65 0 -110 -29t-70 -76l-92 13l125 388h415l-14 -77h-326l-106 -310h2q31 78 92.5 122t141.5 44q88 0 134.5 -48t46.5 -133
q0 -66 -22 -119t-62.5 -90t-98 -57t-129.5 -20z" />
    <glyph glyph-name="six.osf" horiz-adv-x="641" 
d="M531 522q1 5 1 8.5v7.5q0 53 -31.5 82t-89.5 29q-87 0 -148.5 -79.5t-87.5 -222.5l-12 -73h2q16 90 82 139t165 49q91 0 138.5 -47.5t47.5 -132.5q0 -68 -23.5 -122t-65 -92t-99 -58t-125.5 -20q-224 0 -224 256q0 107 26 196t73.5 153t115 99.5t150.5 35.5
q97 0 149.5 -47.5t52.5 -134.5q0 -6 -0.5 -12.5t-0.5 -13.5h-96zM352 386q-45 0 -81 -12.5t-62 -36t-40 -57t-14 -74.5q0 -63 38 -99t103 -36q45 0 81.5 13t62.5 37.5t40 59t14 77.5q0 60 -36.5 94t-105.5 34z" />
    <glyph glyph-name="seven.osf" horiz-adv-x="543" 
d="M572 568l-13 -72q-62 -17 -117 -66t-101 -127t-81.5 -182.5t-57.5 -230.5h-106q23 130 63.5 236t95 183.5t122.5 123t146 56.5v2h-456l14 77h491z" />
    <glyph glyph-name="eight.osf" horiz-adv-x="636" 
d="M409 409q85 -11 130 -55.5t45 -115.5q0 -57 -22 -102.5t-62.5 -78t-98 -50t-129.5 -17.5q-113 0 -174 47.5t-61 133.5q0 99 66 161.5t182 76.5v2q-78 0 -119.5 32t-41.5 89q0 46 19.5 82.5t55.5 62t87.5 39.5t116.5 14q104 0 161 -39t57 -108q0 -80 -57 -126t-155 -46v-2
zM221 505q0 -48 32.5 -74.5t92.5 -26.5q76 0 121.5 38.5t45.5 104.5q0 48 -32.5 75t-92.5 27q-76 0 -121.5 -39t-45.5 -105zM287 71q88 0 140.5 42t52.5 115q0 53 -38 82.5t-108 29.5q-89 0 -141 -42t-52 -114q0 -53 38 -83t108 -30z" />
    <glyph glyph-name="nine.osf" horiz-adv-x="640" 
d="M369 577q115 0 170.5 -62t55.5 -183q0 -101 -25.5 -184.5t-72.5 -143t-113.5 -92t-147.5 -32.5q-98 0 -151.5 44.5t-53.5 125.5v21h95v-11q1 -47 33 -73t91 -26q87 0 148 75t85 210l10 57h-2q-8 -42 -28.5 -75.5t-52.5 -56t-74 -34.5t-91 -12q-91 0 -139 46t-48 128
q0 64 23 115.5t64 87.5t98.5 55.5t125.5 19.5zM306 202q88 0 141 44.5t53 121.5q0 60 -38.5 94t-104.5 34q-90 0 -142.5 -46.5t-52.5 -127.5q0 -57 37.5 -88.5t106.5 -31.5z" />
    <glyph glyph-name="zero.dnom" horiz-adv-x="405" 
d="M158 -6q-66 0 -101 45t-35 126q0 63 15.5 115.5t44 90t68 58.5t88.5 21q66 0 101 -45t35 -126q0 -63 -15.5 -115.5t-44 -90t-68 -58.5t-88.5 -21zM168 56q29 0 52.5 17.5t40 47.5t25.5 70t9 85q0 52 -17 82t-50 30q-29 0 -52 -17.5t-40 -47t-26 -69.5t-9 -85
q0 -53 17.5 -83t49.5 -30z" />
    <glyph glyph-name="one.dnom" horiz-adv-x="236" 
d="M214 444l-78 -444h-77l75 422h-2q-9 -52 -37 -80.5t-69 -28.5l11 66q42 0 68.5 17.5t31.5 47.5h77z" />
    <glyph glyph-name="two.dnom" horiz-adv-x="373" 
d="M16 60h299l-10 -60h-322l10 57q64 20 114.5 48.5t86 63t54.5 73.5t19 80q0 31 -15 48.5t-43 17.5q-35 0 -60.5 -26.5t-36.5 -74.5h-74q18 77 66 120t117 43q63 0 96 -32t33 -89q0 -53 -23 -98t-66.5 -79.5t-105.5 -57.5t-139 -32v-2z" />
    <glyph glyph-name="three.dnom" horiz-adv-x="371" 
d="M183 254q67 0 103.5 -28t36.5 -78q0 -71 -50.5 -112.5t-138.5 -41.5q-63 0 -97 32t-34 91v11t1 13h74q-1 -5 -1 -9v-9q0 -32 17.5 -50t50.5 -18q45 0 71 23.5t26 61.5q0 28 -19.5 44t-56.5 16h-12l10 55q47 5 74 26.5t27 56.5q0 24 -16 37.5t-46 13.5q-32 0 -55.5 -23
t-33.5 -63h-73q17 69 64 108t115 39q63 0 95.5 -23.5t32.5 -62.5q0 -51 -44 -79.5t-121 -28.5v-2v0z" />
    <glyph glyph-name="four.dnom" horiz-adv-x="381" 
d="M338 106h-58l-19 -106h-77l19 106h-211l11 64l193 274h143l-49 -278h58zM73 166h142l48 271h-2l-188 -269v-2z" />
    <glyph glyph-name="five.dnom" horiz-adv-x="373" 
d="M140 -6q-65 0 -100.5 32t-35.5 89v12h75q0 -33 18.5 -52t52.5 -19q48 0 76 29t28 79q0 34 -18 52.5t-53 18.5q-32 0 -55.5 -16.5t-37.5 -44.5l-72 10l80 260h252l-10 -60h-185l-64 -200h2q17 52 54 80t86 28q50 0 76.5 -29.5t26.5 -81.5q0 -43 -14 -77.5t-39.5 -59
t-61.5 -37.5t-81 -13z" />
    <glyph glyph-name="six.dnom" horiz-adv-x="396" 
d="M296 318q1 5 1 9q0 29 -16.5 45t-45.5 16q-48 0 -82 -45.5t-49 -126.5l-7 -44h2q9 54 47 84t97 30q54 0 82.5 -28.5t28.5 -79.5q0 -42 -14.5 -76t-40.5 -58t-62.5 -37t-79.5 -13q-68 0 -102.5 41.5t-34.5 119.5q0 64 16 118.5t45.5 93.5t71 61t92.5 22q61 0 93.5 -30.5
t32.5 -85.5v-16h-75zM196 227q-48 0 -76 -25.5t-28 -71.5q0 -35 19.5 -54.5t53.5 -19.5q50 0 79 28t29 75q0 32 -20 50t-57 18zM87 146v1v-1z" />
    <glyph glyph-name="seven.dnom" horiz-adv-x="331" 
d="M354 444l-10 -57q-69 -20 -121.5 -110t-78.5 -234l-8 -43h-80l6 31q14 79 38.5 142t58 108t74.5 71t88 30v2h-289l10 60h312z" />
    <glyph glyph-name="eight.dnom" horiz-adv-x="387" 
d="M232 258q52 -6 79.5 -34t27.5 -73q0 -72 -51 -114.5t-140 -42.5q-69 0 -105.5 29.5t-36.5 83.5q0 63 41 102.5t112 48.5v2q-48 0 -74 19t-26 54q0 54 45.5 85.5t123.5 31.5q65 0 99.5 -23t34.5 -65q0 -47 -35 -74.5t-95 -27.5v-2zM134 310q0 -55 61 -55q38 0 61 21.5
t23 57.5q0 26 -16 40t-45 14q-38 0 -61 -21.5t-23 -56.5zM159 56q46 0 72.5 23.5t26.5 63.5q0 29 -18.5 45t-53.5 16q-46 0 -73 -23.5t-27 -63.5q0 -61 73 -61z" />
    <glyph glyph-name="nine.dnom" horiz-adv-x="394" 
d="M231 450q68 0 101.5 -42t33.5 -118q0 -65 -16 -119.5t-45.5 -93.5t-71 -61t-92.5 -22q-60 0 -92 32.5t-32 90.5v10.5t1 10.5h74q-1 -5 -1 -14q0 -32 15.5 -50t44.5 -18q48 0 82.5 45.5t48.5 126.5l9 50h-2q-10 -51 -48 -79.5t-97 -28.5q-54 0 -82 27.5t-28 77.5
q0 40 14.5 72.5t40.5 55t62 35t80 12.5zM192 229q48 0 75.5 23.5t27.5 65.5q0 33 -20 51.5t-55 18.5q-48 0 -77 -25.5t-29 -70.5q0 -30 20.5 -46.5t57.5 -16.5z" />
    <glyph glyph-name="zero.numr" horiz-adv-x="405" 
d="M212 302q-66 0 -101 45t-35 126q0 63 15.5 115.5t44 90t68 58.5t88.5 21q66 0 101 -45t35 -126q0 -63 -15.5 -115.5t-44 -90t-68 -58.5t-88.5 -21zM222 364q29 0 52.5 17.5t40 47.5t25.5 70t9 85q0 52 -17 82t-50 30q-29 0 -52 -17.5t-40 -47t-26 -69.5t-9 -85
q0 -53 17.5 -83t49.5 -30z" />
    <glyph glyph-name="one.numr" horiz-adv-x="236" 
d="M268 752l-78 -444h-77l75 422h-2q-9 -52 -37 -80.5t-69 -28.5l11 66q42 0 68.5 17.5t31.5 47.5h77z" />
    <glyph glyph-name="two.numr" horiz-adv-x="373" 
d="M70 368h299l-10 -60h-322l10 57q64 20 114.5 48.5t86 63t54.5 73.5t19 80q0 31 -15 48.5t-43 17.5q-35 0 -60.5 -26.5t-36.5 -74.5h-74q18 77 66 120t117 43q63 0 96 -32t33 -89q0 -53 -23 -98t-66.5 -79.5t-105.5 -57.5t-139 -32v-2z" />
    <glyph glyph-name="three.numr" horiz-adv-x="371" 
d="M237 562q67 0 103.5 -28t36.5 -78q0 -71 -50.5 -112.5t-138.5 -41.5q-63 0 -97 32t-34 91v11t1 13h74q-1 -5 -1 -9v-9q0 -32 17.5 -50t50.5 -18q45 0 71 23.5t26 61.5q0 28 -19.5 44t-56.5 16h-12l10 55q47 5 74 26.5t27 56.5q0 24 -16 37.5t-46 13.5q-32 0 -55.5 -23
t-33.5 -63h-73q17 69 64 108t115 39q63 0 95.5 -23.5t32.5 -62.5q0 -51 -44 -79.5t-121 -28.5v-2v0z" />
    <glyph glyph-name="four.numr" horiz-adv-x="381" 
d="M393 414h-58l-19 -106h-77l19 106h-211l11 64l193 274h143l-49 -278h58zM128 474h142l48 271h-2l-188 -269v-2z" />
    <glyph glyph-name="five.numr" horiz-adv-x="373" 
d="M194 302q-65 0 -100.5 32t-35.5 89v12h75q0 -33 18.5 -52t52.5 -19q48 0 76 29t28 79q0 34 -18 52.5t-53 18.5q-32 0 -55.5 -16.5t-37.5 -44.5l-72 10l80 260h252l-10 -60h-185l-64 -200h2q17 52 54 80t86 28q50 0 76.5 -29.5t26.5 -81.5q0 -43 -14 -77.5t-39.5 -59
t-61.5 -37.5t-81 -13z" />
    <glyph glyph-name="six.numr" horiz-adv-x="396" 
d="M350 626q1 5 1 9q0 29 -16.5 45t-45.5 16q-48 0 -82 -45.5t-49 -126.5l-7 -44h2q9 54 47 84t97 30q54 0 82.5 -28.5t28.5 -79.5q0 -42 -14.5 -76t-40.5 -58t-62.5 -37t-79.5 -13q-68 0 -102.5 41.5t-34.5 119.5q0 64 16 118.5t45.5 93.5t71 61t92.5 22q61 0 93.5 -30.5
t32.5 -85.5v-16h-75zM250 535q-48 0 -76 -25.5t-28 -71.5q0 -35 19.5 -54.5t53.5 -19.5q50 0 79 28t29 75q0 32 -20 50t-57 18zM141 454v1v-1z" />
    <glyph glyph-name="seven.numr" horiz-adv-x="331" 
d="M409 752l-10 -57q-69 -20 -121.5 -110t-78.5 -234l-8 -43h-80l6 31q14 79 38.5 142t58 108t74.5 71t88 30v2h-289l10 60h312z" />
    <glyph glyph-name="eight.numr" horiz-adv-x="387" 
d="M286 566q52 -6 79.5 -34t27.5 -73q0 -72 -51 -114.5t-140 -42.5q-69 0 -105.5 29.5t-36.5 83.5q0 63 41 102.5t112 48.5v2q-48 0 -74 19t-26 54q0 54 45.5 85.5t123.5 31.5q65 0 99.5 -23t34.5 -65q0 -47 -35 -74.5t-95 -27.5v-2zM188 618q0 -55 61 -55q38 0 61 21.5
t23 57.5q0 26 -16 40t-45 14q-38 0 -61 -21.5t-23 -56.5zM213 364q46 0 72.5 23.5t26.5 63.5q0 29 -18.5 45t-53.5 16q-46 0 -73 -23.5t-27 -63.5q0 -61 73 -61z" />
    <glyph glyph-name="nine.numr" horiz-adv-x="394" 
d="M285 758q68 0 101.5 -42t33.5 -118q0 -65 -16 -119.5t-45.5 -93.5t-71 -61t-92.5 -22q-60 0 -92 32.5t-32 90.5v10.5t1 10.5h74q-1 -5 -1 -14q0 -32 15.5 -50t44.5 -18q48 0 82.5 45.5t48.5 126.5l9 50h-2q-10 -51 -48 -79.5t-97 -28.5q-54 0 -82 27.5t-28 77.5
q0 40 14.5 72.5t40.5 55t62 35t80 12.5zM246 537q48 0 75.5 23.5t27.5 65.5q0 33 -20 51.5t-55 18.5q-48 0 -77 -25.5t-29 -70.5q0 -30 20.5 -46.5t57.5 -16.5z" />
    <glyph glyph-name="backslash.case" horiz-adv-x="366" 
d="M292 -15l-47 -15l-128 785l47 15z" />
    <glyph glyph-name="exclamdown.case" horiz-adv-x="281" 
d="M168 740h117l-19 -111h-117zM238 534l-89 -534h-104l99 534h94z" />
    <glyph glyph-name="questiondown.case" horiz-adv-x="543" 
d="M309 629l19 111h117l-19 -111h-117zM512 229q-13 -56 -39 -100.5t-62 -75.5t-82 -47t-100 -16q-97 0 -149 45t-52 124q0 44 19 90.5t54 94.5t85 95.5t112 94.5h97v-2q-58 -47 -105 -94.5t-80 -93t-51 -88t-18 -78.5q0 -47 28 -74.5t79 -27.5q61 0 104 40.5t60 112.5h100z
" />
    <glyph glyph-name="slash.case" horiz-adv-x="377" 
d="M433 755l-404 -785l-43 15l405 785z" />
    <glyph glyph-name="numbersign.osf" horiz-adv-x="586" 
d="M465 370l-46 -160h100l-13 -40h-99l-50 -170h-49l48 170h-186l-49 -170h-49l50 170h-104l13 40h103l47 160h-100l12 40h100l44 150h49l-45 -150h186l45 150h49l-44 -150h104l-12 -40h-104zM417 370h-188l-48 -160h189z" />
    <glyph glyph-name="braceleft.case" horiz-adv-x="275" 
d="M194 684q9 48 45 77t87 29l-8 -44q-29 0 -50 -19t-26 -49l-37 -206q-14 -75 -85 -103q51 -22 51 -78v-10.5t-2 -13.5l-36 -205q-1 -5 -1 -8v-6q0 -25 14 -39.5t40 -14.5l-8 -44q-45 0 -70.5 23t-25.5 62v8.5t2 12.5l36 205q1 5 1.5 10.5t0.5 10.5q0 31 -19.5 48t-54.5 17
l8 45q42 0 68 22.5t34 63.5l36 206v0z" />
    <glyph glyph-name="braceright.case" horiz-adv-x="275" 
d="M196 457q0 -31 19.5 -48t54.5 -17l-8 -45q-42 0 -68 -22.5t-34 -63.5l-36 -205q-8 -48 -45 -77t-88 -29l8 44q29 0 50.5 19t26.5 49l36 205q7 38 29 63.5t57 39.5q-52 21 -52 78v10t2 14l37 206q1 5 1 8v6q0 25 -14.5 39.5t-39.5 14.5l7 44q45 0 71.5 -23.5t26.5 -61.5
q0 -5 -0.5 -10t-1.5 -11l-37 -206q-2 -8 -2 -12v-9z" />
    <glyph glyph-name="bracketleft.case" horiz-adv-x="304" 
d="M226 746l-132 -752h143l-7 -44h-193l148 840h193l-8 -44h-144z" />
    <glyph glyph-name="bracketright.case" horiz-adv-x="305" 
d="M162 -50h-192l8 44h144l132 752h-143l7 44h192z" />
    <glyph glyph-name="parenleft.case" horiz-adv-x="262" 
d="M187 -32l-43 -28q-22 36 -37.5 77t-25.5 83.5t-15 85.5t-5 83q0 131 55 264.5t180 266.5l32 -28q-59 -63 -100.5 -127t-67.5 -127t-37.5 -125t-11.5 -120q0 -36 4.5 -76t13.5 -79.5t23.5 -78t34.5 -71.5z" />
    <glyph glyph-name="parenright.case" horiz-adv-x="261" 
d="M-24 -32q59 62 100.5 126t67.5 127.5t37.5 125.5t11.5 121q0 36 -4 75.5t-13 79.5t-23.5 78t-34.5 71l42 28q22 -36 37.5 -77t25.5 -83.5t15 -85.5t5 -83q0 -131 -54.5 -264.5t-180.5 -266.5z" />
    <glyph glyph-name="emdash.case" horiz-adv-x="879" 
d="M834 384l-7 -42h-745l7 42h745z" />
    <glyph glyph-name="endash.case" horiz-adv-x="595" 
d="M549 384l-7 -42h-460l7 42h460z" />
    <glyph glyph-name="hyphen.case" horiz-adv-x="415" 
d="M370 384l-7 -42h-281l7 42h281z" />
    <glyph glyph-name="uni00AD.case" horiz-adv-x="415" 
d="M370 384l-7 -42h-281l7 42h281z" />
    <glyph glyph-name="guillemotleft.case" horiz-adv-x="454" 
d="M227 553h52l-160 -193l92 -193h-52l-94 193zM393 553h51l-160 -193l92 -193h-51l-94 193z" />
    <glyph glyph-name="guillemotright.case" horiz-adv-x="455" 
d="M101 167h-52l160 193l-92 193h52l94 -193zM266 167h-52l160 193l-92 193h52l94 -193z" />
    <glyph glyph-name="guilsinglleft.case" horiz-adv-x="289" 
d="M227 553h52l-160 -193l92 -193h-52l-94 193z" />
    <glyph glyph-name="guilsinglright.case" horiz-adv-x="290" 
d="M101 167h-52l160 193l-92 193h52l94 -193z" />
    <glyph glyph-name="cent.osf" horiz-adv-x="564" 
d="M289 73q45 6 78.5 34t53.5 75h99q-30 -86 -93 -135t-152 -56l-18 -101h-47l18 101q-91 6 -138 59.5t-47 145.5q0 67 19.5 123t55 96.5t86.5 64t114 27.5l16 93h48l-16 -93q81 -6 126 -53t50 -128h-99q-6 42 -29 67.5t-63 31.5zM146 207q0 -57 24.5 -92t71.5 -42l62 353
q-73 -9 -115.5 -68.5t-42.5 -150.5z" />
    <glyph glyph-name="dollar.osf" horiz-adv-x="561" 
d="M431 385q1 5 1 9v8q0 42 -22.5 66t-64.5 30l-29 -165q33 -5 67 -12.5t61.5 -21.5t45 -38.5t17.5 -63.5q0 -91 -66.5 -145t-184.5 -59l-14 -81h-47l14 81q-88 5 -135.5 50.5t-47.5 124.5v12t1 14h94v-16q0 -47 26.5 -74.5t75.5 -33.5l33 187q-32 5 -63.5 12t-57 20.5
t-41.5 36t-16 58.5q0 88 62.5 137.5t171.5 54.5l14 80h47l-14 -80q81 -6 124.5 -49t43.5 -118q0 -6 -0.5 -12t-0.5 -12h-95zM178 406q0 -31 27 -45t65 -21l28 159q-56 -4 -88 -28.5t-32 -64.5zM407 174q0 19 -8.5 32t-22.5 21.5t-33 13.5t-41 9l-32 -180q64 4 100.5 31.5
t36.5 72.5z" />
    <glyph glyph-name="Euro.osf" horiz-adv-x="567" 
d="M399 500q-69 0 -119 -40.5t-73 -110.5h226l-27 -37h-209q-5 -23 -7 -54h177l-28 -36h-150q2 -72 36.5 -112.5t97.5 -40.5q32 0 72 13t75 39l29 -65q-44 -32 -95.5 -48t-93.5 -16q-107 0 -163.5 60t-56.5 169v1h-57l6 35h52q2 14 3.5 27.5t3.5 27.5h-49l7 36h51
q30 106 109 167.5t197 61.5q43 0 85 -11.5t72 -33.5l-51 -68q-23 18 -55 27t-65 9z" />
    <glyph glyph-name="sterling.osf" horiz-adv-x="532" 
d="M420 387q0 5 0.5 9.5t0.5 9.5q0 45 -25 69.5t-70 24.5q-54 0 -85.5 -26.5t-31.5 -73.5q0 -26 10.5 -54.5t18.5 -56.5h168l-8 -42h-153v-1q0 -25 -11.5 -48.5t-36.5 -45t-65 -40.5t-97 -35v-2h429l-14 -75h-446l12 72q38 21 62.5 44t38.5 44.5t19.5 41.5t5.5 37v8h-84
l8 42h67q-8 27 -16.5 55t-8.5 57q0 39 16 71.5t45.5 56t72.5 36t97 12.5q85 0 130 -42t45 -118v-14t-1 -16h-93z" />
    <glyph glyph-name="yen.osf" horiz-adv-x="596" 
d="M396 228h99l-6 -35h-116l-30 -47h138l-7 -36h-155l-72 -110h-108l71 110h-136l7 36h153l30 47h-175l6 35h94l-103 340h115l95 -335h2l214 335h107z" />
    <glyph glyph-name="plus.case" horiz-adv-x="464" 
d="M443 331h-173l-31 -175h-47l30 175h-172l8 42h172l30 175h48l-31 -175h173z" />
    <glyph glyph-name="minus.case" horiz-adv-x="528" 
d="M88 373h393l-8 -42h-392z" />
    <glyph glyph-name="multiply.case" horiz-adv-x="462" 
d="M279 346l123 -149l-38 -32l-123 149l-175 -149l-26 32l175 149l-123 149l38 32l123 -149l176 149l26 -32z" />
    <glyph glyph-name="divide.case" horiz-adv-x="518" 
d="M296 464q-29 0 -29 25q0 19 11 30t29 11q30 0 30 -27q0 -39 -41 -39zM84 373h393l-8 -42h-393zM245 174q-29 0 -29 26q0 18 11 29t30 11q29 0 29 -27q0 -18 -10.5 -28.5t-30.5 -10.5z" />
    <glyph glyph-name="equal.case" horiz-adv-x="526" 
d="M101 449h393l-8 -42h-392zM74 297h393l-8 -42h-392z" />
    <glyph glyph-name="notequal.case" horiz-adv-x="526" 
d="M330 407l-52 -110h189l-8 -42h-200l-73 -155h-46l72 155h-145l7 42h158l51 110h-189l7 42h202l69 149h47l-70 -149h145l-8 -42h-156z" />
    <glyph glyph-name="greater.case" horiz-adv-x="473" 
d="M455 355l-8 -43l-403 -163l8 46l396 156l1 2l-342 158l8 46l346 -164z" />
    <glyph glyph-name="less.case" horiz-adv-x="474" 
d="M61 353l-1 -2l341 -156l-7 -46l-346 163l6 38l8 43l403 164l-8 -46z" />
    <glyph glyph-name="greaterequal.case" horiz-adv-x="538" 
d="M503 426l-7 -42l-417 -138l8 45l409 131l1 2l-363 133l8 45l368 -139zM63 159h393l-7 -41h-393z" />
    <glyph glyph-name="lessequal.case" horiz-adv-x="540" 
d="M107 424l-1 -2l363 -131l-7 -45l-369 138l7 37l7 42l417 139l-8 -45zM54 159h393l-8 -42h-392z" />
    <glyph glyph-name="plusminus.case" horiz-adv-x="525" 
d="M493 441l-8 -41h-173l-27 -158h-48l28 158h-173l8 41h172l28 159h47l-28 -159h174zM50 159h393l-8 -42h-392z" />
    <glyph glyph-name="logicalnot.case" horiz-adv-x="513" 
d="M476 441l-32 -183h-47l24 141h-345l7 42h393z" />
    <glyph glyph-name="percent.osf" horiz-adv-x="682" 
d="M176 264q-53 0 -80.5 31.5t-27.5 88.5q0 43 11.5 79t32.5 61.5t51 39.5t68 14q53 0 81 -32t28 -89q0 -43 -11.5 -78.5t-33 -61t-52 -39.5t-67.5 -14zM595 578l28 -24l-523 -564l-28 24zM186 321q18 0 33 10t25.5 27.5t16.5 41t6 50.5q0 33 -11.5 51.5t-34.5 18.5
q-36 0 -58.5 -36.5t-22.5 -91.5q0 -33 11.5 -52t34.5 -19zM464 -10q-53 0 -80.5 31.5t-27.5 88.5q0 43 11.5 79t32.5 61.5t51 39.5t68 14q53 0 81 -32t28 -89q0 -43 -11.5 -78.5t-33 -61t-52 -39.5t-67.5 -14zM474 47q37 0 59.5 37t22.5 92q0 32 -12 51t-35 19
q-36 0 -58 -37t-22 -92q0 -32 11.5 -51t33.5 -19z" />
    <glyph glyph-name="perthousand.osf" horiz-adv-x="979" 
d="M176 264q-53 0 -80.5 31.5t-27.5 88.5q0 43 11.5 79t32.5 61.5t51 39.5t68 14q53 0 81 -32t28 -89q0 -43 -11.5 -78.5t-33 -61t-52 -39.5t-67.5 -14zM595 578l28 -24l-523 -564l-28 24zM186 321q18 0 33 10t25.5 27.5t16.5 41t6 50.5q0 33 -11.5 51.5t-34.5 18.5
q-36 0 -58.5 -36.5t-22.5 -91.5q0 -33 11.5 -52t34.5 -19zM464 -10q-53 0 -80.5 31.5t-27.5 88.5q0 43 11.5 79t32.5 61.5t51 39.5t68 14q53 0 81 -32t28 -89q0 -43 -11.5 -78.5t-33 -61t-52 -39.5t-67.5 -14zM768 -10q-52 0 -79.5 31.5t-27.5 88.5q0 43 11.5 79t32.5 61.5
t51 39.5t68 14q53 0 80.5 -32t27.5 -89q0 -43 -11.5 -78.5t-33 -61t-52 -39.5t-67.5 -14zM474 47q37 0 59.5 37t22.5 92q0 32 -12 51t-35 19q-36 0 -58 -37t-22 -92q0 -32 11.5 -51t33.5 -19zM779 47q37 0 59 37t22 92q0 32 -11.5 51t-34.5 19q-36 0 -58.5 -37t-22.5 -92
q0 -32 12 -51t34 -19z" />
    </font>
</defs>
</svg>
