<?xml version="1.0" standalone="no"?>
<!DOCTYPE svg PUBLIC "-//W3C//DTD SVG 1.1//EN" "http://www.w3.org/Graphics/SVG/1.1/DTD/svg11.dtd" >
<svg xmlns="http://www.w3.org/2000/svg" xmlns:xlink="http://www.w3.org/1999/xlink" version="1.1">
<metadata>
Created by FontForge 20201107 at Fri Aug  4 06:24:35 2023
 By 
Copyright (c) 2017 by Alberto Romanos. All rights reserved.
</metadata>
<defs>
<font id="SVN-AlphaCreative-Bold" horiz-adv-x="618" >
  <font-face 
    font-family="SVN-AlphaCreative"
    font-weight="700"
    font-stretch="normal"
    units-per-em="1000"
    panose-1="0 0 8 0 0 0 0 0 0 0"
    ascent="800"
    descent="-200"
    x-height="502"
    cap-height="740"
    bbox="-756 -240 1220 1117"
    underline-thickness="50"
    underline-position="-100"
    unicode-range="U+000D-FB02"
  />
<missing-glyph horiz-adv-x="1274" 
d="M846 -3q-7 -7 -17 -7q-14 0 -17 7.5t-3 15.5v324l-339 -340q-7 -7 -17 -7q-14 0 -17 7.5t-3 15.5v324l-340 -340q-7 -7 -17 -7q-8 0 -12.5 5t-4.5 13q0 10 5 15l342 341h-324q-8 0 -15.5 3t-7.5 16q0 5 2 8.5t5 7.5l340 342h-327q-20 0 -20 19v1q0 19 20 19h370
q8 0 15.5 -3t7.5 -17q0 -10 -8 -17l-341 -340h330q8 0 14 -6t6 -14v-327l339 338q7 8 17 8q13 0 15.5 -7.5t2.5 -14.5v-324l340 338q6 8 16 8q8 0 12.5 -5.5t4.5 -13.5q0 -3 -1 -7t-5 -7z" />
    <glyph glyph-name="fi" unicode="fi" horiz-adv-x="660" 
d="M594 502v-502h-132v411h-230v-411h-132v411h-76v91h196v2q-60 11 -93.5 43.5t-33.5 80.5q0 72 51.5 112t144.5 40q58 0 103 -20l-17 -98q-23 13 -54 13q-48 0 -72 -24.5t-24 -68.5v-80h369zM594 713v-125h-132v125h132z" />
    <glyph glyph-name="fl" unicode="fl" horiz-adv-x="657" 
d="M321 675q-48 0 -72 -24.5t-24 -68.5v-80h158v-91h-151v-411h-132v411h-76v91h196v2q-60 11 -93.5 43.5t-33.5 80.5q0 72 51.5 112t144.5 40q58 0 103 -20l-17 -98q-23 13 -54 13zM591 770v-770h-132v770h132z" />
    <glyph glyph-name="f_f" unicode="ff" horiz-adv-x="736" 
d="M662 675q-48 0 -72 -24.5t-24 -68.5v-80h158v-91h-151v-411h-132v411h-209v-411h-132v411h-76v91h196v2q-60 11 -93.5 43.5t-33.5 80.5q0 72 51.5 112t144.5 40q58 0 103 -20l-17 -98q-23 13 -54 13q-48 0 -72 -24.5t-24 -68.5v-80h336v2q-60 11 -93.5 43.5t-33.5 80.5
q0 72 51.5 112t144.5 40q67 0 120 -25l-17 -99q-32 19 -71 19z" />
    <glyph glyph-name="f_f_i" unicode="ffi" horiz-adv-x="1001" 
d="M936 502v-502h-132v411h-230v-411h-132v411h-210v-411h-132v411h-76v91h196v2q-60 11 -93.5 43.5t-33.5 80.5q0 72 51.5 112t144.5 40q58 0 103 -20l-17 -98q-23 13 -54 13q-48 0 -72 -24.5t-24 -68.5v-80h337v2q-60 11 -93.5 43.5t-33.5 80.5q0 72 51.5 112t144.5 40
q58 0 103 -20l-17 -98q-23 13 -54 13q-48 0 -72 -24.5t-24 -68.5v-80h369zM936 713v-125h-132v125h132z" />
    <glyph glyph-name="f_f_l" unicode="ffl" horiz-adv-x="998" 
d="M662 675q-48 0 -72 -24.5t-24 -68.5v-80h158v-91h-151v-411h-132v411h-209v-411h-132v411h-76v91h196v2q-60 11 -93.5 43.5t-33.5 80.5q0 72 51.5 112t144.5 40q58 0 103 -20l-17 -98q-23 13 -54 13q-48 0 -72 -24.5t-24 -68.5v-80h336v2q-60 11 -93.5 43.5t-33.5 80.5
q0 72 51.5 112t144.5 40q58 0 103 -20l-17 -98q-23 13 -54 13zM932 770v-770h-132v770h132z" />
    <glyph glyph-name=".notdef" horiz-adv-x="1274" 
d="M846 -3q-7 -7 -17 -7q-14 0 -17 7.5t-3 15.5v324l-339 -340q-7 -7 -17 -7q-14 0 -17 7.5t-3 15.5v324l-340 -340q-7 -7 -17 -7q-8 0 -12.5 5t-4.5 13q0 10 5 15l342 341h-324q-8 0 -15.5 3t-7.5 16q0 5 2 8.5t5 7.5l340 342h-327q-20 0 -20 19v1q0 19 20 19h370
q8 0 15.5 -3t7.5 -17q0 -10 -8 -17l-341 -340h330q8 0 14 -6t6 -14v-327l339 338q7 8 17 8q13 0 15.5 -7.5t2.5 -14.5v-324l340 338q6 8 16 8q8 0 12.5 -5.5t4.5 -13.5q0 -3 -1 -7t-5 -7z" />
    <glyph glyph-name=".null" horiz-adv-x="0" 
 />
    <glyph glyph-name="nonmarkingreturn" unicode="&#xd;" horiz-adv-x="217" 
 />
    <glyph glyph-name="space" unicode=" " horiz-adv-x="217" 
 />
    <glyph glyph-name="exclam" unicode="!" horiz-adv-x="289" 
d="M77 740h136l-5 -512h-126zM218 141v-141h-148v141h148z" />
    <glyph glyph-name="quotedbl" unicode="&#x22;" horiz-adv-x="406" 
d="M176 770v-232h-122v232h122zM353 770v-232h-122v232h122z" />
    <glyph glyph-name="numbersign" unicode="#" horiz-adv-x="673" 
d="M508 504l-25 -244h128l-7 -44h-125l-22 -216h-50l22 216h-225l-22 -216h-50l23 216h-125l6 44h123l26 244h-123l6 44h122l20 192h50l-19 -192h222l19 192h50l-19 -192h130l-6 -44h-129zM459 504h-223l-27 -243h224z" />
    <glyph glyph-name="dollar" unicode="$" horiz-adv-x="673" 
d="M639 226q0 -106 -72.5 -168t-205.5 -67v-103h-50v103q-124 7 -197 76.5t-83 191.5h136q6 -68 43.5 -108.5t100.5 -48.5v224q-45 6 -91.5 15.5t-84 30.5t-61 58t-23.5 98q0 103 68 159.5t192 61.5v101h50v-101q112 -7 180 -74t78 -183h-137q-4 61 -35.5 99t-85.5 46v-198
q1 -1 4 -1q47 -7 95.5 -17t88.5 -32t65 -60.5t25 -102.5zM191 538q0 -22 9 -37t25.5 -25.5t38 -17t47.5 -11.5v192q-57 -4 -88.5 -30t-31.5 -71zM361 101q66 4 102 33t36 78q0 27 -10.5 45t-29.5 30t-44 19t-54 12v-217z" />
    <glyph glyph-name="percent" unicode="%" horiz-adv-x="742" 
d="M600 750l36 -26l-491 -734l-36 26zM187 360q-72 0 -112.5 48.5t-40.5 136.5t40.5 136.5t112.5 48.5t112.5 -48.5t40.5 -136.5t-40.5 -136.5t-112.5 -48.5zM187 437q26 0 40.5 28.5t14.5 79.5t-14.5 79.5t-40.5 28.5t-40.5 -28.5t-14.5 -79.5t14.5 -79.5t40.5 -28.5z
M556 -10q-72 0 -112 48.5t-40 136.5t40 136.5t112 48.5q73 0 113.5 -48.5t40.5 -136.5t-40.5 -136.5t-113.5 -48.5zM556 67q26 0 40.5 28.5t14.5 79.5t-14.5 79.5t-40.5 28.5t-40.5 -28.5t-14.5 -79.5t14.5 -79.5t40.5 -28.5z" />
    <glyph glyph-name="ampersand" unicode="&#x26;" horiz-adv-x="819" 
d="M732 -10l-137 120q-60 -59 -131 -89.5t-151 -30.5q-131 0 -204 58t-73 160q0 58 23 97t60 66t81.5 44.5t88.5 32.5l28 10t27 10q-111 1 -174 35t-63 92q0 74 62.5 114.5t177.5 40.5q112 0 175.5 -45.5t63.5 -131.5q0 -44 -20 -76t-52.5 -55.5t-73 -41.5t-80.5 -34
q-35 -14 -68.5 -28t-59 -32t-41 -41.5t-15.5 -56.5q0 -50 39 -79t109 -29q58 0 111 24.5t97.5 71.5t79 114t56.5 153l103 -35q-39 -135 -106 -233l141 -123zM243 561q0 -42 29 -66.5t77 -24.5q42 17 69.5 37.5t27.5 55.5q0 37 -26 57t-73 20q-49 0 -76.5 -20.5t-27.5 -58.5z
" />
    <glyph glyph-name="quotesingle" unicode="'" horiz-adv-x="229" 
d="M176 770v-232h-122v232h122z" />
    <glyph glyph-name="parenleft" unicode="(" horiz-adv-x="272" 
d="M266 -213l-40 -27q-99 118 -142.5 248.5t-43.5 261.5t43.5 261.5t142.5 248.5l40 -27q-48 -56 -81 -116.5t-53.5 -122.5t-30 -124t-9.5 -120q0 -57 9.5 -119.5t30 -125t53.5 -123t81 -115.5z" />
    <glyph glyph-name="parenright" unicode=")" horiz-adv-x="272" 
d="M6 -213q48 55 81 115.5t53.5 123t30 125t9.5 119.5q0 58 -9.5 120t-30 124t-53.5 122.5t-81 116.5l40 27q99 -118 142.5 -248.5t43.5 -261.5t-43.5 -261.5t-142.5 -248.5z" />
    <glyph glyph-name="asterisk" unicode="*" horiz-adv-x="391" 
d="M298 585q-52 0 -98 34l-2 -2l82 -114l-60 -44q-28 39 -33 84q-4 33 5 74l-1 1l-83 -114l-61 43q21 30 50 47.5t62 22.5q8 2 15 3t15 3l1 2l-134 44l22 71q42 -13 71.5 -42t43.5 -69h3v141h75q0 -45 -18.5 -81.5t-53.5 -62.5h2v-2l134 43l24 -71q-16 -5 -30.5 -8t-30.5 -3
z" />
    <glyph glyph-name="plus" unicode="+" horiz-adv-x="480" 
d="M445 230h-181v-184h-50v184h-180v44h180v184h50v-184h181v-44z" />
    <glyph glyph-name="comma" unicode="," horiz-adv-x="259" 
d="M206 141v-117q0 -78 -39 -127.5t-109 -60.5v71q58 6 94 30.5t47 62.5h-141v141h148z" />
    <glyph glyph-name="hyphen" unicode="-" horiz-adv-x="421" 
d="M362 277v-44h-303v44h303z" />
    <glyph glyph-name="period" unicode="." horiz-adv-x="261" 
d="M204 141v-141h-147v141h147z" />
    <glyph glyph-name="slash" unicode="/" horiz-adv-x="414" 
d="M390 783l-320 -923l-47 17l321 923z" />
    <glyph glyph-name="zero" unicode="0" horiz-adv-x="665" 
d="M332 -10q-68 0 -121 26t-89.5 74.5t-56 119t-19.5 160.5t19.5 160.5t56 119t89.5 74.5t121 26q67 0 120.5 -26t90.5 -74.5t56.5 -119t19.5 -160.5t-19.5 -160.5t-56.5 -119t-90.5 -74.5t-120.5 -26zM332 100q69 0 106.5 71t37.5 199t-37.5 199t-106.5 71q-68 0 -106 -71
t-38 -199t38 -199t106 -71z" />
    <glyph glyph-name="one" unicode="1" horiz-adv-x="391" 
d="M309 740v-740h-138v704h-2q0 -93 -39 -144t-108 -51v120q71 0 110 29.5t39 81.5h138z" />
    <glyph glyph-name="two" unicode="2" horiz-adv-x="620" 
d="M580 107v-107h-543v102q89 31 159 73.5t118 94.5t73.5 111t25.5 123q0 63 -29.5 99.5t-81.5 36.5q-54 0 -86.5 -43t-37.5 -119h-133q8 129 76.5 200.5t184.5 71.5q121 0 188.5 -66t67.5 -184q0 -80 -33 -146t-96 -116.5t-153.5 -83t-205.5 -45.5v-2h506z" />
    <glyph glyph-name="three" unicode="3" horiz-adv-x="616" 
d="M312 425q123 0 191.5 -55t68.5 -155q0 -106 -72.5 -165.5t-203.5 -59.5q-116 0 -184.5 64.5t-76.5 181.5h133q3 -65 37 -100.5t93 -35.5q63 0 97 30t34 85t-36.5 85.5t-102.5 30.5h-19v96q65 6 101 35.5t36 77.5t-29 74t-83 26q-51 0 -81.5 -36t-34.5 -101h-130
q8 117 75.5 182t182.5 65t179 -45t64 -120t-65 -116.5t-183 -41.5v-2h9v0z" />
    <glyph glyph-name="four" unicode="4" horiz-adv-x="639" 
d="M609 172h-96v-172h-138v172h-351v114l233 454h256v-460h96v-108zM150 282v-2h228v448h-2z" />
    <glyph glyph-name="five" unicode="5" horiz-adv-x="623" 
d="M308 -10q-115 0 -186 58.5t-83 163.5h135q9 -53 44 -82.5t89 -29.5q65 0 101 38t36 105t-35.5 104.5t-98.5 37.5q-51 0 -83.5 -26t-47.5 -69l-133 17l57 433h429v-107h-307l-45 -327h2q15 86 67 133.5t133 47.5q97 0 151 -62t54 -174q0 -123 -73 -192t-206 -69z" />
    <glyph glyph-name="six" unicode="6" horiz-adv-x="655" 
d="M396 475q103 0 159.5 -58.5t56.5 -164.5q0 -62 -20 -110.5t-56.5 -82t-89 -51.5t-117.5 -18q-139 0 -211 93.5t-72 273.5q0 93 20 166t58.5 123.5t93.5 77t126 26.5q110 0 176 -58t75 -163h-134q-6 52 -36.5 81.5t-80.5 29.5q-75 0 -117 -73.5t-42 -205.5v-74h2
q0 89 55 138.5t154 49.5zM327 100q67 0 105 37.5t38 103.5q0 63 -38 97t-105 34q-66 0 -103.5 -33.5t-37.5 -93.5q0 -68 39 -106.5t102 -38.5z" />
    <glyph glyph-name="seven" unicode="7" horiz-adv-x="555" 
d="M538 740v-102q-54 -17 -97 -63.5t-73 -120t-45.5 -171t-15.5 -214.5v-69h-144v47q0 132 23 237.5t66.5 180.5t106.5 117.5t143 48.5v2h-489v107h525z" />
    <glyph glyph-name="eight" unicode="8" horiz-adv-x="642" 
d="M378 435q106 -11 163 -67.5t57 -149.5q0 -108 -73 -168t-204 -60t-204 60t-73 168q0 93 57.5 149t161.5 68v2q-92 0 -143.5 38t-51.5 107q0 79 66.5 123.5t186.5 44.5q119 0 186 -44.5t67 -123.5q0 -69 -51.5 -107t-144.5 -38v-2zM209 534q0 -50 29.5 -78t82.5 -28
q52 0 81.5 28t29.5 78t-29.5 78t-81.5 28q-53 0 -82.5 -28t-29.5 -78zM321 100q63 0 98.5 31t35.5 87t-35.5 87t-98.5 31t-99 -31t-36 -87t36 -87t99 -31z" />
    <glyph glyph-name="nine" unicode="9" horiz-adv-x="654" 
d="M327 750q140 0 210.5 -95t70.5 -272q0 -93 -20 -166t-58.5 -123.5t-94 -77t-125.5 -26.5q-110 0 -176 63.5t-75 177.5h134q6 -62 36.5 -96.5t80.5 -34.5q75 0 117 73.5t42 205.5v84h-2q0 -85 -54.5 -131.5t-154.5 -46.5q-103 0 -159.5 55.5t-56.5 157.5q0 59 20 106
t57 79.5t89.5 49.5t118.5 17zM327 388q66 0 104 30.5t38 86.5q0 63 -39.5 99t-102.5 36q-67 0 -105 -34.5t-38 -96.5q0 -58 38 -89.5t105 -31.5z" />
    <glyph glyph-name="colon" unicode=":" horiz-adv-x="266" 
d="M206 506v-141h-147v141h147zM206 141v-141h-147v141h147z" />
    <glyph glyph-name="semicolon" unicode=";" horiz-adv-x="266" 
d="M207 506v-141h-147v141h147zM59 141h148v-117q0 -78 -39 -127.5t-109 -60.5v71q58 6 94 30.5t47 62.5h-141v141z" />
    <glyph glyph-name="less" unicode="&#x3c;" horiz-adv-x="469" 
d="M41 253v-2l377 -160v-49l-383 167v87l383 168v-49z" />
    <glyph glyph-name="equal" unicode="=" horiz-adv-x="532" 
d="M61 360h411v-44h-411v44zM61 188h411v-44h-411v44z" />
    <glyph glyph-name="greater" unicode="&#x3e;" horiz-adv-x="469" 
d="M434 296v-87l-383 -167v49l377 160v2l-377 162v49z" />
    <glyph glyph-name="question" unicode="?" horiz-adv-x="558" 
d="M26 508q8 115 72.5 178.5t175.5 63.5q115 0 179 -54t64 -151q0 -71 -52.5 -154t-146.5 -163h-126v2q85 79 132 159t47 144q0 50 -27 78.5t-75 28.5q-49 0 -79 -35t-33 -97h-131zM324 141v-141h-147v141h147z" />
    <glyph glyph-name="at" unicode="@" horiz-adv-x="1135" 
d="M652 150v15t2 16l4 21h-2q-15 -80 -67 -125t-131 -45q-76 0 -116.5 48.5t-40.5 135.5q0 66 16.5 120.5t47 93.5t73 60.5t95.5 21.5q72 0 111.5 -33.5t39.5 -96.5q0 -10 -1 -20t-3 -21h2l29 162h126l-57 -325q-1 -5 -1.5 -8.5t-0.5 -6.5q0 -22 14.5 -34t38.5 -12
q75 0 117 62t42 174q0 81 -26.5 144.5t-76.5 108t-122 67.5t-164 23q-108 0 -193.5 -32t-144.5 -92.5t-90 -147.5t-31 -198q0 -90 28 -161t80.5 -120t128.5 -75t172 -26q69 0 145.5 16t144.5 45l31 -82q-70 -29 -154.5 -46t-166.5 -17q-120 0 -215 31.5t-161 91.5
t-100.5 146.5t-34.5 196.5q0 130 38 233t110.5 174.5t176.5 109t236 37.5q116 0 207 -29t154 -84t96.5 -134.5t33.5 -179.5q0 -75 -19.5 -134.5t-57 -101t-91.5 -63t-123 -21.5q-72 0 -110.5 30.5t-38.5 86.5zM532 132q57 0 94 35.5t50 100.5l1 4q3 19 3 37q0 50 -25.5 76.5
t-73.5 26.5q-68 0 -108 -47t-40 -124q0 -52 25.5 -80.5t73.5 -28.5z" />
    <glyph glyph-name="A" unicode="A" horiz-adv-x="719" 
d="M513 179h-316l-51 -179h-138l230 740h244l229 -740h-147zM483 286l-126 442h-2l-127 -442h255z" />
    <glyph glyph-name="B" unicode="B" horiz-adv-x="701" 
d="M409 425q121 0 188.5 -54t67.5 -152q0 -104 -71 -161.5t-199 -57.5h-313v740h321q99 0 153.5 -42.5t54.5 -119.5q0 -71 -57 -111t-160 -40v-2h15zM468 530q0 48 -29 75.5t-81 27.5h-138v-206h138q52 0 81 27.5t29 75.5zM402 107q57 0 88.5 29.5t31.5 82.5t-31.5 82.5
t-88.5 29.5h-182v-224h182z" />
    <glyph glyph-name="C" unicode="C" horiz-adv-x="736" 
d="M703 283q-9 -69 -35 -123t-67 -92t-96 -58t-121 -20q-80 0 -143.5 26t-107.5 74.5t-67 119t-23 160.5t23 160.5t67 119t107.5 74.5t143.5 26q66 0 121 -19.5t96 -57t67 -91.5t35 -122h-132q-15 85 -64 132.5t-123 47.5q-94 0 -146 -71t-52 -199t52 -199t146 -71
q75 0 123.5 48t63.5 135h132v0z" />
    <glyph glyph-name="D" unicode="D" horiz-adv-x="735" 
d="M82 740h240q87 0 156 -25t117 -73t73 -116.5t25 -155.5t-25 -155.5t-73 -116.5t-117 -73t-156 -25h-240v740zM330 107q104 0 162 69t58 194t-58 194t-162 69h-110v-526h110z" />
    <glyph glyph-name="E" unicode="E" horiz-adv-x="649" 
d="M610 107v-107h-528v740h517v-107h-379v-200h344v-107h-344v-219h390z" />
    <glyph glyph-name="F" unicode="F" horiz-adv-x="586" 
d="M220 633v-208h290v-107h-290v-318h-138v740h480v-107h-342z" />
    <glyph glyph-name="G" unicode="G" horiz-adv-x="759" 
d="M705 391v-391h-130v264h-2q0 -130 -66.5 -202t-187.5 -72q-64 0 -115 26t-86.5 74.5t-54.5 119t-19 160.5t23 160.5t67 119t107.5 74.5t144.5 26q66 0 120 -19t94 -55t65.5 -88t33.5 -118h-132q-14 80 -61.5 125t-119.5 45q-95 0 -147.5 -71t-52.5 -199t51.5 -199
t144.5 -71q86 0 135 52t54 146h-197v93h331z" />
    <glyph glyph-name="H" unicode="H" horiz-adv-x="758" 
d="M675 740v-740h-138v321h-317v-321h-138v740h138v-311h317v311h138z" />
    <glyph glyph-name="I" unicode="I" horiz-adv-x="303" 
d="M82 740h138v-740h-138v740z" />
    <glyph glyph-name="J" unicode="J" horiz-adv-x="574" 
d="M360 222v518h138v-511q0 -113 -63.5 -176t-177.5 -63q-105 0 -167 70.5t-70 198.5h128q6 -75 36 -117t78 -42q46 0 72 32.5t26 89.5z" />
    <glyph glyph-name="K" unicode="K" horiz-adv-x="723" 
d="M735 0h-171l-347 381h-2v-381h-133v740h133v-350h2l317 350h160l-327 -353z" />
    <glyph glyph-name="L" unicode="L" horiz-adv-x="563" 
d="M545 111v-111h-463v740h138v-629h325z" />
    <glyph glyph-name="M" unicode="M" horiz-adv-x="1007" 
d="M937 0h-138l-23 728h-2l-159 -728h-241l-148 728h-2l-23 -728h-131l26 740h266l136 -728h2l146 728h266z" />
    <glyph glyph-name="N" unicode="N" horiz-adv-x="758" 
d="M675 740v-740h-228l-236 728h-2l5 -728h-132v740h230l236 -728h2l-6 728h131z" />
    <glyph glyph-name="O" unicode="O" horiz-adv-x="772" 
d="M387 -10q-81 0 -145 26t-108 74.5t-67.5 119t-23.5 160.5t23.5 160.5t67.5 119t108 74.5t145 26q80 0 143.5 -26t107.5 -74.5t67.5 -119t23.5 -160.5t-23.5 -160.5t-67.5 -119t-107.5 -74.5t-143.5 -26zM387 100q94 0 146.5 71.5t52.5 198.5t-52.5 198.5t-146.5 71.5
q-96 0 -148.5 -71t-52.5 -199t52.5 -199t148.5 -71z" />
    <glyph glyph-name="P" unicode="P" horiz-adv-x="656" 
d="M357 740q129 0 200.5 -61t71.5 -171t-71.5 -171t-201.5 -61h-136v-276h-138v740h275zM363 383q58 0 90.5 33t32.5 92t-32 92t-91 33h-143v-250h143z" />
    <glyph glyph-name="Q" unicode="Q" horiz-adv-x="784" 
d="M756 107v-107h-369q-81 0 -145 25.5t-108 74t-67.5 118t-23.5 157.5t23.5 157.5t67.5 118t108 74t145 25.5q80 0 143.5 -24.5t107.5 -69t67.5 -107t23.5 -137.5q0 -72 -18.5 -128.5t-53.5 -95.5t-85.5 -59.5t-114.5 -20.5v-2zM186 373q0 -128 52.5 -199t148.5 -71
q94 0 146.5 71.5t52.5 198.5q0 126 -52.5 196.5t-146.5 70.5q-96 0 -148.5 -70.5t-52.5 -196.5z" />
    <glyph glyph-name="R" unicode="R" horiz-adv-x="695" 
d="M673 0h-154l-161 300h-138v-300h-138v740h287q131 0 204.5 -55.5t73.5 -155.5q0 -108 -72 -167.5t-203 -59.5v-2q61 0 111.5 -27t78.5 -77zM376 401q61 0 94.5 31t33.5 87q0 54 -33.5 84t-94.5 30h-156v-232h156z" />
    <glyph glyph-name="S" unicode="S" horiz-adv-x="682" 
d="M340 -10q-134 0 -214 70.5t-91 198.5h136q7 -75 52 -117t120 -42q76 0 118 29.5t42 82.5q0 32 -15.5 52t-41 32t-59 18t-69.5 12q-46 6 -92.5 15.5t-84.5 30.5t-62 57.5t-24 98.5q0 109 75 165.5t210 56.5q123 0 197.5 -68t85.5 -190h-137q-5 70 -45 109t-108 39
q-66 0 -102 -27t-36 -75q0 -27 14 -44.5t38 -28t55.5 -16.5t66.5 -11q47 -7 95.5 -17t88.5 -32t65 -60.5t25 -102.5q0 -112 -79.5 -174t-223.5 -62z" />
    <glyph glyph-name="T" unicode="T" horiz-adv-x="605" 
d="M588 633h-216v-633h-138v633h-217v107h571v-107z" />
    <glyph glyph-name="U" unicode="U" horiz-adv-x="732" 
d="M526 740h130v-479q0 -128 -76.5 -199.5t-213.5 -71.5t-213.5 71.5t-76.5 199.5v479h138v-486q0 -73 40.5 -113.5t114.5 -40.5q75 0 116 40.5t41 113.5v486z" />
    <glyph glyph-name="V" unicode="V" horiz-adv-x="690" 
d="M677 740l-209 -740h-247l-207 740h147l187 -728h2l188 728h139z" />
    <glyph glyph-name="W" unicode="W" horiz-adv-x="1058" 
d="M1032 740l-140 -740h-248l-114 728h-2l-114 -728h-248l-139 740h146l126 -728h2l119 728h225l120 -728h2l127 728h138z" />
    <glyph glyph-name="X" unicode="X" horiz-adv-x="695" 
d="M682 0h-163l-170 381h-2l-171 -381h-163l193 387l-169 353h153l157 -350h2l156 350h153l-169 -353z" />
    <glyph glyph-name="Y" unicode="Y" horiz-adv-x="703" 
d="M711 740l-350 -740h-149l136 294h-129l-210 446h159l196 -434h2l195 434h150z" />
    <glyph glyph-name="Z" unicode="Z" horiz-adv-x="695" 
d="M662 107v-107h-621v246l582 385v2h-568v107h581v-246l-582 -385v-2h608z" />
    <glyph glyph-name="bracketleft" unicode="[" horiz-adv-x="289" 
d="M129 724v-908h148v-46h-199v1000h199v-46h-148z" />
    <glyph glyph-name="backslash" unicode="\" horiz-adv-x="414" 
d="M391 -123l-47 -17l-320 923l46 17z" />
    <glyph glyph-name="bracketright" unicode="]" horiz-adv-x="289" 
d="M211 -230h-199v46h148v908h-148v46h199v-1000z" />
    <glyph glyph-name="asciicircum" unicode="^" horiz-adv-x="514" 
d="M483 353h-54l-171 361h-2l-171 -361h-54l175 367h102z" />
    <glyph glyph-name="underscore" unicode="_" horiz-adv-x="581" 
d="M549 -66v-44h-517v44h517z" />
    <glyph glyph-name="grave" unicode="`" horiz-adv-x="248" 
d="M242 647l-37 -69l-202 100l42 77z" />
    <glyph glyph-name="a" unicode="a" 
d="M553 502v-502h-132v173h-2q0 -87 -47 -135t-132 -48q-95 0 -147.5 68.5t-52.5 192.5t52.5 192.5t147.5 68.5q85 0 132 -48t47 -134h2v172h132zM301 95q60 0 93.5 43.5t33.5 112.5q0 70 -33.5 113.5t-93.5 43.5t-93.5 -41.5t-33.5 -115.5t33.5 -115t93.5 -41z" />
    <glyph glyph-name="b" unicode="b" 
d="M378 512q95 0 148 -68.5t53 -192.5t-53 -192.5t-148 -68.5q-85 0 -132 48t-47 135h-2v-173h-132v770h132v-440h2q0 86 47 134t132 48zM317 95q60 0 93.5 41t33.5 115t-33.5 115.5t-93.5 41.5t-93.5 -43.5t-33.5 -113.5q0 -69 33.5 -112.5t93.5 -43.5z" />
    <glyph glyph-name="c" unicode="c" horiz-adv-x="575" 
d="M297 -10q-122 0 -190.5 68.5t-68.5 192.5t68.5 192.5t190.5 68.5q103 0 167 -51t79 -145h-130q-13 44 -42 68t-74 24q-59 0 -91.5 -41.5t-32.5 -115.5t32.5 -115t91.5 -41q47 0 77 25.5t41 72.5h130q-14 -97 -78 -150t-170 -53z" />
    <glyph glyph-name="d" unicode="d" 
d="M553 770v-770h-132v173h-2q0 -87 -47 -135t-132 -48q-95 0 -147.5 68.5t-52.5 192.5t52.5 192.5t147.5 68.5q85 0 132 -48t47 -134h2v440h132zM301 95q60 0 93.5 43.5t33.5 112.5q0 70 -33.5 113.5t-93.5 43.5t-93.5 -41.5t-33.5 -115.5t33.5 -115t93.5 -41z" />
    <glyph glyph-name="e" unicode="e" horiz-adv-x="569" 
d="M532 236h-366q4 -69 35 -107.5t85 -38.5q47 0 77.5 23.5t40.5 65.5h128q-14 -90 -78.5 -139.5t-167.5 -49.5q-118 0 -183 68.5t-65 192.5q0 125 65 193t183 68q116 0 181 -68t65 -193v-15zM286 413q-51 0 -81.5 -34.5t-37.5 -97.5h236q-6 63 -36.5 97.5t-80.5 34.5z" />
    <glyph glyph-name="f" unicode="f" horiz-adv-x="395" 
d="M321 675q-48 0 -72 -24.5t-24 -68.5v-80h158v-91h-151v-411h-132v411h-76v91h196v2q-60 11 -93.5 43.5t-33.5 80.5q0 72 51.5 112t144.5 40q67 0 120 -25l-17 -99q-32 19 -71 19z" />
    <glyph glyph-name="g" unicode="g" 
d="M553 502v-508q0 -111 -66.5 -172.5t-185.5 -61.5q-103 0 -167.5 47.5t-78.5 132.5l125 19q6 -45 38 -69.5t83 -24.5q57 0 88.5 32t31.5 89v192h-2q0 -86 -47 -134t-132 -48q-95 0 -147.5 68t-52.5 190t52.5 190t147.5 68q85 0 132 -48t47 -134h2v172h132zM301 101
q60 0 93.5 42t33.5 111t-33.5 111.5t-93.5 42.5t-93.5 -41t-33.5 -113t33.5 -112.5t93.5 -40.5z" />
    <glyph glyph-name="h" unicode="h" horiz-adv-x="598" 
d="M362 512q84 0 130 -54t46 -152v-306h-132v300q0 51 -25.5 79.5t-72.5 28.5q-53 0 -82 -36t-29 -100v-272h-132v770h132v-444h2q0 88 43 137t120 49z" />
    <glyph glyph-name="i" unicode="i" horiz-adv-x="263" 
d="M65 713h132v-125h-132v125zM65 502h132v-502h-132v502z" />
    <glyph glyph-name="j" unicode="j" horiz-adv-x="263" 
d="M65 713h132v-125h-132v125zM65 502h132v-732h-132v732z" />
    <glyph glyph-name="k" unicode="k" horiz-adv-x="577" 
d="M581 0h-162l-220 257h-2v-257h-132v770h132v-504h2l203 236h156l-213 -239z" />
    <glyph glyph-name="l" unicode="l" horiz-adv-x="263" 
d="M65 770h132v-770h-132v770z" />
    <glyph glyph-name="m" unicode="m" horiz-adv-x="919" 
d="M687 512q81 0 126.5 -52.5t45.5 -148.5v-311h-132v305q0 49 -24.5 76t-69.5 27q-50 0 -77.5 -34.5t-27.5 -96.5v-277h-132v305q0 49 -24 76t-69 27q-51 0 -78.5 -34.5t-27.5 -96.5v-277h-132v502h132v-174h2q0 88 43 136t119 48q79 0 123 -49.5t44 -134.5h2q0 88 41 136
t116 48z" />
    <glyph glyph-name="n" unicode="n" horiz-adv-x="598" 
d="M362 512q84 0 130 -54t46 -152v-306h-132v300q0 51 -25.5 79.5t-72.5 28.5q-53 0 -82 -36t-29 -100v-272h-132v502h132v-176h2q0 88 43 137t120 49z" />
    <glyph glyph-name="o" unicode="o" horiz-adv-x="599" 
d="M300 -10q-124 0 -193 68.5t-69 192.5t69 192.5t193 68.5t192.5 -68.5t68.5 -192.5t-68.5 -192.5t-192.5 -68.5zM300 95q60 0 93.5 41t33.5 115t-33.5 115.5t-93.5 41.5t-93.5 -41.5t-33.5 -115.5t33.5 -115t93.5 -41z" />
    <glyph glyph-name="p" unicode="p" 
d="M378 512q95 0 148 -68.5t53 -192.5t-53 -192.5t-148 -68.5q-85 0 -132 48t-47 135h-2v-403h-132v732h132v-172h2q0 86 47 134t132 48zM317 95q60 0 93.5 41t33.5 115t-33.5 115t-93.5 41t-93.5 -43t-33.5 -113q0 -69 33.5 -112.5t93.5 -43.5z" />
    <glyph glyph-name="q" unicode="q" 
d="M553 502v-732h-132v403h-2q0 -87 -47 -135t-132 -48q-95 0 -147.5 68.5t-52.5 192.5t52.5 192.5t147.5 68.5q85 0 132 -48t47 -134h2v172h132zM301 95q60 0 93.5 41t33.5 115t-33.5 115t-93.5 41t-93.5 -41t-33.5 -115t33.5 -115t93.5 -41z" />
    <glyph glyph-name="r" unicode="r" horiz-adv-x="430" 
d="M351 512q45 0 77 -16l-38 -118q-15 8 -33 13t-37 5q-58 0 -90.5 -44.5t-32.5 -124.5v-227h-132v502h132v-207h2q0 103 40 160t112 57z" />
    <glyph glyph-name="s" unicode="s" horiz-adv-x="524" 
d="M261 -10q-109 0 -168.5 45.5t-59.5 127.5h123q0 -42 27.5 -65.5t77.5 -23.5q48 0 74.5 17t26.5 49q0 20 -10.5 32.5t-27.5 20.5t-39.5 12.5t-47.5 8.5q-33 5 -66.5 12.5t-61.5 22.5t-45.5 41.5t-17.5 69.5q0 72 56.5 112t158.5 40q101 0 157.5 -43.5t56.5 -121.5h-123
q0 40 -23.5 61.5t-67.5 21.5q-42 0 -65 -15.5t-23 -43.5q0 -17 9.5 -27.5t26 -17.5t38 -11.5t45.5 -8.5q33 -6 68 -13.5t63.5 -23.5t47 -43t18.5 -71q0 -78 -60 -121.5t-168 -43.5z" />
    <glyph glyph-name="t" unicode="t" horiz-adv-x="401" 
d="M225 411v-242q0 -35 21 -54.5t59 -19.5t67 16v-98q-23 -11 -51.5 -17t-57.5 -6q-81 0 -125.5 42.5t-44.5 119.5v259h-72v91h80v168h132v-42q0 -48 -34 -80.5t-94 -43.5v-2h276v-91h-156z" />
    <glyph glyph-name="u" unicode="u" horiz-adv-x="588" 
d="M523 502v-502h-132v177h-2q0 -88 -41 -137.5t-116 -49.5q-81 0 -126.5 54.5t-45.5 151.5v306h132v-300q0 -51 24.5 -79t69.5 -28q50 0 77.5 35.5t27.5 100.5v271h132z" />
    <glyph glyph-name="v" unicode="v" horiz-adv-x="555" 
d="M533 502l-131 -502h-249l-132 502h141l115 -493h2l113 493h141z" />
    <glyph glyph-name="w" unicode="w" horiz-adv-x="877" 
d="M852 502l-105 -502h-230l-78 493h-2l-77 -493h-230l-105 502h141l87 -493h2l77 493h217l76 -493h2l88 493h137z" />
    <glyph glyph-name="x" unicode="x" horiz-adv-x="572" 
d="M557 0h-151l-119 257h-2l-120 -257h-150l136 263l-119 239h145l108 -236h2l108 236h145l-119 -239z" />
    <glyph glyph-name="y" unicode="y" horiz-adv-x="554" 
d="M534 502l-192 -732h-141l61 230h-109l-131 502h141l114 -493h2l114 493h141z" />
    <glyph glyph-name="z" unicode="z" horiz-adv-x="536" 
d="M503 92v-92h-461v213l429 196v2h-423v91h436v-213l-429 -195v-2h448z" />
    <glyph glyph-name="braceleft" unicode="{" horiz-adv-x="264" 
d="M161 372q0 -38 -18 -63.5t-51 -38.5q33 -14 51 -39.5t18 -63.5v-278q0 -32 19.5 -52.5t51.5 -20.5v-46q-55 0 -88.5 31t-33.5 82v278q0 41 -22.5 63t-64.5 22v47q42 0 64.5 22t22.5 63v279q0 51 33.5 82t88.5 31v-46q-32 0 -51.5 -20.5t-19.5 -52.5v-279v0z" />
    <glyph glyph-name="bar" unicode="|" horiz-adv-x="207" 
d="M129 770v-1000h-51v1000h51z" />
    <glyph glyph-name="braceright" unicode="}" horiz-adv-x="264" 
d="M154 378q0 -41 22.5 -63t64.5 -22v-47q-42 0 -64.5 -22t-22.5 -63v-278q0 -51 -33.5 -82t-88.5 -31v46q32 0 51.5 20.5t19.5 52.5v278q0 38 18 63.5t51 39.5q-33 13 -51 38.5t-18 63.5v279q0 32 -19.5 52.5t-51.5 20.5v46q55 0 88.5 -31t33.5 -82v-279v0z" />
    <glyph glyph-name="asciitilde" unicode="~" horiz-adv-x="577" 
d="M401 187q-42 0 -70.5 12.5t-52 27.5t-47.5 27.5t-58 12.5q-32 0 -51.5 -22.5t-22.5 -61.5h-44q2 62 33.5 96t87.5 34q42 0 70.5 -12.5t52 -27.5t47.5 -27.5t58 -12.5q32 0 51.5 22.5t22.5 61.5h43q-2 -62 -33.5 -96t-86.5 -34z" />
    <glyph glyph-name="uni00A0" unicode="&#xa0;" horiz-adv-x="217" 
 />
    <glyph glyph-name="exclamdown" unicode="&#xa1;" horiz-adv-x="274" 
d="M210 502v-141h-147v141h147zM200 274l5 -504h-136l5 504h126z" />
    <glyph glyph-name="cent" unicode="&#xa2;" horiz-adv-x="582" 
d="M549 316q-14 -91 -71 -143t-151 -59v-114h-50v114q-112 7 -173.5 74.5t-61.5 185.5t61.5 185.5t173.5 74.5v106h50v-106q92 -7 149 -57t71 -138h-130q-22 76 -90 90v-309q36 7 59 31.5t33 64.5h130zM177 374q0 -66 26 -106t74 -48v309q-48 -8 -74 -48.5t-26 -106.5z" />
    <glyph glyph-name="sterling" unicode="&#xa3;" horiz-adv-x="641" 
d="M604 107v-107h-563v102q70 37 95.5 83.5t25.5 102.5q0 12 -3 26h-103v49h84q-9 19 -19.5 39.5t-20 41.5t-15.5 42.5t-6 43.5q0 94 67.5 147t188.5 53q116 0 184.5 -63.5t76.5 -178.5h-133q-5 63 -38 97.5t-89 34.5q-51 0 -79.5 -25.5t-28.5 -71.5q0 -19 6.5 -39t16.5 -40
t21.5 -40.5t20.5 -40.5h195v-49h-180q1 -5 1.5 -10t0.5 -10q0 -69 -59.5 -116.5t-180.5 -68.5v-2h534z" />
    <glyph glyph-name="currency" unicode="&#xa4;" horiz-adv-x="546" 
d="M473 337q0 -78 -36 -131l58 -59l-32 -34l-59 58q-51 -40 -131 -40q-82 0 -132 41l-58 -58l-33 33l59 60q-17 25 -26.5 57.5t-9.5 72.5q0 78 35 130l-58 59l33 35l58 -59q52 41 132 41q82 0 132 -41l58 58l33 -33l-59 -59q36 -51 36 -131zM273 175q71 0 110.5 42.5
t39.5 119.5t-39.5 119.5t-110.5 42.5t-110.5 -42.5t-39.5 -119.5t39.5 -119.5t110.5 -42.5z" />
    <glyph glyph-name="yen" unicode="&#xa5;" horiz-adv-x="748" 
d="M516 298h125v-46h-147l-29 -61h176v-46h-197l-69 -145h-149l67 145h-180v46h202l28 61h-230v46h118l-208 442h159l196 -434h2l195 434h150z" />
    <glyph glyph-name="brokenbar" unicode="&#xa6;" horiz-adv-x="207" 
d="M129 770v-400h-51v400h51zM129 170v-400h-51v400h51z" />
    <glyph glyph-name="section" unicode="&#xa7;" horiz-adv-x="693" 
d="M404 44q115 0 179 -31.5t64 -89.5q0 -78 -78.5 -120.5t-220.5 -42.5q-138 0 -219.5 65.5t-90.5 184.5h137q5 -66 51 -103t125 -37q74 0 115 23.5t41 66.5q0 40 -40.5 62t-113.5 22q-139 0 -216.5 60.5t-77.5 169.5q0 99 63.5 158t179.5 70v2q-115 0 -179 30.5t-64 86.5
q0 75 71 117t199 42q132 0 210 -62.5t87 -175.5h-136q-3 61 -44.5 94.5t-113.5 33.5q-63 0 -98 -22t-35 -62q0 -39 40.5 -60.5t113.5 -21.5q139 0 216.5 -60.5t77.5 -169.5q0 -99 -63.5 -158t-179.5 -70v-2zM199 274q0 -57 40.5 -88.5t113.5 -31.5t113.5 31.5t40.5 88.5
t-40.5 88.5t-113.5 31.5q-72 0 -113 -31.5t-41 -88.5z" />
    <glyph glyph-name="dieresis" unicode="&#xa8;" horiz-adv-x="446" 
d="M66 723h124v-125h-124v125zM256 723h124v-125h-124v125z" />
    <glyph glyph-name="copyright" unicode="&#xa9;" horiz-adv-x="839" 
d="M419 -10q-89 0 -158.5 26t-118 74.5t-74 119t-25.5 160.5t25.5 160.5t74 119t118 74.5t158.5 26t159 -26t118.5 -74.5t74 -119t25.5 -160.5t-25.5 -160.5t-74 -119t-118.5 -74.5t-159 -26zM419 35q77 0 137.5 23t102.5 66t64 105t22 141t-22 141t-64 105t-102.5 66
t-137.5 23t-137.5 -23t-102.5 -66t-64 -105t-22 -141t22 -141t64 -105t102.5 -66t137.5 -23zM422 189q-78 0 -122 48t-44 134q0 87 44 135t122 48q62 0 103 -33.5t54 -93.5h-48q-11 40 -39 61.5t-70 21.5q-55 0 -86 -36.5t-31 -102.5t31 -102t86 -36q45 0 73.5 22.5
t38.5 64.5h48q-11 -62 -52.5 -96.5t-107.5 -34.5z" />
    <glyph glyph-name="ordfeminine" unicode="&#xaa;" horiz-adv-x="416" 
d="M356 740v-303h-91v106h-1q0 -53 -27.5 -82.5t-78.5 -29.5q-56 0 -87 41t-31 116t31 116.5t87 41.5q51 0 78.5 -29.5t27.5 -82.5h1v106h91zM202 503q32 0 50 24t18 61q0 38 -18 61.5t-50 23.5t-50 -22.5t-18 -62.5t18 -62.5t50 -22.5z" />
    <glyph glyph-name="guillemotleft" unicode="&#xab;" horiz-adv-x="436" 
d="M164 443h53l-126 -193l126 -193h-53l-128 193zM338 443h53l-126 -193l126 -193h-53l-128 193z" />
    <glyph glyph-name="logicalnot" unicode="&#xac;" horiz-adv-x="531" 
d="M468 346v-198h-50v155h-361v43h411z" />
    <glyph glyph-name="uni00AD" unicode="&#xad;" horiz-adv-x="421" 
d="M362 277v-44h-303v44h303z" />
    <glyph glyph-name="registered" unicode="&#xae;" horiz-adv-x="481" 
d="M240 780q96 0 148.5 -51.5t52.5 -144.5q0 -92 -52.5 -143.5t-148.5 -51.5q-95 0 -147.5 51.5t-52.5 143.5q0 93 52.5 144.5t147.5 51.5zM240 423q77 0 120 42.5t43 118.5t-43 118.5t-120 42.5t-120 -42.5t-43 -118.5t43 -118.5t120 -42.5zM250 562q15 0 27.5 -5.5
t18.5 -16.5l33 -53h-39l-45 75h-47v-75h-36v197h88q35 0 54 -16t19 -45q0 -28 -19 -43.5t-54 -15.5v-2zM250 590q35 0 35 32t-35 32h-52v-64h52z" />
    <glyph glyph-name="macron" unicode="&#xaf;" horiz-adv-x="360" 
d="M341 707v-93h-322v93h322z" />
    <glyph glyph-name="degree" unicode="&#xb0;" horiz-adv-x="339" 
d="M170 530q-65 0 -100 32.5t-35 92.5t35 92.5t100 32.5q64 0 99.5 -32.5t35.5 -92.5t-35.5 -92.5t-99.5 -32.5zM169 597q25 0 38.5 15.5t13.5 42.5q0 58 -52 58q-24 0 -37.5 -15t-13.5 -43q0 -27 13.5 -42.5t37.5 -15.5z" />
    <glyph glyph-name="plusminus" unicode="&#xb1;" horiz-adv-x="521" 
d="M466 348v-44h-181v-156h-50v156h-180v44h180v157h50v-157h181zM55 72h411v-44h-411v44z" />
    <glyph glyph-name="uni00B2" unicode="&#xb2;" horiz-adv-x="382" 
d="M358 431v-73h-333v70q104 40 161.5 100.5t57.5 132.5q0 33 -15.5 52t-41.5 19q-29 0 -46 -23t-19 -65h-93q6 78 47.5 121t113.5 43q75 0 116 -39.5t41 -111.5q0 -46 -20.5 -84.5t-59 -67t-94.5 -47t-127 -25.5v-2h312z" />
    <glyph glyph-name="uni00B3" unicode="&#xb3;" horiz-adv-x="379" 
d="M194 617q75 0 116.5 -33.5t41.5 -93.5q0 -66 -44.5 -102t-125.5 -36q-71 0 -113 39t-48 110h92q2 -35 20 -54.5t50 -19.5q33 0 51.5 16.5t18.5 46.5q0 29 -20 45.5t-55 16.5h-10v66q35 3 54 19t19 42t-15.5 40t-43.5 14q-27 0 -43 -19.5t-18 -54.5h-91q6 70 48 109.5
t112 39.5q71 0 110.5 -27t39.5 -70q0 -44 -39.5 -68t-111.5 -24v-2h5v0z" />
    <glyph glyph-name="acute" unicode="&#xb4;" horiz-adv-x="259" 
d="M245 678l-202 -100l-37 69l197 108z" />
    <glyph glyph-name="paragraph" unicode="&#xb6;" horiz-adv-x="746" 
d="M656 -230h-107v901h-140v-901h-107v901q-74 0 -115.5 -34.5t-41.5 -96.5q0 -51 29 -82t80 -39v-110q-109 8 -169 69t-60 162q0 109 73 169.5t204 60.5h354v-1000z" />
    <glyph glyph-name="periodcentered" unicode="&#xb7;" horiz-adv-x="264" 
d="M205 333v-141h-147v141h147z" />
    <glyph glyph-name="cedilla" unicode="&#xb8;" horiz-adv-x="290" 
d="M122 -240q-25 0 -51 5.5t-47 15.5v55q17 -11 38 -17t43 -6q34 0 52 12t18 33q0 16 -11.5 25.5t-32.5 9.5q-31 0 -50 -21l-42 33q20 19 50.5 30t62.5 11q53 0 82.5 -22.5t29.5 -62.5q0 -48 -37.5 -74.5t-104.5 -26.5z" />
    <glyph glyph-name="uni00B9" unicode="&#xb9;" horiz-adv-x="257" 
d="M204 802v-444h-96v421h-2q0 -62 -23.5 -96t-65.5 -34v84q43 0 67 18t24 51h96z" />
    <glyph glyph-name="ordmasculine" unicode="&#xba;" horiz-adv-x="396" 
d="M199 431q-77 0 -119.5 41t-42.5 116t42.5 116.5t119.5 41.5q75 0 117.5 -41.5t42.5 -116.5t-42.5 -116t-117.5 -41zM199 503q32 0 49.5 22.5t17.5 62.5t-17.5 62.5t-49.5 22.5t-50.5 -22.5t-18.5 -62.5t18.5 -62.5t50.5 -22.5z" />
    <glyph glyph-name="guillemotright" unicode="&#xbb;" horiz-adv-x="436" 
d="M98 57h-53l126 193l-126 193h53l128 -193zM272 57h-53l126 193l-126 193h53l128 -193z" />
    <glyph glyph-name="onequarter" unicode="&#xbc;" horiz-adv-x="870" 
d="M121 729q0 -62 -23.5 -96t-65.5 -34v84q43 0 67 18t24 51h96v-444h-96v421h-2zM629 724l-491 -734l-36 26l491 734zM842 99h-58v-99h-96v99h-208v78l127 267h177v-272h58v-73zM567 174v-2h124v264h-2z" />
    <glyph glyph-name="onehalf" unicode="&#xbd;" horiz-adv-x="856" 
d="M121 729q0 -62 -23.5 -96t-65.5 -34v84q43 0 67 18t24 51h96v-444h-96v421h-2zM629 724l-491 -734l-36 26l491 734zM821 73v-73h-333v70q104 40 161.5 100.5t57.5 132.5q0 33 -15.5 52t-41.5 19q-29 0 -46 -23t-19 -65h-93q6 78 47.5 121t113.5 43q75 0 116 -39.5
t41 -111.5q0 -46 -20.5 -84.5t-59 -67t-94.5 -47t-127 -25.5v-2h312z" />
    <glyph glyph-name="threequarters" unicode="&#xbe;" horiz-adv-x="991" 
d="M362 440q0 -66 -44.5 -102t-125.5 -36q-71 0 -113 39t-48 110h92q2 -35 20 -54.5t50 -19.5q33 0 51.5 16.5t18.5 46.5q0 29 -20 45.5t-55 16.5h-10v66q35 3 54 19t19 42t-15.5 40t-43.5 14q-27 0 -43 -19.5t-18 -54.5h-91q6 70 48 109.5t112 39.5q71 0 110.5 -27
t39.5 -70q0 -44 -39.5 -68t-111.5 -24v-2h5q75 0 116.5 -33.5t41.5 -93.5zM750 724l-491 -734l-36 26l491 734zM963 99h-58v-99h-96v99h-208v78l127 267h177v-272h58v-73zM688 174v-2h124v264h-2z" />
    <glyph glyph-name="questiondown" unicode="&#xbf;" horiz-adv-x="547" 
d="M225 361v141h147v-141h-147zM523 2q-8 -115 -72.5 -178.5t-175.5 -63.5q-115 0 -179 54t-64 151q0 69 52.5 150.5t146.5 158.5h126v-2q-85 -77 -131.5 -154.5t-46.5 -140.5q0 -50 26.5 -78.5t74.5 -28.5q50 0 79.5 35t33.5 97h130z" />
    <glyph glyph-name="Agrave" unicode="&#xc0;" horiz-adv-x="719" 
d="M513 179h-316l-51 -179h-138l230 740h244l229 -740h-147zM483 286l-126 442h-2l-127 -442h255zM326 802l-75 125h116l55 -125h-96z" />
    <glyph glyph-name="Aacute" unicode="&#xc1;" horiz-adv-x="719" 
d="M513 179h-316l-51 -179h-138l230 740h244l229 -740h-147zM483 286l-126 442h-2l-127 -442h255zM292 802l55 125h116l-75 -125h-96z" />
    <glyph glyph-name="Acircumflex" unicode="&#xc2;" horiz-adv-x="719" 
d="M513 179h-316l-51 -179h-138l230 740h244l229 -740h-147zM483 286l-126 442h-2l-127 -442h255zM361 896h-4l-50 -104h-92l63 125h162l63 -125h-92z" />
    <glyph glyph-name="Atilde" unicode="&#xc3;" horiz-adv-x="719" 
d="M513 179h-316l-51 -179h-138l230 740h244l229 -740h-147zM483 286l-126 442h-2l-127 -442h255zM411 805q-19 0 -33 6t-25 13t-20.5 13t-19.5 6q-15 0 -20.5 -10t-7.5 -31h-72q1 59 27 91.5t70 32.5q19 0 33 -5.5t24.5 -12.5t19.5 -12.5t20 -5.5q16 0 21.5 9t7.5 30h72
q-1 -58 -27.5 -91t-69.5 -33z" />
    <glyph glyph-name="Adieresis" unicode="&#xc4;" horiz-adv-x="719" 
d="M327 836h-124v125h124v-125zM517 836h-124v125h124v-125zM513 179h-316l-51 -179h-138l230 740h244l229 -740h-147zM483 286l-126 442h-2l-127 -442h255z" />
    <glyph glyph-name="Aring" unicode="&#xc5;" horiz-adv-x="719" 
d="M359 791q-61 0 -95 31t-34 87q0 55 34 86t95 31q62 0 96 -31t34 -86q0 -56 -34 -87t-96 -31zM359 965q-25 0 -38.5 -15t-13.5 -41t13.5 -41t38.5 -15q26 0 39.5 15t13.5 41t-13.5 41t-39.5 15zM513 179h-316l-51 -179h-138l230 740h244l229 -740h-147zM483 286l-126 442
h-2l-127 -442h255z" />
    <glyph glyph-name="AE" unicode="&#xc6;" horiz-adv-x="1092" 
d="M1053 107v-107h-503l-26 179h-311l-75 -179h-144l323 740h725v-107h-455l35 -204h385v-107h-366l37 -215h375zM508 286l-65 442h-2l-184 -442h251z" />
    <glyph glyph-name="Ccedilla" unicode="&#xc7;" horiz-adv-x="736" 
d="M703 283q-9 -69 -35 -123t-67 -92t-96 -58t-121 -20q-80 0 -143.5 26t-107.5 74.5t-67 119t-23 160.5t23 160.5t67 119t107.5 74.5t143.5 26q66 0 121 -19.5t96 -57t67 -91.5t35 -122h-132q-15 85 -64 132.5t-123 47.5q-94 0 -146 -71t-52 -199t52 -199t146 -71
q75 0 123.5 48t63.5 135h132zM366 -240q-25 0 -51 5.5t-47 15.5v55q17 -11 38 -17t43 -6q34 0 52 12t18 33q0 16 -11.5 25.5t-32.5 9.5q-31 0 -50 -21l-42 33q20 19 50.5 30t62.5 11q53 0 82.5 -22.5t29.5 -62.5q0 -48 -37.5 -74.5t-104.5 -26.5z" />
    <glyph glyph-name="Egrave" unicode="&#xc8;" horiz-adv-x="649" 
d="M610 107v-107h-528v740h517v-107h-379v-200h344v-107h-344v-219h390zM316 802l-75 125h116l55 -125h-96z" />
    <glyph glyph-name="Eacute" unicode="&#xc9;" horiz-adv-x="649" 
d="M610 107v-107h-528v740h517v-107h-379v-200h344v-107h-344v-219h390zM289 802l55 125h116l-75 -125h-96z" />
    <glyph glyph-name="Ecircumflex" unicode="&#xca;" horiz-adv-x="649" 
d="M610 107v-107h-528v740h517v-107h-379v-200h344v-107h-344v-219h390zM342 896h-4l-50 -104h-92l63 125h162l63 -125h-92z" />
    <glyph glyph-name="Edieresis" unicode="&#xcb;" horiz-adv-x="649" 
d="M307 836h-124v125h124v-125zM497 836h-124v125h124v-125zM610 107v-107h-528v740h517v-107h-379v-200h344v-107h-344v-219h390z" />
    <glyph glyph-name="Igrave" unicode="&#xcc;" horiz-adv-x="303" 
d="M82 740h138v-740h-138v740zM110 802l-75 125h116l55 -125h-96z" />
    <glyph glyph-name="Iacute" unicode="&#xcd;" horiz-adv-x="303" 
d="M82 740h138v-740h-138v740zM98 802l55 125h116l-75 -125h-96z" />
    <glyph glyph-name="Icircumflex" unicode="&#xce;" horiz-adv-x="303" 
d="M326 809h-102l-71 160h-2l-72 -160h-102l84 172h182zM82 740h138v-740h-138v740z" />
    <glyph glyph-name="Idieresis" unicode="&#xcf;" horiz-adv-x="303" 
d="M-5 961h124v-125h-124v125zM185 961h124v-125h-124v125zM82 740h138v-740h-138v740z" />
    <glyph glyph-name="Eth" unicode="&#xd0;" horiz-adv-x="743" 
d="M329 740q87 0 156 -25t117 -73t73 -116.5t25 -155.5t-25 -155.5t-73 -116.5t-117 -73t-156 -25h-240v354h-78v44h78v342h240zM337 107q104 0 162 69t58 194t-58 194t-162 69h-110v-235h143v-44h-143v-247h110z" />
    <glyph glyph-name="Ntilde" unicode="&#xd1;" horiz-adv-x="758" 
d="M302 885q-22 0 -35 -15t-16 -41h-58q1 72 33 111.5t89 39.5q25 0 43.5 -8t34.5 -17.5t31 -17.5t33 -8q22 0 35.5 14.5t16.5 40.5h58q-1 -72 -33 -111.5t-89 -39.5q-25 0 -43.5 8t-35 18t-31.5 18t-33 8zM675 740v-740h-228l-236 728h-2l5 -728h-132v740h230l236 -728h2
l-6 728h131z" />
    <glyph glyph-name="Ograve" unicode="&#xd2;" horiz-adv-x="772" 
d="M387 -10q-81 0 -145 26t-108 74.5t-67.5 119t-23.5 160.5t23.5 160.5t67.5 119t108 74.5t145 26q80 0 143.5 -26t107.5 -74.5t67.5 -119t23.5 -160.5t-23.5 -160.5t-67.5 -119t-107.5 -74.5t-143.5 -26zM387 100q94 0 146.5 71.5t52.5 198.5t-52.5 198.5t-146.5 71.5
q-96 0 -148.5 -71t-52.5 -199t52.5 -199t148.5 -71zM351 802l-75 125h116l55 -125h-96z" />
    <glyph glyph-name="Oacute" unicode="&#xd3;" horiz-adv-x="772" 
d="M387 -10q-81 0 -145 26t-108 74.5t-67.5 119t-23.5 160.5t23.5 160.5t67.5 119t108 74.5t145 26q80 0 143.5 -26t107.5 -74.5t67.5 -119t23.5 -160.5t-23.5 -160.5t-67.5 -119t-107.5 -74.5t-143.5 -26zM387 100q94 0 146.5 71.5t52.5 198.5t-52.5 198.5t-146.5 71.5
q-96 0 -148.5 -71t-52.5 -199t52.5 -199t148.5 -71zM321 802l55 125h116l-75 -125h-96z" />
    <glyph glyph-name="Ocircumflex" unicode="&#xd4;" horiz-adv-x="772" 
d="M387 750q80 0 143.5 -26t107.5 -74.5t67.5 -119t23.5 -160.5t-23.5 -160.5t-67.5 -119t-107.5 -74.5t-143.5 -26q-81 0 -145 26t-108 74.5t-67.5 119t-23.5 160.5t23.5 160.5t67.5 119t108 74.5t145 26zM387 100q94 0 146.5 71.5t52.5 198.5t-52.5 198.5t-146.5 71.5
q-96 0 -148.5 -71t-52.5 -199t52.5 -199t148.5 -71zM388 896h-4l-50 -104h-92l63 125h162l63 -125h-92z" />
    <glyph glyph-name="Otilde" unicode="&#xd5;" horiz-adv-x="772" 
d="M387 -10q-81 0 -145 26t-108 74.5t-67.5 119t-23.5 160.5t23.5 160.5t67.5 119t108 74.5t145 26q80 0 143.5 -26t107.5 -74.5t67.5 -119t23.5 -160.5t-23.5 -160.5t-67.5 -119t-107.5 -74.5t-143.5 -26zM387 100q94 0 146.5 71.5t52.5 198.5t-52.5 198.5t-146.5 71.5
q-96 0 -148.5 -71t-52.5 -199t52.5 -199t148.5 -71zM438 805q-19 0 -33 6t-25 13t-20.5 13t-19.5 6q-15 0 -20.5 -10t-7.5 -31h-72q1 59 27 91.5t70 32.5q19 0 33 -5.5t24.5 -12.5t19.5 -12.5t20 -5.5q16 0 21.5 9t7.5 30h72q-1 -58 -27.5 -91t-69.5 -33z" />
    <glyph glyph-name="Odieresis" unicode="&#xd6;" horiz-adv-x="772" 
d="M230 961h124v-125h-124v125zM420 961h124v-125h-124v125zM387 -10q-81 0 -145 26t-108 74.5t-67.5 119t-23.5 160.5t23.5 160.5t67.5 119t108 74.5t145 26q80 0 143.5 -26t107.5 -74.5t67.5 -119t23.5 -160.5t-23.5 -160.5t-67.5 -119t-107.5 -74.5t-143.5 -26zM387 100
q94 0 146.5 71.5t52.5 198.5t-52.5 198.5t-146.5 71.5q-96 0 -148.5 -71t-52.5 -199t52.5 -199t148.5 -71z" />
    <glyph glyph-name="multiply" unicode="&#xd7;" horiz-adv-x="462" 
d="M265 246l149 -149l-34 -34l-149 149l-150 -149l-34 33l150 150l-150 149l34 34l150 -149l149 149l35 -34z" />
    <glyph glyph-name="Oslash" unicode="&#xd8;" horiz-adv-x="772" 
d="M608 678q59 -48 90 -126t31 -182q0 -90 -23.5 -160.5t-67.5 -119t-107.5 -74.5t-143.5 -26q-105 0 -178 42l-44 -71l-46 27l45 73q-59 49 -90 126.5t-31 182.5q0 90 23.5 160.5t67.5 119t108 74.5t145 26q101 0 177 -41l43 70l47 -27zM186 370q0 -123 49 -193l264 427
q-47 36 -112 36q-96 0 -148.5 -71t-52.5 -199zM387 100q94 0 146.5 71.5t52.5 198.5q0 123 -49 193l-264 -427q23 -17 51.5 -26.5t62.5 -9.5z" />
    <glyph glyph-name="Ugrave" unicode="&#xd9;" horiz-adv-x="732" 
d="M526 740h130v-479q0 -128 -76.5 -199.5t-213.5 -71.5t-213.5 71.5t-76.5 199.5v479h138v-486q0 -73 40.5 -113.5t114.5 -40.5q75 0 116 40.5t41 113.5v486zM340 802l-75 125h116l55 -125h-96z" />
    <glyph glyph-name="Uacute" unicode="&#xda;" horiz-adv-x="732" 
d="M526 740h130v-479q0 -128 -76.5 -199.5t-213.5 -71.5t-213.5 71.5t-76.5 199.5v479h138v-486q0 -73 40.5 -113.5t114.5 -40.5q75 0 116 40.5t41 113.5v486zM312 802l55 125h116l-75 -125h-96z" />
    <glyph glyph-name="Ucircumflex" unicode="&#xdb;" horiz-adv-x="732" 
d="M297 809h-102l84 172h182l83 -172h-102l-71 160h-2zM656 740v-479q0 -128 -76.5 -199.5t-213.5 -71.5t-213.5 71.5t-76.5 199.5v479h138v-486q0 -73 40.5 -113.5t114.5 -40.5q75 0 116 40.5t41 113.5v486h130z" />
    <glyph glyph-name="Udieresis" unicode="&#xdc;" horiz-adv-x="732" 
d="M213 961h124v-125h-124v125zM403 961h124v-125h-124v125zM526 740h130v-479q0 -128 -76.5 -199.5t-213.5 -71.5t-213.5 71.5t-76.5 199.5v479h138v-486q0 -73 40.5 -113.5t114.5 -40.5q75 0 116 40.5t41 113.5v486z" />
    <glyph glyph-name="Yacute" unicode="&#xdd;" horiz-adv-x="703" 
d="M711 740l-350 -740h-149l136 294h-129l-210 446h159l196 -434h2l195 434h150zM310 802l55 125h116l-75 -125h-96z" />
    <glyph glyph-name="Thorn" unicode="&#xde;" horiz-adv-x="665" 
d="M357 613q129 0 200.5 -62.5t71.5 -174.5t-71.5 -175t-201.5 -63h-136v-138h-138v740h138v-127h137zM363 246q58 0 90.5 34t32.5 96q0 61 -32 95t-91 34h-143v-259h143z" />
    <glyph glyph-name="germandbls" unicode="&#xdf;" horiz-adv-x="635" 
d="M319 469q132 0 205.5 -62t73.5 -173q0 -115 -62.5 -179.5t-176.5 -64.5q-25 0 -49 3t-44 9v99q13 -2 28 -4t31 -2q66 0 102.5 38t36.5 107q0 68 -40 106t-112 38h-28v87q60 2 93.5 30t33.5 76q0 46 -26 72t-73 26q-54 0 -84.5 -31t-30.5 -86v-558h-132v553
q0 108 65 167.5t181 59.5q112 0 173 -41.5t61 -116.5q0 -72 -59.5 -111.5t-166.5 -39.5v-2v0z" />
    <glyph glyph-name="agrave" unicode="&#xe0;" 
d="M553 502v-502h-132v173h-2q0 -87 -47 -135t-132 -48q-95 0 -147.5 68.5t-52.5 192.5t52.5 192.5t147.5 68.5q85 0 132 -48t47 -134h2v172h132zM301 95q60 0 93.5 43.5t33.5 112.5q0 70 -33.5 113.5t-93.5 43.5t-93.5 -41.5t-33.5 -115.5t33.5 -115t93.5 -41zM269 560
l-75 125h116l55 -125h-96z" />
    <glyph glyph-name="aacute" unicode="&#xe1;" 
d="M553 502v-502h-132v173h-2q0 -87 -47 -135t-132 -48q-95 0 -147.5 68.5t-52.5 192.5t52.5 192.5t147.5 68.5q85 0 132 -48t47 -134h2v172h132zM301 95q60 0 93.5 43.5t33.5 112.5q0 70 -33.5 113.5t-93.5 43.5t-93.5 -41.5t-33.5 -115.5t33.5 -115t93.5 -41zM258 560
l55 125h116l-75 -125h-96z" />
    <glyph glyph-name="acircumflex" unicode="&#xe2;" 
d="M553 502v-502h-132v173h-2q0 -87 -47 -135t-132 -48q-95 0 -147.5 68.5t-52.5 192.5t52.5 192.5t147.5 68.5q85 0 132 -48t47 -134h2v172h132zM301 95q60 0 93.5 43.5t33.5 112.5q0 70 -33.5 113.5t-93.5 43.5t-93.5 -41.5t-33.5 -115.5t33.5 -115t93.5 -41zM302 654h-4
l-50 -104h-92l63 125h162l63 -125h-92z" />
    <glyph glyph-name="atilde" unicode="&#xe3;" 
d="M553 502v-502h-132v173h-2q0 -87 -47 -135t-132 -48q-95 0 -147.5 68.5t-52.5 192.5t52.5 192.5t147.5 68.5q85 0 132 -48t47 -134h2v172h132zM301 95q60 0 93.5 43.5t33.5 112.5q0 70 -33.5 113.5t-93.5 43.5t-93.5 -41.5t-33.5 -115.5t33.5 -115t93.5 -41zM351 563
q-19 0 -33 6t-25 13t-20.5 13t-19.5 6q-15 0 -20.5 -10t-7.5 -31h-72q1 59 27 91.5t70 32.5q19 0 33 -5.5t24.5 -12.5t19.5 -12.5t20 -5.5q16 0 21.5 9t7.5 30h72q-1 -58 -27.5 -91t-69.5 -33z" />
    <glyph glyph-name="adieresis" unicode="&#xe4;" 
d="M269 598h-124v125h124v-125zM459 598h-124v125h124v-125zM553 502v-502h-132v173h-2q0 -87 -47 -135t-132 -48q-95 0 -147.5 68.5t-52.5 192.5t52.5 192.5t147.5 68.5q85 0 132 -48t47 -134h2v172h132zM301 95q60 0 93.5 43.5t33.5 112.5q0 70 -33.5 113.5t-93.5 43.5
t-93.5 -41.5t-33.5 -115.5t33.5 -115t93.5 -41z" />
    <glyph glyph-name="aring" unicode="&#xe5;" 
d="M301 553q-61 0 -95 31t-34 87q0 55 34 86t95 31q62 0 96 -31t34 -86q0 -56 -34 -87t-96 -31zM301 727q-25 0 -38.5 -15t-13.5 -41t13.5 -41t38.5 -15q26 0 39.5 15t13.5 41t-13.5 41t-39.5 15zM553 502v-502h-132v173h-2q0 -87 -47 -135t-132 -48q-95 0 -147.5 68.5
t-52.5 192.5t52.5 192.5t147.5 68.5q85 0 132 -48t47 -134h2v172h132zM301 95q60 0 93.5 43.5t33.5 112.5q0 70 -33.5 113.5t-93.5 43.5t-93.5 -41.5t-33.5 -115.5t33.5 -115t93.5 -41z" />
    <glyph glyph-name="ae" unicode="&#xe6;" horiz-adv-x="949" 
d="M911 236h-366q4 -69 35 -107.5t85 -38.5q47 0 78 23.5t40 65.5h128q-11 -90 -61 -139.5t-129 -49.5t-122.5 46t-43.5 130h-2v-166h-132v173h-2q0 -87 -47 -135t-132 -48q-95 0 -147.5 68.5t-52.5 192.5t52.5 192.5t147.5 68.5q85 0 132 -48t47 -134h2v172h132v-166h2
q0 84 43.5 130t122.5 46q90 0 140 -68t50 -193v-15zM665 413q-51 0 -81.5 -34.5t-37.5 -97.5h236q-6 63 -36.5 97.5t-80.5 34.5zM301 95q60 0 93.5 43.5t33.5 112.5q0 70 -33.5 113.5t-93.5 43.5t-93.5 -41.5t-33.5 -115.5t33.5 -115t93.5 -41z" />
    <glyph glyph-name="ccedilla" unicode="&#xe7;" horiz-adv-x="575" 
d="M297 -10q-122 0 -190.5 68.5t-68.5 192.5t68.5 192.5t190.5 68.5q103 0 167 -51t79 -145h-130q-13 44 -42 68t-74 24q-59 0 -91.5 -41.5t-32.5 -115.5t32.5 -115t91.5 -41q47 0 77 25.5t41 72.5h130q-14 -97 -78 -150t-170 -53zM280 -240q-25 0 -51 5.5t-47 15.5v55
q17 -11 38 -17t43 -6q34 0 52 12t18 33q0 16 -11.5 25.5t-32.5 9.5q-31 0 -50 -21l-42 33q20 19 50.5 30t62.5 11q53 0 82.5 -22.5t29.5 -62.5q0 -48 -37.5 -74.5t-104.5 -26.5z" />
    <glyph glyph-name="egrave" unicode="&#xe8;" horiz-adv-x="569" 
d="M532 236h-366q4 -69 35 -107.5t85 -38.5q47 0 77.5 23.5t40.5 65.5h128q-14 -90 -78.5 -139.5t-167.5 -49.5q-118 0 -183 68.5t-65 192.5q0 125 65 193t183 68q116 0 181 -68t65 -193v-15zM286 413q-51 0 -81.5 -34.5t-37.5 -97.5h236q-6 63 -36.5 97.5t-80.5 34.5z
M249 560l-75 125h116l55 -125h-96z" />
    <glyph glyph-name="eacute" unicode="&#xe9;" horiz-adv-x="569" 
d="M532 236h-366q4 -69 35 -107.5t85 -38.5q47 0 77.5 23.5t40.5 65.5h128q-14 -90 -78.5 -139.5t-167.5 -49.5q-118 0 -183 68.5t-65 192.5q0 125 65 193t183 68q116 0 181 -68t65 -193v-15zM286 413q-51 0 -81.5 -34.5t-37.5 -97.5h236q-6 63 -36.5 97.5t-80.5 34.5z
M228 560l55 125h116l-75 -125h-96z" />
    <glyph glyph-name="ecircumflex" unicode="&#xea;" horiz-adv-x="569" 
d="M532 236h-366q4 -69 35 -107.5t85 -38.5q47 0 77.5 23.5t40.5 65.5h128q-14 -90 -78.5 -139.5t-167.5 -49.5q-118 0 -183 68.5t-65 192.5q0 125 65 193t183 68q116 0 181 -68t65 -193v-15zM286 413q-51 0 -81.5 -34.5t-37.5 -97.5h236q-6 63 -36.5 97.5t-80.5 34.5z
M289 654h-4l-50 -104h-92l63 125h162l63 -125h-92z" />
    <glyph glyph-name="edieresis" unicode="&#xeb;" horiz-adv-x="569" 
d="M254 598h-124v125h124v-125zM444 598h-124v125h124v-125zM532 236h-366q4 -69 35 -107.5t85 -38.5q47 0 77.5 23.5t40.5 65.5h128q-14 -90 -78.5 -139.5t-167.5 -49.5q-118 0 -183 68.5t-65 192.5q0 125 65 193t183 68q116 0 181 -68t65 -193v-15zM286 413
q-51 0 -81.5 -34.5t-37.5 -97.5h236q-6 63 -36.5 97.5t-80.5 34.5z" />
    <glyph glyph-name="igrave" unicode="&#xec;" horiz-adv-x="263" 
d="M197 502v-502h-132v502h132zM90 560l-75 125h116l55 -125h-96z" />
    <glyph glyph-name="iacute" unicode="&#xed;" horiz-adv-x="263" 
d="M197 502v-502h-132v502h132zM79 560l55 125h116l-75 -125h-96z" />
    <glyph glyph-name="icircumflex" unicode="&#xee;" horiz-adv-x="263" 
d="M306 571h-102l-71 160h-2l-72 -160h-102l84 172h182zM65 502h132v-502h-132v502z" />
    <glyph glyph-name="idieresis" unicode="&#xef;" horiz-adv-x="263" 
d="M-25 723h124v-125h-124v125zM165 723h124v-125h-124v125zM197 502v-502h-132v502h132z" />
    <glyph glyph-name="eth" unicode="&#xf0;" horiz-adv-x="607" 
d="M371 669q52 -34 88.5 -74t59 -88t32.5 -104.5t10 -123.5q0 -137 -68.5 -213t-193.5 -76q-124 0 -192.5 67t-68.5 188q0 118 53.5 183.5t150.5 65.5q88 0 136 -57t48 -158h2q0 66 -8 117t-26.5 91t-49 71t-76.5 57l-147 -77l-40 64l101 53q-23 8 -48 17t-53 17l29 91
q53 -16 98.5 -32.5t83.5 -35.5l130 68l39 -64zM300 95q60 0 93.5 39.5t33.5 110.5t-33.5 110.5t-93.5 39.5t-93.5 -39.5t-33.5 -110.5t33.5 -110.5t93.5 -39.5z" />
    <glyph glyph-name="ntilde" unicode="&#xf1;" horiz-adv-x="598" 
d="M225 647q-22 0 -35 -15t-16 -41h-58q1 72 33 111.5t89 39.5q25 0 43.5 -8t34.5 -17.5t31 -17.5t33 -8q22 0 35.5 14.5t16.5 40.5h58q-1 -72 -33 -111.5t-89 -39.5q-25 0 -43.5 8t-35 18t-31.5 18t-33 8zM362 512q84 0 130 -54t46 -152v-306h-132v300q0 51 -25.5 79.5
t-72.5 28.5q-53 0 -82 -36t-29 -100v-272h-132v502h132v-176h2q0 88 43 137t120 49z" />
    <glyph glyph-name="ograve" unicode="&#xf2;" horiz-adv-x="599" 
d="M300 -10q-124 0 -193 68.5t-69 192.5t69 192.5t193 68.5t192.5 -68.5t68.5 -192.5t-68.5 -192.5t-192.5 -68.5zM300 95q60 0 93.5 41t33.5 115t-33.5 115.5t-93.5 41.5t-93.5 -41.5t-33.5 -115.5t33.5 -115t93.5 -41zM267 560l-75 125h116l55 -125h-96z" />
    <glyph glyph-name="oacute" unicode="&#xf3;" horiz-adv-x="599" 
d="M300 -10q-124 0 -193 68.5t-69 192.5t69 192.5t193 68.5t192.5 -68.5t68.5 -192.5t-68.5 -192.5t-192.5 -68.5zM300 95q60 0 93.5 41t33.5 115t-33.5 115.5t-93.5 41.5t-93.5 -41.5t-33.5 -115.5t33.5 -115t93.5 -41zM238 560l55 125h116l-75 -125h-96z" />
    <glyph glyph-name="ocircumflex" unicode="&#xf4;" horiz-adv-x="599" 
d="M300 512q124 0 192.5 -68.5t68.5 -192.5t-68.5 -192.5t-192.5 -68.5t-193 68.5t-69 192.5t69 192.5t193 68.5zM300 95q60 0 93.5 41t33.5 115t-33.5 115.5t-93.5 41.5t-93.5 -41.5t-33.5 -115.5t33.5 -115t93.5 -41zM301 654h-4l-50 -104h-92l63 125h162l63 -125h-92z
" />
    <glyph glyph-name="otilde" unicode="&#xf5;" horiz-adv-x="599" 
d="M300 -10q-124 0 -193 68.5t-69 192.5t69 192.5t193 68.5t192.5 -68.5t68.5 -192.5t-68.5 -192.5t-192.5 -68.5zM300 95q60 0 93.5 41t33.5 115t-33.5 115.5t-93.5 41.5t-93.5 -41.5t-33.5 -115.5t33.5 -115t93.5 -41zM351 563q-19 0 -33 6t-25 13t-20.5 13t-19.5 6
q-15 0 -20.5 -10t-7.5 -31h-72q1 59 27 91.5t70 32.5q19 0 33 -5.5t24.5 -12.5t19.5 -12.5t20 -5.5q16 0 21.5 9t7.5 30h72q-1 -58 -27.5 -91t-69.5 -33z" />
    <glyph glyph-name="odieresis" unicode="&#xf6;" horiz-adv-x="599" 
d="M143 723h124v-125h-124v125zM333 723h124v-125h-124v125zM300 -10q-124 0 -193 68.5t-69 192.5t69 192.5t193 68.5t192.5 -68.5t68.5 -192.5t-68.5 -192.5t-192.5 -68.5zM300 95q60 0 93.5 41t33.5 115t-33.5 115.5t-93.5 41.5t-93.5 -41.5t-33.5 -115.5t33.5 -115
t93.5 -41z" />
    <glyph glyph-name="divide" unicode="&#xf7;" horiz-adv-x="524" 
d="M262 366q-35 0 -35 33q0 35 35 35q37 0 37 -35q0 -33 -37 -33zM57 274h411v-44h-411v44zM262 70q-35 0 -35 33q0 35 35 35q37 0 37 -35q0 -33 -37 -33z" />
    <glyph glyph-name="oslash" unicode="&#xf8;" horiz-adv-x="599" 
d="M469 463q45 -33 68.5 -86.5t23.5 -125.5q0 -124 -68.5 -192.5t-192.5 -68.5q-74 0 -127 25l-39 -59l-41 27l37 56q-45 34 -68.5 87t-23.5 125q0 124 69 192.5t193 68.5q73 0 126 -24l39 58l41 -26zM173 251q0 -67 27 -106l163 247q-25 16 -63 16q-60 0 -93.5 -41.5
t-33.5 -115.5zM300 95q60 0 93.5 41t33.5 115q0 67 -28 107l-163 -247q26 -16 64 -16z" />
    <glyph glyph-name="ugrave" unicode="&#xf9;" horiz-adv-x="588" 
d="M523 502v-502h-132v177h-2q0 -88 -41 -137.5t-116 -49.5q-81 0 -126.5 54.5t-45.5 151.5v306h132v-300q0 -51 24.5 -79t69.5 -28q50 0 77.5 35.5t27.5 100.5v271h132zM258 560l-75 125h116l55 -125h-96z" />
    <glyph glyph-name="uacute" unicode="&#xfa;" horiz-adv-x="588" 
d="M523 502v-502h-132v177h-2q0 -88 -41 -137.5t-116 -49.5q-81 0 -126.5 54.5t-45.5 151.5v306h132v-300q0 -51 24.5 -79t69.5 -28q50 0 77.5 35.5t27.5 100.5v271h132zM236 560l55 125h116l-75 -125h-96z" />
    <glyph glyph-name="ucircumflex" unicode="&#xfb;" horiz-adv-x="588" 
d="M220 571h-102l84 172h182l83 -172h-102l-71 160h-2zM523 502v-502h-132v177h-2q0 -88 -41 -137.5t-116 -49.5q-81 0 -126.5 54.5t-45.5 151.5v306h132v-300q0 -51 24.5 -79t69.5 -28q50 0 77.5 35.5t27.5 100.5v271h132z" />
    <glyph glyph-name="udieresis" unicode="&#xfc;" horiz-adv-x="588" 
d="M260 598h-124v125h124v-125zM450 598h-124v125h124v-125zM523 502v-502h-132v177h-2q0 -88 -41 -137.5t-116 -49.5q-81 0 -126.5 54.5t-45.5 151.5v306h132v-300q0 -51 24.5 -79t69.5 -28q50 0 77.5 35.5t27.5 100.5v271h132z" />
    <glyph glyph-name="yacute" unicode="&#xfd;" horiz-adv-x="554" 
d="M534 502l-192 -732h-141l61 230h-109l-131 502h141l114 -493h2l114 493h141zM217 560l55 125h116l-75 -125h-96z" />
    <glyph glyph-name="thorn" unicode="&#xfe;" 
d="M378 512q95 0 148 -68.5t53 -192.5t-53 -192.5t-148 -68.5q-85 0 -132 44t-47 122h-2v-386h-132v1000h132v-423h2q0 78 47 121.5t132 43.5zM317 95q60 0 93.5 41t33.5 115t-33.5 115t-93.5 41t-93.5 -43t-33.5 -113q0 -69 33.5 -112.5t93.5 -43.5z" />
    <glyph glyph-name="ydieresis" unicode="&#xff;" horiz-adv-x="554" 
d="M248 598h-124v125h124v-125zM438 598h-124v125h124v-125zM534 502l-192 -732h-141l61 230h-109l-131 502h141l114 -493h2l114 493h141z" />
    <glyph glyph-name="Amacron" unicode="&#x100;" horiz-adv-x="719" 
d="M520 852h-322v93h322v-93zM513 179h-316l-51 -179h-138l230 740h244l229 -740h-147zM483 286l-126 442h-2l-127 -442h255z" />
    <glyph glyph-name="amacron" unicode="&#x101;" 
d="M462 614h-322v93h322v-93zM553 502v-502h-132v173h-2q0 -87 -47 -135t-132 -48q-95 0 -147.5 68.5t-52.5 192.5t52.5 192.5t147.5 68.5q85 0 132 -48t47 -134h2v172h132zM301 95q60 0 93.5 43.5t33.5 112.5q0 70 -33.5 113.5t-93.5 43.5t-93.5 -41.5t-33.5 -115.5
t33.5 -115t93.5 -41z" />
    <glyph glyph-name="Abreve" unicode="&#x102;" horiz-adv-x="719" 
d="M513 179h-316l-51 -179h-138l230 740h244l229 -740h-147zM483 286l-126 442h-2l-127 -442h255zM360 792q-71 0 -107.5 33.5t-36.5 91.5h90q0 -23 13.5 -36.5t40.5 -13.5t40 13.5t13 36.5h91q0 -58 -36.5 -91.5t-107.5 -33.5z" />
    <glyph glyph-name="abreve" unicode="&#x103;" 
d="M553 502v-502h-132v173h-2q0 -87 -47 -135t-132 -48q-95 0 -147.5 68.5t-52.5 192.5t52.5 192.5t147.5 68.5q85 0 132 -48t47 -134h2v172h132zM301 95q60 0 93.5 43.5t33.5 112.5q0 70 -33.5 113.5t-93.5 43.5t-93.5 -41.5t-33.5 -115.5t33.5 -115t93.5 -41zM300 550
q-71 0 -107.5 33.5t-36.5 91.5h90q0 -23 13.5 -36.5t40.5 -13.5t40 13.5t13 36.5h91q0 -58 -36.5 -91.5t-107.5 -33.5z" />
    <glyph glyph-name="Aogonek" unicode="&#x104;" horiz-adv-x="719" 
d="M645 -165q20 0 39.5 6t36.5 17v-75q-20 -11 -48 -17t-60 -6q-51 0 -78 20t-27 58q0 24 15 52t41.5 52t61.5 40t74 16v2h-136l-51 179h-316l-51 -179h-138l230 740h244l229 -740q-46 -38 -71.5 -74t-25.5 -62q0 -29 31 -29zM483 286l-126 442h-2l-127 -442h255z" />
    <glyph glyph-name="aogonek" unicode="&#x105;" 
d="M486 -165q20 0 39.5 6t36.5 17v-75q-20 -11 -48 -17t-60 -6q-51 0 -78 20t-27 58q0 24 15 52t41.5 52t61.5 40t74 16v2h-120v173h-2q0 -87 -47 -135t-132 -48q-95 0 -147.5 68.5t-52.5 192.5t52.5 192.5t147.5 68.5q85 0 132 -48t47 -134h2v172h132v-502h-1
q-46 -38 -71.5 -74t-25.5 -62q0 -29 31 -29zM301 95q60 0 93.5 43.5t33.5 112.5q0 70 -33.5 113.5t-93.5 43.5t-93.5 -41.5t-33.5 -115.5t33.5 -115t93.5 -41z" />
    <glyph glyph-name="Cacute" unicode="&#x106;" horiz-adv-x="736" 
d="M533 916l-202 -100l-37 69l197 108zM703 283q-9 -69 -35 -123t-67 -92t-96 -58t-121 -20q-80 0 -143.5 26t-107.5 74.5t-67 119t-23 160.5t23 160.5t67 119t107.5 74.5t143.5 26q66 0 121 -19.5t96 -57t67 -91.5t35 -122h-132q-15 85 -64 132.5t-123 47.5q-94 0 -146 -71
t-52 -199t52 -199t146 -71q75 0 123.5 48t63.5 135h132z" />
    <glyph glyph-name="cacute" unicode="&#x107;" horiz-adv-x="575" 
d="M446 678l-202 -100l-37 69l197 108zM297 -10q-122 0 -190.5 68.5t-68.5 192.5t68.5 192.5t190.5 68.5q103 0 167 -51t79 -145h-130q-13 44 -42 68t-74 24q-59 0 -91.5 -41.5t-32.5 -115.5t32.5 -115t91.5 -41q47 0 77 25.5t41 72.5h130q-14 -97 -78 -150t-170 -53z" />
    <glyph glyph-name="Cdotaccent" unicode="&#x10a;" horiz-adv-x="736" 
d="M318 961h132v-125h-132v125zM703 283q-9 -69 -35 -123t-67 -92t-96 -58t-121 -20q-80 0 -143.5 26t-107.5 74.5t-67 119t-23 160.5t23 160.5t67 119t107.5 74.5t143.5 26q66 0 121 -19.5t96 -57t67 -91.5t35 -122h-132q-15 85 -64 132.5t-123 47.5q-94 0 -146 -71
t-52 -199t52 -199t146 -71q75 0 123.5 48t63.5 135h132z" />
    <glyph glyph-name="cdotaccent" unicode="&#x10b;" horiz-adv-x="575" 
d="M232 723h132v-125h-132v125zM297 -10q-122 0 -190.5 68.5t-68.5 192.5t68.5 192.5t190.5 68.5q103 0 167 -51t79 -145h-130q-13 44 -42 68t-74 24q-59 0 -91.5 -41.5t-32.5 -115.5t32.5 -115t91.5 -41q47 0 77 25.5t41 72.5h130q-14 -97 -78 -150t-170 -53z" />
    <glyph glyph-name="Ccaron" unicode="&#x10c;" horiz-adv-x="736" 
d="M210 981h102l72 -160h2l71 160h102l-83 -172h-182zM384 100q75 0 123.5 48t63.5 135h132q-9 -69 -35 -123t-67 -92t-96 -58t-121 -20q-80 0 -143.5 26t-107.5 74.5t-67 119t-23 160.5t23 160.5t67 119t107.5 74.5t143.5 26q66 0 121 -19.5t96 -57t67 -91.5t35 -122h-132
q-15 85 -64 132.5t-123 47.5q-94 0 -146 -71t-52 -199t52 -199t146 -71z" />
    <glyph glyph-name="ccaron" unicode="&#x10d;" horiz-adv-x="575" 
d="M123 743h102l72 -160h2l71 160h102l-83 -172h-182zM545 193q-14 -97 -78 -150t-170 -53q-122 0 -190.5 68.5t-68.5 192.5t68.5 192.5t190.5 68.5q103 0 167 -51t79 -145h-130q-13 44 -42 68t-74 24q-59 0 -91.5 -41.5t-32.5 -115.5t32.5 -115t91.5 -41q47 0 77 25.5
t41 72.5h130z" />
    <glyph glyph-name="Dcaron" unicode="&#x10e;" horiz-adv-x="735" 
d="M153 981h102l72 -160h2l71 160h102l-83 -172h-182zM322 740q87 0 156 -25t117 -73t73 -116.5t25 -155.5t-25 -155.5t-73 -116.5t-117 -73t-156 -25h-240v740h240zM330 107q104 0 162 69t58 194t-58 194t-162 69h-110v-526h110z" />
    <glyph glyph-name="dcaron" unicode="&#x10f;" horiz-adv-x="649" 
d="M746 754l-56 -210l-88 26l48 210zM421 770h132v-770h-132v173h-2q0 -87 -47 -135t-132 -48q-95 0 -147.5 68.5t-52.5 192.5t52.5 192.5t147.5 68.5q85 0 132 -48t47 -134h2v440zM301 95q60 0 93.5 43.5t33.5 112.5q0 70 -33.5 113.5t-93.5 43.5t-93.5 -41.5t-33.5 -115.5
t33.5 -115t93.5 -41z" />
    <glyph glyph-name="Dcroat" unicode="&#x110;" horiz-adv-x="743" 
d="M329 740q87 0 156 -25t117 -73t73 -116.5t25 -155.5t-25 -155.5t-73 -116.5t-117 -73t-156 -25h-240v334h-78v84h78v322h240zM337 107q104 0 162 69t58 194t-58 194t-162 69h-110v-215h143v-84h-143v-227h110z" />
    <glyph glyph-name="dcroat" unicode="&#x111;" 
d="M616 609h-63v-609h-132v173h-2q0 -87 -47 -135t-132 -48q-95 0 -147.5 68.5t-52.5 192.5t52.5 192.5t147.5 68.5q85 0 132 -48t47 -134h2v279h-164v64h164v97h132v-97h63v-64zM301 95q60 0 93.5 43.5t33.5 112.5q0 70 -33.5 113.5t-93.5 43.5t-93.5 -41.5t-33.5 -115.5
t33.5 -115t93.5 -41z" />
    <glyph glyph-name="Emacron" unicode="&#x112;" horiz-adv-x="649" 
d="M501 852h-322v93h322v-93zM610 107v-107h-528v740h517v-107h-379v-200h344v-107h-344v-219h390z" />
    <glyph glyph-name="emacron" unicode="&#x113;" horiz-adv-x="569" 
d="M447 614h-322v93h322v-93zM532 236h-366q4 -69 35 -107.5t85 -38.5q47 0 77.5 23.5t40.5 65.5h128q-14 -90 -78.5 -139.5t-167.5 -49.5q-118 0 -183 68.5t-65 192.5q0 125 65 193t183 68q116 0 181 -68t65 -193v-15zM286 413q-51 0 -81.5 -34.5t-37.5 -97.5h236
q-6 63 -36.5 97.5t-80.5 34.5z" />
    <glyph glyph-name="Edotaccent" unicode="&#x116;" horiz-adv-x="649" 
d="M406 836h-132v125h132v-125zM610 107v-107h-528v740h517v-107h-379v-200h344v-107h-344v-219h390z" />
    <glyph glyph-name="edotaccent" unicode="&#x117;" horiz-adv-x="569" 
d="M353 598h-132v125h132v-125zM532 236h-366q4 -69 35 -107.5t85 -38.5q47 0 77.5 23.5t40.5 65.5h128q-14 -90 -78.5 -139.5t-167.5 -49.5q-118 0 -183 68.5t-65 192.5q0 125 65 193t183 68q116 0 181 -68t65 -193v-15zM286 413q-51 0 -81.5 -34.5t-37.5 -97.5h236
q-6 63 -36.5 97.5t-80.5 34.5z" />
    <glyph glyph-name="Eogonek" unicode="&#x118;" horiz-adv-x="649" 
d="M498 0q-46 -38 -71.5 -74t-25.5 -62q0 -29 31 -29q20 0 39.5 6t36.5 17v-75q-20 -11 -48 -17t-60 -6q-51 0 -78 20t-27 58q0 24 15 52t41.5 52t61.5 40t74 16v2h-405v740h517v-107h-379v-200h344v-107h-344v-219h390v-107h-112v0z" />
    <glyph glyph-name="eogonek" unicode="&#x119;" horiz-adv-x="569" 
d="M532 236h-366q4 -69 35 -107.5t85 -38.5q47 0 77.5 23.5t40.5 65.5h128q-8 -51 -33 -89.5t-64 -62.5q-58 -45 -91 -88t-33 -75q0 -29 32 -29q20 0 39 6t36 17v-75q-20 -11 -48 -17t-60 -6q-50 0 -77.5 20t-27.5 58q0 21 14.5 43.5t41 45t63.5 44t82 40.5l-1 1
q-53 -22 -119 -22q-118 0 -183 68.5t-65 192.5q0 125 65 193t183 68q116 0 181 -68t65 -193v-15zM286 413q-51 0 -81.5 -34.5t-37.5 -97.5h236q-6 63 -36.5 97.5t-80.5 34.5z" />
    <glyph glyph-name="Ecaron" unicode="&#x11a;" horiz-adv-x="649" 
d="M165 981h102l72 -160h2l71 160h102l-83 -172h-182zM610 107v-107h-528v740h517v-107h-379v-200h344v-107h-344v-219h390z" />
    <glyph glyph-name="ecaron" unicode="&#x11b;" horiz-adv-x="569" 
d="M112 743h102l72 -160h2l71 160h102l-83 -172h-182zM532 236h-366q4 -69 35 -107.5t85 -38.5q47 0 77.5 23.5t40.5 65.5h128q-14 -90 -78.5 -139.5t-167.5 -49.5q-118 0 -183 68.5t-65 192.5q0 125 65 193t183 68q116 0 181 -68t65 -193v-15zM286 413q-51 0 -81.5 -34.5
t-37.5 -97.5h236q-6 63 -36.5 97.5t-80.5 34.5z" />
    <glyph glyph-name="Gbreve" unicode="&#x11e;" horiz-adv-x="759" 
d="M387 805q-75 0 -118 46.5t-44 129.5h89q1 -46 20.5 -71.5t52.5 -25.5q34 0 53 25.5t20 71.5h90q-2 -83 -44.5 -129.5t-118.5 -46.5zM705 391v-391h-130v264h-2q0 -130 -66.5 -202t-187.5 -72q-64 0 -115 26t-86.5 74.5t-54.5 119t-19 160.5t23 160.5t67 119t107.5 74.5
t144.5 26q66 0 120 -19t94 -55t65.5 -88t33.5 -118h-132q-14 80 -61.5 125t-119.5 45q-95 0 -147.5 -71t-52.5 -199t51.5 -199t144.5 -71q86 0 135 52t54 146h-197v93h331z" />
    <glyph glyph-name="gbreve" unicode="&#x11f;" 
d="M315 567q-75 0 -118 46.5t-44 129.5h89q1 -46 20.5 -71.5t52.5 -25.5q34 0 53 25.5t20 71.5h90q-2 -83 -44.5 -129.5t-118.5 -46.5zM553 502v-508q0 -111 -66.5 -172.5t-185.5 -61.5q-103 0 -167.5 47.5t-78.5 132.5l125 19q6 -45 38 -69.5t83 -24.5q57 0 88.5 32
t31.5 89v192h-2q0 -86 -47 -134t-132 -48q-95 0 -147.5 68t-52.5 190t52.5 190t147.5 68q85 0 132 -48t47 -134h2v172h132zM301 101q60 0 93.5 42t33.5 111t-33.5 111.5t-93.5 42.5t-93.5 -41t-33.5 -113t33.5 -112.5t93.5 -40.5z" />
    <glyph glyph-name="Gdotaccent" unicode="&#x120;" horiz-adv-x="759" 
d="M452 836h-132v125h132v-125zM705 391v-391h-130v264h-2q0 -130 -66.5 -202t-187.5 -72q-64 0 -115 26t-86.5 74.5t-54.5 119t-19 160.5t23 160.5t67 119t107.5 74.5t144.5 26q66 0 120 -19t94 -55t65.5 -88t33.5 -118h-132q-14 80 -61.5 125t-119.5 45q-95 0 -147.5 -71
t-52.5 -199t51.5 -199t144.5 -71q86 0 135 52t54 146h-197v93h331z" />
    <glyph glyph-name="gdotaccent" unicode="&#x121;" 
d="M381 598h-132v125h132v-125zM553 502v-508q0 -111 -66.5 -172.5t-185.5 -61.5q-103 0 -167.5 47.5t-78.5 132.5l125 19q6 -45 38 -69.5t83 -24.5q57 0 88.5 32t31.5 89v192h-2q0 -86 -47 -134t-132 -48q-95 0 -147.5 68t-52.5 190t52.5 190t147.5 68q85 0 132 -48
t47 -134h2v172h132zM301 101q60 0 93.5 42t33.5 111t-33.5 111.5t-93.5 42.5t-93.5 -41t-33.5 -113t33.5 -112.5t93.5 -40.5z" />
    <glyph glyph-name="Gcommaaccent" unicode="&#x122;" horiz-adv-x="759" 
d="M705 391v-391h-130v264h-2q0 -130 -66.5 -202t-187.5 -72q-64 0 -115 26t-86.5 74.5t-54.5 119t-19 160.5t23 160.5t67 119t107.5 74.5t144.5 26q66 0 120 -19t94 -55t65.5 -88t33.5 -118h-132q-14 80 -61.5 125t-119.5 45q-95 0 -147.5 -71t-52.5 -199t51.5 -199
t144.5 -71q86 0 135 52t54 146h-197v93h331zM326 -66h120v-72q0 -43 -30 -67.5t-90 -34.5v38q56 6 79.5 18t31.5 33h-111v85z" />
    <glyph glyph-name="gcommaaccent" unicode="&#x123;" 
d="M374 596h-119v79q0 92 119 107v-38q-56 -4 -79.5 -16t-31.5 -35h111v-97zM553 502v-508q0 -111 -66.5 -172.5t-185.5 -61.5q-103 0 -167.5 47.5t-78.5 132.5l125 19q6 -45 38 -69.5t83 -24.5q57 0 88.5 32t31.5 89v192h-2q0 -86 -47 -134t-132 -48q-95 0 -147.5 68
t-52.5 190t52.5 190t147.5 68q85 0 132 -48t47 -134h2v172h132zM301 101q60 0 93.5 42t33.5 111t-33.5 111.5t-93.5 42.5t-93.5 -41t-33.5 -113t33.5 -112.5t93.5 -40.5z" />
    <glyph glyph-name="Hbar" unicode="&#x126;" horiz-adv-x="761" 
d="M736 569h-59v-569h-138v321h-317v-321h-138v569h-58v44h58v127h138v-127h317v127h138v-127h59v-44zM539 569h-317v-140h317v140z" />
    <glyph glyph-name="hbar" unicode="&#x127;" horiz-adv-x="598" 
d="M362 512q84 0 130 -54t46 -152v-306h-132v300q0 51 -25.5 79.5t-72.5 28.5q-53 0 -82 -36t-29 -100v-272h-132v619h-63v44h63v107h132v-107h164v-44h-164v-293h2q0 88 43 137t120 49z" />
    <glyph glyph-name="Itilde" unicode="&#x128;" horiz-adv-x="303" 
d="M202 805q-19 0 -33 6t-25 13t-20.5 13t-19.5 6q-15 0 -20.5 -10t-7.5 -31h-72q1 59 27 91.5t70 32.5q19 0 33 -5.5t24.5 -12.5t19.5 -12.5t20 -5.5q16 0 21.5 9t7.5 30h72q-1 -58 -27.5 -91t-69.5 -33zM82 740h138v-740h-138v740z" />
    <glyph glyph-name="itilde" unicode="&#x129;" horiz-adv-x="263" 
d="M183 563q-19 0 -33 6t-25 13t-20.5 13t-19.5 6q-15 0 -20.5 -10t-7.5 -31h-72q1 59 27 91.5t70 32.5q19 0 33 -5.5t24.5 -12.5t19.5 -12.5t20 -5.5q16 0 21.5 9t7.5 30h72q-1 -58 -27.5 -91t-69.5 -33zM197 502v-502h-132v502h132z" />
    <glyph glyph-name="Imacron" unicode="&#x12a;" horiz-adv-x="303" 
d="M312 945v-93h-322v93h322zM82 740h138v-740h-138v740z" />
    <glyph glyph-name="imacron" unicode="&#x12b;" horiz-adv-x="263" 
d="M293 707v-93h-322v93h322zM197 502v-502h-132v502h132z" />
    <glyph glyph-name="Iogonek" unicode="&#x12e;" horiz-adv-x="303" 
d="M154 -165q20 0 39.5 6t36.5 17v-75q-20 -11 -48 -17t-60 -6q-51 0 -78 20t-27 58q0 24 15 52t41.5 52t61.5 40t74 16v2h-127v740h138v-740q-46 -38 -71.5 -74t-25.5 -62q0 -29 31 -29z" />
    <glyph glyph-name="iogonek" unicode="&#x12f;" horiz-adv-x="263" 
d="M198 598h-132v125h132v-125zM131 -165q20 0 39.5 6t36.5 17v-75q-20 -11 -48 -17t-60 -6q-51 0 -78 20t-27 58q0 24 15 52t41.5 52t61.5 40t74 16v2h-121v502h132v-502q-46 -38 -71.5 -74t-25.5 -62q0 -29 31 -29z" />
    <glyph glyph-name="Idotaccent" unicode="&#x130;" horiz-adv-x="303" 
d="M86 961h132v-125h-132v125zM82 740h138v-740h-138v740z" />
    <glyph glyph-name="dotlessi" unicode="&#x131;" horiz-adv-x="263" 
d="M197 502v-502h-132v502h132z" />
    <glyph glyph-name="Kcommaaccent" unicode="&#x136;" horiz-adv-x="723" 
d="M735 0h-171l-347 381h-2v-381h-133v740h133v-350h2l317 350h160l-327 -353zM315 -66h120v-72q0 -43 -30 -67.5t-90 -34.5v38q56 6 79.5 18t31.5 33h-111v85z" />
    <glyph glyph-name="kcommaaccent" unicode="&#x137;" horiz-adv-x="577" 
d="M581 0h-162l-220 257h-2v-257h-132v770h132v-504h2l203 236h156l-213 -239zM237 -66h120v-72q0 -43 -30 -67.5t-90 -34.5v38q56 6 79.5 18t31.5 33h-111v85z" />
    <glyph glyph-name="Lacute" unicode="&#x139;" horiz-adv-x="563" 
d="M98 816l-37 69l197 108l42 -77zM545 111v-111h-463v740h138v-629h325z" />
    <glyph glyph-name="lacute" unicode="&#x13a;" horiz-adv-x="263" 
d="M280 946l-202 -100l-37 69l197 108zM65 770h132v-770h-132v770z" />
    <glyph glyph-name="Lcommaaccent" unicode="&#x13b;" horiz-adv-x="563" 
d="M545 111v-111h-463v740h138v-629h325zM230 -66h120v-72q0 -43 -30 -67.5t-90 -34.5v38q56 6 79.5 18t31.5 33h-111v85z" />
    <glyph glyph-name="lcommaaccent" unicode="&#x13c;" horiz-adv-x="263" 
d="M197 770v-770h-132v770h132zM72 -66h120v-72q0 -43 -30 -67.5t-90 -34.5v38q56 6 79.5 18t31.5 33h-111v85z" />
    <glyph glyph-name="Lcaron" unicode="&#x13d;" horiz-adv-x="572" 
d="M405 514l-88 26l48 210l97 -26zM545 111v-111h-463v740h138v-629h325z" />
    <glyph glyph-name="lcaron" unicode="&#x13e;" horiz-adv-x="303" 
d="M391 754l-57 -210l-88 26l49 210zM65 770h132v-770h-132v770z" />
    <glyph glyph-name="Lslash" unicode="&#x141;" horiz-adv-x="570" 
d="M552 111v-111h-463v286l-66 -40v49l66 40v405h138v-325l169 102v-48l-169 -102v-256h325z" />
    <glyph glyph-name="lslash" unicode="&#x142;" horiz-adv-x="310" 
d="M281 464l-60 -38v-426h-132v352l-59 -36v49l59 36v369h132v-295l60 37v-48z" />
    <glyph glyph-name="Nacute" unicode="&#x143;" horiz-adv-x="758" 
d="M326 816l-37 69l197 108l42 -77zM675 740v-740h-228l-236 728h-2l5 -728h-132v740h230l236 -728h2l-6 728h131z" />
    <glyph glyph-name="nacute" unicode="&#x144;" horiz-adv-x="598" 
d="M249 578l-37 69l197 108l42 -77zM362 512q84 0 130 -54t46 -152v-306h-132v300q0 51 -25.5 79.5t-72.5 28.5q-53 0 -82 -36t-29 -100v-272h-132v502h132v-176h2q0 88 43 137t120 49z" />
    <glyph glyph-name="Ncommaaccent" unicode="&#x145;" horiz-adv-x="758" 
d="M675 740v-740h-228l-236 728h-2l5 -728h-132v740h230l236 -728h2l-6 728h131zM320 -66h120v-72q0 -43 -30 -67.5t-90 -34.5v38q56 6 79.5 18t31.5 33h-111v85z" />
    <glyph glyph-name="ncommaaccent" unicode="&#x146;" horiz-adv-x="598" 
d="M362 512q84 0 130 -54t46 -152v-306h-132v300q0 51 -25.5 79.5t-72.5 28.5q-53 0 -82 -36t-29 -100v-272h-132v502h132v-176h2q0 88 43 137t120 49zM243 -66h120v-72q0 -43 -30 -67.5t-90 -34.5v38q56 6 79.5 18t31.5 33h-111v85z" />
    <glyph glyph-name="Ncaron" unicode="&#x147;" horiz-adv-x="758" 
d="M205 981h102l72 -160h2l71 160h102l-83 -172h-182zM675 740v-740h-228l-236 728h-2l5 -728h-132v740h230l236 -728h2l-6 728h131z" />
    <glyph glyph-name="ncaron" unicode="&#x148;" horiz-adv-x="598" 
d="M128 743h102l72 -160h2l71 160h102l-83 -172h-182zM362 512q84 0 130 -54t46 -152v-306h-132v300q0 51 -25.5 79.5t-72.5 28.5q-53 0 -82 -36t-29 -100v-272h-132v502h132v-176h2q0 88 43 137t120 49z" />
    <glyph glyph-name="Eng" unicode="&#x14a;" horiz-adv-x="758" 
d="M675 740v-751q0 -109 -58.5 -169t-164.5 -60q-63 0 -112 24l39 101q24 -15 60 -15q47 0 72.5 28t25.5 79v23h-90l-236 728h-2l5 -728h-132v740h230l236 -728h2l-6 728h131z" />
    <glyph glyph-name="eng" unicode="&#x14b;" horiz-adv-x="598" 
d="M362 512q84 0 130 -54t46 -152v-342q0 -97 -51.5 -150.5t-144.5 -53.5q-38 0 -71.5 9.5t-58.5 26.5l39 88q17 -9 33.5 -14t35.5 -5q42 0 64 26t22 73v336q0 51 -25.5 79.5t-72.5 28.5q-53 0 -82 -36t-29 -100v-272h-132v502h132v-176h2q0 88 43 137t120 49z" />
    <glyph glyph-name="Omacron" unicode="&#x14c;" horiz-adv-x="772" 
d="M547 945v-93h-322v93h322zM387 -10q-81 0 -145 26t-108 74.5t-67.5 119t-23.5 160.5t23.5 160.5t67.5 119t108 74.5t145 26q80 0 143.5 -26t107.5 -74.5t67.5 -119t23.5 -160.5t-23.5 -160.5t-67.5 -119t-107.5 -74.5t-143.5 -26zM387 100q94 0 146.5 71.5t52.5 198.5
t-52.5 198.5t-146.5 71.5q-96 0 -148.5 -71t-52.5 -199t52.5 -199t148.5 -71z" />
    <glyph glyph-name="omacron" unicode="&#x14d;" horiz-adv-x="599" 
d="M461 707v-93h-322v93h322zM300 -10q-124 0 -193 68.5t-69 192.5t69 192.5t193 68.5t192.5 -68.5t68.5 -192.5t-68.5 -192.5t-192.5 -68.5zM300 95q60 0 93.5 41t33.5 115t-33.5 115.5t-93.5 41.5t-93.5 -41.5t-33.5 -115.5t33.5 -115t93.5 -41z" />
    <glyph glyph-name="Ohungarumlaut" unicode="&#x150;" horiz-adv-x="772" 
d="M470 948l-169 -150l-55 55l161 155zM646 948l-169 -150l-55 55l161 155zM387 -10q-81 0 -145 26t-108 74.5t-67.5 119t-23.5 160.5t23.5 160.5t67.5 119t108 74.5t145 26q80 0 143.5 -26t107.5 -74.5t67.5 -119t23.5 -160.5t-23.5 -160.5t-67.5 -119t-107.5 -74.5
t-143.5 -26zM387 100q94 0 146.5 71.5t52.5 198.5t-52.5 198.5t-146.5 71.5q-96 0 -148.5 -71t-52.5 -199t52.5 -199t148.5 -71z" />
    <glyph glyph-name="ohungarumlaut" unicode="&#x151;" horiz-adv-x="599" 
d="M384 710l-169 -150l-55 55l161 155zM560 710l-169 -150l-55 55l161 155zM300 -10q-124 0 -193 68.5t-69 192.5t69 192.5t193 68.5t192.5 -68.5t68.5 -192.5t-68.5 -192.5t-192.5 -68.5zM300 95q60 0 93.5 41t33.5 115t-33.5 115.5t-93.5 41.5t-93.5 -41.5t-33.5 -115.5
t33.5 -115t93.5 -41z" />
    <glyph glyph-name="OE" unicode="&#x152;" horiz-adv-x="1154" 
d="M1115 107v-107h-526v261h-2q0 -128 -68.5 -199.5t-193.5 -71.5q-66 0 -118 26t-88 75t-55 119.5t-19 159.5t19 159.5t55 119.5t88 75t118 26q125 0 193.5 -71.5t68.5 -199.5h2v261h515v-107h-377v-200h342v-107h-342v-219h388zM388 100q49 0 88 20t66 56t41 85.5
t14 108.5t-14 108.5t-41 85.5t-66 56t-88 20q-47 0 -84.5 -18.5t-63.5 -53.5t-39.5 -85t-13.5 -113q0 -128 53 -199t148 -71z" />
    <glyph glyph-name="oe" unicode="&#x153;" horiz-adv-x="954" 
d="M916 236h-365q4 -69 35 -107.5t85 -38.5q46 0 77 23.5t40 65.5h128q-14 -90 -78 -139.5t-167 -49.5q-102 0 -164.5 51.5t-78.5 145.5h-2q0 -93 -49 -145t-137 -52q-95 0 -147.5 68.5t-52.5 192.5t52.5 192.5t147.5 68.5q88 0 137 -51.5t49 -144.5h2q16 94 78.5 145
t164.5 51q116 0 180.5 -68t64.5 -193v-15zM671 413q-51 0 -81.5 -34.5t-37.5 -97.5h235q-6 63 -36 97.5t-80 34.5zM301 95q60 0 93.5 43.5t33.5 112.5q0 70 -33.5 113.5t-93.5 43.5t-93.5 -41.5t-33.5 -115.5t33.5 -115t93.5 -41z" />
    <glyph glyph-name="Racute" unicode="&#x154;" horiz-adv-x="695" 
d="M265 816l-37 69l197 108l42 -77zM673 0h-154l-161 300h-138v-300h-138v740h287q131 0 204.5 -55.5t73.5 -155.5q0 -108 -72 -167.5t-203 -59.5v-2q61 0 111.5 -27t78.5 -77zM376 401q61 0 94.5 31t33.5 87q0 54 -33.5 84t-94.5 30h-156v-232h156z" />
    <glyph glyph-name="racute" unicode="&#x155;" horiz-adv-x="430" 
d="M162 578l-37 69l197 108l42 -77zM351 512q45 0 77 -16l-38 -118q-15 8 -33 13t-37 5q-58 0 -90.5 -44.5t-32.5 -124.5v-227h-132v502h132v-207h2q0 103 40 160t112 57z" />
    <glyph glyph-name="Rcommaaccent" unicode="&#x156;" horiz-adv-x="695" 
d="M673 0h-154l-161 300h-138v-300h-138v740h287q131 0 204.5 -55.5t73.5 -155.5q0 -108 -72 -167.5t-203 -59.5v-2q61 0 111.5 -27t78.5 -77zM376 401q61 0 94.5 31t33.5 87q0 54 -33.5 84t-94.5 30h-156v-232h156zM289 -66h120v-72q0 -43 -30 -67.5t-90 -34.5v38
q56 6 79.5 18t31.5 33h-111v85z" />
    <glyph glyph-name="rcommaaccent" unicode="&#x157;" horiz-adv-x="430" 
d="M351 512q45 0 77 -16l-38 -118q-15 8 -33 13t-37 5q-58 0 -90.5 -44.5t-32.5 -124.5v-227h-132v502h132v-207h2q0 103 40 160t112 57zM71 -66h120v-72q0 -43 -30 -67.5t-90 -34.5v38q56 6 79.5 18t31.5 33h-111v85z" />
    <glyph glyph-name="Rcaron" unicode="&#x158;" horiz-adv-x="695" 
d="M144 981h102l72 -160h2l71 160h102l-83 -172h-182zM673 0h-154l-161 300h-138v-300h-138v740h287q131 0 204.5 -55.5t73.5 -155.5q0 -108 -72 -167.5t-203 -59.5v-2q61 0 111.5 -27t78.5 -77zM376 401q61 0 94.5 31t33.5 87q0 54 -33.5 84t-94.5 30h-156v-232h156z" />
    <glyph glyph-name="rcaron" unicode="&#x159;" horiz-adv-x="430" 
d="M41 743h102l72 -160h2l71 160h102l-83 -172h-182zM351 512q45 0 77 -16l-38 -118q-15 8 -33 13t-37 5q-58 0 -90.5 -44.5t-32.5 -124.5v-227h-132v502h132v-207h2q0 103 40 160t112 57z" />
    <glyph glyph-name="Sacute" unicode="&#x15a;" horiz-adv-x="682" 
d="M488 916l-202 -100l-37 69l197 108zM340 -10q-134 0 -214 70.5t-91 198.5h136q7 -75 52 -117t120 -42q76 0 118 29.5t42 82.5q0 32 -15.5 52t-41 32t-59 18t-69.5 12q-46 6 -92.5 15.5t-84.5 30.5t-62 57.5t-24 98.5q0 109 75 165.5t210 56.5q123 0 197.5 -68t85.5 -190
h-137q-5 70 -45 109t-108 39q-66 0 -102 -27t-36 -75q0 -27 14 -44.5t38 -28t55.5 -16.5t66.5 -11q47 -7 95.5 -17t88.5 -32t65 -60.5t25 -102.5q0 -112 -79.5 -174t-223.5 -62z" />
    <glyph glyph-name="sacute" unicode="&#x15b;" horiz-adv-x="524" 
d="M409 678l-202 -100l-37 69l197 108zM261 -10q-109 0 -168.5 45.5t-59.5 127.5h123q0 -42 27.5 -65.5t77.5 -23.5q48 0 74.5 17t26.5 49q0 20 -10.5 32.5t-27.5 20.5t-39.5 12.5t-47.5 8.5q-33 5 -66.5 12.5t-61.5 22.5t-45.5 41.5t-17.5 69.5q0 72 56.5 112t158.5 40
q101 0 157.5 -43.5t56.5 -121.5h-123q0 40 -23.5 61.5t-67.5 21.5q-42 0 -65 -15.5t-23 -43.5q0 -17 9.5 -27.5t26 -17.5t38 -11.5t45.5 -8.5q33 -6 68 -13.5t63.5 -23.5t47 -43t18.5 -71q0 -78 -60 -121.5t-168 -43.5z" />
    <glyph glyph-name="Scedilla" unicode="&#x15e;" horiz-adv-x="682" 
d="M340 -10q-134 0 -214 70.5t-91 198.5h136q7 -75 52 -117t120 -42q76 0 118 29.5t42 82.5q0 32 -15.5 52t-41 32t-59 18t-69.5 12q-46 6 -92.5 15.5t-84.5 30.5t-62 57.5t-24 98.5q0 109 75 165.5t210 56.5q123 0 197.5 -68t85.5 -190h-137q-5 70 -45 109t-108 39
q-66 0 -102 -27t-36 -75q0 -27 14 -44.5t38 -28t55.5 -16.5t66.5 -11q47 -7 95.5 -17t88.5 -32t65 -60.5t25 -102.5q0 -112 -79.5 -174t-223.5 -62zM322 -240q-25 0 -51 5.5t-47 15.5v55q17 -11 38 -17t43 -6q34 0 52 12t18 33q0 16 -11.5 25.5t-32.5 9.5q-31 0 -50 -21
l-42 33q20 19 50.5 30t62.5 11q53 0 82.5 -22.5t29.5 -62.5q0 -48 -37.5 -74.5t-104.5 -26.5z" />
    <glyph glyph-name="scedilla" unicode="&#x15f;" horiz-adv-x="524" 
d="M261 -10q-109 0 -168.5 45.5t-59.5 127.5h123q0 -42 27.5 -65.5t77.5 -23.5q48 0 74.5 17t26.5 49q0 20 -10.5 32.5t-27.5 20.5t-39.5 12.5t-47.5 8.5q-33 5 -66.5 12.5t-61.5 22.5t-45.5 41.5t-17.5 69.5q0 72 56.5 112t158.5 40q101 0 157.5 -43.5t56.5 -121.5h-123
q0 40 -23.5 61.5t-67.5 21.5q-42 0 -65 -15.5t-23 -43.5q0 -17 9.5 -27.5t26 -17.5t38 -11.5t45.5 -8.5q33 -6 68 -13.5t63.5 -23.5t47 -43t18.5 -71q0 -78 -60 -121.5t-168 -43.5zM240 -240q-25 0 -51 5.5t-47 15.5v55q17 -11 38 -17t43 -6q34 0 52 12t18 33
q0 16 -11.5 25.5t-32.5 9.5q-31 0 -50 -21l-42 33q20 19 50.5 30t62.5 11q53 0 82.5 -22.5t29.5 -62.5q0 -48 -37.5 -74.5t-104.5 -26.5z" />
    <glyph glyph-name="Scaron" unicode="&#x160;" horiz-adv-x="682" 
d="M165 981h102l72 -160h2l71 160h102l-83 -172h-182zM369 438q47 -7 95.5 -17t88.5 -32t65 -60.5t25 -102.5q0 -112 -79.5 -174t-223.5 -62q-134 0 -214 70.5t-91 198.5h136q7 -75 52 -117t120 -42q76 0 118 29.5t42 82.5q0 32 -15.5 52t-41 32t-59 18t-69.5 12
q-46 6 -92.5 15.5t-84.5 30.5t-62 57.5t-24 98.5q0 109 75 165.5t210 56.5q123 0 197.5 -68t85.5 -190h-137q-5 70 -45 109t-108 39q-66 0 -102 -27t-36 -75q0 -27 14 -44.5t38 -28t55.5 -16.5t66.5 -11z" />
    <glyph glyph-name="scaron" unicode="&#x161;" horiz-adv-x="524" 
d="M86 743h102l72 -160h2l71 160h102l-83 -172h-182zM292 306q33 -6 68 -13.5t63.5 -23.5t47 -43t18.5 -71q0 -78 -60 -121.5t-168 -43.5q-109 0 -168.5 45.5t-59.5 127.5h123q0 -42 27.5 -65.5t77.5 -23.5q48 0 74.5 17t26.5 49q0 20 -10.5 32.5t-27.5 20.5t-39.5 12.5
t-47.5 8.5q-33 5 -66.5 12.5t-61.5 22.5t-45.5 41.5t-17.5 69.5q0 72 56.5 112t158.5 40q101 0 157.5 -43.5t56.5 -121.5h-123q0 40 -23.5 61.5t-67.5 21.5q-42 0 -65 -15.5t-23 -43.5q0 -17 9.5 -27.5t26 -17.5t38 -11.5t45.5 -8.5z" />
    <glyph glyph-name="uni0162" unicode="&#x162;" horiz-adv-x="605" 
d="M588 740v-107h-216v-633h-138v633h-217v107h571zM314 -54q53 0 82.5 -22.5t29.5 -62.5q0 -48 -37.5 -74.5t-104.5 -26.5q-25 0 -51 5.5t-47 15.5v55q17 -11 38 -17t43 -6q34 0 52 12t18 33q0 16 -11.5 25.5t-32.5 9.5q-31 0 -50 -21l-42 33q20 19 50.5 30t62.5 11z" />
    <glyph glyph-name="uni0163" unicode="&#x163;" horiz-adv-x="401" 
d="M225 411v-242q0 -35 21 -54.5t59 -19.5t67 16v-98q-23 -11 -51.5 -17t-57.5 -6q-81 0 -125.5 42.5t-44.5 119.5v259h-72v91h80v168h132v-42q0 -48 -34 -80.5t-94 -43.5v-2h276v-91h-156zM213 -54q53 0 82.5 -22.5t29.5 -62.5q0 -48 -37.5 -74.5t-104.5 -26.5
q-25 0 -51 5.5t-47 15.5v55q17 -11 38 -17t43 -6q34 0 52 12t18 33q0 16 -11.5 25.5t-32.5 9.5q-31 0 -50 -21l-42 33q20 19 50.5 30t62.5 11z" />
    <glyph glyph-name="Tcaron" unicode="&#x164;" horiz-adv-x="605" 
d="M127 981h102l72 -160h2l71 160h102l-83 -172h-182zM588 633h-216v-633h-138v633h-217v107h571v-107z" />
    <glyph glyph-name="tcaron" unicode="&#x165;" horiz-adv-x="401" 
d="M366 544l-88 26l49 210l96 -26zM105 502h276v-91h-156v-242q0 -35 21 -54.5t59 -19.5t67 16v-98q-23 -11 -51.5 -17t-57.5 -6q-81 0 -125.5 42.5t-44.5 119.5v259h-72v91h80v168h132v-42q0 -48 -34 -80.5t-94 -43.5v-2z" />
    <glyph glyph-name="Tbar" unicode="&#x166;" horiz-adv-x="611" 
d="M375 633v-246h110v-44h-110v-343h-138v343h-111v44h111v246h-217v107h571v-107h-216z" />
    <glyph glyph-name="tbar" unicode="&#x167;" horiz-adv-x="410" 
d="M230 411v-132h156v-44h-156v-66q0 -35 21 -54.5t59 -19.5t67 16v-98q-23 -11 -51.5 -17t-57.5 -6q-81 0 -125.5 42.5t-44.5 119.5v83h-71v44h71v132h-72v91h80v168h132v-42q0 -48 -34 -80.5t-94 -43.5v-2h276v-91h-156z" />
    <glyph glyph-name="Utilde" unicode="&#x168;" horiz-adv-x="732" 
d="M422 805q-19 0 -33 6t-25 13t-20.5 13t-19.5 6q-15 0 -20.5 -10t-7.5 -31h-72q1 59 27 91.5t70 32.5q19 0 33 -5.5t24.5 -12.5t19.5 -12.5t20 -5.5q16 0 21.5 9t7.5 30h72q-1 -58 -27.5 -91t-69.5 -33zM526 740h130v-479q0 -128 -76.5 -199.5t-213.5 -71.5t-213.5 71.5
t-76.5 199.5v479h138v-486q0 -73 40.5 -113.5t114.5 -40.5q75 0 116 40.5t41 113.5v486z" />
    <glyph glyph-name="utilde" unicode="&#x169;" horiz-adv-x="588" 
d="M349 563q-19 0 -33 6t-25 13t-20.5 13t-19.5 6q-15 0 -20.5 -10t-7.5 -31h-72q1 59 27 91.5t70 32.5q19 0 33 -5.5t24.5 -12.5t19.5 -12.5t20 -5.5q16 0 21.5 9t7.5 30h72q-1 -58 -27.5 -91t-69.5 -33zM523 502v-502h-132v177h-2q0 -88 -41 -137.5t-116 -49.5
q-81 0 -126.5 54.5t-45.5 151.5v306h132v-300q0 -51 24.5 -79t69.5 -28q50 0 77.5 35.5t27.5 100.5v271h132z" />
    <glyph glyph-name="Umacron" unicode="&#x16a;" horiz-adv-x="732" 
d="M530 945v-93h-322v93h322zM526 740h130v-479q0 -128 -76.5 -199.5t-213.5 -71.5t-213.5 71.5t-76.5 199.5v479h138v-486q0 -73 40.5 -113.5t114.5 -40.5q75 0 116 40.5t41 113.5v486z" />
    <glyph glyph-name="umacron" unicode="&#x16b;" horiz-adv-x="588" 
d="M454 614h-322v93h322v-93zM523 502v-502h-132v177h-2q0 -88 -41 -137.5t-116 -49.5q-81 0 -126.5 54.5t-45.5 151.5v306h132v-300q0 -51 24.5 -79t69.5 -28q50 0 77.5 35.5t27.5 100.5v271h132z" />
    <glyph glyph-name="Uring" unicode="&#x16e;" horiz-adv-x="732" 
d="M369 791q-61 0 -95 31t-34 87q0 55 34 86t95 31q62 0 96 -31t34 -86q0 -56 -34 -87t-96 -31zM369 853q26 0 39.5 15t13.5 41t-13.5 41t-39.5 15q-25 0 -38.5 -15t-13.5 -41t13.5 -41t38.5 -15zM526 740h130v-479q0 -128 -76.5 -199.5t-213.5 -71.5t-213.5 71.5
t-76.5 199.5v479h138v-486q0 -73 40.5 -113.5t114.5 -40.5q75 0 116 40.5t41 113.5v486z" />
    <glyph glyph-name="uring" unicode="&#x16f;" horiz-adv-x="588" 
d="M293 553q-61 0 -95 31t-34 87q0 55 34 86t95 31q62 0 96 -31t34 -86q0 -56 -34 -87t-96 -31zM293 727q-25 0 -38.5 -15t-13.5 -41t13.5 -41t38.5 -15q26 0 39.5 15t13.5 41t-13.5 41t-39.5 15zM523 502v-502h-132v177h-2q0 -88 -41 -137.5t-116 -49.5q-81 0 -126.5 54.5
t-45.5 151.5v306h132v-300q0 -51 24.5 -79t69.5 -28q50 0 77.5 35.5t27.5 100.5v271h132z" />
    <glyph glyph-name="Uhungarumlaut" unicode="&#x170;" horiz-adv-x="732" 
d="M453 948l-169 -150l-55 55l161 155zM629 948l-169 -150l-55 55l161 155zM526 740h130v-479q0 -128 -76.5 -199.5t-213.5 -71.5t-213.5 71.5t-76.5 199.5v479h138v-486q0 -73 40.5 -113.5t114.5 -40.5q75 0 116 40.5t41 113.5v486z" />
    <glyph glyph-name="uhungarumlaut" unicode="&#x171;" horiz-adv-x="588" 
d="M208 560l-55 55l161 155l63 -60zM329 615l161 155l63 -60l-169 -150zM391 502h132v-502h-132v177h-2q0 -88 -41 -137.5t-116 -49.5q-81 0 -126.5 54.5t-45.5 151.5v306h132v-300q0 -51 24.5 -79t69.5 -28q50 0 77.5 35.5t27.5 100.5v271z" />
    <glyph glyph-name="Uogonek" unicode="&#x172;" horiz-adv-x="732" 
d="M656 740v-479q0 -102 -48.5 -168t-137.5 -90q-46 -38 -72 -75t-26 -64q0 -29 32 -29q20 0 39 6t36 17v-75q-20 -11 -48 -17t-60 -6q-50 0 -77.5 20t-27.5 58q0 19 13.5 39.5t38 41t58.5 40.5t76 37l-1 2q-20 -4 -41 -6t-44 -2q-137 0 -213.5 71.5t-76.5 199.5v479h138
v-486q0 -73 40.5 -113.5t114.5 -40.5q75 0 116 40.5t41 113.5v486h130z" />
    <glyph glyph-name="uogonek" unicode="&#x173;" horiz-adv-x="588" 
d="M457 -165q20 0 39.5 6t36.5 17v-75q-20 -11 -48 -17t-60 -6q-51 0 -78 20t-27 58q0 24 15 52t41.5 52t61.5 40t74 16v2h-121v177h-2q0 -88 -41 -137.5t-116 -49.5q-81 0 -126.5 54.5t-45.5 151.5v306h132v-300q0 -51 24.5 -79t69.5 -28q50 0 77.5 35.5t27.5 100.5v271
h132v-502q-46 -38 -71.5 -74t-25.5 -62q0 -29 31 -29z" />
    <glyph glyph-name="Wcircumflex" unicode="&#x174;" horiz-adv-x="1058" 
d="M461 809h-102l84 172h182l83 -172h-102l-71 160h-2zM1032 740l-140 -740h-248l-114 728h-2l-114 -728h-248l-139 740h146l126 -728h2l119 728h225l120 -728h2l127 728h138z" />
    <glyph glyph-name="wcircumflex" unicode="&#x175;" horiz-adv-x="877" 
d="M366 571h-102l84 172h182l83 -172h-102l-71 160h-2zM852 502l-105 -502h-230l-78 493h-2l-77 -493h-230l-105 502h141l87 -493h2l77 493h217l76 -493h2l88 493h137z" />
    <glyph glyph-name="Ycircumflex" unicode="&#x176;" horiz-adv-x="703" 
d="M293 809h-102l84 172h182l83 -172h-102l-71 160h-2zM711 740l-350 -740h-149l136 294h-129l-210 446h159l196 -434h2l195 434h150z" />
    <glyph glyph-name="ycircumflex" unicode="&#x177;" horiz-adv-x="554" 
d="M208 571h-102l84 172h182l83 -172h-102l-71 160h-2zM534 502l-192 -732h-141l61 230h-109l-131 502h141l114 -493h2l114 493h141z" />
    <glyph glyph-name="Ydieresis" unicode="&#x178;" horiz-adv-x="703" 
d="M333 836h-124v125h124v-125zM523 836h-124v125h124v-125zM711 740l-350 -740h-149l136 294h-129l-210 446h159l196 -434h2l195 434h150z" />
    <glyph glyph-name="Zacute" unicode="&#x179;" horiz-adv-x="695" 
d="M299 816l-37 69l197 108l42 -77zM662 107v-107h-621v246l582 385v2h-568v107h581v-246l-582 -385v-2h608z" />
    <glyph glyph-name="zacute" unicode="&#x17a;" horiz-adv-x="536" 
d="M213 578l-37 69l197 108l42 -77zM503 92v-92h-461v213l429 196v2h-423v91h436v-213l-429 -195v-2h448z" />
    <glyph glyph-name="Zdotaccent" unicode="&#x17b;" horiz-adv-x="695" 
d="M419 836h-132v125h132v-125zM662 107v-107h-621v246l582 385v2h-568v107h581v-246l-582 -385v-2h608z" />
    <glyph glyph-name="zdotaccent" unicode="&#x17c;" horiz-adv-x="536" 
d="M333 598h-132v125h132v-125zM503 92v-92h-461v213l429 196v2h-423v91h436v-213l-429 -195v-2h448z" />
    <glyph glyph-name="Zcaron" unicode="&#x17d;" horiz-adv-x="695" 
d="M178 981h102l72 -160h2l71 160h102l-83 -172h-182zM662 107v-107h-621v246l582 385v2h-568v107h581v-246l-582 -385v-2h608z" />
    <glyph glyph-name="zcaron" unicode="&#x17e;" horiz-adv-x="536" 
d="M92 743h102l72 -160h2l71 160h102l-83 -172h-182zM503 92v-92h-461v213l429 196v2h-423v91h436v-213l-429 -195v-2h448z" />
    <glyph glyph-name="florin" unicode="&#x192;" horiz-adv-x="691" 
d="M570 645q-41 0 -67.5 -26t-34.5 -73l-25 -141h139v-44h-147l-37 -208q-14 -77 -67 -120t-134 -43q-35 0 -71.5 8t-65.5 22l27 94q17 -8 39 -13.5t45 -5.5q41 0 67.5 26t34.5 73l30 167h-135v44h143l32 182q14 77 67 120t134 43q35 0 71.5 -8t65.5 -22l-27 -94
q-17 8 -39 13.5t-45 5.5z" />
    <glyph glyph-name="Ohorn" unicode="&#x1a0;" horiz-adv-x="772" 
d="M387 -10q-81 0 -145 26t-108 74.5t-67.5 119t-23.5 160.5t23.5 160.5t67.5 119t108 74.5t145 26q62 0 118 -17q20 5 33.5 26.5t13.5 72.5h107q0 -48 -27 -80.5t-74 -40.5q82 -43 126.5 -129.5t44.5 -211.5q0 -90 -23.5 -160.5t-67.5 -119t-107.5 -74.5t-143.5 -26z
M387 100q94 0 146.5 71.5t52.5 198.5t-52.5 198.5t-146.5 71.5q-96 0 -148.5 -71t-52.5 -199t52.5 -199t148.5 -71z" />
    <glyph glyph-name="ohorn" unicode="&#x1a1;" horiz-adv-x="599" 
d="M300 -10q-124 0 -193 68.5t-69 192.5t69 192.5t193 68.5q58 0 106 -17q19 6 32.5 27.5t13.5 71.5h107q0 -48 -28.5 -81.5t-76.5 -40.5q52 -32 79.5 -88t27.5 -133q0 -124 -68.5 -192.5t-192.5 -68.5zM300 95q60 0 93.5 41t33.5 115t-33.5 115.5t-93.5 41.5t-93.5 -41.5
t-33.5 -115.5t33.5 -115t93.5 -41z" />
    <glyph glyph-name="Uhorn" unicode="&#x1af;" horiz-adv-x="732" 
d="M526 740h23q13 1 25 5t21 15t14.5 30.5t5.5 51.5h107q0 -38 -17.5 -67t-48.5 -44v-470q0 -128 -76.5 -199.5t-213.5 -71.5t-213.5 71.5t-76.5 199.5v479h138v-486q0 -73 40.5 -113.5t114.5 -40.5q75 0 116 40.5t41 113.5v486z" />
    <glyph glyph-name="uhorn" unicode="&#x1b0;" horiz-adv-x="588" 
d="M408 502q14 0 27 3.5t23.5 14t17 30.5t6.5 54h107q0 -38 -17.5 -67t-48.5 -44v-493h-132v177h-2q0 -88 -41 -137.5t-116 -49.5q-81 0 -126.5 54.5t-45.5 151.5v306h132v-300q0 -51 24.5 -79t69.5 -28q50 0 77.5 35.5t27.5 100.5v271h17z" />
    <glyph glyph-name="Scommaaccent" unicode="&#x218;" horiz-adv-x="682" 
d="M369 438q47 -7 95.5 -17t88.5 -32t65 -60.5t25 -102.5q0 -112 -79.5 -174t-223.5 -62q-134 0 -214 70.5t-91 198.5h136q7 -75 52 -117t120 -42q76 0 118 29.5t42 82.5q0 32 -15.5 52t-41 32t-59 18t-69.5 12q-46 6 -92.5 15.5t-84.5 30.5t-62 57.5t-24 98.5
q0 109 75 165.5t210 56.5q123 0 197.5 -68t85.5 -190h-137q-5 70 -45 109t-108 39q-66 0 -102 -27t-36 -75q0 -27 14 -44.5t38 -28t55.5 -16.5t66.5 -11zM280 -66h120v-72q0 -43 -30 -67.5t-90 -34.5v38q56 6 79.5 18t31.5 33h-111v85z" />
    <glyph glyph-name="scommaaccent" unicode="&#x219;" horiz-adv-x="524" 
d="M292 306q33 -6 68 -13.5t63.5 -23.5t47 -43t18.5 -71q0 -78 -60 -121.5t-168 -43.5q-109 0 -168.5 45.5t-59.5 127.5h123q0 -42 27.5 -65.5t77.5 -23.5q48 0 74.5 17t26.5 49q0 20 -10.5 32.5t-27.5 20.5t-39.5 12.5t-47.5 8.5q-33 5 -66.5 12.5t-61.5 22.5t-45.5 41.5
t-17.5 69.5q0 72 56.5 112t158.5 40q101 0 157.5 -43.5t56.5 -121.5h-123q0 40 -23.5 61.5t-67.5 21.5q-42 0 -65 -15.5t-23 -43.5q0 -17 9.5 -27.5t26 -17.5t38 -11.5t45.5 -8.5zM198 -66h120v-72q0 -43 -30 -67.5t-90 -34.5v38q56 6 79.5 18t31.5 33h-111v85z" />
    <glyph glyph-name="uni021A" unicode="&#x21a;" horiz-adv-x="605" 
d="M588 633h-216v-633h-138v633h-217v107h571v-107zM242 -66h120v-72q0 -43 -30 -67.5t-90 -34.5v38q56 6 79.5 18t31.5 33h-111v85z" />
    <glyph glyph-name="uni021B" unicode="&#x21b;" horiz-adv-x="401" 
d="M225 411v-242q0 -35 21 -54.5t59 -19.5t67 16v-98q-23 -11 -51.5 -17t-57.5 -6q-81 0 -125.5 42.5t-44.5 119.5v259h-72v91h80v168h132v-42q0 -48 -34 -80.5t-94 -43.5v-2h276v-91h-156zM141 -66h120v-72q0 -43 -30 -67.5t-90 -34.5v38q56 6 79.5 18t31.5 33h-111v85z
" />
    <glyph glyph-name="uni0237" unicode="&#x237;" horiz-adv-x="263" 
d="M197 502v-732h-132v732h132z" />
    <glyph glyph-name="circumflex" unicode="&#x2c6;" horiz-adv-x="371" 
d="M360 571h-102l-71 160h-2l-72 -160h-102l84 172h182z" />
    <glyph glyph-name="caron" unicode="&#x2c7;" horiz-adv-x="371" 
d="M360 743l-83 -172h-182l-84 172h102l72 -160h2l71 160h102z" />
    <glyph glyph-name="breve" unicode="&#x2d8;" horiz-adv-x="360" 
d="M343 743q-2 -83 -44.5 -129.5t-118.5 -46.5q-75 0 -118 46.5t-44 129.5h89q1 -46 20.5 -71.5t52.5 -25.5q34 0 53 25.5t20 71.5h90v0z" />
    <glyph glyph-name="dotaccent" unicode="&#x2d9;" horiz-adv-x="245" 
d="M57 723h132v-125h-132v125z" />
    <glyph glyph-name="ring" unicode="&#x2da;" horiz-adv-x="301" 
d="M150 553q-61 0 -95 31t-34 87q0 55 34 86t95 31q62 0 96 -31t34 -86q0 -56 -34 -87t-96 -31zM150 615q26 0 39.5 15t13.5 41t-13.5 41t-39.5 15q-25 0 -38.5 -15t-13.5 -41t13.5 -41t38.5 -15z" />
    <glyph glyph-name="ogonek" unicode="&#x2db;" horiz-adv-x="244" 
d="M230 -217q-20 -11 -48 -17t-60 -6q-51 0 -78 20t-27 58q0 24 15 52t41.5 52t61.5 40t74 16v2h11q-46 -38 -71.5 -74t-25.5 -62q0 -29 31 -29q20 0 39.5 6t36.5 17v-75v0z" />
    <glyph glyph-name="tilde" unicode="&#x2dc;" horiz-adv-x="436" 
d="M283 588q-25 0 -43.5 8t-35 18t-31.5 18t-33 8q-22 0 -35 -15t-16 -41h-58q1 72 33 111.5t89 39.5q25 0 43.5 -8t34.5 -17.5t31 -17.5t33 -8q22 0 35.5 14.5t16.5 40.5h58q-1 -72 -33 -111.5t-89 -39.5z" />
    <glyph glyph-name="hungarumlaut" unicode="&#x2dd;" horiz-adv-x="457" 
d="M249 710l-169 -150l-55 55l161 155zM425 710l-169 -150l-55 55l161 155z" />
    <glyph glyph-name="gravecomb" unicode="&#x300;" horiz-adv-x="0" 
d="M-6 647l-37 -69l-202 100l42 77z" />
    <glyph glyph-name="acutecomb" unicode="&#x301;" horiz-adv-x="0" 
d="M-14 678l-202 -100l-37 69l197 108z" />
    <glyph glyph-name="uni0302" unicode="&#x302;" horiz-adv-x="0" 
d="M-11 571h-102l-71 160h-2l-72 -160h-102l84 172h182z" />
    <glyph glyph-name="tildecomb" unicode="&#x303;" horiz-adv-x="0" 
d="M-153 595q-25 0 -43.5 8t-35 18t-31.5 18t-33 8q-22 0 -35 -15t-16 -41h-58q1 72 33 111.5t89 39.5q25 0 43.5 -8t34.5 -17.5t31 -17.5t33 -8q22 0 35.5 14.5t16.5 40.5h58q-1 -72 -33 -111.5t-89 -39.5z" />
    <glyph glyph-name="uni0304" unicode="&#x304;" horiz-adv-x="0" 
d="M-19 707v-93h-322v93h322z" />
    <glyph glyph-name="uni0306" unicode="&#x306;" horiz-adv-x="0" 
d="M-17 743q-2 -83 -44.5 -129.5t-118.5 -46.5q-75 0 -118 46.5t-44 129.5h89q1 -46 20.5 -71.5t52.5 -25.5q34 0 53 25.5t20 71.5h90v0z" />
    <glyph glyph-name="uni0307" unicode="&#x307;" horiz-adv-x="0" 
d="M-188 723h132v-125h-132v125z" />
    <glyph glyph-name="uni0308" unicode="&#x308;" horiz-adv-x="0" 
d="M-380 723h124v-125h-124v125zM-190 723h124v-125h-124v125z" />
    <glyph glyph-name="uni030A" unicode="&#x30a;" horiz-adv-x="0" 
d="M-151 553q-61 0 -95 31t-34 87q0 55 34 86t95 31q62 0 96 -31t34 -86q0 -56 -34 -87t-96 -31zM-151 615q26 0 39.5 15t13.5 41t-13.5 41t-39.5 15q-25 0 -38.5 -15t-13.5 -41t13.5 -41t38.5 -15z" />
    <glyph glyph-name="uni030B" unicode="&#x30b;" horiz-adv-x="0" 
d="M-208 710l-169 -150l-55 55l161 155zM-32 710l-169 -150l-55 55l161 155z" />
    <glyph glyph-name="uni030C" unicode="&#x30c;" horiz-adv-x="0" 
d="M-11 743l-83 -172h-182l-84 172h102l72 -160h2l71 160h102z" />
    <glyph glyph-name="uni0312" unicode="&#x312;" horiz-adv-x="0" 
d="M-24 744q-56 -4 -79.5 -16t-31.5 -35h111v-97h-119v79q0 92 119 107v-38v0z" />
    <glyph glyph-name="uni0326" unicode="&#x326;" horiz-adv-x="0" 
d="M-29 -66v-72q0 -43 -30 -67.5t-90 -34.5v38q56 6 79.5 18t31.5 33h-111v85h120z" />
    <glyph glyph-name="uni0327" unicode="&#x327;" horiz-adv-x="0" 
d="M-168 -240q-25 0 -51 5.5t-47 15.5v55q17 -11 38 -17t43 -6q34 0 52 12t18 33q0 16 -11.5 25.5t-32.5 9.5q-31 0 -50 -21l-42 33q20 19 50.5 30t62.5 11q53 0 82.5 -22.5t29.5 -62.5q0 -48 -37.5 -74.5t-104.5 -26.5z" />
    <glyph glyph-name="uni0328" unicode="&#x328;" horiz-adv-x="0" 
d="M-14 -217q-20 -11 -48 -17t-60 -6q-51 0 -78 20t-27 58q0 24 15 52t41.5 52t61.5 40t74 16v2h11q-46 -38 -71.5 -74t-25.5 -62q0 -29 31 -29q20 0 39.5 6t36.5 17v-75v0z" />
    <glyph glyph-name="uni0335" unicode="&#x335;" horiz-adv-x="0" 
d="M-47 378v-44h-359v44h359z" />
    <glyph glyph-name="uni0336" unicode="&#x336;" horiz-adv-x="0" 
d="M-756 378h710v-44h-710v44z" />
    <glyph glyph-name="uni0337" unicode="&#x337;" horiz-adv-x="0" 
d="M10 520l-372 -564l-41 27l372 563z" />
    <glyph glyph-name="uni0338" unicode="&#x338;" horiz-adv-x="0" 
d="M-10 752l-489 -791l-46 27l488 791z" />
    <glyph glyph-name="uni0394" unicode="&#x394;" horiz-adv-x="719" 
d="M711 0h-703l230 740h244zM534 107l-177 621h-2l-178 -621h357z" />
    <glyph glyph-name="uni03A9" unicode="&#x3a9;" horiz-adv-x="805" 
d="M495 106h247v-106h-291v106q77 0 120 71t43 199q0 125 -55.5 194.5t-155.5 69.5t-156 -69t-56 -192q0 -129 42.5 -201t120.5 -72v-106h-291v106h247v2q-62 0 -110.5 21.5t-82 62t-51 99t-17.5 132.5q0 77 24 137.5t69.5 102.5t111 64.5t149.5 22.5t149.5 -22.5
t110.5 -64.5t69 -102.5t24 -137.5q0 -74 -17.5 -132.5t-51.5 -99t-82.5 -62t-109.5 -21.5v-2z" />
    <glyph glyph-name="uni03BC" unicode="&#x3bc;" horiz-adv-x="593" 
d="M528 502v-502h-132v177h-2q0 -88 -41 -137.5t-116 -49.5q-52 0 -90 23t-58 66l108 -306v-3h-132v732h132v-300q0 -51 24.5 -79t69.5 -28q50 0 77.5 35.5t27.5 100.5v271h132z" />
    <glyph glyph-name="pi" unicode="&#x3c0;" horiz-adv-x="656" 
d="M639 411h-90v-411h-132v411h-178v-411h-132v411h-90v91h622v-91z" />
    <glyph glyph-name="Wgrave" unicode="&#x1e80;" horiz-adv-x="1058" 
d="M587 816l-202 100l42 77l197 -108zM1032 740l-140 -740h-248l-114 728h-2l-114 -728h-248l-139 740h146l126 -728h2l119 728h225l120 -728h2l127 728h138z" />
    <glyph glyph-name="wgrave" unicode="&#x1e81;" horiz-adv-x="877" 
d="M492 578l-202 100l42 77l197 -108zM852 502l-105 -502h-230l-78 493h-2l-77 -493h-230l-105 502h141l87 -493h2l77 493h217l76 -493h2l88 493h137z" />
    <glyph glyph-name="Wacute" unicode="&#x1e82;" horiz-adv-x="1058" 
d="M480 816l-37 69l197 108l42 -77zM1032 740l-140 -740h-248l-114 728h-2l-114 -728h-248l-139 740h146l126 -728h2l119 728h225l120 -728h2l127 728h138z" />
    <glyph glyph-name="wacute" unicode="&#x1e83;" horiz-adv-x="877" 
d="M385 578l-37 69l197 108l42 -77zM852 502l-105 -502h-230l-78 493h-2l-77 -493h-230l-105 502h141l87 -493h2l77 493h217l76 -493h2l88 493h137z" />
    <glyph glyph-name="Wdieresis" unicode="&#x1e84;" horiz-adv-x="1058" 
d="M501 836h-124v125h124v-125zM691 836h-124v125h124v-125zM1032 740l-140 -740h-248l-114 728h-2l-114 -728h-248l-139 740h146l126 -728h2l119 728h225l120 -728h2l127 728h138z" />
    <glyph glyph-name="wdieresis" unicode="&#x1e85;" horiz-adv-x="877" 
d="M406 598h-124v125h124v-125zM596 598h-124v125h124v-125zM852 502l-105 -502h-230l-78 493h-2l-77 -493h-230l-105 502h141l87 -493h2l77 493h217l76 -493h2l88 493h137z" />
    <glyph glyph-name="uni1E9E" unicode="&#x1e9e;" horiz-adv-x="693" 
d="M346 423q147 0 229 -56.5t82 -159.5t-72 -160t-202 -57q-27 0 -53 3t-47 9v108q19 -5 41.5 -7.5t46.5 -2.5q69 0 107 29.5t38 81.5q0 57 -43.5 88t-122.5 31h-49v95q77 2 119.5 31.5t42.5 80.5q0 48 -31.5 75.5t-89.5 27.5q-60 0 -93.5 -32.5t-33.5 -89.5v-518h-138v513
q0 112 69.5 174.5t195.5 62.5q125 0 193.5 -44t68.5 -124q0 -74 -70.5 -115.5t-197.5 -41.5v-2h10v0z" />
    <glyph glyph-name="uni1EA0" unicode="&#x1ea0;" horiz-adv-x="719" 
d="M296 -72h124v-119h-124v119zM513 179h-316l-51 -179h-138l230 740h244l229 -740h-147zM483 286l-126 442h-2l-127 -442h255z" />
    <glyph glyph-name="uni1EA1" unicode="&#x1ea1;" 
d="M230 -72h124v-119h-124v119zM553 502v-502h-132v173h-2q0 -87 -47 -135t-132 -48q-95 0 -147.5 68.5t-52.5 192.5t52.5 192.5t147.5 68.5q85 0 132 -48t47 -134h2v172h132zM301 95q60 0 93.5 43.5t33.5 112.5q0 70 -33.5 113.5t-93.5 43.5t-93.5 -41.5t-33.5 -115.5
t33.5 -115t93.5 -41z" />
    <glyph glyph-name="uni1EA2" unicode="&#x1ea2;" horiz-adv-x="719" 
d="M272 889q0 46 26.5 71t72.5 25q48 0 73.5 -20.5t25.5 -60.5q0 -31 -17.5 -57t-49.5 -45h-82q35 21 54 47.5t19 44.5q0 16 -6.5 21.5t-17.5 5.5q-9 0 -18 -6t-9 -26h-71zM513 179h-316l-51 -179h-138l230 740h244l229 -740h-147zM483 286l-126 442h-2l-127 -442h255z" />
    <glyph glyph-name="uni1EA3" unicode="&#x1ea3;" 
d="M218 647q0 46 26.5 71t72.5 25q48 0 73.5 -20.5t25.5 -60.5q0 -31 -17.5 -57t-49.5 -45h-82q35 21 54 47.5t19 44.5q0 16 -6.5 21.5t-17.5 5.5q-9 0 -18 -6t-9 -26h-71zM553 502v-502h-132v173h-2q0 -87 -47 -135t-132 -48q-95 0 -147.5 68.5t-52.5 192.5t52.5 192.5
t147.5 68.5q85 0 132 -48t47 -134h2v172h132zM301 95q60 0 93.5 43.5t33.5 112.5q0 70 -33.5 113.5t-93.5 43.5t-93.5 -41.5t-33.5 -115.5t33.5 -115t93.5 -41z" />
    <glyph glyph-name="uni1EA4" unicode="&#x1ea4;" horiz-adv-x="719" 
d="M494 866l55 125h110l-75 -125h-90zM513 179h-316l-51 -179h-138l230 740h244l229 -740h-147zM483 286l-126 442h-2l-127 -442h255zM361 896h-4l-50 -104h-92l63 125h162l63 -125h-92z" />
    <glyph glyph-name="uni1EA5" unicode="&#x1ea5;" 
d="M435 624l55 125h110l-75 -125h-90zM553 502v-502h-132v173h-2q0 -87 -47 -135t-132 -48q-95 0 -147.5 68.5t-52.5 192.5t52.5 192.5t147.5 68.5q85 0 132 -48t47 -134h2v172h132zM301 95q60 0 93.5 43.5t33.5 112.5q0 70 -33.5 113.5t-93.5 43.5t-93.5 -41.5
t-33.5 -115.5t33.5 -115t93.5 -41zM302 654h-4l-50 -104h-92l63 125h162l63 -125h-92z" />
    <glyph glyph-name="uni1EA6" unicode="&#x1ea6;" horiz-adv-x="719" 
d="M510 866l-75 125h110l55 -125h-90zM513 179h-316l-51 -179h-138l230 740h244l229 -740h-147zM483 286l-126 442h-2l-127 -442h255zM361 896h-4l-50 -104h-92l63 125h162l63 -125h-92z" />
    <glyph glyph-name="uni1EA7" unicode="&#x1ea7;" 
d="M451 624l-75 125h110l55 -125h-90zM553 502v-502h-132v173h-2q0 -87 -47 -135t-132 -48q-95 0 -147.5 68.5t-52.5 192.5t52.5 192.5t147.5 68.5q85 0 132 -48t47 -134h2v172h132zM301 95q60 0 93.5 43.5t33.5 112.5q0 70 -33.5 113.5t-93.5 43.5t-93.5 -41.5
t-33.5 -115.5t33.5 -115t93.5 -41zM302 654h-4l-50 -104h-92l63 125h162l63 -125h-92z" />
    <glyph glyph-name="uni1EA8" unicode="&#x1ea8;" horiz-adv-x="719" 
d="M442 953q0 46 26.5 71t72.5 25q48 0 73.5 -20.5t25.5 -60.5q0 -31 -17.5 -57t-49.5 -45h-82q35 21 54 47.5t19 44.5q0 16 -6.5 21.5t-17.5 5.5q-9 0 -18 -6t-9 -26h-71zM513 179h-316l-51 -179h-138l230 740h244l229 -740h-147zM483 286l-126 442h-2l-127 -442h255z
M361 896h-4l-50 -104h-92l63 125h162l63 -125h-92z" />
    <glyph glyph-name="uni1EA9" unicode="&#x1ea9;" 
d="M383 711q0 46 26.5 71t72.5 25q48 0 73.5 -20.5t25.5 -60.5q0 -31 -17.5 -57t-49.5 -45h-82q35 21 54 47.5t19 44.5q0 16 -6.5 21.5t-17.5 5.5q-9 0 -18 -6t-9 -26h-71zM553 502v-502h-132v173h-2q0 -87 -47 -135t-132 -48q-95 0 -147.5 68.5t-52.5 192.5t52.5 192.5
t147.5 68.5q85 0 132 -48t47 -134h2v172h132zM301 95q60 0 93.5 43.5t33.5 112.5q0 70 -33.5 113.5t-93.5 43.5t-93.5 -41.5t-33.5 -115.5t33.5 -115t93.5 -41zM302 654h-4l-50 -104h-92l63 125h162l63 -125h-92z" />
    <glyph glyph-name="uni1EAA" unicode="&#x1eaa;" horiz-adv-x="719" 
d="M410 956q-19 0 -33 6t-25 13t-20.5 13t-19.5 6q-15 0 -20.5 -10t-7.5 -31h-72q1 59 27 91.5t70 32.5q19 0 33 -5.5t24.5 -12.5t19.5 -12.5t20 -5.5q16 0 21.5 9t7.5 30h72q-1 -58 -27.5 -91t-69.5 -33zM513 179h-316l-51 -179h-138l230 740h244l229 -740h-147zM483 286
l-126 442h-2l-127 -442h255zM361 896h-4l-50 -104h-92l63 125h162l63 -125h-92z" />
    <glyph glyph-name="uni1EAB" unicode="&#x1eab;" 
d="M351 714q-19 0 -33 6t-25 13t-20.5 13t-19.5 6q-15 0 -20.5 -10t-7.5 -31h-72q1 59 27 91.5t70 32.5q19 0 33 -5.5t24.5 -12.5t19.5 -12.5t20 -5.5q16 0 21.5 9t7.5 30h72q-1 -58 -27.5 -91t-69.5 -33zM553 502v-502h-132v173h-2q0 -87 -47 -135t-132 -48
q-95 0 -147.5 68.5t-52.5 192.5t52.5 192.5t147.5 68.5q85 0 132 -48t47 -134h2v172h132zM301 95q60 0 93.5 43.5t33.5 112.5q0 70 -33.5 113.5t-93.5 43.5t-93.5 -41.5t-33.5 -115.5t33.5 -115t93.5 -41zM302 654h-4l-50 -104h-92l63 125h162l63 -125h-92z" />
    <glyph glyph-name="uni1EAC" unicode="&#x1eac;" horiz-adv-x="719" 
d="M296 -72h124v-119h-124v119zM513 179h-316l-51 -179h-138l230 740h244l229 -740h-147zM483 286l-126 442h-2l-127 -442h255zM361 896h-4l-50 -104h-92l63 125h162l63 -125h-92z" />
    <glyph glyph-name="uni1EAD" unicode="&#x1ead;" 
d="M230 -72h124v-119h-124v119zM553 502v-502h-132v173h-2q0 -87 -47 -135t-132 -48q-95 0 -147.5 68.5t-52.5 192.5t52.5 192.5t147.5 68.5q85 0 132 -48t47 -134h2v172h132zM301 95q60 0 93.5 43.5t33.5 112.5q0 70 -33.5 113.5t-93.5 43.5t-93.5 -41.5t-33.5 -115.5
t33.5 -115t93.5 -41zM302 654h-4l-50 -104h-92l63 125h162l63 -125h-92z" />
    <glyph glyph-name="uni1EAE" unicode="&#x1eae;" horiz-adv-x="719" 
d="M309 945l55 125h113l-75 -125h-93zM513 179h-316l-51 -179h-138l230 740h244l229 -740h-147zM483 286l-126 442h-2l-127 -442h255zM360 792q-71 0 -107.5 33.5t-36.5 91.5h90q0 -23 13.5 -36.5t40.5 -13.5t40 13.5t13 36.5h91q0 -58 -36.5 -91.5t-107.5 -33.5z" />
    <glyph glyph-name="uni1EAF" unicode="&#x1eaf;" 
d="M249 703l55 125h113l-75 -125h-93zM553 502v-502h-132v173h-2q0 -87 -47 -135t-132 -48q-95 0 -147.5 68.5t-52.5 192.5t52.5 192.5t147.5 68.5q85 0 132 -48t47 -134h2v172h132zM301 95q60 0 93.5 43.5t33.5 112.5q0 70 -33.5 113.5t-93.5 43.5t-93.5 -41.5
t-33.5 -115.5t33.5 -115t93.5 -41zM300 550q-71 0 -107.5 33.5t-36.5 91.5h90q0 -23 13.5 -36.5t40.5 -13.5t40 13.5t13 36.5h91q0 -58 -36.5 -91.5t-107.5 -33.5z" />
    <glyph glyph-name="uni1EB0" unicode="&#x1eb0;" horiz-adv-x="719" 
d="M318 945l-75 125h113l55 -125h-93zM513 179h-316l-51 -179h-138l230 740h244l229 -740h-147zM483 286l-126 442h-2l-127 -442h255zM360 792q-71 0 -107.5 33.5t-36.5 91.5h90q0 -23 13.5 -36.5t40.5 -13.5t40 13.5t13 36.5h91q0 -58 -36.5 -91.5t-107.5 -33.5z" />
    <glyph glyph-name="uni1EB1" unicode="&#x1eb1;" 
d="M258 703l-75 125h113l55 -125h-93zM553 502v-502h-132v173h-2q0 -87 -47 -135t-132 -48q-95 0 -147.5 68.5t-52.5 192.5t52.5 192.5t147.5 68.5q85 0 132 -48t47 -134h2v172h132zM301 95q60 0 93.5 43.5t33.5 112.5q0 70 -33.5 113.5t-93.5 43.5t-93.5 -41.5
t-33.5 -115.5t33.5 -115t93.5 -41zM300 550q-71 0 -107.5 33.5t-36.5 91.5h90q0 -23 13.5 -36.5t40.5 -13.5t40 13.5t13 36.5h91q0 -58 -36.5 -91.5t-107.5 -33.5z" />
    <glyph glyph-name="uni1EB2" unicode="&#x1eb2;" horiz-adv-x="719" 
d="M268 1021q0 46 26.5 71t72.5 25q48 0 73.5 -20.5t25.5 -60.5q0 -31 -17.5 -57t-49.5 -45h-82q35 21 54 47.5t19 44.5q0 16 -6.5 21.5t-17.5 5.5q-9 0 -18 -6t-9 -26h-71zM513 179h-316l-51 -179h-138l230 740h244l229 -740h-147zM483 286l-126 442h-2l-127 -442h255z
M360 792q-71 0 -107.5 33.5t-36.5 91.5h90q0 -23 13.5 -36.5t40.5 -13.5t40 13.5t13 36.5h91q0 -58 -36.5 -91.5t-107.5 -33.5z" />
    <glyph glyph-name="uni1EB3" unicode="&#x1eb3;" 
d="M208 781q0 46 26.5 71t72.5 25q48 0 73.5 -20.5t25.5 -60.5q0 -31 -17.5 -57t-49.5 -45h-82q35 21 54 47.5t19 44.5q0 16 -6.5 21.5t-17.5 5.5q-9 0 -18 -6t-9 -26h-71zM553 502v-502h-132v173h-2q0 -87 -47 -135t-132 -48q-95 0 -147.5 68.5t-52.5 192.5t52.5 192.5
t147.5 68.5q85 0 132 -48t47 -134h2v172h132zM301 95q60 0 93.5 43.5t33.5 112.5q0 70 -33.5 113.5t-93.5 43.5t-93.5 -41.5t-33.5 -115.5t33.5 -115t93.5 -41zM300 550q-71 0 -107.5 33.5t-36.5 91.5h90q0 -23 13.5 -36.5t40.5 -13.5t40 13.5t13 36.5h91q0 -58 -36.5 -91.5
t-107.5 -33.5z" />
    <glyph glyph-name="uni1EB4" unicode="&#x1eb4;" horiz-adv-x="719" 
d="M411 954q-19 0 -33 6t-25 13t-20.5 13t-19.5 6q-15 0 -20.5 -10t-7.5 -31h-72q1 59 27 91.5t70 32.5q19 0 33 -5.5t24.5 -12.5t19.5 -12.5t20 -5.5q16 0 21.5 9t7.5 30h72q-1 -58 -27.5 -91t-69.5 -33zM513 179h-316l-51 -179h-138l230 740h244l229 -740h-147zM483 286
l-126 442h-2l-127 -442h255zM360 792q-71 0 -107.5 33.5t-36.5 91.5h90q0 -23 13.5 -36.5t40.5 -13.5t40 13.5t13 36.5h91q0 -58 -36.5 -91.5t-107.5 -33.5z" />
    <glyph glyph-name="uni1EB5" unicode="&#x1eb5;" 
d="M351 712q-19 0 -33 6t-25 13t-20.5 13t-19.5 6q-15 0 -20.5 -10t-7.5 -31h-72q1 59 27 91.5t70 32.5q19 0 33 -5.5t24.5 -12.5t19.5 -12.5t20 -5.5q16 0 21.5 9t7.5 30h72q-1 -58 -27.5 -91t-69.5 -33zM553 502v-502h-132v173h-2q0 -87 -47 -135t-132 -48
q-95 0 -147.5 68.5t-52.5 192.5t52.5 192.5t147.5 68.5q85 0 132 -48t47 -134h2v172h132zM301 95q60 0 93.5 43.5t33.5 112.5q0 70 -33.5 113.5t-93.5 43.5t-93.5 -41.5t-33.5 -115.5t33.5 -115t93.5 -41zM300 550q-71 0 -107.5 33.5t-36.5 91.5h90q0 -23 13.5 -36.5
t40.5 -13.5t40 13.5t13 36.5h91q0 -58 -36.5 -91.5t-107.5 -33.5z" />
    <glyph glyph-name="uni1EB6" unicode="&#x1eb6;" horiz-adv-x="719" 
d="M296 -72h124v-119h-124v119zM513 179h-316l-51 -179h-138l230 740h244l229 -740h-147zM483 286l-126 442h-2l-127 -442h255zM360 792q-71 0 -107.5 33.5t-36.5 91.5h90q0 -23 13.5 -36.5t40.5 -13.5t40 13.5t13 36.5h91q0 -58 -36.5 -91.5t-107.5 -33.5z" />
    <glyph glyph-name="uni1EB7" unicode="&#x1eb7;" 
d="M230 -72h124v-119h-124v119zM553 502v-502h-132v173h-2q0 -87 -47 -135t-132 -48q-95 0 -147.5 68.5t-52.5 192.5t52.5 192.5t147.5 68.5q85 0 132 -48t47 -134h2v172h132zM301 95q60 0 93.5 43.5t33.5 112.5q0 70 -33.5 113.5t-93.5 43.5t-93.5 -41.5t-33.5 -115.5
t33.5 -115t93.5 -41zM300 550q-71 0 -107.5 33.5t-36.5 91.5h90q0 -23 13.5 -36.5t40.5 -13.5t40 13.5t13 36.5h91q0 -58 -36.5 -91.5t-107.5 -33.5z" />
    <glyph glyph-name="uni1EB8" unicode="&#x1eb8;" horiz-adv-x="649" 
d="M287 -72h124v-119h-124v119zM610 107v-107h-528v740h517v-107h-379v-200h344v-107h-344v-219h390z" />
    <glyph glyph-name="uni1EB9" unicode="&#x1eb9;" horiz-adv-x="569" 
d="M229 -72h124v-119h-124v119zM532 236h-366q4 -69 35 -107.5t85 -38.5q47 0 77.5 23.5t40.5 65.5h128q-14 -90 -78.5 -139.5t-167.5 -49.5q-118 0 -183 68.5t-65 192.5q0 125 65 193t183 68q116 0 181 -68t65 -193v-15zM286 413q-51 0 -81.5 -34.5t-37.5 -97.5h236
q-6 63 -36.5 97.5t-80.5 34.5z" />
    <glyph glyph-name="uni1EBA" unicode="&#x1eba;" horiz-adv-x="649" 
d="M262 889q0 46 26.5 71t72.5 25q48 0 73.5 -20.5t25.5 -60.5q0 -31 -17.5 -57t-49.5 -45h-82q35 21 54 47.5t19 44.5q0 16 -6.5 21.5t-17.5 5.5q-9 0 -18 -6t-9 -26h-71zM610 107v-107h-528v740h517v-107h-379v-200h344v-107h-344v-219h390z" />
    <glyph glyph-name="uni1EBB" unicode="&#x1ebb;" horiz-adv-x="569" 
d="M198 647q0 46 26.5 71t72.5 25q48 0 73.5 -20.5t25.5 -60.5q0 -31 -17.5 -57t-49.5 -45h-82q35 21 54 47.5t19 44.5q0 16 -6.5 21.5t-17.5 5.5q-9 0 -18 -6t-9 -26h-71zM532 236h-366q4 -69 35 -107.5t85 -38.5q47 0 77.5 23.5t40.5 65.5h128q-14 -90 -78.5 -139.5
t-167.5 -49.5q-118 0 -183 68.5t-65 192.5q0 125 65 193t183 68q116 0 181 -68t65 -193v-15zM286 413q-51 0 -81.5 -34.5t-37.5 -97.5h236q-6 63 -36.5 97.5t-80.5 34.5z" />
    <glyph glyph-name="uni1EBC" unicode="&#x1ebc;" horiz-adv-x="649" 
d="M392 805q-19 0 -33 6t-25 13t-20.5 13t-19.5 6q-15 0 -20.5 -10t-7.5 -31h-72q1 59 27 91.5t70 32.5q19 0 33 -5.5t24.5 -12.5t19.5 -12.5t20 -5.5q16 0 21.5 9t7.5 30h72q-1 -58 -27.5 -91t-69.5 -33zM610 107v-107h-528v740h517v-107h-379v-200h344v-107h-344v-219h390
z" />
    <glyph glyph-name="uni1EBD" unicode="&#x1ebd;" horiz-adv-x="569" 
d="M338 563q-19 0 -33 6t-25 13t-20.5 13t-19.5 6q-15 0 -20.5 -10t-7.5 -31h-72q1 59 27 91.5t70 32.5q19 0 33 -5.5t24.5 -12.5t19.5 -12.5t20 -5.5q16 0 21.5 9t7.5 30h72q-1 -58 -27.5 -91t-69.5 -33zM532 236h-366q4 -69 35 -107.5t85 -38.5q47 0 77.5 23.5t40.5 65.5
h128q-14 -90 -78.5 -139.5t-167.5 -49.5q-118 0 -183 68.5t-65 192.5q0 125 65 193t183 68q116 0 181 -68t65 -193v-15zM286 413q-51 0 -81.5 -34.5t-37.5 -97.5h236q-6 63 -36.5 97.5t-80.5 34.5z" />
    <glyph glyph-name="uni1EBE" unicode="&#x1ebe;" horiz-adv-x="649" 
d="M475 866l55 125h110l-75 -125h-90zM610 107v-107h-528v740h517v-107h-379v-200h344v-107h-344v-219h390zM342 896h-4l-50 -104h-92l63 125h162l63 -125h-92z" />
    <glyph glyph-name="uni1EBF" unicode="&#x1ebf;" horiz-adv-x="569" 
d="M422 624l55 125h110l-75 -125h-90zM532 236h-366q4 -69 35 -107.5t85 -38.5q47 0 77.5 23.5t40.5 65.5h128q-14 -90 -78.5 -139.5t-167.5 -49.5q-118 0 -183 68.5t-65 192.5q0 125 65 193t183 68q116 0 181 -68t65 -193v-15zM286 413q-51 0 -81.5 -34.5t-37.5 -97.5h236
q-6 63 -36.5 97.5t-80.5 34.5zM289 654h-4l-50 -104h-92l63 125h162l63 -125h-92z" />
    <glyph glyph-name="uni1EC0" unicode="&#x1ec0;" horiz-adv-x="649" 
d="M491 866l-75 125h110l55 -125h-90zM610 107v-107h-528v740h517v-107h-379v-200h344v-107h-344v-219h390zM342 896h-4l-50 -104h-92l63 125h162l63 -125h-92z" />
    <glyph glyph-name="uni1EC1" unicode="&#x1ec1;" horiz-adv-x="569" 
d="M438 624l-75 125h110l55 -125h-90zM532 236h-366q4 -69 35 -107.5t85 -38.5q47 0 77.5 23.5t40.5 65.5h128q-14 -90 -78.5 -139.5t-167.5 -49.5q-118 0 -183 68.5t-65 192.5q0 125 65 193t183 68q116 0 181 -68t65 -193v-15zM286 413q-51 0 -81.5 -34.5t-37.5 -97.5h236
q-6 63 -36.5 97.5t-80.5 34.5zM289 654h-4l-50 -104h-92l63 125h162l63 -125h-92z" />
    <glyph glyph-name="uni1EC2" unicode="&#x1ec2;" horiz-adv-x="649" 
d="M423 953q0 46 26.5 71t72.5 25q48 0 73.5 -20.5t25.5 -60.5q0 -31 -17.5 -57t-49.5 -45h-82q35 21 54 47.5t19 44.5q0 16 -6.5 21.5t-17.5 5.5q-9 0 -18 -6t-9 -26h-71zM610 107v-107h-528v740h517v-107h-379v-200h344v-107h-344v-219h390zM342 896h-4l-50 -104h-92
l63 125h162l63 -125h-92z" />
    <glyph glyph-name="uni1EC3" unicode="&#x1ec3;" horiz-adv-x="569" 
d="M370 711q0 46 26.5 71t72.5 25q48 0 73.5 -20.5t25.5 -60.5q0 -31 -17.5 -57t-49.5 -45h-82q35 21 54 47.5t19 44.5q0 16 -6.5 21.5t-17.5 5.5q-9 0 -18 -6t-9 -26h-71zM532 236h-366q4 -69 35 -107.5t85 -38.5q47 0 77.5 23.5t40.5 65.5h128q-14 -90 -78.5 -139.5
t-167.5 -49.5q-118 0 -183 68.5t-65 192.5q0 125 65 193t183 68q116 0 181 -68t65 -193v-15zM286 413q-51 0 -81.5 -34.5t-37.5 -97.5h236q-6 63 -36.5 97.5t-80.5 34.5zM289 654h-4l-50 -104h-92l63 125h162l63 -125h-92z" />
    <glyph glyph-name="uni1EC4" unicode="&#x1ec4;" horiz-adv-x="649" 
d="M391 956q-19 0 -33 6t-25 13t-20.5 13t-19.5 6q-15 0 -20.5 -10t-7.5 -31h-72q1 59 27 91.5t70 32.5q19 0 33 -5.5t24.5 -12.5t19.5 -12.5t20 -5.5q16 0 21.5 9t7.5 30h72q-1 -58 -27.5 -91t-69.5 -33zM610 107v-107h-528v740h517v-107h-379v-200h344v-107h-344v-219h390
zM342 896h-4l-50 -104h-92l63 125h162l63 -125h-92z" />
    <glyph glyph-name="uni1EC5" unicode="&#x1ec5;" horiz-adv-x="569" 
d="M338 714q-19 0 -33 6t-25 13t-20.5 13t-19.5 6q-15 0 -20.5 -10t-7.5 -31h-72q1 59 27 91.5t70 32.5q19 0 33 -5.5t24.5 -12.5t19.5 -12.5t20 -5.5q16 0 21.5 9t7.5 30h72q-1 -58 -27.5 -91t-69.5 -33zM532 236h-366q4 -69 35 -107.5t85 -38.5q47 0 77.5 23.5t40.5 65.5
h128q-14 -90 -78.5 -139.5t-167.5 -49.5q-118 0 -183 68.5t-65 192.5q0 125 65 193t183 68q116 0 181 -68t65 -193v-15zM286 413q-51 0 -81.5 -34.5t-37.5 -97.5h236q-6 63 -36.5 97.5t-80.5 34.5zM289 654h-4l-50 -104h-92l63 125h162l63 -125h-92z" />
    <glyph glyph-name="uni1EC6" unicode="&#x1ec6;" horiz-adv-x="649" 
d="M287 -72h124v-119h-124v119zM610 107v-107h-528v740h517v-107h-379v-200h344v-107h-344v-219h390zM342 896h-4l-50 -104h-92l63 125h162l63 -125h-92z" />
    <glyph glyph-name="uni1EC7" unicode="&#x1ec7;" horiz-adv-x="569" 
d="M229 -72h124v-119h-124v119zM532 236h-366q4 -69 35 -107.5t85 -38.5q47 0 77.5 23.5t40.5 65.5h128q-14 -90 -78.5 -139.5t-167.5 -49.5q-118 0 -183 68.5t-65 192.5q0 125 65 193t183 68q116 0 181 -68t65 -193v-15zM286 413q-51 0 -81.5 -34.5t-37.5 -97.5h236
q-6 63 -36.5 97.5t-80.5 34.5zM289 654h-4l-50 -104h-92l63 125h162l63 -125h-92z" />
    <glyph glyph-name="uni1EC8" unicode="&#x1ec8;" horiz-adv-x="303" 
d="M55 889q0 46 26.5 71t72.5 25q48 0 73.5 -20.5t25.5 -60.5q0 -31 -17.5 -57t-49.5 -45h-82q35 21 54 47.5t19 44.5q0 16 -6.5 21.5t-17.5 5.5q-9 0 -18 -6t-9 -26h-71zM82 740h138v-740h-138v740z" />
    <glyph glyph-name="uni1EC9" unicode="&#x1ec9;" horiz-adv-x="263" 
d="M37 647q0 46 26.5 71t72.5 25q48 0 73.5 -20.5t25.5 -60.5q0 -31 -17.5 -57t-49.5 -45h-82q35 21 54 47.5t19 44.5q0 16 -6.5 21.5t-17.5 5.5q-9 0 -18 -6t-9 -26h-71zM197 502v-502h-132v502h132z" />
    <glyph glyph-name="uni1ECA" unicode="&#x1eca;" horiz-adv-x="303" 
d="M89 -72h124v-119h-124v119zM82 740h138v-740h-138v740z" />
    <glyph glyph-name="uni1ECB" unicode="&#x1ecb;" horiz-adv-x="263" 
d="M69 -72h124v-119h-124v119zM65 713h132v-125h-132v125zM65 502h132v-502h-132v502z" />
    <glyph glyph-name="uni1ECC" unicode="&#x1ecc;" horiz-adv-x="772" 
d="M323 -72h124v-119h-124v119zM387 -10q-81 0 -145 26t-108 74.5t-67.5 119t-23.5 160.5t23.5 160.5t67.5 119t108 74.5t145 26q80 0 143.5 -26t107.5 -74.5t67.5 -119t23.5 -160.5t-23.5 -160.5t-67.5 -119t-107.5 -74.5t-143.5 -26zM387 100q94 0 146.5 71.5t52.5 198.5
t-52.5 198.5t-146.5 71.5q-96 0 -148.5 -71t-52.5 -199t52.5 -199t148.5 -71z" />
    <glyph glyph-name="uni1ECD" unicode="&#x1ecd;" horiz-adv-x="599" 
d="M235 -72h124v-119h-124v119zM300 -10q-124 0 -193 68.5t-69 192.5t69 192.5t193 68.5t192.5 -68.5t68.5 -192.5t-68.5 -192.5t-192.5 -68.5zM300 95q60 0 93.5 41t33.5 115t-33.5 115.5t-93.5 41.5t-93.5 -41.5t-33.5 -115.5t33.5 -115t93.5 -41z" />
    <glyph glyph-name="uni1ECE" unicode="&#x1ece;" horiz-adv-x="772" 
d="M297 889q0 46 26.5 71t72.5 25q48 0 73.5 -20.5t25.5 -60.5q0 -31 -17.5 -57t-49.5 -45h-82q35 21 54 47.5t19 44.5q0 16 -6.5 21.5t-17.5 5.5q-9 0 -18 -6t-9 -26h-71zM387 -10q-81 0 -145 26t-108 74.5t-67.5 119t-23.5 160.5t23.5 160.5t67.5 119t108 74.5t145 26
q80 0 143.5 -26t107.5 -74.5t67.5 -119t23.5 -160.5t-23.5 -160.5t-67.5 -119t-107.5 -74.5t-143.5 -26zM387 100q94 0 146.5 71.5t52.5 198.5t-52.5 198.5t-146.5 71.5q-96 0 -148.5 -71t-52.5 -199t52.5 -199t148.5 -71z" />
    <glyph glyph-name="uni1ECF" unicode="&#x1ecf;" horiz-adv-x="599" 
d="M213 647q0 46 26.5 71t72.5 25q48 0 73.5 -20.5t25.5 -60.5q0 -31 -17.5 -57t-49.5 -45h-82q35 21 54 47.5t19 44.5q0 16 -6.5 21.5t-17.5 5.5q-9 0 -18 -6t-9 -26h-71zM300 -10q-124 0 -193 68.5t-69 192.5t69 192.5t193 68.5t192.5 -68.5t68.5 -192.5t-68.5 -192.5
t-192.5 -68.5zM300 95q60 0 93.5 41t33.5 115t-33.5 115.5t-93.5 41.5t-93.5 -41.5t-33.5 -115.5t33.5 -115t93.5 -41z" />
    <glyph glyph-name="uni1ED0" unicode="&#x1ed0;" horiz-adv-x="772" 
d="M521 866l55 125h110l-75 -125h-90zM387 750q80 0 143.5 -26t107.5 -74.5t67.5 -119t23.5 -160.5t-23.5 -160.5t-67.5 -119t-107.5 -74.5t-143.5 -26q-81 0 -145 26t-108 74.5t-67.5 119t-23.5 160.5t23.5 160.5t67.5 119t108 74.5t145 26zM387 100q94 0 146.5 71.5
t52.5 198.5t-52.5 198.5t-146.5 71.5q-96 0 -148.5 -71t-52.5 -199t52.5 -199t148.5 -71zM388 896h-4l-50 -104h-92l63 125h162l63 -125h-92z" />
    <glyph glyph-name="uni1ED1" unicode="&#x1ed1;" horiz-adv-x="599" 
d="M434 624l55 125h110l-75 -125h-90zM300 512q124 0 192.5 -68.5t68.5 -192.5t-68.5 -192.5t-192.5 -68.5t-193 68.5t-69 192.5t69 192.5t193 68.5zM300 95q60 0 93.5 41t33.5 115t-33.5 115.5t-93.5 41.5t-93.5 -41.5t-33.5 -115.5t33.5 -115t93.5 -41zM301 654h-4
l-50 -104h-92l63 125h162l63 -125h-92z" />
    <glyph glyph-name="uni1ED2" unicode="&#x1ed2;" horiz-adv-x="772" 
d="M537 866l-75 125h110l55 -125h-90zM387 750q80 0 143.5 -26t107.5 -74.5t67.5 -119t23.5 -160.5t-23.5 -160.5t-67.5 -119t-107.5 -74.5t-143.5 -26q-81 0 -145 26t-108 74.5t-67.5 119t-23.5 160.5t23.5 160.5t67.5 119t108 74.5t145 26zM387 100q94 0 146.5 71.5
t52.5 198.5t-52.5 198.5t-146.5 71.5q-96 0 -148.5 -71t-52.5 -199t52.5 -199t148.5 -71zM388 896h-4l-50 -104h-92l63 125h162l63 -125h-92z" />
    <glyph glyph-name="uni1ED3" unicode="&#x1ed3;" horiz-adv-x="599" 
d="M450 624l-75 125h110l55 -125h-90zM300 512q124 0 192.5 -68.5t68.5 -192.5t-68.5 -192.5t-192.5 -68.5t-193 68.5t-69 192.5t69 192.5t193 68.5zM300 95q60 0 93.5 41t33.5 115t-33.5 115.5t-93.5 41.5t-93.5 -41.5t-33.5 -115.5t33.5 -115t93.5 -41zM301 654h-4
l-50 -104h-92l63 125h162l63 -125h-92z" />
    <glyph glyph-name="uni1ED4" unicode="&#x1ed4;" horiz-adv-x="772" 
d="M469 953q0 46 26.5 71t72.5 25q48 0 73.5 -20.5t25.5 -60.5q0 -31 -17.5 -57t-49.5 -45h-82q35 21 54 47.5t19 44.5q0 16 -6.5 21.5t-17.5 5.5q-9 0 -18 -6t-9 -26h-71zM387 750q80 0 143.5 -26t107.5 -74.5t67.5 -119t23.5 -160.5t-23.5 -160.5t-67.5 -119t-107.5 -74.5
t-143.5 -26q-81 0 -145 26t-108 74.5t-67.5 119t-23.5 160.5t23.5 160.5t67.5 119t108 74.5t145 26zM387 100q94 0 146.5 71.5t52.5 198.5t-52.5 198.5t-146.5 71.5q-96 0 -148.5 -71t-52.5 -199t52.5 -199t148.5 -71zM388 896h-4l-50 -104h-92l63 125h162l63 -125h-92z" />
    <glyph glyph-name="uni1ED5" unicode="&#x1ed5;" horiz-adv-x="599" 
d="M382 711q0 46 26.5 71t72.5 25q48 0 73.5 -20.5t25.5 -60.5q0 -31 -17.5 -57t-49.5 -45h-82q35 21 54 47.5t19 44.5q0 16 -6.5 21.5t-17.5 5.5q-9 0 -18 -6t-9 -26h-71zM300 512q124 0 192.5 -68.5t68.5 -192.5t-68.5 -192.5t-192.5 -68.5t-193 68.5t-69 192.5t69 192.5
t193 68.5zM300 95q60 0 93.5 41t33.5 115t-33.5 115.5t-93.5 41.5t-93.5 -41.5t-33.5 -115.5t33.5 -115t93.5 -41zM301 654h-4l-50 -104h-92l63 125h162l63 -125h-92z" />
    <glyph glyph-name="uni1ED6" unicode="&#x1ed6;" horiz-adv-x="772" 
d="M437 956q-19 0 -33 6t-25 13t-20.5 13t-19.5 6q-15 0 -20.5 -10t-7.5 -31h-72q1 59 27 91.5t70 32.5q19 0 33 -5.5t24.5 -12.5t19.5 -12.5t20 -5.5q16 0 21.5 9t7.5 30h72q-1 -58 -27.5 -91t-69.5 -33zM387 750q80 0 143.5 -26t107.5 -74.5t67.5 -119t23.5 -160.5
t-23.5 -160.5t-67.5 -119t-107.5 -74.5t-143.5 -26q-81 0 -145 26t-108 74.5t-67.5 119t-23.5 160.5t23.5 160.5t67.5 119t108 74.5t145 26zM387 100q94 0 146.5 71.5t52.5 198.5t-52.5 198.5t-146.5 71.5q-96 0 -148.5 -71t-52.5 -199t52.5 -199t148.5 -71zM388 896h-4
l-50 -104h-92l63 125h162l63 -125h-92z" />
    <glyph glyph-name="uni1ED7" unicode="&#x1ed7;" horiz-adv-x="599" 
d="M350 714q-19 0 -33 6t-25 13t-20.5 13t-19.5 6q-15 0 -20.5 -10t-7.5 -31h-72q1 59 27 91.5t70 32.5q19 0 33 -5.5t24.5 -12.5t19.5 -12.5t20 -5.5q16 0 21.5 9t7.5 30h72q-1 -58 -27.5 -91t-69.5 -33zM300 512q124 0 192.5 -68.5t68.5 -192.5t-68.5 -192.5t-192.5 -68.5
t-193 68.5t-69 192.5t69 192.5t193 68.5zM300 95q60 0 93.5 41t33.5 115t-33.5 115.5t-93.5 41.5t-93.5 -41.5t-33.5 -115.5t33.5 -115t93.5 -41zM301 654h-4l-50 -104h-92l63 125h162l63 -125h-92z" />
    <glyph glyph-name="uni1ED8" unicode="&#x1ed8;" horiz-adv-x="772" 
d="M323 -72h124v-119h-124v119zM387 750q80 0 143.5 -26t107.5 -74.5t67.5 -119t23.5 -160.5t-23.5 -160.5t-67.5 -119t-107.5 -74.5t-143.5 -26q-81 0 -145 26t-108 74.5t-67.5 119t-23.5 160.5t23.5 160.5t67.5 119t108 74.5t145 26zM387 100q94 0 146.5 71.5t52.5 198.5
t-52.5 198.5t-146.5 71.5q-96 0 -148.5 -71t-52.5 -199t52.5 -199t148.5 -71zM388 896h-4l-50 -104h-92l63 125h162l63 -125h-92z" />
    <glyph glyph-name="uni1ED9" unicode="&#x1ed9;" horiz-adv-x="599" 
d="M235 -72h124v-119h-124v119zM300 512q124 0 192.5 -68.5t68.5 -192.5t-68.5 -192.5t-192.5 -68.5t-193 68.5t-69 192.5t69 192.5t193 68.5zM300 95q60 0 93.5 41t33.5 115t-33.5 115.5t-93.5 41.5t-93.5 -41.5t-33.5 -115.5t33.5 -115t93.5 -41zM301 654h-4l-50 -104h-92
l63 125h162l63 -125h-92z" />
    <glyph glyph-name="uni1EDA" unicode="&#x1eda;" horiz-adv-x="772" 
d="M321 802l55 125h116l-75 -125h-96zM387 -10q-81 0 -145 26t-108 74.5t-67.5 119t-23.5 160.5t23.5 160.5t67.5 119t108 74.5t145 26q62 0 118 -17q20 5 33.5 26.5t13.5 72.5h107q0 -48 -27 -80.5t-74 -40.5q82 -43 126.5 -129.5t44.5 -211.5q0 -90 -23.5 -160.5
t-67.5 -119t-107.5 -74.5t-143.5 -26zM387 100q94 0 146.5 71.5t52.5 198.5t-52.5 198.5t-146.5 71.5q-96 0 -148.5 -71t-52.5 -199t52.5 -199t148.5 -71z" />
    <glyph glyph-name="uni1EDB" unicode="&#x1edb;" horiz-adv-x="599" 
d="M238 560l55 125h116l-75 -125h-96zM300 -10q-124 0 -193 68.5t-69 192.5t69 192.5t193 68.5q58 0 106 -17q19 6 32.5 27.5t13.5 71.5h107q0 -48 -28.5 -81.5t-76.5 -40.5q52 -32 79.5 -88t27.5 -133q0 -124 -68.5 -192.5t-192.5 -68.5zM300 95q60 0 93.5 41t33.5 115
t-33.5 115.5t-93.5 41.5t-93.5 -41.5t-33.5 -115.5t33.5 -115t93.5 -41z" />
    <glyph glyph-name="uni1EDC" unicode="&#x1edc;" horiz-adv-x="772" 
d="M351 802l-75 125h116l55 -125h-96zM387 -10q-81 0 -145 26t-108 74.5t-67.5 119t-23.5 160.5t23.5 160.5t67.5 119t108 74.5t145 26q62 0 118 -17q20 5 33.5 26.5t13.5 72.5h107q0 -48 -27 -80.5t-74 -40.5q82 -43 126.5 -129.5t44.5 -211.5q0 -90 -23.5 -160.5
t-67.5 -119t-107.5 -74.5t-143.5 -26zM387 100q94 0 146.5 71.5t52.5 198.5t-52.5 198.5t-146.5 71.5q-96 0 -148.5 -71t-52.5 -199t52.5 -199t148.5 -71z" />
    <glyph glyph-name="uni1EDD" unicode="&#x1edd;" horiz-adv-x="599" 
d="M267 560l-75 125h116l55 -125h-96zM300 -10q-124 0 -193 68.5t-69 192.5t69 192.5t193 68.5q58 0 106 -17q19 6 32.5 27.5t13.5 71.5h107q0 -48 -28.5 -81.5t-76.5 -40.5q52 -32 79.5 -88t27.5 -133q0 -124 -68.5 -192.5t-192.5 -68.5zM300 95q60 0 93.5 41t33.5 115
t-33.5 115.5t-93.5 41.5t-93.5 -41.5t-33.5 -115.5t33.5 -115t93.5 -41z" />
    <glyph glyph-name="uni1EDE" unicode="&#x1ede;" horiz-adv-x="772" 
d="M297 889q0 46 26.5 71t72.5 25q48 0 73.5 -20.5t25.5 -60.5q0 -31 -17.5 -57t-49.5 -45h-82q35 21 54 47.5t19 44.5q0 16 -6.5 21.5t-17.5 5.5q-9 0 -18 -6t-9 -26h-71zM387 -10q-81 0 -145 26t-108 74.5t-67.5 119t-23.5 160.5t23.5 160.5t67.5 119t108 74.5t145 26
q62 0 118 -17q20 5 33.5 26.5t13.5 72.5h107q0 -48 -27 -80.5t-74 -40.5q82 -43 126.5 -129.5t44.5 -211.5q0 -90 -23.5 -160.5t-67.5 -119t-107.5 -74.5t-143.5 -26zM387 100q94 0 146.5 71.5t52.5 198.5t-52.5 198.5t-146.5 71.5q-96 0 -148.5 -71t-52.5 -199t52.5 -199
t148.5 -71z" />
    <glyph glyph-name="uni1EDF" unicode="&#x1edf;" horiz-adv-x="599" 
d="M213 647q0 46 26.5 71t72.5 25q48 0 73.5 -20.5t25.5 -60.5q0 -31 -17.5 -57t-49.5 -45h-82q35 21 54 47.5t19 44.5q0 16 -6.5 21.5t-17.5 5.5q-9 0 -18 -6t-9 -26h-71zM300 -10q-124 0 -193 68.5t-69 192.5t69 192.5t193 68.5q58 0 106 -17q19 6 32.5 27.5t13.5 71.5
h107q0 -48 -28.5 -81.5t-76.5 -40.5q52 -32 79.5 -88t27.5 -133q0 -124 -68.5 -192.5t-192.5 -68.5zM300 95q60 0 93.5 41t33.5 115t-33.5 115.5t-93.5 41.5t-93.5 -41.5t-33.5 -115.5t33.5 -115t93.5 -41z" />
    <glyph glyph-name="uni1EE0" unicode="&#x1ee0;" horiz-adv-x="772" 
d="M438 805q-19 0 -33 6t-25 13t-20.5 13t-19.5 6q-15 0 -20.5 -10t-7.5 -31h-72q1 59 27 91.5t70 32.5q19 0 33 -5.5t24.5 -12.5t19.5 -12.5t20 -5.5q16 0 21.5 9t7.5 30h72q-1 -58 -27.5 -91t-69.5 -33zM387 -10q-81 0 -145 26t-108 74.5t-67.5 119t-23.5 160.5
t23.5 160.5t67.5 119t108 74.5t145 26q62 0 118 -17q20 5 33.5 26.5t13.5 72.5h107q0 -48 -27 -80.5t-74 -40.5q82 -43 126.5 -129.5t44.5 -211.5q0 -90 -23.5 -160.5t-67.5 -119t-107.5 -74.5t-143.5 -26zM387 100q94 0 146.5 71.5t52.5 198.5t-52.5 198.5t-146.5 71.5
q-96 0 -148.5 -71t-52.5 -199t52.5 -199t148.5 -71z" />
    <glyph glyph-name="uni1EE1" unicode="&#x1ee1;" horiz-adv-x="599" 
d="M344 573q-19 0 -33 6t-25 13t-20.5 13t-19.5 6q-15 0 -20.5 -10t-7.5 -31h-72q1 59 27 91.5t70 32.5q19 0 33 -5.5t24.5 -12.5t19.5 -12.5t20 -5.5q16 0 21.5 9t7.5 30h72q-1 -58 -27.5 -91t-69.5 -33zM300 -10q-124 0 -193 68.5t-69 192.5t69 192.5t193 68.5
q58 0 106 -17q19 6 32.5 27.5t13.5 71.5h107q0 -48 -28.5 -81.5t-76.5 -40.5q52 -32 79.5 -88t27.5 -133q0 -124 -68.5 -192.5t-192.5 -68.5zM300 95q60 0 93.5 41t33.5 115t-33.5 115.5t-93.5 41.5t-93.5 -41.5t-33.5 -115.5t33.5 -115t93.5 -41z" />
    <glyph glyph-name="uni1EE2" unicode="&#x1ee2;" horiz-adv-x="772" 
d="M323 -72h124v-119h-124v119zM387 -10q-81 0 -145 26t-108 74.5t-67.5 119t-23.5 160.5t23.5 160.5t67.5 119t108 74.5t145 26q62 0 118 -17q20 5 33.5 26.5t13.5 72.5h107q0 -48 -27 -80.5t-74 -40.5q82 -43 126.5 -129.5t44.5 -211.5q0 -90 -23.5 -160.5t-67.5 -119
t-107.5 -74.5t-143.5 -26zM387 100q94 0 146.5 71.5t52.5 198.5t-52.5 198.5t-146.5 71.5q-96 0 -148.5 -71t-52.5 -199t52.5 -199t148.5 -71z" />
    <glyph glyph-name="uni1EE3" unicode="&#x1ee3;" horiz-adv-x="599" 
d="M235 -72h124v-119h-124v119zM300 -10q-124 0 -193 68.5t-69 192.5t69 192.5t193 68.5q58 0 106 -17q19 6 32.5 27.5t13.5 71.5h107q0 -48 -28.5 -81.5t-76.5 -40.5q52 -32 79.5 -88t27.5 -133q0 -124 -68.5 -192.5t-192.5 -68.5zM300 95q60 0 93.5 41t33.5 115
t-33.5 115.5t-93.5 41.5t-93.5 -41.5t-33.5 -115.5t33.5 -115t93.5 -41z" />
    <glyph glyph-name="uni1EE4" unicode="&#x1ee4;" horiz-adv-x="732" 
d="M302 -72h124v-119h-124v119zM526 740h130v-479q0 -128 -76.5 -199.5t-213.5 -71.5t-213.5 71.5t-76.5 199.5v479h138v-486q0 -73 40.5 -113.5t114.5 -40.5q75 0 116 40.5t41 113.5v486z" />
    <glyph glyph-name="uni1EE5" unicode="&#x1ee5;" horiz-adv-x="588" 
d="M232 -72h124v-119h-124v119zM523 502v-502h-132v177h-2q0 -88 -41 -137.5t-116 -49.5q-81 0 -126.5 54.5t-45.5 151.5v306h132v-300q0 -51 24.5 -79t69.5 -28q50 0 77.5 35.5t27.5 100.5v271h132z" />
    <glyph glyph-name="uni1EE6" unicode="&#x1ee6;" horiz-adv-x="732" 
d="M276 889q0 46 26.5 71t72.5 25q48 0 73.5 -20.5t25.5 -60.5q0 -31 -17.5 -57t-49.5 -45h-82q35 21 54 47.5t19 44.5q0 16 -6.5 21.5t-17.5 5.5q-9 0 -18 -6t-9 -26h-71zM526 740h130v-479q0 -128 -76.5 -199.5t-213.5 -71.5t-213.5 71.5t-76.5 199.5v479h138v-486
q0 -73 40.5 -113.5t114.5 -40.5q75 0 116 40.5t41 113.5v486z" />
    <glyph glyph-name="uni1EE7" unicode="&#x1ee7;" horiz-adv-x="588" 
d="M193 647q0 46 26.5 71t72.5 25q48 0 73.5 -20.5t25.5 -60.5q0 -31 -17.5 -57t-49.5 -45h-82q35 21 54 47.5t19 44.5q0 16 -6.5 21.5t-17.5 5.5q-9 0 -18 -6t-9 -26h-71zM523 502v-502h-132v177h-2q0 -88 -41 -137.5t-116 -49.5q-81 0 -126.5 54.5t-45.5 151.5v306h132
v-300q0 -51 24.5 -79t69.5 -28q50 0 77.5 35.5t27.5 100.5v271h132z" />
    <glyph glyph-name="uni1EE8" unicode="&#x1ee8;" horiz-adv-x="732" 
d="M312 802l55 125h116l-75 -125h-96zM526 740h23q13 1 25 5t21 15t14.5 30.5t5.5 51.5h107q0 -38 -17.5 -67t-48.5 -44v-470q0 -128 -76.5 -199.5t-213.5 -71.5t-213.5 71.5t-76.5 199.5v479h138v-486q0 -73 40.5 -113.5t114.5 -40.5q75 0 116 40.5t41 113.5v486z" />
    <glyph glyph-name="uni1EE9" unicode="&#x1ee9;" horiz-adv-x="588" 
d="M236 560l55 125h116l-75 -125h-96zM408 502q14 0 27 3.5t23.5 14t17 30.5t6.5 54h107q0 -38 -17.5 -67t-48.5 -44v-493h-132v177h-2q0 -88 -41 -137.5t-116 -49.5q-81 0 -126.5 54.5t-45.5 151.5v306h132v-300q0 -51 24.5 -79t69.5 -28q50 0 77.5 35.5t27.5 100.5v271h17
z" />
    <glyph glyph-name="uni1EEA" unicode="&#x1eea;" horiz-adv-x="732" 
d="M340 802l-75 125h116l55 -125h-96zM526 740h23q13 1 25 5t21 15t14.5 30.5t5.5 51.5h107q0 -38 -17.5 -67t-48.5 -44v-470q0 -128 -76.5 -199.5t-213.5 -71.5t-213.5 71.5t-76.5 199.5v479h138v-486q0 -73 40.5 -113.5t114.5 -40.5q75 0 116 40.5t41 113.5v486z" />
    <glyph glyph-name="uni1EEB" unicode="&#x1eeb;" horiz-adv-x="588" 
d="M258 560l-75 125h116l55 -125h-96zM408 502q14 0 27 3.5t23.5 14t17 30.5t6.5 54h107q0 -38 -17.5 -67t-48.5 -44v-493h-132v177h-2q0 -88 -41 -137.5t-116 -49.5q-81 0 -126.5 54.5t-45.5 151.5v306h132v-300q0 -51 24.5 -79t69.5 -28q50 0 77.5 35.5t27.5 100.5v271h17
z" />
    <glyph glyph-name="uni1EEC" unicode="&#x1eec;" horiz-adv-x="732" 
d="M276 889q0 46 26.5 71t72.5 25q48 0 73.5 -20.5t25.5 -60.5q0 -31 -17.5 -57t-49.5 -45h-82q35 21 54 47.5t19 44.5q0 16 -6.5 21.5t-17.5 5.5q-9 0 -18 -6t-9 -26h-71zM526 740h23q13 1 25 5t21 15t14.5 30.5t5.5 51.5h107q0 -38 -17.5 -67t-48.5 -44v-470
q0 -128 -76.5 -199.5t-213.5 -71.5t-213.5 71.5t-76.5 199.5v479h138v-486q0 -73 40.5 -113.5t114.5 -40.5q75 0 116 40.5t41 113.5v486z" />
    <glyph glyph-name="uni1EED" unicode="&#x1eed;" horiz-adv-x="588" 
d="M193 647q0 46 26.5 71t72.5 25q48 0 73.5 -20.5t25.5 -60.5q0 -31 -17.5 -57t-49.5 -45h-82q35 21 54 47.5t19 44.5q0 16 -6.5 21.5t-17.5 5.5q-9 0 -18 -6t-9 -26h-71zM408 502q14 0 27 3.5t23.5 14t17 30.5t6.5 54h107q0 -38 -17.5 -67t-48.5 -44v-493h-132v177h-2
q0 -88 -41 -137.5t-116 -49.5q-81 0 -126.5 54.5t-45.5 151.5v306h132v-300q0 -51 24.5 -79t69.5 -28q50 0 77.5 35.5t27.5 100.5v271h17z" />
    <glyph glyph-name="uni1EEE" unicode="&#x1eee;" horiz-adv-x="732" 
d="M422 805q-19 0 -33 6t-25 13t-20.5 13t-19.5 6q-15 0 -20.5 -10t-7.5 -31h-72q1 59 27 91.5t70 32.5q19 0 33 -5.5t24.5 -12.5t19.5 -12.5t20 -5.5q16 0 21.5 9t7.5 30h72q-1 -58 -27.5 -91t-69.5 -33zM526 740h23q13 1 25 5t21 15t14.5 30.5t5.5 51.5h107
q0 -38 -17.5 -67t-48.5 -44v-470q0 -128 -76.5 -199.5t-213.5 -71.5t-213.5 71.5t-76.5 199.5v479h138v-486q0 -73 40.5 -113.5t114.5 -40.5q75 0 116 40.5t41 113.5v486z" />
    <glyph glyph-name="uni1EEF" unicode="&#x1eef;" horiz-adv-x="588" 
d="M349 563q-19 0 -33 6t-25 13t-20.5 13t-19.5 6q-15 0 -20.5 -10t-7.5 -31h-72q1 59 27 91.5t70 32.5q19 0 33 -5.5t24.5 -12.5t19.5 -12.5t20 -5.5q16 0 21.5 9t7.5 30h72q-1 -58 -27.5 -91t-69.5 -33zM408 502q14 0 27 3.5t23.5 14t17 30.5t6.5 54h107q0 -38 -17.5 -67
t-48.5 -44v-493h-132v177h-2q0 -88 -41 -137.5t-116 -49.5q-81 0 -126.5 54.5t-45.5 151.5v306h132v-300q0 -51 24.5 -79t69.5 -28q50 0 77.5 35.5t27.5 100.5v271h17z" />
    <glyph glyph-name="uni1EF0" unicode="&#x1ef0;" horiz-adv-x="732" 
d="M302 -72h124v-119h-124v119zM526 740h23q13 1 25 5t21 15t14.5 30.5t5.5 51.5h107q0 -38 -17.5 -67t-48.5 -44v-470q0 -128 -76.5 -199.5t-213.5 -71.5t-213.5 71.5t-76.5 199.5v479h138v-486q0 -73 40.5 -113.5t114.5 -40.5q75 0 116 40.5t41 113.5v486z" />
    <glyph glyph-name="uni1EF1" unicode="&#x1ef1;" horiz-adv-x="588" 
d="M232 -72h124v-119h-124v119zM408 502q14 0 27 3.5t23.5 14t17 30.5t6.5 54h107q0 -38 -17.5 -67t-48.5 -44v-493h-132v177h-2q0 -88 -41 -137.5t-116 -49.5q-81 0 -126.5 54.5t-45.5 151.5v306h132v-300q0 -51 24.5 -79t69.5 -28q50 0 77.5 35.5t27.5 100.5v271h17z" />
    <glyph glyph-name="Ygrave" unicode="&#x1ef2;" horiz-adv-x="703" 
d="M711 740l-350 -740h-149l136 294h-129l-210 446h159l196 -434h2l195 434h150zM339 802l-75 125h116l55 -125h-96z" />
    <glyph glyph-name="ygrave" unicode="&#x1ef3;" horiz-adv-x="554" 
d="M534 502l-192 -732h-141l61 230h-109l-131 502h141l114 -493h2l114 493h141zM247 560l-75 125h116l55 -125h-96z" />
    <glyph glyph-name="uni1EF4" unicode="&#x1ef4;" horiz-adv-x="703" 
d="M222 -72h124v-119h-124v119zM711 740l-350 -740h-149l136 294h-129l-210 446h159l196 -434h2l195 434h150z" />
    <glyph glyph-name="uni1EF5" unicode="&#x1ef5;" horiz-adv-x="554" 
d="M442 -72h124v-119h-124v119zM534 502l-192 -732h-141l61 230h-109l-131 502h141l114 -493h2l114 493h141z" />
    <glyph glyph-name="uni1EF6" unicode="&#x1ef6;" horiz-adv-x="703" 
d="M277 889q0 46 26.5 71t72.5 25q48 0 73.5 -20.5t25.5 -60.5q0 -31 -17.5 -57t-49.5 -45h-82q35 21 54 47.5t19 44.5q0 16 -6.5 21.5t-17.5 5.5q-9 0 -18 -6t-9 -26h-71zM711 740l-350 -740h-149l136 294h-129l-210 446h159l196 -434h2l195 434h150z" />
    <glyph glyph-name="uni1EF7" unicode="&#x1ef7;" horiz-adv-x="554" 
d="M179 647q0 46 26.5 71t72.5 25q48 0 73.5 -20.5t25.5 -60.5q0 -31 -17.5 -57t-49.5 -45h-82q35 21 54 47.5t19 44.5q0 16 -6.5 21.5t-17.5 5.5q-9 0 -18 -6t-9 -26h-71zM534 502l-192 -732h-141l61 230h-109l-131 502h141l114 -493h2l114 493h141z" />
    <glyph glyph-name="uni1EF8" unicode="&#x1ef8;" horiz-adv-x="703" 
d="M416 805q-19 0 -33 6t-25 13t-20.5 13t-19.5 6q-15 0 -20.5 -10t-7.5 -31h-72q1 59 27 91.5t70 32.5q19 0 33 -5.5t24.5 -12.5t19.5 -12.5t20 -5.5q16 0 21.5 9t7.5 30h72q-1 -58 -27.5 -91t-69.5 -33zM711 740l-350 -740h-149l136 294h-129l-210 446h159l196 -434h2
l195 434h150z" />
    <glyph glyph-name="uni1EF9" unicode="&#x1ef9;" horiz-adv-x="554" 
d="M330 563q-19 0 -33 6t-25 13t-20.5 13t-19.5 6q-15 0 -20.5 -10t-7.5 -31h-72q1 59 27 91.5t70 32.5q19 0 33 -5.5t24.5 -12.5t19.5 -12.5t20 -5.5q16 0 21.5 9t7.5 30h72q-1 -58 -27.5 -91t-69.5 -33zM534 502l-192 -732h-141l61 230h-109l-131 502h141l114 -493h2
l114 493h141z" />
    <glyph glyph-name="uni1EFA" unicode="&#x1efa;" horiz-adv-x="0" 
d="M408 502q14 0 27 3.5t23.5 14t17 30.5t6.5 54h107q0 -28 -10 -52t-28.5 -40.5t-44.5 -24.5t-58 -5z" />
    <glyph glyph-name="endash" unicode="&#x2013;" horiz-adv-x="602" 
d="M543 277v-44h-484v44h484z" />
    <glyph glyph-name="emdash" unicode="&#x2014;" horiz-adv-x="887" 
d="M828 277v-44h-769v44h769z" />
    <glyph glyph-name="quoteleft" unicode="&#x2018;" horiz-adv-x="252" 
d="M198 671q-58 -6 -94 -30.5t-47 -62.5h141v-141h-148v117q0 78 39 127.5t109 60.5v-71v0z" />
    <glyph glyph-name="quoteright" unicode="&#x2019;" horiz-adv-x="246" 
d="M204 740v-117q0 -78 -39 -127.5t-109 -60.5v71q58 6 94 30.5t47 62.5h-141v141h148z" />
    <glyph glyph-name="quotesinglbase" unicode="&#x201a;" horiz-adv-x="259" 
d="M206 141v-117q0 -78 -39 -127.5t-109 -60.5v71q58 6 94 30.5t47 62.5h-141v141h148z" />
    <glyph glyph-name="quotedblleft" unicode="&#x201c;" horiz-adv-x="451" 
d="M49 554q0 78 39 127.5t109 60.5v-71q-58 -6 -94 -30.5t-47 -62.5h141v-141h-148v117zM396 671q-58 -6 -94 -30.5t-47 -62.5h141v-141h-148v117q0 78 39 127.5t109 60.5v-71z" />
    <glyph glyph-name="quotedblright" unicode="&#x201d;" horiz-adv-x="445" 
d="M56 740h148v-117q0 -78 -39 -127.5t-109 -60.5v71q58 6 94 30.5t47 62.5h-141v141zM403 740v-117q0 -78 -39 -127.5t-109 -60.5v71q58 6 94 30.5t47 62.5h-141v141h148z" />
    <glyph glyph-name="quotedblbase" unicode="&#x201e;" horiz-adv-x="458" 
d="M58 141h148v-117q0 -78 -39 -127.5t-109 -60.5v71q58 6 94 30.5t47 62.5h-141v141zM405 141v-117q0 -78 -39 -127.5t-109 -60.5v71q58 6 94 30.5t47 62.5h-141v141h148z" />
    <glyph glyph-name="dagger" unicode="&#x2020;" horiz-adv-x="383" 
d="M339 654v-62h-114v-264h-70v173q0 36 17 59t49 30v2h-177v62h114v116h70v-116h111z" />
    <glyph glyph-name="daggerdbl" unicode="&#x2021;" horiz-adv-x="383" 
d="M225 592v-85h114v-63h-114v-115h-70v25q0 36 17 59t49 29v2h-177v63h111q2 34 19 55t47 28v2h-177v62h114v116h70v-116h111v-62h-114z" />
    <glyph glyph-name="bullet" unicode="&#x2022;" horiz-adv-x="381" 
d="M80 398h221v-205h-221v205z" />
    <glyph glyph-name="ellipsis" unicode="&#x2026;" horiz-adv-x="702" 
d="M204 141v-141h-147v141h147zM425 141v-141h-147v141h147zM645 141v-141h-147v141h147z" />
    <glyph glyph-name="perthousand" unicode="&#x2030;" horiz-adv-x="1093" 
d="M600 750l36 -26l-491 -734l-36 26zM187 360q-72 0 -112.5 48.5t-40.5 136.5t40.5 136.5t112.5 48.5t112.5 -48.5t40.5 -136.5t-40.5 -136.5t-112.5 -48.5zM187 437q26 0 40.5 28.5t14.5 79.5t-14.5 79.5t-40.5 28.5t-40.5 -28.5t-14.5 -79.5t14.5 -79.5t40.5 -28.5z
M556 -10q-72 0 -112 48.5t-40 136.5t40 136.5t112 48.5q73 0 113.5 -48.5t40.5 -136.5t-40.5 -136.5t-113.5 -48.5zM911 -10q-72 0 -112 48.5t-40 136.5t40 136.5t112 48.5q73 0 113.5 -48.5t40.5 -136.5t-40.5 -136.5t-113.5 -48.5zM556 67q26 0 40.5 28.5t14.5 79.5
t-14.5 79.5t-40.5 28.5t-40.5 -28.5t-14.5 -79.5t14.5 -79.5t40.5 -28.5zM912 67q25 0 39.5 28.5t14.5 79.5t-14.5 79.5t-39.5 28.5q-26 0 -40.5 -28.5t-14.5 -79.5t14.5 -79.5t40.5 -28.5z" />
    <glyph glyph-name="guilsinglleft" unicode="&#x2039;" horiz-adv-x="262" 
d="M164 443h53l-126 -193l126 -193h-53l-128 193z" />
    <glyph glyph-name="guilsinglright" unicode="&#x203a;" horiz-adv-x="262" 
d="M98 57h-53l126 193l-126 193h53l128 -193z" />
    <glyph glyph-name="fraction" unicode="&#x2044;" horiz-adv-x="223" 
d="M339 750l36 -26l-491 -734l-36 26z" />
    <glyph glyph-name="uni2070" unicode="&#x2070;" horiz-adv-x="408" 
d="M204 352q-83 0 -129.5 60t-46.5 168t46.5 168t129.5 60q84 0 130 -60t46 -168t-46 -168t-130 -60zM204 428q38 0 58 40t20 112t-20 112t-58 40q-37 0 -57.5 -40t-20.5 -112t20.5 -112t57.5 -40z" />
    <glyph glyph-name="uni2074" unicode="&#x2074;" horiz-adv-x="398" 
d="M379 457h-58v-99h-96v99h-208v78l127 267h177v-272h58v-73zM104 532v-2h124v264h-2z" />
    <glyph glyph-name="uni2075" unicode="&#x2075;" horiz-adv-x="382" 
d="M189 352q-71 0 -114.5 36t-51.5 99h94q5 -28 23.5 -43.5t47.5 -15.5q35 0 54.5 20t19.5 56t-19 56.5t-53 20.5q-26 0 -44 -13.5t-26 -36.5l-92 12l35 259h265v-73h-182l-27 -189h2q9 53 40.5 81.5t79.5 28.5q57 0 88.5 -37t31.5 -103q0 -75 -45.5 -116.5t-126.5 -41.5z
" />
    <glyph glyph-name="uni2076" unicode="&#x2076;" horiz-adv-x="403" 
d="M250 643q61 0 94.5 -34.5t33.5 -97.5q0 -75 -47 -117t-129 -42q-84 0 -129 57.5t-45 165.5q0 110 48 171.5t136 61.5q68 0 108.5 -35.5t47.5 -98.5h-93q-8 58 -63 58q-42 0 -65 -41t-23 -115v-44h2q0 52 32.5 81.5t91.5 29.5zM202 428q36 0 56.5 20t20.5 55
q0 33 -20.5 51t-56.5 18q-37 0 -57.5 -17.5t-20.5 -50.5q0 -35 21.5 -55.5t56.5 -20.5z" />
    <glyph glyph-name="uni2077" unicode="&#x2077;" horiz-adv-x="343" 
d="M331 802v-70q-32 -10 -57 -38t-42.5 -71.5t-26.5 -101t-9 -126.5v-37h-99v23q0 159 56 249.5t156 96.5v2h-298v73h320z" />
    <glyph glyph-name="uni2078" unicode="&#x2078;" horiz-adv-x="394" 
d="M229 623q66 -6 102.5 -40t36.5 -91q0 -66 -45 -103t-126 -37t-125.5 37t-44.5 103q0 57 36 90.5t102 40.5v2q-59 0 -91.5 22.5t-32.5 61.5q0 47 41 73t115 26t115 -26t41 -73q0 -39 -33 -61.5t-91 -22.5v-2zM139 676q0 -26 15.5 -41t42.5 -15t42.5 15t15.5 41t-15.5 41
t-42.5 15t-42.5 -15t-15.5 -41zM197 428q34 0 52.5 16.5t18.5 47.5q0 30 -18.5 47t-52.5 17t-53 -17t-19 -47q0 -31 19 -47.5t53 -16.5z" />
    <glyph glyph-name="uni2079" unicode="&#x2079;" horiz-adv-x="403" 
d="M201 808q85 0 129 -58t44 -165q0 -110 -48 -171.5t-136 -61.5q-68 0 -109 38.5t-47 107.5h93q4 -33 20.5 -51.5t42.5 -18.5q42 0 65 41t23 115v50h-2q0 -50 -33 -77.5t-91 -27.5q-61 0 -94.5 33t-33.5 93q0 72 47 112.5t130 40.5zM201 600q36 0 56.5 16t20.5 46
q0 33 -21 51.5t-56 18.5q-37 0 -57.5 -18t-20.5 -51q0 -30 20.5 -46.5t57.5 -16.5z" />
    <glyph glyph-name="uni2080" unicode="&#x2080;" horiz-adv-x="408" 
d="M204 -116q-83 0 -129.5 60t-46.5 168t46.5 168t129.5 60q84 0 130 -60t46 -168t-46 -168t-130 -60zM204 -40q38 0 58 40t20 112t-20 112t-58 40q-37 0 -57.5 -40t-20.5 -112t20.5 -112t57.5 -40z" />
    <glyph glyph-name="uni2081" unicode="&#x2081;" horiz-adv-x="257" 
d="M204 334v-444h-96v421h-2q0 -62 -23.5 -96t-65.5 -34v84q43 0 67 18t24 51h96z" />
    <glyph glyph-name="uni2082" unicode="&#x2082;" horiz-adv-x="382" 
d="M357 -37v-73h-333v70q104 40 161.5 100.5t57.5 132.5q0 33 -15.5 52t-41.5 19q-29 0 -46 -23t-19 -65h-93q6 78 47.5 121t113.5 43q75 0 116 -39.5t41 -111.5q0 -46 -20.5 -84.5t-59 -67t-94.5 -47t-127 -25.5v-2h312z" />
    <glyph glyph-name="uni2083" unicode="&#x2083;" horiz-adv-x="379" 
d="M194 149q75 0 116.5 -33.5t41.5 -93.5q0 -66 -44.5 -102t-125.5 -36q-71 0 -113 39t-48 110h92q2 -35 20 -54.5t50 -19.5q33 0 51.5 16.5t18.5 46.5q0 29 -20 45.5t-55 16.5h-10v66q35 3 54 19t19 42t-15.5 40t-43.5 14q-27 0 -43 -19.5t-18 -54.5h-91q6 70 48 109.5
t112 39.5q71 0 110.5 -27t39.5 -70q0 -44 -39.5 -68t-111.5 -24v-2h5v0z" />
    <glyph glyph-name="uni2084" unicode="&#x2084;" horiz-adv-x="398" 
d="M379 -11h-58v-99h-96v99h-208v78l127 267h177v-272h58v-73zM104 64v-2h124v264h-2z" />
    <glyph glyph-name="uni2085" unicode="&#x2085;" horiz-adv-x="382" 
d="M189 -116q-71 0 -114.5 36t-51.5 99h94q5 -28 23.5 -43.5t47.5 -15.5q35 0 54.5 20t19.5 56t-19 56.5t-53 20.5q-26 0 -44 -13.5t-26 -36.5l-92 12l35 259h265v-73h-182l-27 -189h2q9 53 40.5 81.5t79.5 28.5q57 0 88.5 -37t31.5 -103q0 -75 -45.5 -116.5t-126.5 -41.5z
" />
    <glyph glyph-name="uni2086" unicode="&#x2086;" horiz-adv-x="403" 
d="M250 175q61 0 94.5 -34.5t33.5 -97.5q0 -75 -47 -117t-129 -42q-84 0 -129 57.5t-45 165.5q0 110 48 171.5t136 61.5q68 0 108.5 -35.5t47.5 -98.5h-93q-8 58 -63 58q-42 0 -65 -41t-23 -115v-44h2q0 52 32.5 81.5t91.5 29.5zM202 -40q36 0 56.5 20t20.5 55
q0 33 -20.5 51t-56.5 18q-37 0 -57.5 -17.5t-20.5 -50.5q0 -35 21.5 -55.5t56.5 -20.5z" />
    <glyph glyph-name="uni2087" unicode="&#x2087;" horiz-adv-x="343" 
d="M331 334v-70q-32 -10 -57 -38t-42.5 -71.5t-26.5 -101t-9 -126.5v-37h-99v23q0 159 56 249.5t156 96.5v2h-298v73h320z" />
    <glyph glyph-name="uni2088" unicode="&#x2088;" horiz-adv-x="394" 
d="M229 155q66 -6 102.5 -40t36.5 -91q0 -66 -45 -103t-126 -37t-125.5 37t-44.5 103q0 57 36 90.5t102 40.5v2q-59 0 -91.5 22.5t-32.5 61.5q0 47 41 73t115 26t115 -26t41 -73q0 -39 -33 -61.5t-91 -22.5v-2zM139 208q0 -26 15.5 -41t42.5 -15t42.5 15t15.5 41t-15.5 41
t-42.5 15t-42.5 -15t-15.5 -41zM197 -40q34 0 52.5 16.5t18.5 47.5q0 30 -18.5 47t-52.5 17t-53 -17t-19 -47q0 -31 19 -47.5t53 -16.5z" />
    <glyph glyph-name="uni2089" unicode="&#x2089;" horiz-adv-x="403" 
d="M201 340q85 0 129 -58t44 -165q0 -110 -48 -171.5t-136 -61.5q-68 0 -109 38.5t-47 107.5h93q4 -33 20.5 -51.5t42.5 -18.5q42 0 65 41t23 115v50h-2q0 -50 -33 -77.5t-91 -27.5q-61 0 -94.5 33t-33.5 93q0 72 47 112.5t130 40.5zM201 132q36 0 56.5 16t20.5 46
q0 33 -21 51.5t-56 18.5q-37 0 -57.5 -18t-20.5 -51q0 -30 20.5 -46.5t57.5 -16.5z" />
    <glyph glyph-name="Euro" unicode="&#x20ac;" horiz-adv-x="685" 
d="M658 71q-24 -20 -53 -35.5t-58.5 -25.5t-58 -15t-53.5 -5q-141 0 -227 78.5t-106 221.5h-71v45h67q-1 8 -1 17v18v18t1 17h-67v45h71q20 143 106 221.5t227 78.5q53 0 109 -15.5t98 -41.5l-57 -99q-30 23 -70 34.5t-80 11.5q-76 0 -124.5 -49t-64.5 -140h267l-26 -46
h-246q-1 -8 -1 -17v-18v-17.5t1 -16.5h210l-26 -46h-179q15 -91 64 -140.5t125 -49.5q38 0 83.5 15.5t81.5 46.5z" />
    <glyph glyph-name="trademark" unicode="&#x2122;" horiz-adv-x="672" 
d="M27 770h217v-34h-88v-262h-41v262h-88v34zM609 474h-40l-9 290h-2l-83 -290h-73l-79 290h-2l-9 -290h-38l9 296h79l77 -290h2l81 290h78z" />
    <glyph glyph-name="oneeighth" unicode="&#x215b;" horiz-adv-x="868" 
d="M121 729q0 -62 -23.5 -96t-65.5 -34v84q43 0 67 18t24 51h96v-444h-96v421h-2zM629 724l-491 -734l-36 26l491 734zM696 265q66 -6 102.5 -40t36.5 -91q0 -66 -45 -103t-126 -37t-125.5 37t-44.5 103q0 57 36 90.5t102 40.5v2q-59 0 -91.5 22.5t-32.5 61.5q0 47 41 73
t115 26t115 -26t41 -73q0 -39 -33 -61.5t-91 -22.5v-2zM606 318q0 -26 15.5 -41t42.5 -15t42.5 15t15.5 41t-15.5 41t-42.5 15t-42.5 -15t-15.5 -41zM664 70q34 0 52.5 16.5t18.5 47.5q0 30 -18.5 47t-52.5 17t-53 -17t-19 -47q0 -31 19 -47.5t53 -16.5z" />
    <glyph glyph-name="threeeighths" unicode="&#x215c;" horiz-adv-x="989" 
d="M362 440q0 -66 -44.5 -102t-125.5 -36q-71 0 -113 39t-48 110h92q2 -35 20 -54.5t50 -19.5q33 0 51.5 16.5t18.5 46.5q0 29 -20 45.5t-55 16.5h-10v66q35 3 54 19t19 42t-15.5 40t-43.5 14q-27 0 -43 -19.5t-18 -54.5h-91q6 70 48 109.5t112 39.5q71 0 110.5 -27
t39.5 -70q0 -44 -39.5 -68t-111.5 -24v-2h5q75 0 116.5 -33.5t41.5 -93.5zM750 724l-491 -734l-36 26l491 734zM817 265q66 -6 102.5 -40t36.5 -91q0 -66 -45 -103t-126 -37t-125.5 37t-44.5 103q0 57 36 90.5t102 40.5v2q-59 0 -91.5 22.5t-32.5 61.5q0 47 41 73t115 26
t115 -26t41 -73q0 -39 -33 -61.5t-91 -22.5v-2zM727 318q0 -26 15.5 -41t42.5 -15t42.5 15t15.5 41t-15.5 41t-42.5 15t-42.5 -15t-15.5 -41zM785 70q34 0 52.5 16.5t18.5 47.5q0 30 -18.5 47t-52.5 17t-53 -17t-19 -47q0 -31 19 -47.5t53 -16.5z" />
    <glyph glyph-name="fiveeighths" unicode="&#x215d;" horiz-adv-x="993" 
d="M370 460q0 -75 -45.5 -116.5t-126.5 -41.5q-71 0 -114.5 36t-51.5 99h94q5 -28 23.5 -43.5t47.5 -15.5q35 0 54.5 20t19.5 56t-19 56.5t-53 20.5q-26 0 -44 -13.5t-26 -36.5l-92 12l35 259h265v-73h-182l-27 -189h2q9 53 40.5 81.5t79.5 28.5q57 0 88.5 -37t31.5 -103z
M754 724l-491 -734l-36 26l491 734zM821 265q66 -6 102.5 -40t36.5 -91q0 -66 -45 -103t-126 -37t-125.5 37t-44.5 103q0 57 36 90.5t102 40.5v2q-59 0 -91.5 22.5t-32.5 61.5q0 47 41 73t115 26t115 -26t41 -73q0 -39 -33 -61.5t-91 -22.5v-2zM731 318q0 -26 15.5 -41
t42.5 -15t42.5 15t15.5 41t-15.5 41t-42.5 15t-42.5 -15t-15.5 -41zM789 70q34 0 52.5 16.5t18.5 47.5q0 30 -18.5 47t-52.5 17t-53 -17t-19 -47q0 -31 19 -47.5t53 -16.5z" />
    <glyph glyph-name="seveneighths" unicode="&#x215e;" horiz-adv-x="966" 
d="M110 331q0 159 56 249.5t156 96.5v2h-298v73h320v-70q-32 -10 -57 -38t-42.5 -71.5t-26.5 -101t-9 -126.5v-37h-99v23zM722 724l-491 -734l-36 26l491 734zM789 265q66 -6 102.5 -40t36.5 -91q0 -66 -45 -103t-126 -37t-125.5 37t-44.5 103q0 57 36 90.5t102 40.5v2
q-59 0 -91.5 22.5t-32.5 61.5q0 47 41 73t115 26t115 -26t41 -73q0 -39 -33 -61.5t-91 -22.5v-2zM699 318q0 -26 15.5 -41t42.5 -15t42.5 15t15.5 41t-15.5 41t-42.5 15t-42.5 -15t-15.5 -41zM757 70q34 0 52.5 16.5t18.5 47.5q0 30 -18.5 47t-52.5 17t-53 -17t-19 -47
q0 -31 19 -47.5t53 -16.5z" />
    <glyph glyph-name="partialdiff" unicode="&#x2202;" horiz-adv-x="670" 
d="M326 750q72 0 128 -25.5t95 -74t59.5 -119t20.5 -159.5q0 -90 -23.5 -161t-67.5 -120t-108.5 -75t-145.5 -26q-123 0 -191 46.5t-68 131.5q0 48 31.5 85.5t91 64t145.5 40t196 13.5q0 128 -43.5 198.5t-122.5 70.5q-55 0 -89.5 -29t-41.5 -81h-133q12 104 82 162t185 58z
M285 100q96 0 149.5 70.5t54.5 198.5q-76 0 -135.5 -11.5t-101 -33.5t-63.5 -54t-22 -72q0 -46 31 -72t87 -26z" />
    <glyph glyph-name="emptyset" unicode="&#x2205;" horiz-adv-x="611" 
d="M513 423q52 -66 52 -172q0 -123 -68 -191.5t-191 -68.5q-106 0 -172 51l-40 -40l-36 35l40 40q-26 33 -39.5 76.5t-13.5 97.5q0 123 68.5 191t192.5 68q105 0 171 -51l39 39l36 -35zM97 251q0 -84 38 -137l306 308q-52 41 -135 41q-100 0 -154.5 -56t-54.5 -156zM306 37
q98 0 152.5 56t54.5 158q0 81 -37 135l-307 -308q53 -41 137 -41z" />
    <glyph glyph-name="product" unicode="&#x220f;" horiz-adv-x="863" 
d="M840 649h-134v-879h-132v879h-285v-879h-132v879h-134v121h817v-121z" />
    <glyph glyph-name="summation" unicode="&#x2211;" horiz-adv-x="704" 
d="M677 -123v-107h-635v240l488 277v2l-475 241v240h602v-107l-589 3v-2l475 -237v-279l-487 -272v-2z" />
    <glyph glyph-name="minus" unicode="&#x2212;" horiz-adv-x="532" 
d="M61 274h411v-44h-411v44z" />
    <glyph glyph-name="radical" unicode="&#x221a;" horiz-adv-x="706" 
d="M709 770l-259 -880h-253l-67 298h-122v107h240l73 -396h2l239 871h147z" />
    <glyph glyph-name="infinity" unicode="&#x221e;" horiz-adv-x="794" 
d="M561 449q89 0 139 -52t50 -146t-50 -146t-139 -52q-62 0 -104 29t-60 83q-18 -54 -60 -83t-104 -29q-89 0 -138.5 52t-49.5 146t49.5 146t138.5 52q62 0 104 -29t60 -83q18 54 60 83t104 29zM233 97q66 0 102.5 40.5t36.5 113.5t-36.5 113.5t-102.5 40.5t-102.5 -40.5
t-36.5 -113.5t36.5 -113.5t102.5 -40.5zM561 97q66 0 102.5 40.5t36.5 113.5t-36.5 113.5t-102.5 40.5t-102.5 -40.5t-36.5 -113.5t36.5 -113.5t102.5 -40.5z" />
    <glyph glyph-name="integral" unicode="&#x222b;" horiz-adv-x="491" 
d="M179 570q0 100 51.5 155t145.5 55q38 0 71.5 -8t58.5 -22l-28 -94q-18 9 -36 14t-39 5q-45 0 -68.5 -26t-23.5 -73v-606q0 -100 -51.5 -155t-144.5 -55q-38 0 -71.5 8t-58.5 22l28 94q18 -9 36 -14t38 -5q45 0 68.5 26t23.5 73v606v0z" />
    <glyph glyph-name="approxequal" unicode="&#x2248;" horiz-adv-x="584" 
d="M405 281q-42 0 -70.5 12.5t-52 27.5t-47.5 27.5t-58 12.5q-32 0 -51.5 -22.5t-22.5 -61.5h-44q2 62 33.5 96t87.5 34q42 0 70.5 -12.5t52 -27.5t47.5 -27.5t58 -12.5q32 0 51.5 22.5t22.5 61.5h43q-2 -62 -33.5 -96t-86.5 -34zM405 93q-42 0 -70.5 12.5t-52 27.5
t-47.5 27.5t-58 12.5q-32 0 -51.5 -22.5t-22.5 -61.5h-44q2 62 33.5 96t87.5 34q42 0 70.5 -12.5t52 -27.5t47.5 -27.5t58 -12.5q32 0 51.5 22.5t22.5 61.5h43q-2 -62 -33.5 -96t-86.5 -34z" />
    <glyph glyph-name="notequal" unicode="&#x2260;" horiz-adv-x="532" 
d="M310 316l-37 -128h199v-44h-212l-42 -144h-50l42 144h-149v44h162l37 128h-199v44h212l41 142h50l-41 -142h149v-44h-162z" />
    <glyph glyph-name="lessequal" unicode="&#x2264;" horiz-adv-x="525" 
d="M466 151l-411 135v84l411 136v-47l-405 -131v-2l405 -128v-47zM467 72v-44h-411v44h411z" />
    <glyph glyph-name="greaterequal" unicode="&#x2265;" horiz-adv-x="525" 
d="M470 370v-84l-411 -135v47l405 128v2l-405 131v47zM58 72h411v-44h-411v44z" />
    <glyph glyph-name="lozenge" unicode="&#x25ca;" horiz-adv-x="479" 
d="M436 311v-119l-144 -192h-105l-145 192v119l145 191h105zM430 252l-190 246h-2l-190 -246v-2l190 -246h2l190 246v2z" />
    <glyph glyph-name="uniF8FF" unicode="&#xf8ff;" horiz-adv-x="1274" 
d="M846 -3q-7 -7 -17 -7q-14 0 -17 7.5t-3 15.5v324l-339 -340q-7 -7 -17 -7q-14 0 -17 7.5t-3 15.5v324l-340 -340q-7 -7 -17 -7q-8 0 -12.5 5t-4.5 13q0 10 5 15l342 341h-324q-8 0 -15.5 3t-7.5 16q0 5 2 8.5t5 7.5l340 342h-327q-20 0 -20 19v1q0 19 20 19h370
q8 0 15.5 -3t7.5 -17q0 -10 -8 -17l-341 -340h330q8 0 14 -6t6 -14v-327l339 338q7 8 17 8q13 0 15.5 -7.5t2.5 -14.5v-324l340 338q6 8 16 8q8 0 12.5 -5.5t4.5 -13.5q0 -3 -1 -7t-5 -7z" />
    <glyph glyph-name="Jacute" horiz-adv-x="574" 
d="M577 916l-202 -100l-37 69l197 108zM360 222v518h138v-511q0 -113 -63.5 -176t-177.5 -63q-105 0 -167 70.5t-70 198.5h128q6 -75 36 -117t78 -42q46 0 72 32.5t26 89.5z" />
    <glyph glyph-name="i.loclTRK" horiz-adv-x="263" 
d="M66 723h132v-125h-132v125zM197 502v-502h-132v502h132z" />
    <glyph glyph-name="jacute" horiz-adv-x="263" 
d="M280 678l-202 -100l-37 69l197 108zM197 502v-732h-132v732h132z" />
    <glyph glyph-name="f_b" horiz-adv-x="1014" 
d="M321 675q-48 0 -72 -24.5t-24 -68.5v-80h158v-91h-151v-411h-132v411h-76v91h196v2q-60 11 -93.5 43.5t-33.5 80.5q0 72 51.5 112t144.5 40q58 0 103 -20l-17 -98q-23 13 -54 13zM774 512q95 0 148 -68.5t53 -192.5t-53 -192.5t-148 -68.5q-85 0 -132 48t-47 135h-2v-173
h-132v770h132v-440h2q0 86 47 134t132 48zM713 95q60 0 93.5 41t33.5 115t-33.5 115.5t-93.5 41.5t-93.5 -43.5t-33.5 -113.5q0 -69 33.5 -112.5t93.5 -43.5z" />
    <glyph glyph-name="f_f_j" horiz-adv-x="1001" 
d="M935 502v-732h-132v641h-230v-411h-132v411h-209v-411h-132v411h-76v91h196v2q-60 11 -93.5 43.5t-33.5 80.5q0 72 51.5 112t144.5 40q58 0 103 -20l-17 -98q-23 13 -54 13q-48 0 -72 -24.5t-24 -68.5v-80h336v2q-60 11 -93.5 43.5t-33.5 80.5q0 72 51.5 112t144.5 40
q58 0 103 -20l-17 -98q-23 13 -54 13q-48 0 -72 -24.5t-24 -68.5v-80h369zM935 713v-125h-132v125h132z" />
    <glyph glyph-name="f_f_t" horiz-adv-x="1103" 
d="M927 411v-242q0 -35 21 -54.5t59 -19.5t67 16v-98q-23 -11 -51.5 -17t-57.5 -6q-81 0 -125.5 42.5t-44.5 119.5v259h-222v-411h-132v411h-209v-411h-132v411h-76v91h196v2q-60 11 -93.5 43.5t-33.5 80.5q0 72 51.5 112t144.5 40q58 0 103 -20l-17 -98q-23 13 -54 13
q-48 0 -72 -24.5t-24 -68.5v-80h336v2q-60 11 -93.5 43.5t-33.5 80.5q0 72 51.5 112t144.5 40q58 0 103 -20l-17 -98q-23 13 -54 13q-48 0 -72 -24.5t-24 -68.5v-80h237v168h132v-42q0 -48 -34 -80.5t-94 -43.5v-2h276v-91h-156z" />
    <glyph glyph-name="f_h" horiz-adv-x="995" 
d="M321 675q-48 0 -72 -24.5t-24 -68.5v-80h158v-91h-151v-411h-132v411h-76v91h196v2q-60 11 -93.5 43.5t-33.5 80.5q0 72 51.5 112t144.5 40q58 0 103 -20l-17 -98q-23 13 -54 13zM759 512q84 0 130 -54t46 -152v-306h-132v300q0 51 -25.5 79.5t-72.5 28.5q-53 0 -82 -36
t-29 -100v-272h-132v770h132v-444h2q0 88 43 137t120 49z" />
    <glyph glyph-name="f_iacute" horiz-adv-x="660" 
d="M594 502v-502h-132v411h-230v-411h-132v411h-76v91h196v2q-60 11 -93.5 43.5t-33.5 80.5q0 72 51.5 112t144.5 40q58 0 103 -20l-17 -98q-23 13 -54 13q-48 0 -72 -24.5t-24 -68.5v-80h369zM475 578l-37 69l197 108l42 -77z" />
    <glyph glyph-name="f_j" horiz-adv-x="660" 
d="M594 502v-732h-132v641h-230v-411h-132v411h-76v91h196v2q-60 11 -93.5 43.5t-33.5 80.5q0 72 51.5 112t144.5 40q58 0 103 -20l-17 -98q-23 13 -54 13q-48 0 -72 -24.5t-24 -68.5v-80h369zM594 713v-125h-132v125h132z" />
    <glyph glyph-name="f_k" horiz-adv-x="974" 
d="M321 675q-48 0 -72 -24.5t-24 -68.5v-80h158v-91h-151v-411h-132v411h-76v91h196v2q-60 11 -93.5 43.5t-33.5 80.5q0 72 51.5 112t144.5 40q58 0 103 -20l-17 -98q-23 13 -54 13zM978 0h-162l-220 257h-2v-257h-132v770h132v-504h2l203 236h156l-213 -239z" />
    <glyph glyph-name="f_t" horiz-adv-x="762" 
d="M586 411v-242q0 -35 21 -54.5t59 -19.5t67 16v-98q-23 -11 -51.5 -17t-57.5 -6q-81 0 -125.5 42.5t-44.5 119.5v259h-222v-411h-132v411h-76v91h196v2q-60 11 -93.5 43.5t-33.5 80.5q0 72 51.5 112t144.5 40q58 0 103 -20l-17 -98q-23 13 -54 13q-48 0 -72 -24.5
t-24 -68.5v-80h237v168h132v-42q0 -48 -34 -80.5t-94 -43.5v-2h276v-91h-156z" />
    <glyph glyph-name="t_t" horiz-adv-x="774" 
d="M598 411v-242q0 -35 21 -54.5t59 -19.5t67 16v-98q-23 -11 -51.5 -17t-57.5 -6q-81 0 -125.5 42.5t-44.5 119.5v259h-241v-242q0 -35 21 -54.5t59 -19.5t67 16v-98q-23 -11 -51.5 -17t-57.5 -6q-81 0 -125.5 42.5t-44.5 119.5v259h-72v91h80v168h132v-42q0 -48 -34 -80.5
t-94 -43.5v-2h369v168h132v-42q0 -48 -34 -80.5t-94 -43.5v-2h276v-91h-156z" />
    <glyph glyph-name="zero.lf" horiz-adv-x="665" 
d="M332 -10q-68 0 -121 26t-89.5 74.5t-56 119t-19.5 160.5t19.5 160.5t56 119t89.5 74.5t121 26q67 0 120.5 -26t90.5 -74.5t56.5 -119t19.5 -160.5t-19.5 -160.5t-56.5 -119t-90.5 -74.5t-120.5 -26zM332 100q69 0 106.5 71t37.5 199t-37.5 199t-106.5 71q-68 0 -106 -71
t-38 -199t38 -199t106 -71z" />
    <glyph glyph-name="one.lf" horiz-adv-x="391" 
d="M309 740v-740h-138v704h-2q0 -93 -39 -144t-108 -51v120q71 0 110 29.5t39 81.5h138z" />
    <glyph glyph-name="two.lf" horiz-adv-x="620" 
d="M580 107v-107h-543v102q89 31 159 73.5t118 94.5t73.5 111t25.5 123q0 63 -29.5 99.5t-81.5 36.5q-54 0 -86.5 -43t-37.5 -119h-133q8 129 76.5 200.5t184.5 71.5q121 0 188.5 -66t67.5 -184q0 -80 -33 -146t-96 -116.5t-153.5 -83t-205.5 -45.5v-2h506z" />
    <glyph glyph-name="three.lf" horiz-adv-x="616" 
d="M312 425q123 0 191.5 -55t68.5 -155q0 -106 -72.5 -165.5t-203.5 -59.5q-116 0 -184.5 64.5t-76.5 181.5h133q3 -65 37 -100.5t93 -35.5q63 0 97 30t34 85t-36.5 85.5t-102.5 30.5h-19v96q65 6 101 35.5t36 77.5t-29 74t-83 26q-51 0 -81.5 -36t-34.5 -101h-130
q8 117 75.5 182t182.5 65t179 -45t64 -120t-65 -116.5t-183 -41.5v-2h9v0z" />
    <glyph glyph-name="four.lf" horiz-adv-x="639" 
d="M609 172h-96v-172h-138v172h-351v114l233 454h256v-460h96v-108zM150 282v-2h228v448h-2z" />
    <glyph glyph-name="five.lf" horiz-adv-x="623" 
d="M308 -10q-115 0 -186 58.5t-83 163.5h135q9 -53 44 -82.5t89 -29.5q65 0 101 38t36 105t-35.5 104.5t-98.5 37.5q-51 0 -83.5 -26t-47.5 -69l-133 17l57 433h429v-107h-307l-45 -327h2q15 86 67 133.5t133 47.5q97 0 151 -62t54 -174q0 -123 -73 -192t-206 -69z" />
    <glyph glyph-name="six.lf" horiz-adv-x="655" 
d="M396 475q103 0 159.5 -58.5t56.5 -164.5q0 -62 -20 -110.5t-56.5 -82t-89 -51.5t-117.5 -18q-139 0 -211 93.5t-72 273.5q0 93 20 166t58.5 123.5t93.5 77t126 26.5q110 0 176 -58t75 -163h-134q-6 52 -36.5 81.5t-80.5 29.5q-75 0 -117 -73.5t-42 -205.5v-74h2
q0 89 55 138.5t154 49.5zM327 100q67 0 105 37.5t38 103.5q0 63 -38 97t-105 34q-66 0 -103.5 -33.5t-37.5 -93.5q0 -68 39 -106.5t102 -38.5z" />
    <glyph glyph-name="seven.lf" horiz-adv-x="555" 
d="M538 740v-102q-54 -17 -97 -63.5t-73 -120t-45.5 -171t-15.5 -214.5v-69h-144v47q0 132 23 237.5t66.5 180.5t106.5 117.5t143 48.5v2h-489v107h525z" />
    <glyph glyph-name="eight.lf" horiz-adv-x="642" 
d="M378 435q106 -11 163 -67.5t57 -149.5q0 -108 -73 -168t-204 -60t-204 60t-73 168q0 93 57.5 149t161.5 68v2q-92 0 -143.5 38t-51.5 107q0 79 66.5 123.5t186.5 44.5q119 0 186 -44.5t67 -123.5q0 -69 -51.5 -107t-144.5 -38v-2zM209 534q0 -50 29.5 -78t82.5 -28
q52 0 81.5 28t29.5 78t-29.5 78t-81.5 28q-53 0 -82.5 -28t-29.5 -78zM321 100q63 0 98.5 31t35.5 87t-35.5 87t-98.5 31t-99 -31t-36 -87t36 -87t99 -31z" />
    <glyph glyph-name="nine.lf" horiz-adv-x="654" 
d="M327 750q140 0 210.5 -95t70.5 -272q0 -93 -20 -166t-58.5 -123.5t-94 -77t-125.5 -26.5q-110 0 -176 63.5t-75 177.5h134q6 -62 36.5 -96.5t80.5 -34.5q75 0 117 73.5t42 205.5v84h-2q0 -85 -54.5 -131.5t-154.5 -46.5q-103 0 -159.5 55.5t-56.5 157.5q0 59 20 106
t57 79.5t89.5 49.5t118.5 17zM327 388q66 0 104 30.5t38 86.5q0 63 -39.5 99t-102.5 36q-67 0 -105 -34.5t-38 -96.5q0 -58 38 -89.5t105 -31.5z" />
    <glyph glyph-name="zero.osf" horiz-adv-x="648" 
d="M324 -10q-133 0 -206 78t-73 218t73 218t206 78t206 -78t73 -218t-73 -218t-206 -78zM324 95q69 0 106.5 50t37.5 141t-37.5 141.5t-106.5 50.5t-107 -50.5t-38 -141.5t38 -141t107 -50z" />
    <glyph glyph-name="one.osf" horiz-adv-x="382" 
d="M305 572v-572h-132v536h-2q0 -87 -38 -134.5t-107 -47.5v108q69 0 108 29t39 81h132z" />
    <glyph glyph-name="two.osf" horiz-adv-x="596" 
d="M556 99v-99h-517v96q87 29 155 63.5t115.5 72t72.5 77.5t25 79q0 44 -29 68t-81 24q-54 0 -86.5 -31.5t-36.5 -88.5h-126q5 106 70 164t176 58q116 0 180 -51t64 -143q0 -55 -32 -102t-92 -83.5t-146.5 -62.5t-196.5 -39v-2h485z" />
    <glyph glyph-name="three.osf" horiz-adv-x="594" 
d="M285 289q126 0 196.5 -52.5t70.5 -147.5q0 -99 -70.5 -154t-198.5 -55q-112 0 -178 59t-74 166h126q3 -58 36.5 -90.5t91.5 -32.5q63 0 98 28t35 79q0 52 -37 80.5t-104 28.5h-17v93q66 8 101.5 34.5t35.5 67.5q0 42 -29.5 64.5t-82.5 22.5q-51 0 -81.5 -31.5
t-34.5 -88.5h-123q8 106 73.5 164t174.5 58q113 0 175 -40t62 -112q0 -66 -65 -102.5t-181 -36.5v-2v0z" />
    <glyph glyph-name="four.osf" horiz-adv-x="626" 
d="M599 0h-96v-110h-132v110h-341v107l224 467h249v-475h96v-99zM156 101v-2h218v463h-2z" />
    <glyph glyph-name="five.osf" horiz-adv-x="616" 
d="M303 -120q-114 0 -183.5 54.5t-82.5 151.5h126q10 -48 46.5 -74.5t93.5 -26.5q66 0 103 36t37 101q0 63 -35.5 97.5t-99.5 34.5q-54 0 -89.5 -24t-51.5 -64l-123 18l56 388h432v-99h-315l-50 -295h2q17 82 71 127.5t132 45.5q98 0 152 -60t54 -169q0 -115 -72 -178.5
t-203 -63.5z" />
    <glyph glyph-name="six.osf" horiz-adv-x="640" 
d="M389 463q100 0 155 -58t55 -164q0 -59 -19 -106t-55 -79t-86.5 -49t-113.5 -17q-140 0 -210.5 91t-70.5 270q0 90 20 160t57.5 119t92 74.5t123.5 25.5q107 0 171.5 -55.5t73.5 -155.5h-124q-6 50 -38 78t-83 28q-75 0 -116.5 -72t-41.5 -202v-72h2q0 88 57 136t151 48z
M323 95q68 0 106 35.5t38 99.5t-38 99.5t-106 35.5t-106 -34.5t-38 -96.5q0 -65 39.5 -102t104.5 -37z" />
    <glyph glyph-name="seven.osf" horiz-adv-x="554" 
d="M529 572v-94q-57 -16 -102 -63.5t-76 -123.5t-47.5 -177t-16.5 -224h-138q0 130 23 234t67 178.5t107.5 117.5t144.5 51v2h-467v99h505z" />
    <glyph glyph-name="eight.osf" horiz-adv-x="638" 
d="M375 422q106 -12 163.5 -66t57.5 -143q0 -106 -73.5 -164.5t-204.5 -58.5t-204 58.5t-73 164.5q0 88 57.5 142.5t162.5 66.5v2q-93 0 -144.5 36t-51.5 102q0 80 67 124t186 44q120 0 187 -44t67 -124q0 -66 -51.5 -102t-145.5 -36v-2zM199 519q0 -49 31.5 -76t87.5 -27
q57 0 88.5 27t31.5 76q0 50 -31.5 78t-88.5 28q-56 0 -87.5 -28t-31.5 -78zM318 95q67 0 105 31t38 87t-38 86.5t-105 30.5t-104.5 -30.5t-37.5 -86.5t37.5 -87t104.5 -31z" />
    <glyph glyph-name="nine.osf" horiz-adv-x="640" 
d="M314 581q141 0 211 -86t70 -255q0 -85 -20 -152t-57.5 -113t-91.5 -70.5t-123 -24.5q-108 0 -172.5 51.5t-73.5 145.5h124q6 -43 38 -67.5t84 -24.5q75 0 116 68.5t41 190.5v58h-2q0 -83 -56.5 -128.5t-151.5 -45.5q-100 0 -155 56t-55 156q0 57 19 102t55 75.5t86.5 47
t113.5 16.5zM316 227q68 0 106 31.5t38 88.5q0 61 -39.5 95t-104.5 34q-67 0 -105.5 -32.5t-38.5 -92.5t38.5 -92t105.5 -32z" />
    <glyph glyph-name="zero.dnom" horiz-adv-x="408" 
d="M204 -6q-83 0 -129.5 60t-46.5 168t46.5 168t129.5 60q84 0 130 -60t46 -168t-46 -168t-130 -60zM204 70q38 0 58 40t20 112t-20 112t-58 40q-37 0 -57.5 -40t-20.5 -112t20.5 -112t57.5 -40z" />
    <glyph glyph-name="one.dnom" horiz-adv-x="257" 
d="M203 444v-444h-96v421h-2q0 -62 -23.5 -96t-65.5 -34v84q43 0 67 18t24 51h96z" />
    <glyph glyph-name="two.dnom" horiz-adv-x="382" 
d="M358 73v-73h-333v70q104 40 161.5 100.5t57.5 132.5q0 33 -15.5 52t-41.5 19q-29 0 -46 -23t-19 -65h-93q6 78 47.5 121t113.5 43q75 0 116 -39.5t41 -111.5q0 -46 -20.5 -84.5t-59 -67t-94.5 -47t-127 -25.5v-2h312z" />
    <glyph glyph-name="three.dnom" horiz-adv-x="379" 
d="M194 259q75 0 116.5 -33.5t41.5 -93.5q0 -66 -44.5 -102t-125.5 -36q-71 0 -113 39t-48 110h92q2 -35 20 -54.5t50 -19.5q33 0 51.5 16.5t18.5 46.5q0 29 -20 45.5t-55 16.5h-10v66q35 3 54 19t19 42t-15.5 40t-43.5 14q-27 0 -43 -19.5t-18 -54.5h-91q6 70 48 109.5
t112 39.5q71 0 110.5 -27t39.5 -70q0 -44 -39.5 -68t-111.5 -24v-2h5v0z" />
    <glyph glyph-name="four.dnom" horiz-adv-x="398" 
d="M379 99h-58v-99h-96v99h-208v78l127 267h177v-272h58v-73zM104 174v-2h124v264h-2z" />
    <glyph glyph-name="five.dnom" horiz-adv-x="382" 
d="M189 -6q-71 0 -114.5 36t-51.5 99h94q5 -28 23.5 -43.5t47.5 -15.5q35 0 54.5 20t19.5 56t-19 56.5t-53 20.5q-26 0 -44 -13.5t-26 -36.5l-92 12l35 259h265v-73h-182l-27 -189h2q9 53 40.5 81.5t79.5 28.5q57 0 88.5 -37t31.5 -103q0 -75 -45.5 -116.5t-126.5 -41.5z
" />
    <glyph glyph-name="six.dnom" horiz-adv-x="403" 
d="M249 285q61 0 94.5 -34.5t33.5 -97.5q0 -75 -47 -117t-129 -42q-84 0 -129 57.5t-45 165.5q0 110 48 171.5t136 61.5q68 0 108.5 -35.5t47.5 -98.5h-93q-8 58 -63 58q-42 0 -65 -41t-23 -115v-44h2q0 52 32.5 81.5t91.5 29.5zM201 70q36 0 56.5 20t20.5 55q0 33 -20.5 51
t-56.5 18q-37 0 -57.5 -17.5t-20.5 -50.5q0 -35 21.5 -55.5t56.5 -20.5z" />
    <glyph glyph-name="seven.dnom" horiz-adv-x="343" 
d="M331 444v-70q-32 -10 -57 -38t-42.5 -71.5t-26.5 -101t-9 -126.5v-37h-99v23q0 159 56 249.5t156 96.5v2h-298v73h320z" />
    <glyph glyph-name="eight.dnom" horiz-adv-x="394" 
d="M229 265q66 -6 102.5 -40t36.5 -91q0 -66 -45 -103t-126 -37t-125.5 37t-44.5 103q0 57 36 90.5t102 40.5v2q-59 0 -91.5 22.5t-32.5 61.5q0 47 41 73t115 26t115 -26t41 -73q0 -39 -33 -61.5t-91 -22.5v-2zM139 318q0 -26 15.5 -41t42.5 -15t42.5 15t15.5 41t-15.5 41
t-42.5 15t-42.5 -15t-15.5 -41zM197 70q34 0 52.5 16.5t18.5 47.5q0 30 -18.5 47t-52.5 17t-53 -17t-19 -47q0 -31 19 -47.5t53 -16.5z" />
    <glyph glyph-name="nine.dnom" horiz-adv-x="403" 
d="M202 450q85 0 129 -58t44 -165q0 -110 -48 -171.5t-136 -61.5q-68 0 -109 38.5t-47 107.5h93q4 -33 20.5 -51.5t42.5 -18.5q42 0 65 41t23 115v50h-2q0 -50 -33 -77.5t-91 -27.5q-61 0 -94.5 33t-33.5 93q0 72 47 112.5t130 40.5zM202 242q36 0 56.5 16t20.5 46
q0 33 -21 51.5t-56 18.5q-37 0 -57.5 -18t-20.5 -51q0 -30 20.5 -46.5t57.5 -16.5z" />
    <glyph glyph-name="zero.numr" horiz-adv-x="408" 
d="M204 302q-83 0 -129.5 60t-46.5 168t46.5 168t129.5 60q84 0 130 -60t46 -168t-46 -168t-130 -60zM204 378q38 0 58 40t20 112t-20 112t-58 40q-37 0 -57.5 -40t-20.5 -112t20.5 -112t57.5 -40z" />
    <glyph glyph-name="one.numr" horiz-adv-x="257" 
d="M204 752v-444h-96v421h-2q0 -62 -23.5 -96t-65.5 -34v84q43 0 67 18t24 51h96z" />
    <glyph glyph-name="two.numr" horiz-adv-x="382" 
d="M357 381v-73h-333v70q104 40 161.5 100.5t57.5 132.5q0 33 -15.5 52t-41.5 19q-29 0 -46 -23t-19 -65h-93q6 78 47.5 121t113.5 43q75 0 116 -39.5t41 -111.5q0 -46 -20.5 -84.5t-59 -67t-94.5 -47t-127 -25.5v-2h312z" />
    <glyph glyph-name="three.numr" horiz-adv-x="379" 
d="M194 567q75 0 116.5 -33.5t41.5 -93.5q0 -66 -44.5 -102t-125.5 -36q-71 0 -113 39t-48 110h92q2 -35 20 -54.5t50 -19.5q33 0 51.5 16.5t18.5 46.5q0 29 -20 45.5t-55 16.5h-10v66q35 3 54 19t19 42t-15.5 40t-43.5 14q-27 0 -43 -19.5t-18 -54.5h-91q6 70 48 109.5
t112 39.5q71 0 110.5 -27t39.5 -70q0 -44 -39.5 -68t-111.5 -24v-2h5v0z" />
    <glyph glyph-name="four.numr" horiz-adv-x="398" 
d="M379 407h-58v-99h-96v99h-208v78l127 267h177v-272h58v-73zM104 482v-2h124v264h-2z" />
    <glyph glyph-name="five.numr" horiz-adv-x="382" 
d="M189 302q-71 0 -114.5 36t-51.5 99h94q5 -28 23.5 -43.5t47.5 -15.5q35 0 54.5 20t19.5 56t-19 56.5t-53 20.5q-26 0 -44 -13.5t-26 -36.5l-92 12l35 259h265v-73h-182l-27 -189h2q9 53 40.5 81.5t79.5 28.5q57 0 88.5 -37t31.5 -103q0 -75 -45.5 -116.5t-126.5 -41.5z
" />
    <glyph glyph-name="six.numr" horiz-adv-x="403" 
d="M249 593q61 0 94.5 -34.5t33.5 -97.5q0 -75 -47 -117t-129 -42q-84 0 -129 57.5t-45 165.5q0 110 48 171.5t136 61.5q68 0 108.5 -35.5t47.5 -98.5h-93q-8 58 -63 58q-42 0 -65 -41t-23 -115v-44h2q0 52 32.5 81.5t91.5 29.5zM201 378q36 0 56.5 20t20.5 55
q0 33 -20.5 51t-56.5 18q-37 0 -57.5 -17.5t-20.5 -50.5q0 -35 21.5 -55.5t56.5 -20.5z" />
    <glyph glyph-name="seven.numr" horiz-adv-x="343" 
d="M331 752v-70q-32 -10 -57 -38t-42.5 -71.5t-26.5 -101t-9 -126.5v-37h-99v23q0 159 56 249.5t156 96.5v2h-298v73h320z" />
    <glyph glyph-name="eight.numr" horiz-adv-x="394" 
d="M229 573q66 -6 102.5 -40t36.5 -91q0 -66 -45 -103t-126 -37t-125.5 37t-44.5 103q0 57 36 90.5t102 40.5v2q-59 0 -91.5 22.5t-32.5 61.5q0 47 41 73t115 26t115 -26t41 -73q0 -39 -33 -61.5t-91 -22.5v-2zM139 626q0 -26 15.5 -41t42.5 -15t42.5 15t15.5 41t-15.5 41
t-42.5 15t-42.5 -15t-15.5 -41zM197 378q34 0 52.5 16.5t18.5 47.5q0 30 -18.5 47t-52.5 17t-53 -17t-19 -47q0 -31 19 -47.5t53 -16.5z" />
    <glyph glyph-name="nine.numr" horiz-adv-x="403" 
d="M202 758q85 0 129 -58t44 -165q0 -110 -48 -171.5t-136 -61.5q-68 0 -109 38.5t-47 107.5h93q4 -33 20.5 -51.5t42.5 -18.5q42 0 65 41t23 115v50h-2q0 -50 -33 -77.5t-91 -27.5q-61 0 -94.5 33t-33.5 93q0 72 47 112.5t130 40.5zM202 550q36 0 56.5 16t20.5 46
q0 33 -21 51.5t-56 18.5q-37 0 -57.5 -18t-20.5 -51q0 -30 20.5 -46.5t57.5 -16.5z" />
    <glyph glyph-name="backslash.case" horiz-adv-x="372" 
d="M347 -13l-48 -17l-273 783l47 17z" />
    <glyph glyph-name="exclamdown.case" horiz-adv-x="299" 
d="M75 740h148v-141h-148v141zM213 512l5 -512h-136l5 512h126z" />
    <glyph glyph-name="questiondown.case" horiz-adv-x="558" 
d="M233 599v141h147v-141h-147zM531 232q-8 -115 -72.5 -178.5t-175.5 -63.5q-115 0 -179 54t-64 151q0 71 52.5 154t146.5 163h126v-2q-85 -79 -132 -159t-47 -144q0 -50 27 -78.5t75 -28.5q49 0 79 35t33 97h131z" />
    <glyph glyph-name="slash.case" horiz-adv-x="372" 
d="M346 753l-273 -783l-48 17l274 783z" />
    <glyph glyph-name="numbersign.osf" horiz-adv-x="580" 
d="M443 369l-19 -158h99l-5 -42h-98l-20 -169h-52l18 169h-183l-19 -169h-52l20 169h-102l5 42h102l18 158h-98l5 42h98l18 149h52l-18 -149h183l18 149h52l-17 -149h102l-5 -42h-102zM392 369h-186l-19 -158h186z" />
    <glyph glyph-name="braceleft.case" horiz-adv-x="273" 
d="M164 472q0 -38 -18 -63.5t-51 -38.5q33 -14 51 -39.5t18 -63.5v-198q0 -32 19.5 -52.5t51.5 -20.5v-46q-55 0 -88.5 31t-33.5 82v198q0 41 -22.5 63t-64.5 22v47q42 0 64.5 22t22.5 63v199q0 51 33.5 82t88.5 31v-46q-32 0 -51.5 -20.5t-19.5 -52.5v-199v0z" />
    <glyph glyph-name="braceright.case" horiz-adv-x="273" 
d="M160 478q0 -41 22.5 -63t64.5 -22v-47q-42 0 -64.5 -22t-22.5 -63v-198q0 -51 -33.5 -82t-88.5 -31v46q32 0 51.5 20.5t19.5 52.5v198q0 38 18 63.5t51 39.5q-33 13 -51 38.5t-18 63.5v199q0 32 -19.5 52.5t-51.5 20.5v46q55 0 88.5 -31t33.5 -82v-199v0z" />
    <glyph glyph-name="bracketleft.case" horiz-adv-x="302" 
d="M134 744v-748h148v-46h-199v840h199v-46h-148z" />
    <glyph glyph-name="bracketright.case" horiz-adv-x="302" 
d="M219 -50h-199v46h148v748h-148v46h199v-840z" />
    <glyph glyph-name="parenleft.case" horiz-adv-x="255" 
d="M237 -31l-38 -29q-83 100 -119.5 210.5t-36.5 219.5t36.5 219.5t119.5 210.5l38 -29q-39 -46 -66 -96t-44 -102t-24.5 -103.5t-7.5 -99.5t7.5 -99.5t24.5 -103.5t44 -102.5t66 -95.5z" />
    <glyph glyph-name="parenright.case" horiz-adv-x="255" 
d="M18 -31q39 45 66 95.5t44 102.5t24.5 103.5t7.5 99.5t-7.5 99.5t-24.5 103.5t-44 102t-66 96l38 29q83 -100 119.5 -210.5t36.5 -219.5t-36.5 -219.5t-119.5 -210.5z" />
    <glyph glyph-name="emdash.case" horiz-adv-x="891" 
d="M830 387v-44h-769v44h769z" />
    <glyph glyph-name="endash.case" horiz-adv-x="606" 
d="M545 387v-44h-484v44h484z" />
    <glyph glyph-name="hyphen.case" horiz-adv-x="425" 
d="M364 387v-44h-303v44h303z" />
    <glyph glyph-name="uni00AD.case" horiz-adv-x="425" 
d="M364 387v-44h-303v44h303z" />
    <glyph glyph-name="guillemotleft.case" horiz-adv-x="454" 
d="M171 553h53l-126 -193l126 -193h-53l-128 193zM345 553h53l-126 -193l126 -193h-53l-128 193z" />
    <glyph glyph-name="guillemotright.case" horiz-adv-x="454" 
d="M110 167h-53l126 193l-126 193h53l128 -193zM284 167h-53l126 193l-126 193h53l128 -193z" />
    <glyph glyph-name="guilsinglleft.case" horiz-adv-x="280" 
d="M171 553h53l-126 -193l126 -193h-53l-128 193z" />
    <glyph glyph-name="guilsinglright.case" horiz-adv-x="280" 
d="M110 167h-53l126 193l-126 193h53l128 -193z" />
    <glyph glyph-name="cent.osf" horiz-adv-x="578" 
d="M547 193q-14 -91 -70.5 -143t-150.5 -59v-101h-50v101q-112 7 -174 74.5t-62 185.5t62 185.5t174 74.5v93h50v-93q92 -7 148.5 -57t70.5 -138h-130q-21 75 -89 89v-308q71 15 91 96h130zM175 251q0 -66 26.5 -106t74.5 -48v309q-48 -8 -74.5 -48.5t-26.5 -106.5z" />
    <glyph glyph-name="dollar.osf" horiz-adv-x="570" 
d="M535 181q0 -85 -59 -134t-166 -54v-82h-50v82q-100 6 -159.5 59.5t-67.5 144.5h123q5 -44 32 -70.5t72 -33.5v154q-37 5 -74.5 12.5t-68 24t-49.5 45t-19 76.5q0 81 55.5 125.5t155.5 49.5v81h50v-81q91 -6 145.5 -56.5t62.5 -137.5h-123q-3 38 -25 62t-60 31v-133h1
q38 -6 77.5 -13.5t72 -25t53.5 -47.5t21 -79zM177 415q0 -29 23.5 -41.5t59.5 -19.5v127q-40 -3 -61.5 -20t-21.5 -46zM310 92q47 4 72.5 23.5t25.5 51.5q0 35 -28 50t-70 23v-148z" />
    <glyph glyph-name="Euro.osf" horiz-adv-x="583" 
d="M550 57q-41 -33 -91.5 -49t-90.5 -16q-117 0 -188 59.5t-88 169.5h-60v38h56q-1 7 -1 13.5v14.5v13.5t1 12.5h-56v38h60q16 111 87 170.5t189 59.5q43 0 88.5 -11.5t80.5 -33.5l-50 -86q-25 17 -56 24.5t-63 7.5q-58 0 -95.5 -33.5t-50.5 -96.5h212l-22 -39h-195
q-1 -6 -1 -12.5v-13.5v-13.5t1 -13.5h167l-22 -39h-140q14 -63 51.5 -96.5t94.5 -33.5q30 0 65.5 12t64.5 35z" />
    <glyph glyph-name="sterling.osf" horiz-adv-x="545" 
d="M507 96v-96h-463v93q57 35 78 72.5t21 72.5q0 7 -1 10h-86v44h70q-15 30 -33 62.5t-18 66.5q0 76 55.5 118t155.5 42q95 0 151.5 -50.5t63.5 -142.5h-120q-4 45 -28 69.5t-65 24.5q-37 0 -57.5 -17.5t-20.5 -48.5q0 -15 6 -30t14.5 -31t18 -31.5t17.5 -31.5h149v-44h-137
v-3q0 -52 -53.5 -89.5t-161.5 -57.5v-2h444z" />
    <glyph glyph-name="yen.osf" horiz-adv-x="626" 
d="M447 240h86v-37h-103l-22 -49h125v-37h-142l-53 -117h-141l52 117h-150v37h167l21 49h-188v37h79l-150 332h151l138 -325h2l138 325h141z" />
    <glyph glyph-name="plus.case" horiz-adv-x="477" 
d="M444 330h-181v-184h-50v184h-180v44h180v184h50v-184h181v-44z" />
    <glyph glyph-name="minus.case" horiz-adv-x="531" 
d="M60 374h411v-44h-411v44z" />
    <glyph glyph-name="multiply.case" horiz-adv-x="458" 
d="M263 346l149 -149l-34 -34l-149 149l-150 -149l-34 33l150 150l-150 149l34 34l150 -149l149 149l35 -34z" />
    <glyph glyph-name="divide.case" horiz-adv-x="521" 
d="M260 466q-35 0 -35 33q0 35 35 35q37 0 37 -35q0 -33 -37 -33zM55 374h411v-44h-411v44zM260 170q-35 0 -35 33q0 35 35 35q37 0 37 -35q0 -33 -37 -33z" />
    <glyph glyph-name="equal.case" horiz-adv-x="531" 
d="M60 460h411v-44h-411v44zM60 288h411v-44h-411v44z" />
    <glyph glyph-name="notequal.case" horiz-adv-x="531" 
d="M309 416l-37 -128h199v-44h-212l-42 -144h-50l42 144h-149v44h162l37 128h-199v44h212l41 142h50l-41 -142h149v-44h-162z" />
    <glyph glyph-name="greater.case" horiz-adv-x="477" 
d="M442 396v-87l-383 -167v49l377 160v2l-377 162v49z" />
    <glyph glyph-name="less.case" horiz-adv-x="477" 
d="M40 353v-2l377 -160v-49l-383 167v87l383 168v-49z" />
    <glyph glyph-name="greaterequal.case" horiz-adv-x="547" 
d="M485 470v-84l-411 -135v47l405 128v2l-405 131v47zM73 172h411v-44h-411v44z" />
    <glyph glyph-name="lessequal.case" horiz-adv-x="547" 
d="M474 251l-411 135v84l411 136v-47l-405 -131v-2l405 -128v-47zM475 172v-44h-411v44h411z" />
    <glyph glyph-name="plusminus.case" horiz-adv-x="535" 
d="M473 448v-44h-181v-156h-50v156h-180v44h180v157h50v-157h181zM62 172h411v-44h-411v44z" />
    <glyph glyph-name="logicalnot.case" horiz-adv-x="522" 
d="M459 446v-198h-50v155h-361v43h411z" />
    <glyph glyph-name="percent.osf" horiz-adv-x="702" 
d="M174 266q-66 0 -103 41.5t-37 116.5t37 116.5t103 41.5t103 -41.5t37 -116.5t-37 -116.5t-103 -41.5zM544 582l35 -24l-423 -568l-35 25zM175 338q23 0 36 22.5t13 63.5t-13 63.5t-36 22.5q-24 0 -37.5 -22.5t-13.5 -63.5t13.5 -63.5t37.5 -22.5zM527 -10
q-66 0 -103 41.5t-37 115.5q0 75 37 117t103 42t103 -42t37 -117q0 -74 -37 -115.5t-103 -41.5zM527 62q24 0 37 22.5t13 62.5q0 41 -13 63.5t-37 22.5q-23 0 -36.5 -22.5t-13.5 -63.5q0 -40 13.5 -62.5t36.5 -22.5z" />
    <glyph glyph-name="perthousand.osf" horiz-adv-x="1016" 
d="M174 266q-66 0 -103 41.5t-37 116.5t37 116.5t103 41.5t103 -41.5t37 -116.5t-37 -116.5t-103 -41.5zM544 582l35 -24l-423 -568l-35 25zM175 338q23 0 36 22.5t13 63.5t-13 63.5t-36 22.5q-24 0 -37.5 -22.5t-13.5 -63.5t13.5 -63.5t37.5 -22.5zM527 -10
q-66 0 -103 41.5t-37 115.5q0 75 37 117t103 42t103 -42t37 -117q0 -74 -37 -115.5t-103 -41.5zM847 -10q-66 0 -103 41.5t-37 115.5q0 75 37 117t103 42t103 -42t37 -117q0 -74 -37 -115.5t-103 -41.5zM527 62q24 0 37 22.5t13 62.5q0 41 -13 63.5t-37 22.5
q-23 0 -36.5 -22.5t-13.5 -63.5q0 -40 13.5 -62.5t36.5 -22.5zM847 62q24 0 37 22.5t13 62.5q0 41 -13 63.5t-37 22.5q-23 0 -36.5 -22.5t-13.5 -63.5q0 -40 13.5 -62.5t36.5 -22.5z" />
    </font>
</defs>
</svg>
