<?xml version="1.0" standalone="no"?>
<!DOCTYPE svg PUBLIC "-//W3C//DTD SVG 1.1//EN" "http://www.w3.org/Graphics/SVG/1.1/DTD/svg11.dtd" >
<svg xmlns="http://www.w3.org/2000/svg" xmlns:xlink="http://www.w3.org/1999/xlink" version="1.1">
<metadata>
Created by FontForge 20201107 at Fri Aug  4 06:25:17 2023
 By 
Copyright (c) 2017 by Alberto Romanos. All rights reserved.
</metadata>
<defs>
<font id="SVN-AlphaCreative-Italic" horiz-adv-x="604" >
  <font-face 
    font-family="SVN-AlphaCreative"
    font-weight="400"
    font-style="italic"
    font-stretch="normal"
    units-per-em="1000"
    panose-1="0 0 5 0 0 0 0 0 0 0"
    ascent="800"
    descent="-200"
    x-height="495"
    cap-height="740"
    bbox="-712 -240 1220 1101"
    underline-thickness="50"
    underline-position="-100"
    slope="-10"
    unicode-range="U+000D-FB02"
  />
<missing-glyph horiz-adv-x="1274" 
d="M846 -3q-7 -7 -17 -7q-14 0 -17 7.5t-3 15.5v324l-339 -340q-7 -7 -17 -7q-14 0 -17 7.5t-3 15.5v324l-340 -340q-7 -7 -17 -7q-8 0 -12.5 5t-4.5 13q0 10 5 15l342 341h-324q-8 0 -15.5 3t-7.5 16q0 5 2 8.5t5 7.5l340 342h-327q-20 0 -20 19v1q0 19 20 19h370
q8 0 15.5 -3t7.5 -17q0 -10 -8 -17l-341 -340h330q8 0 14 -6t6 -14v-327l339 338q7 8 17 8q13 0 15.5 -7.5t2.5 -14.5v-324l340 338q6 8 16 8q8 0 12.5 -5.5t4.5 -13.5q0 -3 -1 -7t-5 -7z" />
    <glyph glyph-name="fi" unicode="fi" horiz-adv-x="595" 
d="M562 495l-87 -495h-82l76 434h-251l-77 -434h-82l77 434h-80l10 61h152l1 2q-29 14 -44 40.5t-15 58.5q0 42 14.5 76t41.5 58t65 37t86 13q53 0 88 -19l-23 -63q-25 14 -60 14q-56 0 -88.5 -27.5t-41.5 -77.5l-19 -112h339zM600 710l-18 -105h-82l18 105h82z" />
    <glyph glyph-name="fl" unicode="fl" horiz-adv-x="603" 
d="M223 495h173l-10 -61h-168l-77 -434h-82l77 434h-80l10 61h152l1 2q-29 14 -44 40.5t-15 58.5q0 42 14.5 76t41.5 58t65 37t86 13q53 0 88 -19l-23 -63q-25 14 -60 14q-56 0 -88.5 -27.5t-41.5 -77.5zM619 770l-136 -770h-82l136 770h82z" />
    <glyph glyph-name="f_f" unicode="ff" horiz-adv-x="684" 
d="M691 712q-56 0 -88.5 -27.5t-41.5 -77.5l-19 -112h173l-10 -61h-168l-77 -434h-82l77 434h-237l-77 -434h-82l77 434h-80l10 61h152l1 2q-29 14 -44 40.5t-15 58.5q0 42 14.5 76t41.5 58t65 37t86 13q53 0 88 -19l-23 -63q-25 14 -60 14q-56 0 -88.5 -27.5t-41.5 -77.5
l-19 -112h314l1 2q-29 14 -44 40.5t-15 58.5q0 42 14.5 76t41.5 58t65 37t86 13q56 0 95 -21l-23 -64q-27 17 -67 17z" />
    <glyph glyph-name="f_f_i" unicode="ffi" horiz-adv-x="915" 
d="M882 495l-87 -495h-82l76 434h-251l-77 -434h-82l77 434h-238l-77 -434h-82l77 434h-80l10 61h152l1 2q-29 14 -44 40.5t-15 58.5q0 42 14.5 76t41.5 58t65 37t86 13q53 0 88 -19l-23 -63q-25 14 -60 14q-56 0 -88.5 -27.5t-41.5 -77.5l-19 -112h315l1 2q-29 14 -44 40.5
t-15 58.5q0 42 14.5 76t41.5 58t65 37t86 13q53 0 88 -19l-23 -63q-25 14 -60 14q-56 0 -88.5 -27.5t-41.5 -77.5l-19 -112h339zM920 710l-18 -105h-82l18 105h82z" />
    <glyph glyph-name="f_f_l" unicode="ffl" horiz-adv-x="924" 
d="M543 495h173l-10 -61h-168l-77 -434h-82l77 434h-238l-77 -434h-82l77 434h-80l10 61h152l1 2q-29 14 -44 40.5t-15 58.5q0 42 14.5 76t41.5 58t65 37t86 13q53 0 88 -19l-23 -63q-25 14 -60 14q-56 0 -88.5 -27.5t-41.5 -77.5l-19 -112h315l1 2q-29 14 -44 40.5
t-15 58.5q0 42 14.5 76t41.5 58t65 37t86 13q53 0 88 -19l-23 -63q-25 14 -60 14q-56 0 -88.5 -27.5t-41.5 -77.5zM939 770l-136 -770h-82l136 770h82z" />
    <glyph glyph-name=".notdef" horiz-adv-x="1274" 
d="M846 -3q-7 -7 -17 -7q-14 0 -17 7.5t-3 15.5v324l-339 -340q-7 -7 -17 -7q-14 0 -17 7.5t-3 15.5v324l-340 -340q-7 -7 -17 -7q-8 0 -12.5 5t-4.5 13q0 10 5 15l342 341h-324q-8 0 -15.5 3t-7.5 16q0 5 2 8.5t5 7.5l340 342h-327q-20 0 -20 19v1q0 19 20 19h370
q8 0 15.5 -3t7.5 -17q0 -10 -8 -17l-341 -340h330q8 0 14 -6t6 -14v-327l339 338q7 8 17 8q13 0 15.5 -7.5t2.5 -14.5v-324l340 338q6 8 16 8q8 0 12.5 -5.5t4.5 -13.5q0 -3 -1 -7t-5 -7z" />
    <glyph glyph-name=".null" horiz-adv-x="0" 
 />
    <glyph glyph-name="nonmarkingreturn" unicode="&#xd;" horiz-adv-x="238" 
 />
    <glyph glyph-name="space" unicode=" " horiz-adv-x="238" 
 />
    <glyph glyph-name="exclam" unicode="!" horiz-adv-x="261" 
d="M174 740h86l-101 -547h-76zM153 95l-17 -95h-99l16 95h100z" />
    <glyph glyph-name="quotedbl" unicode="&#x22;" horiz-adv-x="333" 
d="M230 770l-36 -203h-78l36 203h78zM364 770l-36 -203h-78l36 203h78z" />
    <glyph glyph-name="numbersign" unicode="#" horiz-adv-x="679" 
d="M556 506l-69 -248h128l-12 -40h-127l-60 -218h-47l61 218h-228l-61 -218h-47l61 218h-126l11 40h127l69 248h-125l12 40h124l55 194h47l-53 -194h226l52 194h47l-54 -194h131l-12 -40h-130zM510 506h-225l-71 -247h227z" />
    <glyph glyph-name="dollar" unicode="$" horiz-adv-x="654" 
d="M552 498q1 8 1 15.5v15.5q0 64 -32.5 102t-95.5 45l-45 -257q41 -7 82 -16t74 -27.5t53.5 -49t20.5 -80.5q0 -57 -21.5 -103t-61 -79t-96.5 -52t-127 -22l-18 -102h-46l18 103q-106 5 -162.5 62t-56.5 157q0 11 0.5 21.5t1.5 21.5h86q-3 -17 -3 -31q0 -70 38 -111
t109 -47l51 287q-39 6 -77.5 15t-68.5 26t-48.5 45t-18.5 73q0 54 19.5 97t56.5 74t89 48.5t118 20.5l18 100h46l-18 -101q97 -6 149 -60.5t52 -149.5q0 -10 -0.5 -20t-1.5 -21h-85zM199 529q0 -25 10.5 -42t29 -28.5t43.5 -18.5t53 -13l44 250q-85 -5 -132.5 -44
t-47.5 -104zM520 226q0 30 -12.5 49.5t-33.5 32.5t-49 21t-59 14l-49 -279q95 5 149 47.5t54 114.5z" />
    <glyph glyph-name="percent" unicode="%" horiz-adv-x="716" 
d="M670 750l29 -25l-609 -735l-28 25zM201 360q-54 0 -83 36.5t-29 101.5q0 51 13 93.5t36 73.5t56 48t73 17q55 0 84 -36.5t29 -101.5q0 -51 -13 -93.5t-36 -73.5t-56.5 -48t-73.5 -17zM212 413q23 0 41.5 14t32 37.5t20.5 55t7 67.5q0 42 -14 66t-41 24q-23 0 -41.5 -13.5
t-32 -37t-21 -55.5t-7.5 -68q0 -42 14 -66t42 -24zM491 -10q-55 0 -84 36.5t-29 101.5q0 51 12.5 93.5t36 73.5t56 48t73.5 17q55 0 84 -36.5t29 -101.5q0 -51 -12.5 -93.5t-36 -73.5t-56.5 -48t-73 -17zM500 43q23 0 41.5 14t32 37.5t21 55t7.5 67.5q0 42 -14 66t-41 24
q-23 0 -41.5 -13.5t-32 -37t-20.5 -55.5t-7 -68q0 -42 14 -66t40 -24z" />
    <glyph glyph-name="ampersand" unicode="&#x26;" horiz-adv-x="794" 
d="M767 435q-29 -77 -66 -141t-81 -116l125 -132l-62 -56l-120 128q-68 -63 -145 -95.5t-160 -32.5q-108 0 -166 46.5t-58 127.5q0 70 27.5 116.5t70.5 77.5t96 51.5t104 37.5q10 3 19.5 6.5t18.5 6.5q-91 0 -143 32t-52 86q0 39 17 70.5t49.5 54t78.5 35t104 12.5
q92 0 141.5 -36.5t49.5 -103.5q0 -49 -22 -83.5t-57 -59.5t-80.5 -43t-91.5 -35t-89.5 -34t-77 -40.5t-54 -56.5t-20.5 -81q0 -53 39 -83.5t114 -30.5q65 0 126.5 26.5t116 77t100.5 123t81 165.5zM258 561q0 -45 31 -72t86 -27l-2 -1q32 11 59.5 23.5t48 28t32.5 35.5
t12 47q0 39 -29 60.5t-84 21.5q-72 0 -113 -30.5t-41 -85.5z" />
    <glyph glyph-name="quotesingle" unicode="'" horiz-adv-x="200" 
d="M230 770l-36 -203h-78l36 203h78z" />
    <glyph glyph-name="parenleft" unicode="(" horiz-adv-x="269" 
d="M174 -216l-42 -24q-24 42 -41 90t-28 97.5t-16 99.5t-5 97q0 78 15 156.5t47 158t83.5 159.5t124.5 162l33 -24q-71 -80 -119.5 -158.5t-78.5 -155.5t-43.5 -151.5t-13.5 -144.5q0 -42 4.5 -89t15 -94.5t26 -93t38.5 -85.5z" />
    <glyph glyph-name="parenright" unicode=")" horiz-adv-x="269" 
d="M-67 -216q70 79 118.5 158t78.5 156t43.5 151.5t13.5 144.5q0 43 -4.5 89.5t-14.5 94t-26 93t-38 85.5l43 24q23 -42 40 -90t28 -97.5t16 -99.5t5 -97q0 -78 -15 -156.5t-47 -158t-83.5 -159.5t-123.5 -162z" />
    <glyph glyph-name="asterisk" unicode="*" horiz-adv-x="376" 
d="M337 607q-40 0 -79 22l-3 -2l60 -108l-52 -34q-17 31 -20 63q-2 20 1 39t9 40l-2 1l-98 -108l-41 32q22 26 48 43t55 25q17 8 36 11h-1l1 2l-120 42l26 54q38 -11 61 -35.5t36 -59.5v1h2l24 135h58q-8 -40 -28 -73.5t-52 -63.5l1 1v-2l135 41l9 -55q-36 -11 -66 -11z" />
    <glyph glyph-name="plus" unicode="+" horiz-adv-x="462" 
d="M419 232h-168l-30 -171h-46l30 171h-168l7 40h167l30 171h47l-30 -171h169z" />
    <glyph glyph-name="comma" unicode="," horiz-adv-x="225" 
d="M143 95l-14 -81q-11 -60 -44.5 -102.5t-84.5 -59.5l10 54q43 11 71.5 35.5t39.5 58.5h-94l17 95h99z" />
    <glyph glyph-name="hyphen" unicode="-" horiz-adv-x="402" 
d="M339 271l-7 -39h-267l6 39h268z" />
    <glyph glyph-name="period" unicode="." horiz-adv-x="227" 
d="M139 95l-16 -95h-100l17 95h99z" />
    <glyph glyph-name="slash" unicode="/" horiz-adv-x="414" 
d="M478 786l-472 -926l-40 14l471 926z" />
    <glyph glyph-name="zero" unicode="0" horiz-adv-x="658" 
d="M283 -10q-103 0 -157.5 74t-54.5 206q0 105 24.5 193t70 152t109.5 99.5t142 35.5q104 0 158.5 -74t54.5 -206q0 -105 -24.5 -193t-70 -152t-109.5 -99.5t-143 -35.5zM297 63q55 0 100 31t77.5 85t50 127.5t17.5 157.5q0 100 -35 156.5t-102 56.5q-56 0 -101 -31t-77 -85
t-49.5 -127.5t-17.5 -157.5q0 -100 35 -156.5t102 -56.5z" />
    <glyph glyph-name="one" unicode="1" horiz-adv-x="344" 
d="M336 740l-130 -740h-86l124 708h-2q-11 -67 -53.5 -104t-108.5 -37l13 75q66 0 107.5 26t49.5 72h86z" />
    <glyph glyph-name="two" unicode="2" horiz-adv-x="602" 
d="M56 70h470l-13 -70h-512l11 65q112 30 202 78.5t153 111t96.5 135.5t33.5 152q0 63 -31.5 99t-91.5 36q-72 0 -124 -51t-72 -144h-83q29 127 105.5 197.5t187.5 70.5q98 0 149.5 -52t51.5 -146q0 -92 -37 -171.5t-106.5 -142t-168 -105.5t-221.5 -61v-2z" />
    <glyph glyph-name="three" unicode="3" horiz-adv-x="601" 
d="M321 412q107 0 164.5 -46t57.5 -128q0 -57 -21 -102.5t-59.5 -78t-94 -50t-124.5 -17.5q-100 0 -153 51t-53 144q0 11 1 22t3 23h82q-2 -9 -2 -18v-17q0 -63 34.5 -98.5t100.5 -35.5q91 0 144 45.5t53 121.5q0 57 -39.5 88t-113.5 31h-22l12 67q94 11 148 53.5t54 108.5
q0 49 -32.5 76t-94.5 27q-67 0 -114.5 -45t-66.5 -126h-81q27 115 101.5 178.5t181.5 63.5q97 0 148.5 -38.5t51.5 -106.5q0 -45 -18.5 -80t-53.5 -60t-85 -38t-113 -13v-2h4v0z" />
    <glyph glyph-name="four" unicode="4" horiz-adv-x="597" 
d="M556 192h-96l-34 -192h-85l34 192h-359l14 76l365 472h161l-84 -478h97zM111 262h277l83 470h-2l-358 -468v-2z" />
    <glyph glyph-name="five" unicode="5" horiz-adv-x="607" 
d="M256 -10q-102 0 -158 52t-56 146v17h84q0 -67 38 -104.5t105 -37.5q47 0 85.5 15.5t65.5 43.5t41.5 67.5t14.5 88.5q0 66 -36 104t-105 38q-68 0 -114.5 -35t-74.5 -92l-81 11l134 436h394l-12 -70h-317l-113 -358h2q29 83 90 129.5t142 46.5q88 0 135 -50.5t47 -140.5
q0 -70 -22 -127t-62.5 -97t-98 -61.5t-128.5 -21.5z" />
    <glyph glyph-name="six" unicode="6" horiz-adv-x="641" 
d="M538 534q1 6 1.5 12t0.5 11q0 57 -31.5 88.5t-91.5 31.5q-45 0 -84.5 -22t-71.5 -63.5t-56 -101t-37 -135.5l-13 -72h2q17 91 81.5 142t164.5 51q93 0 141.5 -48.5t48.5 -136.5q0 -69 -23.5 -124.5t-64.5 -95t-97.5 -60.5t-123.5 -21q-109 0 -162.5 65t-53.5 191
q0 109 25.5 201t73 159.5t114 105.5t148.5 38q94 0 144.5 -48t50.5 -136q0 -8 -0.5 -15.5t-1.5 -16.5h-84zM354 406q-93 0 -148.5 -51.5t-55.5 -142.5q0 -69 39 -109t105 -40q48 0 86.5 15t65.5 42t41.5 65.5t14.5 85.5q0 64 -38 99.5t-110 35.5z" />
    <glyph glyph-name="seven" unicode="7" horiz-adv-x="532" 
d="M601 740l-11 -65q-61 -15 -115 -62.5t-99.5 -123t-80 -178t-56.5 -226.5l-14 -85h-91l13 70q24 130 63 236t91 183t115 123t135 56v2h-465l12 70h503z" />
    <glyph glyph-name="eight" unicode="8" horiz-adv-x="629" 
d="M412 415q78 -12 118.5 -57t40.5 -115q0 -58 -21 -105t-60.5 -80t-95.5 -50.5t-125 -17.5q-109 0 -167.5 47.5t-58.5 133.5q0 100 62 163.5t171 80.5v2q-69 0 -106.5 33t-37.5 92q0 48 19 86.5t54 65.5t85.5 41.5t112.5 14.5q100 0 154 -40t54 -111q0 -41 -14 -74.5
t-40 -57.5t-63 -37t-82 -13v-2zM216 519q0 -52 33 -81.5t93 -29.5q81 0 128 43.5t47 116.5q0 51 -32.5 80t-94.5 29q-80 0 -127 -42.5t-47 -115.5zM282 63q92 0 146 45t54 123q0 57 -38.5 88.5t-110.5 31.5q-93 0 -146.5 -45t-53.5 -123q0 -57 38.5 -88.5t110.5 -31.5z" />
    <glyph glyph-name="nine" unicode="9" horiz-adv-x="639" 
d="M402 750q109 0 161 -66t52 -189q0 -109 -26 -201.5t-73 -160t-113.5 -105.5t-148.5 -38q-93 0 -142.5 51.5t-49.5 144.5q0 19 3 40h84q-2 -9 -2 -15v-14q0 -63 31 -98.5t89 -35.5q91 0 156 85t92 237l15 82h-2q-16 -87 -80 -135t-164 -48q-93 0 -142.5 47t-49.5 131
q0 66 23.5 119.5t64.5 91t98 57.5t124 20zM333 354q93 0 147.5 48t54.5 133q0 66 -39.5 104t-105.5 38q-48 0 -86 -14t-65 -39.5t-41.5 -61.5t-14.5 -80q0 -61 39 -94.5t111 -33.5z" />
    <glyph glyph-name="colon" unicode=":" horiz-adv-x="232" 
d="M210 503l-16 -95h-100l17 95h99zM138 95l-16 -95h-100l17 95h99z" />
    <glyph glyph-name="semicolon" unicode=";" horiz-adv-x="234" 
d="M211 503l-16 -95h-100l17 95h99zM41 95h99l-14 -81q-11 -60 -44.5 -102.5t-84.5 -59.5l10 54q43 11 71.5 35.5t39.5 58.5h-94z" />
    <glyph glyph-name="less" unicode="&#x3c;" horiz-adv-x="471" 
d="M48 253l-1 -2l337 -154l-8 -44l-341 161l6 36l8 41l397 162l-7 -44z" />
    <glyph glyph-name="equal" unicode="=" horiz-adv-x="521" 
d="M87 343h382l-7 -40h-383zM62 201h382l-7 -40h-383z" />
    <glyph glyph-name="greater" unicode="&#x3e;" horiz-adv-x="471" 
d="M432 255l-8 -41l-398 -161l8 44l391 154l1 2l-337 156l7 44l342 -162z" />
    <glyph glyph-name="question" unicode="?" horiz-adv-x="536" 
d="M77 512q26 113 98 175.5t178 62.5q95 0 145 -45t50 -124q0 -45 -19.5 -93t-55 -97.5t-86.5 -99.5t-114 -98h-81v2q61 49 109.5 99t83 97.5t53 92t18.5 82.5q0 51 -30.5 81t-87.5 30q-67 0 -114.5 -43.5t-64.5 -121.5h-82zM261 95l-17 -95h-99l16 95h100z" />
    <glyph glyph-name="at" unicode="@" horiz-adv-x="1129" 
d="M660 122q0 14 2.5 26t6.5 23l8 20h-2q-27 -75 -87.5 -117.5t-143.5 -42.5q-67 0 -101.5 38t-34.5 105t22.5 127.5t62 105.5t93.5 71.5t117 26.5q67 0 102.5 -27t35.5 -77q0 -17 -3 -28t-8 -27h2l52 150h80l-116 -329q-3 -8 -4.5 -14t-1.5 -15q0 -22 13.5 -34.5
t40.5 -12.5q53 0 96.5 24.5t74 68.5t47.5 104.5t17 131.5t-23 127t-67.5 95t-109.5 59.5t-149 20.5q-131 0 -236.5 -42.5t-180 -119t-114.5 -182.5t-40 -232q0 -77 24 -138t70 -103t113.5 -64.5t154.5 -22.5q68 0 145 15t149 43l13 -57q-72 -28 -155.5 -43.5t-161.5 -15.5
q-102 0 -180.5 25.5t-132 74t-81.5 118t-28 158.5q0 142 45.5 260.5t130.5 203.5t205.5 132.5t270.5 47.5q98 0 174 -24t128 -69t79 -110t27 -147q0 -89 -23.5 -162t-66.5 -125.5t-104 -81t-136 -28.5q-54 0 -82.5 23.5t-28.5 65.5zM499 96q69 0 123 42t84 118l5 12
q5 18 10 34t5 39q0 48 -26.5 73.5t-78.5 25.5q-49 0 -90.5 -19t-71.5 -51t-47 -76t-17 -93t26.5 -77t77.5 -28z" />
    <glyph glyph-name="A" unicode="A" horiz-adv-x="683" 
d="M506 190h-354l-95 -190h-88l384 740h151l123 -740h-93zM496 260l-70 472h-2l-237 -472h309z" />
    <glyph glyph-name="B" unicode="B" horiz-adv-x="676" 
d="M427 412q98 0 150 -44.5t52 -122.5q0 -56 -20 -101.5t-56.5 -77.5t-89 -49t-118.5 -17h-294l130 740h278q85 0 130 -37.5t45 -103.5q0 -86 -59 -135.5t-160 -49.5v-2h12zM540 564q0 50 -31 78t-89 28h-165l-45 -256h165q76 0 120.5 40.5t44.5 109.5zM362 70
q40 0 72.5 11.5t56 33t36 51.5t12.5 68q0 54 -33 83.5t-96 29.5h-212l-49 -277h213z" />
    <glyph glyph-name="C" unicode="C" horiz-adv-x="714" 
d="M678 271q-22 -66 -56.5 -118t-79.5 -88.5t-99 -55.5t-114 -19q-127 0 -194 77t-67 216q0 105 28 191t79.5 147.5t124.5 95t163 33.5q120 0 185.5 -67t65.5 -188v-19h-83v5q0 94 -47.5 145t-132.5 51q-66 0 -120.5 -28t-92.5 -79t-59 -121.5t-21 -155.5
q0 -109 46.5 -169.5t137.5 -60.5q85 0 151.5 54.5t101.5 153.5h83v0z" />
    <glyph glyph-name="D" unicode="D" horiz-adv-x="715" 
d="M181 740h214q143 0 219.5 -77.5t76.5 -216.5q0 -101 -30 -183t-85.5 -140.5t-134.5 -90.5t-176 -32h-214zM284 70q72 0 131 26.5t100.5 74.5t64 115.5t22.5 150.5q0 110 -54.5 171.5t-157.5 61.5h-135l-106 -600h135z" />
    <glyph glyph-name="E" unicode="E" horiz-adv-x="623" 
d="M255 670l-44 -253h355l-12 -70h-356l-48 -277h401l-13 -70h-487l130 740h476l-12 -70h-390z" />
    <glyph glyph-name="F" unicode="F" horiz-adv-x="565" 
d="M255 670l-46 -260h308l-12 -70h-308l-60 -340h-86l130 740h446l-12 -70h-360z" />
    <glyph glyph-name="G" unicode="G" horiz-adv-x="736" 
d="M629 483v6q-1 89 -47.5 138.5t-128.5 49.5q-68 0 -122.5 -28t-93 -79t-59.5 -122t-21 -157q0 -108 46 -168t134 -60q52 0 96 17.5t78.5 50.5t58 80.5t35.5 107.5h-234l11 64h318l-68 -383h-81l48 269h-2q-24 -132 -105 -205.5t-203 -73.5q-106 0 -163.5 76t-57.5 210
q0 107 28.5 194.5t80 149.5t125 96t163.5 34q118 0 182.5 -66.5t64.5 -185.5v-15h-83z" />
    <glyph glyph-name="H" unicode="H" horiz-adv-x="734" 
d="M727 740l-130 -740h-86l60 341h-374l-60 -341h-86l130 740h86l-58 -329h374l58 329h86z" />
    <glyph glyph-name="I" unicode="I" horiz-adv-x="274" 
d="M181 740h86l-130 -740h-86z" />
    <glyph glyph-name="J" unicode="J" horiz-adv-x="547" 
d="M368 211l94 529h85l-93 -523q-19 -108 -86 -167.5t-170 -59.5q-86 0 -132 53.5t-46 151.5v24t2 26h81q-1 -9 -1.5 -17.5t-0.5 -16.5q0 -70 29.5 -109t83.5 -39q60 0 101 39t53 109z" />
    <glyph glyph-name="K" unicode="K" horiz-adv-x="684" 
d="M307 386l342 -386h-116l-329 381h-2l-67 -381h-84l130 740h84l-62 -351h3l429 351h108z" />
    <glyph glyph-name="L" unicode="L" horiz-adv-x="535" 
d="M490 72l-13 -72h-426l130 740h86l-117 -668h340z" />
    <glyph glyph-name="M" unicode="M" horiz-adv-x="948" 
d="M928 740l-107 -740h-86l108 732h-2l-341 -732h-154l-73 732h-2l-150 -732h-81l152 740h167l67 -732h3l333 732h166z" />
    <glyph glyph-name="N" unicode="N" horiz-adv-x="734" 
d="M727 740l-130 -740h-151l-184 732h-2l-126 -732h-83l130 740h152l184 -732h2l126 732h82z" />
    <glyph glyph-name="O" unicode="O" horiz-adv-x="755" 
d="M332 -10q-128 0 -196 77.5t-68 215.5q0 105 28 191t80 147.5t125.5 95t164.5 33.5q128 0 196 -77.5t68 -215.5q0 -105 -28.5 -191t-80.5 -147.5t-125.5 -95t-163.5 -33.5zM345 63q67 0 121.5 28t93 79t59.5 121.5t21 155.5q0 109 -48 169.5t-139 60.5q-68 0 -122.5 -28
t-92.5 -78.5t-59 -121t-21 -155.5q0 -109 47.5 -170t139.5 -61z" />
    <glyph glyph-name="P" unicode="P" horiz-adv-x="632" 
d="M435 740q104 0 159 -48t55 -134q0 -60 -20.5 -109t-58.5 -83.5t-92.5 -53.5t-121.5 -19h-167l-52 -293h-86l130 740h254zM374 363q42 0 76.5 13t58.5 37t37 58t13 76q0 58 -33.5 90.5t-96.5 32.5h-174l-54 -307h173z" />
    <glyph glyph-name="Q" unicode="Q" horiz-adv-x="769" 
d="M416 69l287 1l-12 -70h-358q-128 0 -196 77t-68 213q0 103 28 187.5t80 145t125 94t163 33.5q65 0 115 -19.5t83.5 -56t51 -88.5t17.5 -116q0 -87 -22.5 -160t-63.5 -126.5t-99.5 -83t-130.5 -29.5v-2zM158 298q0 -109 48 -170t139 -61q67 0 121.5 28t93 78.5t59.5 120.5
t21 154q0 108 -48 168.5t-139 60.5q-67 0 -121.5 -27.5t-93 -77.5t-59.5 -120t-21 -154z" />
    <glyph glyph-name="R" unicode="R" horiz-adv-x="668" 
d="M668 569q0 -57 -20.5 -103t-58 -79t-92 -51t-121.5 -18v-2q38 0 71 -24.5t52 -70.5l93 -221h-97l-129 316h-173l-56 -316h-86l130 740h264q108 0 165.5 -45t57.5 -126zM389 383q88 0 138.5 47t50.5 125q0 54 -36 84.5t-103 30.5h-184l-50 -287h184z" />
    <glyph glyph-name="S" unicode="S" horiz-adv-x="660" 
d="M282 -10q-116 0 -178.5 57.5t-62.5 162.5q0 11 0.5 21.5t1.5 21.5h86q-3 -17 -3 -31q0 -76 44.5 -117.5t126.5 -41.5q105 0 165 43.5t60 119.5q0 34 -16 55t-42 34t-60 20.5t-70 13.5q-41 7 -80.5 15.5t-71.5 25.5t-51.5 45t-19.5 75q0 56 21 100.5t61 75.5t96 47.5
t127 16.5q109 0 167 -55t58 -156q0 -10 -0.5 -20t-1.5 -21h-85q1 8 1 15.5v15.5q0 71 -39.5 109.5t-114.5 38.5q-94 0 -147 -39.5t-53 -108.5q0 -29 14.5 -47.5t39 -30t56 -18.5t65.5 -13q42 -7 84 -16t75.5 -27t55 -49t21.5 -82q0 -59 -23 -106.5t-66 -80.5t-104 -51
t-137 -18z" />
    <glyph glyph-name="T" unicode="T" horiz-adv-x="576" 
d="M633 670h-228l-118 -670h-86l118 670h-228l12 70h542z" />
    <glyph glyph-name="U" unicode="U" horiz-adv-x="714" 
d="M633 740h82l-86 -485q-22 -125 -105.5 -195t-211.5 -70q-111 0 -170.5 52.5t-59.5 149.5q0 30 6 63l86 485h85l-86 -491q-4 -23 -4 -45q0 -68 40.5 -104.5t116.5 -36.5q89 0 147 49t74 137z" />
    <glyph glyph-name="V" unicode="V" horiz-adv-x="652" 
d="M722 740l-360 -740h-159l-99 740h93l88 -732h2l347 732h88z" />
    <glyph glyph-name="W" unicode="W" horiz-adv-x="1011" 
d="M1073 740l-301 -740h-161l-20 732h-2l-276 -732h-161l-40 740h93l33 -732h2l279 732h149l23 -732h2l292 732h88z" />
    <glyph glyph-name="X" unicode="X" horiz-adv-x="644" 
d="M440 386l149 -386h-108l-134 381h-2l-268 -381h-107l285 386l-132 354h100l124 -351h2l247 351h99z" />
    <glyph glyph-name="Y" unicode="Y" horiz-adv-x="656" 
d="M749 740l-504 -740h-94l187 277h-84l-153 463h100l147 -455h2l305 455h94z" />
    <glyph glyph-name="Z" unicode="Z" horiz-adv-x="662" 
d="M19 72l-1 -2h582l-13 -70h-592l29 163l648 505v2h-545l12 70h557l-29 -163z" />
    <glyph glyph-name="bracketleft" unicode="[" horiz-adv-x="295" 
d="M222 727l-161 -914h140l-8 -43h-188l177 1000h188l-7 -43h-141z" />
    <glyph glyph-name="backslash" unicode="\" horiz-adv-x="404" 
d="M312 -126l-46 -14l-144 926l45 14z" />
    <glyph glyph-name="bracketright" unicode="]" horiz-adv-x="295" 
d="M121 -230h-188l8 43h140l161 914h-139l7 43h188z" />
    <glyph glyph-name="asciicircum" unicode="^" horiz-adv-x="517" 
d="M502 353h-50l-107 361h-2l-235 -361h-51l240 367h95z" />
    <glyph glyph-name="underscore" unicode="_" horiz-adv-x="545" 
d="M455 -71l-6 -39h-474l7 39h473z" />
    <glyph glyph-name="grave" unicode="`" horiz-adv-x="228" 
d="M283 637l-33 -46l-161 89l37 51z" />
    <glyph glyph-name="a" unicode="a" 
d="M571 495l-87 -495h-82l28 163h-2q-14 -81 -70.5 -127t-142.5 -46q-84 0 -127.5 52t-43.5 146q0 70 18.5 128.5t53 100.5t82.5 65t108 23q75 0 115.5 -35t40.5 -98q0 -9 -1 -18.5t-3 -20.5h2l29 162h82zM259 58q76 0 126.5 51t66.5 139q2 15 3.5 27.5t1.5 24.5
q0 65 -33.5 101.5t-97.5 36.5q-45 0 -81 -17t-62 -48t-40 -74t-14 -95q0 -69 33.5 -107.5t96.5 -38.5z" />
    <glyph glyph-name="b" unicode="b" 
d="M389 505q84 0 128 -52t44 -145q0 -71 -18.5 -129.5t-53 -100.5t-83 -65t-108.5 -23q-75 0 -115.5 35t-40.5 98q0 21 4 40h-2l-29 -163h-82l136 770h82l-77 -437h2q14 81 70.5 126.5t142.5 45.5zM278 58q45 0 81.5 17t62 47.5t39.5 73.5t14 95q0 69 -33.5 108t-96.5 39
q-76 0 -126.5 -51t-66.5 -139q-2 -15 -3.5 -27.5t-1.5 -24.5q0 -65 33.5 -101.5t97.5 -36.5z" />
    <glyph glyph-name="c" unicode="c" horiz-adv-x="554" 
d="M243 -10q-97 0 -148.5 53.5t-51.5 150.5q0 70 20.5 127.5t59 98t92 63t119.5 22.5q90 0 140.5 -45t55.5 -129h-82q-7 51 -38.5 79t-87.5 28q-44 0 -79.5 -17t-61 -48t-39.5 -74.5t-14 -95.5q0 -69 32.5 -107t95.5 -38q58 0 101 30.5t67 86.5h83q-32 -88 -100.5 -136.5
t-163.5 -48.5z" />
    <glyph glyph-name="d" unicode="d" 
d="M620 770l-136 -770h-82l28 163h-2q-14 -81 -70.5 -127t-142.5 -46q-84 0 -127.5 52t-43.5 146q0 70 18.5 128.5t53 100.5t82.5 65t108 23q75 0 115.5 -35t40.5 -98q0 -9 -1 -18.5t-3 -20.5h2l78 437h82zM259 58q76 0 126.5 51t66.5 139q2 15 3.5 27.5t1.5 24.5
q0 65 -33.5 101.5t-97.5 36.5q-45 0 -81 -17t-62 -48t-40 -74t-14 -95q0 -69 33.5 -107.5t96.5 -38.5z" />
    <glyph glyph-name="e" unicode="e" horiz-adv-x="555" 
d="M325 505q92 0 142 -48.5t50 -138.5q0 -16 -2 -33.5t-6 -37.5l-3 -12h-379q0 -8 -0.5 -16.5t-0.5 -17.5q0 -69 31 -107.5t89 -38.5q60 0 104.5 31.5t64.5 87.5h81q-27 -88 -96 -136t-166 -48q-92 0 -141.5 53t-49.5 148q0 70 20 128t57 99.5t89 64t116 22.5zM314 440
q-69 0 -116.5 -44.5t-63.5 -119.5h298q1 8 1.5 15t0.5 14q0 65 -31 100t-89 35z" />
    <glyph glyph-name="f" unicode="f" horiz-adv-x="365" 
d="M372 712q-56 0 -88.5 -27.5t-41.5 -77.5l-19 -112h173l-10 -61h-168l-77 -434h-82l77 434h-80l10 61h152l1 2q-29 14 -44 40.5t-15 58.5q0 42 14.5 76t41.5 58t65 37t86 13q56 0 95 -21l-23 -64q-27 17 -67 17z" />
    <glyph glyph-name="g" unicode="g" 
d="M571 495l-90 -506q-19 -109 -91 -169t-184 -60q-100 0 -152 48.5t-44 135.5l79 8q-5 -59 28.5 -92t99.5 -33q73 0 120.5 41t60.5 115l33 182h-2q-15 -81 -71.5 -127t-142.5 -46q-84 0 -127.5 52t-43.5 145q0 70 18.5 128.5t53 100t83 64.5t107.5 23q75 0 115.5 -35
t40.5 -98q0 -9 -1 -18.5t-3 -20.5h2l29 162h82zM260 60q75 0 125.5 50.5t66.5 138.5q2 15 3.5 27t1.5 25q0 64 -33.5 100.5t-97.5 36.5q-45 0 -81 -17t-61.5 -47.5t-39.5 -73t-14 -94.5q0 -69 33 -107.5t97 -38.5z" />
    <glyph glyph-name="h" unicode="h" horiz-adv-x="580" 
d="M375 505q72 0 110.5 -38t38.5 -108q0 -12 -1 -24.5t-4 -26.5l-54 -308h-82l54 306q3 16 3 33q0 48 -27.5 73.5t-78.5 25.5q-67 0 -112 -44t-59 -123l-48 -271h-82l136 770h82l-79 -445h2q16 85 68.5 132.5t132.5 47.5z" />
    <glyph glyph-name="i" unicode="i" horiz-adv-x="235" 
d="M158 710h82l-18 -105h-82zM120 495h82l-87 -495h-82z" />
    <glyph glyph-name="j" unicode="j" horiz-adv-x="235" 
d="M158 710h82l-18 -105h-82zM120 495h82l-128 -725h-82z" />
    <glyph glyph-name="k" unicode="k" horiz-adv-x="545" 
d="M259 259l242 -259h-108l-231 253h-2l-45 -253h-82l136 770h82l-90 -508h3l299 233h106z" />
    <glyph glyph-name="l" unicode="l" horiz-adv-x="235" 
d="M169 770h82l-136 -770h-82z" />
    <glyph glyph-name="m" unicode="m" horiz-adv-x="909" 
d="M710 505q71 0 108 -36.5t37 -104.5q0 -13 -1.5 -25t-3.5 -26l-55 -313h-82l55 311q3 16 3 32q0 46 -26.5 70.5t-75.5 24.5q-65 0 -108.5 -42.5t-57.5 -119.5l-48 -276h-82l55 311q3 16 3 32q0 46 -26 70.5t-76 24.5q-65 0 -108.5 -42.5t-57.5 -119.5l-48 -276h-82l87 495
h82l-29 -166h2q15 84 67 130t130 46q71 0 107.5 -35.5t36.5 -98.5q0 -20 -3 -42h2q14 84 65.5 130t129.5 46z" />
    <glyph glyph-name="n" unicode="n" horiz-adv-x="580" 
d="M375 505q72 0 110.5 -38t38.5 -108q0 -12 -1 -24.5t-4 -26.5l-54 -308h-82l54 306q3 16 3 33q0 48 -27.5 73.5t-78.5 25.5q-67 0 -112.5 -44t-59.5 -123l-47 -271h-82l87 495h82l-30 -170h2q16 85 68.5 132.5t132.5 47.5z" />
    <glyph glyph-name="o" unicode="o" horiz-adv-x="583" 
d="M246 -10q-98 0 -150.5 53.5t-52.5 150.5q0 70 21 127.5t59.5 98.5t92.5 63t121 22q99 0 151 -53.5t52 -150.5q0 -70 -20.5 -127.5t-59 -98t-93 -63t-121.5 -22.5zM258 58q45 0 82 17t62.5 47.5t39.5 73.5t14 95q0 69 -33.5 108t-97.5 39q-45 0 -81 -17t-62 -48t-40 -74
t-14 -95q0 -69 33.5 -107.5t96.5 -38.5z" />
    <glyph glyph-name="p" unicode="p" 
d="M389 505q84 0 128 -52t44 -145q0 -71 -18.5 -129.5t-53 -100.5t-83 -65t-108.5 -23q-75 0 -115.5 35t-40.5 98q0 21 4 40h-2l-70 -393h-82l128 725h82l-28 -162h2q14 81 70.5 126.5t142.5 45.5zM278 57q45 0 81.5 17t62 48t39.5 74t14 95q0 69 -33.5 108t-97.5 39
q-75 0 -125.5 -51t-66.5 -139l-3.5 -28t-1.5 -24q0 -65 33.5 -102t97.5 -37z" />
    <glyph glyph-name="q" unicode="q" 
d="M571 495l-128 -725h-82l69 393h-2q-14 -81 -70.5 -127t-142.5 -46q-84 0 -127.5 52t-43.5 146q0 70 18.5 128.5t53 100.5t82.5 65t108 23q75 0 115.5 -35t40.5 -98q0 -9 -1 -18.5t-3 -20.5h2l29 162h82zM259 57q76 0 126.5 50t66.5 141q2 15 3.5 27.5t1.5 25.5
q0 65 -34 101t-97 36q-45 0 -81 -17t-62 -48t-40 -74t-14 -95q0 -69 33.5 -108t96.5 -39z" />
    <glyph glyph-name="r" unicode="r" horiz-adv-x="409" 
d="M369 505q21 0 40.5 -3.5t33.5 -11.5l-38 -77q-14 8 -32 12.5t-38 4.5q-69 0 -115.5 -49t-61.5 -138l-43 -243h-82l87 495h82l-33 -188h2q16 94 68 146t130 52z" />
    <glyph glyph-name="s" unicode="s" horiz-adv-x="503" 
d="M205 -10q-88 0 -135.5 35t-47.5 100q0 15 3 35h79q-3 -14 -3 -24q0 -42 30 -65t84 -23q69 0 107.5 26t38.5 72q0 21 -10.5 35t-28.5 22.5t-41 14t-48 10.5q-29 5 -57 12t-51 19t-37 32t-14 52q0 75 59.5 118.5t162.5 43.5q81 0 125 -33.5t44 -95.5q0 -17 -3 -35h-79
q2 7 2 12.5v11.5q0 40 -25.5 61.5t-74.5 21.5q-60 0 -94.5 -23.5t-34.5 -65.5q0 -18 9.5 -29.5t26 -19t38 -12.5t44.5 -9q30 -6 60.5 -13t54.5 -20.5t39.5 -35.5t15.5 -57q0 -81 -64 -127t-175 -46z" />
    <glyph glyph-name="t" unicode="t" horiz-adv-x="370" 
d="M164 145q-1 -5 -1.5 -10t-0.5 -10q0 -32 20 -49.5t57 -17.5q39 0 74 16l-11 -64q-22 -9 -48.5 -14.5t-52.5 -5.5q-60 0 -92 29t-32 83q0 9 1 18t3 20l52 294h-80l10 61h87l30 172h82l-7 -42q-7 -42 -34 -75t-66 -53l-1 -2h241l-11 -61h-170z" />
    <glyph glyph-name="u" unicode="u" horiz-adv-x="569" 
d="M536 495l-87 -495h-82l30 170h-2q-15 -85 -67 -132.5t-129 -47.5q-70 0 -107 37.5t-37 106.5q0 24 6 53l54 308h82l-54 -305q-3 -21 -3 -35q0 -47 26 -72.5t75 -25.5q65 0 108.5 44t57.5 124l47 270h82z" />
    <glyph glyph-name="v" unicode="v" horiz-adv-x="524" 
d="M544 495l-247 -495h-157l-72 495h88l63 -489h2l234 489h89z" />
    <glyph glyph-name="w" unicode="w" horiz-adv-x="824" 
d="M841 495l-218 -495h-148l-19 489h-2l-191 -489h-148l-45 495h88l34 -489h2l192 489h142l19 -489h2l207 489h85z" />
    <glyph glyph-name="x" unicode="x" horiz-adv-x="532" 
d="M353 259l120 -259h-96l-109 253h-2l-197 -253h-96l210 259l-106 236h93l98 -233h2l180 233h93z" />
    <glyph glyph-name="y" unicode="y" horiz-adv-x="523" 
d="M544 495l-361 -725h-88l115 230h-69l-73 495h89l63 -489h2l234 489h88z" />
    <glyph glyph-name="z" unicode="z" horiz-adv-x="513" 
d="M21 64v-2h425l-11 -62h-436l25 143l457 289l1 2h-400l10 61h412l-25 -142z" />
    <glyph glyph-name="braceleft" unicode="{" horiz-adv-x="267" 
d="M190 668q8 46 43 74t84 28l-8 -43q-27 0 -47.5 -18t-25.5 -47l-50 -290q-7 -38 -29 -63.5t-56 -38.5q51 -23 51 -78v-11.5t-2 -13.5l-52 -289q-1 -5 -1 -7.5v-6.5q0 -23 13.5 -37t37.5 -14l-8 -43q-43 0 -67.5 22t-24.5 60v9.5t2 10.5l50 289q2 8 2 12.5v9.5q0 64 -73 64
l7 45q42 0 68.5 22t34.5 64l51 290v0z" />
    <glyph glyph-name="bar" unicode="|" horiz-adv-x="227" 
d="M230 770l-177 -1000h-48l177 1000h48z" />
    <glyph glyph-name="braceright" unicode="}" horiz-adv-x="267" 
d="M172 356q0 -64 74 -64l-8 -45q-42 0 -68.5 -22t-34.5 -64l-50 -289q-8 -46 -43 -74t-84 -28l8 43q27 0 47 18t25 47l51 289q7 38 29 63.5t56 38.5q-50 22 -50 78v11t2 14l51 290q1 5 1 7.5v6.5q0 23 -13.5 37t-37.5 14l8 43q43 0 67.5 -22t24.5 -60q0 -5 -0.5 -9.5
t-1.5 -10.5l-51 -290q-1 -7 -1.5 -12t-0.5 -10z" />
    <glyph glyph-name="asciitilde" unicode="~" horiz-adv-x="591" 
d="M398 191q-42 0 -68.5 12t-47.5 26t-43 26t-56 12q-32 0 -55 -21t-33 -59h-38q11 58 46.5 90t90.5 32q42 0 68.5 -12t47.5 -26t42.5 -26t55.5 -12q32 0 55 21t34 59h38q-11 -58 -47 -90t-90 -32z" />
    <glyph glyph-name="uni00A0" unicode="&#xa0;" horiz-adv-x="238" 
 />
    <glyph glyph-name="exclamdown" unicode="&#xa1;" horiz-adv-x="242" 
d="M214 495l-16 -94h-100l17 94h99zM169 303l-89 -533h-86l99 533h76z" />
    <glyph glyph-name="cent" unicode="&#xa2;" horiz-adv-x="558" 
d="M304 185q49 6 85.5 36t58.5 80h83q-30 -82 -92 -130t-147 -54l-21 -117h-46l21 117q-87 6 -133 59t-46 144q0 67 19 122.5t54 96t84.5 64t111.5 27.5l19 110h46l-19 -110q78 -6 122.5 -50.5t49.5 -122.5h-82q-6 45 -31.5 72.5t-70.5 33.5zM152 329q0 -62 27 -99.5
t79 -44.5l66 378q-39 -4 -71 -22.5t-54.5 -49.5t-34.5 -72t-12 -90z" />
    <glyph glyph-name="sterling" unicode="&#xa3;" horiz-adv-x="617" 
d="M531 492q2 8 2 16v16q0 64 -35 98.5t-100 34.5q-80 0 -127 -41t-47 -113q0 -35 9.5 -71t17.5 -72h227l-8 -44h-211q1 -6 1 -11.5v-11.5q0 -32 -11 -61.5t-36.5 -57.5t-68 -53.5t-105.5 -48.5v-2h509l-12 -70h-532l11 65q49 29 79.5 58.5t46.5 58.5t21.5 56t5.5 51
q0 7 -0.5 13.5t-1.5 13.5h-94l8 44h79q-8 35 -16.5 71.5t-8.5 71.5q0 51 19 93t55 72t87 46t115 16q100 0 153 -51t53 -144v-21.5t-2 -21.5h-83z" />
    <glyph glyph-name="currency" unicode="&#xa4;" horiz-adv-x="564" 
d="M480 465q19 -38 19 -87q0 -54 -16 -97.5t-45 -75.5l45 -57l-36 -32l-46 58q-59 -39 -139 -39q-78 0 -122 42l-70 -60l-26 31l72 62q-19 34 -19 86q0 54 15.5 97t44.5 75l-45 57l36 32l46 -57q28 19 62.5 29t76.5 10q78 0 122 -41l70 59l26 -31zM269 175q84 0 133 53.5
t49 142.5q0 60 -32.5 94t-92.5 34q-84 0 -133 -53.5t-49 -142.5q0 -60 32 -94t93 -34z" />
    <glyph glyph-name="yen" unicode="&#xa5;" horiz-adv-x="702" 
d="M446 280h151l-7 -43h-174l-40 -59h204l-9 -43h-224l-92 -135h-94l91 135h-158l8 43h179l40 59h-209l8 43h143l-152 460h100l147 -455h2l305 455h94z" />
    <glyph glyph-name="brokenbar" unicode="&#xa6;" horiz-adv-x="227" 
d="M230 770l-71 -400h-48l71 400h48zM124 170l-71 -400h-48l71 400h48z" />
    <glyph glyph-name="section" unicode="&#xa7;" horiz-adv-x="673" 
d="M566 545q1 9 1 14.5v13.5q0 65 -43 99.5t-121 34.5q-88 0 -137.5 -30.5t-49.5 -84.5q0 -43 45 -66.5t126 -23.5q116 0 178 -50t62 -141q0 -56 -18.5 -102.5t-53.5 -81t-84.5 -55.5t-112.5 -27v-3q99 0 152 -27t53 -78q0 -41 -21.5 -73.5t-61.5 -55.5t-97 -35.5
t-129 -12.5q-121 0 -186.5 54.5t-65.5 154.5q0 19 3 37h85q-1 -6 -1.5 -12.5t-0.5 -13.5q0 -71 46.5 -109t133.5 -38q99 0 154.5 31t55.5 87q0 43 -44.5 67t-127.5 24q-115 0 -177 49.5t-62 140.5q0 57 18.5 103.5t53.5 81t84.5 56t112.5 27.5v1q-98 0 -151.5 27.5
t-53.5 76.5q0 39 19.5 71.5t56.5 55.5t89.5 35.5t118.5 12.5q115 0 176.5 -52t61.5 -147q0 -8 -0.5 -16.5t-1.5 -19.5h-85zM539 299q0 62 -42.5 96t-121.5 34q-100 0 -159.5 -49t-59.5 -135q0 -62 42.5 -96.5t120.5 -34.5q102 0 161 49.5t59 135.5z" />
    <glyph glyph-name="dieresis" unicode="&#xa8;" horiz-adv-x="373" 
d="M150 710h78l-18 -105h-78zM308 710h78l-17 -105h-79z" />
    <glyph glyph-name="copyright" unicode="&#xa9;" horiz-adv-x="854" 
d="M382 -10q-152 0 -233 80t-81 223q0 103 31.5 187.5t90 144.5t141 92.5t185.5 32.5q152 0 233 -80t81 -223q0 -104 -31.5 -188t-90 -144t-141 -92.5t-185.5 -32.5zM389 31q90 0 163 29t124 82.5t79 128.5t28 168q0 128 -70.5 199t-203.5 71q-90 0 -163 -29t-124.5 -82.5
t-79 -128.5t-27.5 -168q0 -128 70.5 -199t203.5 -71zM420 191q-66 0 -101 37.5t-35 104.5q0 49 14 89.5t40 69t63 44.5t83 16q60 0 94.5 -31.5t38.5 -89.5h-45q-4 39 -28.5 61t-66.5 22q-34 0 -61 -13t-46 -36t-29.5 -55t-10.5 -71q0 -51 24.5 -80.5t72.5 -29.5
q45 0 77.5 22.5t50.5 64.5h44q-22 -60 -68.5 -92.5t-110.5 -32.5z" />
    <glyph glyph-name="ordfeminine" unicode="&#xaa;" horiz-adv-x="413" 
d="M431 740l-53 -299h-63l18 100h-1q-10 -50 -43 -78t-84 -28q-48 0 -74.5 31t-26.5 88q0 43 11.5 78t32 60.5t49 39.5t63.5 14q45 0 68.5 -21.5t23.5 -59.5q0 -7 -0.5 -13t-1.5 -12h1l17 100h63zM241 486q42 0 69.5 28t35.5 76q1 9 1.5 15.5t0.5 13.5q0 35 -17.5 55.5
t-51.5 20.5q-50 0 -79.5 -36t-29.5 -93q0 -38 18 -59t53 -21z" />
    <glyph glyph-name="guillemotleft" unicode="&#xab;" horiz-adv-x="430" 
d="M204 443h50l-160 -193l92 -193h-50l-94 193zM364 443h51l-160 -193l92 -193h-51l-94 193z" />
    <glyph glyph-name="logicalnot" unicode="&#xac;" horiz-adv-x="520" 
d="M464 337l-30 -174h-46l23 135h-336l7 39h382z" />
    <glyph glyph-name="uni00AD" unicode="&#xad;" horiz-adv-x="402" 
d="M339 271l-7 -39h-267l6 39h268z" />
    <glyph glyph-name="registered" unicode="&#xae;" horiz-adv-x="493" 
d="M340 780q81 0 124 -41.5t43 -113.5q0 -52 -16.5 -94.5t-47 -72.5t-74 -46.5t-97.5 -16.5q-81 0 -124.5 41.5t-43.5 113.5q0 52 16.5 94.5t47 72.5t74.5 46.5t98 16.5zM278 427q44 0 80 13.5t61.5 39t39.5 60.5t14 79q0 61 -36 95.5t-103 34.5q-44 0 -80 -13.5t-61.5 -39
t-39 -61t-13.5 -78.5q0 -61 35.5 -95.5t102.5 -34.5zM333 686q62 0 62 -49q0 -32 -22.5 -50.5t-60.5 -18.5v-2q30 0 40 -22l24 -53h-37l-32 75h-49l-13 -75h-34l30 168l5 27h87zM317 591q20 0 31 11t11 30q0 27 -30 27h-54l-12 -68h54z" />
    <glyph glyph-name="macron" unicode="&#xaf;" horiz-adv-x="326" 
d="M382 688l-11 -61h-282l11 61h282z" />
    <glyph glyph-name="degree" unicode="&#xb0;" horiz-adv-x="320" 
d="M213 558q-48 0 -73.5 24t-25.5 66q0 60 37 96t102 36q48 0 73.5 -23.5t25.5 -66.5q0 -60 -37 -96t-102 -36zM221 607q32 0 51 20.5t19 54.5q0 49 -48 49q-31 0 -50 -20.5t-19 -54.5q0 -49 47 -49z" />
    <glyph glyph-name="plusminus" unicode="&#xb1;" horiz-adv-x="503" 
d="M459 337l-8 -40h-168l-28 -159h-46l28 159h-168l7 40h168l28 160h46l-28 -160h169zM27 52h382l-7 -40h-383z" />
    <glyph glyph-name="uni00B2" unicode="&#xb2;" horiz-adv-x="369" 
d="M81 410h291l-9 -52h-316l9 49q65 19 117 48t88.5 64.5t56 76.5t19.5 85q0 34 -16.5 53.5t-47.5 19.5q-39 0 -67 -28.5t-39 -79.5h-64q18 77 64.5 119.5t114.5 42.5q62 0 94 -31.5t32 -88.5q0 -54 -22.5 -100t-65 -82t-103 -60t-136.5 -34v-2z" />
    <glyph glyph-name="uni00B3" unicode="&#xb3;" horiz-adv-x="368" 
d="M243 609q66 0 101.5 -27.5t35.5 -77.5q0 -70 -49.5 -111t-135.5 -41q-61 0 -94.5 31.5t-33.5 88.5q0 6 0.5 12t1.5 13h63q0 -5 -0.5 -9t-0.5 -9q0 -35 19 -54.5t55 -19.5q49 0 77.5 25t28.5 67q0 30 -21.5 47.5t-61.5 17.5h-12l8 48q52 5 81.5 28.5t29.5 60.5
q0 26 -18 41t-50 15q-36 0 -62 -24.5t-36 -68.5h-62q17 69 62.5 107.5t112.5 38.5q60 0 92 -23.5t32 -62.5q0 -52 -43.5 -81.5t-119.5 -29.5v-2v0z" />
    <glyph glyph-name="acute" unicode="&#xb4;" horiz-adv-x="233" 
d="M292 680l-192 -89l-17 46l191 94z" />
    <glyph glyph-name="paragraph" unicode="&#xb6;" horiz-adv-x="686" 
d="M500 -230h-71l166 936h-154l-166 -936h-71l166 936q-48 0 -87.5 -13t-67.5 -37t-43 -58.5t-15 -77.5q0 -51 26.5 -83.5t76.5 -40.5l-12 -69q-82 8 -126 56t-44 125q0 60 21 108.5t60.5 82.5t95.5 52.5t126 18.5h296z" />
    <glyph glyph-name="periodcentered" unicode="&#xb7;" horiz-adv-x="232" 
d="M176 307l-16 -95h-100l17 95h99z" />
    <glyph glyph-name="cedilla" unicode="&#xb8;" horiz-adv-x="264" 
d="M24 -240q-24 0 -46.5 6t-39.5 16l8 43q14 -11 34.5 -17t42.5 -6q40 0 63 16t23 43q0 34 -43 34q-18 1 -34.5 -6t-27.5 -18l-30 24q20 19 49.5 30.5t58.5 11.5q44 0 67 -18t23 -50q0 -51 -39.5 -80t-108.5 -29z" />
    <glyph glyph-name="uni00B9" unicode="&#xb9;" horiz-adv-x="227" 
d="M265 802l-78 -444h-66l75 423h-2q-8 -47 -35 -72.5t-67 -25.5l10 57q41 0 66.5 16.5t30.5 45.5h66z" />
    <glyph glyph-name="ordmasculine" unicode="&#xba;" horiz-adv-x="395" 
d="M230 435q-62 0 -94.5 32.5t-32.5 91.5q0 42 12.5 76.5t36.5 59t57.5 38t75.5 13.5q61 0 93.5 -32.5t32.5 -91.5q0 -42 -13 -76.5t-36.5 -59t-57 -38t-74.5 -13.5zM238 486q50 0 79 35.5t29 92.5q0 38 -18 59.5t-52 21.5q-50 0 -79.5 -36t-29.5 -93q0 -38 18 -59t53 -21z
" />
    <glyph glyph-name="guillemotright" unicode="&#xbb;" horiz-adv-x="430" 
d="M67 57h-50l160 193l-92 193h50l94 -193zM227 57h-50l160 193l-92 193h50l94 -193z" />
    <glyph glyph-name="onequarter" unicode="&#xbc;" horiz-adv-x="802" 
d="M207 731q-8 -47 -35 -72.5t-67 -25.5l10 57q41 0 66.5 16.5t30.5 45.5h66l-78 -444h-66l75 423h-2zM673 725l-609 -735l-28 25l608 735zM749 110h-59l-19 -110h-66l19 110h-212l10 56l204 278h123l-50 -282h59zM483 162h152l49 276h-2l-199 -274v-2z" />
    <glyph glyph-name="onehalf" unicode="&#xbd;" horiz-adv-x="794" 
d="M205 731q-8 -47 -35 -72.5t-67 -25.5l10 57q41 0 66.5 16.5t30.5 45.5h66l-78 -444h-66l75 423h-2zM671 725l-609 -735l-28 25l608 735zM434 52h291l-9 -52h-316l9 49q65 19 117 48t88.5 64.5t56 76.5t19.5 85q0 34 -16.5 53.5t-47.5 19.5q-39 0 -67 -28.5t-39 -79.5h-64
q18 77 64.5 119.5t114.5 42.5q62 0 94 -31.5t32 -88.5q0 -54 -22.5 -100t-65 -82t-103 -60t-136.5 -34v-2z" />
    <glyph glyph-name="threequarters" unicode="&#xbe;" horiz-adv-x="933" 
d="M383 454q0 -70 -49.5 -111t-135.5 -41q-61 0 -94.5 31.5t-33.5 88.5q0 6 0.5 12t1.5 13h63q0 -5 -0.5 -9t-0.5 -9q0 -35 19 -54.5t55 -19.5q49 0 77.5 25t28.5 67q0 30 -21.5 47.5t-61.5 17.5h-12l8 48q52 5 81.5 28.5t29.5 60.5q0 26 -18 41t-50 15q-36 0 -62 -24.5
t-36 -68.5h-62q17 69 62.5 107.5t112.5 38.5q60 0 92 -23.5t32 -62.5q0 -52 -43.5 -81.5t-119.5 -29.5v-2q66 0 101.5 -27.5t35.5 -77.5zM804 725l-609 -735l-28 25l608 735zM880 110h-59l-19 -110h-66l19 110h-212l10 56l204 278h123l-50 -282h59zM614 162h152l49 276h-2
l-199 -274v-2z" />
    <glyph glyph-name="questiondown" unicode="&#xbf;" horiz-adv-x="527" 
d="M270 401l17 94h99l-16 -94h-100zM457 -2q-26 -113 -98 -175.5t-178 -62.5q-95 0 -145 45t-50 124q0 44 19 90.5t54.5 94t86 95t112.5 94.5h81v-2q-60 -47 -108.5 -95t-82 -93.5t-52 -88.5t-18.5 -80q0 -51 30.5 -81t87.5 -30q67 0 114.5 43.5t64.5 121.5h82z" />
    <glyph glyph-name="Agrave" unicode="&#xc0;" horiz-adv-x="683" 
d="M506 190h-354l-95 -190h-88l384 740h151l123 -740h-93zM496 260l-70 472h-2l-237 -472h309zM412 802l-60 125h81l43 -125h-64z" />
    <glyph glyph-name="Aacute" unicode="&#xc1;" horiz-adv-x="683" 
d="M506 190h-354l-95 -190h-88l384 740h151l123 -740h-93zM496 260l-70 472h-2l-237 -472h309zM397 802l81 125h85l-98 -125h-68z" />
    <glyph glyph-name="Acircumflex" unicode="&#xc2;" horiz-adv-x="683" 
d="M506 190h-354l-95 -190h-88l384 740h151l123 -740h-93zM496 260l-70 472h-2l-237 -472h309zM460 908h-4l-78 -116h-67l85 125h125l45 -125h-64z" />
    <glyph glyph-name="Atilde" unicode="&#xc3;" horiz-adv-x="683" 
d="M504 740l123 -740h-93l-28 190h-354l-95 -190h-88l384 740h151zM496 260l-70 472h-2l-237 -472h309zM490 805q-18 0 -29.5 6.5t-21.5 14.5t-19.5 14.5t-22.5 6.5t-22.5 -13t-14.5 -32h-52q8 51 35 79.5t68 28.5q18 0 29.5 -6.5t21 -14t18.5 -14t23 -6.5t23.5 12.5
t14.5 31.5h52q-8 -51 -35.5 -79.5t-67.5 -28.5z" />
    <glyph glyph-name="Adieresis" unicode="&#xc4;" horiz-adv-x="683" 
d="M407 850h-78l18 105h78zM566 850h-79l18 105h78zM506 190h-354l-95 -190h-88l384 740h151l123 -740h-93zM496 260l-70 472h-2l-237 -472h309z" />
    <glyph glyph-name="Aring" unicode="&#xc5;" horiz-adv-x="683" 
d="M437 797q-48 0 -74 24t-26 66q0 60 37.5 95t101.5 35q49 0 75 -23.5t26 -65.5q0 -60 -37.5 -95.5t-102.5 -35.5zM468 971q-34 0 -54 -21t-20 -56q0 -23 13 -36.5t38 -13.5q35 0 54.5 20.5t19.5 55.5q0 24 -13 37.5t-38 13.5zM506 190h-354l-95 -190h-88l384 740h151
l123 -740h-93zM496 260l-70 472h-2l-237 -472h309z" />
    <glyph glyph-name="AE" unicode="&#xc6;" horiz-adv-x="1065" 
d="M595 670l8 -261h403l-12 -70h-389l9 -269h379l-13 -70h-457l-2 190h-351l-120 -190h-92l478 740h663l-12 -70h-492zM520 260l-5 472h-2l-299 -472h306z" />
    <glyph glyph-name="Ccedilla" unicode="&#xc7;" horiz-adv-x="714" 
d="M678 271q-22 -66 -56.5 -118t-79.5 -88.5t-99 -55.5t-114 -19q-127 0 -194 77t-67 216q0 105 28 191t79.5 147.5t124.5 95t163 33.5q120 0 185.5 -67t65.5 -188v-19h-83v5q0 94 -47.5 145t-132.5 51q-66 0 -120.5 -28t-92.5 -79t-59 -121.5t-21 -155.5
q0 -109 46.5 -169.5t137.5 -60.5q85 0 151.5 54.5t101.5 153.5h83zM267 -240q-24 0 -46.5 6t-39.5 16l8 43q14 -11 34.5 -17t42.5 -6q40 0 63 16t23 43q0 34 -43 34q-18 1 -34.5 -6t-27.5 -18l-30 24q20 19 49.5 30.5t58.5 11.5q44 0 67 -18t23 -50q0 -51 -39.5 -80
t-108.5 -29z" />
    <glyph glyph-name="Egrave" unicode="&#xc8;" horiz-adv-x="623" 
d="M255 670l-44 -253h355l-12 -70h-356l-48 -277h401l-13 -70h-487l130 740h476l-12 -70h-390zM412 802l-60 125h81l43 -125h-64z" />
    <glyph glyph-name="Eacute" unicode="&#xc9;" horiz-adv-x="623" 
d="M255 670l-44 -253h355l-12 -70h-356l-48 -277h401l-13 -70h-487l130 740h476l-12 -70h-390zM387 802l81 125h85l-98 -125h-68z" />
    <glyph glyph-name="Ecircumflex" unicode="&#xca;" horiz-adv-x="623" 
d="M255 670l-44 -253h355l-12 -70h-356l-48 -277h401l-13 -70h-487l130 740h476l-12 -70h-390zM440 908h-4l-78 -116h-67l85 125h125l45 -125h-64z" />
    <glyph glyph-name="Edieresis" unicode="&#xcb;" horiz-adv-x="623" 
d="M397 850h-78l18 105h78zM556 850h-79l18 105h78zM255 670l-44 -253h355l-12 -70h-356l-48 -277h401l-13 -70h-487l130 740h476l-12 -70h-390z" />
    <glyph glyph-name="Igrave" unicode="&#xcc;" horiz-adv-x="274" 
d="M181 740h86l-130 -740h-86zM207 802l-60 125h81l43 -125h-64z" />
    <glyph glyph-name="Iacute" unicode="&#xcd;" horiz-adv-x="274" 
d="M181 740h86l-130 -740h-86zM192 802l81 125h85l-98 -125h-68z" />
    <glyph glyph-name="Icircumflex" unicode="&#xce;" horiz-adv-x="274" 
d="M395 815h-69l-61 151h-2l-113 -151h-69l122 160h125zM181 740h86l-130 -740h-86z" />
    <glyph glyph-name="Idieresis" unicode="&#xcf;" horiz-adv-x="274" 
d="M144 955h78l-18 -105h-78zM302 955h78l-17 -105h-79zM181 740h86l-130 -740h-86z" />
    <glyph glyph-name="Eth" unicode="&#xd0;" horiz-adv-x="723" 
d="M403 740q143 0 219.5 -77.5t76.5 -216.5q0 -101 -30 -183t-85.5 -140.5t-134.5 -90.5t-176 -32h-214l63 356h-93l8 39h91l61 345h214zM292 70q72 0 131 26.5t100.5 74.5t64 115.5t22.5 150.5q0 110 -54.5 171.5t-157.5 61.5h-135l-49 -275h146l-7 -39h-145l-51 -286h135z
" />
    <glyph glyph-name="Ntilde" unicode="&#xd1;" horiz-adv-x="734" 
d="M409 906q-23 0 -40 -18t-25 -50h-45q12 63 45 97t81 34q26 0 43 -10t31 -21.5t27.5 -21.5t31.5 -10q23 0 40 17.5t25 49.5h45q-11 -62 -44.5 -96.5t-81.5 -34.5q-26 0 -43 10t-31 22t-27.5 22t-31.5 10zM727 740l-130 -740h-151l-184 732h-2l-126 -732h-83l130 740h152
l184 -732h2l126 732h82z" />
    <glyph glyph-name="Ograve" unicode="&#xd2;" horiz-adv-x="755" 
d="M332 -10q-128 0 -196 77.5t-68 215.5q0 105 28 191t80 147.5t125.5 95t164.5 33.5q128 0 196 -77.5t68 -215.5q0 -105 -28.5 -191t-80.5 -147.5t-125.5 -95t-163.5 -33.5zM345 63q67 0 121.5 28t93 79t59.5 121.5t21 155.5q0 109 -48 169.5t-139 60.5q-68 0 -122.5 -28
t-92.5 -78.5t-59 -121t-21 -155.5q0 -109 47.5 -170t139.5 -61zM440 802l-60 125h81l43 -125h-64z" />
    <glyph glyph-name="Oacute" unicode="&#xd3;" horiz-adv-x="755" 
d="M332 -10q-128 0 -196 77.5t-68 215.5q0 105 28 191t80 147.5t125.5 95t164.5 33.5q128 0 196 -77.5t68 -215.5q0 -105 -28.5 -191t-80.5 -147.5t-125.5 -95t-163.5 -33.5zM345 63q67 0 121.5 28t93 79t59.5 121.5t21 155.5q0 109 -48 169.5t-139 60.5q-68 0 -122.5 -28
t-92.5 -78.5t-59 -121t-21 -155.5q0 -109 47.5 -170t139.5 -61zM427 802l81 125h85l-98 -125h-68z" />
    <glyph glyph-name="Ocircumflex" unicode="&#xd4;" horiz-adv-x="755" 
d="M466 750q128 0 196 -77.5t68 -215.5q0 -105 -28.5 -191t-80.5 -147.5t-125.5 -95t-163.5 -33.5q-128 0 -196 77.5t-68 215.5q0 105 28 191t80 147.5t125.5 95t164.5 33.5zM345 63q67 0 121.5 28t93 79t59.5 121.5t21 155.5q0 109 -48 169.5t-139 60.5q-68 0 -122.5 -28
t-92.5 -78.5t-59 -121t-21 -155.5q0 -109 47.5 -170t139.5 -61zM488 908h-4l-78 -116h-67l85 125h125l45 -125h-64z" />
    <glyph glyph-name="Otilde" unicode="&#xd5;" horiz-adv-x="755" 
d="M332 -10q-128 0 -196 77.5t-68 215.5q0 105 28 191t80 147.5t125.5 95t164.5 33.5q128 0 196 -77.5t68 -215.5q0 -105 -28.5 -191t-80.5 -147.5t-125.5 -95t-163.5 -33.5zM345 63q67 0 121.5 28t93 79t59.5 121.5t21 155.5q0 109 -48 169.5t-139 60.5q-68 0 -122.5 -28
t-92.5 -78.5t-59 -121t-21 -155.5q0 -109 47.5 -170t139.5 -61zM519 805q-18 0 -29.5 6.5t-21.5 14.5t-19.5 14.5t-22.5 6.5t-22.5 -13t-14.5 -32h-52q8 51 35 79.5t68 28.5q18 0 29.5 -6.5t21 -14t18.5 -14t23 -6.5t23.5 12.5t14.5 31.5h52q-8 -51 -35.5 -79.5t-67.5 -28.5
z" />
    <glyph glyph-name="Odieresis" unicode="&#xd6;" horiz-adv-x="755" 
d="M384 955h78l-18 -105h-78zM542 955h78l-17 -105h-79zM332 -10q-128 0 -196 77.5t-68 215.5q0 105 28 191t80 147.5t125.5 95t164.5 33.5q128 0 196 -77.5t68 -215.5q0 -105 -28.5 -191t-80.5 -147.5t-125.5 -95t-163.5 -33.5zM345 63q67 0 121.5 28t93 79t59.5 121.5
t21 155.5q0 109 -48 169.5t-139 60.5q-68 0 -122.5 -28t-92.5 -78.5t-59 -121t-21 -155.5q0 -109 47.5 -170t139.5 -61z" />
    <glyph glyph-name="multiply" unicode="&#xd7;" horiz-adv-x="472" 
d="M268 246l122 -148l-37 -32l-123 149l-175 -149l-25 31l175 149l-123 148l37 32l123 -149l175 149l25 -32z" />
    <glyph glyph-name="Oslash" unicode="&#xd8;" horiz-adv-x="755" 
d="M663 671q67 -78 67 -214q0 -105 -28.5 -191t-80.5 -147.5t-125.5 -95t-163.5 -33.5q-98 0 -163 48l-58 -75l-39 26l63 80q-67 78 -67 214q0 105 28 191t80 147.5t125.5 95t164.5 33.5q98 0 163 -48l59 75l38 -26zM158 294q0 -93 35 -151l383 490q-47 44 -123 44
q-68 0 -122.5 -28t-92.5 -78.5t-59 -121t-21 -155.5zM345 63q67 0 121.5 28t93 79t59.5 121.5t21 155.5q0 91 -35 149l-382 -490q46 -43 122 -43z" />
    <glyph glyph-name="Ugrave" unicode="&#xd9;" horiz-adv-x="714" 
d="M633 740h82l-86 -485q-22 -125 -105.5 -195t-211.5 -70q-111 0 -170.5 52.5t-59.5 149.5q0 30 6 63l86 485h85l-86 -491q-4 -23 -4 -45q0 -68 40.5 -104.5t116.5 -36.5q89 0 147 49t74 137zM442 802l-60 125h81l43 -125h-64z" />
    <glyph glyph-name="Uacute" unicode="&#xda;" horiz-adv-x="714" 
d="M633 740h82l-86 -485q-22 -125 -105.5 -195t-211.5 -70q-111 0 -170.5 52.5t-59.5 149.5q0 30 6 63l86 485h85l-86 -491q-4 -23 -4 -45q0 -68 40.5 -104.5t116.5 -36.5q89 0 147 49t74 137zM402 802l81 125h85l-98 -125h-68z" />
    <glyph glyph-name="Ucircumflex" unicode="&#xdb;" horiz-adv-x="714" 
d="M371 815h-69l122 160h125l67 -160h-69l-61 151h-2zM715 740l-86 -485q-22 -125 -105.5 -195t-211.5 -70q-111 0 -170.5 52.5t-59.5 149.5q0 30 6 63l86 485h85l-86 -491q-4 -23 -4 -45q0 -68 40.5 -104.5t116.5 -36.5q89 0 147 49t74 137l86 491h82z" />
    <glyph glyph-name="Udieresis" unicode="&#xdc;" horiz-adv-x="714" 
d="M365 955h78l-18 -105h-78zM523 955h78l-17 -105h-79zM633 740h82l-86 -485q-22 -125 -105.5 -195t-211.5 -70q-111 0 -170.5 52.5t-59.5 149.5q0 30 6 63l86 485h85l-86 -491q-4 -23 -4 -45q0 -68 40.5 -104.5t116.5 -36.5q89 0 147 49t74 137z" />
    <glyph glyph-name="Yacute" unicode="&#xdd;" horiz-adv-x="656" 
d="M749 740l-504 -740h-94l187 277h-84l-153 463h100l147 -455h2l305 455h94zM371 802l81 125h85l-98 -125h-68z" />
    <glyph glyph-name="Thorn" unicode="&#xde;" horiz-adv-x="643" 
d="M412 605q103 0 157.5 -49t54.5 -137q0 -62 -20.5 -112t-58.5 -85t-92.5 -54.5t-121.5 -19.5h-168l-26 -148h-86l130 740h86l-24 -135h169zM349 218q42 0 76.5 13.5t59 38.5t37.5 60.5t13 78.5q0 60 -33.5 93t-96.5 33h-174l-56 -317h174z" />
    <glyph glyph-name="germandbls" unicode="&#xdf;" horiz-adv-x="621" 
d="M343 457q112 0 172 -50.5t60 -140.5q0 -62 -20 -113t-56.5 -87t-89 -56t-117.5 -20q-25 0 -48.5 3t-42.5 9l12 64q34 -8 76 -8q47 0 84.5 14.5t63.5 41.5t40 64t14 82q0 66 -41.5 103t-119.5 37h-34l10 59q91 5 143 45.5t52 109.5q0 46 -28.5 72t-82.5 26q-71 0 -117 -38
t-58 -108l-100 -566h-82l100 563q18 103 89 160t180 57q91 0 139 -36t48 -102q0 -43 -17 -77t-49 -57.5t-77.5 -36t-102.5 -12.5v-2v0z" />
    <glyph glyph-name="agrave" unicode="&#xe0;" 
d="M571 495l-87 -495h-82l28 163h-2q-14 -81 -70.5 -127t-142.5 -46q-84 0 -127.5 52t-43.5 146q0 70 18.5 128.5t53 100.5t82.5 65t108 23q75 0 115.5 -35t40.5 -98q0 -9 -1 -18.5t-3 -20.5h2l29 162h82zM259 58q76 0 126.5 51t66.5 139q2 15 3.5 27.5t1.5 24.5
q0 65 -33.5 101.5t-97.5 36.5q-45 0 -81 -17t-62 -48t-40 -74t-14 -95q0 -69 33.5 -107.5t96.5 -38.5zM332 560l-60 125h81l43 -125h-64z" />
    <glyph glyph-name="aacute" unicode="&#xe1;" 
d="M571 495l-87 -495h-82l28 163h-2q-14 -81 -70.5 -127t-142.5 -46q-84 0 -127.5 52t-43.5 146q0 70 18.5 128.5t53 100.5t82.5 65t108 23q75 0 115.5 -35t40.5 -98q0 -9 -1 -18.5t-3 -20.5h2l29 162h82zM259 58q76 0 126.5 51t66.5 139q2 15 3.5 27.5t1.5 24.5
q0 65 -33.5 101.5t-97.5 36.5q-45 0 -81 -17t-62 -48t-40 -74t-14 -95q0 -69 33.5 -107.5t96.5 -38.5zM298 560l81 125h85l-98 -125h-68z" />
    <glyph glyph-name="acircumflex" unicode="&#xe2;" 
d="M571 495l-87 -495h-82l28 163h-2q-14 -81 -70.5 -127t-142.5 -46q-84 0 -127.5 52t-43.5 146q0 70 18.5 128.5t53 100.5t82.5 65t108 23q75 0 115.5 -35t40.5 -98q0 -9 -1 -18.5t-3 -20.5h2l29 162h82zM259 58q76 0 126.5 51t66.5 139q2 15 3.5 27.5t1.5 24.5
q0 65 -33.5 101.5t-97.5 36.5q-45 0 -81 -17t-62 -48t-40 -74t-14 -95q0 -69 33.5 -107.5t96.5 -38.5zM360 666h-4l-78 -116h-67l85 125h125l45 -125h-64z" />
    <glyph glyph-name="atilde" unicode="&#xe3;" 
d="M571 495l-87 -495h-82l28 163h-2q-14 -81 -70.5 -127t-142.5 -46q-84 0 -127.5 52t-43.5 146q0 70 18.5 128.5t53 100.5t82.5 65t108 23q75 0 115.5 -35t40.5 -98q0 -9 -1 -18.5t-3 -20.5h2l29 162h82zM259 58q76 0 126.5 51t66.5 139q2 15 3.5 27.5t1.5 24.5
q0 65 -33.5 101.5t-97.5 36.5q-45 0 -81 -17t-62 -48t-40 -74t-14 -95q0 -69 33.5 -107.5t96.5 -38.5zM392 563q-18 0 -29.5 6.5t-21.5 14.5t-19.5 14.5t-22.5 6.5t-22.5 -13t-14.5 -32h-52q8 51 35 79.5t68 28.5q18 0 29.5 -6.5t21 -14t18.5 -14t23 -6.5t23.5 12.5
t14.5 31.5h52q-8 -51 -35.5 -79.5t-67.5 -28.5z" />
    <glyph glyph-name="adieresis" unicode="&#xe4;" 
d="M316 605h-78l18 105h78zM475 605h-79l18 105h78zM571 495l-87 -495h-82l28 163h-2q-14 -81 -70.5 -127t-142.5 -46q-84 0 -127.5 52t-43.5 146q0 70 18.5 128.5t53 100.5t82.5 65t108 23q75 0 115.5 -35t40.5 -98q0 -9 -1 -18.5t-3 -20.5h2l29 162h82zM259 58
q76 0 126.5 51t66.5 139q2 15 3.5 27.5t1.5 24.5q0 65 -33.5 101.5t-97.5 36.5q-45 0 -81 -17t-62 -48t-40 -74t-14 -95q0 -69 33.5 -107.5t96.5 -38.5z" />
    <glyph glyph-name="aring" unicode="&#xe5;" 
d="M346 552q-48 0 -74 24t-26 66q0 60 37.5 95t101.5 35q49 0 75 -23.5t26 -65.5q0 -60 -37.5 -95.5t-102.5 -35.5zM377 726q-34 0 -54 -21t-20 -56q0 -23 13 -36.5t38 -13.5q35 0 54.5 20.5t19.5 55.5q0 24 -13 37.5t-38 13.5zM571 495l-87 -495h-82l28 163h-2
q-14 -81 -70.5 -127t-142.5 -46q-84 0 -127.5 52t-43.5 146q0 70 18.5 128.5t53 100.5t82.5 65t108 23q75 0 115.5 -35t40.5 -98q0 -9 -1 -18.5t-3 -20.5h2l29 162h82zM259 58q76 0 126.5 51t66.5 139q2 15 3.5 27.5t1.5 24.5q0 65 -33.5 101.5t-97.5 36.5q-45 0 -81 -17
t-62 -48t-40 -74t-14 -95q0 -69 33.5 -107.5t96.5 -38.5z" />
    <glyph glyph-name="ae" unicode="&#xe6;" horiz-adv-x="945" 
d="M745 505q78 0 120 -46t42 -131q0 -19 -1.5 -39t-6.5 -42l-3 -12h-377q-2 -12 -3 -23t-1 -21q0 -65 31 -100.5t90 -35.5q60 0 104.5 31.5t64.5 87.5h81q-26 -88 -87 -136t-145 -48q-69 0 -106.5 33.5t-37.5 94.5q0 21 4 41h-2l-28 -159h-82l28 163h-2q-14 -81 -70.5 -127
t-142.5 -46q-84 0 -127.5 52t-43.5 146q0 70 18.5 128.5t53 100.5t82.5 65t108 23q75 0 115.5 -35t40.5 -98q0 -9 -1 -18.5t-3 -20.5h2l29 162h82l-28 -159h2q14 80 66.5 124.5t133.5 44.5zM704 440q-65 0 -111 -43t-66 -121h295q1 8 1 15v14q0 65 -30.5 100t-88.5 35z
M259 58q76 0 126.5 51t66.5 139q2 15 3.5 27.5t1.5 24.5q0 65 -33.5 101.5t-97.5 36.5q-45 0 -81 -17t-62 -48t-40 -74t-14 -95q0 -69 33.5 -107.5t96.5 -38.5z" />
    <glyph glyph-name="ccedilla" unicode="&#xe7;" horiz-adv-x="554" 
d="M243 -10q-97 0 -148.5 53.5t-51.5 150.5q0 70 20.5 127.5t59 98t92 63t119.5 22.5q90 0 140.5 -45t55.5 -129h-82q-7 51 -38.5 79t-87.5 28q-44 0 -79.5 -17t-61 -48t-39.5 -74.5t-14 -95.5q0 -69 32.5 -107t95.5 -38q58 0 101 30.5t67 86.5h83q-32 -88 -100.5 -136.5
t-163.5 -48.5zM181 -240q-24 0 -46.5 6t-39.5 16l8 43q14 -11 34.5 -17t42.5 -6q40 0 63 16t23 43q0 34 -43 34q-18 1 -34.5 -6t-27.5 -18l-30 24q20 19 49.5 30.5t58.5 11.5q44 0 67 -18t23 -50q0 -51 -39.5 -80t-108.5 -29z" />
    <glyph glyph-name="egrave" unicode="&#xe8;" horiz-adv-x="555" 
d="M325 505q92 0 142 -48.5t50 -138.5q0 -16 -2 -33.5t-6 -37.5l-3 -12h-379q0 -8 -0.5 -16.5t-0.5 -17.5q0 -69 31 -107.5t89 -38.5q60 0 104.5 31.5t64.5 87.5h81q-27 -88 -96 -136t-166 -48q-92 0 -141.5 53t-49.5 148q0 70 20 128t57 99.5t89 64t116 22.5zM314 440
q-69 0 -116.5 -44.5t-63.5 -119.5h298q1 8 1.5 15t0.5 14q0 65 -31 100t-89 35zM304 560l-60 125h81l43 -125h-64z" />
    <glyph glyph-name="eacute" unicode="&#xe9;" horiz-adv-x="555" 
d="M325 505q92 0 142 -48.5t50 -138.5q0 -16 -2 -33.5t-6 -37.5l-3 -12h-379q0 -8 -0.5 -16.5t-0.5 -17.5q0 -69 31 -107.5t89 -38.5q60 0 104.5 31.5t64.5 87.5h81q-27 -88 -96 -136t-166 -48q-92 0 -141.5 53t-49.5 148q0 70 20 128t57 99.5t89 64t116 22.5zM314 440
q-69 0 -116.5 -44.5t-63.5 -119.5h298q1 8 1.5 15t0.5 14q0 65 -31 100t-89 35zM286 560l81 125h85l-98 -125h-68z" />
    <glyph glyph-name="ecircumflex" unicode="&#xea;" horiz-adv-x="555" 
d="M325 505q92 0 142 -48.5t50 -138.5q0 -16 -2 -33.5t-6 -37.5l-3 -12h-379q0 -8 -0.5 -16.5t-0.5 -17.5q0 -69 31 -107.5t89 -38.5q60 0 104.5 31.5t64.5 87.5h81q-27 -88 -96 -136t-166 -48q-92 0 -141.5 53t-49.5 148q0 70 20 128t57 99.5t89 64t116 22.5zM314 440
q-69 0 -116.5 -44.5t-63.5 -119.5h298q1 8 1.5 15t0.5 14q0 65 -31 100t-89 35zM350 666h-4l-78 -116h-67l85 125h125l45 -125h-64z" />
    <glyph glyph-name="edieresis" unicode="&#xeb;" horiz-adv-x="555" 
d="M303 605h-78l18 105h78zM462 605h-79l18 105h78zM325 505q92 0 142 -48.5t50 -138.5q0 -16 -2 -33.5t-6 -37.5l-3 -12h-379q0 -8 -0.5 -16.5t-0.5 -17.5q0 -69 31 -107.5t89 -38.5q60 0 104.5 31.5t64.5 87.5h81q-27 -88 -96 -136t-166 -48q-92 0 -141.5 53t-49.5 148
q0 70 20 128t57 99.5t89 64t116 22.5zM314 440q-69 0 -116.5 -44.5t-63.5 -119.5h298q1 8 1.5 15t0.5 14q0 65 -31 100t-89 35z" />
    <glyph glyph-name="igrave" unicode="&#xec;" horiz-adv-x="235" 
d="M202 495l-87 -495h-82l87 495h82zM142 560l-60 125h81l43 -125h-64z" />
    <glyph glyph-name="iacute" unicode="&#xed;" horiz-adv-x="235" 
d="M202 495l-87 -495h-82l87 495h82zM128 560l81 125h85l-98 -125h-68z" />
    <glyph glyph-name="icircumflex" unicode="&#xee;" horiz-adv-x="235" 
d="M332 570h-69l-61 151h-2l-113 -151h-69l122 160h125zM120 495h82l-87 -495h-82z" />
    <glyph glyph-name="idieresis" unicode="&#xef;" horiz-adv-x="235" 
d="M81 710h78l-18 -105h-78zM239 710h78l-17 -105h-79zM202 495l-87 -495h-82l87 495h82z" />
    <glyph glyph-name="eth" unicode="&#xf0;" horiz-adv-x="593" 
d="M405 685q78 -54 112.5 -123.5t34.5 -163.5q0 -29 -3.5 -61t-9.5 -66q-26 -144 -100 -212.5t-193 -68.5q-98 0 -150.5 53.5t-52.5 148.5q0 67 18.5 123.5t53 97t82.5 63t108 22.5q77 0 117.5 -43.5t40.5 -122.5q0 -14 -1.5 -29t-3.5 -32h2q5 35 8 65.5t3 57.5
q0 87 -33 147.5t-107 107.5l-152 -72l-21 45l120 57q-23 11 -47.5 21t-53.5 21l30 59q43 -15 80 -31t69 -33l136 64l19 -45zM259 58q45 0 81.5 17t62 47t39.5 72t14 93q0 69 -34 107t-98 38q-44 0 -80 -16.5t-61.5 -46.5t-39.5 -72.5t-14 -93.5q0 -69 33.5 -107t96.5 -38z
" />
    <glyph glyph-name="ntilde" unicode="&#xf1;" horiz-adv-x="580" 
d="M291 661q-23 0 -40 -18t-25 -50h-45q12 63 45 97t81 34q26 0 43 -10t31 -21.5t27.5 -21.5t31.5 -10q23 0 40 17.5t25 49.5h45q-11 -62 -44.5 -96.5t-81.5 -34.5q-26 0 -43 10t-31 22t-27.5 22t-31.5 10zM375 505q72 0 110.5 -38t38.5 -108q0 -12 -1 -24.5t-4 -26.5
l-54 -308h-82l54 306q3 16 3 33q0 48 -27.5 73.5t-78.5 25.5q-67 0 -112.5 -44t-59.5 -123l-47 -271h-82l87 495h82l-30 -170h2q16 85 68.5 132.5t132.5 47.5z" />
    <glyph glyph-name="ograve" unicode="&#xf2;" horiz-adv-x="583" 
d="M246 -10q-98 0 -150.5 53.5t-52.5 150.5q0 70 21 127.5t59.5 98.5t92.5 63t121 22q99 0 151 -53.5t52 -150.5q0 -70 -20.5 -127.5t-59 -98t-93 -63t-121.5 -22.5zM258 58q45 0 82 17t62.5 47.5t39.5 73.5t14 95q0 69 -33.5 108t-97.5 39q-45 0 -81 -17t-62 -48t-40 -74
t-14 -95q0 -69 33.5 -107.5t96.5 -38.5zM317 560l-60 125h81l43 -125h-64z" />
    <glyph glyph-name="oacute" unicode="&#xf3;" horiz-adv-x="583" 
d="M246 -10q-98 0 -150.5 53.5t-52.5 150.5q0 70 21 127.5t59.5 98.5t92.5 63t121 22q99 0 151 -53.5t52 -150.5q0 -70 -20.5 -127.5t-59 -98t-93 -63t-121.5 -22.5zM258 58q45 0 82 17t62.5 47.5t39.5 73.5t14 95q0 69 -33.5 108t-97.5 39q-45 0 -81 -17t-62 -48t-40 -74
t-14 -95q0 -69 33.5 -107.5t96.5 -38.5zM299 560l81 125h85l-98 -125h-68z" />
    <glyph glyph-name="ocircumflex" unicode="&#xf4;" horiz-adv-x="583" 
d="M337 505q99 0 151 -53.5t52 -150.5q0 -70 -20.5 -127.5t-59 -98t-93 -63t-121.5 -22.5q-98 0 -150.5 53.5t-52.5 150.5q0 70 21 127.5t59.5 98.5t92.5 63t121 22zM258 58q45 0 82 17t62.5 47.5t39.5 73.5t14 95q0 69 -33.5 108t-97.5 39q-45 0 -81 -17t-62 -48t-40 -74
t-14 -95q0 -69 33.5 -107.5t96.5 -38.5zM360 666h-4l-78 -116h-67l85 125h125l45 -125h-64z" />
    <glyph glyph-name="otilde" unicode="&#xf5;" horiz-adv-x="583" 
d="M246 -10q-98 0 -150.5 53.5t-52.5 150.5q0 70 21 127.5t59.5 98.5t92.5 63t121 22q99 0 151 -53.5t52 -150.5q0 -70 -20.5 -127.5t-59 -98t-93 -63t-121.5 -22.5zM258 58q45 0 82 17t62.5 47.5t39.5 73.5t14 95q0 69 -33.5 108t-97.5 39q-45 0 -81 -17t-62 -48t-40 -74
t-14 -95q0 -69 33.5 -107.5t96.5 -38.5zM392 563q-18 0 -29.5 6.5t-21.5 14.5t-19.5 14.5t-22.5 6.5t-22.5 -13t-14.5 -32h-52q8 51 35 79.5t68 28.5q18 0 29.5 -6.5t21 -14t18.5 -14t23 -6.5t23.5 12.5t14.5 31.5h52q-8 -51 -35.5 -79.5t-67.5 -28.5z" />
    <glyph glyph-name="odieresis" unicode="&#xf6;" horiz-adv-x="583" 
d="M255 710h78l-18 -105h-78zM413 710h78l-17 -105h-79zM246 -10q-98 0 -150.5 53.5t-52.5 150.5q0 70 21 127.5t59.5 98.5t92.5 63t121 22q99 0 151 -53.5t52 -150.5q0 -70 -20.5 -127.5t-59 -98t-93 -63t-121.5 -22.5zM258 58q45 0 82 17t62.5 47.5t39.5 73.5t14 95
q0 69 -33.5 108t-97.5 39q-45 0 -81 -17t-62 -48t-40 -74t-14 -95q0 -69 33.5 -107.5t96.5 -38.5z" />
    <glyph glyph-name="divide" unicode="&#xf7;" horiz-adv-x="516" 
d="M277 362q-28 0 -28 26q0 18 11 28.5t29 10.5q29 0 29 -27q0 -17 -10.5 -27.5t-30.5 -10.5zM71 272h382l-7 -40h-382zM227 77q-28 0 -28 25q0 18 10.5 29t29.5 11q14 0 21.5 -7.5t7.5 -19.5q0 -38 -41 -38z" />
    <glyph glyph-name="oslash" unicode="&#xf8;" horiz-adv-x="583" 
d="M488 451q52 -54 52 -150q0 -70 -20.5 -127.5t-59 -98t-93 -63t-121.5 -22.5q-71 0 -118 29l-48 -58l-34 25l49 59q-52 54 -52 149q0 70 21 127.5t59.5 98.5t92.5 63t121 22q70 0 118 -28l47 56l34 -24zM128 204q0 -55 22 -93l254 305q-31 22 -79 22q-45 0 -81 -17
t-62 -48t-40 -74t-14 -95zM258 58q45 0 82 17t62.5 47.5t39.5 73.5t14 95q0 57 -23 94l-254 -305q33 -22 79 -22z" />
    <glyph glyph-name="ugrave" unicode="&#xf9;" horiz-adv-x="569" 
d="M536 495l-87 -495h-82l30 170h-2q-15 -85 -67 -132.5t-129 -47.5q-70 0 -107 37.5t-37 106.5q0 24 6 53l54 308h82l-54 -305q-3 -21 -3 -35q0 -47 26 -72.5t75 -25.5q65 0 108.5 44t57.5 124l47 270h82zM322 560l-60 125h81l43 -125h-64z" />
    <glyph glyph-name="uacute" unicode="&#xfa;" horiz-adv-x="569" 
d="M536 495l-87 -495h-82l30 170h-2q-15 -85 -67 -132.5t-129 -47.5q-70 0 -107 37.5t-37 106.5q0 24 6 53l54 308h82l-54 -305q-3 -21 -3 -35q0 -47 26 -72.5t75 -25.5q65 0 108.5 44t57.5 124l47 270h82zM288 560l81 125h85l-98 -125h-68z" />
    <glyph glyph-name="ucircumflex" unicode="&#xfb;" horiz-adv-x="569" 
d="M252 570h-69l122 160h125l67 -160h-69l-61 151h-2zM536 495l-87 -495h-82l30 170h-2q-15 -85 -67 -132.5t-129 -47.5q-70 0 -107 37.5t-37 106.5q0 24 6 53l54 308h82l-54 -305q-3 -21 -3 -35q0 -47 26 -72.5t75 -25.5q65 0 108.5 44t57.5 124l47 270h82z" />
    <glyph glyph-name="udieresis" unicode="&#xfc;" horiz-adv-x="569" 
d="M305 605h-78l18 105h78zM464 605h-79l18 105h78zM536 495l-87 -495h-82l30 170h-2q-15 -85 -67 -132.5t-129 -47.5q-70 0 -107 37.5t-37 106.5q0 24 6 53l54 308h82l-54 -305q-3 -21 -3 -35q0 -47 26 -72.5t75 -25.5q65 0 108.5 44t57.5 124l47 270h82z" />
    <glyph glyph-name="yacute" unicode="&#xfd;" horiz-adv-x="523" 
d="M544 495l-361 -725h-88l115 230h-69l-73 495h89l63 -489h2l234 489h88zM266 560l81 125h85l-98 -125h-68z" />
    <glyph glyph-name="thorn" unicode="&#xfe;" 
d="M389 505q84 0 128 -52t44 -145q0 -71 -18.5 -129.5t-53 -100.5t-83 -65t-108.5 -23q-75 0 -116 34t-41 95q0 18 3 36h-2l-68 -385h-82l177 1000h82l-76 -430h2q14 78 70 121.5t142 43.5zM278 57q45 0 81.5 17t62 48t39.5 74t14 95q0 69 -33.5 108t-97.5 39
q-75 0 -125.5 -51t-66.5 -139q-2 -15 -3.5 -27.5t-1.5 -24.5q0 -65 33.5 -102t97.5 -37z" />
    <glyph glyph-name="ydieresis" unicode="&#xff;" horiz-adv-x="523" 
d="M288 605h-78l18 105h78zM447 605h-79l18 105h78zM544 495l-361 -725h-88l115 230h-69l-73 495h89l63 -489h2l234 489h88z" />
    <glyph glyph-name="Amacron" unicode="&#x100;" horiz-adv-x="683" 
d="M592 872h-282l11 61h282zM506 190h-354l-95 -190h-88l384 740h151l123 -740h-93zM496 260l-70 472h-2l-237 -472h309z" />
    <glyph glyph-name="amacron" unicode="&#x101;" 
d="M501 627h-282l11 61h282zM571 495l-87 -495h-82l28 163h-2q-14 -81 -70.5 -127t-142.5 -46q-84 0 -127.5 52t-43.5 146q0 70 18.5 128.5t53 100.5t82.5 65t108 23q75 0 115.5 -35t40.5 -98q0 -9 -1 -18.5t-3 -20.5h2l29 162h82zM259 58q76 0 126.5 51t66.5 139
q2 15 3.5 27.5t1.5 24.5q0 65 -33.5 101.5t-97.5 36.5q-45 0 -81 -17t-62 -48t-40 -74t-14 -95q0 -69 33.5 -107.5t96.5 -38.5z" />
    <glyph glyph-name="Abreve" unicode="&#x102;" horiz-adv-x="683" 
d="M506 190h-354l-95 -190h-88l384 740h151l123 -740h-93zM496 260l-70 472h-2l-237 -472h309zM439 792q-63 0 -90 30.5t-17 85.5h64q-7 -36 9.5 -48t43.5 -12t47.5 12t27.5 48h64q-10 -55 -48 -85.5t-101 -30.5z" />
    <glyph glyph-name="abreve" unicode="&#x103;" 
d="M571 495l-87 -495h-82l28 163h-2q-14 -81 -70.5 -127t-142.5 -46q-84 0 -127.5 52t-43.5 146q0 70 18.5 128.5t53 100.5t82.5 65t108 23q75 0 115.5 -35t40.5 -98q0 -9 -1 -18.5t-3 -20.5h2l29 162h82zM259 58q76 0 126.5 51t66.5 139q2 15 3.5 27.5t1.5 24.5
q0 65 -33.5 101.5t-97.5 36.5q-45 0 -81 -17t-62 -48t-40 -74t-14 -95q0 -69 33.5 -107.5t96.5 -38.5zM341 550q-63 0 -90 30.5t-17 85.5h64q-7 -36 9.5 -48t43.5 -12t47.5 12t27.5 48h64q-10 -55 -48 -85.5t-101 -30.5z" />
    <glyph glyph-name="Aogonek" unicode="&#x104;" horiz-adv-x="683" 
d="M500 -162q0 -26 29 -26q20 0 39.5 6t38.5 17l-10 -52q-20 -11 -45 -17t-51 -6q-35 0 -54.5 15.5t-19.5 43.5q0 27 18.5 58t47 58t62 45t62.5 18v2h-83l-28 190h-354l-95 -190h-88l384 740h151l123 -740q-59 -45 -93 -88t-34 -74zM496 260l-70 472h-2l-237 -472h309z" />
    <glyph glyph-name="aogonek" unicode="&#x105;" 
d="M484 0q-59 -45 -93 -88t-34 -74q0 -26 29 -26q20 0 39.5 6t38.5 17l-10 -52q-20 -11 -45 -17t-51 -6q-35 0 -54.5 15.5t-19.5 43.5q0 27 18.5 58t47 58t62 45t62.5 18v2h-72l28 163h-2q-14 -81 -70.5 -127t-142.5 -46q-84 0 -127.5 52t-43.5 146q0 70 18.5 128.5
t53 100.5t82.5 65t108 23q75 0 115.5 -35t40.5 -98q0 -9 -1 -18.5t-3 -20.5h2l29 162h82zM259 58q76 0 126.5 51t66.5 139q2 15 3.5 27.5t1.5 24.5q0 65 -33.5 101.5t-97.5 36.5q-45 0 -81 -17t-62 -48t-40 -74t-14 -95q0 -69 33.5 -107.5t96.5 -38.5z" />
    <glyph glyph-name="Cacute" unicode="&#x106;" horiz-adv-x="714" 
d="M630 925l-192 -89l-17 46l191 94zM678 271q-22 -66 -56.5 -118t-79.5 -88.5t-99 -55.5t-114 -19q-127 0 -194 77t-67 216q0 105 28 191t79.5 147.5t124.5 95t163 33.5q120 0 185.5 -67t65.5 -188v-19h-83v5q0 94 -47.5 145t-132.5 51q-66 0 -120.5 -28t-92.5 -79
t-59 -121.5t-21 -155.5q0 -109 46.5 -169.5t137.5 -60.5q85 0 151.5 54.5t101.5 153.5h83z" />
    <glyph glyph-name="cacute" unicode="&#x107;" horiz-adv-x="554" 
d="M501 680l-192 -89l-17 46l191 94zM243 -10q-97 0 -148.5 53.5t-51.5 150.5q0 70 20.5 127.5t59 98t92 63t119.5 22.5q90 0 140.5 -45t55.5 -129h-82q-7 51 -38.5 79t-87.5 28q-44 0 -79.5 -17t-61 -48t-39.5 -74.5t-14 -95.5q0 -69 32.5 -107t95.5 -38q58 0 101 30.5
t67 86.5h83q-32 -88 -100.5 -136.5t-163.5 -48.5z" />
    <glyph glyph-name="Cdotaccent" unicode="&#x10a;" horiz-adv-x="714" 
d="M458 955h82l-18 -105h-82zM678 271q-22 -66 -56.5 -118t-79.5 -88.5t-99 -55.5t-114 -19q-127 0 -194 77t-67 216q0 105 28 191t79.5 147.5t124.5 95t163 33.5q120 0 185.5 -67t65.5 -188v-19h-83v5q0 94 -47.5 145t-132.5 51q-66 0 -120.5 -28t-92.5 -79t-59 -121.5
t-21 -155.5q0 -109 46.5 -169.5t137.5 -60.5q85 0 151.5 54.5t101.5 153.5h83z" />
    <glyph glyph-name="cdotaccent" unicode="&#x10b;" horiz-adv-x="554" 
d="M330 710h82l-18 -105h-82zM243 -10q-97 0 -148.5 53.5t-51.5 150.5q0 70 20.5 127.5t59 98t92 63t119.5 22.5q90 0 140.5 -45t55.5 -129h-82q-7 51 -38.5 79t-87.5 28q-44 0 -79.5 -17t-61 -48t-39.5 -74.5t-14 -95.5q0 -69 32.5 -107t95.5 -38q58 0 101 30.5t67 86.5h83
q-32 -88 -100.5 -136.5t-163.5 -48.5z" />
    <glyph glyph-name="Ccaron" unicode="&#x10c;" horiz-adv-x="714" 
d="M345 975h70l60 -151h2l113 151h70l-123 -160h-124zM631 476v5q0 94 -47.5 145t-132.5 51q-66 0 -120.5 -28t-92.5 -79t-59 -121.5t-21 -155.5q0 -109 46.5 -169.5t137.5 -60.5q85 0 151.5 54.5t101.5 153.5h83q-22 -66 -56.5 -118t-79.5 -88.5t-99 -55.5t-114 -19
q-127 0 -194 77t-67 216q0 105 28 191t79.5 147.5t124.5 95t163 33.5q120 0 185.5 -67t65.5 -188v-19h-83z" />
    <glyph glyph-name="ccaron" unicode="&#x10d;" horiz-adv-x="554" 
d="M217 730h70l60 -151h2l113 151h70l-123 -160h-124zM322 438q-44 0 -79.5 -17t-61 -48t-39.5 -74.5t-14 -95.5q0 -69 32.5 -107t95.5 -38q58 0 101 30.5t67 86.5h83q-32 -88 -100.5 -136.5t-163.5 -48.5q-97 0 -148.5 53.5t-51.5 150.5q0 70 20.5 127.5t59 98t92 63
t119.5 22.5q90 0 140.5 -45t55.5 -129h-82q-7 51 -38.5 79t-87.5 28z" />
    <glyph glyph-name="Dcaron" unicode="&#x10e;" horiz-adv-x="715" 
d="M281 975h70l60 -151h2l113 151h70l-123 -160h-124zM395 740q143 0 219.5 -77.5t76.5 -216.5q0 -101 -30 -183t-85.5 -140.5t-134.5 -90.5t-176 -32h-214l130 740h214zM284 70q72 0 131 26.5t100.5 74.5t64 115.5t22.5 150.5q0 110 -54.5 171.5t-157.5 61.5h-135
l-106 -600h135z" />
    <glyph glyph-name="dcaron" unicode="&#x10f;" horiz-adv-x="629" 
d="M783 763l-93 -207l-54 17l86 207zM538 770h82l-136 -770h-82l28 163h-2q-14 -81 -70.5 -127t-142.5 -46q-84 0 -127.5 52t-43.5 146q0 70 18.5 128.5t53 100.5t82.5 65t108 23q75 0 115.5 -35t40.5 -98q0 -9 -1 -18.5t-3 -20.5h2zM259 58q76 0 126.5 51t66.5 139
q2 15 3.5 27.5t1.5 24.5q0 65 -33.5 101.5t-97.5 36.5q-45 0 -81 -17t-62 -48t-40 -74t-14 -95q0 -69 33.5 -107.5t96.5 -38.5z" />
    <glyph glyph-name="Dcroat" unicode="&#x110;" horiz-adv-x="723" 
d="M403 740q143 0 219.5 -77.5t76.5 -216.5q0 -101 -30 -183t-85.5 -140.5t-134.5 -90.5t-176 -32h-214l61 346h-93l10 49h91l61 345h214zM292 70q72 0 131 26.5t100.5 74.5t64 115.5t22.5 150.5q0 110 -54.5 171.5t-157.5 61.5h-135l-49 -275h146l-9 -49h-145l-49 -276h135
z" />
    <glyph glyph-name="dcroat" unicode="&#x111;" 
d="M259 58q76 0 126.5 51t66.5 139q2 15 3.5 27.5t1.5 24.5q0 65 -33.5 101.5t-97.5 36.5q-45 0 -81 -17t-62 -48t-40 -74t-14 -95q0 -69 33.5 -107.5t96.5 -38.5zM661 608h-70l-107 -608h-82l28 163h-2q-14 -81 -70.5 -127t-142.5 -46q-84 0 -127.5 52t-43.5 146
q0 70 18.5 128.5t53 100.5t82.5 65t108 23q75 0 115.5 -35t40.5 -98q0 -9 -1 -18.5t-3 -20.5h2l49 275h-172l10 49h171l20 113h82l-20 -113h70z" />
    <glyph glyph-name="Emacron" unicode="&#x112;" horiz-adv-x="623" 
d="M582 872h-282l11 61h282zM255 670l-44 -253h355l-12 -70h-356l-48 -277h401l-13 -70h-487l130 740h476l-12 -70h-390z" />
    <glyph glyph-name="emacron" unicode="&#x113;" horiz-adv-x="555" 
d="M488 627h-282l11 61h282zM325 505q92 0 142 -48.5t50 -138.5q0 -16 -2 -33.5t-6 -37.5l-3 -12h-379q0 -8 -0.5 -16.5t-0.5 -17.5q0 -69 31 -107.5t89 -38.5q60 0 104.5 31.5t64.5 87.5h81q-27 -88 -96 -136t-166 -48q-92 0 -141.5 53t-49.5 148q0 70 20 128t57 99.5
t89 64t116 22.5zM314 440q-69 0 -116.5 -44.5t-63.5 -119.5h298q1 8 1.5 15t0.5 14q0 65 -31 100t-89 35z" />
    <glyph glyph-name="Edotaccent" unicode="&#x116;" horiz-adv-x="623" 
d="M479 850h-82l18 105h82zM255 670l-44 -253h355l-12 -70h-356l-48 -277h401l-13 -70h-487l130 740h476l-12 -70h-390z" />
    <glyph glyph-name="edotaccent" unicode="&#x117;" horiz-adv-x="555" 
d="M385 605h-82l18 105h82zM325 505q92 0 142 -48.5t50 -138.5q0 -16 -2 -33.5t-6 -37.5l-3 -12h-379q0 -8 -0.5 -16.5t-0.5 -17.5q0 -69 31 -107.5t89 -38.5q60 0 104.5 31.5t64.5 87.5h81q-27 -88 -96 -136t-166 -48q-92 0 -141.5 53t-49.5 148q0 70 20 128t57 99.5t89 64
t116 22.5zM314 440q-69 0 -116.5 -44.5t-63.5 -119.5h298q1 8 1.5 15t0.5 14q0 65 -31 100t-89 35z" />
    <glyph glyph-name="Eogonek" unicode="&#x118;" horiz-adv-x="623" 
d="M255 670l-44 -253h355l-12 -70h-356l-48 -277h401l-13 -70h-104q-59 -45 -93 -88t-34 -74q0 -26 29 -26q20 0 39.5 6t38.5 17l-10 -52q-20 -11 -45 -17t-51 -6q-35 0 -54.5 15.5t-19.5 43.5q0 27 18.5 58t47 58t62 45t62.5 18v2h-373l130 740h476l-12 -70h-390z" />
    <glyph glyph-name="eogonek" unicode="&#x119;" horiz-adv-x="555" 
d="M325 505q92 0 142 -48.5t50 -138.5q0 -16 -2 -33.5t-6 -37.5l-3 -12h-379q0 -8 -0.5 -16.5t-0.5 -17.5q0 -69 31 -107.5t89 -38.5q60 0 104.5 31.5t64.5 87.5h81q-30 -99 -113 -146q-71 -53 -113 -104t-42 -86q0 -26 29 -26q20 0 39 6t38 17l-9 -52q-20 -11 -45 -17
t-51 -6q-36 0 -55.5 15.5t-19.5 43.5q0 24 17 50.5t45.5 52.5t64.5 49.5t75 41.5v1q-54 -24 -122 -24q-92 0 -141.5 53t-49.5 148q0 70 20 128t57 99.5t89 64t116 22.5zM314 440q-69 0 -116.5 -44.5t-63.5 -119.5h298q1 8 1.5 15t0.5 14q0 65 -31 100t-89 35z" />
    <glyph glyph-name="Ecaron" unicode="&#x11a;" horiz-adv-x="623" 
d="M302 975h70l60 -151h2l113 151h70l-123 -160h-124zM255 670l-44 -253h355l-12 -70h-356l-48 -277h401l-13 -70h-487l130 740h476l-12 -70h-390z" />
    <glyph glyph-name="ecaron" unicode="&#x11b;" horiz-adv-x="555" 
d="M208 730h70l60 -151h2l113 151h70l-123 -160h-124zM325 505q92 0 142 -48.5t50 -138.5q0 -16 -2 -33.5t-6 -37.5l-3 -12h-379q0 -8 -0.5 -16.5t-0.5 -17.5q0 -69 31 -107.5t89 -38.5q60 0 104.5 31.5t64.5 87.5h81q-27 -88 -96 -136t-166 -48q-92 0 -141.5 53t-49.5 148
q0 70 20 128t57 99.5t89 64t116 22.5zM314 440q-69 0 -116.5 -44.5t-63.5 -119.5h298q1 8 1.5 15t0.5 14q0 65 -31 100t-89 35z" />
    <glyph glyph-name="Gbreve" unicode="&#x11e;" horiz-adv-x="736" 
d="M476 812q-68 0 -98.5 43t-17.5 120h61q-9 -51 8.5 -80t56.5 -29t66.5 29t36.5 80h62q-14 -77 -60 -120t-115 -43zM629 483v6q-1 89 -47.5 138.5t-128.5 49.5q-68 0 -122.5 -28t-93 -79t-59.5 -122t-21 -157q0 -108 46 -168t134 -60q52 0 96 17.5t78.5 50.5t58 80.5
t35.5 107.5h-234l11 64h318l-68 -383h-81l48 269h-2q-24 -132 -105 -205.5t-203 -73.5q-106 0 -163.5 76t-57.5 210q0 107 28.5 194.5t80 149.5t125 96t163.5 34q118 0 182.5 -66.5t64.5 -185.5v-15h-83z" />
    <glyph glyph-name="gbreve" unicode="&#x11f;" 
d="M360 567q-68 0 -98.5 43t-17.5 120h61q-9 -51 8.5 -80t56.5 -29t66.5 29t36.5 80h62q-14 -77 -60 -120t-115 -43zM571 495l-90 -506q-19 -109 -91 -169t-184 -60q-100 0 -152 48.5t-44 135.5l79 8q-5 -59 28.5 -92t99.5 -33q73 0 120.5 41t60.5 115l33 182h-2
q-15 -81 -71.5 -127t-142.5 -46q-84 0 -127.5 52t-43.5 145q0 70 18.5 128.5t53 100t83 64.5t107.5 23q75 0 115.5 -35t40.5 -98q0 -9 -1 -18.5t-3 -20.5h2l29 162h82zM260 60q75 0 125.5 50.5t66.5 138.5q2 15 3.5 27t1.5 25q0 64 -33.5 100.5t-97.5 36.5q-45 0 -81 -17
t-61.5 -47.5t-39.5 -73t-14 -94.5q0 -69 33 -107.5t97 -38.5z" />
    <glyph glyph-name="Gdotaccent" unicode="&#x120;" horiz-adv-x="736" 
d="M524 850h-82l18 105h82zM629 483v6q-1 89 -47.5 138.5t-128.5 49.5q-68 0 -122.5 -28t-93 -79t-59.5 -122t-21 -157q0 -108 46 -168t134 -60q52 0 96 17.5t78.5 50.5t58 80.5t35.5 107.5h-234l11 64h318l-68 -383h-81l48 269h-2q-24 -132 -105 -205.5t-203 -73.5
q-106 0 -163.5 76t-57.5 210q0 107 28.5 194.5t80 149.5t125 96t163.5 34q118 0 182.5 -66.5t64.5 -185.5v-15h-83z" />
    <glyph glyph-name="gdotaccent" unicode="&#x121;" 
d="M409 605h-82l18 105h82zM571 495l-90 -506q-19 -109 -91 -169t-184 -60q-100 0 -152 48.5t-44 135.5l79 8q-5 -59 28.5 -92t99.5 -33q73 0 120.5 41t60.5 115l33 182h-2q-15 -81 -71.5 -127t-142.5 -46q-84 0 -127.5 52t-43.5 145q0 70 18.5 128.5t53 100t83 64.5
t107.5 23q75 0 115.5 -35t40.5 -98q0 -9 -1 -18.5t-3 -20.5h2l29 162h82zM260 60q75 0 125.5 50.5t66.5 138.5q2 15 3.5 27t1.5 25q0 64 -33.5 100.5t-97.5 36.5q-45 0 -81 -17t-61.5 -47.5t-39.5 -73t-14 -94.5q0 -69 33 -107.5t97 -38.5z" />
    <glyph glyph-name="Gcommaaccent" unicode="&#x122;" horiz-adv-x="736" 
d="M629 483v6q-1 89 -47.5 138.5t-128.5 49.5q-68 0 -122.5 -28t-93 -79t-59.5 -122t-21 -157q0 -108 46 -168t134 -60q52 0 96 17.5t78.5 50.5t58 80.5t35.5 107.5h-234l11 64h318l-68 -383h-81l48 269h-2q-24 -132 -105 -205.5t-203 -73.5q-106 0 -163.5 76t-57.5 210
q0 107 28.5 194.5t80 149.5t125 96t163.5 34q118 0 182.5 -66.5t64.5 -185.5v-15h-83zM280 -75h82l-10 -57q-8 -42 -31.5 -66.5t-70.5 -41.5l5 32q41 10 61.5 26t28.5 42h-77z" />
    <glyph glyph-name="gcommaaccent" unicode="&#x123;" 
d="M408 603h-83l11 59q7 38 30.5 60t69.5 34l-6 -32q-40 -6 -59.5 -18.5t-26.5 -32.5h77zM571 495l-90 -506q-19 -109 -91 -169t-184 -60q-100 0 -152 48.5t-44 135.5l79 8q-5 -59 28.5 -92t99.5 -33q73 0 120.5 41t60.5 115l33 182h-2q-15 -81 -71.5 -127t-142.5 -46
q-84 0 -127.5 52t-43.5 145q0 70 18.5 128.5t53 100t83 64.5t107.5 23q75 0 115.5 -35t40.5 -98q0 -9 -1 -18.5t-3 -20.5h2l29 162h82zM260 60q75 0 125.5 50.5t66.5 138.5q2 15 3.5 27t1.5 25q0 64 -33.5 100.5t-97.5 36.5q-45 0 -81 -17t-61.5 -47.5t-39.5 -73t-14 -94.5
q0 -69 33 -107.5t97 -38.5z" />
    <glyph glyph-name="Hbar" unicode="&#x126;" horiz-adv-x="736" 
d="M760 565h-63l-99 -565h-86l60 341h-374l-60 -341h-86l99 565h-62l8 39h61l24 136h86l-24 -136h374l24 136h86l-24 -136h63zM611 565h-374l-27 -154h374z" />
    <glyph glyph-name="hbar" unicode="&#x127;" horiz-adv-x="580" 
d="M375 505q72 0 110.5 -38t38.5 -108q0 -12 -1 -24.5t-4 -26.5l-54 -308h-82l54 306q3 16 3 33q0 48 -27.5 73.5t-78.5 25.5q-67 0 -112 -44t-59 -123l-48 -271h-82l109 618h-71l8 39h70l20 113h82l-20 -113h171l-7 -39h-171l-52 -293h2q16 85 68.5 132.5t132.5 47.5z" />
    <glyph glyph-name="Itilde" unicode="&#x128;" horiz-adv-x="274" 
d="M279 805q-18 0 -29.5 6.5t-21.5 14.5t-19.5 14.5t-22.5 6.5t-22.5 -13t-14.5 -32h-52q8 51 35 79.5t68 28.5q18 0 29.5 -6.5t21 -14t18.5 -14t23 -6.5t23.5 12.5t14.5 31.5h52q-8 -51 -35.5 -79.5t-67.5 -28.5zM181 740h86l-130 -740h-86z" />
    <glyph glyph-name="itilde" unicode="&#x129;" horiz-adv-x="235" 
d="M212 563q-18 0 -29.5 6.5t-21.5 14.5t-19.5 14.5t-22.5 6.5t-22.5 -13t-14.5 -32h-52q8 51 35 79.5t68 28.5q18 0 29.5 -6.5t21 -14t18.5 -14t23 -6.5t23.5 12.5t14.5 31.5h52q-8 -51 -35.5 -79.5t-67.5 -28.5zM202 495l-87 -495h-82l87 495h82z" />
    <glyph glyph-name="Imacron" unicode="&#x12a;" horiz-adv-x="274" 
d="M400 933l-11 -61h-282l11 61h282zM181 740h86l-130 -740h-86z" />
    <glyph glyph-name="imacron" unicode="&#x12b;" horiz-adv-x="235" 
d="M337 688l-11 -61h-282l11 61h282zM202 495l-87 -495h-82l87 495h82z" />
    <glyph glyph-name="Iogonek" unicode="&#x12e;" horiz-adv-x="274" 
d="M137 0q-59 -45 -93 -88t-34 -74q0 -26 29 -26q20 0 39.5 6t38.5 17l-10 -52q-20 -11 -45 -17t-51 -6q-35 0 -54.5 15.5t-19.5 43.5q0 27 18.5 58t47 58t62 45t62.5 18v2h-76l130 740h86l-130 -740v0z" />
    <glyph glyph-name="iogonek" unicode="&#x12f;" horiz-adv-x="235" 
d="M241 710l-18 -105h-82l18 105h82zM120 495h82l-87 -495q-59 -45 -93 -88t-34 -74q0 -26 29 -26q20 0 39.5 6t38.5 17l-10 -52q-20 -11 -45 -17t-51 -6q-35 0 -54.5 15.5t-19.5 43.5q0 27 18.5 58t47 58t62 45t62.5 18v2h-72z" />
    <glyph glyph-name="Idotaccent" unicode="&#x130;" horiz-adv-x="274" 
d="M221 955h82l-18 -105h-82zM181 740h86l-130 -740h-86z" />
    <glyph glyph-name="dotlessi" unicode="&#x131;" horiz-adv-x="235" 
d="M202 495l-87 -495h-82l87 495h82z" />
    <glyph glyph-name="Kcommaaccent" unicode="&#x136;" horiz-adv-x="684" 
d="M307 386l342 -386h-116l-329 381h-2l-67 -381h-84l130 740h84l-62 -351h3l429 351h108zM261 -75h82l-10 -57q-8 -42 -31.5 -66.5t-70.5 -41.5l5 32q41 10 61.5 26t28.5 42h-77z" />
    <glyph glyph-name="kcommaaccent" unicode="&#x137;" horiz-adv-x="545" 
d="M259 259l242 -259h-108l-231 253h-2l-45 -253h-82l136 770h82l-90 -508h3l299 233h106zM175 -75h82l-10 -57q-8 -42 -31.5 -66.5t-70.5 -41.5l5 32q41 10 61.5 26t28.5 42h-77z" />
    <glyph glyph-name="Lacute" unicode="&#x139;" horiz-adv-x="535" 
d="M201 836l-17 46l191 94l18 -51zM490 72l-13 -72h-426l130 740h86l-117 -668h340z" />
    <glyph glyph-name="lacute" unicode="&#x13a;" horiz-adv-x="235" 
d="M379 955l-192 -89l-17 46l191 94zM169 770h82l-136 -770h-82z" />
    <glyph glyph-name="Lcommaaccent" unicode="&#x13b;" horiz-adv-x="535" 
d="M490 72l-13 -72h-426l130 740h86l-117 -668h340zM175 -75h82l-10 -57q-8 -42 -31.5 -66.5t-70.5 -41.5l5 32q41 10 61.5 26t28.5 42h-77z" />
    <glyph glyph-name="lcommaaccent" unicode="&#x13c;" horiz-adv-x="235" 
d="M251 770l-136 -770h-82l136 770h82zM21 -75h82l-10 -57q-8 -42 -31.5 -66.5t-70.5 -41.5l5 32q41 10 61.5 26t28.5 42h-77z" />
    <glyph glyph-name="Lcaron" unicode="&#x13d;" horiz-adv-x="540" 
d="M369 526l-54 17l85 207l61 -17zM490 72l-13 -72h-426l130 740h86l-117 -668h340z" />
    <glyph glyph-name="lcaron" unicode="&#x13e;" horiz-adv-x="275" 
d="M414 763l-92 -207l-54 17l86 207zM169 770h82l-136 -770h-82z" />
    <glyph glyph-name="Lslash" unicode="&#x141;" horiz-adv-x="542" 
d="M496 72l-13 -72h-426l54 309l-75 -44l8 47l76 44l67 384h86l-58 -330l179 103l-8 -47l-179 -103l-51 -291h340z" />
    <glyph glyph-name="lslash" unicode="&#x142;" horiz-adv-x="286" 
d="M285 456l-72 -51l-72 -405h-82l61 345l-74 -52l9 50l74 52l66 375h82l-56 -316l73 51z" />
    <glyph glyph-name="Nacute" unicode="&#x143;" horiz-adv-x="734" 
d="M431 836l-17 46l191 94l18 -51zM727 740l-130 -740h-151l-184 732h-2l-126 -732h-83l130 740h152l184 -732h2l126 732h82z" />
    <glyph glyph-name="nacute" unicode="&#x144;" horiz-adv-x="580" 
d="M313 591l-17 46l191 94l18 -51zM375 505q72 0 110.5 -38t38.5 -108q0 -12 -1 -24.5t-4 -26.5l-54 -308h-82l54 306q3 16 3 33q0 48 -27.5 73.5t-78.5 25.5q-67 0 -112.5 -44t-59.5 -123l-47 -271h-82l87 495h82l-30 -170h2q16 85 68.5 132.5t132.5 47.5z" />
    <glyph glyph-name="Ncommaaccent" unicode="&#x145;" horiz-adv-x="734" 
d="M727 740l-130 -740h-151l-184 732h-2l-126 -732h-83l130 740h152l184 -732h2l126 732h82zM271 -75h82l-10 -57q-8 -42 -31.5 -66.5t-70.5 -41.5l5 32q41 10 61.5 26t28.5 42h-77z" />
    <glyph glyph-name="ncommaaccent" unicode="&#x146;" horiz-adv-x="580" 
d="M375 505q72 0 110.5 -38t38.5 -108q0 -12 -1 -24.5t-4 -26.5l-54 -308h-82l54 306q3 16 3 33q0 48 -27.5 73.5t-78.5 25.5q-67 0 -112.5 -44t-59.5 -123l-47 -271h-82l87 495h82l-30 -170h2q16 85 68.5 132.5t132.5 47.5zM196 -75h82l-10 -57q-8 -42 -31.5 -66.5
t-70.5 -41.5l5 32q41 10 61.5 26t28.5 42h-77z" />
    <glyph glyph-name="Ncaron" unicode="&#x147;" horiz-adv-x="734" 
d="M339 975h70l60 -151h2l113 151h70l-123 -160h-124zM727 740l-130 -740h-151l-184 732h-2l-126 -732h-83l130 740h152l184 -732h2l126 732h82z" />
    <glyph glyph-name="ncaron" unicode="&#x148;" horiz-adv-x="580" 
d="M220 730h70l60 -151h2l113 151h70l-123 -160h-124zM375 505q72 0 110.5 -38t38.5 -108q0 -12 -1 -24.5t-4 -26.5l-54 -308h-82l54 306q3 16 3 33q0 48 -27.5 73.5t-78.5 25.5q-67 0 -112.5 -44t-59.5 -123l-47 -271h-82l87 495h82l-30 -170h2q16 85 68.5 132.5
t132.5 47.5z" />
    <glyph glyph-name="Eng" unicode="&#x14a;" horiz-adv-x="734" 
d="M727 740l-130 -740l-3 -19q-20 -105 -84.5 -163t-163.5 -58q-54 0 -94 21l35 66q26 -14 66 -14q60 0 101 37t53 104l4 26h-65l-184 732h-2l-126 -732h-83l130 740h152l184 -732h2l126 732h82z" />
    <glyph glyph-name="eng" unicode="&#x14b;" horiz-adv-x="580" 
d="M375 505q72 0 110.5 -38t38.5 -108q0 -12 -1 -24.5t-4 -26.5l-64 -363q-15 -88 -70 -136.5t-139 -48.5q-64 0 -104 26l34 59q31 -17 75 -17q51 0 81.5 30.5t40.5 84.5l64 363q3 16 3 33q0 48 -27.5 73.5t-78.5 25.5q-67 0 -112.5 -44t-59.5 -123l-47 -271h-82l87 495h82
l-30 -170h2q16 85 68.5 132.5t132.5 47.5z" />
    <glyph glyph-name="Omacron" unicode="&#x14c;" horiz-adv-x="755" 
d="M640 933l-11 -61h-282l11 61h282zM332 -10q-128 0 -196 77.5t-68 215.5q0 105 28 191t80 147.5t125.5 95t164.5 33.5q128 0 196 -77.5t68 -215.5q0 -105 -28.5 -191t-80.5 -147.5t-125.5 -95t-163.5 -33.5zM345 63q67 0 121.5 28t93 79t59.5 121.5t21 155.5
q0 109 -48 169.5t-139 60.5q-68 0 -122.5 -28t-92.5 -78.5t-59 -121t-21 -155.5q0 -109 47.5 -170t139.5 -61z" />
    <glyph glyph-name="omacron" unicode="&#x14d;" horiz-adv-x="583" 
d="M511 688l-11 -61h-282l11 61h282zM246 -10q-98 0 -150.5 53.5t-52.5 150.5q0 70 21 127.5t59.5 98.5t92.5 63t121 22q99 0 151 -53.5t52 -150.5q0 -70 -20.5 -127.5t-59 -98t-93 -63t-121.5 -22.5zM258 58q45 0 82 17t62.5 47.5t39.5 73.5t14 95q0 69 -33.5 108t-97.5 39
q-45 0 -81 -17t-62 -48t-40 -74t-14 -95q0 -69 33.5 -107.5t96.5 -38.5z" />
    <glyph glyph-name="Ohungarumlaut" unicode="&#x150;" horiz-adv-x="755" 
d="M577 951l-172 -133l-30 38l165 136zM714 951l-171 -133l-31 38l165 136zM332 -10q-128 0 -196 77.5t-68 215.5q0 105 28 191t80 147.5t125.5 95t164.5 33.5q128 0 196 -77.5t68 -215.5q0 -105 -28.5 -191t-80.5 -147.5t-125.5 -95t-163.5 -33.5zM345 63q67 0 121.5 28
t93 79t59.5 121.5t21 155.5q0 109 -48 169.5t-139 60.5q-68 0 -122.5 -28t-92.5 -78.5t-59 -121t-21 -155.5q0 -109 47.5 -170t139.5 -61z" />
    <glyph glyph-name="ohungarumlaut" unicode="&#x151;" horiz-adv-x="583" 
d="M448 706l-172 -133l-30 38l165 136zM585 706l-171 -133l-31 38l165 136zM246 -10q-98 0 -150.5 53.5t-52.5 150.5q0 70 21 127.5t59.5 98.5t92.5 63t121 22q99 0 151 -53.5t52 -150.5q0 -70 -20.5 -127.5t-59 -98t-93 -63t-121.5 -22.5zM258 58q45 0 82 17t62.5 47.5
t39.5 73.5t14 95q0 69 -33.5 108t-97.5 39q-45 0 -81 -17t-62 -48t-40 -74t-14 -95q0 -69 33.5 -107.5t96.5 -38.5z" />
    <glyph glyph-name="OE" unicode="&#x152;" horiz-adv-x="1139" 
d="M775 670l-44 -253h351l-12 -70h-352l-48 -277h397l-13 -70h-483l45 255h-2q-11 -62 -38 -111t-67.5 -83.5t-93 -52.5t-114.5 -18q-113 0 -173 76t-60 211q0 105 26.5 192t74.5 149.5t115.5 97t150.5 34.5q109 0 167 -53t58 -149q0 -30 -6 -63h2l45 255h472l-12 -70h-386z
M346 63q57 0 106 21.5t87 61.5t64.5 96.5t38.5 127.5q5 23 6.5 45.5t1.5 42.5q0 103 -49.5 161t-146.5 58q-68 0 -122.5 -28t-92.5 -79t-59 -121.5t-21 -154.5q0 -109 47.5 -170t139.5 -61z" />
    <glyph glyph-name="oe" unicode="&#x153;" horiz-adv-x="951" 
d="M722 505q91 0 141 -48.5t50 -137.5q0 -17 -2 -34.5t-6 -37.5l-3 -12h-379q0 -8 -0.5 -16.5t-0.5 -17.5q0 -69 31 -107.5t89 -38.5q60 0 104.5 31.5t64.5 87.5h81q-27 -88 -95.5 -136t-165.5 -48q-94 0 -142.5 49t-49.5 139h-2q-15 -89 -74 -138.5t-148 -49.5
q-84 0 -127.5 52t-43.5 146q0 70 18.5 128.5t53 100.5t82.5 65t108 23q78 0 119 -37t41 -106q0 -11 -1 -22t-3 -22h2q32 90 98.5 138.5t159.5 48.5zM710 440q-69 0 -116.5 -44.5t-63.5 -119.5h298q1 8 1.5 15t0.5 14q0 65 -31 100t-89 35zM259 58q76 0 126.5 51t66.5 139
q2 15 3.5 27.5t1.5 24.5q0 65 -33.5 101.5t-97.5 36.5q-45 0 -81 -17t-62 -48t-40 -74t-14 -95q0 -69 33.5 -107.5t96.5 -38.5z" />
    <glyph glyph-name="Racute" unicode="&#x154;" horiz-adv-x="668" 
d="M375 836l-17 46l191 94l18 -51zM668 569q0 -57 -20.5 -103t-58 -79t-92 -51t-121.5 -18v-2q38 0 71 -24.5t52 -70.5l93 -221h-97l-129 316h-173l-56 -316h-86l130 740h264q108 0 165.5 -45t57.5 -126zM389 383q88 0 138.5 47t50.5 125q0 54 -36 84.5t-103 30.5h-184
l-50 -287h184z" />
    <glyph glyph-name="racute" unicode="&#x155;" horiz-adv-x="409" 
d="M220 591l-17 46l191 94l18 -51zM369 505q21 0 40.5 -3.5t33.5 -11.5l-38 -77q-14 8 -32 12.5t-38 4.5q-69 0 -115.5 -49t-61.5 -138l-43 -243h-82l87 495h82l-33 -188h2q16 94 68 146t130 52z" />
    <glyph glyph-name="Rcommaaccent" unicode="&#x156;" horiz-adv-x="668" 
d="M668 569q0 -57 -20.5 -103t-58 -79t-92 -51t-121.5 -18v-2q38 0 71 -24.5t52 -70.5l93 -221h-97l-129 316h-173l-56 -316h-86l130 740h264q108 0 165.5 -45t57.5 -126zM389 383q88 0 138.5 47t50.5 125q0 54 -36 84.5t-103 30.5h-184l-50 -287h184zM245 -75h82l-10 -57
q-8 -42 -31.5 -66.5t-70.5 -41.5l5 32q41 10 61.5 26t28.5 42h-77z" />
    <glyph glyph-name="rcommaaccent" unicode="&#x157;" horiz-adv-x="409" 
d="M369 505q21 0 40.5 -3.5t33.5 -11.5l-38 -77q-14 8 -32 12.5t-38 4.5q-69 0 -115.5 -49t-61.5 -138l-43 -243h-82l87 495h82l-33 -188h2q16 94 68 146t130 52zM22 -75h82l-10 -57q-8 -42 -31.5 -66.5t-70.5 -41.5l5 32q41 10 61.5 26t28.5 42h-77z" />
    <glyph glyph-name="Rcaron" unicode="&#x158;" horiz-adv-x="668" 
d="M283 975h70l60 -151h2l113 151h70l-123 -160h-124zM668 569q0 -57 -20.5 -103t-58 -79t-92 -51t-121.5 -18v-2q38 0 71 -24.5t52 -70.5l93 -221h-97l-129 316h-173l-56 -316h-86l130 740h264q108 0 165.5 -45t57.5 -126zM389 383q88 0 138.5 47t50.5 125q0 54 -36 84.5
t-103 30.5h-184l-50 -287h184z" />
    <glyph glyph-name="rcaron" unicode="&#x159;" horiz-adv-x="409" 
d="M128 730h70l60 -151h2l113 151h70l-123 -160h-124zM171 307q16 94 68 146t130 52q21 0 40.5 -3.5t33.5 -11.5l-38 -77q-14 8 -32 12.5t-38 4.5q-69 0 -115.5 -49t-61.5 -138l-43 -243h-82l87 495h82l-33 -188h2z" />
    <glyph glyph-name="Sacute" unicode="&#x15a;" horiz-adv-x="660" 
d="M583 925l-192 -89l-17 46l191 94zM282 -10q-116 0 -178.5 57.5t-62.5 162.5q0 11 0.5 21.5t1.5 21.5h86q-3 -17 -3 -31q0 -76 44.5 -117.5t126.5 -41.5q105 0 165 43.5t60 119.5q0 34 -16 55t-42 34t-60 20.5t-70 13.5q-41 7 -80.5 15.5t-71.5 25.5t-51.5 45t-19.5 75
q0 56 21 100.5t61 75.5t96 47.5t127 16.5q109 0 167 -55t58 -156q0 -10 -0.5 -20t-1.5 -21h-85q1 8 1 15.5v15.5q0 71 -39.5 109.5t-114.5 38.5q-94 0 -147 -39.5t-53 -108.5q0 -29 14.5 -47.5t39 -30t56 -18.5t65.5 -13q42 -7 84 -16t75.5 -27t55 -49t21.5 -82
q0 -59 -23 -106.5t-66 -80.5t-104 -51t-137 -18z" />
    <glyph glyph-name="sacute" unicode="&#x15b;" horiz-adv-x="503" 
d="M462 680l-192 -89l-17 46l191 94zM205 -10q-88 0 -135.5 35t-47.5 100q0 15 3 35h79q-3 -14 -3 -24q0 -42 30 -65t84 -23q69 0 107.5 26t38.5 72q0 21 -10.5 35t-28.5 22.5t-41 14t-48 10.5q-29 5 -57 12t-51 19t-37 32t-14 52q0 75 59.5 118.5t162.5 43.5
q81 0 125 -33.5t44 -95.5q0 -17 -3 -35h-79q2 7 2 12.5v11.5q0 40 -25.5 61.5t-74.5 21.5q-60 0 -94.5 -23.5t-34.5 -65.5q0 -18 9.5 -29.5t26 -19t38 -12.5t44.5 -9q30 -6 60.5 -13t54.5 -20.5t39.5 -35.5t15.5 -57q0 -81 -64 -127t-175 -46z" />
    <glyph glyph-name="Scedilla" unicode="&#x15e;" horiz-adv-x="660" 
d="M282 -10q-116 0 -178.5 57.5t-62.5 162.5q0 11 0.5 21.5t1.5 21.5h86q-3 -17 -3 -31q0 -76 44.5 -117.5t126.5 -41.5q105 0 165 43.5t60 119.5q0 34 -16 55t-42 34t-60 20.5t-70 13.5q-41 7 -80.5 15.5t-71.5 25.5t-51.5 45t-19.5 75q0 56 21 100.5t61 75.5t96 47.5
t127 16.5q109 0 167 -55t58 -156q0 -10 -0.5 -20t-1.5 -21h-85q1 8 1 15.5v15.5q0 71 -39.5 109.5t-114.5 38.5q-94 0 -147 -39.5t-53 -108.5q0 -29 14.5 -47.5t39 -30t56 -18.5t65.5 -13q42 -7 84 -16t75.5 -27t55 -49t21.5 -82q0 -59 -23 -106.5t-66 -80.5t-104 -51
t-137 -18zM220 -240q-24 0 -46.5 6t-39.5 16l8 43q14 -11 34.5 -17t42.5 -6q40 0 63 16t23 43q0 34 -43 34q-18 1 -34.5 -6t-27.5 -18l-30 24q20 19 49.5 30.5t58.5 11.5q44 0 67 -18t23 -50q0 -51 -39.5 -80t-108.5 -29z" />
    <glyph glyph-name="scedilla" unicode="&#x15f;" horiz-adv-x="503" 
d="M205 -10q-88 0 -135.5 35t-47.5 100q0 15 3 35h79q-3 -14 -3 -24q0 -42 30 -65t84 -23q69 0 107.5 26t38.5 72q0 21 -10.5 35t-28.5 22.5t-41 14t-48 10.5q-29 5 -57 12t-51 19t-37 32t-14 52q0 75 59.5 118.5t162.5 43.5q81 0 125 -33.5t44 -95.5q0 -17 -3 -35h-79
q2 7 2 12.5v11.5q0 40 -25.5 61.5t-74.5 21.5q-60 0 -94.5 -23.5t-34.5 -65.5q0 -18 9.5 -29.5t26 -19t38 -12.5t44.5 -9q30 -6 60.5 -13t54.5 -20.5t39.5 -35.5t15.5 -57q0 -81 -64 -127t-175 -46zM142 -240q-24 0 -46.5 6t-39.5 16l8 43q14 -11 34.5 -17t42.5 -6
q40 0 63 16t23 43q0 34 -43 34q-18 1 -34.5 -6t-27.5 -18l-30 24q20 19 49.5 30.5t58.5 11.5q44 0 67 -18t23 -50q0 -51 -39.5 -80t-108.5 -29z" />
    <glyph glyph-name="Scaron" unicode="&#x160;" horiz-adv-x="660" 
d="M298 975h70l60 -151h2l113 151h70l-123 -160h-124zM554 498q1 8 1 15.5v15.5q0 71 -39.5 109.5t-114.5 38.5q-94 0 -147 -39.5t-53 -108.5q0 -29 14.5 -47.5t39 -30t56 -18.5t65.5 -13q42 -7 84 -16t75.5 -27t55 -49t21.5 -82q0 -59 -23 -106.5t-66 -80.5t-104 -51
t-137 -18q-116 0 -178.5 57.5t-62.5 162.5q0 11 0.5 21.5t1.5 21.5h86q-3 -17 -3 -31q0 -76 44.5 -117.5t126.5 -41.5q105 0 165 43.5t60 119.5q0 34 -16 55t-42 34t-60 20.5t-70 13.5q-41 7 -80.5 15.5t-71.5 25.5t-51.5 45t-19.5 75q0 56 21 100.5t61 75.5t96 47.5
t127 16.5q109 0 167 -55t58 -156q0 -10 -0.5 -20t-1.5 -21h-85z" />
    <glyph glyph-name="scaron" unicode="&#x161;" horiz-adv-x="503" 
d="M178 730h70l60 -151h2l113 151h70l-123 -160h-124zM296 505q81 0 125 -33.5t44 -95.5q0 -17 -3 -35h-79q2 7 2 12.5v11.5q0 40 -25.5 61.5t-74.5 21.5q-60 0 -94.5 -23.5t-34.5 -65.5q0 -18 9.5 -29.5t26 -19t38 -12.5t44.5 -9q30 -6 60.5 -13t54.5 -20.5t39.5 -35.5
t15.5 -57q0 -81 -64 -127t-175 -46q-88 0 -135.5 35t-47.5 100q0 15 3 35h79q-3 -14 -3 -24q0 -42 30 -65t84 -23q69 0 107.5 26t38.5 72q0 21 -10.5 35t-28.5 22.5t-41 14t-48 10.5q-29 5 -57 12t-51 19t-37 32t-14 52q0 75 59.5 118.5t162.5 43.5z" />
    <glyph glyph-name="uni0162" unicode="&#x162;" horiz-adv-x="576" 
d="M633 670h-228l-118 -670h-86l118 670h-228l12 70h542zM238 -63q44 0 67 -18t23 -50q0 -51 -39.5 -80t-108.5 -29q-24 0 -46.5 6t-39.5 16l8 43q14 -11 34.5 -17t42.5 -6q40 0 63 16t23 43q0 34 -43 34q-18 1 -34.5 -6t-27.5 -18l-30 24q20 19 49.5 30.5t58.5 11.5z" />
    <glyph glyph-name="uni0163" unicode="&#x163;" horiz-adv-x="370" 
d="M164 145q-1 -5 -1.5 -10t-0.5 -10q0 -32 20 -49.5t57 -17.5q39 0 74 16l-11 -64q-22 -9 -48.5 -14.5t-52.5 -5.5q-60 0 -92 29t-32 83q0 9 1 18t3 20l52 294h-80l10 61h87l30 172h82l-7 -42q-7 -42 -34 -75t-66 -53l-1 -2h241l-11 -61h-170zM136 -63q44 0 67 -18t23 -50
q0 -51 -39.5 -80t-108.5 -29q-24 0 -46.5 6t-39.5 16l8 43q14 -11 34.5 -17t42.5 -6q40 0 63 16t23 43q0 34 -43 34q-18 1 -34.5 -6t-27.5 -18l-30 24q20 19 49.5 30.5t58.5 11.5z" />
    <glyph glyph-name="Tcaron" unicode="&#x164;" horiz-adv-x="576" 
d="M258 975h70l60 -151h2l113 151h70l-123 -160h-124zM633 670h-228l-118 -670h-86l118 670h-228l12 70h542z" />
    <glyph glyph-name="tcaron" unicode="&#x165;" horiz-adv-x="370" 
d="M353 556l-55 17l86 207l61 -17zM154 495h241l-11 -61h-170l-50 -289q-1 -5 -1.5 -10t-0.5 -10q0 -32 20 -49.5t57 -17.5q39 0 74 16l-11 -64q-22 -9 -48.5 -14.5t-52.5 -5.5q-60 0 -92 29t-32 83q0 9 1 18t3 20l52 294h-80l10 61h87l30 172h82l-7 -42q-7 -42 -34 -75
t-66 -53z" />
    <glyph glyph-name="Tbar" unicode="&#x166;" horiz-adv-x="583" 
d="M409 670l-50 -283h119l-7 -39h-119l-61 -348h-86l61 348h-119l8 39h118l50 283h-228l12 70h542l-12 -70h-228z" />
    <glyph glyph-name="tbar" unicode="&#x167;" horiz-adv-x="385" 
d="M222 434l-28 -163h170l-7 -39h-170l-15 -87q-1 -5 -1.5 -10t-0.5 -10q0 -32 20 -49.5t57 -17.5q39 0 74 16l-11 -64q-22 -9 -48.5 -14.5t-52.5 -5.5q-60 0 -92 29t-32 83q0 9 1 18t3 20l16 92h-79l8 39h78l29 163h-80l10 61h87l30 172h82l-7 -42q-7 -42 -34 -75t-66 -53
l-1 -2h241l-11 -61h-170z" />
    <glyph glyph-name="Utilde" unicode="&#x168;" horiz-adv-x="714" 
d="M497 805q-18 0 -29.5 6.5t-21.5 14.5t-19.5 14.5t-22.5 6.5t-22.5 -13t-14.5 -32h-52q8 51 35 79.5t68 28.5q18 0 29.5 -6.5t21 -14t18.5 -14t23 -6.5t23.5 12.5t14.5 31.5h52q-8 -51 -35.5 -79.5t-67.5 -28.5zM633 740h82l-86 -485q-22 -125 -105.5 -195t-211.5 -70
q-111 0 -170.5 52.5t-59.5 149.5q0 30 6 63l86 485h85l-86 -491q-4 -23 -4 -45q0 -68 40.5 -104.5t116.5 -36.5q89 0 147 49t74 137z" />
    <glyph glyph-name="utilde" unicode="&#x169;" horiz-adv-x="569" 
d="M380 563q-18 0 -29.5 6.5t-21.5 14.5t-19.5 14.5t-22.5 6.5t-22.5 -13t-14.5 -32h-52q8 51 35 79.5t68 28.5q18 0 29.5 -6.5t21 -14t18.5 -14t23 -6.5t23.5 12.5t14.5 31.5h52q-8 -51 -35.5 -79.5t-67.5 -28.5zM536 495l-87 -495h-82l30 170h-2q-15 -85 -67 -132.5
t-129 -47.5q-70 0 -107 37.5t-37 106.5q0 24 6 53l54 308h82l-54 -305q-3 -21 -3 -35q0 -47 26 -72.5t75 -25.5q65 0 108.5 44t57.5 124l47 270h82z" />
    <glyph glyph-name="Umacron" unicode="&#x16a;" horiz-adv-x="714" 
d="M621 933l-11 -61h-282l11 61h282zM633 740h82l-86 -485q-22 -125 -105.5 -195t-211.5 -70q-111 0 -170.5 52.5t-59.5 149.5q0 30 6 63l86 485h85l-86 -491q-4 -23 -4 -45q0 -68 40.5 -104.5t116.5 -36.5q89 0 147 49t74 137z" />
    <glyph glyph-name="umacron" unicode="&#x16b;" horiz-adv-x="569" 
d="M490 627h-282l11 61h282zM536 495l-87 -495h-82l30 170h-2q-15 -85 -67 -132.5t-129 -47.5q-70 0 -107 37.5t-37 106.5q0 24 6 53l54 308h82l-54 -305q-3 -21 -3 -35q0 -47 26 -72.5t75 -25.5q65 0 108.5 44t57.5 124l47 270h82z" />
    <glyph glyph-name="Uring" unicode="&#x16e;" horiz-adv-x="714" 
d="M455 797q-48 0 -74 24t-26 66q0 60 37.5 95t101.5 35q49 0 75 -23.5t26 -65.5q0 -60 -37.5 -95.5t-102.5 -35.5zM463 844q35 0 54.5 20.5t19.5 55.5q0 24 -13 37.5t-38 13.5q-34 0 -54 -21t-20 -56q0 -23 13 -36.5t38 -13.5zM633 740h82l-86 -485q-22 -125 -105.5 -195
t-211.5 -70q-111 0 -170.5 52.5t-59.5 149.5q0 30 6 63l86 485h85l-86 -491q-4 -23 -4 -45q0 -68 40.5 -104.5t116.5 -36.5q89 0 147 49t74 137z" />
    <glyph glyph-name="uring" unicode="&#x16f;" horiz-adv-x="569" 
d="M335 552q-48 0 -74 24t-26 66q0 60 37.5 95t101.5 35q49 0 75 -23.5t26 -65.5q0 -60 -37.5 -95.5t-102.5 -35.5zM366 726q-34 0 -54 -21t-20 -56q0 -23 13 -36.5t38 -13.5q35 0 54.5 20.5t19.5 55.5q0 24 -13 37.5t-38 13.5zM536 495l-87 -495h-82l30 170h-2
q-15 -85 -67 -132.5t-129 -47.5q-70 0 -107 37.5t-37 106.5q0 24 6 53l54 308h82l-54 -305q-3 -21 -3 -35q0 -47 26 -72.5t75 -25.5q65 0 108.5 44t57.5 124l47 270h82z" />
    <glyph glyph-name="Uhungarumlaut" unicode="&#x170;" horiz-adv-x="714" 
d="M558 951l-172 -133l-30 38l165 136zM695 951l-171 -133l-31 38l165 136zM633 740h82l-86 -485q-22 -125 -105.5 -195t-211.5 -70q-111 0 -170.5 52.5t-59.5 149.5q0 30 6 63l86 485h85l-86 -491q-4 -23 -4 -45q0 -68 40.5 -104.5t116.5 -36.5q89 0 147 49t74 137z" />
    <glyph glyph-name="uhungarumlaut" unicode="&#x171;" horiz-adv-x="569" 
d="M267 573l-30 38l165 136l37 -41zM374 611l165 136l37 -41l-171 -133zM454 495h82l-87 -495h-82l30 170h-2q-15 -85 -67 -132.5t-129 -47.5q-70 0 -107 37.5t-37 106.5q0 24 6 53l54 308h82l-54 -305q-3 -21 -3 -35q0 -47 26 -72.5t75 -25.5q65 0 108.5 44t57.5 124z" />
    <glyph glyph-name="Uogonek" unicode="&#x172;" horiz-adv-x="714" 
d="M715 740l-86 -485q-18 -102 -77 -167.5t-151 -87.5q-57 -46 -89.5 -89t-32.5 -73q0 -26 29 -26q20 0 39 6t38 17l-9 -52q-20 -11 -45 -17t-51 -6q-36 0 -55.5 15.5t-19.5 43.5q0 22 15 46.5t40.5 47.5t58 44.5t68.5 37.5v2q-34 -7 -75 -7q-111 0 -170.5 52.5t-59.5 149.5
q0 30 6 63l86 485h85l-86 -491q-4 -23 -4 -45q0 -68 40.5 -104.5t116.5 -36.5q89 0 147 49t74 137l86 491h82z" />
    <glyph glyph-name="uogonek" unicode="&#x173;" horiz-adv-x="569" 
d="M449 0q-59 -45 -93 -88t-34 -74q0 -26 29 -26q20 0 39.5 6t38.5 17l-10 -52q-20 -11 -45 -17t-51 -6q-35 0 -54.5 15.5t-19.5 43.5q0 27 18.5 58t47 58t62 45t62.5 18v2h-72l30 170h-2q-15 -85 -67 -132.5t-129 -47.5q-70 0 -107 37.5t-37 106.5q0 24 6 53l54 308h82
l-54 -305q-3 -21 -3 -35q0 -47 26 -72.5t75 -25.5q65 0 108.5 44t57.5 124l47 270h82l-87 -495v0z" />
    <glyph glyph-name="Wcircumflex" unicode="&#x174;" horiz-adv-x="1011" 
d="M520 815h-69l122 160h125l67 -160h-69l-61 151h-2zM1073 740l-301 -740h-161l-20 732h-2l-276 -732h-161l-40 740h93l33 -732h2l279 732h149l23 -732h2l292 732h88z" />
    <glyph glyph-name="wcircumflex" unicode="&#x175;" horiz-adv-x="824" 
d="M382 570h-69l122 160h125l67 -160h-69l-61 151h-2zM841 495l-218 -495h-148l-19 489h-2l-191 -489h-148l-45 495h88l34 -489h2l192 489h142l19 -489h2l207 489h85z" />
    <glyph glyph-name="Ycircumflex" unicode="&#x176;" horiz-adv-x="656" 
d="M354 815h-69l122 160h125l67 -160h-69l-61 151h-2zM749 740l-504 -740h-94l187 277h-84l-153 463h100l147 -455h2l305 455h94z" />
    <glyph glyph-name="ycircumflex" unicode="&#x177;" horiz-adv-x="523" 
d="M235 570h-69l122 160h125l67 -160h-69l-61 151h-2zM544 495l-361 -725h-88l115 230h-69l-73 495h89l63 -489h2l234 489h88z" />
    <glyph glyph-name="Ydieresis" unicode="&#x178;" horiz-adv-x="656" 
d="M407 850h-78l18 105h78zM566 850h-79l18 105h78zM749 740l-504 -740h-94l187 277h-84l-153 463h100l147 -455h2l305 455h94z" />
    <glyph glyph-name="Zacute" unicode="&#x179;" horiz-adv-x="662" 
d="M399 836l-17 46l191 94l18 -51zM19 72l-1 -2h582l-13 -70h-592l29 163l648 505v2h-545l12 70h557l-29 -163z" />
    <glyph glyph-name="zacute" unicode="&#x17a;" horiz-adv-x="513" 
d="M277 591l-17 46l191 94l18 -51zM21 64v-2h425l-11 -62h-436l25 143l457 289l1 2h-400l10 61h412l-25 -142z" />
    <glyph glyph-name="Zdotaccent" unicode="&#x17b;" horiz-adv-x="662" 
d="M483 850h-82l18 105h82zM19 72l-1 -2h582l-13 -70h-592l29 163l648 505v2h-545l12 70h557l-29 -163z" />
    <glyph glyph-name="zdotaccent" unicode="&#x17c;" horiz-adv-x="513" 
d="M361 605h-82l18 105h82zM21 64v-2h425l-11 -62h-436l25 143l457 289l1 2h-400l10 61h412l-25 -142z" />
    <glyph glyph-name="Zcaron" unicode="&#x17d;" horiz-adv-x="662" 
d="M306 975h70l60 -151h2l113 151h70l-123 -160h-124zM19 72l-1 -2h582l-13 -70h-592l29 163l648 505v2h-545l12 70h557l-29 -163z" />
    <glyph glyph-name="zcaron" unicode="&#x17e;" horiz-adv-x="513" 
d="M184 730h70l60 -151h2l113 151h70l-123 -160h-124zM21 64v-2h425l-11 -62h-436l25 143l457 289l1 2h-400l10 61h412l-25 -142z" />
    <glyph glyph-name="florin" unicode="&#x192;" horiz-adv-x="660" 
d="M619 750q32 0 62 -6.5t52 -17.5l-28 -60q-35 16 -84 16q-45 0 -80.5 -30.5t-55.5 -85.5l-58 -164h160l-8 -39h-165l-76 -216q-27 -75 -81 -116t-126 -41q-32 0 -62 6.5t-52 17.5l29 60q34 -16 84 -16q45 0 80 30.5t55 85.5l66 189h-152l8 39h158l67 191q26 75 80.5 116
t126.5 41z" />
    <glyph glyph-name="Ohorn" unicode="&#x1a0;" horiz-adv-x="755" 
d="M332 -10q-128 0 -196 77.5t-68 215.5q0 105 28 191t80 147.5t125.5 95t164.5 33.5q59 0 106 -18q20 5 37 25.5t25 72.5h80q-6 -44 -34.5 -75t-71.5 -40q60 -35 91 -100.5t31 -157.5q0 -105 -28.5 -191t-80.5 -147.5t-125.5 -95t-163.5 -33.5zM345 63q67 0 121.5 28t93 79
t59.5 121.5t21 155.5q0 109 -48 169.5t-139 60.5q-68 0 -122.5 -28t-92.5 -78.5t-59 -121t-21 -155.5q0 -109 47.5 -170t139.5 -61z" />
    <glyph glyph-name="ohorn" unicode="&#x1a1;" horiz-adv-x="583" 
d="M246 -10q-98 0 -150.5 53.5t-52.5 150.5q0 70 21 127.5t59.5 98.5t92.5 63t121 22q51 0 90 -15q19 7 33.5 27.5t21.5 67.5h80q-6 -42 -32.5 -72.5t-67.5 -40.5q78 -52 78 -171q0 -70 -20.5 -127.5t-59 -98t-93 -63t-121.5 -22.5zM258 58q45 0 82 17t62.5 47.5t39.5 73.5
t14 95q0 69 -33.5 108t-97.5 39q-45 0 -81 -17t-62 -48t-40 -74t-14 -95q0 -69 33.5 -107.5t96.5 -38.5z" />
    <glyph glyph-name="Uhorn" unicode="&#x1af;" horiz-adv-x="714" 
d="M633 740h12q12 1 24.5 5t23 15t18.5 30t12 50h80q-5 -40 -29 -69.5t-61 -41.5l-84 -474q-22 -125 -105.5 -195t-211.5 -70q-111 0 -170.5 52.5t-59.5 149.5q0 30 6 63l86 485h85l-86 -491q-4 -23 -4 -45q0 -68 40.5 -104.5t116.5 -36.5q89 0 147 49t74 137z" />
    <glyph glyph-name="uhorn" unicode="&#x1b0;" horiz-adv-x="569" 
d="M466 495q12 1 24.5 5t23 15t18.5 30t12 50h80q-5 -40 -29 -69.5t-61 -41.5l-85 -484h-82l30 170h-2q-15 -85 -67 -132.5t-129 -47.5q-70 0 -107 37.5t-37 106.5q0 24 6 53l54 308h82l-54 -305q-3 -21 -3 -35q0 -47 26 -72.5t75 -25.5q65 0 108.5 44t57.5 124l47 270h12z
" />
    <glyph glyph-name="Scommaaccent" unicode="&#x218;" horiz-adv-x="660" 
d="M554 498q1 8 1 15.5v15.5q0 71 -39.5 109.5t-114.5 38.5q-94 0 -147 -39.5t-53 -108.5q0 -29 14.5 -47.5t39 -30t56 -18.5t65.5 -13q42 -7 84 -16t75.5 -27t55 -49t21.5 -82q0 -59 -23 -106.5t-66 -80.5t-104 -51t-137 -18q-116 0 -178.5 57.5t-62.5 162.5q0 11 0.5 21.5
t1.5 21.5h86q-3 -17 -3 -31q0 -76 44.5 -117.5t126.5 -41.5q105 0 165 43.5t60 119.5q0 34 -16 55t-42 34t-60 20.5t-70 13.5q-41 7 -80.5 15.5t-71.5 25.5t-51.5 45t-19.5 75q0 56 21 100.5t61 75.5t96 47.5t127 16.5q109 0 167 -55t58 -156q0 -10 -0.5 -20t-1.5 -21h-85z
M231 -75h82l-10 -57q-8 -42 -31.5 -66.5t-70.5 -41.5l5 32q41 10 61.5 26t28.5 42h-77z" />
    <glyph glyph-name="scommaaccent" unicode="&#x219;" horiz-adv-x="503" 
d="M383 341q2 7 2 12.5v11.5q0 40 -25.5 61.5t-74.5 21.5q-60 0 -94.5 -23.5t-34.5 -65.5q0 -18 9.5 -29.5t26 -19t38 -12.5t44.5 -9q30 -6 60.5 -13t54.5 -20.5t39.5 -35.5t15.5 -57q0 -81 -64 -127t-175 -46q-88 0 -135.5 35t-47.5 100q0 15 3 35h79q-3 -14 -3 -24
q0 -42 30 -65t84 -23q69 0 107.5 26t38.5 72q0 21 -10.5 35t-28.5 22.5t-41 14t-48 10.5q-29 5 -57 12t-51 19t-37 32t-14 52q0 75 59.5 118.5t162.5 43.5q81 0 125 -33.5t44 -95.5q0 -17 -3 -35h-79zM152 -75h82l-10 -57q-8 -42 -31.5 -66.5t-70.5 -41.5l5 32
q41 10 61.5 26t28.5 42h-77z" />
    <glyph glyph-name="uni021A" unicode="&#x21a;" horiz-adv-x="576" 
d="M633 670h-228l-118 -670h-86l118 670h-228l12 70h542zM191 -75h82l-10 -57q-8 -42 -31.5 -66.5t-70.5 -41.5l5 32q41 10 61.5 26t28.5 42h-77z" />
    <glyph glyph-name="uni021B" unicode="&#x21b;" horiz-adv-x="370" 
d="M164 145q-1 -5 -1.5 -10t-0.5 -10q0 -32 20 -49.5t57 -17.5q39 0 74 16l-11 -64q-22 -9 -48.5 -14.5t-52.5 -5.5q-60 0 -92 29t-32 83q0 9 1 18t3 20l52 294h-80l10 61h87l30 172h82l-7 -42q-7 -42 -34 -75t-66 -53l-1 -2h241l-11 -61h-170zM89 -75h82l-10 -57
q-8 -42 -31.5 -66.5t-70.5 -41.5l5 32q41 10 61.5 26t28.5 42h-77z" />
    <glyph glyph-name="uni0237" unicode="&#x237;" horiz-adv-x="235" 
d="M202 495l-128 -725h-82l128 725h82z" />
    <glyph glyph-name="circumflex" unicode="&#x2c6;" horiz-adv-x="347" 
d="M388 570h-69l-61 151h-2l-113 -151h-69l122 160h125z" />
    <glyph glyph-name="caron" unicode="&#x2c7;" horiz-adv-x="347" 
d="M416 730l-123 -160h-124l-68 160h70l60 -151h2l113 151h70z" />
    <glyph glyph-name="breve" unicode="&#x2d8;" horiz-adv-x="340" 
d="M401 730q-14 -77 -60 -120t-115 -43q-68 0 -98.5 43t-17.5 120h61q-9 -51 8.5 -80t56.5 -29t66.5 29t36.5 80h62v0z" />
    <glyph glyph-name="dotaccent" unicode="&#x2d9;" horiz-adv-x="210" 
d="M146 710h82l-18 -105h-82z" />
    <glyph glyph-name="ring" unicode="&#x2da;" horiz-adv-x="283" 
d="M195 552q-48 0 -74 24t-26 66q0 60 37.5 95t101.5 35q49 0 75 -23.5t26 -65.5q0 -60 -37.5 -95.5t-102.5 -35.5zM203 599q35 0 54.5 20.5t19.5 55.5q0 24 -13 37.5t-38 13.5q-34 0 -54 -21t-20 -56q0 -23 13 -36.5t38 -13.5z" />
    <glyph glyph-name="ogonek" unicode="&#x2db;" horiz-adv-x="221" 
d="M120 -217q-20 -11 -45 -17t-51 -6q-35 0 -54.5 15.5t-19.5 43.5q0 27 18.5 58t47 58t62 45t62.5 18v2h10q-59 -45 -93 -88t-34 -74q0 -26 29 -26q20 0 39.5 6t38.5 17l-10 -52v0z" />
    <glyph glyph-name="tilde" unicode="&#x2dc;" horiz-adv-x="410" 
d="M336 597q-26 0 -43 10t-31 22t-27.5 22t-31.5 10q-23 0 -40 -18t-25 -50h-45q12 63 45 97t81 34q26 0 43 -10t31 -21.5t27.5 -21.5t31.5 -10q23 0 40 17.5t25 49.5h45q-11 -62 -44.5 -96.5t-81.5 -34.5z" />
    <glyph glyph-name="hungarumlaut" unicode="&#x2dd;" horiz-adv-x="383" 
d="M295 706l-172 -133l-30 38l165 136zM432 706l-171 -133l-31 38l165 136z" />
    <glyph glyph-name="gravecomb" unicode="&#x300;" horiz-adv-x="0" 
d="M55 637l-33 -46l-161 89l37 51z" />
    <glyph glyph-name="acutecomb" unicode="&#x301;" horiz-adv-x="0" 
d="M59 680l-192 -89l-17 46l191 94z" />
    <glyph glyph-name="uni0302" unicode="&#x302;" horiz-adv-x="0" 
d="M41 570h-69l-61 151h-2l-113 -151h-69l122 160h125z" />
    <glyph glyph-name="tildecomb" unicode="&#x303;" horiz-adv-x="0" 
d="M-73 597q-26 0 -43 10t-31 22t-27.5 22t-31.5 10q-23 0 -40 -18t-25 -50h-45q12 63 45 97t81 34q26 0 43 -10t31 -21.5t27.5 -21.5t31.5 -10q23 0 40 17.5t25 49.5h45q-11 -62 -44.5 -96.5t-81.5 -34.5z" />
    <glyph glyph-name="uni0304" unicode="&#x304;" horiz-adv-x="0" 
d="M56 688l-11 -61h-282l11 61h282z" />
    <glyph glyph-name="uni0306" unicode="&#x306;" horiz-adv-x="0" 
d="M61 730q-14 -77 -60 -120t-115 -43q-68 0 -98.5 43t-17.5 120h61q-9 -51 8.5 -80t56.5 -29t66.5 29t36.5 80h62v0z" />
    <glyph glyph-name="uni0307" unicode="&#x307;" horiz-adv-x="0" 
d="M-64 710h82l-18 -105h-82z" />
    <glyph glyph-name="uni0308" unicode="&#x308;" horiz-adv-x="0" 
d="M-223 710h78l-18 -105h-78zM-65 710h78l-17 -105h-79z" />
    <glyph glyph-name="uni030A" unicode="&#x30a;" horiz-adv-x="0" 
d="M-88 552q-48 0 -74 24t-26 66q0 60 37.5 95t101.5 35q49 0 75 -23.5t26 -65.5q0 -60 -37.5 -95.5t-102.5 -35.5zM-80 599q35 0 54.5 20.5t19.5 55.5q0 24 -13 37.5t-38 13.5q-34 0 -54 -21t-20 -56q0 -23 13 -36.5t38 -13.5z" />
    <glyph glyph-name="uni030B" unicode="&#x30b;" horiz-adv-x="0" 
d="M-88 706l-172 -133l-30 38l165 136zM49 706l-171 -133l-31 38l165 136z" />
    <glyph glyph-name="uni030C" unicode="&#x30c;" horiz-adv-x="0" 
d="M69 730l-123 -160h-124l-68 160h70l60 -151h2l113 151h70z" />
    <glyph glyph-name="uni0312" unicode="&#x312;" horiz-adv-x="0" 
d="M66 724q-40 -6 -59.5 -18.5t-26.5 -32.5h77l-13 -70h-83l11 59q7 38 30.5 60t69.5 34l-6 -32v0z" />
    <glyph glyph-name="uni0326" unicode="&#x326;" horiz-adv-x="0" 
d="M-88 -75l-10 -57q-8 -42 -31.5 -66.5t-70.5 -41.5l5 32q41 10 61.5 26t28.5 42h-77l12 65h82z" />
    <glyph glyph-name="uni0327" unicode="&#x327;" horiz-adv-x="0" 
d="M-240 -240q-24 0 -46.5 6t-39.5 16l8 43q14 -11 34.5 -17t42.5 -6q40 0 63 16t23 43q0 34 -43 34q-18 1 -34.5 -6t-27.5 -18l-30 24q20 19 49.5 30.5t58.5 11.5q44 0 67 -18t23 -50q0 -51 -39.5 -80t-108.5 -29z" />
    <glyph glyph-name="uni0328" unicode="&#x328;" horiz-adv-x="0" 
d="M-101 -217q-20 -11 -45 -17t-51 -6q-35 0 -54.5 15.5t-19.5 43.5q0 27 18.5 58t47 58t62 45t62.5 18v2h10q-59 -45 -93 -88t-34 -74q0 -26 29 -26q20 0 39.5 6t38.5 17l-10 -52v0z" />
    <glyph glyph-name="uni0335" unicode="&#x335;" horiz-adv-x="0" 
d="M-35 371l-7 -39h-324l8 39h323z" />
    <glyph glyph-name="uni0336" unicode="&#x336;" horiz-adv-x="0" 
d="M-704 371h670l-7 -39h-671z" />
    <glyph glyph-name="uni0337" unicode="&#x337;" horiz-adv-x="0" 
d="M39 509l-456 -548l-34 25l456 547z" />
    <glyph glyph-name="uni0338" unicode="&#x338;" horiz-adv-x="0" 
d="M63 751l-615 -788l-39 26l616 788z" />
    <glyph glyph-name="uni0394" unicode="&#x394;" horiz-adv-x="684" 
d="M628 0h-658l384 740h151zM525 70l-98 662h-2l-332 -662h432z" />
    <glyph glyph-name="uni03A9" unicode="&#x3a9;" horiz-adv-x="783" 
d="M455 71h221l-12 -71h-270l13 71q58 0 104.5 29.5t79.5 80.5t51 119.5t18 146.5q0 109 -50 169.5t-145 60.5q-69 0 -125 -27t-95.5 -77t-61.5 -121.5t-22 -161.5q0 -103 38 -161t110 -58l-13 -71h-269l13 71h221v2q-90 0 -137.5 63.5t-47.5 177.5q0 100 28.5 180.5
t81 137.5t126.5 87.5t166 30.5q134 0 205 -72.5t71 -202.5q0 -85 -21.5 -158.5t-60.5 -127.5t-94 -85t-123 -31v-2z" />
    <glyph glyph-name="uni03BC" unicode="&#x3bc;" horiz-adv-x="575" 
d="M542 495l-87 -495h-82l30 170h-2q-15 -85 -67 -132.5t-129 -47.5q-62 0 -98 29.5t-44 83.5l12 -329l-1 -4h-82l75 418v-1l54 308h82l-54 -305q-3 -21 -3 -35q0 -47 26 -72.5t75 -25.5q65 0 108.5 44t57.5 124l47 270h82z" />
    <glyph glyph-name="pi" unicode="&#x3c0;" horiz-adv-x="612" 
d="M625 434h-90l-77 -434h-82l77 434h-228l-77 -434h-82l77 434h-90l10 61h572z" />
    <glyph glyph-name="Wgrave" unicode="&#x1e80;" horiz-adv-x="1011" 
d="M652 836l-161 89l37 51l157 -94zM1073 740l-301 -740h-161l-20 732h-2l-276 -732h-161l-40 740h93l33 -732h2l279 732h149l23 -732h2l292 732h88z" />
    <glyph glyph-name="wgrave" unicode="&#x1e81;" horiz-adv-x="824" 
d="M514 591l-161 89l37 51l157 -94zM841 495l-218 -495h-148l-19 489h-2l-191 -489h-148l-45 495h88l34 -489h2l192 489h142l19 -489h2l207 489h85z" />
    <glyph glyph-name="Wacute" unicode="&#x1e82;" horiz-adv-x="1011" 
d="M570 836l-17 46l191 94l18 -51zM1073 740l-301 -740h-161l-20 732h-2l-276 -732h-161l-40 740h93l33 -732h2l279 732h149l23 -732h2l292 732h88z" />
    <glyph glyph-name="wacute" unicode="&#x1e83;" horiz-adv-x="824" 
d="M433 591l-17 46l191 94l18 -51zM841 495l-218 -495h-148l-19 489h-2l-191 -489h-148l-45 495h88l34 -489h2l192 489h142l19 -489h2l207 489h85z" />
    <glyph glyph-name="Wdieresis" unicode="&#x1e84;" horiz-adv-x="1011" 
d="M574 850h-78l18 105h78zM733 850h-79l18 105h78zM1073 740l-301 -740h-161l-20 732h-2l-276 -732h-161l-40 740h93l33 -732h2l279 732h149l23 -732h2l292 732h88z" />
    <glyph glyph-name="wdieresis" unicode="&#x1e85;" horiz-adv-x="824" 
d="M436 605h-78l18 105h78zM595 605h-79l18 105h78zM841 495l-218 -495h-148l-19 489h-2l-191 -489h-148l-45 495h88l34 -489h2l192 489h142l19 -489h2l207 489h85z" />
    <glyph glyph-name="uni1E9E" unicode="&#x1e9e;" horiz-adv-x="671" 
d="M359 410q125 0 193 -47.5t68 -132.5q0 -55 -21 -99.5t-60.5 -75.5t-95.5 -48t-126 -17q-28 0 -54.5 3t-46.5 9l13 71q20 -5 45 -7.5t51 -2.5q97 0 152 42.5t55 115.5q0 60 -47.5 93t-135.5 33h-49l12 65q52 2 94.5 14t72 33t45.5 49.5t16 63.5q0 50 -34 77.5t-99 27.5
q-75 0 -123.5 -39.5t-61.5 -111.5l-93 -526h-85l92 523q19 108 93.5 167.5t189.5 59.5q103 0 158.5 -39t55.5 -109q0 -45 -20 -80t-56.5 -59.5t-89 -37.5t-118.5 -13v-2h10v0z" />
    <glyph glyph-name="uni1EA0" unicode="&#x1ea0;" horiz-adv-x="683" 
d="M237 -70h82l-18 -105h-82zM506 190h-354l-95 -190h-88l384 740h151l123 -740h-93zM496 260l-70 472h-2l-237 -472h309z" />
    <glyph glyph-name="uni1EA1" unicode="&#x1ea1;" 
d="M217 -70h82l-18 -105h-82zM571 495l-87 -495h-82l28 163h-2q-14 -81 -70.5 -127t-142.5 -46q-84 0 -127.5 52t-43.5 146q0 70 18.5 128.5t53 100.5t82.5 65t108 23q75 0 115.5 -35t40.5 -98q0 -9 -1 -18.5t-3 -20.5h2l29 162h82zM259 58q76 0 126.5 51t66.5 139
q2 15 3.5 27.5t1.5 24.5q0 65 -33.5 101.5t-97.5 36.5q-45 0 -81 -17t-62 -48t-40 -74t-14 -95q0 -69 33.5 -107.5t96.5 -38.5z" />
    <glyph glyph-name="uni1EA2" unicode="&#x1ea2;" horiz-adv-x="683" 
d="M369 888q6 40 34.5 63.5t69.5 23.5q42 0 62.5 -20.5t14.5 -55.5q-4 -26 -24.5 -51.5t-56.5 -45.5h-63q37 23 60 44.5t27 47.5q7 35 -30 35q-36 0 -45 -41h-49zM506 190h-354l-95 -190h-88l384 740h151l123 -740h-93zM496 260l-70 472h-2l-237 -472h309z" />
    <glyph glyph-name="uni1EA3" unicode="&#x1ea3;" 
d="M282 646q6 40 34.5 63.5t69.5 23.5q42 0 62.5 -20.5t14.5 -55.5q-4 -26 -24.5 -51.5t-56.5 -45.5h-63q37 23 60 44.5t27 47.5q7 35 -30 35q-36 0 -45 -41h-49zM571 495l-87 -495h-82l28 163h-2q-14 -81 -70.5 -127t-142.5 -46q-84 0 -127.5 52t-43.5 146q0 70 18.5 128.5
t53 100.5t82.5 65t108 23q75 0 115.5 -35t40.5 -98q0 -9 -1 -18.5t-3 -20.5h2l29 162h82zM259 58q76 0 126.5 51t66.5 139q2 15 3.5 27.5t1.5 24.5q0 65 -33.5 101.5t-97.5 36.5q-45 0 -81 -17t-62 -48t-40 -74t-14 -95q0 -69 33.5 -107.5t96.5 -38.5z" />
    <glyph glyph-name="uni1EA4" unicode="&#x1ea4;" horiz-adv-x="683" 
d="M569 866l81 125h85l-98 -125h-68zM506 190h-354l-95 -190h-88l384 740h151l123 -740h-93zM496 260l-70 472h-2l-237 -472h309zM460 908h-4l-78 -116h-67l85 125h125l45 -125h-64z" />
    <glyph glyph-name="uni1EA5" unicode="&#x1ea5;" 
d="M469 624l81 125h85l-98 -125h-68zM571 495l-87 -495h-82l28 163h-2q-14 -81 -70.5 -127t-142.5 -46q-84 0 -127.5 52t-43.5 146q0 70 18.5 128.5t53 100.5t82.5 65t108 23q75 0 115.5 -35t40.5 -98q0 -9 -1 -18.5t-3 -20.5h2l29 162h82zM259 58q76 0 126.5 51t66.5 139
q2 15 3.5 27.5t1.5 24.5q0 65 -33.5 101.5t-97.5 36.5q-45 0 -81 -17t-62 -48t-40 -74t-14 -95q0 -69 33.5 -107.5t96.5 -38.5zM360 666h-4l-78 -116h-67l85 125h125l45 -125h-64z" />
    <glyph glyph-name="uni1EA6" unicode="&#x1ea6;" horiz-adv-x="683" 
d="M591 866l-60 125h80l43 -125h-63zM506 190h-354l-95 -190h-88l384 740h151l123 -740h-93zM496 260l-70 472h-2l-237 -472h309zM460 908h-4l-78 -116h-67l85 125h125l45 -125h-64z" />
    <glyph glyph-name="uni1EA7" unicode="&#x1ea7;" 
d="M491 624l-60 125h80l43 -125h-63zM571 495l-87 -495h-82l28 163h-2q-14 -81 -70.5 -127t-142.5 -46q-84 0 -127.5 52t-43.5 146q0 70 18.5 128.5t53 100.5t82.5 65t108 23q75 0 115.5 -35t40.5 -98q0 -9 -1 -18.5t-3 -20.5h2l29 162h82zM259 58q76 0 126.5 51t66.5 139
q2 15 3.5 27.5t1.5 24.5q0 65 -33.5 101.5t-97.5 36.5q-45 0 -81 -17t-62 -48t-40 -74t-14 -95q0 -69 33.5 -107.5t96.5 -38.5zM360 666h-4l-78 -116h-67l85 125h125l45 -125h-64z" />
    <glyph glyph-name="uni1EA8" unicode="&#x1ea8;" horiz-adv-x="683" 
d="M531 952q6 40 34.5 63.5t69.5 23.5q42 0 62.5 -20.5t14.5 -55.5q-4 -26 -24.5 -51.5t-56.5 -45.5h-63q37 23 60 44.5t27 47.5q7 35 -30 35q-36 0 -45 -41h-49zM506 190h-354l-95 -190h-88l384 740h151l123 -740h-93zM496 260l-70 472h-2l-237 -472h309zM460 908h-4
l-78 -116h-67l85 125h125l45 -125h-64z" />
    <glyph glyph-name="uni1EA9" unicode="&#x1ea9;" 
d="M431 710q6 40 34.5 63.5t69.5 23.5q42 0 62.5 -20.5t14.5 -55.5q-4 -26 -24.5 -51.5t-56.5 -45.5h-63q37 23 60 44.5t27 47.5q7 35 -30 35q-36 0 -45 -41h-49zM571 495l-87 -495h-82l28 163h-2q-14 -81 -70.5 -127t-142.5 -46q-84 0 -127.5 52t-43.5 146q0 70 18.5 128.5
t53 100.5t82.5 65t108 23q75 0 115.5 -35t40.5 -98q0 -9 -1 -18.5t-3 -20.5h2l29 162h82zM259 58q76 0 126.5 51t66.5 139q2 15 3.5 27.5t1.5 24.5q0 65 -33.5 101.5t-97.5 36.5q-45 0 -81 -17t-62 -48t-40 -74t-14 -95q0 -69 33.5 -107.5t96.5 -38.5zM360 666h-4l-78 -116
h-67l85 125h125l45 -125h-64z" />
    <glyph glyph-name="uni1EAA" unicode="&#x1eaa;" horiz-adv-x="683" 
d="M510 961q-18 0 -29.5 6.5t-21.5 14.5t-19.5 14.5t-22.5 6.5t-22.5 -13t-14.5 -32h-52q8 51 35 79.5t68 28.5q18 0 29.5 -6.5t21 -14t18.5 -14t23 -6.5t23.5 12.5t14.5 31.5h52q-8 -51 -35.5 -79.5t-67.5 -28.5zM506 190h-354l-95 -190h-88l384 740h151l123 -740h-93z
M496 260l-70 472h-2l-237 -472h309zM460 908h-4l-78 -116h-67l85 125h125l45 -125h-64z" />
    <glyph glyph-name="uni1EAB" unicode="&#x1eab;" 
d="M410 719q-18 0 -29.5 6.5t-21.5 14.5t-19.5 14.5t-22.5 6.5t-22.5 -13t-14.5 -32h-52q8 51 35 79.5t68 28.5q18 0 29.5 -6.5t21 -14t18.5 -14t23 -6.5t23.5 12.5t14.5 31.5h52q-8 -51 -35.5 -79.5t-67.5 -28.5zM571 495l-87 -495h-82l28 163h-2q-14 -81 -70.5 -127
t-142.5 -46q-84 0 -127.5 52t-43.5 146q0 70 18.5 128.5t53 100.5t82.5 65t108 23q75 0 115.5 -35t40.5 -98q0 -9 -1 -18.5t-3 -20.5h2l29 162h82zM259 58q76 0 126.5 51t66.5 139q2 15 3.5 27.5t1.5 24.5q0 65 -33.5 101.5t-97.5 36.5q-45 0 -81 -17t-62 -48t-40 -74
t-14 -95q0 -69 33.5 -107.5t96.5 -38.5zM360 666h-4l-78 -116h-67l85 125h125l45 -125h-64z" />
    <glyph glyph-name="uni1EAC" unicode="&#x1eac;" horiz-adv-x="683" 
d="M237 -70h82l-18 -105h-82zM506 190h-354l-95 -190h-88l384 740h151l123 -740h-93zM496 260l-70 472h-2l-237 -472h309zM460 908h-4l-78 -116h-67l85 125h125l45 -125h-64z" />
    <glyph glyph-name="uni1EAD" unicode="&#x1ead;" 
d="M217 -70h82l-18 -105h-82zM571 495l-87 -495h-82l28 163h-2q-14 -81 -70.5 -127t-142.5 -46q-84 0 -127.5 52t-43.5 146q0 70 18.5 128.5t53 100.5t82.5 65t108 23q75 0 115.5 -35t40.5 -98q0 -9 -1 -18.5t-3 -20.5h2l29 162h82zM259 58q76 0 126.5 51t66.5 139
q2 15 3.5 27.5t1.5 24.5q0 65 -33.5 101.5t-97.5 36.5q-45 0 -81 -17t-62 -48t-40 -74t-14 -95q0 -69 33.5 -107.5t96.5 -38.5zM360 666h-4l-78 -116h-67l85 125h125l45 -125h-64z" />
    <glyph glyph-name="uni1EAE" unicode="&#x1eae;" horiz-adv-x="683" 
d="M426 928l81 125h85l-98 -125h-68zM506 190h-354l-95 -190h-88l384 740h151l123 -740h-93zM496 260l-70 472h-2l-237 -472h309zM439 792q-63 0 -90 30.5t-17 85.5h64q-7 -36 9.5 -48t43.5 -12t47.5 12t27.5 48h64q-10 -55 -48 -85.5t-101 -30.5z" />
    <glyph glyph-name="uni1EAF" unicode="&#x1eaf;" 
d="M328 686l81 125h85l-98 -125h-68zM571 495l-87 -495h-82l28 163h-2q-14 -81 -70.5 -127t-142.5 -46q-84 0 -127.5 52t-43.5 146q0 70 18.5 128.5t53 100.5t82.5 65t108 23q75 0 115.5 -35t40.5 -98q0 -9 -1 -18.5t-3 -20.5h2l29 162h82zM259 58q76 0 126.5 51t66.5 139
q2 15 3.5 27.5t1.5 24.5q0 65 -33.5 101.5t-97.5 36.5q-45 0 -81 -17t-62 -48t-40 -74t-14 -95q0 -69 33.5 -107.5t96.5 -38.5zM341 550q-63 0 -90 30.5t-17 85.5h64q-7 -36 9.5 -48t43.5 -12t47.5 12t27.5 48h64q-10 -55 -48 -85.5t-101 -30.5z" />
    <glyph glyph-name="uni1EB0" unicode="&#x1eb0;" horiz-adv-x="683" 
d="M434 928l-60 125h81l43 -125h-64zM506 190h-354l-95 -190h-88l384 740h151l123 -740h-93zM496 260l-70 472h-2l-237 -472h309zM439 792q-63 0 -90 30.5t-17 85.5h64q-7 -36 9.5 -48t43.5 -12t47.5 12t27.5 48h64q-10 -55 -48 -85.5t-101 -30.5z" />
    <glyph glyph-name="uni1EB1" unicode="&#x1eb1;" 
d="M336 686l-60 125h81l43 -125h-64zM571 495l-87 -495h-82l28 163h-2q-14 -81 -70.5 -127t-142.5 -46q-84 0 -127.5 52t-43.5 146q0 70 18.5 128.5t53 100.5t82.5 65t108 23q75 0 115.5 -35t40.5 -98q0 -9 -1 -18.5t-3 -20.5h2l29 162h82zM259 58q76 0 126.5 51t66.5 139
q2 15 3.5 27.5t1.5 24.5q0 65 -33.5 101.5t-97.5 36.5q-45 0 -81 -17t-62 -48t-40 -74t-14 -95q0 -69 33.5 -107.5t96.5 -38.5zM341 550q-63 0 -90 30.5t-17 85.5h64q-7 -36 9.5 -48t43.5 -12t47.5 12t27.5 48h64q-10 -55 -48 -85.5t-101 -30.5z" />
    <glyph glyph-name="uni1EB2" unicode="&#x1eb2;" horiz-adv-x="683" 
d="M390 1014q6 40 34.5 63.5t69.5 23.5q42 0 62.5 -20.5t14.5 -55.5q-4 -26 -24.5 -51.5t-56.5 -45.5h-63q37 23 60 44.5t27 47.5q7 35 -30 35q-36 0 -45 -41h-49zM506 190h-354l-95 -190h-88l384 740h151l123 -740h-93zM496 260l-70 472h-2l-237 -472h309zM439 792
q-63 0 -90 30.5t-17 85.5h64q-7 -36 9.5 -48t43.5 -12t47.5 12t27.5 48h64q-10 -55 -48 -85.5t-101 -30.5z" />
    <glyph glyph-name="uni1EB3" unicode="&#x1eb3;" 
d="M292 772q6 40 34.5 63.5t69.5 23.5q42 0 62.5 -20.5t14.5 -55.5q-4 -26 -24.5 -51.5t-56.5 -45.5h-63q37 23 60 44.5t27 47.5q7 35 -30 35q-36 0 -45 -41h-49zM571 495l-87 -495h-82l28 163h-2q-14 -81 -70.5 -127t-142.5 -46q-84 0 -127.5 52t-43.5 146q0 70 18.5 128.5
t53 100.5t82.5 65t108 23q75 0 115.5 -35t40.5 -98q0 -9 -1 -18.5t-3 -20.5h2l29 162h82zM259 58q76 0 126.5 51t66.5 139q2 15 3.5 27.5t1.5 24.5q0 65 -33.5 101.5t-97.5 36.5q-45 0 -81 -17t-62 -48t-40 -74t-14 -95q0 -69 33.5 -107.5t96.5 -38.5zM341 550
q-63 0 -90 30.5t-17 85.5h64q-7 -36 9.5 -48t43.5 -12t47.5 12t27.5 48h64q-10 -55 -48 -85.5t-101 -30.5z" />
    <glyph glyph-name="uni1EB4" unicode="&#x1eb4;" horiz-adv-x="683" 
d="M516 952q-18 0 -29.5 6.5t-21.5 14.5t-19.5 14.5t-22.5 6.5t-22.5 -13t-14.5 -32h-52q8 51 35 79.5t68 28.5q18 0 29.5 -6.5t21 -14t18.5 -14t23 -6.5t23.5 12.5t14.5 31.5h52q-8 -51 -35.5 -79.5t-67.5 -28.5zM506 190h-354l-95 -190h-88l384 740h151l123 -740h-93z
M496 260l-70 472h-2l-237 -472h309zM439 792q-63 0 -90 30.5t-17 85.5h64q-7 -36 9.5 -48t43.5 -12t47.5 12t27.5 48h64q-10 -55 -48 -85.5t-101 -30.5z" />
    <glyph glyph-name="uni1EB5" unicode="&#x1eb5;" 
d="M418 710q-18 0 -29.5 6.5t-21.5 14.5t-19.5 14.5t-22.5 6.5t-22.5 -13t-14.5 -32h-52q8 51 35 79.5t68 28.5q18 0 29.5 -6.5t21 -14t18.5 -14t23 -6.5t23.5 12.5t14.5 31.5h52q-8 -51 -35.5 -79.5t-67.5 -28.5zM571 495l-87 -495h-82l28 163h-2q-14 -81 -70.5 -127
t-142.5 -46q-84 0 -127.5 52t-43.5 146q0 70 18.5 128.5t53 100.5t82.5 65t108 23q75 0 115.5 -35t40.5 -98q0 -9 -1 -18.5t-3 -20.5h2l29 162h82zM259 58q76 0 126.5 51t66.5 139q2 15 3.5 27.5t1.5 24.5q0 65 -33.5 101.5t-97.5 36.5q-45 0 -81 -17t-62 -48t-40 -74
t-14 -95q0 -69 33.5 -107.5t96.5 -38.5zM341 550q-63 0 -90 30.5t-17 85.5h64q-7 -36 9.5 -48t43.5 -12t47.5 12t27.5 48h64q-10 -55 -48 -85.5t-101 -30.5z" />
    <glyph glyph-name="uni1EB6" unicode="&#x1eb6;" horiz-adv-x="683" 
d="M237 -70h82l-18 -105h-82zM506 190h-354l-95 -190h-88l384 740h151l123 -740h-93zM496 260l-70 472h-2l-237 -472h309zM439 792q-63 0 -90 30.5t-17 85.5h64q-7 -36 9.5 -48t43.5 -12t47.5 12t27.5 48h64q-10 -55 -48 -85.5t-101 -30.5z" />
    <glyph glyph-name="uni1EB7" unicode="&#x1eb7;" 
d="M217 -70h82l-18 -105h-82zM571 495l-87 -495h-82l28 163h-2q-14 -81 -70.5 -127t-142.5 -46q-84 0 -127.5 52t-43.5 146q0 70 18.5 128.5t53 100.5t82.5 65t108 23q75 0 115.5 -35t40.5 -98q0 -9 -1 -18.5t-3 -20.5h2l29 162h82zM259 58q76 0 126.5 51t66.5 139
q2 15 3.5 27.5t1.5 24.5q0 65 -33.5 101.5t-97.5 36.5q-45 0 -81 -17t-62 -48t-40 -74t-14 -95q0 -69 33.5 -107.5t96.5 -38.5zM341 550q-63 0 -90 30.5t-17 85.5h64q-7 -36 9.5 -48t43.5 -12t47.5 12t27.5 48h64q-10 -55 -48 -85.5t-101 -30.5z" />
    <glyph glyph-name="uni1EB8" unicode="&#x1eb8;" horiz-adv-x="623" 
d="M254 -70h82l-18 -105h-82zM255 670l-44 -253h355l-12 -70h-356l-48 -277h401l-13 -70h-487l130 740h476l-12 -70h-390z" />
    <glyph glyph-name="uni1EB9" unicode="&#x1eb9;" horiz-adv-x="555" 
d="M204 -70h82l-18 -105h-82zM325 505q92 0 142 -48.5t50 -138.5q0 -16 -2 -33.5t-6 -37.5l-3 -12h-379q0 -8 -0.5 -16.5t-0.5 -17.5q0 -69 31 -107.5t89 -38.5q60 0 104.5 31.5t64.5 87.5h81q-27 -88 -96 -136t-166 -48q-92 0 -141.5 53t-49.5 148q0 70 20 128t57 99.5
t89 64t116 22.5zM314 440q-69 0 -116.5 -44.5t-63.5 -119.5h298q1 8 1.5 15t0.5 14q0 65 -31 100t-89 35z" />
    <glyph glyph-name="uni1EBA" unicode="&#x1eba;" horiz-adv-x="623" 
d="M359 888q6 40 34.5 63.5t69.5 23.5q42 0 62.5 -20.5t14.5 -55.5q-4 -26 -24.5 -51.5t-56.5 -45.5h-63q37 23 60 44.5t27 47.5q7 35 -30 35q-36 0 -45 -41h-49zM255 670l-44 -253h355l-12 -70h-356l-48 -277h401l-13 -70h-487l130 740h476l-12 -70h-390z" />
    <glyph glyph-name="uni1EBB" unicode="&#x1ebb;" horiz-adv-x="555" 
d="M272 646q6 40 34.5 63.5t69.5 23.5q42 0 62.5 -20.5t14.5 -55.5q-4 -26 -24.5 -51.5t-56.5 -45.5h-63q37 23 60 44.5t27 47.5q7 35 -30 35q-36 0 -45 -41h-49zM325 505q92 0 142 -48.5t50 -138.5q0 -16 -2 -33.5t-6 -37.5l-3 -12h-379q0 -8 -0.5 -16.5t-0.5 -17.5
q0 -69 31 -107.5t89 -38.5q60 0 104.5 31.5t64.5 87.5h81q-27 -88 -96 -136t-166 -48q-92 0 -141.5 53t-49.5 148q0 70 20 128t57 99.5t89 64t116 22.5zM314 440q-69 0 -116.5 -44.5t-63.5 -119.5h298q1 8 1.5 15t0.5 14q0 65 -31 100t-89 35z" />
    <glyph glyph-name="uni1EBC" unicode="&#x1ebc;" horiz-adv-x="623" 
d="M472 805q-18 0 -29.5 6.5t-21.5 14.5t-19.5 14.5t-22.5 6.5t-22.5 -13t-14.5 -32h-52q8 51 35 79.5t68 28.5q18 0 29.5 -6.5t21 -14t18.5 -14t23 -6.5t23.5 12.5t14.5 31.5h52q-8 -51 -35.5 -79.5t-67.5 -28.5zM255 670l-44 -253h355l-12 -70h-356l-48 -277h401l-13 -70
h-487l130 740h476l-12 -70h-390z" />
    <glyph glyph-name="uni1EBD" unicode="&#x1ebd;" horiz-adv-x="555" 
d="M380 563q-18 0 -29.5 6.5t-21.5 14.5t-19.5 14.5t-22.5 6.5t-22.5 -13t-14.5 -32h-52q8 51 35 79.5t68 28.5q18 0 29.5 -6.5t21 -14t18.5 -14t23 -6.5t23.5 12.5t14.5 31.5h52q-8 -51 -35.5 -79.5t-67.5 -28.5zM325 505q92 0 142 -48.5t50 -138.5q0 -16 -2 -33.5
t-6 -37.5l-3 -12h-379q0 -8 -0.5 -16.5t-0.5 -17.5q0 -69 31 -107.5t89 -38.5q60 0 104.5 31.5t64.5 87.5h81q-27 -88 -96 -136t-166 -48q-92 0 -141.5 53t-49.5 148q0 70 20 128t57 99.5t89 64t116 22.5zM314 440q-69 0 -116.5 -44.5t-63.5 -119.5h298q1 8 1.5 15t0.5 14
q0 65 -31 100t-89 35z" />
    <glyph glyph-name="uni1EBE" unicode="&#x1ebe;" horiz-adv-x="623" 
d="M549 866l81 125h85l-98 -125h-68zM255 670l-44 -253h355l-12 -70h-356l-48 -277h401l-13 -70h-487l130 740h476l-12 -70h-390zM440 908h-4l-78 -116h-67l85 125h125l45 -125h-64z" />
    <glyph glyph-name="uni1EBF" unicode="&#x1ebf;" horiz-adv-x="555" 
d="M459 624l81 125h85l-98 -125h-68zM325 505q92 0 142 -48.5t50 -138.5q0 -16 -2 -33.5t-6 -37.5l-3 -12h-379q0 -8 -0.5 -16.5t-0.5 -17.5q0 -69 31 -107.5t89 -38.5q60 0 104.5 31.5t64.5 87.5h81q-27 -88 -96 -136t-166 -48q-92 0 -141.5 53t-49.5 148q0 70 20 128
t57 99.5t89 64t116 22.5zM314 440q-69 0 -116.5 -44.5t-63.5 -119.5h298q1 8 1.5 15t0.5 14q0 65 -31 100t-89 35zM350 666h-4l-78 -116h-67l85 125h125l45 -125h-64z" />
    <glyph glyph-name="uni1EC0" unicode="&#x1ec0;" horiz-adv-x="623" 
d="M571 866l-60 125h80l43 -125h-63zM255 670l-44 -253h355l-12 -70h-356l-48 -277h401l-13 -70h-487l130 740h476l-12 -70h-390zM440 908h-4l-78 -116h-67l85 125h125l45 -125h-64z" />
    <glyph glyph-name="uni1EC1" unicode="&#x1ec1;" horiz-adv-x="555" 
d="M481 624l-60 125h80l43 -125h-63zM325 505q92 0 142 -48.5t50 -138.5q0 -16 -2 -33.5t-6 -37.5l-3 -12h-379q0 -8 -0.5 -16.5t-0.5 -17.5q0 -69 31 -107.5t89 -38.5q60 0 104.5 31.5t64.5 87.5h81q-27 -88 -96 -136t-166 -48q-92 0 -141.5 53t-49.5 148q0 70 20 128
t57 99.5t89 64t116 22.5zM314 440q-69 0 -116.5 -44.5t-63.5 -119.5h298q1 8 1.5 15t0.5 14q0 65 -31 100t-89 35zM350 666h-4l-78 -116h-67l85 125h125l45 -125h-64z" />
    <glyph glyph-name="uni1EC2" unicode="&#x1ec2;" horiz-adv-x="623" 
d="M511 952q6 40 34.5 63.5t69.5 23.5q42 0 62.5 -20.5t14.5 -55.5q-4 -26 -24.5 -51.5t-56.5 -45.5h-63q37 23 60 44.5t27 47.5q7 35 -30 35q-36 0 -45 -41h-49zM255 670l-44 -253h355l-12 -70h-356l-48 -277h401l-13 -70h-487l130 740h476l-12 -70h-390zM440 908h-4
l-78 -116h-67l85 125h125l45 -125h-64z" />
    <glyph glyph-name="uni1EC3" unicode="&#x1ec3;" horiz-adv-x="555" 
d="M421 710q6 40 34.5 63.5t69.5 23.5q42 0 62.5 -20.5t14.5 -55.5q-4 -26 -24.5 -51.5t-56.5 -45.5h-63q37 23 60 44.5t27 47.5q7 35 -30 35q-36 0 -45 -41h-49zM325 505q92 0 142 -48.5t50 -138.5q0 -16 -2 -33.5t-6 -37.5l-3 -12h-379q0 -8 -0.5 -16.5t-0.5 -17.5
q0 -69 31 -107.5t89 -38.5q60 0 104.5 31.5t64.5 87.5h81q-27 -88 -96 -136t-166 -48q-92 0 -141.5 53t-49.5 148q0 70 20 128t57 99.5t89 64t116 22.5zM314 440q-69 0 -116.5 -44.5t-63.5 -119.5h298q1 8 1.5 15t0.5 14q0 65 -31 100t-89 35zM350 666h-4l-78 -116h-67
l85 125h125l45 -125h-64z" />
    <glyph glyph-name="uni1EC4" unicode="&#x1ec4;" horiz-adv-x="623" 
d="M490 961q-18 0 -29.5 6.5t-21.5 14.5t-19.5 14.5t-22.5 6.5t-22.5 -13t-14.5 -32h-52q8 51 35 79.5t68 28.5q18 0 29.5 -6.5t21 -14t18.5 -14t23 -6.5t23.5 12.5t14.5 31.5h52q-8 -51 -35.5 -79.5t-67.5 -28.5zM255 670l-44 -253h355l-12 -70h-356l-48 -277h401l-13 -70
h-487l130 740h476l-12 -70h-390zM440 908h-4l-78 -116h-67l85 125h125l45 -125h-64z" />
    <glyph glyph-name="uni1EC5" unicode="&#x1ec5;" horiz-adv-x="555" 
d="M400 719q-18 0 -29.5 6.5t-21.5 14.5t-19.5 14.5t-22.5 6.5t-22.5 -13t-14.5 -32h-52q8 51 35 79.5t68 28.5q18 0 29.5 -6.5t21 -14t18.5 -14t23 -6.5t23.5 12.5t14.5 31.5h52q-8 -51 -35.5 -79.5t-67.5 -28.5zM325 505q92 0 142 -48.5t50 -138.5q0 -16 -2 -33.5
t-6 -37.5l-3 -12h-379q0 -8 -0.5 -16.5t-0.5 -17.5q0 -69 31 -107.5t89 -38.5q60 0 104.5 31.5t64.5 87.5h81q-27 -88 -96 -136t-166 -48q-92 0 -141.5 53t-49.5 148q0 70 20 128t57 99.5t89 64t116 22.5zM314 440q-69 0 -116.5 -44.5t-63.5 -119.5h298q1 8 1.5 15t0.5 14
q0 65 -31 100t-89 35zM350 666h-4l-78 -116h-67l85 125h125l45 -125h-64z" />
    <glyph glyph-name="uni1EC6" unicode="&#x1ec6;" horiz-adv-x="623" 
d="M254 -70h82l-18 -105h-82zM255 670l-44 -253h355l-12 -70h-356l-48 -277h401l-13 -70h-487l130 740h476l-12 -70h-390zM440 908h-4l-78 -116h-67l85 125h125l45 -125h-64z" />
    <glyph glyph-name="uni1EC7" unicode="&#x1ec7;" horiz-adv-x="555" 
d="M204 -70h82l-18 -105h-82zM325 505q92 0 142 -48.5t50 -138.5q0 -16 -2 -33.5t-6 -37.5l-3 -12h-379q0 -8 -0.5 -16.5t-0.5 -17.5q0 -69 31 -107.5t89 -38.5q60 0 104.5 31.5t64.5 87.5h81q-27 -88 -96 -136t-166 -48q-92 0 -141.5 53t-49.5 148q0 70 20 128t57 99.5
t89 64t116 22.5zM314 440q-69 0 -116.5 -44.5t-63.5 -119.5h298q1 8 1.5 15t0.5 14q0 65 -31 100t-89 35zM350 666h-4l-78 -116h-67l85 125h125l45 -125h-64z" />
    <glyph glyph-name="uni1EC8" unicode="&#x1ec8;" horiz-adv-x="274" 
d="M160 888q6 40 34.5 63.5t69.5 23.5q42 0 62.5 -20.5t14.5 -55.5q-4 -26 -24.5 -51.5t-56.5 -45.5h-63q37 23 60 44.5t27 47.5q7 35 -30 35q-36 0 -45 -41h-49zM181 740h86l-130 -740h-86z" />
    <glyph glyph-name="uni1EC9" unicode="&#x1ec9;" horiz-adv-x="235" 
d="M102 646q6 40 34.5 63.5t69.5 23.5q42 0 62.5 -20.5t14.5 -55.5q-4 -26 -24.5 -51.5t-56.5 -45.5h-63q37 23 60 44.5t27 47.5q7 35 -30 35q-36 0 -45 -41h-49zM202 495l-87 -495h-82l87 495h82z" />
    <glyph glyph-name="uni1ECA" unicode="&#x1eca;" horiz-adv-x="274" 
d="M41 -70h82l-18 -105h-82zM181 740h86l-130 -740h-86z" />
    <glyph glyph-name="uni1ECB" unicode="&#x1ecb;" horiz-adv-x="235" 
d="M22 -70h82l-18 -105h-82zM158 710h82l-18 -105h-82zM120 495h82l-87 -495h-82z" />
    <glyph glyph-name="uni1ECC" unicode="&#x1ecc;" horiz-adv-x="755" 
d="M294 -70h82l-18 -105h-82zM332 -10q-128 0 -196 77.5t-68 215.5q0 105 28 191t80 147.5t125.5 95t164.5 33.5q128 0 196 -77.5t68 -215.5q0 -105 -28.5 -191t-80.5 -147.5t-125.5 -95t-163.5 -33.5zM345 63q67 0 121.5 28t93 79t59.5 121.5t21 155.5q0 109 -48 169.5
t-139 60.5q-68 0 -122.5 -28t-92.5 -78.5t-59 -121t-21 -155.5q0 -109 47.5 -170t139.5 -61z" />
    <glyph glyph-name="uni1ECD" unicode="&#x1ecd;" horiz-adv-x="583" 
d="M206 -70h82l-18 -105h-82zM246 -10q-98 0 -150.5 53.5t-52.5 150.5q0 70 21 127.5t59.5 98.5t92.5 63t121 22q99 0 151 -53.5t52 -150.5q0 -70 -20.5 -127.5t-59 -98t-93 -63t-121.5 -22.5zM258 58q45 0 82 17t62.5 47.5t39.5 73.5t14 95q0 69 -33.5 108t-97.5 39
q-45 0 -81 -17t-62 -48t-40 -74t-14 -95q0 -69 33.5 -107.5t96.5 -38.5z" />
    <glyph glyph-name="uni1ECE" unicode="&#x1ece;" horiz-adv-x="755" 
d="M399 888q6 40 34.5 63.5t69.5 23.5q42 0 62.5 -20.5t14.5 -55.5q-4 -26 -24.5 -51.5t-56.5 -45.5h-63q37 23 60 44.5t27 47.5q7 35 -30 35q-36 0 -45 -41h-49zM332 -10q-128 0 -196 77.5t-68 215.5q0 105 28 191t80 147.5t125.5 95t164.5 33.5q128 0 196 -77.5t68 -215.5
q0 -105 -28.5 -191t-80.5 -147.5t-125.5 -95t-163.5 -33.5zM345 63q67 0 121.5 28t93 79t59.5 121.5t21 155.5q0 109 -48 169.5t-139 60.5q-68 0 -122.5 -28t-92.5 -78.5t-59 -121t-21 -155.5q0 -109 47.5 -170t139.5 -61z" />
    <glyph glyph-name="uni1ECF" unicode="&#x1ecf;" horiz-adv-x="583" 
d="M262 646q6 40 34.5 63.5t69.5 23.5q42 0 62.5 -20.5t14.5 -55.5q-4 -26 -24.5 -51.5t-56.5 -45.5h-63q37 23 60 44.5t27 47.5q7 35 -30 35q-36 0 -45 -41h-49zM246 -10q-98 0 -150.5 53.5t-52.5 150.5q0 70 21 127.5t59.5 98.5t92.5 63t121 22q99 0 151 -53.5t52 -150.5
q0 -70 -20.5 -127.5t-59 -98t-93 -63t-121.5 -22.5zM258 58q45 0 82 17t62.5 47.5t39.5 73.5t14 95q0 69 -33.5 108t-97.5 39q-45 0 -81 -17t-62 -48t-40 -74t-14 -95q0 -69 33.5 -107.5t96.5 -38.5z" />
    <glyph glyph-name="uni1ED0" unicode="&#x1ed0;" horiz-adv-x="755" 
d="M597 866l81 125h85l-98 -125h-68zM466 750q128 0 196 -77.5t68 -215.5q0 -105 -28.5 -191t-80.5 -147.5t-125.5 -95t-163.5 -33.5q-128 0 -196 77.5t-68 215.5q0 105 28 191t80 147.5t125.5 95t164.5 33.5zM345 63q67 0 121.5 28t93 79t59.5 121.5t21 155.5
q0 109 -48 169.5t-139 60.5q-68 0 -122.5 -28t-92.5 -78.5t-59 -121t-21 -155.5q0 -109 47.5 -170t139.5 -61zM488 908h-4l-78 -116h-67l85 125h125l45 -125h-64z" />
    <glyph glyph-name="uni1ED1" unicode="&#x1ed1;" horiz-adv-x="583" 
d="M469 624l81 125h85l-98 -125h-68zM337 505q99 0 151 -53.5t52 -150.5q0 -70 -20.5 -127.5t-59 -98t-93 -63t-121.5 -22.5q-98 0 -150.5 53.5t-52.5 150.5q0 70 21 127.5t59.5 98.5t92.5 63t121 22zM258 58q45 0 82 17t62.5 47.5t39.5 73.5t14 95q0 69 -33.5 108t-97.5 39
q-45 0 -81 -17t-62 -48t-40 -74t-14 -95q0 -69 33.5 -107.5t96.5 -38.5zM360 666h-4l-78 -116h-67l85 125h125l45 -125h-64z" />
    <glyph glyph-name="uni1ED2" unicode="&#x1ed2;" horiz-adv-x="755" 
d="M619 866l-60 125h80l43 -125h-63zM466 750q128 0 196 -77.5t68 -215.5q0 -105 -28.5 -191t-80.5 -147.5t-125.5 -95t-163.5 -33.5q-128 0 -196 77.5t-68 215.5q0 105 28 191t80 147.5t125.5 95t164.5 33.5zM345 63q67 0 121.5 28t93 79t59.5 121.5t21 155.5
q0 109 -48 169.5t-139 60.5q-68 0 -122.5 -28t-92.5 -78.5t-59 -121t-21 -155.5q0 -109 47.5 -170t139.5 -61zM488 908h-4l-78 -116h-67l85 125h125l45 -125h-64z" />
    <glyph glyph-name="uni1ED3" unicode="&#x1ed3;" horiz-adv-x="583" 
d="M491 624l-60 125h80l43 -125h-63zM337 505q99 0 151 -53.5t52 -150.5q0 -70 -20.5 -127.5t-59 -98t-93 -63t-121.5 -22.5q-98 0 -150.5 53.5t-52.5 150.5q0 70 21 127.5t59.5 98.5t92.5 63t121 22zM258 58q45 0 82 17t62.5 47.5t39.5 73.5t14 95q0 69 -33.5 108t-97.5 39
q-45 0 -81 -17t-62 -48t-40 -74t-14 -95q0 -69 33.5 -107.5t96.5 -38.5zM360 666h-4l-78 -116h-67l85 125h125l45 -125h-64z" />
    <glyph glyph-name="uni1ED4" unicode="&#x1ed4;" horiz-adv-x="755" 
d="M559 952q6 40 34.5 63.5t69.5 23.5q42 0 62.5 -20.5t14.5 -55.5q-4 -26 -24.5 -51.5t-56.5 -45.5h-63q37 23 60 44.5t27 47.5q7 35 -30 35q-36 0 -45 -41h-49zM466 750q128 0 196 -77.5t68 -215.5q0 -105 -28.5 -191t-80.5 -147.5t-125.5 -95t-163.5 -33.5
q-128 0 -196 77.5t-68 215.5q0 105 28 191t80 147.5t125.5 95t164.5 33.5zM345 63q67 0 121.5 28t93 79t59.5 121.5t21 155.5q0 109 -48 169.5t-139 60.5q-68 0 -122.5 -28t-92.5 -78.5t-59 -121t-21 -155.5q0 -109 47.5 -170t139.5 -61zM488 908h-4l-78 -116h-67l85 125
h125l45 -125h-64z" />
    <glyph glyph-name="uni1ED5" unicode="&#x1ed5;" horiz-adv-x="583" 
d="M431 710q6 40 34.5 63.5t69.5 23.5q42 0 62.5 -20.5t14.5 -55.5q-4 -26 -24.5 -51.5t-56.5 -45.5h-63q37 23 60 44.5t27 47.5q7 35 -30 35q-36 0 -45 -41h-49zM337 505q99 0 151 -53.5t52 -150.5q0 -70 -20.5 -127.5t-59 -98t-93 -63t-121.5 -22.5q-98 0 -150.5 53.5
t-52.5 150.5q0 70 21 127.5t59.5 98.5t92.5 63t121 22zM258 58q45 0 82 17t62.5 47.5t39.5 73.5t14 95q0 69 -33.5 108t-97.5 39q-45 0 -81 -17t-62 -48t-40 -74t-14 -95q0 -69 33.5 -107.5t96.5 -38.5zM360 666h-4l-78 -116h-67l85 125h125l45 -125h-64z" />
    <glyph glyph-name="uni1ED6" unicode="&#x1ed6;" horiz-adv-x="755" 
d="M538 961q-18 0 -29.5 6.5t-21.5 14.5t-19.5 14.5t-22.5 6.5t-22.5 -13t-14.5 -32h-52q8 51 35 79.5t68 28.5q18 0 29.5 -6.5t21 -14t18.5 -14t23 -6.5t23.5 12.5t14.5 31.5h52q-8 -51 -35.5 -79.5t-67.5 -28.5zM466 750q128 0 196 -77.5t68 -215.5q0 -105 -28.5 -191
t-80.5 -147.5t-125.5 -95t-163.5 -33.5q-128 0 -196 77.5t-68 215.5q0 105 28 191t80 147.5t125.5 95t164.5 33.5zM345 63q67 0 121.5 28t93 79t59.5 121.5t21 155.5q0 109 -48 169.5t-139 60.5q-68 0 -122.5 -28t-92.5 -78.5t-59 -121t-21 -155.5q0 -109 47.5 -170
t139.5 -61zM488 908h-4l-78 -116h-67l85 125h125l45 -125h-64z" />
    <glyph glyph-name="uni1ED7" unicode="&#x1ed7;" horiz-adv-x="583" 
d="M410 719q-18 0 -29.5 6.5t-21.5 14.5t-19.5 14.5t-22.5 6.5t-22.5 -13t-14.5 -32h-52q8 51 35 79.5t68 28.5q18 0 29.5 -6.5t21 -14t18.5 -14t23 -6.5t23.5 12.5t14.5 31.5h52q-8 -51 -35.5 -79.5t-67.5 -28.5zM337 505q99 0 151 -53.5t52 -150.5q0 -70 -20.5 -127.5
t-59 -98t-93 -63t-121.5 -22.5q-98 0 -150.5 53.5t-52.5 150.5q0 70 21 127.5t59.5 98.5t92.5 63t121 22zM258 58q45 0 82 17t62.5 47.5t39.5 73.5t14 95q0 69 -33.5 108t-97.5 39q-45 0 -81 -17t-62 -48t-40 -74t-14 -95q0 -69 33.5 -107.5t96.5 -38.5zM360 666h-4
l-78 -116h-67l85 125h125l45 -125h-64z" />
    <glyph glyph-name="uni1ED8" unicode="&#x1ed8;" horiz-adv-x="755" 
d="M294 -70h82l-18 -105h-82zM466 750q128 0 196 -77.5t68 -215.5q0 -105 -28.5 -191t-80.5 -147.5t-125.5 -95t-163.5 -33.5q-128 0 -196 77.5t-68 215.5q0 105 28 191t80 147.5t125.5 95t164.5 33.5zM345 63q67 0 121.5 28t93 79t59.5 121.5t21 155.5q0 109 -48 169.5
t-139 60.5q-68 0 -122.5 -28t-92.5 -78.5t-59 -121t-21 -155.5q0 -109 47.5 -170t139.5 -61zM488 908h-4l-78 -116h-67l85 125h125l45 -125h-64z" />
    <glyph glyph-name="uni1ED9" unicode="&#x1ed9;" horiz-adv-x="583" 
d="M206 -70h82l-18 -105h-82zM337 505q99 0 151 -53.5t52 -150.5q0 -70 -20.5 -127.5t-59 -98t-93 -63t-121.5 -22.5q-98 0 -150.5 53.5t-52.5 150.5q0 70 21 127.5t59.5 98.5t92.5 63t121 22zM258 58q45 0 82 17t62.5 47.5t39.5 73.5t14 95q0 69 -33.5 108t-97.5 39
q-45 0 -81 -17t-62 -48t-40 -74t-14 -95q0 -69 33.5 -107.5t96.5 -38.5zM360 666h-4l-78 -116h-67l85 125h125l45 -125h-64z" />
    <glyph glyph-name="uni1EDA" unicode="&#x1eda;" horiz-adv-x="755" 
d="M427 802l81 125h85l-98 -125h-68zM332 -10q-128 0 -196 77.5t-68 215.5q0 105 28 191t80 147.5t125.5 95t164.5 33.5q59 0 106 -18q20 5 37 25.5t25 72.5h80q-6 -44 -34.5 -75t-71.5 -40q60 -35 91 -100.5t31 -157.5q0 -105 -28.5 -191t-80.5 -147.5t-125.5 -95
t-163.5 -33.5zM345 63q67 0 121.5 28t93 79t59.5 121.5t21 155.5q0 109 -48 169.5t-139 60.5q-68 0 -122.5 -28t-92.5 -78.5t-59 -121t-21 -155.5q0 -109 47.5 -170t139.5 -61z" />
    <glyph glyph-name="uni1EDB" unicode="&#x1edb;" horiz-adv-x="583" 
d="M299 560l81 125h85l-98 -125h-68zM246 -10q-98 0 -150.5 53.5t-52.5 150.5q0 70 21 127.5t59.5 98.5t92.5 63t121 22q51 0 90 -15q19 7 33.5 27.5t21.5 67.5h80q-6 -42 -32.5 -72.5t-67.5 -40.5q78 -52 78 -171q0 -70 -20.5 -127.5t-59 -98t-93 -63t-121.5 -22.5zM258 58
q45 0 82 17t62.5 47.5t39.5 73.5t14 95q0 69 -33.5 108t-97.5 39q-45 0 -81 -17t-62 -48t-40 -74t-14 -95q0 -69 33.5 -107.5t96.5 -38.5z" />
    <glyph glyph-name="uni1EDC" unicode="&#x1edc;" horiz-adv-x="755" 
d="M440 802l-60 125h81l43 -125h-64zM332 -10q-128 0 -196 77.5t-68 215.5q0 105 28 191t80 147.5t125.5 95t164.5 33.5q59 0 106 -18q20 5 37 25.5t25 72.5h80q-6 -44 -34.5 -75t-71.5 -40q60 -35 91 -100.5t31 -157.5q0 -105 -28.5 -191t-80.5 -147.5t-125.5 -95
t-163.5 -33.5zM345 63q67 0 121.5 28t93 79t59.5 121.5t21 155.5q0 109 -48 169.5t-139 60.5q-68 0 -122.5 -28t-92.5 -78.5t-59 -121t-21 -155.5q0 -109 47.5 -170t139.5 -61z" />
    <glyph glyph-name="uni1EDD" unicode="&#x1edd;" horiz-adv-x="583" 
d="M317 560l-60 125h81l43 -125h-64zM246 -10q-98 0 -150.5 53.5t-52.5 150.5q0 70 21 127.5t59.5 98.5t92.5 63t121 22q51 0 90 -15q19 7 33.5 27.5t21.5 67.5h80q-6 -42 -32.5 -72.5t-67.5 -40.5q78 -52 78 -171q0 -70 -20.5 -127.5t-59 -98t-93 -63t-121.5 -22.5zM258 58
q45 0 82 17t62.5 47.5t39.5 73.5t14 95q0 69 -33.5 108t-97.5 39q-45 0 -81 -17t-62 -48t-40 -74t-14 -95q0 -69 33.5 -107.5t96.5 -38.5z" />
    <glyph glyph-name="uni1EDE" unicode="&#x1ede;" horiz-adv-x="755" 
d="M399 888q6 40 34.5 63.5t69.5 23.5q42 0 62.5 -20.5t14.5 -55.5q-4 -26 -24.5 -51.5t-56.5 -45.5h-63q37 23 60 44.5t27 47.5q7 35 -30 35q-36 0 -45 -41h-49zM332 -10q-128 0 -196 77.5t-68 215.5q0 105 28 191t80 147.5t125.5 95t164.5 33.5q59 0 106 -18q20 5 37 25.5
t25 72.5h80q-6 -44 -34.5 -75t-71.5 -40q60 -35 91 -100.5t31 -157.5q0 -105 -28.5 -191t-80.5 -147.5t-125.5 -95t-163.5 -33.5zM345 63q67 0 121.5 28t93 79t59.5 121.5t21 155.5q0 109 -48 169.5t-139 60.5q-68 0 -122.5 -28t-92.5 -78.5t-59 -121t-21 -155.5
q0 -109 47.5 -170t139.5 -61z" />
    <glyph glyph-name="uni1EDF" unicode="&#x1edf;" horiz-adv-x="583" 
d="M262 646q6 40 34.5 63.5t69.5 23.5q42 0 62.5 -20.5t14.5 -55.5q-4 -26 -24.5 -51.5t-56.5 -45.5h-63q37 23 60 44.5t27 47.5q7 35 -30 35q-36 0 -45 -41h-49zM246 -10q-98 0 -150.5 53.5t-52.5 150.5q0 70 21 127.5t59.5 98.5t92.5 63t121 22q51 0 90 -15
q19 7 33.5 27.5t21.5 67.5h80q-6 -42 -32.5 -72.5t-67.5 -40.5q78 -52 78 -171q0 -70 -20.5 -127.5t-59 -98t-93 -63t-121.5 -22.5zM258 58q45 0 82 17t62.5 47.5t39.5 73.5t14 95q0 69 -33.5 108t-97.5 39q-45 0 -81 -17t-62 -48t-40 -74t-14 -95q0 -69 33.5 -107.5
t96.5 -38.5z" />
    <glyph glyph-name="uni1EE0" unicode="&#x1ee0;" horiz-adv-x="755" 
d="M519 805q-18 0 -29.5 6.5t-21.5 14.5t-19.5 14.5t-22.5 6.5t-22.5 -13t-14.5 -32h-52q8 51 35 79.5t68 28.5q18 0 29.5 -6.5t21 -14t18.5 -14t23 -6.5t23.5 12.5t14.5 31.5h52q-8 -51 -35.5 -79.5t-67.5 -28.5zM332 -10q-128 0 -196 77.5t-68 215.5q0 105 28 191
t80 147.5t125.5 95t164.5 33.5q59 0 106 -18q20 5 37 25.5t25 72.5h80q-6 -44 -34.5 -75t-71.5 -40q60 -35 91 -100.5t31 -157.5q0 -105 -28.5 -191t-80.5 -147.5t-125.5 -95t-163.5 -33.5zM345 63q67 0 121.5 28t93 79t59.5 121.5t21 155.5q0 109 -48 169.5t-139 60.5
q-68 0 -122.5 -28t-92.5 -78.5t-59 -121t-21 -155.5q0 -109 47.5 -170t139.5 -61z" />
    <glyph glyph-name="uni1EE1" unicode="&#x1ee1;" horiz-adv-x="583" 
d="M392 573q-18 0 -29.5 6.5t-21.5 14.5t-19.5 14.5t-22.5 6.5t-22.5 -13t-14.5 -32h-52q8 51 35 79.5t68 28.5q18 0 29.5 -6.5t21 -14t18.5 -14t23 -6.5t23.5 12.5t14.5 31.5h52q-8 -51 -35.5 -79.5t-67.5 -28.5zM246 -10q-98 0 -150.5 53.5t-52.5 150.5q0 70 21 127.5
t59.5 98.5t92.5 63t121 22q51 0 90 -15q19 7 33.5 27.5t21.5 67.5h80q-6 -42 -32.5 -72.5t-67.5 -40.5q78 -52 78 -171q0 -70 -20.5 -127.5t-59 -98t-93 -63t-121.5 -22.5zM258 58q45 0 82 17t62.5 47.5t39.5 73.5t14 95q0 69 -33.5 108t-97.5 39q-45 0 -81 -17t-62 -48
t-40 -74t-14 -95q0 -69 33.5 -107.5t96.5 -38.5z" />
    <glyph glyph-name="uni1EE2" unicode="&#x1ee2;" horiz-adv-x="755" 
d="M294 -70h82l-18 -105h-82zM332 -10q-128 0 -196 77.5t-68 215.5q0 105 28 191t80 147.5t125.5 95t164.5 33.5q59 0 106 -18q20 5 37 25.5t25 72.5h80q-6 -44 -34.5 -75t-71.5 -40q60 -35 91 -100.5t31 -157.5q0 -105 -28.5 -191t-80.5 -147.5t-125.5 -95t-163.5 -33.5z
M345 63q67 0 121.5 28t93 79t59.5 121.5t21 155.5q0 109 -48 169.5t-139 60.5q-68 0 -122.5 -28t-92.5 -78.5t-59 -121t-21 -155.5q0 -109 47.5 -170t139.5 -61z" />
    <glyph glyph-name="uni1EE3" unicode="&#x1ee3;" horiz-adv-x="583" 
d="M206 -70h82l-18 -105h-82zM246 -10q-98 0 -150.5 53.5t-52.5 150.5q0 70 21 127.5t59.5 98.5t92.5 63t121 22q51 0 90 -15q19 7 33.5 27.5t21.5 67.5h80q-6 -42 -32.5 -72.5t-67.5 -40.5q78 -52 78 -171q0 -70 -20.5 -127.5t-59 -98t-93 -63t-121.5 -22.5zM258 58
q45 0 82 17t62.5 47.5t39.5 73.5t14 95q0 69 -33.5 108t-97.5 39q-45 0 -81 -17t-62 -48t-40 -74t-14 -95q0 -69 33.5 -107.5t96.5 -38.5z" />
    <glyph glyph-name="uni1EE4" unicode="&#x1ee4;" horiz-adv-x="714" 
d="M254 -70h82l-18 -105h-82zM633 740h82l-86 -485q-22 -125 -105.5 -195t-211.5 -70q-111 0 -170.5 52.5t-59.5 149.5q0 30 6 63l86 485h85l-86 -491q-4 -23 -4 -45q0 -68 40.5 -104.5t116.5 -36.5q89 0 147 49t74 137z" />
    <glyph glyph-name="uni1EE5" unicode="&#x1ee5;" horiz-adv-x="569" 
d="M204 -70h82l-18 -105h-82zM536 495l-87 -495h-82l30 170h-2q-15 -85 -67 -132.5t-129 -47.5q-70 0 -107 37.5t-37 106.5q0 24 6 53l54 308h82l-54 -305q-3 -21 -3 -35q0 -47 26 -72.5t75 -25.5q65 0 108.5 44t57.5 124l47 270h82z" />
    <glyph glyph-name="uni1EE6" unicode="&#x1ee6;" horiz-adv-x="714" 
d="M379 888q6 40 34.5 63.5t69.5 23.5q42 0 62.5 -20.5t14.5 -55.5q-4 -26 -24.5 -51.5t-56.5 -45.5h-63q37 23 60 44.5t27 47.5q7 35 -30 35q-36 0 -45 -41h-49zM633 740h82l-86 -485q-22 -125 -105.5 -195t-211.5 -70q-111 0 -170.5 52.5t-59.5 149.5q0 30 6 63l86 485h85
l-86 -491q-4 -23 -4 -45q0 -68 40.5 -104.5t116.5 -36.5q89 0 147 49t74 137z" />
    <glyph glyph-name="uni1EE7" unicode="&#x1ee7;" horiz-adv-x="569" 
d="M262 646q6 40 34.5 63.5t69.5 23.5q42 0 62.5 -20.5t14.5 -55.5q-4 -26 -24.5 -51.5t-56.5 -45.5h-63q37 23 60 44.5t27 47.5q7 35 -30 35q-36 0 -45 -41h-49zM536 495l-87 -495h-82l30 170h-2q-15 -85 -67 -132.5t-129 -47.5q-70 0 -107 37.5t-37 106.5q0 24 6 53
l54 308h82l-54 -305q-3 -21 -3 -35q0 -47 26 -72.5t75 -25.5q65 0 108.5 44t57.5 124l47 270h82z" />
    <glyph glyph-name="uni1EE8" unicode="&#x1ee8;" horiz-adv-x="714" 
d="M402 802l81 125h85l-98 -125h-68zM633 740h12q12 1 24.5 5t23 15t18.5 30t12 50h80q-5 -40 -29 -69.5t-61 -41.5l-84 -474q-22 -125 -105.5 -195t-211.5 -70q-111 0 -170.5 52.5t-59.5 149.5q0 30 6 63l86 485h85l-86 -491q-4 -23 -4 -45q0 -68 40.5 -104.5t116.5 -36.5
q89 0 147 49t74 137z" />
    <glyph glyph-name="uni1EE9" unicode="&#x1ee9;" horiz-adv-x="569" 
d="M288 560l81 125h85l-98 -125h-68zM466 495q12 1 24.5 5t23 15t18.5 30t12 50h80q-5 -40 -29 -69.5t-61 -41.5l-85 -484h-82l30 170h-2q-15 -85 -67 -132.5t-129 -47.5q-70 0 -107 37.5t-37 106.5q0 24 6 53l54 308h82l-54 -305q-3 -21 -3 -35q0 -47 26 -72.5t75 -25.5
q65 0 108.5 44t57.5 124l47 270h12z" />
    <glyph glyph-name="uni1EEA" unicode="&#x1eea;" horiz-adv-x="714" 
d="M442 802l-60 125h81l43 -125h-64zM633 740h12q12 1 24.5 5t23 15t18.5 30t12 50h80q-5 -40 -29 -69.5t-61 -41.5l-84 -474q-22 -125 -105.5 -195t-211.5 -70q-111 0 -170.5 52.5t-59.5 149.5q0 30 6 63l86 485h85l-86 -491q-4 -23 -4 -45q0 -68 40.5 -104.5t116.5 -36.5
q89 0 147 49t74 137z" />
    <glyph glyph-name="uni1EEB" unicode="&#x1eeb;" horiz-adv-x="569" 
d="M322 560l-60 125h81l43 -125h-64zM466 495q12 1 24.5 5t23 15t18.5 30t12 50h80q-5 -40 -29 -69.5t-61 -41.5l-85 -484h-82l30 170h-2q-15 -85 -67 -132.5t-129 -47.5q-70 0 -107 37.5t-37 106.5q0 24 6 53l54 308h82l-54 -305q-3 -21 -3 -35q0 -47 26 -72.5t75 -25.5
q65 0 108.5 44t57.5 124l47 270h12z" />
    <glyph glyph-name="uni1EEC" unicode="&#x1eec;" horiz-adv-x="714" 
d="M379 888q6 40 34.5 63.5t69.5 23.5q42 0 62.5 -20.5t14.5 -55.5q-4 -26 -24.5 -51.5t-56.5 -45.5h-63q37 23 60 44.5t27 47.5q7 35 -30 35q-36 0 -45 -41h-49zM633 740h12q12 1 24.5 5t23 15t18.5 30t12 50h80q-5 -40 -29 -69.5t-61 -41.5l-84 -474q-22 -125 -105.5 -195
t-211.5 -70q-111 0 -170.5 52.5t-59.5 149.5q0 30 6 63l86 485h85l-86 -491q-4 -23 -4 -45q0 -68 40.5 -104.5t116.5 -36.5q89 0 147 49t74 137z" />
    <glyph glyph-name="uni1EED" unicode="&#x1eed;" horiz-adv-x="569" 
d="M262 646q6 40 34.5 63.5t69.5 23.5q42 0 62.5 -20.5t14.5 -55.5q-4 -26 -24.5 -51.5t-56.5 -45.5h-63q37 23 60 44.5t27 47.5q7 35 -30 35q-36 0 -45 -41h-49zM466 495q12 1 24.5 5t23 15t18.5 30t12 50h80q-5 -40 -29 -69.5t-61 -41.5l-85 -484h-82l30 170h-2
q-15 -85 -67 -132.5t-129 -47.5q-70 0 -107 37.5t-37 106.5q0 24 6 53l54 308h82l-54 -305q-3 -21 -3 -35q0 -47 26 -72.5t75 -25.5q65 0 108.5 44t57.5 124l47 270h12z" />
    <glyph glyph-name="uni1EEE" unicode="&#x1eee;" horiz-adv-x="714" 
d="M497 805q-18 0 -29.5 6.5t-21.5 14.5t-19.5 14.5t-22.5 6.5t-22.5 -13t-14.5 -32h-52q8 51 35 79.5t68 28.5q18 0 29.5 -6.5t21 -14t18.5 -14t23 -6.5t23.5 12.5t14.5 31.5h52q-8 -51 -35.5 -79.5t-67.5 -28.5zM633 740h12q12 1 24.5 5t23 15t18.5 30t12 50h80
q-5 -40 -29 -69.5t-61 -41.5l-84 -474q-22 -125 -105.5 -195t-211.5 -70q-111 0 -170.5 52.5t-59.5 149.5q0 30 6 63l86 485h85l-86 -491q-4 -23 -4 -45q0 -68 40.5 -104.5t116.5 -36.5q89 0 147 49t74 137z" />
    <glyph glyph-name="uni1EEF" unicode="&#x1eef;" horiz-adv-x="569" 
d="M380 563q-18 0 -29.5 6.5t-21.5 14.5t-19.5 14.5t-22.5 6.5t-22.5 -13t-14.5 -32h-52q8 51 35 79.5t68 28.5q18 0 29.5 -6.5t21 -14t18.5 -14t23 -6.5t23.5 12.5t14.5 31.5h52q-8 -51 -35.5 -79.5t-67.5 -28.5zM466 495q12 1 24.5 5t23 15t18.5 30t12 50h80
q-5 -40 -29 -69.5t-61 -41.5l-85 -484h-82l30 170h-2q-15 -85 -67 -132.5t-129 -47.5q-70 0 -107 37.5t-37 106.5q0 24 6 53l54 308h82l-54 -305q-3 -21 -3 -35q0 -47 26 -72.5t75 -25.5q65 0 108.5 44t57.5 124l47 270h12z" />
    <glyph glyph-name="uni1EF0" unicode="&#x1ef0;" horiz-adv-x="714" 
d="M254 -70h82l-18 -105h-82zM633 740h12q12 1 24.5 5t23 15t18.5 30t12 50h80q-5 -40 -29 -69.5t-61 -41.5l-84 -474q-22 -125 -105.5 -195t-211.5 -70q-111 0 -170.5 52.5t-59.5 149.5q0 30 6 63l86 485h85l-86 -491q-4 -23 -4 -45q0 -68 40.5 -104.5t116.5 -36.5
q89 0 147 49t74 137z" />
    <glyph glyph-name="uni1EF1" unicode="&#x1ef1;" horiz-adv-x="569" 
d="M204 -70h82l-18 -105h-82zM466 495q12 1 24.5 5t23 15t18.5 30t12 50h80q-5 -40 -29 -69.5t-61 -41.5l-85 -484h-82l30 170h-2q-15 -85 -67 -132.5t-129 -47.5q-70 0 -107 37.5t-37 106.5q0 24 6 53l54 308h82l-54 -305q-3 -21 -3 -35q0 -47 26 -72.5t75 -25.5
q65 0 108.5 44t57.5 124l47 270h12z" />
    <glyph glyph-name="Ygrave" unicode="&#x1ef2;" horiz-adv-x="656" 
d="M749 740l-504 -740h-94l187 277h-84l-153 463h100l147 -455h2l305 455h94zM422 802l-60 125h81l43 -125h-64z" />
    <glyph glyph-name="ygrave" unicode="&#x1ef3;" horiz-adv-x="523" 
d="M544 495l-361 -725h-88l115 230h-69l-73 495h89l63 -489h2l234 489h88zM291 560l-60 125h81l43 -125h-64z" />
    <glyph glyph-name="uni1EF4" unicode="&#x1ef4;" horiz-adv-x="656" 
d="M139 -70h82l-18 -105h-82zM749 740l-504 -740h-94l187 277h-84l-153 463h100l147 -455h2l305 455h94z" />
    <glyph glyph-name="uni1EF5" unicode="&#x1ef5;" horiz-adv-x="523" 
d="M334 -90h82l-18 -105h-82zM544 495l-361 -725h-88l115 230h-69l-73 495h89l63 -489h2l234 489h88z" />
    <glyph glyph-name="uni1EF6" unicode="&#x1ef6;" horiz-adv-x="656" 
d="M349 888q6 40 34.5 63.5t69.5 23.5q42 0 62.5 -20.5t14.5 -55.5q-4 -26 -24.5 -51.5t-56.5 -45.5h-63q37 23 60 44.5t27 47.5q7 35 -30 35q-36 0 -45 -41h-49zM749 740l-504 -740h-94l187 277h-84l-153 463h100l147 -455h2l305 455h94z" />
    <glyph glyph-name="uni1EF7" unicode="&#x1ef7;" horiz-adv-x="523" 
d="M239 646q6 40 34.5 63.5t69.5 23.5q42 0 62.5 -20.5t14.5 -55.5q-4 -26 -24.5 -51.5t-56.5 -45.5h-63q37 23 60 44.5t27 47.5q7 35 -30 35q-36 0 -45 -41h-49zM544 495l-361 -725h-88l115 230h-69l-73 495h89l63 -489h2l234 489h88z" />
    <glyph glyph-name="uni1EF8" unicode="&#x1ef8;" horiz-adv-x="656" 
d="M462 805q-18 0 -29.5 6.5t-21.5 14.5t-19.5 14.5t-22.5 6.5t-22.5 -13t-14.5 -32h-52q8 51 35 79.5t68 28.5q18 0 29.5 -6.5t21 -14t18.5 -14t23 -6.5t23.5 12.5t14.5 31.5h52q-8 -51 -35.5 -79.5t-67.5 -28.5zM749 740l-504 -740h-94l187 277h-84l-153 463h100l147 -455
h2l305 455h94z" />
    <glyph glyph-name="uni1EF9" unicode="&#x1ef9;" horiz-adv-x="523" 
d="M350 563q-18 0 -29.5 6.5t-21.5 14.5t-19.5 14.5t-22.5 6.5t-22.5 -13t-14.5 -32h-52q8 51 35 79.5t68 28.5q18 0 29.5 -6.5t21 -14t18.5 -14t23 -6.5t23.5 12.5t14.5 31.5h52q-8 -51 -35.5 -79.5t-67.5 -28.5zM544 495l-361 -725h-88l115 230h-69l-73 495h89l63 -489h2
l234 489h88z" />
    <glyph glyph-name="endash" unicode="&#x2013;" horiz-adv-x="580" 
d="M517 271l-6 -39h-446l6 39h446z" />
    <glyph glyph-name="emdash" unicode="&#x2014;" horiz-adv-x="864" 
d="M802 271l-7 -39h-730l6 39h731z" />
    <glyph glyph-name="quoteleft" unicode="&#x2018;" horiz-adv-x="217" 
d="M234 691q-43 -11 -71.5 -35.5t-39.5 -58.5h94l-17 -95h-99l14 81q11 60 44.5 102.5t84.5 59.5l-10 -54v0z" />
    <glyph glyph-name="quoteright" unicode="&#x2019;" horiz-adv-x="211" 
d="M248 740l-14 -81q-11 -60 -44.5 -102.5t-84.5 -59.5l10 54q43 11 71.5 35.5t39.5 58.5h-94l17 95h99z" />
    <glyph glyph-name="quotesinglbase" unicode="&#x201a;" horiz-adv-x="225" 
d="M143 95l-14 -81q-11 -60 -44.5 -102.5t-84.5 -59.5l10 54q43 11 71.5 35.5t39.5 58.5h-94l17 95h99z" />
    <glyph glyph-name="quotedblleft" unicode="&#x201c;" horiz-adv-x="367" 
d="M114 583q11 60 44.5 102.5t84.5 59.5l-10 -54q-43 -11 -71.5 -35.5t-39.5 -58.5h94l-17 -95h-99zM383 691q-43 -11 -71.5 -35.5t-39.5 -58.5h94l-17 -95h-99l14 81q11 60 44.5 102.5t84.5 59.5z" />
    <glyph glyph-name="quotedblright" unicode="&#x201d;" horiz-adv-x="361" 
d="M149 740h99l-14 -81q-11 -60 -44.5 -102.5t-84.5 -59.5l10 54q43 11 71.5 35.5t39.5 58.5h-94zM398 740l-14 -81q-11 -60 -44.5 -102.5t-84.5 -59.5l10 54q43 11 71.5 35.5t39.5 58.5h-94l17 95h99z" />
    <glyph glyph-name="quotedblbase" unicode="&#x201e;" horiz-adv-x="374" 
d="M44 95h99l-14 -81q-11 -60 -44.5 -102.5t-84.5 -59.5l10 54q43 11 71.5 35.5t39.5 58.5h-94zM293 95l-14 -81q-11 -60 -44.5 -102.5t-84.5 -59.5l10 54q43 11 71.5 35.5t39.5 58.5h-94l17 95h99z" />
    <glyph glyph-name="dagger" unicode="&#x2020;" horiz-adv-x="378" 
d="M399 655l-9 -47h-113l-44 -254h-53l28 163q6 33 23 56.5t42 32.5v2h-160l8 47h115l20 115h53l-20 -115h110z" />
    <glyph glyph-name="daggerdbl" unicode="&#x2021;" horiz-adv-x="378" 
d="M277 608l-16 -92h113l-8 -47h-113l-20 -115h-53l4 24q6 33 22.5 56.5t42.5 32.5v2h-160l8 47h111v1q6 33 23 56.5t42 32.5v2h-160l8 47h115l20 115h53l-20 -115h110l-9 -47h-113z" />
    <glyph glyph-name="bullet" unicode="&#x2022;" horiz-adv-x="350" 
d="M111 375h172l-28 -159h-172z" />
    <glyph glyph-name="ellipsis" unicode="&#x2026;" horiz-adv-x="612" 
d="M139 95l-16 -95h-100l17 95h99zM331 95l-16 -95h-100l17 95h99zM523 95l-16 -95h-100l17 95h99z" />
    <glyph glyph-name="perthousand" unicode="&#x2030;" horiz-adv-x="1039" 
d="M670 750l29 -25l-609 -735l-28 25zM201 360q-54 0 -83 36.5t-29 101.5q0 51 13 93.5t36 73.5t56 48t73 17q55 0 84 -36.5t29 -101.5q0 -51 -13 -93.5t-36 -73.5t-56.5 -48t-73.5 -17zM212 413q23 0 41.5 14t32 37.5t20.5 55t7 67.5q0 42 -14 66t-41 24q-23 0 -41.5 -13.5
t-32 -37t-21 -55.5t-7.5 -68q0 -42 14 -66t42 -24zM491 -10q-55 0 -84 36.5t-29 101.5q0 51 12.5 93.5t36 73.5t56 48t73.5 17q55 0 84 -36.5t29 -101.5q0 -51 -12.5 -93.5t-36 -73.5t-56.5 -48t-73 -17zM820 -10q-55 0 -84 36.5t-29 101.5q0 51 13 93.5t36 73.5t56 48
t73 17q55 0 84 -36.5t29 -101.5q0 -51 -12.5 -93.5t-36 -73.5t-56.5 -48t-73 -17zM500 43q23 0 41.5 14t32 37.5t21 55t7.5 67.5q0 42 -14 66t-41 24q-23 0 -41.5 -13.5t-32 -37t-20.5 -55.5t-7 -68q0 -42 14 -66t40 -24zM829 43q22 0 41 13.5t32.5 36.5t21 55t7.5 68
q0 42 -14 66.5t-41 24.5q-22 0 -40.5 -13.5t-32 -36.5t-21 -54.5t-7.5 -68.5q0 -42 14 -66.5t40 -24.5z" />
    <glyph glyph-name="guilsinglleft" unicode="&#x2039;" horiz-adv-x="270" 
d="M204 443h50l-160 -193l92 -193h-50l-94 193z" />
    <glyph glyph-name="guilsinglright" unicode="&#x203a;" horiz-adv-x="270" 
d="M67 57h-50l160 193l-92 193h50l94 -193z" />
    <glyph glyph-name="fraction" unicode="&#x2044;" horiz-adv-x="210" 
d="M417 750l29 -25l-609 -735l-28 25z" />
    <glyph glyph-name="uni2070" unicode="&#x2070;" horiz-adv-x="401" 
d="M219 352q-64 0 -98 45t-34 125q0 63 15.5 115.5t43 90.5t66.5 59t87 21q65 0 99 -45t34 -125q0 -63 -15.5 -115.5t-43 -90.5t-67 -59t-87.5 -21zM228 406q31 0 56 18t43 49t27.5 73t9.5 89q0 56 -18.5 87.5t-55.5 31.5q-30 0 -55 -18t-43 -49t-27.5 -72.5t-9.5 -89.5
q0 -56 19 -87.5t54 -31.5z" />
    <glyph glyph-name="uni2074" unicode="&#x2074;" horiz-adv-x="373" 
d="M393 468h-59l-19 -110h-66l19 110h-212l10 56l204 278h123l-50 -282h59zM127 520h152l49 276h-2l-199 -274v-2z" />
    <glyph glyph-name="uni2075" unicode="&#x2075;" horiz-adv-x="369" 
d="M201 352q-63 0 -97.5 31.5t-34.5 88.5v11h64q0 -36 20 -56.5t57 -20.5q52 0 82.5 31.5t30.5 85.5q0 37 -19.5 57.5t-57.5 20.5q-36 0 -61.5 -19t-40.5 -49l-62 8l81 261h245l-9 -52h-187l-67 -206h2q18 51 54.5 79t86.5 28q51 0 78 -30t27 -83q0 -85 -52 -135.5
t-140 -50.5z" />
    <glyph glyph-name="uni2076" unicode="&#x2076;" horiz-adv-x="391" 
d="M364 677v10q0 67 -67 67q-51 0 -87 -47.5t-52 -133.5l-7 -44h2q10 54 47.5 84.5t97.5 30.5q55 0 84 -29t29 -80q0 -42 -14.5 -76t-40 -57.5t-61 -36.5t-77.5 -13q-66 0 -99.5 40.5t-33.5 117.5q0 65 15.5 119.5t44.5 94.5t70 62t91 22q59 0 90.5 -30t31.5 -84v-17h-64z
M259 592q-52 0 -82 -27.5t-30 -77.5q0 -38 21 -59.5t57 -21.5q54 0 85 31t31 82q0 35 -21.5 54t-60.5 19z" />
    <glyph glyph-name="uni2077" unicode="&#x2077;" horiz-adv-x="326" 
d="M413 802l-9 -49q-35 -9 -66.5 -37.5t-57.5 -73.5t-46.5 -105t-33.5 -132l-8 -47h-69l6 36q28 158 94 250.5t157 103.5v2h-283l9 52h307z" />
    <glyph glyph-name="uni2078" unicode="&#x2078;" horiz-adv-x="383" 
d="M294 612q50 -7 76.5 -34.5t26.5 -71.5q0 -71 -50 -112.5t-137 -41.5q-67 0 -103.5 29t-36.5 82q0 62 39.5 100.5t108.5 48.5v2q-45 0 -70 19.5t-25 54.5q0 55 45 87.5t122 32.5q63 0 96.5 -23.5t33.5 -65.5q0 -48 -34.5 -76.5t-91.5 -28.5v-2zM188 669q0 -29 17.5 -44.5
t49.5 -15.5q43 0 68 23.5t25 62.5q0 28 -17.5 43.5t-49.5 15.5q-42 0 -67.5 -23t-25.5 -62zM219 406q51 0 79.5 25.5t28.5 67.5q0 32 -20.5 49t-59.5 17q-50 0 -79 -25t-29 -68q0 -32 21 -49t59 -17z" />
    <glyph glyph-name="uni2079" unicode="&#x2079;" horiz-adv-x="389" 
d="M291 808q67 0 99.5 -41t32.5 -116q0 -65 -16 -120t-45 -95t-70 -62t-91 -22q-58 0 -89 32t-31 89v10.5t1 11.5h64q-1 -5 -1 -8.5v-7.5q0 -35 16.5 -54t48.5 -19q51 0 87.5 47.5t51.5 133.5l9 50h-2q-10 -51 -48 -80t-97 -29q-55 0 -84 28t-29 78q0 40 14.5 72.5t40 55
t61 34.5t77.5 12zM250 580q51 0 81.5 25.5t30.5 71.5q0 36 -22 56.5t-58 20.5q-53 0 -83.5 -28.5t-30.5 -76.5q0 -33 21.5 -51t60.5 -18zM365 668q0 -2 -0.5 -3.5t-0.5 -3.5z" />
    <glyph glyph-name="uni2080" unicode="&#x2080;" horiz-adv-x="401" 
d="M136 -116q-64 0 -98 45t-34 125q0 63 15.5 115.5t43 90.5t66.5 59t87 21q65 0 99 -45t34 -125q0 -63 -15.5 -115.5t-43 -90.5t-67 -59t-87.5 -21zM145 -62q31 0 56 18t43 49t27.5 73t9.5 89q0 56 -18.5 87.5t-55.5 31.5q-30 0 -55 -18t-43 -49t-27.5 -72.5t-9.5 -89.5
q0 -56 19 -87.5t54 -31.5z" />
    <glyph glyph-name="uni2081" unicode="&#x2081;" horiz-adv-x="227" 
d="M182 334l-78 -444h-66l75 423h-2q-8 -47 -35 -72.5t-67 -25.5l10 57q41 0 66.5 16.5t30.5 45.5h66z" />
    <glyph glyph-name="uni2082" unicode="&#x2082;" horiz-adv-x="369" 
d="M-2 -58h291l-9 -52h-316l9 49q65 19 117 48t88.5 64.5t56 76.5t19.5 85q0 34 -16.5 53.5t-47.5 19.5q-39 0 -67 -28.5t-39 -79.5h-64q18 77 64.5 119.5t114.5 42.5q62 0 94 -31.5t32 -88.5q0 -54 -22.5 -100t-65 -82t-103 -60t-136.5 -34v-2z" />
    <glyph glyph-name="uni2083" unicode="&#x2083;" horiz-adv-x="368" 
d="M161 141q66 0 101.5 -27.5t35.5 -77.5q0 -70 -49.5 -111t-135.5 -41q-61 0 -94.5 31.5t-33.5 88.5q0 6 0.5 12t1.5 13h63q0 -5 -0.5 -9t-0.5 -9q0 -35 19 -54.5t55 -19.5q49 0 77.5 25t28.5 67q0 30 -21.5 47.5t-61.5 17.5h-12l8 48q52 5 81.5 28.5t29.5 60.5
q0 26 -18 41t-50 15q-36 0 -62 -24.5t-36 -68.5h-62q17 69 62.5 107.5t112.5 38.5q60 0 92 -23.5t32 -62.5q0 -52 -43.5 -81.5t-119.5 -29.5v-2v0z" />
    <glyph glyph-name="uni2084" unicode="&#x2084;" horiz-adv-x="373" 
d="M311 0h-59l-19 -110h-66l19 110h-212l10 56l204 278h123l-50 -282h59zM45 52h152l49 276h-2l-199 -274v-2z" />
    <glyph glyph-name="uni2085" unicode="&#x2085;" horiz-adv-x="369" 
d="M119 -116q-63 0 -97.5 31.5t-34.5 88.5v11h64q0 -36 20 -56.5t57 -20.5q52 0 82.5 31.5t30.5 85.5q0 37 -19.5 57.5t-57.5 20.5q-36 0 -61.5 -19t-40.5 -49l-62 8l81 261h245l-9 -52h-187l-67 -206h2q18 51 54.5 79t86.5 28q51 0 78 -30t27 -83q0 -85 -52 -135.5
t-140 -50.5z" />
    <glyph glyph-name="uni2086" unicode="&#x2086;" horiz-adv-x="391" 
d="M281 209v10q0 67 -67 67q-51 0 -87 -47.5t-52 -133.5l-7 -44h2q10 54 47.5 84.5t97.5 30.5q55 0 84 -29t29 -80q0 -42 -14.5 -76t-40 -57.5t-61 -36.5t-77.5 -13q-66 0 -99.5 40.5t-33.5 117.5q0 65 15.5 119.5t44.5 94.5t70 62t91 22q59 0 90.5 -30t31.5 -84v-17h-64z
M176 124q-52 0 -82 -27.5t-30 -77.5q0 -38 21 -59.5t57 -21.5q54 0 85 31t31 82q0 35 -21.5 54t-60.5 19z" />
    <glyph glyph-name="uni2087" unicode="&#x2087;" horiz-adv-x="326" 
d="M331 334l-9 -49q-35 -9 -66.5 -37.5t-57.5 -73.5t-46.5 -105t-33.5 -132l-8 -47h-69l6 36q28 158 94 250.5t157 103.5v2h-283l9 52h307z" />
    <glyph glyph-name="uni2088" unicode="&#x2088;" horiz-adv-x="383" 
d="M212 144q50 -7 76.5 -34.5t26.5 -71.5q0 -71 -50 -112.5t-137 -41.5q-67 0 -103.5 29t-36.5 82q0 62 39.5 100.5t108.5 48.5v2q-45 0 -70 19.5t-25 54.5q0 55 45 87.5t122 32.5q63 0 96.5 -23.5t33.5 -65.5q0 -48 -34.5 -76.5t-91.5 -28.5v-2zM106 201q0 -29 17.5 -44.5
t49.5 -15.5q43 0 68 23.5t25 62.5q0 28 -17.5 43.5t-49.5 15.5q-42 0 -67.5 -23t-25.5 -62zM137 -62q51 0 79.5 25.5t28.5 67.5q0 32 -20.5 49t-59.5 17q-50 0 -79 -25t-29 -68q0 -32 21 -49t59 -17z" />
    <glyph glyph-name="uni2089" unicode="&#x2089;" horiz-adv-x="389" 
d="M208 340q67 0 99.5 -41t32.5 -116q0 -65 -16 -120t-45 -95t-70 -62t-91 -22q-58 0 -89 32t-31 89v10.5t1 11.5h64q-1 -5 -1 -8.5v-7.5q0 -35 16.5 -54t48.5 -19q51 0 87.5 47.5t51.5 133.5l9 50h-2q-10 -51 -48 -80t-97 -29q-55 0 -84 28t-29 78q0 40 14.5 72.5t40 55
t61 34.5t77.5 12zM167 112q51 0 81.5 25.5t30.5 71.5q0 36 -22 56.5t-58 20.5q-53 0 -83.5 -28.5t-30.5 -76.5q0 -33 21.5 -51t60.5 -18zM282 200q0 -2 -0.5 -3.5t-0.5 -3.5z" />
    <glyph glyph-name="Euro" unicode="&#x20ac;" horiz-adv-x="652" 
d="M482 677q-95 0 -162.5 -61t-97.5 -164h289l-32 -44h-268q-3 -17 -5.5 -34.5t-3.5 -36.5h225l-31 -44h-196v-3q0 -107 44.5 -167t129.5 -60q42 0 93.5 17t96.5 52l27 -61q-52 -39 -114.5 -60t-115.5 -21q-122 0 -186 77t-64 212v14h-67l7 43h62q2 19 4 37t6 35h-59l8 43
h61q18 69 51.5 124t80 94t104.5 60t126 21q53 0 103.5 -15t85.5 -43l-48 -64q-29 25 -70 37t-84 12z" />
    <glyph glyph-name="trademark" unicode="&#x2122;" horiz-adv-x="674" 
d="M243 740l-47 -266h-37l47 266h-91l6 30h217l-6 -30h-89zM684 770l-43 -296h-36l42 291h-2l-134 -291h-67l-28 291h-2l-60 -291h-35l61 296h72l25 -291h2l133 291h72z" />
    <glyph glyph-name="oneeighth" unicode="&#x215b;" horiz-adv-x="810" 
d="M205 731q-8 -47 -35 -72.5t-67 -25.5l10 57q41 0 66.5 16.5t30.5 45.5h66l-78 -444h-66l75 423h-2zM671 725l-609 -735l-28 25l608 735zM651 254q50 -7 76.5 -34.5t26.5 -71.5q0 -71 -50 -112.5t-137 -41.5q-67 0 -103.5 29t-36.5 82q0 62 39.5 100.5t108.5 48.5v2
q-45 0 -70 19.5t-25 54.5q0 55 45 87.5t122 32.5q63 0 96.5 -23.5t33.5 -65.5q0 -48 -34.5 -76.5t-91.5 -28.5v-2zM545 311q0 -29 17.5 -44.5t49.5 -15.5q43 0 68 23.5t25 62.5q0 28 -17.5 43.5t-49.5 15.5q-42 0 -67.5 -23t-25.5 -62zM576 48q51 0 79.5 25.5t28.5 67.5
q0 32 -20.5 49t-59.5 17q-50 0 -79 -25t-29 -68q0 -32 21 -49t59 -17z" />
    <glyph glyph-name="threeeighths" unicode="&#x215c;" horiz-adv-x="942" 
d="M381 454q0 -70 -49.5 -111t-135.5 -41q-61 0 -94.5 31.5t-33.5 88.5q0 6 0.5 12t1.5 13h63q0 -5 -0.5 -9t-0.5 -9q0 -35 19 -54.5t55 -19.5q49 0 77.5 25t28.5 67q0 30 -21.5 47.5t-61.5 17.5h-12l8 48q52 5 81.5 28.5t29.5 60.5q0 26 -18 41t-50 15q-36 0 -62 -24.5
t-36 -68.5h-62q17 69 62.5 107.5t112.5 38.5q60 0 92 -23.5t32 -62.5q0 -52 -43.5 -81.5t-119.5 -29.5v-2q66 0 101.5 -27.5t35.5 -77.5zM803 725l-609 -735l-28 25l608 735zM782 254q50 -7 76.5 -34.5t26.5 -71.5q0 -71 -50 -112.5t-137 -41.5q-67 0 -103.5 29t-36.5 82
q0 62 39.5 100.5t108.5 48.5v2q-45 0 -70 19.5t-25 54.5q0 55 45 87.5t122 32.5q63 0 96.5 -23.5t33.5 -65.5q0 -48 -34.5 -76.5t-91.5 -28.5v-2zM676 311q0 -29 17.5 -44.5t49.5 -15.5q43 0 68 23.5t25 62.5q0 28 -17.5 43.5t-49.5 15.5q-42 0 -67.5 -23t-25.5 -62zM707 48
q51 0 79.5 25.5t28.5 67.5q0 32 -20.5 49t-59.5 17q-50 0 -79 -25t-29 -68q0 -32 21 -49t59 -17z" />
    <glyph glyph-name="fiveeighths" unicode="&#x215d;" horiz-adv-x="946" 
d="M394 488q0 -85 -52 -135.5t-140 -50.5q-63 0 -97.5 31.5t-34.5 88.5v11h64q0 -36 20 -56.5t57 -20.5q52 0 82.5 31.5t30.5 85.5q0 37 -19.5 57.5t-57.5 20.5q-36 0 -61.5 -19t-40.5 -49l-62 8l81 261h245l-9 -52h-187l-67 -206h2q18 51 54.5 79t86.5 28q51 0 78 -30
t27 -83zM808 725l-609 -735l-28 25l608 735zM787 254q50 -7 76.5 -34.5t26.5 -71.5q0 -71 -50 -112.5t-137 -41.5q-67 0 -103.5 29t-36.5 82q0 62 39.5 100.5t108.5 48.5v2q-45 0 -70 19.5t-25 54.5q0 55 45 87.5t122 32.5q63 0 96.5 -23.5t33.5 -65.5q0 -48 -34.5 -76.5
t-91.5 -28.5v-2zM681 311q0 -29 17.5 -44.5t49.5 -15.5q43 0 68 23.5t25 62.5q0 28 -17.5 43.5t-49.5 15.5q-42 0 -67.5 -23t-25.5 -62zM712 48q51 0 79.5 25.5t28.5 67.5q0 32 -20.5 49t-59.5 17q-50 0 -79 -25t-29 -68q0 -32 21 -49t59 -17z" />
    <glyph glyph-name="seveneighths" unicode="&#x215e;" horiz-adv-x="925" 
d="M138 344q28 158 94 250.5t157 103.5v2h-283l9 52h307l-9 -49q-35 -9 -66.5 -37.5t-57.5 -73.5t-46.5 -105t-33.5 -132l-8 -47h-69zM778 725l-609 -735l-28 25l608 735zM757 254q50 -7 76.5 -34.5t26.5 -71.5q0 -71 -50 -112.5t-137 -41.5q-67 0 -103.5 29t-36.5 82
q0 62 39.5 100.5t108.5 48.5v2q-45 0 -70 19.5t-25 54.5q0 55 45 87.5t122 32.5q63 0 96.5 -23.5t33.5 -65.5q0 -48 -34.5 -76.5t-91.5 -28.5v-2zM651 311q0 -29 17.5 -44.5t49.5 -15.5q43 0 68 23.5t25 62.5q0 28 -17.5 43.5t-49.5 15.5q-42 0 -67.5 -23t-25.5 -62zM682 48
q51 0 79.5 25.5t28.5 67.5q0 32 -20.5 49t-59.5 17q-50 0 -79 -25t-29 -68q0 -32 21 -49t59 -17z" />
    <glyph glyph-name="partialdiff" unicode="&#x2202;" horiz-adv-x="651" 
d="M404 750q110 0 168 -74.5t58 -208.5q0 -108 -29 -196.5t-82.5 -150.5t-129.5 -96t-169 -34q-99 0 -152 38.5t-53 107.5q0 56 36 100t103.5 74t163.5 46t217 16q6 40 6 86q0 103 -39 161t-114 58q-69 0 -118 -34.5t-68 -97.5h-84q29 97 104 151t182 54zM235 63
q60 0 111 21.5t89.5 61t64 96.5t35.5 128q-99 0 -178.5 -14.5t-135 -42t-85.5 -67t-30 -88.5q0 -45 33.5 -70t95.5 -25z" />
    <glyph glyph-name="emptyset" unicode="&#x2205;" horiz-adv-x="630" 
d="M550 424q31 -51 31 -121q0 -71 -22 -128.5t-62.5 -98t-98 -63t-128.5 -22.5q-102 0 -161 54l-48 -42l-29 33l49 42q-31 51 -31 123q0 70 22 127t62.5 97.5t98 62.5t129.5 22q52 0 92 -13.5t68 -39.5l48 42l28 -34zM97 208q0 -56 23 -96l363 313q-47 42 -129 42
q-59 0 -106 -18.5t-81 -52t-52 -81.5t-18 -107zM533 295q0 54 -22 95l-364 -313q48 -43 131 -43q58 0 105 18.5t80.5 53t51.5 82.5t18 107z" />
    <glyph glyph-name="product" unicode="&#x220f;" horiz-adv-x="836" 
d="M890 696h-140l-164 -926h-82l164 926h-343l-164 -926h-82l164 926h-140l13 74h787z" />
    <glyph glyph-name="summation" unicode="&#x2211;" horiz-adv-x="659" 
d="M143 701l-1 -2l395 -311l-28 -162v5l-5 -28l-525 -362v-2l580 1l-12 -70h-592l28 158l527 367v2l-395 316l28 157h561l-13 -70z" />
    <glyph glyph-name="minus" unicode="&#x2212;" horiz-adv-x="519" 
d="M73 272h382l-7 -40h-383z" />
    <glyph glyph-name="radical" unicode="&#x221a;" horiz-adv-x="652" 
d="M743 770l-435 -880h-159l-34 335h-113l12 70h185l29 -399h2l420 874h93z" />
    <glyph glyph-name="infinity" unicode="&#x221e;" horiz-adv-x="805" 
d="M600 445q75 0 115.5 -40.5t40.5 -113.5q0 -53 -16 -96.5t-45.5 -74t-71 -47t-92.5 -16.5q-58 0 -93.5 27.5t-46.5 78.5q-26 -51 -73.5 -78.5t-111.5 -27.5q-75 0 -115 40.5t-40 113.5q0 53 15.5 96.5t45 74t71 47t92.5 16.5q59 0 94 -27.5t46 -78.5q27 51 74 78.5
t111 27.5zM214 97q39 0 70 13.5t53.5 38t34.5 59t12 76.5q0 57 -29.5 89t-86.5 32q-38 0 -69.5 -13.5t-54 -38t-34.5 -59t-12 -76.5q0 -57 30 -89t86 -32zM538 97q39 0 70 13.5t53.5 38t34.5 59t12 76.5q0 57 -29.5 89t-86.5 32q-38 0 -69.5 -13.5t-54 -38t-34.5 -59
t-12 -76.5q0 -57 30 -89t86 -32z" />
    <glyph glyph-name="integral" unicode="&#x222b;" horiz-adv-x="463" 
d="M251 592q16 90 71.5 139t139.5 49q63 0 104 -23l-30 -62q-33 17 -77 17q-51 0 -83 -30.5t-41 -84.5l-115 -649q-15 -90 -70 -139t-139 -49q-65 0 -105 23l29 62q34 -17 78 -17q51 0 83 30.5t41 84.5l114 649v0z" />
    <glyph glyph-name="approxequal" unicode="&#x2248;" horiz-adv-x="601" 
d="M423 277q-42 0 -68.5 12t-47.5 26t-43 26t-56 12q-32 0 -55 -21t-33 -59h-38q11 58 46.5 90t90.5 32q42 0 68.5 -12t47.5 -26t42.5 -26t55.5 -12q32 0 55 21t34 59h38q-11 -58 -47 -90t-90 -32zM383 105q-42 0 -68.5 12t-47.5 26t-43 26t-56 12q-32 0 -55 -21t-33 -59
h-38q11 58 46.5 90t90.5 32q42 0 68.5 -12t47.5 -26t42.5 -26t55.5 -12q32 0 55 21t34 59h38q-11 -58 -47 -90t-90 -32z" />
    <glyph glyph-name="notequal" unicode="&#x2260;" horiz-adv-x="521" 
d="M308 303l-47 -102h183l-7 -40h-195l-75 -161h-44l75 161h-144l8 40h155l47 102h-185l8 40h196l71 152h44l-71 -152h142l-7 -40h-154z" />
    <glyph glyph-name="lessequal" unicode="&#x2264;" horiz-adv-x="512" 
d="M83 321l-1 -2l353 -132l-7 -44l-358 140l6 35l8 41l407 141l-8 -44zM30 52h382l-7 -40h-383z" />
    <glyph glyph-name="greaterequal" unicode="&#x2265;" horiz-adv-x="507" 
d="M462 323l-8 -40l-406 -140l7 44l400 132l1 2l-353 135l7 44l358 -141zM31 52h382l-6 -40h-382z" />
    <glyph glyph-name="lozenge" unicode="&#x25ca;" horiz-adv-x="492" 
d="M445 259l-12 -68l-181 -191h-99l-114 191l8 46l12 67l181 191h99l114 -191zM437 247v2l-147 242h-2l-233 -242v-2l147 -243h2z" />
    <glyph glyph-name="uniF8FF" unicode="&#xf8ff;" horiz-adv-x="1274" 
d="M846 -3q-7 -7 -17 -7q-14 0 -17 7.5t-3 15.5v324l-339 -340q-7 -7 -17 -7q-14 0 -17 7.5t-3 15.5v324l-340 -340q-7 -7 -17 -7q-8 0 -12.5 5t-4.5 13q0 10 5 15l342 341h-324q-8 0 -15.5 3t-7.5 16q0 5 2 8.5t5 7.5l340 342h-327q-20 0 -20 19v1q0 19 20 19h370
q8 0 15.5 -3t7.5 -17q0 -10 -8 -17l-341 -340h330q8 0 14 -6t6 -14v-327l339 338q7 8 17 8q13 0 15.5 -7.5t2.5 -14.5v-324l340 338q6 8 16 8q8 0 12.5 -5.5t4.5 -13.5q0 -3 -1 -7t-5 -7z" />
    <glyph glyph-name="Jacute" horiz-adv-x="547" 
d="M672 925l-192 -89l-17 46l191 94zM368 211l94 529h85l-93 -523q-19 -108 -86 -167.5t-170 -59.5q-86 0 -132 53.5t-46 151.5v24t2 26h81q-1 -9 -1.5 -17.5t-0.5 -16.5q0 -70 29.5 -109t83.5 -39q60 0 101 39t53 109z" />
    <glyph glyph-name="i.loclTRK" horiz-adv-x="235" 
d="M159 710h82l-18 -105h-82zM202 495l-87 -495h-82l87 495h82z" />
    <glyph glyph-name="jacute" horiz-adv-x="235" 
d="M330 680l-192 -89l-17 46l191 94zM202 495l-128 -725h-82l128 725h82z" />
    <glyph glyph-name="f_b" horiz-adv-x="975" 
d="M223 495h173l-10 -61h-168l-77 -434h-82l77 434h-80l10 61h152l1 2q-29 14 -44 40.5t-15 58.5q0 42 14.5 76t41.5 58t65 37t86 13q53 0 88 -19l-23 -63q-25 14 -60 14q-56 0 -88.5 -27.5t-41.5 -77.5zM760 505q84 0 128 -52t44 -145q0 -71 -18.5 -129.5t-53 -100.5
t-83 -65t-108.5 -23q-75 0 -115.5 35t-40.5 98q0 21 4 40h-2l-29 -163h-82l136 770h82l-77 -437h2q14 81 70.5 126.5t142.5 45.5zM649 58q45 0 81.5 17t62 47.5t39.5 73.5t14 95q0 69 -33.5 108t-96.5 39q-76 0 -126.5 -51t-66.5 -139q-2 -15 -3.5 -27.5t-1.5 -24.5
q0 -65 33.5 -101.5t97.5 -36.5z" />
    <glyph glyph-name="f_f_j" horiz-adv-x="914" 
d="M881 495l-128 -725h-82l117 664h-251l-77 -434h-82l77 434h-237l-77 -434h-82l77 434h-80l10 61h152l1 2q-29 14 -44 40.5t-15 58.5q0 42 14.5 76t41.5 58t65 37t86 13q53 0 88 -19l-23 -63q-25 14 -60 14q-56 0 -88.5 -27.5t-41.5 -77.5l-19 -112h314l1 2
q-29 14 -44 40.5t-15 58.5q0 42 14.5 76t41.5 58t65 37t86 13q53 0 88 -19l-23 -63q-25 14 -60 14q-56 0 -88.5 -27.5t-41.5 -77.5l-19 -112h339zM919 710l-18 -105h-82l18 105h82z" />
    <glyph glyph-name="f_f_t" horiz-adv-x="1021" 
d="M816 145q-1 -5 -1.5 -10t-0.5 -10q0 -32 20 -49.5t57 -17.5q39 0 74 16l-11 -64q-22 -9 -48.5 -14.5t-52.5 -5.5q-60 0 -92 29t-32 83q0 9 1 18t3 20l52 294h-247l-77 -434h-82l77 434h-238l-77 -434h-82l77 434h-80l10 61h152l1 2q-29 14 -44 40.5t-15 58.5
q0 42 14.5 76t41.5 58t65 37t86 13q53 0 88 -19l-23 -63q-25 14 -60 14q-56 0 -88.5 -27.5t-41.5 -77.5l-19 -112h315l1 2q-29 14 -44 40.5t-15 58.5q0 42 14.5 76t41.5 58t65 37t86 13q53 0 88 -19l-23 -63q-25 14 -60 14q-56 0 -88.5 -27.5t-41.5 -77.5l-19 -112h259
l30 172h82l-7 -42q-7 -42 -34 -75t-66 -53l-1 -2h241l-11 -61h-170z" />
    <glyph glyph-name="f_h" horiz-adv-x="950" 
d="M223 495h173l-10 -61h-168l-77 -434h-82l77 434h-80l10 61h152l1 2q-29 14 -44 40.5t-15 58.5q0 42 14.5 76t41.5 58t65 37t86 13q53 0 88 -19l-23 -63q-25 14 -60 14q-56 0 -88.5 -27.5t-41.5 -77.5zM746 505q72 0 110.5 -38t38.5 -108q0 -12 -1 -24.5t-4 -26.5
l-54 -308h-82l54 306q3 16 3 33q0 48 -27.5 73.5t-78.5 25.5q-67 0 -112 -44t-59 -123l-48 -271h-82l136 770h82l-79 -445h2q16 85 68.5 132.5t132.5 47.5z" />
    <glyph glyph-name="f_iacute" horiz-adv-x="595" 
d="M562 495l-87 -495h-82l76 434h-251l-77 -434h-82l77 434h-80l10 61h152l1 2q-29 14 -44 40.5t-15 58.5q0 42 14.5 76t41.5 58t65 37t86 13q53 0 88 -19l-23 -63q-25 14 -60 14q-56 0 -88.5 -27.5t-41.5 -77.5l-19 -112h339zM498 591l-17 46l191 94l18 -51z" />
    <glyph glyph-name="f_j" horiz-adv-x="595" 
d="M562 495l-128 -725h-82l117 664h-251l-77 -434h-82l77 434h-80l10 61h152l1 2q-29 14 -44 40.5t-15 58.5q0 42 14.5 76t41.5 58t65 37t86 13q53 0 88 -19l-23 -63q-25 14 -60 14q-56 0 -88.5 -27.5t-41.5 -77.5l-19 -112h339zM600 710l-18 -105h-82l18 105h82z" />
    <glyph glyph-name="f_k" horiz-adv-x="915" 
d="M223 495h173l-10 -61h-168l-77 -434h-82l77 434h-80l10 61h152l1 2q-29 14 -44 40.5t-15 58.5q0 42 14.5 76t41.5 58t65 37t86 13q53 0 88 -19l-23 -63q-25 14 -60 14q-56 0 -88.5 -27.5t-41.5 -77.5zM629 259l242 -259h-108l-231 253h-2l-45 -253h-82l136 770h82
l-90 -508h3l299 233h106z" />
    <glyph glyph-name="f_t" horiz-adv-x="702" 
d="M496 145q-1 -5 -1.5 -10t-0.5 -10q0 -32 20 -49.5t57 -17.5q39 0 74 16l-11 -64q-22 -9 -48.5 -14.5t-52.5 -5.5q-60 0 -92 29t-32 83q0 9 1 18t3 20l52 294h-247l-77 -434h-82l77 434h-80l10 61h152l1 2q-29 14 -44 40.5t-15 58.5q0 42 14.5 76t41.5 58t65 37t86 13
q53 0 88 -19l-23 -63q-25 14 -60 14q-56 0 -88.5 -27.5t-41.5 -77.5l-19 -112h259l30 172h82l-7 -42q-7 -42 -34 -75t-66 -53l-1 -2h241l-11 -61h-170z" />
    <glyph glyph-name="t_t" horiz-adv-x="716" 
d="M511 145q-1 -5 -1.5 -10t-0.5 -10q0 -32 20 -49.5t57 -17.5q39 0 74 16l-11 -64q-22 -9 -48.5 -14.5t-52.5 -5.5q-60 0 -92 29t-32 83q0 9 1 18t3 20l52 294h-266l-50 -289q-1 -5 -1.5 -10t-0.5 -10q0 -32 20 -49.5t57 -17.5q39 0 74 16l-11 -64q-22 -9 -48.5 -14.5
t-52.5 -5.5q-60 0 -92 29t-32 83q0 9 1 18t3 20l52 294h-80l10 61h87l30 172h82l-7 -42q-7 -42 -34 -75t-66 -53l-1 -2h343l30 172h82l-7 -42q-7 -42 -34 -75t-66 -53l-1 -2h241l-11 -61h-170z" />
    <glyph glyph-name="zero.lf" horiz-adv-x="658" 
d="M283 -10q-103 0 -157.5 74t-54.5 206q0 105 24.5 193t70 152t109.5 99.5t142 35.5q104 0 158.5 -74t54.5 -206q0 -105 -24.5 -193t-70 -152t-109.5 -99.5t-143 -35.5zM297 63q55 0 100 31t77.5 85t50 127.5t17.5 157.5q0 100 -35 156.5t-102 56.5q-56 0 -101 -31t-77 -85
t-49.5 -127.5t-17.5 -157.5q0 -100 35 -156.5t102 -56.5z" />
    <glyph glyph-name="one.lf" horiz-adv-x="344" 
d="M336 740l-130 -740h-86l124 708h-2q-11 -67 -53.5 -104t-108.5 -37l13 75q66 0 107.5 26t49.5 72h86z" />
    <glyph glyph-name="two.lf" horiz-adv-x="602" 
d="M56 70h470l-13 -70h-512l11 65q112 30 202 78.5t153 111t96.5 135.5t33.5 152q0 63 -31.5 99t-91.5 36q-72 0 -124 -51t-72 -144h-83q29 127 105.5 197.5t187.5 70.5q98 0 149.5 -52t51.5 -146q0 -92 -37 -171.5t-106.5 -142t-168 -105.5t-221.5 -61v-2z" />
    <glyph glyph-name="three.lf" horiz-adv-x="601" 
d="M321 412q107 0 164.5 -46t57.5 -128q0 -57 -21 -102.5t-59.5 -78t-94 -50t-124.5 -17.5q-100 0 -153 51t-53 144q0 11 1 22t3 23h82q-2 -9 -2 -18v-17q0 -63 34.5 -98.5t100.5 -35.5q91 0 144 45.5t53 121.5q0 57 -39.5 88t-113.5 31h-22l12 67q94 11 148 53.5t54 108.5
q0 49 -32.5 76t-94.5 27q-67 0 -114.5 -45t-66.5 -126h-81q27 115 101.5 178.5t181.5 63.5q97 0 148.5 -38.5t51.5 -106.5q0 -45 -18.5 -80t-53.5 -60t-85 -38t-113 -13v-2h4v0z" />
    <glyph glyph-name="four.lf" horiz-adv-x="597" 
d="M556 192h-96l-34 -192h-85l34 192h-359l14 76l365 472h161l-84 -478h97zM111 262h277l83 470h-2l-358 -468v-2z" />
    <glyph glyph-name="five.lf" horiz-adv-x="607" 
d="M256 -10q-102 0 -158 52t-56 146v17h84q0 -67 38 -104.5t105 -37.5q47 0 85.5 15.5t65.5 43.5t41.5 67.5t14.5 88.5q0 66 -36 104t-105 38q-68 0 -114.5 -35t-74.5 -92l-81 11l134 436h394l-12 -70h-317l-113 -358h2q29 83 90 129.5t142 46.5q88 0 135 -50.5t47 -140.5
q0 -70 -22 -127t-62.5 -97t-98 -61.5t-128.5 -21.5z" />
    <glyph glyph-name="six.lf" horiz-adv-x="641" 
d="M538 534q1 6 1.5 12t0.5 11q0 57 -31.5 88.5t-91.5 31.5q-45 0 -84.5 -22t-71.5 -63.5t-56 -101t-37 -135.5l-13 -72h2q17 91 81.5 142t164.5 51q93 0 141.5 -48.5t48.5 -136.5q0 -69 -23.5 -124.5t-64.5 -95t-97.5 -60.5t-123.5 -21q-109 0 -162.5 65t-53.5 191
q0 109 25.5 201t73 159.5t114 105.5t148.5 38q94 0 144.5 -48t50.5 -136q0 -8 -0.5 -15.5t-1.5 -16.5h-84zM354 406q-93 0 -148.5 -51.5t-55.5 -142.5q0 -69 39 -109t105 -40q48 0 86.5 15t65.5 42t41.5 65.5t14.5 85.5q0 64 -38 99.5t-110 35.5z" />
    <glyph glyph-name="seven.lf" horiz-adv-x="532" 
d="M601 740l-11 -65q-61 -15 -115 -62.5t-99.5 -123t-80 -178t-56.5 -226.5l-14 -85h-91l13 70q24 130 63 236t91 183t115 123t135 56v2h-465l12 70h503z" />
    <glyph glyph-name="eight.lf" horiz-adv-x="629" 
d="M412 415q78 -12 118.5 -57t40.5 -115q0 -58 -21 -105t-60.5 -80t-95.5 -50.5t-125 -17.5q-109 0 -167.5 47.5t-58.5 133.5q0 100 62 163.5t171 80.5v2q-69 0 -106.5 33t-37.5 92q0 48 19 86.5t54 65.5t85.5 41.5t112.5 14.5q100 0 154 -40t54 -111q0 -41 -14 -74.5
t-40 -57.5t-63 -37t-82 -13v-2zM216 519q0 -52 33 -81.5t93 -29.5q81 0 128 43.5t47 116.5q0 51 -32.5 80t-94.5 29q-80 0 -127 -42.5t-47 -115.5zM282 63q92 0 146 45t54 123q0 57 -38.5 88.5t-110.5 31.5q-93 0 -146.5 -45t-53.5 -123q0 -57 38.5 -88.5t110.5 -31.5z" />
    <glyph glyph-name="nine.lf" horiz-adv-x="639" 
d="M402 750q109 0 161 -66t52 -189q0 -109 -26 -201.5t-73 -160t-113.5 -105.5t-148.5 -38q-93 0 -142.5 51.5t-49.5 144.5q0 19 3 40h84q-2 -9 -2 -15v-14q0 -63 31 -98.5t89 -35.5q91 0 156 85t92 237l15 82h-2q-16 -87 -80 -135t-164 -48q-93 0 -142.5 47t-49.5 131
q0 66 23.5 119.5t64.5 91t98 57.5t124 20zM333 354q93 0 147.5 48t54.5 133q0 66 -39.5 104t-105.5 38q-48 0 -86 -14t-65 -39.5t-41.5 -61.5t-14.5 -80q0 -61 39 -94.5t111 -33.5z" />
    <glyph glyph-name="zero.osf" horiz-adv-x="639" 
d="M274 -10q-106 0 -161.5 60.5t-55.5 168.5q0 80 22.5 146t64.5 112.5t101 72t133 25.5q106 0 161.5 -60.5t55.5 -168.5q0 -80 -22.5 -145.5t-64.5 -112.5t-101.5 -72.5t-132.5 -25.5zM286 58q51 0 92.5 20t71 57t45 88.5t15.5 113.5q0 80 -37 125.5t-107 45.5
q-51 0 -93 -20.5t-71 -57t-45 -88t-16 -113.5q0 -81 37.5 -126t107.5 -45z" />
    <glyph glyph-name="one.osf" horiz-adv-x="338" 
d="M304 565l-100 -565h-82l94 533h-2q-11 -63 -52.5 -98.5t-104.5 -35.5l11 69q64 0 105 25.5t49 71.5h82z" />
    <glyph glyph-name="two.osf" horiz-adv-x="584" 
d="M49 64h460l-11 -64h-495l11 60q105 32 189.5 71.5t143 84.5t90 93t31.5 98q0 48 -33.5 75t-96.5 27q-70 0 -118 -38.5t-65 -108.5h-79q23 102 95.5 157.5t178.5 55.5q97 0 148.5 -41.5t51.5 -116.5q0 -63 -35 -118.5t-100 -100.5t-157.5 -79t-208.5 -53v-2z" />
    <glyph glyph-name="three.osf" horiz-adv-x="587" 
d="M283 272q108 0 166.5 -43t58.5 -121q0 -52 -20.5 -94t-59 -72t-93 -46t-122.5 -16q-97 0 -149 47t-52 134q0 18 3 38h78q-2 -8 -2 -15v-13q0 -59 34.5 -92t99.5 -33q92 0 145 41t53 112q0 54 -40 84t-114 30h-21l10 61q94 8 147 46t53 97q0 44 -33.5 68t-96.5 24
q-66 0 -113 -39.5t-64 -111.5h-77q24 103 95 160t174 57q97 0 149.5 -35.5t52.5 -98.5q0 -80 -70.5 -123.5t-191.5 -43.5v-2v0z" />
    <glyph glyph-name="four.osf" horiz-adv-x="582" 
d="M514 0h-96l-19 -110h-82l19 110h-350l13 71l362 495h157l-88 -502h95zM79 64h270l87 493h-2l-355 -491v-2z" />
    <glyph glyph-name="five.osf" horiz-adv-x="606" 
d="M235 -120q-104 0 -161.5 48.5t-57.5 136.5v9h80q1 -60 41 -93t110 -33q48 0 87 14t66 40t42 63t15 83q0 63 -38 98t-108 35q-71 0 -119.5 -31.5t-74.5 -82.5l-76 11l125 387h405l-11 -63h-333l-107 -320h2q29 77 90.5 120t142.5 43q91 0 139 -48t48 -134
q0 -65 -21.5 -117.5t-61.5 -89.5t-97 -56.5t-127 -19.5z" />
    <glyph glyph-name="six.osf" horiz-adv-x="638" 
d="M543 524q1 5 1 9.5v9.5q-1 57 -34.5 88t-96.5 31q-93 0 -159.5 -83.5t-93.5 -233.5l-12 -73h2q16 91 82.5 140.5t167.5 49.5q94 0 143 -48.5t49 -134.5q0 -67 -23 -120.5t-64 -91t-97.5 -57.5t-122.5 -20q-221 0 -221 251q0 108 26 198t73 154.5t114 100.5t148 36
q96 0 147 -46.5t51 -131.5q0 -7 -0.5 -13.5t-0.5 -14.5h-79zM354 397q-48 0 -87.5 -13.5t-67 -38.5t-42.5 -61t-15 -81q0 -68 41 -106.5t111 -38.5q48 0 87.5 14t67.5 40.5t43 63.5t15 84q0 65 -39.5 101t-113.5 36z" />
    <glyph glyph-name="seven.osf" horiz-adv-x="538" 
d="M566 565l-11 -59q-63 -17 -119.5 -67t-103.5 -129t-83.5 -185t-58.5 -235h-88q23 131 63 238t93.5 185.5t119.5 126t141 60.5v2h-448l12 63h483z" />
    <glyph glyph-name="eight.osf" horiz-adv-x="633" 
d="M409 402q81 -12 124.5 -55.5t43.5 -112.5q0 -56 -21.5 -101t-61 -77t-96.5 -49t-127 -17q-111 0 -171 46.5t-60 130.5q0 97 64 158.5t176 76.5v2q-74 0 -113.5 32.5t-39.5 90.5q0 46 19 84t55 64t87 40.5t114 14.5q102 0 157.5 -39.5t55.5 -110.5q0 -41 -14.5 -73.5
t-41.5 -55t-65 -35t-85 -12.5v-2zM207 507q0 -52 35 -80.5t101 -28.5q85 0 134.5 41t49.5 113q0 52 -35.5 81t-101.5 29q-84 0 -133.5 -41.5t-49.5 -113.5zM283 58q96 0 152.5 44.5t56.5 122.5q0 57 -41 88.5t-117 31.5q-97 0 -153 -44.5t-56 -121.5q0 -57 41 -89t117 -32z
" />
    <glyph glyph-name="nine.osf" horiz-adv-x="637" 
d="M366 575q114 0 168.5 -60t54.5 -181q0 -102 -25.5 -185.5t-72 -143t-112 -92.5t-145.5 -33q-96 0 -148.5 43.5t-52.5 122.5v22h79v-13q0 -51 35 -79t99 -28q94 0 159 78.5t90 221.5l10 55h-2q-15 -86 -81.5 -133t-167.5 -47q-94 0 -143.5 46.5t-49.5 130.5q0 64 23 115
t63.5 86.5t96.5 54.5t122 19zM301 188q48 0 86.5 12.5t66 36t42.5 56.5t15 75q0 65 -42 102t-112 37q-48 0 -87 -13t-66.5 -38t-42.5 -60t-15 -78q0 -62 40 -96t115 -34z" />
    <glyph glyph-name="zero.dnom" horiz-adv-x="401" 
d="M156 -6q-64 0 -98 45t-34 125q0 63 15.5 115.5t43 90.5t66.5 59t87 21q65 0 99 -45t34 -125q0 -63 -15.5 -115.5t-43 -90.5t-67 -59t-87.5 -21zM165 48q31 0 56 18t43 49t27.5 73t9.5 89q0 56 -18.5 87.5t-55.5 31.5q-30 0 -55 -18t-43 -49t-27.5 -72.5t-9.5 -89.5
q0 -56 19 -87.5t54 -31.5z" />
    <glyph glyph-name="one.dnom" horiz-adv-x="227" 
d="M202 444l-78 -444h-66l75 423h-2q-8 -47 -35 -72.5t-67 -25.5l10 57q41 0 66.5 16.5t30.5 45.5h66z" />
    <glyph glyph-name="two.dnom" horiz-adv-x="369" 
d="M18 52h291l-9 -52h-316l9 49q65 19 117 48t88.5 64.5t56 76.5t19.5 85q0 34 -16.5 53.5t-47.5 19.5q-39 0 -67 -28.5t-39 -79.5h-64q18 77 64.5 119.5t114.5 42.5q62 0 94 -31.5t32 -88.5q0 -54 -22.5 -100t-65 -82t-103 -60t-136.5 -34v-2z" />
    <glyph glyph-name="three.dnom" horiz-adv-x="368" 
d="M180 251q66 0 101.5 -27.5t35.5 -77.5q0 -70 -49.5 -111t-135.5 -41q-61 0 -94.5 31.5t-33.5 88.5q0 6 0.5 12t1.5 13h63q0 -5 -0.5 -9t-0.5 -9q0 -35 19 -54.5t55 -19.5q49 0 77.5 25t28.5 67q0 30 -21.5 47.5t-61.5 17.5h-12l8 48q52 5 81.5 28.5t29.5 60.5
q0 26 -18 41t-50 15q-36 0 -62 -24.5t-36 -68.5h-62q17 69 62.5 107.5t112.5 38.5q60 0 92 -23.5t32 -62.5q0 -52 -43.5 -81.5t-119.5 -29.5v-2v0z" />
    <glyph glyph-name="four.dnom" horiz-adv-x="373" 
d="M330 110h-59l-19 -110h-66l19 110h-212l10 56l204 278h123l-50 -282h59zM64 162h152l49 276h-2l-199 -274v-2z" />
    <glyph glyph-name="five.dnom" horiz-adv-x="369" 
d="M138 -6q-63 0 -97.5 31.5t-34.5 88.5v11h64q0 -36 20 -56.5t57 -20.5q52 0 82.5 31.5t30.5 85.5q0 37 -19.5 57.5t-57.5 20.5q-36 0 -61.5 -19t-40.5 -49l-62 8l81 261h245l-9 -52h-187l-67 -206h2q18 51 54.5 79t86.5 28q51 0 78 -30t27 -83q0 -85 -52 -135.5
t-140 -50.5z" />
    <glyph glyph-name="six.dnom" horiz-adv-x="391" 
d="M301 319v10q0 67 -67 67q-51 0 -87 -47.5t-52 -133.5l-7 -44h2q10 54 47.5 84.5t97.5 30.5q55 0 84 -29t29 -80q0 -42 -14.5 -76t-40 -57.5t-61 -36.5t-77.5 -13q-66 0 -99.5 40.5t-33.5 117.5q0 65 15.5 119.5t44.5 94.5t70 62t91 22q59 0 90.5 -30t31.5 -84v-17h-64z
M196 234q-52 0 -82 -27.5t-30 -77.5q0 -38 21 -59.5t57 -21.5q54 0 85 31t31 82q0 35 -21.5 54t-60.5 19z" />
    <glyph glyph-name="seven.dnom" horiz-adv-x="326" 
d="M350 444l-9 -49q-35 -9 -66.5 -37.5t-57.5 -73.5t-46.5 -105t-33.5 -132l-8 -47h-69l6 36q28 158 94 250.5t157 103.5v2h-283l9 52h307z" />
    <glyph glyph-name="eight.dnom" horiz-adv-x="383" 
d="M231 254q50 -7 76.5 -34.5t26.5 -71.5q0 -71 -50 -112.5t-137 -41.5q-67 0 -103.5 29t-36.5 82q0 62 39.5 100.5t108.5 48.5v2q-45 0 -70 19.5t-25 54.5q0 55 45 87.5t122 32.5q63 0 96.5 -23.5t33.5 -65.5q0 -48 -34.5 -76.5t-91.5 -28.5v-2zM125 311q0 -29 17.5 -44.5
t49.5 -15.5q43 0 68 23.5t25 62.5q0 28 -17.5 43.5t-49.5 15.5q-42 0 -67.5 -23t-25.5 -62zM156 48q51 0 79.5 25.5t28.5 67.5q0 32 -20.5 49t-59.5 17q-50 0 -79 -25t-29 -68q0 -32 21 -49t59 -17z" />
    <glyph glyph-name="nine.dnom" horiz-adv-x="389" 
d="M228 450q67 0 99.5 -41t32.5 -116q0 -65 -16 -120t-45 -95t-70 -62t-91 -22q-58 0 -89 32t-31 89v10.5t1 11.5h64q-1 -5 -1 -8.5v-7.5q0 -35 16.5 -54t48.5 -19q51 0 87.5 47.5t51.5 133.5l9 50h-2q-10 -51 -48 -80t-97 -29q-55 0 -84 28t-29 78q0 40 14.5 72.5t40 55
t61 34.5t77.5 12zM187 222q51 0 81.5 25.5t30.5 71.5q0 36 -22 56.5t-58 20.5q-53 0 -83.5 -28.5t-30.5 -76.5q0 -33 21.5 -51t60.5 -18zM302 310q0 -2 -0.5 -3.5t-0.5 -3.5z" />
    <glyph glyph-name="zero.numr" horiz-adv-x="401" 
d="M210 302q-64 0 -98 45t-34 125q0 63 15.5 115.5t43 90.5t66.5 59t87 21q65 0 99 -45t34 -125q0 -63 -15.5 -115.5t-43 -90.5t-67 -59t-87.5 -21zM219 356q31 0 56 18t43 49t27.5 73t9.5 89q0 56 -18.5 87.5t-55.5 31.5q-30 0 -55 -18t-43 -49t-27.5 -72.5t-9.5 -89.5
q0 -56 19 -87.5t54 -31.5z" />
    <glyph glyph-name="one.numr" horiz-adv-x="227" 
d="M256 752l-78 -444h-66l75 423h-2q-8 -47 -35 -72.5t-67 -25.5l10 57q41 0 66.5 16.5t30.5 45.5h66z" />
    <glyph glyph-name="two.numr" horiz-adv-x="369" 
d="M72 360h291l-9 -52h-316l9 49q65 19 117 48t88.5 64.5t56 76.5t19.5 85q0 34 -16.5 53.5t-47.5 19.5q-39 0 -67 -28.5t-39 -79.5h-64q18 77 64.5 119.5t114.5 42.5q62 0 94 -31.5t32 -88.5q0 -54 -22.5 -100t-65 -82t-103 -60t-136.5 -34v-2z" />
    <glyph glyph-name="three.numr" horiz-adv-x="368" 
d="M234 559q66 0 101.5 -27.5t35.5 -77.5q0 -70 -49.5 -111t-135.5 -41q-61 0 -94.5 31.5t-33.5 88.5q0 6 0.5 12t1.5 13h63q0 -5 -0.5 -9t-0.5 -9q0 -35 19 -54.5t55 -19.5q49 0 77.5 25t28.5 67q0 30 -21.5 47.5t-61.5 17.5h-12l8 48q52 5 81.5 28.5t29.5 60.5
q0 26 -18 41t-50 15q-36 0 -62 -24.5t-36 -68.5h-62q17 69 62.5 107.5t112.5 38.5q60 0 92 -23.5t32 -62.5q0 -52 -43.5 -81.5t-119.5 -29.5v-2v0z" />
    <glyph glyph-name="four.numr" horiz-adv-x="373" 
d="M385 418h-59l-19 -110h-66l19 110h-212l10 56l204 278h123l-50 -282h59zM119 470h152l49 276h-2l-199 -274v-2z" />
    <glyph glyph-name="five.numr" horiz-adv-x="369" 
d="M192 302q-63 0 -97.5 31.5t-34.5 88.5v11h64q0 -36 20 -56.5t57 -20.5q52 0 82.5 31.5t30.5 85.5q0 37 -19.5 57.5t-57.5 20.5q-36 0 -61.5 -19t-40.5 -49l-62 8l81 261h245l-9 -52h-187l-67 -206h2q18 51 54.5 79t86.5 28q51 0 78 -30t27 -83q0 -85 -52 -135.5
t-140 -50.5z" />
    <glyph glyph-name="six.numr" horiz-adv-x="391" 
d="M355 627v10q0 67 -67 67q-51 0 -87 -47.5t-52 -133.5l-7 -44h2q10 54 47.5 84.5t97.5 30.5q55 0 84 -29t29 -80q0 -42 -14.5 -76t-40 -57.5t-61 -36.5t-77.5 -13q-66 0 -99.5 40.5t-33.5 117.5q0 65 15.5 119.5t44.5 94.5t70 62t91 22q59 0 90.5 -30t31.5 -84v-17h-64z
M250 542q-52 0 -82 -27.5t-30 -77.5q0 -38 21 -59.5t57 -21.5q54 0 85 31t31 82q0 35 -21.5 54t-60.5 19z" />
    <glyph glyph-name="seven.numr" horiz-adv-x="326" 
d="M405 752l-9 -49q-35 -9 -66.5 -37.5t-57.5 -73.5t-46.5 -105t-33.5 -132l-8 -47h-69l6 36q28 158 94 250.5t157 103.5v2h-283l9 52h307z" />
    <glyph glyph-name="eight.numr" horiz-adv-x="383" 
d="M285 562q50 -7 76.5 -34.5t26.5 -71.5q0 -71 -50 -112.5t-137 -41.5q-67 0 -103.5 29t-36.5 82q0 62 39.5 100.5t108.5 48.5v2q-45 0 -70 19.5t-25 54.5q0 55 45 87.5t122 32.5q63 0 96.5 -23.5t33.5 -65.5q0 -48 -34.5 -76.5t-91.5 -28.5v-2zM179 619q0 -29 17.5 -44.5
t49.5 -15.5q43 0 68 23.5t25 62.5q0 28 -17.5 43.5t-49.5 15.5q-42 0 -67.5 -23t-25.5 -62zM210 356q51 0 79.5 25.5t28.5 67.5q0 32 -20.5 49t-59.5 17q-50 0 -79 -25t-29 -68q0 -32 21 -49t59 -17z" />
    <glyph glyph-name="nine.numr" horiz-adv-x="389" 
d="M282 758q67 0 99.5 -41t32.5 -116q0 -65 -16 -120t-45 -95t-70 -62t-91 -22q-58 0 -89 32t-31 89v10.5t1 11.5h64q-1 -5 -1 -8.5v-7.5q0 -35 16.5 -54t48.5 -19q51 0 87.5 47.5t51.5 133.5l9 50h-2q-10 -51 -48 -80t-97 -29q-55 0 -84 28t-29 78q0 40 14.5 72.5t40 55
t61 34.5t77.5 12zM241 530q51 0 81.5 25.5t30.5 71.5q0 36 -22 56.5t-58 20.5q-53 0 -83.5 -28.5t-30.5 -76.5q0 -33 21.5 -51t60.5 -18zM356 618q0 -2 -0.5 -3.5t-0.5 -3.5z" />
    <glyph glyph-name="backslash.case" horiz-adv-x="364" 
d="M288 -16l-46 -14l-123 786l46 14z" />
    <glyph glyph-name="exclamdown.case" horiz-adv-x="271" 
d="M172 740h100l-17 -95h-99zM227 547l-91 -547h-86l101 547h76z" />
    <glyph glyph-name="questiondown.case" horiz-adv-x="536" 
d="M318 645l17 95h99l-16 -95h-100zM504 228q-26 -113 -99 -175.5t-179 -62.5q-94 0 -144.5 45t-50.5 124q0 45 19.5 93t55 97.5t86.5 99.5t114 98h81v-2q-60 -50 -109 -99.5t-83.5 -97t-53 -92t-18.5 -82.5q0 -51 31 -81t88 -30q67 0 114 43.5t66 121.5h82z" />
    <glyph glyph-name="slash.case" horiz-adv-x="375" 
d="M429 756l-399 -786l-41 14l400 786z" />
    <glyph glyph-name="numbersign.osf" horiz-adv-x="590" 
d="M468 371l-48 -162h101l-12 -38h-100l-50 -171h-48l48 171h-187l-49 -171h-48l50 171h-104l12 38h104l47 162h-100l11 38h101l44 151h48l-45 -151h187l45 151h48l-44 -151h104l-11 -38h-104zM420 371h-189l-48 -162h190z" />
    <glyph glyph-name="braceleft.case" horiz-adv-x="276" 
d="M198 688q8 46 43 74t83 28l-7 -43q-27 0 -47 -18t-25 -47l-38 -210q-14 -75 -85 -103q51 -22 51 -77v-11t-2 -14l-36 -209l-1.5 -7.5t-0.5 -6.5q0 -23 13.5 -37t37.5 -14l-8 -43q-43 0 -67.5 22t-24.5 60v8t2 12l37 209q1 5 1.5 10.5t0.5 10.5q0 32 -19.5 48.5
t-54.5 16.5l8 45q42 0 68 22t34 64l37 210v0z" />
    <glyph glyph-name="braceright.case" horiz-adv-x="276" 
d="M195 457q0 -32 19.5 -48.5t54.5 -16.5l-8 -45q-42 0 -68 -22t-34 -64l-37 -209q-8 -46 -43 -74t-84 -28l8 43q27 0 47.5 18t25.5 47l37 209q7 38 28.5 63.5t55.5 39.5q-50 21 -50 77v11t2 14l37 210q1 5 1 7.5v6.5q0 23 -13.5 37t-37.5 14l7 43q43 0 68 -22t25 -60v-9.5
t-2 -10.5l-37 -210q-2 -8 -2 -12v-9z" />
    <glyph glyph-name="bracketleft.case" horiz-adv-x="307" 
d="M230 747l-132 -754h140l-8 -43h-188l148 840h188l-7 -43h-141z" />
    <glyph glyph-name="bracketright.case" horiz-adv-x="308" 
d="M161 -50h-188l8 43h140l132 754h-139l7 43h188z" />
    <glyph glyph-name="parenleft.case" horiz-adv-x="265" 
d="M185 -33l-42 -27q-20 36 -35 77t-24.5 83t-14 84.5t-4.5 82.5q0 131 53 264t177 269l32 -27q-59 -65 -99.5 -129.5t-65.5 -127.5t-36.5 -125t-11.5 -120q0 -36 4 -75t12.5 -79t22 -78t32.5 -72z" />
    <glyph glyph-name="parenright.case" horiz-adv-x="264" 
d="M-19 -33q58 64 99 128.5t66 128t36.5 125.5t11.5 121q0 36 -4 75t-12.5 78.5t-22.5 77.5t-33 72l42 27q42 -73 60.5 -160t18.5 -167q0 -131 -53.5 -264t-177.5 -269z" />
    <glyph glyph-name="emdash.case" horiz-adv-x="872" 
d="M823 381l-7 -39h-730l6 39h731z" />
    <glyph glyph-name="endash.case" horiz-adv-x="587" 
d="M538 381l-6 -39h-446l6 39h446z" />
    <glyph glyph-name="hyphen.case" horiz-adv-x="409" 
d="M360 381l-7 -39h-267l6 39h268z" />
    <glyph glyph-name="uni00AD.case" horiz-adv-x="409" 
d="M360 381l-7 -39h-267l6 39h268z" />
    <glyph glyph-name="guillemotleft.case" horiz-adv-x="455" 
d="M231 553h50l-160 -193l92 -193h-50l-94 193zM391 553h51l-160 -193l92 -193h-51l-94 193z" />
    <glyph glyph-name="guillemotright.case" horiz-adv-x="456" 
d="M104 167h-50l160 193l-92 193h50l94 -193zM264 167h-50l160 193l-92 193h50l94 -193z" />
    <glyph glyph-name="guilsinglleft.case" horiz-adv-x="294" 
d="M231 553h50l-160 -193l92 -193h-50l-94 193z" />
    <glyph glyph-name="guilsinglright.case" horiz-adv-x="295" 
d="M104 167h-50l160 193l-92 193h50l94 -193z" />
    <glyph glyph-name="cent.osf" horiz-adv-x="555" 
d="M283 60q49 6 85.5 35.5t57.5 79.5h83q-30 -82 -91.5 -129.5t-146.5 -54.5l-18 -101h-46l18 101q-88 5 -134 58.5t-46 144.5q0 67 19 122.5t54.5 96t85 64.5t111.5 27l16 93h46l-16 -93q78 -6 122 -50.5t49 -122.5h-82q-6 45 -31 72t-70 33zM130 203q0 -63 27 -100t80 -44
l66 378q-39 -4 -71 -22.5t-54.5 -49.5t-35 -72t-12.5 -90z" />
    <glyph glyph-name="dollar.osf" horiz-adv-x="554" 
d="M438 384q1 5 1.5 10t0.5 10q0 45 -25.5 71.5t-72.5 31.5l-32 -182q33 -5 66.5 -12.5t60.5 -21.5t43.5 -38t16.5 -62q0 -88 -65 -140.5t-180 -57.5l-14 -81h-46l14 81q-86 5 -132.5 49t-46.5 121v13.5t2 14.5h78q-1 -5 -1 -9v-9q0 -50 29 -80t83 -35l36 206
q-32 5 -62.5 12t-55.5 20t-40 35t-15 57q0 84 60.5 132t166.5 53l14 80h46l-14 -80q79 -5 121.5 -47.5t42.5 -114.5q0 -6 -0.5 -12.5t-1.5 -14.5h-78zM164 405q0 -35 29.5 -50t72.5 -22l31 175q-63 -4 -98 -31t-35 -72zM415 173q0 21 -9.5 35t-25 23.5t-37 15.5t-45.5 10
l-34 -199q70 5 110.5 34.5t40.5 80.5z" />
    <glyph glyph-name="Euro.osf" horiz-adv-x="559" 
d="M393 509q-73 0 -125.5 -43t-76.5 -118h231l-26 -36h-214q-2 -13 -4 -27t-3 -28h180l-26 -35h-155q2 -77 37.5 -121t101.5 -44q33 0 74 13t78 41l24 -55q-42 -31 -93 -47.5t-94 -16.5q-103 0 -156.5 59.5t-53.5 167.5v3h-56l6 34h51q2 14 3.5 28t3.5 28h-48l6 35h51
q29 106 105.5 166.5t189.5 60.5q43 0 84.5 -11.5t70.5 -33.5l-43 -57q-23 19 -56 28t-67 9z" />
    <glyph glyph-name="sterling.osf" horiz-adv-x="527" 
d="M428 387q1 5 1.5 10.5t0.5 10.5q0 48 -27 74.5t-78 26.5q-61 0 -96 -29.5t-35 -81.5q0 -27 9 -55.5t16 -56.5h178l-8 -40h-163v-7q0 -24 -9.5 -47.5t-31.5 -45.5t-58.5 -42.5t-91.5 -38.5v-1h420l-12 -64h-436l10 61q38 22 62 45t38 46t19.5 44t5.5 38q0 8 -1 12h-81
l8 40h66q-8 27 -16 55.5t-8 56.5q0 40 15.5 72.5t45 55.5t71 35.5t94.5 12.5q82 0 126.5 -40.5t44.5 -115.5v-14t-2 -17h-77z" />
    <glyph glyph-name="yen.osf" horiz-adv-x="579" 
d="M369 220h107l-5 -33h-124l-31 -46h147l-7 -35h-163l-71 -106h-90l70 106h-127l6 35h144l31 46h-167l6 33h102l-110 345h95l104 -340h2l224 340h88z" />
    <glyph glyph-name="plus.case" horiz-adv-x="458" 
d="M434 332h-168l-30 -171h-46l30 171h-168l7 40h167l30 171h47l-30 -171h169z" />
    <glyph glyph-name="minus.case" horiz-adv-x="524" 
d="M92 372h382l-7 -40h-383z" />
    <glyph glyph-name="multiply.case" horiz-adv-x="467" 
d="M281 346l122 -148l-37 -32l-123 149l-175 -149l-25 31l175 149l-123 148l37 32l123 -149l175 149l25 -32z" />
    <glyph glyph-name="divide.case" horiz-adv-x="517" 
d="M295 462q-28 0 -28 26q0 18 11 28.5t29 10.5q29 0 29 -27q0 -17 -10.5 -27.5t-30.5 -10.5zM89 372h382l-7 -40h-382zM245 177q-28 0 -28 25q0 18 10.5 29t29.5 11q14 0 21.5 -7.5t7.5 -19.5q0 -38 -41 -38z" />
    <glyph glyph-name="equal.case" horiz-adv-x="522" 
d="M103 443h382l-7 -40h-383zM78 301h382l-7 -40h-383z" />
    <glyph glyph-name="notequal.case" horiz-adv-x="522" 
d="M324 403l-47 -102h183l-7 -40h-195l-75 -161h-44l75 161h-144l8 40h155l47 102h-185l8 40h196l71 152h44l-71 -152h142l-7 -40h-154z" />
    <glyph glyph-name="greater.case" horiz-adv-x="472" 
d="M452 355l-8 -41l-398 -161l8 44l391 154l1 2l-337 156l7 44l342 -162z" />
    <glyph glyph-name="less.case" horiz-adv-x="473" 
d="M63 353l-1 -2l337 -154l-8 -44l-341 161l6 36l8 41l397 162l-7 -44z" />
    <glyph glyph-name="greaterequal.case" horiz-adv-x="534" 
d="M497 423l-8 -40l-406 -140l7 44l400 132l1 2l-353 135l7 44l358 -141zM66 152h382l-6 -40h-382z" />
    <glyph glyph-name="lessequal.case" horiz-adv-x="537" 
d="M110 421l-1 -2l353 -132l-7 -44l-358 140l6 35l8 41l407 141l-8 -44zM57 152h382l-7 -40h-383z" />
    <glyph glyph-name="plusminus.case" horiz-adv-x="521" 
d="M486 437l-8 -40h-168l-28 -159h-46l28 159h-168l7 40h168l28 160h46l-28 -160h169zM54 152h382l-7 -40h-383z" />
    <glyph glyph-name="logicalnot.case" horiz-adv-x="510" 
d="M469 437l-30 -174h-46l23 135h-336l7 39h382z" />
    <glyph glyph-name="percent.osf" horiz-adv-x="670" 
d="M589 575l27 -22l-522 -563l-27 23zM174 263q-51 0 -77.5 31t-26.5 88q0 43 11 78.5t32 61t50.5 39.5t65.5 14q51 0 77.5 -31.5t26.5 -87.5q0 -43 -11 -78.5t-32 -61t-50.5 -39.5t-65.5 -14zM182 312q20 0 36.5 10.5t28 29t18 44t6.5 54.5q0 35 -13 55.5t-38 20.5
q-20 0 -36 -10.5t-27.5 -29t-18 -43.5t-6.5 -55q0 -35 13 -55.5t37 -20.5zM453 -10q-51 0 -77 31.5t-26 87.5q0 43 11 78.5t31.5 61t50 40t66.5 14.5q51 0 77 -31.5t26 -87.5q0 -43 -11 -79t-32 -61.5t-50.5 -39.5t-65.5 -14zM462 39q20 0 36.5 10.5t28 29t18 44t6.5 54.5
q0 35 -13.5 55.5t-37.5 20.5q-20 0 -36 -10.5t-27.5 -29t-18 -43.5t-6.5 -55q0 -35 13 -55.5t37 -20.5z" />
    <glyph glyph-name="perthousand.osf" horiz-adv-x="956" 
d="M589 575l27 -22l-522 -563l-27 23zM174 263q-51 0 -77.5 31t-26.5 88q0 43 11 78.5t32 61t50.5 39.5t65.5 14q51 0 77.5 -31.5t26.5 -87.5q0 -43 -11 -78.5t-32 -61t-50.5 -39.5t-65.5 -14zM182 312q20 0 36.5 10.5t28 29t18 44t6.5 54.5q0 35 -13 55.5t-38 20.5
q-20 0 -36 -10.5t-27.5 -29t-18 -43.5t-6.5 -55q0 -35 13 -55.5t37 -20.5zM453 -10q-51 0 -77 31.5t-26 87.5q0 43 11 78.5t31.5 61t50 40t66.5 14.5q51 0 77 -31.5t26 -87.5q0 -43 -11 -79t-32 -61.5t-50.5 -39.5t-65.5 -14zM749 -10q-51 0 -77 31.5t-26 87.5q0 43 11 78.5
t31.5 61t50 40t65.5 14.5q51 0 77.5 -31.5t26.5 -87.5q0 -43 -11 -79t-32 -61.5t-50.5 -39.5t-65.5 -14zM462 39q20 0 36.5 10.5t28 29t18 44t6.5 54.5q0 35 -13.5 55.5t-37.5 20.5q-20 0 -36 -10.5t-27.5 -29t-18 -43.5t-6.5 -55q0 -35 13 -55.5t37 -20.5zM758 39
q20 0 36.5 10.5t28 29t18 44t6.5 54.5q0 35 -13.5 55.5t-38.5 20.5q-20 0 -36 -10.5t-27 -29t-17.5 -43.5t-6.5 -55q0 -35 13 -55.5t37 -20.5z" />
    </font>
</defs>
</svg>
