<?xml version="1.0" standalone="no"?>
<!DOCTYPE svg PUBLIC "-//W3C//DTD SVG 1.1//EN" "http://www.w3.org/Graphics/SVG/1.1/DTD/svg11.dtd" >
<svg xmlns="http://www.w3.org/2000/svg" xmlns:xlink="http://www.w3.org/1999/xlink" version="1.1">
<metadata>
Created by FontForge 20201107 at Fri Aug  4 06:24:49 2023
 By 
Copyright (c) 2017 by Alberto Romanos. All rights reserved.
</metadata>
<defs>
<font id="SVN-AlphaCreative-Medium" horiz-adv-x="609" >
  <font-face 
    font-family="SVN-AlphaCreative Medium"
    font-weight="500"
    font-stretch="normal"
    units-per-em="1000"
    panose-1="0 0 6 0 0 0 0 0 0 0"
    ascent="800"
    descent="-200"
    x-height="498"
    cap-height="740"
    bbox="-737 -240 1220 1218"
    underline-thickness="50"
    underline-position="-100"
    unicode-range="U+000D-FB02"
  />
<missing-glyph horiz-adv-x="1274" 
d="M846 -3q-7 -7 -17 -7q-14 0 -17 7.5t-3 15.5v324l-339 -340q-7 -7 -17 -7q-14 0 -17 7.5t-3 15.5v324l-340 -340q-7 -7 -17 -7q-8 0 -12.5 5t-4.5 13q0 10 5 15l342 341h-324q-8 0 -15.5 3t-7.5 16q0 5 2 8.5t5 7.5l340 342h-327q-20 0 -20 19v1q0 19 20 19h370
q8 0 15.5 -3t7.5 -17q0 -10 -8 -17l-341 -340h330q8 0 14 -6t6 -14v-327l339 338q7 8 17 8q13 0 15.5 -7.5t2.5 -14.5v-324l340 338q6 8 16 8q8 0 12.5 -5.5t4.5 -13.5q0 -3 -1 -7t-5 -7z" />
    <glyph glyph-name="fi" unicode="fi" horiz-adv-x="621" 
d="M547 497v-497h-100v425h-243v-425h-100v425h-79v73h167v2q-45 17 -70 49.5t-25 76.5q0 73 48 113.5t135 40.5q53 0 96 -19l-13 -76q-27 14 -60 14q-53 0 -79.5 -26.5t-26.5 -74.5v-100h351zM547 602h-100v113h100v-113z" />
    <glyph glyph-name="fl" unicode="fl" horiz-adv-x="625" 
d="M303 699q-53 0 -79.5 -26.5t-26.5 -74.5v-100h169v-73h-162v-425h-100v425h-79v73h167v2q-45 17 -70 49.5t-25 76.5q0 73 48 113.5t135 40.5q53 0 96 -19l-13 -76q-27 14 -60 14zM552 770v-770h-100v770h100z" />
    <glyph glyph-name="f_f" unicode="ff" horiz-adv-x="706" 
d="M630 699q-53 0 -79.5 -26.5t-26.5 -74.5v-100h169v-73h-162v-425h-100v425h-227v-425h-100v425h-79v73h167v2q-45 17 -70 49.5t-25 76.5q0 73 48 113.5t135 40.5q53 0 96 -19l-13 -76q-27 14 -60 14q-53 0 -79.5 -26.5t-26.5 -74.5v-100h322v2q-45 17 -70 49.5t-25 76.5
q0 73 48 113.5t135 40.5q61 0 107 -23l-14 -76q-32 18 -70 18z" />
    <glyph glyph-name="f_f_i" unicode="ffi" horiz-adv-x="948" 
d="M875 497v-497h-100v425h-243v-425h-100v425h-228v-425h-100v425h-79v73h167v2q-45 17 -70 49.5t-25 76.5q0 73 48 113.5t135 40.5q53 0 96 -19l-13 -76q-27 14 -60 14q-53 0 -79.5 -26.5t-26.5 -74.5v-100h323v2q-45 17 -70 49.5t-25 76.5q0 73 48 113.5t135 40.5
q53 0 96 -19l-13 -76q-27 14 -60 14q-53 0 -79.5 -26.5t-26.5 -74.5v-100h351zM875 602h-100v113h100v-113z" />
    <glyph glyph-name="f_f_l" unicode="ffl" horiz-adv-x="952" 
d="M630 699q-53 0 -79.5 -26.5t-26.5 -74.5v-100h169v-73h-162v-425h-100v425h-227v-425h-100v425h-79v73h167v2q-45 17 -70 49.5t-25 76.5q0 73 48 113.5t135 40.5q53 0 96 -19l-13 -76q-27 14 -60 14q-53 0 -79.5 -26.5t-26.5 -74.5v-100h322v2q-45 17 -70 49.5t-25 76.5
q0 73 48 113.5t135 40.5q53 0 96 -19l-13 -76q-27 14 -60 14zM879 770v-770h-100v770h100z" />
    <glyph glyph-name=".notdef" horiz-adv-x="1274" 
d="M846 -3q-7 -7 -17 -7q-14 0 -17 7.5t-3 15.5v324l-339 -340q-7 -7 -17 -7q-14 0 -17 7.5t-3 15.5v324l-340 -340q-7 -7 -17 -7q-8 0 -12.5 5t-4.5 13q0 10 5 15l342 341h-324q-8 0 -15.5 3t-7.5 16q0 5 2 8.5t5 7.5l340 342h-327q-20 0 -20 19v1q0 19 20 19h370
q8 0 15.5 -3t7.5 -17q0 -10 -8 -17l-341 -340h330q8 0 14 -6t6 -14v-327l339 338q7 8 17 8q13 0 15.5 -7.5t2.5 -14.5v-324l340 338q6 8 16 8q8 0 12.5 -5.5t4.5 -13.5q0 -3 -1 -7t-5 -7z" />
    <glyph glyph-name=".null" horiz-adv-x="0" 
 />
    <glyph glyph-name="nonmarkingreturn" unicode="&#xd;" horiz-adv-x="230" 
 />
    <glyph glyph-name="space" unicode=" " horiz-adv-x="230" 
 />
    <glyph glyph-name="exclam" unicode="!" horiz-adv-x="271" 
d="M84 740h104l-5 -534h-94zM194 111v-111h-117v111h117z" />
    <glyph glyph-name="quotedbl" unicode="&#x22;" horiz-adv-x="360" 
d="M152 770v-213h-93v213h93zM301 770v-213h-93v213h93z" />
    <glyph glyph-name="numbersign" unicode="#" horiz-adv-x="679" 
d="M510 505l-25 -246h128l-5 -42h-127l-22 -217h-48l22 217h-227l-22 -217h-48l23 217h-125l4 42h125l26 246h-123l4 42h124l20 193h48l-19 -193h224l19 193h48l-20 -193h131l-4 -42h-131zM463 505h-224l-28 -245h226z" />
    <glyph glyph-name="dollar" unicode="$" horiz-adv-x="656" 
d="M620 216q0 -103 -70.5 -161.5t-198.5 -64.5v-102h-47v103q-120 6 -191 75t-79 190h104q5 -78 48.5 -124.5t117.5 -54.5v264q-45 7 -89.5 17t-80 30.5t-57.5 55.5t-22 92q0 100 65.5 154.5t183.5 59.5v100h47v-101q110 -7 175 -73t73 -180h-103q-4 72 -42 115t-103 51
v-235q47 -8 95 -18t86.5 -31.5t63 -60t24.5 -101.5zM161 543q0 -27 11 -45.5t30.5 -31t45.5 -20t56 -12.5v229q-68 -4 -105.5 -35t-37.5 -85zM351 77q78 4 120 37.5t42 92.5q0 33 -13 55t-35 36t-51.5 22t-62.5 14v-257z" />
    <glyph glyph-name="percent" unicode="%" horiz-adv-x="725" 
d="M588 750l34 -25l-483 -735l-34 25zM183 360q-69 0 -107 48.5t-38 136.5t38 136.5t107 48.5t107 -48.5t38 -136.5t-38 -136.5t-107 -48.5zM183 422q32 0 49.5 32t17.5 91t-17.5 91t-49.5 32t-49.5 -32t-17.5 -91t17.5 -91t49.5 -32zM543 -10q-69 0 -107 48.5t-38 136.5
t38 136.5t107 48.5t107 -48.5t38 -136.5t-38 -136.5t-107 -48.5zM543 52q32 0 49.5 32t17.5 91t-17.5 91t-49.5 32t-49.5 -32t-17.5 -91t17.5 -91t49.5 -32z" />
    <glyph glyph-name="ampersand" unicode="&#x26;" horiz-adv-x="805" 
d="M729 -10l-141 125q-58 -61 -129 -93t-153 -32q-125 0 -194.5 56.5t-69.5 154.5q0 60 23 100t59 67.5t80.5 45.5t88.5 33q11 4 21.5 8t21.5 8q-103 0 -163.5 35.5t-60.5 95.5q0 74 59.5 115t167.5 41q106 0 165.5 -44.5t59.5 -125.5q0 -43 -19 -73.5t-50 -53t-70.5 -39.5
t-79.5 -33q-38 -15 -73 -30t-63 -35.5t-44.5 -48t-16.5 -66.5q0 -58 43.5 -91.5t121.5 -33.5q63 0 118.5 26t100.5 75t78.5 120t53.5 161l82 -26q-17 -74 -43 -135.5t-60 -112.5l145 -128zM215 572q0 -49 34.5 -78t91.5 -29l-1 -1q25 10 46 20.5t37 23t25 28.5t9 37
q0 44 -31 67.5t-87 23.5q-59 0 -91.5 -23.5t-32.5 -68.5z" />
    <glyph glyph-name="quotesingle" unicode="'" horiz-adv-x="211" 
d="M152 770v-213h-93v213h93z" />
    <glyph glyph-name="parenleft" unicode="(" horiz-adv-x="271" 
d="M258 -215l-39 -25q-92 121 -132.5 250.5t-40.5 259.5t40.5 259.5t132.5 250.5l39 -25q-44 -57 -75 -118t-50.5 -123t-28 -124t-8.5 -120t8.5 -119.5t28 -124t50.5 -123.5t75 -118z" />
    <glyph glyph-name="parenright" unicode=")" horiz-adv-x="271" 
d="M13 -215q44 57 75 118t50.5 123.5t28 124t8.5 119.5t-8.5 120t-28 124t-50.5 123t-75 118l39 25q92 -121 132.5 -250.5t40.5 -259.5t-40.5 -259.5t-132.5 -250.5z" />
    <glyph glyph-name="asterisk" unicode="*" horiz-adv-x="384" 
d="M285 599q-45 0 -88 26l-3 -2l80 -110l-51 -38q-26 37 -32 75q-4 18 -3.5 36t3.5 38v-1l-2 1l-81 -110l-51 37q18 27 43.5 44t54.5 24q17 6 34 9h-1v2l-130 43l19 60q80 -24 114 -103v3h2v137h64q0 -81 -61 -140l1 1v-2l130 41l20 -60q-33 -11 -62 -11z" />
    <glyph glyph-name="plus" unicode="+" horiz-adv-x="472" 
d="M432 231h-173v-175h-47v175h-172v42h171v175h48v-175h173v-42z" />
    <glyph glyph-name="comma" unicode="," horiz-adv-x="238" 
d="M182 111v-93q0 -66 -31 -111.5t-87 -60.5v60q48 9 76 34t35 60h-110v111h117z" />
    <glyph glyph-name="hyphen" unicode="-" horiz-adv-x="410" 
d="M345 274v-42h-281v42h281z" />
    <glyph glyph-name="period" unicode="." horiz-adv-x="241" 
d="M179 111v-111h-117v111h117z" />
    <glyph glyph-name="slash" unicode="/" horiz-adv-x="409" 
d="M383 785l-313 -925l-44 15l312 925z" />
    <glyph glyph-name="zero" unicode="0" horiz-adv-x="654" 
d="M327 -10q-65 0 -116 26t-86.5 74.5t-54 119t-18.5 160.5t18.5 160.5t54 119t86.5 74.5t116 26t116 -26t86 -74.5t53.5 -119t18.5 -160.5t-18.5 -160.5t-53.5 -119t-86 -74.5t-116 -26zM327 76q79 0 123 77t44 217t-44 217t-123 77t-123 -77t-44 -217t44 -217t123 -77z
" />
    <glyph glyph-name="one" unicode="1" horiz-adv-x="363" 
d="M272 740v-740h-104v706h-2q0 -76 -37.5 -118t-104.5 -42v91q69 0 106.5 27.5t37.5 75.5h104z" />
    <glyph glyph-name="two" unicode="2" horiz-adv-x="607" 
d="M564 83v-83h-523v78q93 28 166 71t123.5 98t77 120t26.5 137q0 75 -36 117.5t-100 42.5q-66 0 -104.5 -48t-43.5 -135h-101q7 128 73 198.5t179 70.5q116 0 180 -65.5t64 -183.5q0 -83 -31.5 -153t-91 -123.5t-146 -89t-196.5 -50.5v-2h484z" />
    <glyph glyph-name="three" unicode="3" horiz-adv-x="606" 
d="M299 417q121 0 189.5 -55t68.5 -154q0 -103 -69.5 -160.5t-194.5 -57.5q-113 0 -179 63.5t-73 178.5h101q3 -74 43 -115.5t109 -41.5q73 0 114 35t41 98t-43 98t-120 35h-20v78q76 8 118.5 42.5t42.5 88.5t-35.5 84.5t-98.5 30.5q-62 0 -98 -41.5t-41 -116.5h-99
q8 115 73 179t175 64t171 -45.5t61 -122.5q0 -78 -63.5 -120.5t-178.5 -42.5v-2h6v0z" />
    <glyph glyph-name="four" unicode="4" horiz-adv-x="613" 
d="M581 185h-96v-185h-105v185h-355v89l265 466h195v-472h96v-83zM123 270v-2h260v462h-2z" />
    <glyph glyph-name="five" unicode="5" horiz-adv-x="610" 
d="M303 -10q-110 0 -178 57.5t-80 160.5h103q10 -62 51 -97t104 -35q75 0 117 44t42 122t-41 121.5t-116 43.5q-62 0 -99 -32t-54 -83l-101 13l57 435h407v-83h-313l-49 -347h2q14 84 66.5 130.5t133.5 46.5q102 0 158.5 -63t56.5 -177q0 -121 -70.5 -189t-196.5 -68z" />
    <glyph glyph-name="six" unicode="6" horiz-adv-x="641" 
d="M370 476q106 0 164.5 -60t58.5 -169q0 -60 -19 -108t-54 -81t-84.5 -50.5t-110.5 -17.5q-136 0 -204.5 90.5t-68.5 270.5q0 94 19.5 168t56 125.5t89.5 78.5t121 27q105 0 167.5 -57.5t70.5 -160.5h-102q-6 63 -41.5 97.5t-94.5 34.5q-86 0 -133 -81t-47 -226v-72h2
q0 90 55 140.5t155 50.5zM322 76q77 0 120 43t43 121q0 73 -43 113.5t-120 40.5q-76 0 -118.5 -39t-42.5 -109q0 -39 12 -70.5t33.5 -53.5t51 -34t64.5 -12z" />
    <glyph glyph-name="seven" unicode="7" horiz-adv-x="542" 
d="M525 740v-78q-57 -15 -102 -62.5t-75.5 -122.5t-47 -175.5t-16.5 -222.5v-79h-110v62q0 131 21.5 236.5t62 182t98.5 121t132 53.5v2h-474v83h511z" />
    <glyph glyph-name="eight" unicode="8" horiz-adv-x="632" 
d="M380 422q97 -13 149.5 -67.5t52.5 -143.5q0 -105 -70 -163t-196 -58t-196 58t-70 163q0 89 52.5 143.5t148.5 67.5v2q-84 0 -130.5 39.5t-46.5 111.5q0 82 63.5 128.5t178.5 46.5t178.5 -46.5t63.5 -128.5q0 -71 -47 -111t-131 -40v-2zM181 541q0 -60 35.5 -92.5
t99.5 -32.5q63 0 99 32.5t36 92.5q0 58 -36 90.5t-99 32.5q-64 0 -99.5 -32.5t-35.5 -90.5zM316 76q75 0 116.5 35.5t41.5 99.5t-41.5 99.5t-116.5 35.5t-116.5 -35.5t-41.5 -99.5t41.5 -99.5t116.5 -35.5z" />
    <glyph glyph-name="nine" unicode="9" horiz-adv-x="640" 
d="M318 750q137 0 203.5 -92.5t66.5 -268.5q0 -94 -19.5 -168t-56 -125.5t-90 -78.5t-120.5 -27q-105 0 -167.5 63t-70.5 175h102q6 -72 41.5 -112t94.5 -40q85 0 132.5 81t47.5 226v82h-2q0 -85 -55.5 -133t-155.5 -48q-106 0 -164 57.5t-58 161.5q0 58 19.5 104t54.5 77.5
t85 48.5t112 17zM318 366q76 0 118.5 36t42.5 102q0 75 -45 117.5t-116 42.5q-77 0 -120 -40.5t-43 -113.5q0 -69 43 -106.5t120 -37.5z" />
    <glyph glyph-name="colon" unicode=":" horiz-adv-x="246" 
d="M182 504v-111h-117v111h117zM182 111v-111h-117v111h117z" />
    <glyph glyph-name="semicolon" unicode=";" horiz-adv-x="247" 
d="M182 393h-117v111h117v-111zM183 111v-93q0 -66 -31 -111.5t-87 -60.5v60q48 9 76 34t35 60h-110v111h117z" />
    <glyph glyph-name="less" unicode="&#x3c;" horiz-adv-x="473" 
d="M46 253v-2l368 -156v-46l-374 163v81l374 164v-46z" />
    <glyph glyph-name="equal" unicode="=" horiz-adv-x="525" 
d="M66 349h393v-42h-393v42zM66 197h393v-42h-393v42z" />
    <glyph glyph-name="greater" unicode="&#x3e;" horiz-adv-x="473" 
d="M433 293v-81l-374 -163v46l368 156v2l-368 158v46z" />
    <glyph glyph-name="question" unicode="?" horiz-adv-x="546" 
d="M28 511q6 113 69 176t170 63q111 0 172 -54.5t61 -151.5q0 -38 -14 -79.5t-40 -85t-64.5 -87.5t-86.5 -86h-97v2q91 86 141.5 172.5t50.5 155.5q0 60 -33 94t-93 34t-96 -40.5t-41 -112.5h-99zM300 111v-111h-116v111h116z" />
    <glyph glyph-name="at" unicode="@" horiz-adv-x="1125" 
d="M666 145q0 7 0.5 13.5t2.5 16.5l3 20h-2q-14 -78 -66.5 -120.5t-134.5 -42.5q-78 0 -119.5 48t-41.5 135q0 65 17 119t47.5 92.5t74.5 60t98 21.5q75 0 115 -33.5t40 -93.5q0 -8 -1 -17t-2 -19h2l27 153h97l-59 -327q-1 -6 -1 -10v-8q0 -25 15.5 -38.5t43.5 -13.5
q82 0 127.5 66.5t45.5 185.5q0 85 -27 151.5t-78.5 112.5t-125.5 70.5t-168 24.5q-111 0 -198 -33t-147.5 -96t-92.5 -153.5t-32 -205.5q0 -93 28.5 -166.5t82.5 -124.5t132 -78t177 -27q68 0 143.5 15t142.5 43l25 -65q-68 -29 -149.5 -45t-161.5 -16q-118 0 -211 31.5
t-157.5 91t-98.5 145.5t-34 196q0 131 37.5 234t108.5 174.5t173 109.5t232 38q113 0 202.5 -29t151 -84t94 -134.5t32.5 -179.5q0 -75 -18.5 -134.5t-54 -101t-86.5 -63t-115 -21.5q-66 0 -101 29t-35 83zM524 109q64 0 107.5 39.5t58.5 110.5l2 10l1 6q3 21 3 38
q0 56 -29.5 86.5t-85.5 30.5q-39 0 -71 -14t-54.5 -40t-34.5 -62t-12 -80q0 -59 29.5 -92t85.5 -33z" />
    <glyph glyph-name="A" unicode="A" horiz-adv-x="697" 
d="M515 186h-339l-58 -186h-107l246 740h185l244 -740h-113zM489 270l-142 460h-2l-143 -460h287z" />
    <glyph glyph-name="B" unicode="B" horiz-adv-x="685" 
d="M402 417q115 0 178 -53.5t63 -150.5q0 -101 -66 -157t-186 -56h-301v740h294q97 0 150 -44t53 -124q0 -72 -52.5 -112.5t-146.5 -40.5v-2h14zM479 537q0 57 -34 88.5t-95 31.5h-155v-238h155q61 0 95 30.5t34 87.5zM396 83q66 0 102.5 34.5t36.5 95.5q0 60 -36.5 94
t-102.5 34h-201v-258h201z" />
    <glyph glyph-name="C" unicode="C" horiz-adv-x="721" 
d="M682 275q-19 -134 -99.5 -209.5t-206.5 -75.5q-77 0 -137.5 26t-102.5 74.5t-64 119t-22 160.5t22 160.5t64 119t102.5 74.5t137.5 26q127 0 207 -74t99 -206h-100q-17 92 -71 143t-135 51q-103 0 -161 -77.5t-58 -216.5t58 -216.5t161 -77.5q81 0 135 52.5t71 146.5h100
v0z" />
    <glyph glyph-name="D" unicode="D" horiz-adv-x="721" 
d="M90 740h224q84 0 150.5 -25t112.5 -73t70.5 -116.5t24.5 -155.5t-24.5 -155.5t-70.5 -116.5t-112.5 -73t-150.5 -25h-224v740zM320 83q116 0 180 75.5t64 211.5t-64 211.5t-180 75.5h-125v-574h125z" />
    <glyph glyph-name="E" unicode="E" horiz-adv-x="634" 
d="M592 83v-83h-502v740h491v-83h-386v-234h351v-84h-351v-256h397z" />
    <glyph glyph-name="F" unicode="F" horiz-adv-x="572" 
d="M195 657v-242h301v-83h-301v-332h-105v740h458v-83h-353z" />
    <glyph glyph-name="G" unicode="G" horiz-adv-x="743" 
d="M684 386v-386h-98v267h-2q0 -131 -67.5 -204t-189.5 -73q-64 0 -115 26t-87 74.5t-55.5 119t-19.5 160.5t22.5 160.5t64.5 119t103 74.5t138 26q124 0 202.5 -72t97.5 -200h-100q-17 88 -69.5 137t-130.5 49q-105 0 -162.5 -77t-57.5 -217t56 -217t158 -77q98 0 153 62
t58 174h-221v74h322z" />
    <glyph glyph-name="H" unicode="H" horiz-adv-x="743" 
d="M653 740v-740h-105v334h-353v-334h-105v740h105v-323h353v323h105z" />
    <glyph glyph-name="I" unicode="I" horiz-adv-x="285" 
d="M90 740h105v-740h-105v740z" />
    <glyph glyph-name="J" unicode="J" horiz-adv-x="560" 
d="M371 215v525h105v-519q0 -109 -59.5 -170t-165.5 -61q-100 0 -159.5 68.5t-67.5 191.5h98q7 -82 41.5 -128t90.5 -46q55 0 86 36.5t31 102.5z" />
    <glyph glyph-name="K" unicode="K" horiz-adv-x="701" 
d="M708 0h-136l-379 381h-2v-381h-101v740h101v-350h2l350 350h127l-357 -354z" />
    <glyph glyph-name="L" unicode="L" horiz-adv-x="549" 
d="M530 86v-86h-440v740h105v-654h335z" />
    <glyph glyph-name="M" unicode="M" horiz-adv-x="970" 
d="M891 0h-105l-22 730h-2l-193 -730h-185l-182 730h-2l-22 -730h-99l23 740h203l174 -730h2l184 730h202z" />
    <glyph glyph-name="N" unicode="N" horiz-adv-x="743" 
d="M653 740v-740h-179l-285 730h-2l4 -730h-101v740h180l285 -730h2l-3 730h99z" />
    <glyph glyph-name="O" unicode="O" horiz-adv-x="757" 
d="M379 -10q-78 0 -139 26t-103 74.5t-64.5 119t-22.5 160.5t22.5 160.5t64.5 119t103 74.5t139 26q77 0 138 -26t103 -74.5t64.5 -119t22.5 -160.5t-22.5 -160.5t-64.5 -119t-103 -74.5t-138 -26zM379 76q104 0 162 77t58 217t-58 217t-162 77q-106 0 -164 -77t-58 -217
t58 -217t164 -77z" />
    <glyph glyph-name="P" unicode="P" horiz-adv-x="640" 
d="M352 740q121 0 188.5 -59.5t67.5 -166.5t-67.5 -167t-189.5 -60h-156v-287h-105v740h262zM357 371q68 0 106 37.5t38 105.5t-37.5 105.5t-105.5 37.5h-163v-286h162z" />
    <glyph glyph-name="Q" unicode="Q" horiz-adv-x="771" 
d="M740 83v-83h-361q-78 0 -139 25.5t-103 74t-64.5 118t-22.5 157.5t22.5 157.5t64.5 118t103 74t139 25.5q77 0 138 -24.5t103 -70.5t64.5 -110.5t22.5 -143.5q0 -75 -17.5 -133.5t-50.5 -99.5t-81 -62.5t-109 -21.5v-2zM157 374q0 -140 58.5 -217t163.5 -77q104 0 162 77
t58 217q0 137 -58 213.5t-162 76.5q-105 0 -163.5 -76.5t-58.5 -213.5z" />
    <glyph glyph-name="R" unicode="R" horiz-adv-x="678" 
d="M649 0h-118l-176 310h-160v-310h-105v740h272q125 0 194 -54.5t69 -151.5q0 -106 -68 -164t-190 -58v-2q46 0 88 -25t69 -73zM369 390q71 0 109.5 35.5t38.5 100.5q0 62 -39 96.5t-109 34.5h-174v-267h174z" />
    <glyph glyph-name="S" unicode="S" horiz-adv-x="669" 
d="M333 -10q-130 0 -207 69.5t-86 196.5h104q6 -85 56 -132.5t135 -47.5q88 0 136 34t48 97q0 38 -17 61.5t-45 37.5t-64.5 21t-75.5 13q-45 7 -91 16.5t-82.5 30t-59.5 55.5t-23 94q0 104 71.5 159t200.5 55q60 0 108.5 -17.5t83.5 -50t55.5 -79.5t24.5 -107h-103
q-5 80 -50.5 124t-122.5 44t-119.5 -31.5t-42.5 -89.5q0 -33 15.5 -53t42 -32t60.5 -18.5t71 -12.5q47 -8 95 -18t87 -31.5t63.5 -60t24.5 -101.5q0 -107 -77 -166.5t-216 -59.5z" />
    <glyph glyph-name="T" unicode="T" horiz-adv-x="589" 
d="M571 657h-224v-657h-105v657h-224v83h553v-83z" />
    <glyph glyph-name="U" unicode="U" horiz-adv-x="721" 
d="M539 740h99v-483q0 -126 -73 -196.5t-205 -70.5q-131 0 -204 70.5t-73 196.5v483h104v-489q0 -83 46 -129t130 -46q83 0 129.5 46t46.5 129v489z" />
    <glyph glyph-name="V" unicode="V" horiz-adv-x="668" 
d="M652 740l-223 -740h-190l-222 740h113l206 -730h2l207 730h107z" />
    <glyph glyph-name="W" unicode="W" horiz-adv-x="1030" 
d="M1004 740l-160 -740h-192l-137 730h-2l-135 -730h-193l-159 740h113l149 -730h2l138 730h177l140 -730h2l150 730h107z" />
    <glyph glyph-name="X" unicode="X" horiz-adv-x="664" 
d="M651 0h-128l-190 381h-2l-190 -381h-127l208 386l-184 354h118l175 -350h2l175 350h119l-185 -354z" />
    <glyph glyph-name="Y" unicode="Y" horiz-adv-x="676" 
d="M681 740l-365 -740h-114l137 283h-100l-225 457h121l216 -447h2l214 447h114z" />
    <glyph glyph-name="Z" unicode="Z" horiz-adv-x="676" 
d="M643 83v-83h-603v193l568 462v2h-554v83h566v-193l-568 -462v-2h591z" />
    <glyph glyph-name="bracketleft" unicode="[" horiz-adv-x="294" 
d="M134 726v-912h144v-44h-192v1000h192v-44h-144z" />
    <glyph glyph-name="backslash" unicode="\" horiz-adv-x="409" 
d="M383 -125l-44 -15l-313 925l45 15z" />
    <glyph glyph-name="bracketright" unicode="]" horiz-adv-x="294" 
d="M208 -230h-192v44h144v912h-144v44h192v-1000z" />
    <glyph glyph-name="asciicircum" unicode="^" horiz-adv-x="517" 
d="M482 353h-51l-171 361h-2l-171 -361h-52l175 367h97z" />
    <glyph glyph-name="underscore" unicode="_" horiz-adv-x="561" 
d="M525 -69v-41h-489v41h489z" />
    <glyph glyph-name="grave" unicode="`" horiz-adv-x="235" 
d="M224 641l-30 -55l-185 93l33 60z" />
    <glyph glyph-name="a" unicode="a" 
d="M535 498v-498h-100v166h-2q0 -83 -47.5 -129.5t-133.5 -46.5q-98 0 -152.5 68t-54.5 191t54.5 191t152.5 68q86 0 133.5 -46.5t47.5 -129.5h2v166h100zM295 71q70 0 108.5 48.5t38.5 129.5t-38.5 129.5t-108.5 48.5t-108.5 -46.5t-38.5 -131.5t38.5 -131.5t108.5 -46.5z
" />
    <glyph glyph-name="b" unicode="b" 
d="M356 508q98 0 152.5 -68t54.5 -191t-54.5 -191t-152.5 -68q-85 0 -133 46.5t-48 129.5h-2v-166h-100v770h100v-438h2q0 83 48 129.5t133 46.5zM314 71q70 0 108.5 46.5t38.5 131.5t-38.5 131.5t-108.5 46.5t-109 -48.5t-39 -129.5t39 -129.5t109 -48.5z" />
    <glyph glyph-name="c" unicode="c" horiz-adv-x="563" 
d="M292 -10q-117 0 -182 68t-65 191t65 191t182 68q95 0 155.5 -47.5t77.5 -134.5h-99q-15 48 -49 74.5t-85 26.5q-69 0 -107 -46.5t-38 -131.5t38 -131.5t107 -46.5q54 0 88.5 28.5t47.5 82.5h100q-16 -92 -77 -142t-159 -50z" />
    <glyph glyph-name="d" unicode="d" 
d="M535 770v-770h-100v166h-2q0 -83 -47.5 -129.5t-133.5 -46.5q-98 0 -152.5 68t-54.5 191t54.5 191t152.5 68q86 0 133.5 -46.5t47.5 -129.5h2v438h100zM295 71q70 0 108.5 48.5t38.5 129.5t-38.5 129.5t-108.5 48.5t-108.5 -46.5t-38.5 -131.5t38.5 -131.5t108.5 -46.5z
" />
    <glyph glyph-name="e" unicode="e" horiz-adv-x="560" 
d="M516 235h-374q3 -79 39.5 -123t99.5 -44q55 0 91 28.5t46 79.5h98q-13 -88 -74.5 -137t-160.5 -49q-112 0 -174 68t-62 191t62 191t174 68t173.5 -68t61.5 -191v-14zM281 430q-60 0 -96 -40t-42 -113h274q-6 73 -41 113t-95 40z" />
    <glyph glyph-name="f" unicode="f" horiz-adv-x="379" 
d="M303 699q-53 0 -79.5 -26.5t-26.5 -74.5v-100h169v-73h-162v-425h-100v425h-79v73h167v2q-45 17 -70 49.5t-25 76.5q0 73 48 113.5t135 40.5q61 0 107 -23l-14 -76q-32 18 -70 18z" />
    <glyph glyph-name="g" unicode="g" 
d="M535 498v-508q0 -109 -63 -169.5t-178 -60.5q-101 0 -163 48t-72 134l95 13q5 -54 42 -84t98 -30q67 0 104 37.5t37 105.5v186h-2q0 -83 -47.5 -129.5t-133.5 -46.5q-98 0 -152.5 67.5t-54.5 189.5q0 121 54.5 189t152.5 68q86 0 133.5 -46.5t47.5 -129.5h2v166h100z
M295 75q70 0 108.5 47.5t38.5 128.5t-38.5 128.5t-108.5 47.5t-108.5 -46.5t-38.5 -129.5q0 -84 38.5 -130t108.5 -46z" />
    <glyph glyph-name="h" unicode="h" horiz-adv-x="588" 
d="M342 508q85 0 131.5 -53t46.5 -148v-307h-100v304q0 59 -30.5 91t-85.5 32q-62 0 -96.5 -41t-34.5 -115v-271h-100v770h100v-445h2q0 87 44 135t123 48z" />
    <glyph glyph-name="i" unicode="i" horiz-adv-x="246" 
d="M73 715h100v-113h-100v113zM73 498h100v-498h-100v498z" />
    <glyph glyph-name="j" unicode="j" horiz-adv-x="246" 
d="M73 715h100v-113h-100v113zM73 498h100v-728h-100v728z" />
    <glyph glyph-name="k" unicode="k" horiz-adv-x="559" 
d="M558 0h-127l-256 255h-2v-255h-100v770h100v-507h2l239 235h124l-249 -237z" />
    <glyph glyph-name="l" unicode="l" horiz-adv-x="246" 
d="M73 770h100v-770h-100v770z" />
    <glyph glyph-name="m" unicode="m" horiz-adv-x="914" 
d="M673 508q82 0 127.5 -51.5t45.5 -144.5v-312h-100v309q0 57 -29 87.5t-82 30.5q-60 0 -92.5 -39.5t-32.5 -111.5v-276h-100v309q0 57 -29 87.5t-82 30.5q-60 0 -93 -39.5t-33 -111.5v-276h-100v498h100v-169h2q0 85 43 132t121 47q81 0 126 -48.5t45 -130.5h2
q0 85 42.5 132t118.5 47z" />
    <glyph glyph-name="n" unicode="n" horiz-adv-x="588" 
d="M342 508q85 0 131.5 -53t46.5 -148v-307h-100v304q0 59 -30.5 91t-85.5 32q-62 0 -96.5 -41t-34.5 -115v-271h-100v498h100v-173h2q0 87 44 135t123 48z" />
    <glyph glyph-name="o" unicode="o" horiz-adv-x="588" 
d="M294 -10q-118 0 -183.5 68t-65.5 191t65.5 191t183.5 68t183.5 -68t65.5 -191t-65.5 -191t-183.5 -68zM294 71q70 0 108.5 46.5t38.5 131.5t-38.5 131.5t-108.5 46.5t-108.5 -46.5t-38.5 -131.5t38.5 -131.5t108.5 -46.5z" />
    <glyph glyph-name="p" unicode="p" 
d="M356 508q98 0 152.5 -68t54.5 -191t-54.5 -191t-152.5 -68q-85 0 -133 46.5t-48 129.5h-2v-396h-100v728h100v-166h2q0 83 48 129.5t133 46.5zM314 71q70 0 108.5 46.5t38.5 131.5t-38.5 131.5t-108.5 46.5t-109 -48.5t-39 -129.5t39 -129.5t109 -48.5z" />
    <glyph glyph-name="q" unicode="q" 
d="M535 498v-728h-100v396h-2q0 -83 -47.5 -129.5t-133.5 -46.5q-98 0 -152.5 68t-54.5 191t54.5 191t152.5 68q86 0 133.5 -46.5t47.5 -129.5h2v166h100zM295 71q70 0 108.5 46.5t38.5 131.5t-38.5 131.5t-108.5 46.5t-108.5 -46.5t-38.5 -131.5t38.5 -131.5t108.5 -46.5z
" />
    <glyph glyph-name="r" unicode="r" horiz-adv-x="417" 
d="M334 508q21 0 41.5 -4t35.5 -11l-30 -93q-14 8 -33 13t-39 5q-65 0 -100.5 -47.5t-35.5 -133.5v-237h-100v498h100v-195h2q0 97 42 151t117 54z" />
    <glyph glyph-name="s" unicode="s" horiz-adv-x="512" 
d="M255 -10q-103 0 -160 45t-57 126h95q0 -49 32 -76.5t90 -27.5q57 0 88.5 20.5t31.5 58.5q0 24 -11.5 38.5t-30.5 23.5t-44 14.5t-52 10.5q-32 5 -65 12.5t-59.5 22t-43 39t-16.5 65.5q0 69 53 107.5t149 38.5t149 -43.5t53 -121.5h-95q0 47 -28 73t-79 26
q-50 0 -77.5 -19t-27.5 -53q0 -20 10.5 -32t28 -20.5t40.5 -13.5t49 -9q33 -6 67.5 -14t62.5 -23.5t46 -42.5t18 -70q0 -73 -57 -114t-160 -41z" />
    <glyph glyph-name="t" unicode="t" horiz-adv-x="384" 
d="M199 425v-271q0 -40 22.5 -61.5t64.5 -21.5q38 0 70 16v-76q-21 -10 -48 -15.5t-54 -5.5q-73 0 -114 40.5t-41 113.5v281h-77v73h84v170h100v-42q0 -44 -25.5 -76.5t-70.5 -49.5v-2h253v-73h-164z" />
    <glyph glyph-name="u" unicode="u" horiz-adv-x="578" 
d="M505 498v-498h-100v173h-2q0 -87 -42.5 -135t-119.5 -48q-82 0 -127.5 53t-45.5 148v307h100v-304q0 -59 29 -91t82 -32q60 0 93 41t33 115v271h100z" />
    <glyph glyph-name="v" unicode="v" horiz-adv-x="537" 
d="M513 498l-149 -498h-191l-149 498h107l136 -491h2l136 491h108z" />
    <glyph glyph-name="w" unicode="w" horiz-adv-x="844" 
d="M818 498l-122 -498h-178l-95 491h-2l-95 -491h-177l-123 498h107l109 -491h2l95 491h170l94 -491h2l109 491h104z" />
    <glyph glyph-name="x" unicode="x" horiz-adv-x="548" 
d="M532 0h-116l-141 255h-2l-141 -255h-116l155 261l-138 237h112l128 -235h2l128 235h112l-138 -237z" />
    <glyph glyph-name="y" unicode="y" horiz-adv-x="536" 
d="M513 498l-218 -728h-107l69 230h-83l-150 498h108l136 -491h2l136 491h107z" />
    <glyph glyph-name="z" unicode="z" horiz-adv-x="524" 
d="M489 72v-72h-445v168l414 255v2h-408v73h420v-168l-414 -256v-2h433z" />
    <glyph glyph-name="braceleft" unicode="{" horiz-adv-x="266" 
d="M162 372q0 -76 -67 -102q67 -28 67 -103v-285q0 -30 18 -49t47 -19v-44q-51 0 -82 29t-31 77v285q0 41 -22.5 63.5t-64.5 22.5v45q42 0 64.5 22.5t22.5 63.5v286q0 48 31 77t82 29v-44q-29 0 -47 -19t-18 -49v-286v0z" />
    <glyph glyph-name="bar" unicode="|" horiz-adv-x="220" 
d="M134 770v-1000h-48v1000h48z" />
    <glyph glyph-name="braceright" unicode="}" horiz-adv-x="266" 
d="M152 378q0 -41 22.5 -63.5t64.5 -22.5v-45q-42 0 -64.5 -22.5t-22.5 -63.5v-285q0 -48 -31 -77t-82 -29v44q29 0 47 19t18 49v285q0 75 67 103q-67 26 -67 102v286q0 30 -18 49t-47 19v44q51 0 82 -29t31 -77v-286v0z" />
    <glyph glyph-name="asciitilde" unicode="~" horiz-adv-x="585" 
d="M405 190q-42 0 -70.5 12t-52 26.5t-47.5 26.5t-58 12q-32 0 -51.5 -21.5t-22.5 -59.5h-40q1 59 31.5 91.5t85.5 32.5q42 0 70.5 -12t52 -26.5t47.5 -26.5t58 -12q32 0 51.5 21.5t22.5 59.5h40q-1 -59 -31.5 -91.5t-85.5 -32.5z" />
    <glyph glyph-name="uni00A0" unicode="&#xa0;" horiz-adv-x="230" 
 />
    <glyph glyph-name="exclamdown" unicode="&#xa1;" horiz-adv-x="254" 
d="M185 498v-111h-117v111h117zM174 292l5 -522h-104l5 522h94z" />
    <glyph glyph-name="cent" unicode="&#xa2;" horiz-adv-x="566" 
d="M530 307q-15 -86 -69.5 -135.5t-142.5 -55.5v-116h-47v116q-106 7 -165 74t-59 184t59 184t165 74v108h47v-108q85 -6 138.5 -53t70.5 -128h-99q-14 42 -41 68t-69 31v-352q89 12 112 109h100zM149 374q0 -77 31.5 -123t90.5 -54v354q-59 -8 -90.5 -54t-31.5 -123z" />
    <glyph glyph-name="sterling" unicode="&#xa3;" horiz-adv-x="628" 
d="M588 83v-83h-544v78q68 41 93 90t25 105q0 21 -6 42h-98v46h81q-18 41 -37 83t-19 87q0 94 64.5 146.5t180.5 52.5q112 0 178.5 -63t72.5 -176h-101q-4 72 -43.5 112.5t-105.5 40.5q-63 0 -98.5 -31t-35.5 -86q0 -20 6 -40.5t14.5 -41.5t18.5 -42t19 -42h215v-46h-199
q2 -10 3.5 -19t1.5 -19q0 -64 -49 -112.5t-156 -79.5v-2h519z" />
    <glyph glyph-name="currency" unicode="&#xa4;" horiz-adv-x="557" 
d="M476 337q0 -79 -35 -129l58 -60l-31 -33l-59 59q-49 -41 -130 -41q-80 0 -132 41l-57 -58l-32 32l59 59q-36 51 -36 130t35 129l-58 60l31 33l58 -59q52 41 132 41q81 0 131 -41l58 58l32 -32l-59 -59q35 -52 35 -130zM279 175q71 0 110.5 42.5t39.5 119.5t-39.5 119.5
t-110.5 42.5t-110.5 -42.5t-39.5 -119.5t39.5 -119.5t110.5 -42.5z" />
    <glyph glyph-name="yen" unicode="&#xa5;" horiz-adv-x="717" 
d="M468 287h142v-45h-165l-29 -59h194v-44h-215l-69 -139h-114l67 139h-165v44h187l28 59h-215v45h133l-223 453h121l216 -447h2l214 447h114z" />
    <glyph glyph-name="brokenbar" unicode="&#xa6;" horiz-adv-x="220" 
d="M134 770v-400h-48v400h48zM134 170v-400h-48v400h48z" />
    <glyph glyph-name="section" unicode="&#xa7;" horiz-adv-x="680" 
d="M397 43q110 0 171 -31.5t61 -88.5q0 -78 -75.5 -120.5t-211.5 -42.5q-134 0 -212 65t-86 183h103q5 -77 57 -119.5t140 -42.5q85 0 131.5 26.5t46.5 74.5q0 45 -46 70.5t-130 25.5q-133 0 -207.5 60.5t-74.5 169.5q0 98 60.5 157t170.5 70v2q-109 0 -170 31t-61 87
q0 76 68 118t192 42q127 0 201.5 -62t82.5 -174h-103q-4 72 -51.5 111t-128.5 39q-73 0 -114 -25t-41 -72q0 -45 46.5 -69.5t129.5 -24.5q134 0 208.5 -60.5t74.5 -169.5q0 -99 -60.5 -157.5t-171.5 -69.5v-3zM170 273q0 -69 46.5 -106.5t129.5 -37.5q84 0 130 37.5
t46 106.5q0 68 -46 105.5t-130 37.5q-82 0 -129 -37.5t-47 -105.5z" />
    <glyph glyph-name="dieresis" unicode="&#xa8;" horiz-adv-x="399" 
d="M67 715h95v-113h-95v113zM237 715h95v-113h-95v113z" />
    <glyph glyph-name="copyright" unicode="&#xa9;" horiz-adv-x="846" 
d="M423 -10q-88 0 -157.5 26t-117.5 74.5t-73.5 119t-25.5 160.5t25.5 160.5t73.5 119t117.5 74.5t157.5 26t157.5 -26t117.5 -74.5t73.5 -119t25.5 -160.5t-25.5 -160.5t-73.5 -119t-117.5 -74.5t-157.5 -26zM423 32q77 0 137.5 23t102.5 66.5t64 106t22 142.5
q0 79 -22 142t-64 106.5t-102.5 66.5t-137.5 23t-137.5 -23t-102.5 -66.5t-64 -106.5t-22 -142q0 -80 22 -142.5t64 -106t102.5 -66.5t137.5 -23zM426 190q-78 0 -121.5 48t-43.5 133q0 86 43.5 134t121.5 48q61 0 101 -32.5t54 -91.5h-46q-11 40 -39 61.5t-70 21.5
q-57 0 -87.5 -37t-30.5 -104q0 -66 30.5 -103t87.5 -37q44 0 72.5 22.5t39.5 64.5h46q-11 -61 -52.5 -94.5t-105.5 -33.5z" />
    <glyph glyph-name="ordfeminine" unicode="&#xaa;" horiz-adv-x="415" 
d="M349 740v-301h-73v103h-1q0 -51 -28.5 -80t-79.5 -29q-57 0 -89 41t-32 115q0 75 32 116t89 41q51 0 79.5 -29t28.5 -80h1v103h73zM201 492q38 0 58.5 26.5t20.5 70.5q0 45 -20.5 71.5t-58.5 26.5t-59 -25.5t-21 -72.5q0 -46 21 -71.5t59 -25.5z" />
    <glyph glyph-name="guillemotleft" unicode="&#xab;" horiz-adv-x="432" 
d="M167 443h52l-126 -193l126 -193h-52l-128 193zM332 443h52l-126 -193l126 -193h-52l-128 193z" />
    <glyph glyph-name="logicalnot" unicode="&#xac;" horiz-adv-x="526" 
d="M457 341v-183h-48v141h-345v42h393z" />
    <glyph glyph-name="uni00AD" unicode="&#xad;" horiz-adv-x="410" 
d="M345 274v-42h-281v42h281z" />
    <glyph glyph-name="registered" unicode="&#xae;" horiz-adv-x="488" 
d="M244 780q94 0 146 -51t52 -143q0 -91 -52 -142t-146 -51t-146.5 51t-52.5 142q0 92 52.5 143t146.5 51zM244 425q77 0 120 42.5t43 118.5t-43 118.5t-120 42.5t-120 -42.5t-43 -118.5t43 -118.5t120 -42.5zM254 565q15 0 26.5 -6t18.5 -16l33 -54h-38l-45 76h-48v-76h-35
v196h88q34 0 53 -15.5t19 -44.5q0 -28 -19 -43t-53 -15v-2zM254 591q35 0 35 33q0 34 -35 34h-53v-67h53z" />
    <glyph glyph-name="macron" unicode="&#xaf;" horiz-adv-x="338" 
d="M317 695v-73h-296v73h296z" />
    <glyph glyph-name="degree" unicode="&#xb0;" horiz-adv-x="328" 
d="M164 548q-59 0 -91.5 30.5t-32.5 85.5t32.5 85.5t91.5 30.5t91 -30.5t32 -85.5t-32 -85.5t-91 -30.5zM164 603q26 0 40.5 16t14.5 45t-14.5 45t-40.5 16t-40.5 -16t-14.5 -45t14.5 -45t40.5 -16z" />
    <glyph glyph-name="plusminus" unicode="&#xb1;" horiz-adv-x="512" 
d="M452 341v-41h-173v-158h-47v158h-172v41h172v159h47v-159h173zM59 59h393v-42h-393v42z" />
    <glyph glyph-name="uni00B2" unicode="&#xb2;" horiz-adv-x="375" 
d="M349 418v-60h-322v57q109 36 169 100.5t60 144.5q0 41 -19 63.5t-52 22.5q-35 0 -56 -26.5t-23 -74.5h-75q5 77 45.5 120t109.5 43q72 0 112 -39.5t40 -110.5q0 -97 -76 -159.5t-213 -78.5v-2h300z" />
    <glyph glyph-name="uni00B3" unicode="&#xb3;" horiz-adv-x="372" 
d="M186 612q74 0 115 -33t41 -93q0 -63 -42.5 -98.5t-120.5 -35.5q-69 0 -109.5 38.5t-45.5 108.5h74q2 -41 23 -63.5t59 -22.5q39 0 61 19t22 54q0 34 -23 53t-65 19h-12v55q42 4 64.5 23t22.5 48q0 30 -18.5 46.5t-52.5 16.5q-33 0 -52.5 -23t-21.5 -63h-72q5 69 44.5 108
t108.5 39q68 0 105.5 -27t37.5 -72t-38.5 -70t-108.5 -25v-2h4v0z" />
    <glyph glyph-name="acute" unicode="&#xb4;" horiz-adv-x="242" 
d="M226 679l-185 -93l-30 55l182 98z" />
    <glyph glyph-name="paragraph" unicode="&#xb6;" horiz-adv-x="706" 
d="M609 -230h-84v923h-149v-923h-84v923q-81 0 -126.5 -38.5t-45.5 -108.5q0 -59 31.5 -96t88.5 -46v-84q-101 9 -157 68.5t-56 157.5q0 106 69.5 165t195.5 59h317v-1000z" />
    <glyph glyph-name="periodcentered" unicode="&#xb7;" horiz-adv-x="244" 
d="M181 316v-111h-117v111h117z" />
    <glyph glyph-name="cedilla" unicode="&#xb8;" horiz-adv-x="273" 
d="M114 -240q-24 0 -48.5 5.5t-44.5 16.5v47q17 -11 38.5 -17t43.5 -6q35 0 54 13.5t19 36.5q0 18 -12.5 28t-34.5 10q-17 1 -31.5 -5.5t-23.5 -17.5l-37 28q18 19 46.5 30t58.5 11q51 0 78.5 -21.5t27.5 -60.5q0 -47 -35 -72.5t-99 -25.5z" />
    <glyph glyph-name="uni00B9" unicode="&#xb9;" horiz-adv-x="239" 
d="M182 802v-444h-77v422h-2q0 -52 -22.5 -80.5t-63.5 -28.5v66q42 0 65 17.5t23 47.5h77z" />
    <glyph glyph-name="ordmasculine" unicode="&#xba;" horiz-adv-x="396" 
d="M198 433q-73 0 -114 41t-41 115q0 75 41 116t114 41t113.5 -41t40.5 -116q0 -74 -40.5 -115t-113.5 -41zM198 492q38 0 59 25.5t21 71.5q0 47 -21 72.5t-59 25.5t-59 -25.5t-21 -72.5q0 -46 21 -71.5t59 -25.5z" />
    <glyph glyph-name="guillemotright" unicode="&#xbb;" horiz-adv-x="432" 
d="M100 57h-52l126 193l-126 193h52l128 -193zM265 57h-52l126 193l-126 193h52l128 -193z" />
    <glyph glyph-name="onequarter" unicode="&#xbc;" horiz-adv-x="826" 
d="M120 730q0 -52 -22.5 -80.5t-63.5 -28.5v66q42 0 65 17.5t23 47.5h77v-444h-77v422h-2zM601 725l-483 -735l-34 25l483 735zM797 106h-58v-106h-77v106h-211v64l145 274h143v-278h58v-60zM521 168v-2h143v271h-2z" />
    <glyph glyph-name="onehalf" unicode="&#xbd;" horiz-adv-x="818" 
d="M120 730q0 -52 -22.5 -80.5t-63.5 -28.5v66q42 0 65 17.5t23 47.5h77v-444h-77v422h-2zM601 725l-483 -735l-34 25l483 735zM782 60v-60h-322v57q109 36 169 100.5t60 144.5q0 41 -19 63.5t-52 22.5q-35 0 -56 -26.5t-23 -74.5h-75q5 77 45.5 120t109.5 43
q72 0 112 -39.5t40 -110.5q0 -97 -76 -159.5t-213 -78.5v-2h300z" />
    <glyph glyph-name="threequarters" unicode="&#xbe;" horiz-adv-x="954" 
d="M353 436q0 -63 -42.5 -98.5t-120.5 -35.5q-69 0 -109.5 38.5t-45.5 108.5h74q2 -41 23 -63.5t59 -22.5q39 0 61 19t22 54q0 34 -23 53t-65 19h-12v55q42 4 64.5 23t22.5 48q0 30 -18.5 46.5t-52.5 16.5q-33 0 -52.5 -23t-21.5 -63h-72q5 69 44.5 108t108.5 39
q68 0 105.5 -27t37.5 -72t-38.5 -70t-108.5 -25v-2h4q74 0 115 -33t41 -93zM730 725l-483 -735l-34 25l483 735zM926 106h-58v-106h-77v106h-211v64l145 274h143v-278h58v-60zM650 168v-2h143v271h-2z" />
    <glyph glyph-name="questiondown" unicode="&#xbf;" horiz-adv-x="534" 
d="M236 387v111h117v-111h-117zM509 -1q-7 -113 -69.5 -176t-170.5 -63q-111 0 -172 54.5t-61 151.5q0 36 14 76.5t40.5 82.5t64.5 84t86 83h98v-2q-45 -41 -81 -83.5t-61 -83t-38 -78.5t-13 -71q0 -60 33 -94t93 -34q61 0 97 40.5t40 112.5h100z" />
    <glyph glyph-name="Agrave" unicode="&#xc0;" horiz-adv-x="697" 
d="M515 186h-339l-58 -186h-107l246 740h185l244 -740h-113zM489 270l-142 460h-2l-143 -460h287zM317 802l-79 125h96l62 -125h-79z" />
    <glyph glyph-name="Aacute" unicode="&#xc1;" horiz-adv-x="697" 
d="M515 186h-339l-58 -186h-107l246 740h185l244 -740h-113zM489 270l-142 460h-2l-143 -460h287zM300 802l62 125h96l-79 -125h-79z" />
    <glyph glyph-name="Acircumflex" unicode="&#xc2;" horiz-adv-x="697" 
d="M515 186h-339l-58 -186h-107l246 740h185l244 -740h-113zM489 270l-142 460h-2l-143 -460h287zM352 905h-4l-57 -113h-76l65 125h140l65 -125h-76z" />
    <glyph glyph-name="Atilde" unicode="&#xc3;" horiz-adv-x="697" 
d="M515 186h-339l-58 -186h-107l246 740h185l244 -740h-113zM489 270l-142 460h-2l-143 -460h287zM399 805q-18 0 -31 7t-24 15t-21.5 15t-23.5 7q-14 0 -20.5 -13.5t-8.5 -33.5h-58q1 57 25.5 88.5t66.5 31.5q18 0 31 -6.5t23.5 -15t20.5 -15t24 -6.5t21 13t9 33h58
q-1 -57 -26 -88.5t-66 -31.5z" />
    <glyph glyph-name="Adieresis" unicode="&#xc4;" horiz-adv-x="697" 
d="M311 844h-95v113h95v-113zM481 844h-95v113h95v-113zM515 186h-339l-58 -186h-107l246 740h185l244 -740h-113zM489 270l-142 460h-2l-143 -460h287z" />
    <glyph glyph-name="Aring" unicode="&#xc5;" horiz-adv-x="697" 
d="M348 795q-58 0 -90 29.5t-32 82.5q0 54 32 83.5t90 29.5t90 -29.5t32 -83.5q0 -53 -32 -82.5t-90 -29.5zM348 968q-58 0 -58 -61q0 -29 15 -44.5t43 -15.5t43 15.5t15 44.5q0 61 -58 61zM515 186h-339l-58 -186h-107l246 740h185l244 -740h-113zM489 270l-142 460h-2
l-143 -460h287z" />
    <glyph glyph-name="AE" unicode="&#xc6;" horiz-adv-x="1075" 
d="M1033 83v-83h-473l-32 186h-338l-82 -186h-110l339 740h685v-83h-478l47 -240h396v-84h-380l49 -250h377zM513 270l-80 460h-2l-204 -460h286z" />
    <glyph glyph-name="Ccedilla" unicode="&#xc7;" horiz-adv-x="721" 
d="M682 275q-19 -134 -99.5 -209.5t-206.5 -75.5q-77 0 -137.5 26t-102.5 74.5t-64 119t-22 160.5t22 160.5t64 119t102.5 74.5t137.5 26q127 0 207 -74t99 -206h-100q-17 92 -71 143t-135 51q-103 0 -161 -77.5t-58 -216.5t58 -216.5t161 -77.5q81 0 135 52.5t71 146.5h100
zM356 -240q-24 0 -48.5 5.5t-44.5 16.5v47q17 -11 38.5 -17t43.5 -6q35 0 54 13.5t19 36.5q0 18 -12.5 28t-34.5 10q-17 1 -31.5 -5.5t-23.5 -17.5l-37 28q18 19 46.5 30t58.5 11q51 0 78.5 -21.5t27.5 -60.5q0 -47 -35 -72.5t-99 -25.5z" />
    <glyph glyph-name="Egrave" unicode="&#xc8;" horiz-adv-x="634" 
d="M592 83v-83h-502v740h491v-83h-386v-234h351v-84h-351v-256h397zM324 802l-79 125h96l62 -125h-79z" />
    <glyph glyph-name="Eacute" unicode="&#xc9;" horiz-adv-x="634" 
d="M592 83v-83h-502v740h491v-83h-386v-234h351v-84h-351v-256h397zM290 802l62 125h96l-79 -125h-79z" />
    <glyph glyph-name="Ecircumflex" unicode="&#xca;" horiz-adv-x="634" 
d="M592 83v-83h-502v740h491v-83h-386v-234h351v-84h-351v-256h397zM332 905h-4l-57 -113h-76l65 125h140l65 -125h-76z" />
    <glyph glyph-name="Edieresis" unicode="&#xcb;" horiz-adv-x="634" 
d="M297 844h-95v113h95v-113zM467 844h-95v113h95v-113zM592 83v-83h-502v740h491v-83h-386v-234h351v-84h-351v-256h397z" />
    <glyph glyph-name="Igrave" unicode="&#xcc;" horiz-adv-x="285" 
d="M90 740h105v-740h-105v740zM105 802l-79 125h96l62 -125h-79z" />
    <glyph glyph-name="Iacute" unicode="&#xcd;" horiz-adv-x="285" 
d="M90 740h105v-740h-105v740zM100 802l62 125h96l-79 -125h-79z" />
    <glyph glyph-name="Icircumflex" unicode="&#xce;" horiz-adv-x="285" 
d="M306 813h-81l-81 154h-2l-82 -154h-81l91 164h145zM90 740h105v-740h-105v740z" />
    <glyph glyph-name="Idieresis" unicode="&#xcf;" horiz-adv-x="285" 
d="M10 957h95v-113h-95v113zM180 957h95v-113h-95v113zM90 740h105v-740h-105v740z" />
    <glyph glyph-name="Eth" unicode="&#xd0;" horiz-adv-x="729" 
d="M322 740q84 0 150.5 -25t112.5 -73t70.5 -116.5t24.5 -155.5t-24.5 -155.5t-70.5 -116.5t-112.5 -73t-150.5 -25h-224v355h-87v41h87v344h224zM328 83q116 0 180 75.5t64 211.5t-64 211.5t-180 75.5h-125v-261h144v-41h-144v-272h125z" />
    <glyph glyph-name="Ntilde" unicode="&#xd1;" horiz-adv-x="743" 
d="M297 898q-23 0 -36.5 -17t-16.5 -46h-49q0 66 29 102t81 36q25 0 44 -9t35 -20.5t31 -20.5t33 -9q22 0 36 17t16 46h50q-1 -66 -30 -102t-80 -36q-26 0 -44.5 9t-34.5 20.5t-31 20.5t-33 9zM653 740v-740h-179l-285 730h-2l4 -730h-101v740h180l285 -730h2l-3 730h99z
" />
    <glyph glyph-name="Ograve" unicode="&#xd2;" horiz-adv-x="757" 
d="M379 -10q-78 0 -139 26t-103 74.5t-64.5 119t-22.5 160.5t22.5 160.5t64.5 119t103 74.5t139 26q77 0 138 -26t103 -74.5t64.5 -119t22.5 -160.5t-22.5 -160.5t-64.5 -119t-103 -74.5t-138 -26zM379 76q104 0 162 77t58 217t-58 217t-162 77q-106 0 -164 -77t-58 -217
t58 -217t164 -77zM349 802l-79 125h96l62 -125h-79z" />
    <glyph glyph-name="Oacute" unicode="&#xd3;" horiz-adv-x="757" 
d="M379 -10q-78 0 -139 26t-103 74.5t-64.5 119t-22.5 160.5t22.5 160.5t64.5 119t103 74.5t139 26q77 0 138 -26t103 -74.5t64.5 -119t22.5 -160.5t-22.5 -160.5t-64.5 -119t-103 -74.5t-138 -26zM379 76q104 0 162 77t58 217t-58 217t-162 77q-106 0 -164 -77t-58 -217
t58 -217t164 -77zM320 802l62 125h96l-79 -125h-79z" />
    <glyph glyph-name="Ocircumflex" unicode="&#xd4;" horiz-adv-x="757" 
d="M379 750q77 0 138 -26t103 -74.5t64.5 -119t22.5 -160.5t-22.5 -160.5t-64.5 -119t-103 -74.5t-138 -26q-78 0 -139 26t-103 74.5t-64.5 119t-22.5 160.5t22.5 160.5t64.5 119t103 74.5t139 26zM379 76q104 0 162 77t58 217t-58 217t-162 77q-106 0 -164 -77t-58 -217
t58 -217t164 -77zM382 905h-4l-57 -113h-76l65 125h140l65 -125h-76z" />
    <glyph glyph-name="Otilde" unicode="&#xd5;" horiz-adv-x="757" 
d="M379 -10q-78 0 -139 26t-103 74.5t-64.5 119t-22.5 160.5t22.5 160.5t64.5 119t103 74.5t139 26q77 0 138 -26t103 -74.5t64.5 -119t22.5 -160.5t-22.5 -160.5t-64.5 -119t-103 -74.5t-138 -26zM379 76q104 0 162 77t58 217t-58 217t-162 77q-106 0 -164 -77t-58 -217
t58 -217t164 -77zM428 805q-18 0 -31 7t-24 15t-21.5 15t-23.5 7q-14 0 -20.5 -13.5t-8.5 -33.5h-58q1 57 25.5 88.5t66.5 31.5q18 0 31 -6.5t23.5 -15t20.5 -15t24 -6.5t21 13t9 33h58q-1 -57 -26 -88.5t-66 -31.5z" />
    <glyph glyph-name="Odieresis" unicode="&#xd6;" horiz-adv-x="757" 
d="M246 957h95v-113h-95v113zM416 957h95v-113h-95v113zM379 -10q-78 0 -139 26t-103 74.5t-64.5 119t-22.5 160.5t22.5 160.5t64.5 119t103 74.5t139 26q77 0 138 -26t103 -74.5t64.5 -119t22.5 -160.5t-22.5 -160.5t-64.5 -119t-103 -74.5t-138 -26zM379 76q104 0 162 77
t58 217t-58 217t-162 77q-106 0 -164 -77t-58 -217t58 -217t164 -77z" />
    <glyph glyph-name="multiply" unicode="&#xd7;" horiz-adv-x="471" 
d="M267 246l149 -149l-32 -32l-149 149l-149 -149l-32 32l149 149l-149 149l32 32l149 -149l149 149l33 -32z" />
    <glyph glyph-name="Oslash" unicode="&#xd8;" horiz-adv-x="757" 
d="M595 675q54 -48 83 -125t29 -180q0 -90 -22.5 -160.5t-64.5 -119t-103 -74.5t-138 -26q-102 0 -175 44l-44 -72l-44 27l46 76q-54 48 -83 125t-29 180q0 90 22.5 160.5t64.5 119t103 74.5t139 26q101 0 174 -44l44 72l44 -27zM157 370q0 -70 15 -124.5t44 -92.5l287 471
q-51 40 -124 40q-106 0 -164 -77t-58 -217zM379 76q104 0 162 77t58 217q0 70 -15 124t-43 92l-288 -471q53 -39 126 -39z" />
    <glyph glyph-name="Ugrave" unicode="&#xd9;" horiz-adv-x="721" 
d="M539 740h99v-483q0 -126 -73 -196.5t-205 -70.5q-131 0 -204 70.5t-73 196.5v483h104v-489q0 -83 46 -129t130 -46q83 0 129.5 46t46.5 129v489zM345 802l-79 125h96l62 -125h-79z" />
    <glyph glyph-name="Uacute" unicode="&#xda;" horiz-adv-x="721" 
d="M539 740h99v-483q0 -126 -73 -196.5t-205 -70.5q-131 0 -204 70.5t-73 196.5v483h104v-489q0 -83 46 -129t130 -46q83 0 129.5 46t46.5 129v489zM312 802l62 125h96l-79 -125h-79z" />
    <glyph glyph-name="Ucircumflex" unicode="&#xdb;" horiz-adv-x="721" 
d="M280 813h-81l91 164h145l91 -164h-81l-81 154h-2zM638 740v-483q0 -126 -73 -196.5t-205 -70.5q-131 0 -204 70.5t-73 196.5v483h104v-489q0 -83 46 -129t130 -46q83 0 129.5 46t46.5 129v489h99z" />
    <glyph glyph-name="Udieresis" unicode="&#xdc;" horiz-adv-x="721" 
d="M230 957h95v-113h-95v113zM400 957h95v-113h-95v113zM539 740h99v-483q0 -126 -73 -196.5t-205 -70.5q-131 0 -204 70.5t-73 196.5v483h104v-489q0 -83 46 -129t130 -46q83 0 129.5 46t46.5 129v489z" />
    <glyph glyph-name="Yacute" unicode="&#xdd;" horiz-adv-x="676" 
d="M681 740l-365 -740h-114l137 283h-100l-225 457h121l216 -447h2l214 447h114zM300 802l62 125h96l-79 -125h-79z" />
    <glyph glyph-name="Thorn" unicode="&#xde;" horiz-adv-x="651" 
d="M352 608q121 0 188.5 -61t67.5 -170q0 -110 -67.5 -171t-189.5 -61h-156v-145h-105v740h105v-132h157zM357 228q68 0 106 39.5t38 109.5q0 69 -37.5 108t-105.5 39h-163v-296h162z" />
    <glyph glyph-name="germandbls" unicode="&#xdf;" horiz-adv-x="627" 
d="M311 461q64 0 114.5 -16t86 -46t54 -73t18.5 -97q0 -113 -63 -176t-175 -63q-25 0 -49 3t-44 9v77q32 -8 71 -8q75 0 116.5 43t41.5 119t-46 118.5t-130 42.5h-31v69q72 4 112.5 36t40.5 88q0 53 -31 82.5t-87 29.5q-65 0 -101 -35.5t-36 -100.5v-563h-100v559
q0 105 62 163t174 58q106 0 164 -42.5t58 -119.5q0 -73 -58 -114t-162 -41v-2v0z" />
    <glyph glyph-name="agrave" unicode="&#xe0;" 
d="M535 498v-498h-100v166h-2q0 -83 -47.5 -129.5t-133.5 -46.5q-98 0 -152.5 68t-54.5 191t54.5 191t152.5 68q86 0 133.5 -46.5t47.5 -129.5h2v166h100zM295 71q70 0 108.5 48.5t38.5 129.5t-38.5 129.5t-108.5 48.5t-108.5 -46.5t-38.5 -131.5t38.5 -131.5t108.5 -46.5z
M260 560l-79 125h96l62 -125h-79z" />
    <glyph glyph-name="aacute" unicode="&#xe1;" 
d="M535 498v-498h-100v166h-2q0 -83 -47.5 -129.5t-133.5 -46.5q-98 0 -152.5 68t-54.5 191t54.5 191t152.5 68q86 0 133.5 -46.5t47.5 -129.5h2v166h100zM295 71q70 0 108.5 48.5t38.5 129.5t-38.5 129.5t-108.5 48.5t-108.5 -46.5t-38.5 -131.5t38.5 -131.5t108.5 -46.5z
M251 560l62 125h96l-79 -125h-79z" />
    <glyph glyph-name="acircumflex" unicode="&#xe2;" 
d="M535 498v-498h-100v166h-2q0 -83 -47.5 -129.5t-133.5 -46.5q-98 0 -152.5 68t-54.5 191t54.5 191t152.5 68q86 0 133.5 -46.5t47.5 -129.5h2v166h100zM295 71q70 0 108.5 48.5t38.5 129.5t-38.5 129.5t-108.5 48.5t-108.5 -46.5t-38.5 -131.5t38.5 -131.5t108.5 -46.5z
M296 663h-4l-57 -113h-76l65 125h140l65 -125h-76z" />
    <glyph glyph-name="atilde" unicode="&#xe3;" 
d="M535 498v-498h-100v166h-2q0 -83 -47.5 -129.5t-133.5 -46.5q-98 0 -152.5 68t-54.5 191t54.5 191t152.5 68q86 0 133.5 -46.5t47.5 -129.5h2v166h100zM295 71q70 0 108.5 48.5t38.5 129.5t-38.5 129.5t-108.5 48.5t-108.5 -46.5t-38.5 -131.5t38.5 -131.5t108.5 -46.5z
M342 563q-18 0 -31 7t-24 15t-21.5 15t-23.5 7q-14 0 -20.5 -13.5t-8.5 -33.5h-58q1 57 25.5 88.5t66.5 31.5q18 0 31 -6.5t23.5 -15t20.5 -15t24 -6.5t21 13t9 33h58q-1 -57 -26 -88.5t-66 -31.5z" />
    <glyph glyph-name="adieresis" unicode="&#xe4;" 
d="M257 602h-95v113h95v-113zM427 602h-95v113h95v-113zM535 498v-498h-100v166h-2q0 -83 -47.5 -129.5t-133.5 -46.5q-98 0 -152.5 68t-54.5 191t54.5 191t152.5 68q86 0 133.5 -46.5t47.5 -129.5h2v166h100zM295 71q70 0 108.5 48.5t38.5 129.5t-38.5 129.5t-108.5 48.5
t-108.5 -46.5t-38.5 -131.5t38.5 -131.5t108.5 -46.5z" />
    <glyph glyph-name="aring" unicode="&#xe5;" 
d="M295 553q-58 0 -90 29.5t-32 82.5q0 54 32 83.5t90 29.5t90 -29.5t32 -83.5q0 -53 -32 -82.5t-90 -29.5zM295 726q-58 0 -58 -61q0 -29 15 -44.5t43 -15.5t43 15.5t15 44.5q0 61 -58 61zM535 498v-498h-100v166h-2q0 -83 -47.5 -129.5t-133.5 -46.5q-98 0 -152.5 68
t-54.5 191t54.5 191t152.5 68q86 0 133.5 -46.5t47.5 -129.5h2v166h100zM295 71q70 0 108.5 48.5t38.5 129.5t-38.5 129.5t-108.5 48.5t-108.5 -46.5t-38.5 -131.5t38.5 -131.5t108.5 -46.5z" />
    <glyph glyph-name="ae" unicode="&#xe6;" horiz-adv-x="946" 
d="M902 235h-373q3 -79 39 -123t99 -44q56 0 92 28.5t46 79.5h97q-10 -88 -61.5 -137t-134.5 -49q-80 0 -124.5 45t-44.5 126h-2v-161h-100v166h-2q0 -83 -47.5 -129.5t-133.5 -46.5q-98 0 -152.5 68t-54.5 191t54.5 191t152.5 68q86 0 133.5 -46.5t47.5 -129.5h2v166h100
v-162h2q0 81 44.5 126.5t124.5 45.5q94 0 145 -68t51 -191v-14zM667 430q-60 0 -95.5 -40t-41.5 -113h274q-6 73 -41.5 113t-95.5 40zM295 71q70 0 108.5 48.5t38.5 129.5t-38.5 129.5t-108.5 48.5t-108.5 -46.5t-38.5 -131.5t38.5 -131.5t108.5 -46.5z" />
    <glyph glyph-name="ccedilla" unicode="&#xe7;" horiz-adv-x="563" 
d="M292 -10q-117 0 -182 68t-65 191t65 191t182 68q95 0 155.5 -47.5t77.5 -134.5h-99q-15 48 -49 74.5t-85 26.5q-69 0 -107 -46.5t-38 -131.5t38 -131.5t107 -46.5q54 0 88.5 28.5t47.5 82.5h100q-16 -92 -77 -142t-159 -50zM271 -240q-24 0 -48.5 5.5t-44.5 16.5v47
q17 -11 38.5 -17t43.5 -6q35 0 54 13.5t19 36.5q0 18 -12.5 28t-34.5 10q-17 1 -31.5 -5.5t-23.5 -17.5l-37 28q18 19 46.5 30t58.5 11q51 0 78.5 -21.5t27.5 -60.5q0 -47 -35 -72.5t-99 -25.5z" />
    <glyph glyph-name="egrave" unicode="&#xe8;" horiz-adv-x="560" 
d="M516 235h-374q3 -79 39.5 -123t99.5 -44q55 0 91 28.5t46 79.5h98q-13 -88 -74.5 -137t-160.5 -49q-112 0 -174 68t-62 191t62 191t174 68t173.5 -68t61.5 -191v-14zM281 430q-60 0 -96 -40t-42 -113h274q-6 73 -41 113t-95 40zM250 560l-79 125h96l62 -125h-79z" />
    <glyph glyph-name="eacute" unicode="&#xe9;" horiz-adv-x="560" 
d="M516 235h-374q3 -79 39.5 -123t99.5 -44q55 0 91 28.5t46 79.5h98q-13 -88 -74.5 -137t-160.5 -49q-112 0 -174 68t-62 191t62 191t174 68t173.5 -68t61.5 -191v-14zM281 430q-60 0 -96 -40t-42 -113h274q-6 73 -41 113t-95 40zM233 560l62 125h96l-79 -125h-79z" />
    <glyph glyph-name="ecircumflex" unicode="&#xea;" horiz-adv-x="560" 
d="M516 235h-374q3 -79 39.5 -123t99.5 -44q55 0 91 28.5t46 79.5h98q-13 -88 -74.5 -137t-160.5 -49q-112 0 -174 68t-62 191t62 191t174 68t173.5 -68t61.5 -191v-14zM281 430q-60 0 -96 -40t-42 -113h274q-6 73 -41 113t-95 40zM286 663h-4l-57 -113h-76l65 125h140
l65 -125h-76z" />
    <glyph glyph-name="edieresis" unicode="&#xeb;" horiz-adv-x="560" 
d="M243 602h-95v113h95v-113zM413 602h-95v113h95v-113zM516 235h-374q3 -79 39.5 -123t99.5 -44q55 0 91 28.5t46 79.5h98q-13 -88 -74.5 -137t-160.5 -49q-112 0 -174 68t-62 191t62 191t174 68t173.5 -68t61.5 -191v-14zM281 430q-60 0 -96 -40t-42 -113h274
q-6 73 -41 113t-95 40z" />
    <glyph glyph-name="igrave" unicode="&#xec;" horiz-adv-x="246" 
d="M173 498v-498h-100v498h100zM90 560l-79 125h96l62 -125h-79z" />
    <glyph glyph-name="iacute" unicode="&#xed;" horiz-adv-x="246" 
d="M173 498v-498h-100v498h100zM76 560l62 125h96l-79 -125h-79z" />
    <glyph glyph-name="icircumflex" unicode="&#xee;" horiz-adv-x="246" 
d="M287 571h-81l-81 154h-2l-82 -154h-81l91 164h145zM73 498h100v-498h-100v498z" />
    <glyph glyph-name="idieresis" unicode="&#xef;" horiz-adv-x="246" 
d="M-9 715h95v-113h-95v113zM161 715h95v-113h-95v113zM173 498v-498h-100v498h100z" />
    <glyph glyph-name="eth" unicode="&#xf0;" horiz-adv-x="597" 
d="M342 679q55 -35 93.5 -76t62.5 -90.5t34.5 -109t10.5 -129.5q0 -134 -65.5 -209t-183.5 -75t-183.5 67t-65.5 188q0 119 54.5 185t153.5 66q90 0 139.5 -59t49.5 -163h2q0 69 -9.5 123.5t-31 98t-56.5 78t-86 63.5l-141 -74l-32 52l105 55q-47 19 -105 39l23 71
q96 -30 168 -66l126 66l32 -52zM294 71q70 0 108.5 46t38.5 128t-38.5 128t-108.5 46q-69 0 -108 -46t-39 -128t39 -128t108 -46z" />
    <glyph glyph-name="ntilde" unicode="&#xf1;" horiz-adv-x="588" 
d="M221 656q-23 0 -36.5 -17t-16.5 -46h-49q0 66 29 102t81 36q25 0 44 -9t35 -20.5t31 -20.5t33 -9q22 0 36 17t16 46h50q-1 -66 -30 -102t-80 -36q-26 0 -44.5 9t-34.5 20.5t-31 20.5t-33 9zM342 508q85 0 131.5 -53t46.5 -148v-307h-100v304q0 59 -30.5 91t-85.5 32
q-62 0 -96.5 -41t-34.5 -115v-271h-100v498h100v-173h2q0 87 44 135t123 48z" />
    <glyph glyph-name="ograve" unicode="&#xf2;" horiz-adv-x="588" 
d="M294 -10q-118 0 -183.5 68t-65.5 191t65.5 191t183.5 68t183.5 -68t65.5 -191t-65.5 -191t-183.5 -68zM294 71q70 0 108.5 46.5t38.5 131.5t-38.5 131.5t-108.5 46.5t-108.5 -46.5t-38.5 -131.5t38.5 -131.5t108.5 -46.5zM270 560l-79 125h96l62 -125h-79z" />
    <glyph glyph-name="oacute" unicode="&#xf3;" horiz-adv-x="588" 
d="M294 -10q-118 0 -183.5 68t-65.5 191t65.5 191t183.5 68t183.5 -68t65.5 -191t-65.5 -191t-183.5 -68zM294 71q70 0 108.5 46.5t38.5 131.5t-38.5 131.5t-108.5 46.5t-108.5 -46.5t-38.5 -131.5t38.5 -131.5t108.5 -46.5zM241 560l62 125h96l-79 -125h-79z" />
    <glyph glyph-name="ocircumflex" unicode="&#xf4;" horiz-adv-x="588" 
d="M294 508q118 0 183.5 -68t65.5 -191t-65.5 -191t-183.5 -68t-183.5 68t-65.5 191t65.5 191t183.5 68zM294 71q70 0 108.5 46.5t38.5 131.5t-38.5 131.5t-108.5 46.5t-108.5 -46.5t-38.5 -131.5t38.5 -131.5t108.5 -46.5zM296 663h-4l-57 -113h-76l65 125h140l65 -125h-76
z" />
    <glyph glyph-name="otilde" unicode="&#xf5;" horiz-adv-x="588" 
d="M294 -10q-118 0 -183.5 68t-65.5 191t65.5 191t183.5 68t183.5 -68t65.5 -191t-65.5 -191t-183.5 -68zM294 71q70 0 108.5 46.5t38.5 131.5t-38.5 131.5t-108.5 46.5t-108.5 -46.5t-38.5 -131.5t38.5 -131.5t108.5 -46.5zM342 563q-18 0 -31 7t-24 15t-21.5 15t-23.5 7
q-14 0 -20.5 -13.5t-8.5 -33.5h-58q1 57 25.5 88.5t66.5 31.5q18 0 31 -6.5t23.5 -15t20.5 -15t24 -6.5t21 13t9 33h58q-1 -57 -26 -88.5t-66 -31.5z" />
    <glyph glyph-name="odieresis" unicode="&#xf6;" horiz-adv-x="588" 
d="M162 715h95v-113h-95v113zM332 715h95v-113h-95v113zM294 -10q-118 0 -183.5 68t-65.5 191t65.5 191t183.5 68t183.5 -68t65.5 -191t-65.5 -191t-183.5 -68zM294 71q70 0 108.5 46.5t38.5 131.5t-38.5 131.5t-108.5 46.5t-108.5 -46.5t-38.5 -131.5t38.5 -131.5
t108.5 -46.5z" />
    <glyph glyph-name="divide" unicode="&#xf7;" horiz-adv-x="520" 
d="M260 364q-34 0 -34 32q0 34 34 34q35 0 35 -34q0 -32 -35 -32zM64 273h392v-42h-392v42zM260 74q-34 0 -34 32q0 34 34 34q35 0 35 -34q0 -32 -35 -32z" />
    <glyph glyph-name="oslash" unicode="&#xf8;" horiz-adv-x="588" 
d="M459 457q41 -33 62.5 -85.5t21.5 -122.5q0 -123 -65.5 -191t-183.5 -68q-72 0 -126 27l-37 -57l-39 25l37 57q-41 33 -62.5 85.5t-21.5 121.5q0 123 65.5 191t183.5 68q72 0 126 -26l37 56l39 -25zM147 249q0 -81 35 -127l189 285q-32 20 -77 20q-70 0 -108.5 -46.5
t-38.5 -131.5zM294 71q70 0 108.5 46.5t38.5 131.5q0 81 -35 127l-189 -285q32 -20 77 -20z" />
    <glyph glyph-name="ugrave" unicode="&#xf9;" horiz-adv-x="578" 
d="M505 498v-498h-100v173h-2q0 -87 -42.5 -135t-119.5 -48q-82 0 -127.5 53t-45.5 148v307h100v-304q0 -59 29 -91t82 -32q60 0 93 41t33 115v271h100zM260 560l-79 125h96l62 -125h-79z" />
    <glyph glyph-name="uacute" unicode="&#xfa;" horiz-adv-x="578" 
d="M505 498v-498h-100v173h-2q0 -87 -42.5 -135t-119.5 -48q-82 0 -127.5 53t-45.5 148v307h100v-304q0 -59 29 -91t82 -32q60 0 93 41t33 115v271h100zM237 560l62 125h96l-79 -125h-79z" />
    <glyph glyph-name="ucircumflex" unicode="&#xfb;" horiz-adv-x="578" 
d="M204 571h-81l91 164h145l91 -164h-81l-81 154h-2zM505 498v-498h-100v173h-2q0 -87 -42.5 -135t-119.5 -48q-82 0 -127.5 53t-45.5 148v307h100v-304q0 -59 29 -91t82 -32q60 0 93 41t33 115v271h100z" />
    <glyph glyph-name="udieresis" unicode="&#xfc;" horiz-adv-x="578" 
d="M250 602h-95v113h95v-113zM420 602h-95v113h95v-113zM505 498v-498h-100v173h-2q0 -87 -42.5 -135t-119.5 -48q-82 0 -127.5 53t-45.5 148v307h100v-304q0 -59 29 -91t82 -32q60 0 93 41t33 115v271h100z" />
    <glyph glyph-name="yacute" unicode="&#xfd;" horiz-adv-x="536" 
d="M513 498l-218 -728h-107l69 230h-83l-150 498h108l136 -491h2l136 491h107zM221 560l62 125h96l-79 -125h-79z" />
    <glyph glyph-name="thorn" unicode="&#xfe;" 
d="M356 508q98 0 152.5 -68t54.5 -191t-54.5 -191t-152.5 -68q-85 0 -133 43.5t-48 121.5h-2v-385h-100v1000h100v-427h2q0 78 48 121.5t133 43.5zM314 71q70 0 108.5 46.5t38.5 131.5t-38.5 131.5t-108.5 46.5t-109 -48.5t-39 -129.5t39 -129.5t109 -48.5z" />
    <glyph glyph-name="ydieresis" unicode="&#xff;" horiz-adv-x="536" 
d="M234 602h-95v113h95v-113zM404 602h-95v113h95v-113zM513 498l-218 -728h-107l69 230h-83l-150 498h108l136 -491h2l136 491h107z" />
    <glyph glyph-name="Amacron" unicode="&#x100;" horiz-adv-x="697" 
d="M496 864h-296v73h296v-73zM515 186h-339l-58 -186h-107l246 740h185l244 -740h-113zM489 270l-142 460h-2l-143 -460h287z" />
    <glyph glyph-name="amacron" unicode="&#x101;" 
d="M443 622h-296v73h296v-73zM535 498v-498h-100v166h-2q0 -83 -47.5 -129.5t-133.5 -46.5q-98 0 -152.5 68t-54.5 191t54.5 191t152.5 68q86 0 133.5 -46.5t47.5 -129.5h2v166h100zM295 71q70 0 108.5 48.5t38.5 129.5t-38.5 129.5t-108.5 48.5t-108.5 -46.5t-38.5 -131.5
t38.5 -131.5t108.5 -46.5z" />
    <glyph glyph-name="Abreve" unicode="&#x102;" horiz-adv-x="697" 
d="M515 186h-339l-58 -186h-107l246 740h185l244 -740h-113zM489 270l-142 460h-2l-143 -460h287zM350 792q-66 0 -100.5 32t-34.5 87h75q0 -29 16.5 -42t43.5 -13t43 13t16 42h76q0 -55 -34.5 -87t-100.5 -32z" />
    <glyph glyph-name="abreve" unicode="&#x103;" 
d="M535 498v-498h-100v166h-2q0 -83 -47.5 -129.5t-133.5 -46.5q-98 0 -152.5 68t-54.5 191t54.5 191t152.5 68q86 0 133.5 -46.5t47.5 -129.5h2v166h100zM295 71q70 0 108.5 48.5t38.5 129.5t-38.5 129.5t-108.5 48.5t-108.5 -46.5t-38.5 -131.5t38.5 -131.5t108.5 -46.5z
M294 550q-66 0 -100.5 32t-34.5 87h75q0 -29 16.5 -42t43.5 -13t43 13t16 42h76q0 -55 -34.5 -87t-100.5 -32z" />
    <glyph glyph-name="Aogonek" unicode="&#x104;" horiz-adv-x="697" 
d="M621 -179q20 0 38.5 6t35.5 17v-61q-19 -11 -44 -17t-54 -6q-44 0 -68 19.5t-24 54.5q0 25 15 53.5t39 53t54.5 41t62.5 16.5v2h-103l-58 186h-339l-58 -186h-107l246 740h185l244 -740q-46 -40 -72 -79.5t-26 -68.5q0 -31 33 -31zM489 270l-142 460h-2l-143 -460h287z
" />
    <glyph glyph-name="aogonek" unicode="&#x105;" 
d="M471 -179q20 0 38.5 6t35.5 17v-61q-19 -11 -44 -17t-54 -6q-44 0 -68 19.5t-24 54.5q0 25 15 53.5t39 53t54.5 41t62.5 16.5v2h-91v166h-2q0 -83 -47.5 -129.5t-133.5 -46.5q-98 0 -152.5 68t-54.5 191t54.5 191t152.5 68q86 0 133.5 -46.5t47.5 -129.5h2v166h100v-498
h1q-46 -40 -72 -79.5t-26 -68.5q0 -31 33 -31zM295 71q70 0 108.5 48.5t38.5 129.5t-38.5 129.5t-108.5 48.5t-108.5 -46.5t-38.5 -131.5t38.5 -131.5t108.5 -46.5z" />
    <glyph glyph-name="Cacute" unicode="&#x106;" horiz-adv-x="721" 
d="M516 921l-185 -93l-30 55l182 98zM682 275q-19 -134 -99.5 -209.5t-206.5 -75.5q-77 0 -137.5 26t-102.5 74.5t-64 119t-22 160.5t22 160.5t64 119t102.5 74.5t137.5 26q127 0 207 -74t99 -206h-100q-17 92 -71 143t-135 51q-103 0 -161 -77.5t-58 -216.5t58 -216.5
t161 -77.5q81 0 135 52.5t71 146.5h100z" />
    <glyph glyph-name="cacute" unicode="&#x107;" horiz-adv-x="563" 
d="M432 679l-185 -93l-30 55l182 98zM292 -10q-117 0 -182 68t-65 191t65 191t182 68q95 0 155.5 -47.5t77.5 -134.5h-99q-15 48 -49 74.5t-85 26.5q-69 0 -107 -46.5t-38 -131.5t38 -131.5t107 -46.5q54 0 88.5 28.5t47.5 82.5h100q-16 -92 -77 -142t-159 -50z" />
    <glyph glyph-name="Cdotaccent" unicode="&#x10a;" horiz-adv-x="721" 
d="M327 957h100v-113h-100v113zM682 275q-19 -134 -99.5 -209.5t-206.5 -75.5q-77 0 -137.5 26t-102.5 74.5t-64 119t-22 160.5t22 160.5t64 119t102.5 74.5t137.5 26q127 0 207 -74t99 -206h-100q-17 92 -71 143t-135 51q-103 0 -161 -77.5t-58 -216.5t58 -216.5t161 -77.5
q81 0 135 52.5t71 146.5h100z" />
    <glyph glyph-name="cdotaccent" unicode="&#x10b;" horiz-adv-x="563" 
d="M242 715h100v-113h-100v113zM292 -10q-117 0 -182 68t-65 191t65 191t182 68q95 0 155.5 -47.5t77.5 -134.5h-99q-15 48 -49 74.5t-85 26.5q-69 0 -107 -46.5t-38 -131.5t38 -131.5t107 -46.5q54 0 88.5 28.5t47.5 82.5h100q-16 -92 -77 -142t-159 -50z" />
    <glyph glyph-name="Ccaron" unicode="&#x10c;" horiz-adv-x="721" 
d="M212 976h81l82 -154h2l81 154h81l-91 -164h-145zM376 76q81 0 135 52.5t71 146.5h100q-19 -134 -99.5 -209.5t-206.5 -75.5q-77 0 -137.5 26t-102.5 74.5t-64 119t-22 160.5t22 160.5t64 119t102.5 74.5t137.5 26q127 0 207 -74t99 -206h-100q-17 92 -71 143t-135 51
q-103 0 -161 -77.5t-58 -216.5t58 -216.5t161 -77.5z" />
    <glyph glyph-name="ccaron" unicode="&#x10d;" horiz-adv-x="563" 
d="M128 734h81l82 -154h2l81 154h81l-91 -164h-145zM528 182q-16 -92 -77 -142t-159 -50q-117 0 -182 68t-65 191t65 191t182 68q95 0 155.5 -47.5t77.5 -134.5h-99q-15 48 -49 74.5t-85 26.5q-69 0 -107 -46.5t-38 -131.5t38 -131.5t107 -46.5q54 0 88.5 28.5t47.5 82.5
h100z" />
    <glyph glyph-name="Dcaron" unicode="&#x10e;" horiz-adv-x="721" 
d="M153 976h81l82 -154h2l81 154h81l-91 -164h-145zM314 740q84 0 150.5 -25t112.5 -73t70.5 -116.5t24.5 -155.5t-24.5 -155.5t-70.5 -116.5t-112.5 -73t-150.5 -25h-224v740h224zM320 83q116 0 180 75.5t64 211.5t-64 211.5t-180 75.5h-125v-574h125z" />
    <glyph glyph-name="dcaron" unicode="&#x10f;" horiz-adv-x="636" 
d="M711 760l-57 -208l-68 20l49 208zM435 770h100v-770h-100v166h-2q0 -83 -47.5 -129.5t-133.5 -46.5q-98 0 -152.5 68t-54.5 191t54.5 191t152.5 68q86 0 133.5 -46.5t47.5 -129.5h2v438zM295 71q70 0 108.5 48.5t38.5 129.5t-38.5 129.5t-108.5 48.5t-108.5 -46.5
t-38.5 -131.5t38.5 -131.5t108.5 -46.5z" />
    <glyph glyph-name="Dcroat" unicode="&#x110;" horiz-adv-x="729" 
d="M322 740q84 0 150.5 -25t112.5 -73t70.5 -116.5t24.5 -155.5t-24.5 -155.5t-70.5 -116.5t-112.5 -73t-150.5 -25h-224v342h-87v67h87v331h224zM328 83q116 0 180 75.5t64 211.5t-64 211.5t-180 75.5h-125v-248h154v-67h-154v-259h125z" />
    <glyph glyph-name="dcroat" unicode="&#x111;" 
d="M603 609h-68v-609h-100v166h-2q0 -83 -47.5 -129.5t-133.5 -46.5q-98 0 -152.5 68t-54.5 191t54.5 191t152.5 68q86 0 133.5 -46.5t47.5 -129.5h2v277h-168v61h168v100h100v-100h68v-61zM295 71q70 0 108.5 48.5t38.5 129.5t-38.5 129.5t-108.5 48.5t-108.5 -46.5
t-38.5 -131.5t38.5 -131.5t108.5 -46.5z" />
    <glyph glyph-name="Emacron" unicode="&#x112;" horiz-adv-x="634" 
d="M482 864h-296v73h296v-73zM592 83v-83h-502v740h491v-83h-386v-234h351v-84h-351v-256h397z" />
    <glyph glyph-name="emacron" unicode="&#x113;" horiz-adv-x="560" 
d="M429 622h-296v73h296v-73zM516 235h-374q3 -79 39.5 -123t99.5 -44q55 0 91 28.5t46 79.5h98q-13 -88 -74.5 -137t-160.5 -49q-112 0 -174 68t-62 191t62 191t174 68t173.5 -68t61.5 -191v-14zM281 430q-60 0 -96 -40t-42 -113h274q-6 73 -41 113t-95 40z" />
    <glyph glyph-name="Edotaccent" unicode="&#x116;" horiz-adv-x="634" 
d="M385 844h-100v113h100v-113zM592 83v-83h-502v740h491v-83h-386v-234h351v-84h-351v-256h397z" />
    <glyph glyph-name="edotaccent" unicode="&#x117;" horiz-adv-x="560" 
d="M331 602h-100v113h100v-113zM516 235h-374q3 -79 39.5 -123t99.5 -44q55 0 91 28.5t46 79.5h98q-13 -88 -74.5 -137t-160.5 -49q-112 0 -174 68t-62 191t62 191t174 68t173.5 -68t61.5 -191v-14zM281 430q-60 0 -96 -40t-42 -113h274q-6 73 -41 113t-95 40z" />
    <glyph glyph-name="Eogonek" unicode="&#x118;" horiz-adv-x="634" 
d="M485 0q-46 -40 -72 -79.5t-26 -68.5q0 -31 33 -31q20 0 38.5 6t35.5 17v-61q-19 -11 -44 -17t-54 -6q-44 0 -68 19.5t-24 54.5q0 25 15 53.5t39 53t54.5 41t62.5 16.5v2h-385v740h491v-83h-386v-234h351v-84h-351v-256h397v-83h-107v0z" />
    <glyph glyph-name="eogonek" unicode="&#x119;" horiz-adv-x="560" 
d="M516 235h-374q3 -79 39.5 -123t99.5 -44q55 0 91 28.5t46 79.5h98q-15 -100 -92 -149q-57 -48 -89 -94t-32 -81q0 -31 33 -31q20 0 38.5 6t35.5 17v-61q-19 -11 -44 -17t-54 -6q-44 0 -68 19.5t-24 54.5q0 21 14 45t38 48t57 46t71 39v2q-51 -24 -119 -24q-112 0 -174 68
t-62 191t62 191t174 68t173.5 -68t61.5 -191v-14zM281 430q-60 0 -96 -40t-42 -113h274q-6 73 -41 113t-95 40z" />
    <glyph glyph-name="Ecaron" unicode="&#x11a;" horiz-adv-x="634" 
d="M170 976h81l82 -154h2l81 154h81l-91 -164h-145zM592 83v-83h-502v740h491v-83h-386v-234h351v-84h-351v-256h397z" />
    <glyph glyph-name="ecaron" unicode="&#x11b;" horiz-adv-x="560" 
d="M117 734h81l82 -154h2l81 154h81l-91 -164h-145zM516 235h-374q3 -79 39.5 -123t99.5 -44q55 0 91 28.5t46 79.5h98q-13 -88 -74.5 -137t-160.5 -49q-112 0 -174 68t-62 191t62 191t174 68t173.5 -68t61.5 -191v-14zM281 430q-60 0 -96 -40t-42 -113h274q-6 73 -41 113
t-95 40z" />
    <glyph glyph-name="Gbreve" unicode="&#x11e;" horiz-adv-x="743" 
d="M379 809q-72 0 -111.5 44t-40.5 124h71q1 -50 22 -77.5t59 -27.5q37 0 58 27.5t22 77.5h71q-1 -80 -40.5 -124t-110.5 -44zM684 386v-386h-98v267h-2q0 -131 -67.5 -204t-189.5 -73q-64 0 -115 26t-87 74.5t-55.5 119t-19.5 160.5t22.5 160.5t64.5 119t103 74.5t138 26
q124 0 202.5 -72t97.5 -200h-100q-17 88 -69.5 137t-130.5 49q-105 0 -162.5 -77t-57.5 -217t56 -217t158 -77q98 0 153 62t58 174h-221v74h322z" />
    <glyph glyph-name="gbreve" unicode="&#x11f;" 
d="M308 567q-72 0 -111.5 44t-40.5 124h71q1 -50 22 -77.5t59 -27.5q37 0 58 27.5t22 77.5h71q-1 -80 -40.5 -124t-110.5 -44zM535 498v-508q0 -109 -63 -169.5t-178 -60.5q-101 0 -163 48t-72 134l95 13q5 -54 42 -84t98 -30q67 0 104 37.5t37 105.5v186h-2
q0 -83 -47.5 -129.5t-133.5 -46.5q-98 0 -152.5 67.5t-54.5 189.5q0 121 54.5 189t152.5 68q86 0 133.5 -46.5t47.5 -129.5h2v166h100zM295 75q70 0 108.5 47.5t38.5 128.5t-38.5 128.5t-108.5 47.5t-108.5 -46.5t-38.5 -129.5q0 -84 38.5 -130t108.5 -46z" />
    <glyph glyph-name="Gdotaccent" unicode="&#x120;" horiz-adv-x="743" 
d="M429 844h-100v113h100v-113zM684 386v-386h-98v267h-2q0 -131 -67.5 -204t-189.5 -73q-64 0 -115 26t-87 74.5t-55.5 119t-19.5 160.5t22.5 160.5t64.5 119t103 74.5t138 26q124 0 202.5 -72t97.5 -200h-100q-17 88 -69.5 137t-130.5 49q-105 0 -162.5 -77t-57.5 -217
t56 -217t158 -77q98 0 153 62t58 174h-221v74h322z" />
    <glyph glyph-name="gdotaccent" unicode="&#x121;" 
d="M357 602h-100v113h100v-113zM535 498v-508q0 -109 -63 -169.5t-178 -60.5q-101 0 -163 48t-72 134l95 13q5 -54 42 -84t98 -30q67 0 104 37.5t37 105.5v186h-2q0 -83 -47.5 -129.5t-133.5 -46.5q-98 0 -152.5 67.5t-54.5 189.5q0 121 54.5 189t152.5 68q86 0 133.5 -46.5
t47.5 -129.5h2v166h100zM295 75q70 0 108.5 47.5t38.5 128.5t-38.5 128.5t-108.5 47.5t-108.5 -46.5t-38.5 -129.5q0 -84 38.5 -130t108.5 -46z" />
    <glyph glyph-name="Gcommaaccent" unicode="&#x122;" horiz-adv-x="743" 
d="M684 386v-386h-98v267h-2q0 -131 -67.5 -204t-189.5 -73q-64 0 -115 26t-87 74.5t-55.5 119t-19.5 160.5t22.5 160.5t64.5 119t103 74.5t138 26q124 0 202.5 -72t97.5 -200h-100q-17 88 -69.5 137t-130.5 49q-105 0 -162.5 -77t-57.5 -217t56 -217t158 -77q98 0 153 62
t58 174h-221v74h322zM330 -71h96v-63q0 -42 -23.5 -67t-72.5 -39v34q45 8 64.5 23.5t24.5 38.5h-89v73z" />
    <glyph glyph-name="gcommaaccent" unicode="&#x123;" 
d="M356 600h-97v67q0 41 23.5 64t73.5 34v-33q-45 -5 -65 -18t-25 -33h90v-81zM535 498v-508q0 -109 -63 -169.5t-178 -60.5q-101 0 -163 48t-72 134l95 13q5 -54 42 -84t98 -30q67 0 104 37.5t37 105.5v186h-2q0 -83 -47.5 -129.5t-133.5 -46.5q-98 0 -152.5 67.5
t-54.5 189.5q0 121 54.5 189t152.5 68q86 0 133.5 -46.5t47.5 -129.5h2v166h100zM295 75q70 0 108.5 47.5t38.5 128.5t-38.5 128.5t-108.5 47.5t-108.5 -46.5t-38.5 -129.5q0 -84 38.5 -130t108.5 -46z" />
    <glyph glyph-name="Hbar" unicode="&#x126;" horiz-adv-x="746" 
d="M715 567h-61v-567h-105v334h-353v-334h-105v567h-60v41h60v132h105v-132h353v132h105v-132h61v-41zM549 567h-353v-150h353v150z" />
    <glyph glyph-name="hbar" unicode="&#x127;" horiz-adv-x="588" 
d="M342 508q85 0 131.5 -53t46.5 -148v-307h-100v304q0 59 -30.5 91t-85.5 32q-62 0 -96.5 -41t-34.5 -115v-271h-100v619h-67v41h67v110h100v-110h169v-41h-169v-294h2q0 87 44 135t123 48z" />
    <glyph glyph-name="Itilde" unicode="&#x128;" horiz-adv-x="285" 
d="M190 805q-18 0 -31 7t-24 15t-21.5 15t-23.5 7q-14 0 -20.5 -13.5t-8.5 -33.5h-58q1 57 25.5 88.5t66.5 31.5q18 0 31 -6.5t23.5 -15t20.5 -15t24 -6.5t21 13t9 33h58q-1 -57 -26 -88.5t-66 -31.5zM90 740h105v-740h-105v740z" />
    <glyph glyph-name="itilde" unicode="&#x129;" horiz-adv-x="246" 
d="M173 563q-18 0 -31 7t-24 15t-21.5 15t-23.5 7q-14 0 -20.5 -13.5t-8.5 -33.5h-58q1 57 25.5 88.5t66.5 31.5q18 0 31 -6.5t23.5 -15t20.5 -15t24 -6.5t21 13t9 33h58q-1 -57 -26 -88.5t-66 -31.5zM173 498v-498h-100v498h100z" />
    <glyph glyph-name="Imacron" unicode="&#x12a;" horiz-adv-x="285" 
d="M290 937v-73h-296v73h296zM90 740h105v-740h-105v740z" />
    <glyph glyph-name="imacron" unicode="&#x12b;" horiz-adv-x="246" 
d="M271 695v-73h-296v73h296zM173 498v-498h-100v498h100z" />
    <glyph glyph-name="Iogonek" unicode="&#x12e;" horiz-adv-x="285" 
d="M130 -179q20 0 38.5 6t35.5 17v-61q-19 -11 -44 -17t-54 -6q-44 0 -68 19.5t-24 54.5q0 25 15 53.5t39 53t54.5 41t62.5 16.5v2h-95v740h105v-740q-46 -40 -72 -79.5t-26 -68.5q0 -31 33 -31z" />
    <glyph glyph-name="iogonek" unicode="&#x12f;" horiz-adv-x="246" 
d="M174 602h-100v113h100v-113zM108 -179q20 0 38.5 6t35.5 17v-61q-19 -11 -44 -17t-54 -6q-44 0 -68 19.5t-24 54.5q0 25 15 53.5t39 53t54.5 41t62.5 16.5v2h-90v498h100v-498q-46 -40 -72 -79.5t-26 -68.5q0 -31 33 -31z" />
    <glyph glyph-name="Idotaccent" unicode="&#x130;" horiz-adv-x="285" 
d="M93 957h100v-113h-100v113zM90 740h105v-740h-105v740z" />
    <glyph glyph-name="dotlessi" unicode="&#x131;" horiz-adv-x="246" 
d="M173 498v-498h-100v498h100z" />
    <glyph glyph-name="Kcommaaccent" unicode="&#x136;" horiz-adv-x="701" 
d="M708 0h-136l-379 381h-2v-381h-101v740h101v-350h2l350 350h127l-357 -354zM316 -71h96v-63q0 -42 -23.5 -67t-72.5 -39v34q45 8 64.5 23.5t24.5 38.5h-89v73z" />
    <glyph glyph-name="kcommaaccent" unicode="&#x137;" horiz-adv-x="559" 
d="M558 0h-127l-256 255h-2v-255h-100v770h100v-507h2l239 235h124l-249 -237zM234 -71h96v-63q0 -42 -23.5 -67t-72.5 -39v34q45 8 64.5 23.5t24.5 38.5h-89v73z" />
    <glyph glyph-name="Lacute" unicode="&#x139;" horiz-adv-x="549" 
d="M98 828l-30 55l182 98l33 -60zM530 86v-86h-440v740h105v-654h335z" />
    <glyph glyph-name="lacute" unicode="&#x13a;" horiz-adv-x="246" 
d="M264 951l-185 -93l-30 55l182 98zM73 770h100v-770h-100v770z" />
    <glyph glyph-name="Lcommaaccent" unicode="&#x13b;" horiz-adv-x="549" 
d="M530 86v-86h-440v740h105v-654h335zM231 -71h96v-63q0 -42 -23.5 -67t-72.5 -39v34q45 8 64.5 23.5t24.5 38.5h-89v73z" />
    <glyph glyph-name="lcommaaccent" unicode="&#x13c;" horiz-adv-x="246" 
d="M173 770v-770h-100v770h100zM76 -71h96v-63q0 -42 -23.5 -67t-72.5 -39v34q45 8 64.5 23.5t24.5 38.5h-89v73z" />
    <glyph glyph-name="Lcaron" unicode="&#x13d;" horiz-adv-x="554" 
d="M350 522l-68 20l49 208l75 -20zM530 86v-86h-440v740h105v-654h335z" />
    <glyph glyph-name="lcaron" unicode="&#x13e;" horiz-adv-x="286" 
d="M348 760l-56 -208l-68 20l49 208zM73 770h100v-770h-100v770z" />
    <glyph glyph-name="Lslash" unicode="&#x141;" horiz-adv-x="556" 
d="M537 86v-86h-440v301l-68 -43v48l68 43v391h105v-328l163 102v-47l-163 -102v-279h335z" />
    <glyph glyph-name="lslash" unicode="&#x142;" horiz-adv-x="296" 
d="M261 459l-63 -46v-413h-100v346l-62 -45v50l62 45v374h100v-308l63 46v-49z" />
    <glyph glyph-name="Nacute" unicode="&#x143;" horiz-adv-x="743" 
d="M327 828l-30 55l182 98l33 -60zM653 740v-740h-179l-285 730h-2l4 -730h-101v740h180l285 -730h2l-3 730h99z" />
    <glyph glyph-name="nacute" unicode="&#x144;" horiz-adv-x="588" 
d="M252 586l-30 55l182 98l33 -60zM342 508q85 0 131.5 -53t46.5 -148v-307h-100v304q0 59 -30.5 91t-85.5 32q-62 0 -96.5 -41t-34.5 -115v-271h-100v498h100v-173h2q0 87 44 135t123 48z" />
    <glyph glyph-name="Ncommaaccent" unicode="&#x145;" horiz-adv-x="743" 
d="M653 740v-740h-179l-285 730h-2l4 -730h-101v740h180l285 -730h2l-3 730h99zM324 -71h96v-63q0 -42 -23.5 -67t-72.5 -39v34q45 8 64.5 23.5t24.5 38.5h-89v73z" />
    <glyph glyph-name="ncommaaccent" unicode="&#x146;" horiz-adv-x="588" 
d="M342 508q85 0 131.5 -53t46.5 -148v-307h-100v304q0 59 -30.5 91t-85.5 32q-62 0 -96.5 -41t-34.5 -115v-271h-100v498h100v-173h2q0 87 44 135t123 48zM249 -71h96v-63q0 -42 -23.5 -67t-72.5 -39v34q45 8 64.5 23.5t24.5 38.5h-89v73z" />
    <glyph glyph-name="Ncaron" unicode="&#x147;" horiz-adv-x="743" 
d="M208 976h81l82 -154h2l81 154h81l-91 -164h-145zM653 740v-740h-179l-285 730h-2l4 -730h-101v740h180l285 -730h2l-3 730h99z" />
    <glyph glyph-name="ncaron" unicode="&#x148;" horiz-adv-x="588" 
d="M133 734h81l82 -154h2l81 154h81l-91 -164h-145zM342 508q85 0 131.5 -53t46.5 -148v-307h-100v304q0 59 -30.5 91t-85.5 32q-62 0 -96.5 -41t-34.5 -115v-271h-100v498h100v-173h2q0 87 44 135t123 48z" />
    <glyph glyph-name="Eng" unicode="&#x14a;" horiz-adv-x="743" 
d="M653 740v-755q0 -106 -56.5 -165.5t-157.5 -59.5q-58 0 -102 22l28 79q27 -15 66 -15q55 0 86 34t31 95v25h-74l-285 730h-2l4 -730h-101v740h180l285 -730h2l-3 730h99z" />
    <glyph glyph-name="eng" unicode="&#x14b;" horiz-adv-x="588" 
d="M342 508q85 0 131.5 -53t46.5 -148v-355q0 -91 -48.5 -141.5t-135.5 -50.5q-70 0 -116 29l29 70q18 -9 36 -13.5t39 -4.5q48 0 72 29t24 81v353q0 59 -30.5 91t-85.5 32q-62 0 -96.5 -41t-34.5 -115v-271h-100v498h100v-173h2q0 87 44 135t123 48z" />
    <glyph glyph-name="Omacron" unicode="&#x14c;" horiz-adv-x="757" 
d="M527 937v-73h-296v73h296zM379 -10q-78 0 -139 26t-103 74.5t-64.5 119t-22.5 160.5t22.5 160.5t64.5 119t103 74.5t139 26q77 0 138 -26t103 -74.5t64.5 -119t22.5 -160.5t-22.5 -160.5t-64.5 -119t-103 -74.5t-138 -26zM379 76q104 0 162 77t58 217t-58 217t-162 77
q-106 0 -164 -77t-58 -217t58 -217t164 -77z" />
    <glyph glyph-name="omacron" unicode="&#x14d;" horiz-adv-x="588" 
d="M442 695v-73h-296v73h296zM294 -10q-118 0 -183.5 68t-65.5 191t65.5 191t183.5 68t183.5 -68t65.5 -191t-65.5 -191t-183.5 -68zM294 71q70 0 108.5 46.5t38.5 131.5t-38.5 131.5t-108.5 46.5t-108.5 -46.5t-38.5 -131.5t38.5 -131.5t108.5 -46.5z" />
    <glyph glyph-name="Ohungarumlaut" unicode="&#x150;" horiz-adv-x="757" 
d="M458 949l-156 -139l-43 44l148 143zM609 949l-156 -139l-43 44l147 143zM379 -10q-78 0 -139 26t-103 74.5t-64.5 119t-22.5 160.5t22.5 160.5t64.5 119t103 74.5t139 26q77 0 138 -26t103 -74.5t64.5 -119t22.5 -160.5t-22.5 -160.5t-64.5 -119t-103 -74.5t-138 -26z
M379 76q104 0 162 77t58 217t-58 217t-162 77q-106 0 -164 -77t-58 -217t58 -217t164 -77z" />
    <glyph glyph-name="ohungarumlaut" unicode="&#x151;" horiz-adv-x="588" 
d="M373 707l-156 -139l-43 44l148 143zM524 707l-156 -139l-43 44l147 143zM294 -10q-118 0 -183.5 68t-65.5 191t65.5 191t183.5 68t183.5 -68t65.5 -191t-65.5 -191t-183.5 -68zM294 71q70 0 108.5 46.5t38.5 131.5t-38.5 131.5t-108.5 46.5t-108.5 -46.5t-38.5 -131.5
t38.5 -131.5t108.5 -46.5z" />
    <glyph glyph-name="OE" unicode="&#x152;" horiz-adv-x="1144" 
d="M1102 83v-83h-499v257h-2q0 -62 -18 -111.5t-52 -84t-83 -53t-111 -18.5q-68 0 -121 26t-90 75t-56.5 119.5t-19.5 159.5t19.5 159.5t56.5 119.5t90 75t121 26q62 0 111 -18.5t83 -53t52 -84t18 -111.5h2v257h488v-83h-383v-234h348v-84h-348v-256h394zM380 76
q54 0 97 21t72.5 59.5t45 93t15.5 120.5t-15.5 120.5t-45 93t-72.5 59.5t-97 21q-106 0 -164 -77.5t-58 -216.5t58 -216.5t164 -77.5z" />
    <glyph glyph-name="oe" unicode="&#x153;" horiz-adv-x="952" 
d="M908 235h-373q3 -79 39 -123t99 -44q56 0 92 28.5t45 79.5h98q-12 -88 -74 -137t-161 -49q-96 0 -155 50t-76 141h-2q0 -90 -49.5 -140.5t-138.5 -50.5q-98 0 -152.5 68t-54.5 191t54.5 191t152.5 68q89 0 138.5 -50t49.5 -141h2q17 91 76 141t155 50q112 0 173.5 -68
t61.5 -191v-14zM673 430q-60 0 -95.5 -40t-41.5 -113h273q-6 73 -41 113t-95 40zM295 71q70 0 108.5 48.5t38.5 129.5t-38.5 129.5t-108.5 48.5t-108.5 -46.5t-38.5 -131.5t38.5 -131.5t108.5 -46.5z" />
    <glyph glyph-name="Racute" unicode="&#x154;" horiz-adv-x="678" 
d="M270 828l-30 55l182 98l33 -60zM649 0h-118l-176 310h-160v-310h-105v740h272q125 0 194 -54.5t69 -151.5q0 -106 -68 -164t-190 -58v-2q46 0 88 -25t69 -73zM369 390q71 0 109.5 35.5t38.5 100.5q0 62 -39 96.5t-109 34.5h-174v-267h174z" />
    <glyph glyph-name="racute" unicode="&#x155;" horiz-adv-x="417" 
d="M161 586l-30 55l182 98l33 -60zM334 508q21 0 41.5 -4t35.5 -11l-30 -93q-14 8 -33 13t-39 5q-65 0 -100.5 -47.5t-35.5 -133.5v-237h-100v498h100v-195h2q0 97 42 151t117 54z" />
    <glyph glyph-name="Rcommaaccent" unicode="&#x156;" horiz-adv-x="678" 
d="M649 0h-118l-176 310h-160v-310h-105v740h272q125 0 194 -54.5t69 -151.5q0 -106 -68 -164t-190 -58v-2q46 0 88 -25t69 -73zM369 390q71 0 109.5 35.5t38.5 100.5q0 62 -39 96.5t-109 34.5h-174v-267h174zM297 -71h96v-63q0 -42 -23.5 -67t-72.5 -39v34q45 8 64.5 23.5
t24.5 38.5h-89v73z" />
    <glyph glyph-name="rcommaaccent" unicode="&#x157;" horiz-adv-x="417" 
d="M334 508q21 0 41.5 -4t35.5 -11l-30 -93q-14 8 -33 13t-39 5q-65 0 -100.5 -47.5t-35.5 -133.5v-237h-100v498h100v-195h2q0 97 42 151t117 54zM76 -71h96v-63q0 -42 -23.5 -67t-72.5 -39v34q45 8 64.5 23.5t24.5 38.5h-89v73z" />
    <glyph glyph-name="Rcaron" unicode="&#x158;" horiz-adv-x="678" 
d="M151 976h81l82 -154h2l81 154h81l-91 -164h-145zM649 0h-118l-176 310h-160v-310h-105v740h272q125 0 194 -54.5t69 -151.5q0 -106 -68 -164t-190 -58v-2q46 0 88 -25t69 -73zM369 390q71 0 109.5 35.5t38.5 100.5q0 62 -39 96.5t-109 34.5h-174v-267h174z" />
    <glyph glyph-name="rcaron" unicode="&#x159;" horiz-adv-x="417" 
d="M43 734h81l82 -154h2l81 154h81l-91 -164h-145zM334 508q21 0 41.5 -4t35.5 -11l-30 -93q-14 8 -33 13t-39 5q-65 0 -100.5 -47.5t-35.5 -133.5v-237h-100v498h100v-195h2q0 97 42 151t117 54z" />
    <glyph glyph-name="Sacute" unicode="&#x15a;" horiz-adv-x="669" 
d="M473 921l-185 -93l-30 55l182 98zM333 -10q-130 0 -207 69.5t-86 196.5h104q6 -85 56 -132.5t135 -47.5q88 0 136 34t48 97q0 38 -17 61.5t-45 37.5t-64.5 21t-75.5 13q-45 7 -91 16.5t-82.5 30t-59.5 55.5t-23 94q0 104 71.5 159t200.5 55q60 0 108.5 -17.5t83.5 -50
t55.5 -79.5t24.5 -107h-103q-5 80 -50.5 124t-122.5 44t-119.5 -31.5t-42.5 -89.5q0 -33 15.5 -53t42 -32t60.5 -18.5t71 -12.5q47 -8 95 -18t87 -31.5t63.5 -60t24.5 -101.5q0 -107 -77 -166.5t-216 -59.5z" />
    <glyph glyph-name="sacute" unicode="&#x15b;" horiz-adv-x="512" 
d="M395 679l-185 -93l-30 55l182 98zM255 -10q-103 0 -160 45t-57 126h95q0 -49 32 -76.5t90 -27.5q57 0 88.5 20.5t31.5 58.5q0 24 -11.5 38.5t-30.5 23.5t-44 14.5t-52 10.5q-32 5 -65 12.5t-59.5 22t-43 39t-16.5 65.5q0 69 53 107.5t149 38.5t149 -43.5t53 -121.5h-95
q0 47 -28 73t-79 26q-50 0 -77.5 -19t-27.5 -53q0 -20 10.5 -32t28 -20.5t40.5 -13.5t49 -9q33 -6 67.5 -14t62.5 -23.5t46 -42.5t18 -70q0 -73 -57 -114t-160 -41z" />
    <glyph glyph-name="Scedilla" unicode="&#x15e;" horiz-adv-x="669" 
d="M333 -10q-130 0 -207 69.5t-86 196.5h104q6 -85 56 -132.5t135 -47.5q88 0 136 34t48 97q0 38 -17 61.5t-45 37.5t-64.5 21t-75.5 13q-45 7 -91 16.5t-82.5 30t-59.5 55.5t-23 94q0 104 71.5 159t200.5 55q60 0 108.5 -17.5t83.5 -50t55.5 -79.5t24.5 -107h-103
q-5 80 -50.5 124t-122.5 44t-119.5 -31.5t-42.5 -89.5q0 -33 15.5 -53t42 -32t60.5 -18.5t71 -12.5q47 -8 95 -18t87 -31.5t63.5 -60t24.5 -101.5q0 -107 -77 -166.5t-216 -59.5zM313 -240q-24 0 -48.5 5.5t-44.5 16.5v47q17 -11 38.5 -17t43.5 -6q35 0 54 13.5t19 36.5
q0 18 -12.5 28t-34.5 10q-17 1 -31.5 -5.5t-23.5 -17.5l-37 28q18 19 46.5 30t58.5 11q51 0 78.5 -21.5t27.5 -60.5q0 -47 -35 -72.5t-99 -25.5z" />
    <glyph glyph-name="scedilla" unicode="&#x15f;" horiz-adv-x="512" 
d="M255 -10q-103 0 -160 45t-57 126h95q0 -49 32 -76.5t90 -27.5q57 0 88.5 20.5t31.5 58.5q0 24 -11.5 38.5t-30.5 23.5t-44 14.5t-52 10.5q-32 5 -65 12.5t-59.5 22t-43 39t-16.5 65.5q0 69 53 107.5t149 38.5t149 -43.5t53 -121.5h-95q0 47 -28 73t-79 26
q-50 0 -77.5 -19t-27.5 -53q0 -20 10.5 -32t28 -20.5t40.5 -13.5t49 -9q33 -6 67.5 -14t62.5 -23.5t46 -42.5t18 -70q0 -73 -57 -114t-160 -41zM233 -240q-24 0 -48.5 5.5t-44.5 16.5v47q17 -11 38.5 -17t43.5 -6q35 0 54 13.5t19 36.5q0 18 -12.5 28t-34.5 10
q-17 1 -31.5 -5.5t-23.5 -17.5l-37 28q18 19 46.5 30t58.5 11q51 0 78.5 -21.5t27.5 -60.5q0 -47 -35 -72.5t-99 -25.5z" />
    <glyph glyph-name="Scaron" unicode="&#x160;" horiz-adv-x="669" 
d="M169 976h81l82 -154h2l81 154h81l-91 -164h-145zM356 427q47 -8 95 -18t87 -31.5t63.5 -60t24.5 -101.5q0 -107 -77 -166.5t-216 -59.5q-130 0 -207 69.5t-86 196.5h104q6 -85 56 -132.5t135 -47.5q88 0 136 34t48 97q0 38 -17 61.5t-45 37.5t-64.5 21t-75.5 13
q-45 7 -91 16.5t-82.5 30t-59.5 55.5t-23 94q0 104 71.5 159t200.5 55q60 0 108.5 -17.5t83.5 -50t55.5 -79.5t24.5 -107h-103q-5 80 -50.5 124t-122.5 44t-119.5 -31.5t-42.5 -89.5q0 -33 15.5 -53t42 -32t60.5 -18.5t71 -12.5z" />
    <glyph glyph-name="scaron" unicode="&#x161;" horiz-adv-x="512" 
d="M91 734h81l82 -154h2l81 154h81l-91 -164h-145zM278 295q33 -6 67.5 -14t62.5 -23.5t46 -42.5t18 -70q0 -73 -57 -114t-160 -41t-160 45t-57 126h95q0 -49 32 -76.5t90 -27.5q57 0 88.5 20.5t31.5 58.5q0 24 -11.5 38.5t-30.5 23.5t-44 14.5t-52 10.5q-32 5 -65 12.5
t-59.5 22t-43 39t-16.5 65.5q0 69 53 107.5t149 38.5t149 -43.5t53 -121.5h-95q0 47 -28 73t-79 26q-50 0 -77.5 -19t-27.5 -53q0 -20 10.5 -32t28 -20.5t40.5 -13.5t49 -9z" />
    <glyph glyph-name="uni0162" unicode="&#x162;" horiz-adv-x="589" 
d="M571 740v-83h-224v-657h-105v657h-224v83h553zM302 -60q51 0 78.5 -21.5t27.5 -60.5q0 -47 -35 -72.5t-99 -25.5q-24 0 -48.5 5.5t-44.5 16.5v47q17 -11 38.5 -17t43.5 -6q35 0 54 13.5t19 36.5q0 18 -12.5 28t-34.5 10q-17 1 -31.5 -5.5t-23.5 -17.5l-37 28
q18 19 46.5 30t58.5 11z" />
    <glyph glyph-name="uni0163" unicode="&#x163;" horiz-adv-x="384" 
d="M199 425v-271q0 -40 22.5 -61.5t64.5 -21.5q38 0 70 16v-76q-21 -10 -48 -15.5t-54 -5.5q-73 0 -114 40.5t-41 113.5v281h-77v73h84v170h100v-42q0 -44 -25.5 -76.5t-70.5 -49.5v-2h253v-73h-164zM201 -60q51 0 78.5 -21.5t27.5 -60.5q0 -47 -35 -72.5t-99 -25.5
q-24 0 -48.5 5.5t-44.5 16.5v47q17 -11 38.5 -17t43.5 -6q35 0 54 13.5t19 36.5q0 18 -12.5 28t-34.5 10q-17 1 -31.5 -5.5t-23.5 -17.5l-37 28q18 19 46.5 30t58.5 11z" />
    <glyph glyph-name="Tcaron" unicode="&#x164;" horiz-adv-x="589" 
d="M131 976h81l82 -154h2l81 154h81l-91 -164h-145zM571 657h-224v-657h-105v657h-224v83h553v-83z" />
    <glyph glyph-name="tcaron" unicode="&#x165;" horiz-adv-x="384" 
d="M324 552l-68 20l49 208l76 -20zM110 498h253v-73h-164v-271q0 -40 22.5 -61.5t64.5 -21.5q38 0 70 16v-76q-21 -10 -48 -15.5t-54 -5.5q-73 0 -114 40.5t-41 113.5v281h-77v73h84v170h100v-42q0 -44 -25.5 -76.5t-70.5 -49.5v-2z" />
    <glyph glyph-name="Tbar" unicode="&#x166;" horiz-adv-x="595" 
d="M350 657v-269h115v-41h-115v-347h-105v347h-116v41h116v269h-224v83h553v-83h-224z" />
    <glyph glyph-name="tbar" unicode="&#x167;" horiz-adv-x="397" 
d="M206 233v-79q0 -40 22.5 -61.5t64.5 -21.5q38 0 70 16v-76q-21 -10 -48 -15.5t-54 -5.5q-73 0 -114 40.5t-41 113.5v89h-76v41h76v151h-77v73h84v170h100v-42q0 -44 -25.5 -76.5t-70.5 -49.5v-2h253v-73h-164v-151h165v-41h-165z" />
    <glyph glyph-name="Utilde" unicode="&#x168;" horiz-adv-x="721" 
d="M408 805q-18 0 -31 7t-24 15t-21.5 15t-23.5 7q-14 0 -20.5 -13.5t-8.5 -33.5h-58q1 57 25.5 88.5t66.5 31.5q18 0 31 -6.5t23.5 -15t20.5 -15t24 -6.5t21 13t9 33h58q-1 -57 -26 -88.5t-66 -31.5zM539 740h99v-483q0 -126 -73 -196.5t-205 -70.5q-131 0 -204 70.5
t-73 196.5v483h104v-489q0 -83 46 -129t130 -46q83 0 129.5 46t46.5 129v489z" />
    <glyph glyph-name="utilde" unicode="&#x169;" horiz-adv-x="578" 
d="M337 563q-18 0 -31 7t-24 15t-21.5 15t-23.5 7q-14 0 -20.5 -13.5t-8.5 -33.5h-58q1 57 25.5 88.5t66.5 31.5q18 0 31 -6.5t23.5 -15t20.5 -15t24 -6.5t21 13t9 33h58q-1 -57 -26 -88.5t-66 -31.5zM505 498v-498h-100v173h-2q0 -87 -42.5 -135t-119.5 -48
q-82 0 -127.5 53t-45.5 148v307h100v-304q0 -59 29 -91t82 -32q60 0 93 41t33 115v271h100z" />
    <glyph glyph-name="Umacron" unicode="&#x16a;" horiz-adv-x="721" 
d="M510 937v-73h-296v73h296zM539 740h99v-483q0 -126 -73 -196.5t-205 -70.5q-131 0 -204 70.5t-73 196.5v483h104v-489q0 -83 46 -129t130 -46q83 0 129.5 46t46.5 129v489z" />
    <glyph glyph-name="umacron" unicode="&#x16b;" horiz-adv-x="578" 
d="M435 622h-296v73h296v-73zM505 498v-498h-100v173h-2q0 -87 -42.5 -135t-119.5 -48q-82 0 -127.5 53t-45.5 148v307h100v-304q0 -59 29 -91t82 -32q60 0 93 41t33 115v271h100z" />
    <glyph glyph-name="Uring" unicode="&#x16e;" horiz-adv-x="721" 
d="M363 795q-58 0 -90 29.5t-32 82.5q0 54 32 83.5t90 29.5t90 -29.5t32 -83.5q0 -53 -32 -82.5t-90 -29.5zM363 847q28 0 43 15.5t15 44.5q0 61 -58 61t-58 -61q0 -29 15 -44.5t43 -15.5zM539 740h99v-483q0 -126 -73 -196.5t-205 -70.5q-131 0 -204 70.5t-73 196.5v483
h104v-489q0 -83 46 -129t130 -46q83 0 129.5 46t46.5 129v489z" />
    <glyph glyph-name="uring" unicode="&#x16f;" horiz-adv-x="578" 
d="M287 553q-58 0 -90 29.5t-32 82.5q0 54 32 83.5t90 29.5t90 -29.5t32 -83.5q0 -53 -32 -82.5t-90 -29.5zM287 726q-58 0 -58 -61q0 -29 15 -44.5t43 -15.5t43 15.5t15 44.5q0 61 -58 61zM505 498v-498h-100v173h-2q0 -87 -42.5 -135t-119.5 -48q-82 0 -127.5 53
t-45.5 148v307h100v-304q0 -59 29 -91t82 -32q60 0 93 41t33 115v271h100z" />
    <glyph glyph-name="Uhungarumlaut" unicode="&#x170;" horiz-adv-x="721" 
d="M441 949l-156 -139l-43 44l148 143zM592 949l-156 -139l-43 44l147 143zM539 740h99v-483q0 -126 -73 -196.5t-205 -70.5q-131 0 -204 70.5t-73 196.5v483h104v-489q0 -83 46 -129t130 -46q83 0 129.5 46t46.5 129v489z" />
    <glyph glyph-name="uhungarumlaut" unicode="&#x171;" horiz-adv-x="578" 
d="M210 568l-43 44l148 143l51 -48zM318 612l147 143l52 -48l-156 -139zM405 498h100v-498h-100v173h-2q0 -87 -42.5 -135t-119.5 -48q-82 0 -127.5 53t-45.5 148v307h100v-304q0 -59 29 -91t82 -32q60 0 93 41t33 115v271z" />
    <glyph glyph-name="Uogonek" unicode="&#x172;" horiz-adv-x="721" 
d="M638 740v-483q0 -102 -48 -167.5t-137 -88.5h1q-45 -40 -70.5 -79.5t-25.5 -69.5q0 -31 33 -31q20 0 38.5 6t35.5 17v-61q-19 -11 -44 -17t-54 -6q-44 0 -68 19.5t-24 54.5q0 19 12.5 41t34.5 43.5t52 41t65 35.5l-1 3q-38 -8 -78 -8q-131 0 -204 70.5t-73 196.5v483h104
v-489q0 -83 46 -129t130 -46q83 0 129.5 46t46.5 129v489h99z" />
    <glyph glyph-name="uogonek" unicode="&#x173;" horiz-adv-x="578" 
d="M440 -179q20 0 38.5 6t35.5 17v-61q-19 -11 -44 -17t-54 -6q-44 0 -68 19.5t-24 54.5q0 25 15 53.5t39 53t54.5 41t62.5 16.5v2h-90v173h-2q0 -87 -42.5 -135t-119.5 -48q-82 0 -127.5 53t-45.5 148v307h100v-304q0 -59 29 -91t82 -32q60 0 93 41t33 115v271h100v-498
q-46 -40 -72 -79.5t-26 -68.5q0 -31 33 -31z" />
    <glyph glyph-name="Wcircumflex" unicode="&#x174;" horiz-adv-x="1030" 
d="M435 813h-81l91 164h145l91 -164h-81l-81 154h-2zM1004 740l-160 -740h-192l-137 730h-2l-135 -730h-193l-159 740h113l149 -730h2l138 730h177l140 -730h2l150 730h107z" />
    <glyph glyph-name="wcircumflex" unicode="&#x175;" horiz-adv-x="844" 
d="M340 571h-81l91 164h145l91 -164h-81l-81 154h-2zM818 498l-122 -498h-178l-95 491h-2l-95 -491h-177l-123 498h107l109 -491h2l95 491h170l94 -491h2l109 491h104z" />
    <glyph glyph-name="Ycircumflex" unicode="&#x176;" horiz-adv-x="676" 
d="M268 813h-81l91 164h145l91 -164h-81l-81 154h-2zM681 740l-365 -740h-114l137 283h-100l-225 457h121l216 -447h2l214 447h114z" />
    <glyph glyph-name="ycircumflex" unicode="&#x177;" horiz-adv-x="536" 
d="M189 571h-81l91 164h145l91 -164h-81l-81 154h-2zM513 498l-218 -728h-107l69 230h-83l-150 498h108l136 -491h2l136 491h107z" />
    <glyph glyph-name="Ydieresis" unicode="&#x178;" horiz-adv-x="676" 
d="M313 844h-95v113h95v-113zM483 844h-95v113h95v-113zM681 740l-365 -740h-114l137 283h-100l-225 457h121l216 -447h2l214 447h114z" />
    <glyph glyph-name="Zacute" unicode="&#x179;" horiz-adv-x="676" 
d="M298 828l-30 55l182 98l33 -60zM643 83v-83h-603v193l568 462v2h-554v83h566v-193l-568 -462v-2h591z" />
    <glyph glyph-name="zacute" unicode="&#x17a;" horiz-adv-x="524" 
d="M217 586l-30 55l182 98l33 -60zM489 72v-72h-445v168l414 255v2h-408v73h420v-168l-414 -256v-2h433z" />
    <glyph glyph-name="Zdotaccent" unicode="&#x17b;" horiz-adv-x="676" 
d="M393 844h-100v113h100v-113zM643 83v-83h-603v193l568 462v2h-554v83h566v-193l-568 -462v-2h591z" />
    <glyph glyph-name="zdotaccent" unicode="&#x17c;" horiz-adv-x="524" 
d="M312 602h-100v113h100v-113zM489 72v-72h-445v168l414 255v2h-408v73h420v-168l-414 -256v-2h433z" />
    <glyph glyph-name="Zcaron" unicode="&#x17d;" horiz-adv-x="676" 
d="M179 976h81l82 -154h2l81 154h81l-91 -164h-145zM643 83v-83h-603v193l568 462v2h-554v83h566v-193l-568 -462v-2h591z" />
    <glyph glyph-name="zcaron" unicode="&#x17e;" horiz-adv-x="524" 
d="M98 734h81l82 -154h2l81 154h81l-91 -164h-145zM489 72v-72h-445v168l414 255v2h-408v73h420v-168l-414 -256v-2h433z" />
    <glyph glyph-name="florin" unicode="&#x192;" horiz-adv-x="669" 
d="M552 669q-44 0 -72.5 -29t-37.5 -82l-27 -155h151v-41h-159l-37 -213q-14 -75 -63 -117t-124 -42q-33 0 -66 7t-59 19l21 73q17 -8 39.5 -13t46.5 -5q43 0 72 29t38 82l32 180h-146v41h153l33 188q14 75 63 117t124 42q33 0 66 -7t59 -19l-21 -73q-17 8 -39.5 13t-46.5 5
z" />
    <glyph glyph-name="Ohorn" unicode="&#x1a0;" horiz-adv-x="757" 
d="M379 -10q-78 0 -139 26t-103 74.5t-64.5 119t-22.5 160.5t22.5 160.5t64.5 119t103 74.5t139 26q64 0 117 -18q21 4 36.5 24.5t15.5 73.5h92q0 -47 -27 -79t-74 -38q81 -42 124.5 -129t43.5 -214q0 -90 -22.5 -160.5t-64.5 -119t-103 -74.5t-138 -26zM379 76
q104 0 162 77t58 217t-58 217t-162 77q-106 0 -164 -77t-58 -217t58 -217t164 -77z" />
    <glyph glyph-name="ohorn" unicode="&#x1a1;" horiz-adv-x="588" 
d="M294 -10q-118 0 -183.5 68t-65.5 191t65.5 191t183.5 68q57 0 103 -17q20 5 33 26t13 71h92q0 -46 -26.5 -78t-71.5 -38q51 -32 78.5 -88.5t27.5 -134.5q0 -123 -65.5 -191t-183.5 -68zM294 71q70 0 108.5 46.5t38.5 131.5t-38.5 131.5t-108.5 46.5t-108.5 -46.5
t-38.5 -131.5t38.5 -131.5t108.5 -46.5z" />
    <glyph glyph-name="Uhorn" unicode="&#x1af;" horiz-adv-x="721" 
d="M539 740h10q12 1 23.5 5t20.5 15t14.5 30t5.5 50h92q0 -38 -17.5 -66t-49.5 -42v-475q0 -126 -73 -196.5t-205 -70.5q-131 0 -204 70.5t-73 196.5v483h104v-489q0 -83 46 -129t130 -46q83 0 129.5 46t46.5 129v489z" />
    <glyph glyph-name="uhorn" unicode="&#x1b0;" horiz-adv-x="578" 
d="M414 498q12 1 23.5 5t20.5 15t14.5 30t5.5 50h92q0 -37 -17.5 -65t-47.5 -42v-491h-100v173h-2q0 -87 -42.5 -135t-119.5 -48q-82 0 -127.5 53t-45.5 148v307h100v-304q0 -59 29 -91t82 -32q60 0 93 41t33 115v271h9z" />
    <glyph glyph-name="Scommaaccent" unicode="&#x218;" horiz-adv-x="669" 
d="M356 427q47 -8 95 -18t87 -31.5t63.5 -60t24.5 -101.5q0 -107 -77 -166.5t-216 -59.5q-130 0 -207 69.5t-86 196.5h104q6 -85 56 -132.5t135 -47.5q88 0 136 34t48 97q0 38 -17 61.5t-45 37.5t-64.5 21t-75.5 13q-45 7 -91 16.5t-82.5 30t-59.5 55.5t-23 94
q0 104 71.5 159t200.5 55q60 0 108.5 -17.5t83.5 -50t55.5 -79.5t24.5 -107h-103q-5 80 -50.5 124t-122.5 44t-119.5 -31.5t-42.5 -89.5q0 -33 15.5 -53t42 -32t60.5 -18.5t71 -12.5zM285 -71h96v-63q0 -42 -23.5 -67t-72.5 -39v34q45 8 64.5 23.5t24.5 38.5h-89v73z" />
    <glyph glyph-name="scommaaccent" unicode="&#x219;" horiz-adv-x="512" 
d="M278 295q33 -6 67.5 -14t62.5 -23.5t46 -42.5t18 -70q0 -73 -57 -114t-160 -41t-160 45t-57 126h95q0 -49 32 -76.5t90 -27.5q57 0 88.5 20.5t31.5 58.5q0 24 -11.5 38.5t-30.5 23.5t-44 14.5t-52 10.5q-32 5 -65 12.5t-59.5 22t-43 39t-16.5 65.5q0 69 53 107.5
t149 38.5t149 -43.5t53 -121.5h-95q0 47 -28 73t-79 26q-50 0 -77.5 -19t-27.5 -53q0 -20 10.5 -32t28 -20.5t40.5 -13.5t49 -9zM206 -71h96v-63q0 -42 -23.5 -67t-72.5 -39v34q45 8 64.5 23.5t24.5 38.5h-89v73z" />
    <glyph glyph-name="uni021A" unicode="&#x21a;" horiz-adv-x="589" 
d="M571 657h-224v-657h-105v657h-224v83h553v-83zM247 -71h96v-63q0 -42 -23.5 -67t-72.5 -39v34q45 8 64.5 23.5t24.5 38.5h-89v73z" />
    <glyph glyph-name="uni021B" unicode="&#x21b;" horiz-adv-x="384" 
d="M199 425v-271q0 -40 22.5 -61.5t64.5 -21.5q38 0 70 16v-76q-21 -10 -48 -15.5t-54 -5.5q-73 0 -114 40.5t-41 113.5v281h-77v73h84v170h100v-42q0 -44 -25.5 -76.5t-70.5 -49.5v-2h253v-73h-164zM145 -71h96v-63q0 -42 -23.5 -67t-72.5 -39v34q45 8 64.5 23.5t24.5 38.5
h-89v73z" />
    <glyph glyph-name="uni0237" unicode="&#x237;" horiz-adv-x="246" 
d="M173 498v-728h-100v728h100z" />
    <glyph glyph-name="circumflex" unicode="&#x2c6;" horiz-adv-x="356" 
d="M341 571h-81l-81 154h-2l-82 -154h-81l91 164h145z" />
    <glyph glyph-name="caron" unicode="&#x2c7;" horiz-adv-x="356" 
d="M341 734l-91 -164h-145l-91 164h81l82 -154h2l81 154h81z" />
    <glyph glyph-name="breve" unicode="&#x2d8;" horiz-adv-x="347" 
d="M325 735q-1 -80 -40.5 -124t-110.5 -44q-72 0 -111.5 44t-40.5 124h71q1 -50 22 -77.5t59 -27.5q37 0 58 27.5t22 77.5h71v0z" />
    <glyph glyph-name="dotaccent" unicode="&#x2d9;" horiz-adv-x="223" 
d="M62 715h100v-113h-100v113z" />
    <glyph glyph-name="ring" unicode="&#x2da;" horiz-adv-x="290" 
d="M145 553q-58 0 -90 29.5t-32 82.5q0 54 32 83.5t90 29.5t90 -29.5t32 -83.5q0 -53 -32 -82.5t-90 -29.5zM145 605q28 0 43 15.5t15 44.5q0 61 -58 61t-58 -61q0 -29 15 -44.5t43 -15.5z" />
    <glyph glyph-name="ogonek" unicode="&#x2db;" horiz-adv-x="230" 
d="M212 -217q-19 -11 -44 -17t-54 -6q-44 0 -68 19.5t-24 54.5q0 25 15 53.5t39 53t54.5 41t62.5 16.5v2h10q-46 -40 -72 -79.5t-26 -68.5q0 -31 33 -31q20 0 38.5 6t35.5 17v-61v0z" />
    <glyph glyph-name="tilde" unicode="&#x2dc;" horiz-adv-x="419" 
d="M277 594q-26 0 -44.5 9t-34.5 20.5t-31 20.5t-33 9q-23 0 -36.5 -17t-16.5 -46h-49q0 66 29 102t81 36q25 0 44 -9t35 -20.5t31 -20.5t33 -9q22 0 36 17t16 46h50q-1 -66 -30 -102t-80 -36z" />
    <glyph glyph-name="hungarumlaut" unicode="&#x2dd;" horiz-adv-x="410" 
d="M227 707l-156 -139l-43 44l148 143zM378 707l-156 -139l-43 44l147 143z" />
    <glyph glyph-name="gravecomb" unicode="&#x300;" horiz-adv-x="0" 
d="M-11 641l-30 -55l-185 93l33 60z" />
    <glyph glyph-name="acutecomb" unicode="&#x301;" horiz-adv-x="0" 
d="M-16 679l-185 -93l-30 55l182 98z" />
    <glyph glyph-name="uni0302" unicode="&#x302;" horiz-adv-x="0" 
d="M-15 571h-81l-81 154h-2l-82 -154h-81l91 164h145z" />
    <glyph glyph-name="tildecomb" unicode="&#x303;" horiz-adv-x="0" 
d="M-142 597q-26 0 -44.5 9t-34.5 20.5t-31 20.5t-33 9q-23 0 -36.5 -17t-16.5 -46h-49q0 66 29 102t81 36q25 0 44 -9t35 -20.5t31 -20.5t33 -9q22 0 36 17t16 46h50q-1 -66 -30 -102t-80 -36z" />
    <glyph glyph-name="uni0304" unicode="&#x304;" horiz-adv-x="0" 
d="M-21 695v-73h-296v73h296z" />
    <glyph glyph-name="uni0306" unicode="&#x306;" horiz-adv-x="0" 
d="M-22 735q-1 -80 -40.5 -124t-110.5 -44q-72 0 -111.5 44t-40.5 124h71q1 -50 22 -77.5t59 -27.5q37 0 58 27.5t22 77.5h71v0z" />
    <glyph glyph-name="uni0307" unicode="&#x307;" horiz-adv-x="0" 
d="M-161 715h100v-113h-100v113z" />
    <glyph glyph-name="uni0308" unicode="&#x308;" horiz-adv-x="0" 
d="M-332 715h95v-113h-95v113zM-162 715h95v-113h-95v113z" />
    <glyph glyph-name="uni030A" unicode="&#x30a;" horiz-adv-x="0" 
d="M-145 553q-58 0 -90 29.5t-32 82.5q0 54 32 83.5t90 29.5t90 -29.5t32 -83.5q0 -53 -32 -82.5t-90 -29.5zM-145 605q28 0 43 15.5t15 44.5q0 61 -58 61t-58 -61q0 -29 15 -44.5t43 -15.5z" />
    <glyph glyph-name="uni030B" unicode="&#x30b;" horiz-adv-x="0" 
d="M-183 707l-156 -139l-43 44l148 143zM-32 707l-156 -139l-43 44l147 143z" />
    <glyph glyph-name="uni030C" unicode="&#x30c;" horiz-adv-x="0" 
d="M-15 734l-91 -164h-145l-91 164h81l82 -154h2l81 154h81z" />
    <glyph glyph-name="uni0312" unicode="&#x312;" horiz-adv-x="0" 
d="M-20 732q-45 -5 -65 -18t-25 -33h90v-81h-97v67q0 41 23.5 64t73.5 34v-33v0z" />
    <glyph glyph-name="uni0326" unicode="&#x326;" horiz-adv-x="0" 
d="M-31 -71v-63q0 -42 -23.5 -67t-72.5 -39v34q45 8 64.5 23.5t24.5 38.5h-89v73h96z" />
    <glyph glyph-name="uni0327" unicode="&#x327;" horiz-adv-x="0" 
d="M-159 -240q-24 0 -48.5 5.5t-44.5 16.5v47q17 -11 38.5 -17t43.5 -6q35 0 54 13.5t19 36.5q0 18 -12.5 28t-34.5 10q-17 1 -31.5 -5.5t-23.5 -17.5l-37 28q18 19 46.5 30t58.5 11q51 0 78.5 -21.5t27.5 -60.5q0 -47 -35 -72.5t-99 -25.5z" />
    <glyph glyph-name="uni0328" unicode="&#x328;" horiz-adv-x="0" 
d="M-18 -217q-19 -11 -44 -17t-54 -6q-44 0 -68 19.5t-24 54.5q0 25 15 53.5t39 53t54.5 41t62.5 16.5v2h10q-46 -40 -72 -79.5t-26 -68.5q0 -31 33 -31q20 0 38.5 6t35.5 17v-61v0z" />
    <glyph glyph-name="uni0335" unicode="&#x335;" horiz-adv-x="0" 
d="M-53 374v-41h-336v41h336z" />
    <glyph glyph-name="uni0336" unicode="&#x336;" horiz-adv-x="0" 
d="M-737 374h684v-41h-684v41z" />
    <glyph glyph-name="uni0337" unicode="&#x337;" horiz-adv-x="0" 
d="M0 513l-365 -553l-39 25l365 553z" />
    <glyph glyph-name="uni0338" unicode="&#x338;" horiz-adv-x="0" 
d="M-21 751l-481 -789l-44 27l481 789z" />
    <glyph glyph-name="uni0394" unicode="&#x394;" horiz-adv-x="697" 
d="M686 0h-675l246 740h185zM547 83l-200 647h-2l-201 -647h403z" />
    <glyph glyph-name="uni03A9" unicode="&#x3a9;" horiz-adv-x="788" 
d="M489 84h231v-84h-277v84q86 0 133.5 76.5t47.5 214.5q0 137 -60 213t-169 76q-110 0 -170.5 -75t-60.5 -209q0 -140 47.5 -218t133.5 -78v-84h-277v84h231v2q-57 0 -102.5 22t-76.5 63.5t-47.5 101.5t-16.5 136q0 80 23 143.5t66.5 107.5t106.5 67t143 23q79 0 142 -23
t106 -67t66 -107.5t23 -143.5q0 -76 -16.5 -136t-47.5 -101.5t-76.5 -63.5t-102.5 -22v-2z" />
    <glyph glyph-name="uni03BC" unicode="&#x3bc;" horiz-adv-x="583" 
d="M510 498v-498h-100v173h-2q0 -87 -42.5 -135t-119.5 -48q-58 0 -97.5 26.5t-59.5 76.5l84 -320v-3h-100v728h100v-304q0 -59 29 -91t82 -32q60 0 93 41t33 115v271h100z" />
    <glyph glyph-name="pi" unicode="&#x3c0;" horiz-adv-x="629" 
d="M610 425h-90v-425h-100v425h-210v-425h-100v425h-90v73h590v-73z" />
    <glyph glyph-name="Wgrave" unicode="&#x1e80;" horiz-adv-x="1030" 
d="M562 828l-185 93l33 60l182 -98zM1004 740l-160 -740h-192l-137 730h-2l-135 -730h-193l-159 740h113l149 -730h2l138 730h177l140 -730h2l150 730h107z" />
    <glyph glyph-name="wgrave" unicode="&#x1e81;" horiz-adv-x="844" 
d="M467 586l-185 93l33 60l182 -98zM818 498l-122 -498h-178l-95 491h-2l-95 -491h-177l-123 498h107l109 -491h2l95 491h170l94 -491h2l109 491h104z" />
    <glyph glyph-name="Wacute" unicode="&#x1e82;" horiz-adv-x="1030" 
d="M472 828l-30 55l182 98l33 -60zM1004 740l-160 -740h-192l-137 730h-2l-135 -730h-193l-159 740h113l149 -730h2l138 730h177l140 -730h2l150 730h107z" />
    <glyph glyph-name="wacute" unicode="&#x1e83;" horiz-adv-x="844" 
d="M378 586l-30 55l182 98l33 -60zM818 498l-122 -498h-178l-95 491h-2l-95 -491h-177l-123 498h107l109 -491h2l95 491h170l94 -491h2l109 491h104z" />
    <glyph glyph-name="Wdieresis" unicode="&#x1e84;" horiz-adv-x="1030" 
d="M480 844h-95v113h95v-113zM650 844h-95v113h95v-113zM1004 740l-160 -740h-192l-137 730h-2l-135 -730h-193l-159 740h113l149 -730h2l138 730h177l140 -730h2l150 730h107z" />
    <glyph glyph-name="wdieresis" unicode="&#x1e85;" horiz-adv-x="844" 
d="M385 602h-95v113h95v-113zM555 602h-95v113h95v-113zM818 498l-122 -498h-178l-95 491h-2l-95 -491h-177l-123 498h107l109 -491h2l95 491h170l94 -491h2l109 491h104z" />
    <glyph glyph-name="uni1E9E" unicode="&#x1e9e;" horiz-adv-x="679" 
d="M336 415q71 0 127 -14.5t94.5 -42t59 -67.5t20.5 -90q0 -100 -70 -155.5t-197 -55.5q-27 0 -54 3t-47 9v84q20 -5 44 -7.5t50 -2.5q80 0 124 34t44 94q0 65 -50.5 101t-141.5 36h-49v76q89 3 138 37.5t49 92.5q0 55 -37 86t-105 31q-69 0 -108 -37t-39 -104v-523h-104
v519q0 109 66 170t185 61q118 0 183.5 -45.5t65.5 -126.5q0 -76 -68 -118.5t-190 -42.5v-2h10v0z" />
    <glyph glyph-name="uni1EA0" unicode="&#x1ea0;" horiz-adv-x="697" 
d="M298 -72h98v-110h-98v110zM515 186h-339l-58 -186h-107l246 740h185l244 -740h-113zM489 270l-142 460h-2l-143 -460h287z" />
    <glyph glyph-name="uni1EA1" unicode="&#x1ea1;" 
d="M254 -72h98v-110h-98v110zM535 498v-498h-100v166h-2q0 -83 -47.5 -129.5t-133.5 -46.5q-98 0 -152.5 68t-54.5 191t54.5 191t152.5 68q86 0 133.5 -46.5t47.5 -129.5h2v166h100zM295 71q70 0 108.5 48.5t38.5 129.5t-38.5 129.5t-108.5 48.5t-108.5 -46.5t-38.5 -131.5
t38.5 -131.5t108.5 -46.5z" />
    <glyph glyph-name="uni1EA2" unicode="&#x1ea2;" horiz-adv-x="697" 
d="M260 888q0 40 25 64t66 24q42 0 66.5 -21t24.5 -56q0 -26 -16 -52.5t-46 -44.5h-73q33 20 50.5 44.5t17.5 42.5q0 19 -8 24.5t-18 5.5t-18.5 -5.5t-10.5 -25.5h-60zM515 186h-339l-58 -186h-107l246 740h185l244 -740h-113zM489 270l-142 460h-2l-143 -460h287z" />
    <glyph glyph-name="uni1EA3" unicode="&#x1ea3;" 
d="M201 646q0 40 25 64t66 24q42 0 66.5 -21t24.5 -56q0 -26 -16 -52.5t-46 -44.5h-73q33 20 50.5 44.5t17.5 42.5q0 19 -8 24.5t-18 5.5t-18.5 -5.5t-10.5 -25.5h-60zM535 498v-498h-100v166h-2q0 -83 -47.5 -129.5t-133.5 -46.5q-98 0 -152.5 68t-54.5 191t54.5 191
t152.5 68q86 0 133.5 -46.5t47.5 -129.5h2v166h100zM295 71q70 0 108.5 48.5t38.5 129.5t-38.5 129.5t-108.5 48.5t-108.5 -46.5t-38.5 -131.5t38.5 -131.5t108.5 -46.5z" />
    <glyph glyph-name="uni1EA4" unicode="&#x1ea4;" horiz-adv-x="697" 
d="M474 866l62 125h90l-79 -125h-73zM515 186h-339l-58 -186h-107l246 740h185l244 -740h-113zM489 270l-142 460h-2l-143 -460h287zM352 905h-4l-57 -113h-76l65 125h140l65 -125h-76z" />
    <glyph glyph-name="uni1EA5" unicode="&#x1ea5;" 
d="M418 624l62 125h90l-79 -125h-73zM535 498v-498h-100v166h-2q0 -83 -47.5 -129.5t-133.5 -46.5q-98 0 -152.5 68t-54.5 191t54.5 191t152.5 68q86 0 133.5 -46.5t47.5 -129.5h2v166h100zM295 71q70 0 108.5 48.5t38.5 129.5t-38.5 129.5t-108.5 48.5t-108.5 -46.5
t-38.5 -131.5t38.5 -131.5t108.5 -46.5zM296 663h-4l-57 -113h-76l65 125h140l65 -125h-76z" />
    <glyph glyph-name="uni1EA6" unicode="&#x1ea6;" horiz-adv-x="697" 
d="M496 866l-79 125h90l62 -125h-73zM515 186h-339l-58 -186h-107l246 740h185l244 -740h-113zM489 270l-142 460h-2l-143 -460h287zM352 905h-4l-57 -113h-76l65 125h140l65 -125h-76z" />
    <glyph glyph-name="uni1EA7" unicode="&#x1ea7;" 
d="M440 624l-79 125h90l62 -125h-73zM535 498v-498h-100v166h-2q0 -83 -47.5 -129.5t-133.5 -46.5q-98 0 -152.5 68t-54.5 191t54.5 191t152.5 68q86 0 133.5 -46.5t47.5 -129.5h2v166h100zM295 71q70 0 108.5 48.5t38.5 129.5t-38.5 129.5t-108.5 48.5t-108.5 -46.5
t-38.5 -131.5t38.5 -131.5t108.5 -46.5zM296 663h-4l-57 -113h-76l65 125h140l65 -125h-76z" />
    <glyph glyph-name="uni1EA8" unicode="&#x1ea8;" horiz-adv-x="697" 
d="M429 952q0 40 25 64t66 24q42 0 66.5 -21t24.5 -56q0 -26 -16 -52.5t-46 -44.5h-73q33 20 50.5 44.5t17.5 42.5q0 19 -8 24.5t-18 5.5t-18.5 -5.5t-10.5 -25.5h-60zM515 186h-339l-58 -186h-107l246 740h185l244 -740h-113zM489 270l-142 460h-2l-143 -460h287zM352 905
h-4l-57 -113h-76l65 125h140l65 -125h-76z" />
    <glyph glyph-name="uni1EA9" unicode="&#x1ea9;" 
d="M373 710q0 40 25 64t66 24q42 0 66.5 -21t24.5 -56q0 -26 -16 -52.5t-46 -44.5h-73q33 20 50.5 44.5t17.5 42.5q0 19 -8 24.5t-18 5.5t-18.5 -5.5t-10.5 -25.5h-60zM535 498v-498h-100v166h-2q0 -83 -47.5 -129.5t-133.5 -46.5q-98 0 -152.5 68t-54.5 191t54.5 191
t152.5 68q86 0 133.5 -46.5t47.5 -129.5h2v166h100zM295 71q70 0 108.5 48.5t38.5 129.5t-38.5 129.5t-108.5 48.5t-108.5 -46.5t-38.5 -131.5t38.5 -131.5t108.5 -46.5zM296 663h-4l-57 -113h-76l65 125h140l65 -125h-76z" />
    <glyph glyph-name="uni1EAA" unicode="&#x1eaa;" horiz-adv-x="697" 
d="M397 959q-18 0 -31 7t-24 15t-21.5 15t-23.5 7q-14 0 -20.5 -13.5t-8.5 -33.5h-58q1 57 25.5 88.5t66.5 31.5q18 0 31 -6.5t23.5 -15t20.5 -15t24 -6.5t21 13t9 33h58q-1 -57 -26 -88.5t-66 -31.5zM515 186h-339l-58 -186h-107l246 740h185l244 -740h-113zM489 270
l-142 460h-2l-143 -460h287zM352 905h-4l-57 -113h-76l65 125h140l65 -125h-76z" />
    <glyph glyph-name="uni1EAB" unicode="&#x1eab;" 
d="M341 717q-18 0 -31 7t-24 15t-21.5 15t-23.5 7q-14 0 -20.5 -13.5t-8.5 -33.5h-58q1 57 25.5 88.5t66.5 31.5q18 0 31 -6.5t23.5 -15t20.5 -15t24 -6.5t21 13t9 33h58q-1 -57 -26 -88.5t-66 -31.5zM535 498v-498h-100v166h-2q0 -83 -47.5 -129.5t-133.5 -46.5
q-98 0 -152.5 68t-54.5 191t54.5 191t152.5 68q86 0 133.5 -46.5t47.5 -129.5h2v166h100zM295 71q70 0 108.5 48.5t38.5 129.5t-38.5 129.5t-108.5 48.5t-108.5 -46.5t-38.5 -131.5t38.5 -131.5t108.5 -46.5zM296 663h-4l-57 -113h-76l65 125h140l65 -125h-76z" />
    <glyph glyph-name="uni1EAC" unicode="&#x1eac;" horiz-adv-x="697" 
d="M298 -72h98v-110h-98v110zM515 186h-339l-58 -186h-107l246 740h185l244 -740h-113zM489 270l-142 460h-2l-143 -460h287zM352 905h-4l-57 -113h-76l65 125h140l65 -125h-76z" />
    <glyph glyph-name="uni1EAD" unicode="&#x1ead;" 
d="M254 -72h98v-110h-98v110zM535 498v-498h-100v166h-2q0 -83 -47.5 -129.5t-133.5 -46.5q-98 0 -152.5 68t-54.5 191t54.5 191t152.5 68q86 0 133.5 -46.5t47.5 -129.5h2v166h100zM295 71q70 0 108.5 48.5t38.5 129.5t-38.5 129.5t-108.5 48.5t-108.5 -46.5t-38.5 -131.5
t38.5 -131.5t108.5 -46.5zM296 663h-4l-57 -113h-76l65 125h140l65 -125h-76z" />
    <glyph glyph-name="uni1EAE" unicode="&#x1eae;" horiz-adv-x="697" 
d="M308 930l62 125h96l-79 -125h-79zM515 186h-339l-58 -186h-107l246 740h185l244 -740h-113zM489 270l-142 460h-2l-143 -460h287zM350 792q-66 0 -100.5 32t-34.5 87h75q0 -29 16.5 -42t43.5 -13t43 13t16 42h76q0 -55 -34.5 -87t-100.5 -32z" />
    <glyph glyph-name="uni1EAF" unicode="&#x1eaf;" 
d="M252 688l62 125h96l-79 -125h-79zM535 498v-498h-100v166h-2q0 -83 -47.5 -129.5t-133.5 -46.5q-98 0 -152.5 68t-54.5 191t54.5 191t152.5 68q86 0 133.5 -46.5t47.5 -129.5h2v166h100zM295 71q70 0 108.5 48.5t38.5 129.5t-38.5 129.5t-108.5 48.5t-108.5 -46.5
t-38.5 -131.5t38.5 -131.5t108.5 -46.5zM294 550q-66 0 -100.5 32t-34.5 87h75q0 -29 16.5 -42t43.5 -13t43 13t16 42h76q0 -55 -34.5 -87t-100.5 -32z" />
    <glyph glyph-name="uni1EB0" unicode="&#x1eb0;" horiz-adv-x="697" 
d="M317 930l-79 125h96l62 -125h-79zM515 186h-339l-58 -186h-107l246 740h185l244 -740h-113zM489 270l-142 460h-2l-143 -460h287zM350 792q-66 0 -100.5 32t-34.5 87h75q0 -29 16.5 -42t43.5 -13t43 13t16 42h76q0 -55 -34.5 -87t-100.5 -32z" />
    <glyph glyph-name="uni1EB1" unicode="&#x1eb1;" 
d="M261 688l-79 125h96l62 -125h-79zM535 498v-498h-100v166h-2q0 -83 -47.5 -129.5t-133.5 -46.5q-98 0 -152.5 68t-54.5 191t54.5 191t152.5 68q86 0 133.5 -46.5t47.5 -129.5h2v166h100zM295 71q70 0 108.5 48.5t38.5 129.5t-38.5 129.5t-108.5 48.5t-108.5 -46.5
t-38.5 -131.5t38.5 -131.5t108.5 -46.5zM294 550q-66 0 -100.5 32t-34.5 87h75q0 -29 16.5 -42t43.5 -13t43 13t16 42h76q0 -55 -34.5 -87t-100.5 -32z" />
    <glyph glyph-name="uni1EB2" unicode="&#x1eb2;" horiz-adv-x="697" 
d="M264 1015q0 40 25 64t66 24q42 0 66.5 -21t24.5 -56q0 -26 -16 -52.5t-46 -44.5h-73q33 20 50.5 44.5t17.5 42.5q0 19 -8 24.5t-18 5.5t-18.5 -5.5t-10.5 -25.5h-60zM515 186h-339l-58 -186h-107l246 740h185l244 -740h-113zM489 270l-142 460h-2l-143 -460h287zM350 792
q-66 0 -100.5 32t-34.5 87h75q0 -29 16.5 -42t43.5 -13t43 13t16 42h76q0 -55 -34.5 -87t-100.5 -32z" />
    <glyph glyph-name="uni1EB3" unicode="&#x1eb3;" 
d="M208 774q0 40 25 64t66 24q42 0 66.5 -21t24.5 -56q0 -26 -16 -52.5t-46 -44.5h-73q33 20 50.5 44.5t17.5 42.5q0 19 -8 24.5t-18 5.5t-18.5 -5.5t-10.5 -25.5h-60zM535 498v-498h-100v166h-2q0 -83 -47.5 -129.5t-133.5 -46.5q-98 0 -152.5 68t-54.5 191t54.5 191
t152.5 68q86 0 133.5 -46.5t47.5 -129.5h2v166h100zM295 71q70 0 108.5 48.5t38.5 129.5t-38.5 129.5t-108.5 48.5t-108.5 -46.5t-38.5 -131.5t38.5 -131.5t108.5 -46.5zM294 550q-66 0 -100.5 32t-34.5 87h75q0 -29 16.5 -42t43.5 -13t43 13t16 42h76q0 -55 -34.5 -87
t-100.5 -32z" />
    <glyph glyph-name="uni1EB4" unicode="&#x1eb4;" horiz-adv-x="697" 
d="M398 954q-18 0 -31 7t-24 15t-21.5 15t-23.5 7q-14 0 -20.5 -13.5t-8.5 -33.5h-58q1 57 25.5 88.5t66.5 31.5q18 0 31 -6.5t23.5 -15t20.5 -15t24 -6.5t21 13t9 33h58q-1 -57 -26 -88.5t-66 -31.5zM515 186h-339l-58 -186h-107l246 740h185l244 -740h-113zM489 270
l-142 460h-2l-143 -460h287zM350 792q-66 0 -100.5 32t-34.5 87h75q0 -29 16.5 -42t43.5 -13t43 13t16 42h76q0 -55 -34.5 -87t-100.5 -32z" />
    <glyph glyph-name="uni1EB5" unicode="&#x1eb5;" 
d="M342 712q-18 0 -31 7t-24 15t-21.5 15t-23.5 7q-14 0 -20.5 -13.5t-8.5 -33.5h-58q1 57 25.5 88.5t66.5 31.5q18 0 31 -6.5t23.5 -15t20.5 -15t24 -6.5t21 13t9 33h58q-1 -57 -26 -88.5t-66 -31.5zM535 498v-498h-100v166h-2q0 -83 -47.5 -129.5t-133.5 -46.5
q-98 0 -152.5 68t-54.5 191t54.5 191t152.5 68q86 0 133.5 -46.5t47.5 -129.5h2v166h100zM295 71q70 0 108.5 48.5t38.5 129.5t-38.5 129.5t-108.5 48.5t-108.5 -46.5t-38.5 -131.5t38.5 -131.5t108.5 -46.5zM294 550q-66 0 -100.5 32t-34.5 87h75q0 -29 16.5 -42t43.5 -13
t43 13t16 42h76q0 -55 -34.5 -87t-100.5 -32z" />
    <glyph glyph-name="uni1EB6" unicode="&#x1eb6;" horiz-adv-x="697" 
d="M298 -72h98v-110h-98v110zM515 186h-339l-58 -186h-107l246 740h185l244 -740h-113zM489 270l-142 460h-2l-143 -460h287zM350 792q-66 0 -100.5 32t-34.5 87h75q0 -29 16.5 -42t43.5 -13t43 13t16 42h76q0 -55 -34.5 -87t-100.5 -32z" />
    <glyph glyph-name="uni1EB7" unicode="&#x1eb7;" 
d="M254 -72h98v-110h-98v110zM535 498v-498h-100v166h-2q0 -83 -47.5 -129.5t-133.5 -46.5q-98 0 -152.5 68t-54.5 191t54.5 191t152.5 68q86 0 133.5 -46.5t47.5 -129.5h2v166h100zM295 71q70 0 108.5 48.5t38.5 129.5t-38.5 129.5t-108.5 48.5t-108.5 -46.5t-38.5 -131.5
t38.5 -131.5t108.5 -46.5zM294 550q-66 0 -100.5 32t-34.5 87h75q0 -29 16.5 -42t43.5 -13t43 13t16 42h76q0 -55 -34.5 -87t-100.5 -32z" />
    <glyph glyph-name="uni1EB8" unicode="&#x1eb8;" horiz-adv-x="634" 
d="M293 -72h98v-110h-98v110zM592 83v-83h-502v740h491v-83h-386v-234h351v-84h-351v-256h397z" />
    <glyph glyph-name="uni1EB9" unicode="&#x1eb9;" horiz-adv-x="560" 
d="M234 -72h98v-110h-98v110zM516 235h-374q3 -79 39.5 -123t99.5 -44q55 0 91 28.5t46 79.5h98q-13 -88 -74.5 -137t-160.5 -49q-112 0 -174 68t-62 191t62 191t174 68t173.5 -68t61.5 -191v-14zM281 430q-60 0 -96 -40t-42 -113h274q-6 73 -41 113t-95 40z" />
    <glyph glyph-name="uni1EBA" unicode="&#x1eba;" horiz-adv-x="634" 
d="M250 888q0 40 25 64t66 24q42 0 66.5 -21t24.5 -56q0 -26 -16 -52.5t-46 -44.5h-73q33 20 50.5 44.5t17.5 42.5q0 19 -8 24.5t-18 5.5t-18.5 -5.5t-10.5 -25.5h-60zM592 83v-83h-502v740h491v-83h-386v-234h351v-84h-351v-256h397z" />
    <glyph glyph-name="uni1EBB" unicode="&#x1ebb;" horiz-adv-x="560" 
d="M198 646q0 40 25 64t66 24q42 0 66.5 -21t24.5 -56q0 -26 -16 -52.5t-46 -44.5h-73q33 20 50.5 44.5t17.5 42.5q0 19 -8 24.5t-18 5.5t-18.5 -5.5t-10.5 -25.5h-60zM516 235h-374q3 -79 39.5 -123t99.5 -44q55 0 91 28.5t46 79.5h98q-13 -88 -74.5 -137t-160.5 -49
q-112 0 -174 68t-62 191t62 191t174 68t173.5 -68t61.5 -191v-14zM281 430q-60 0 -96 -40t-42 -113h274q-6 73 -41 113t-95 40z" />
    <glyph glyph-name="uni1EBC" unicode="&#x1ebc;" horiz-adv-x="634" 
d="M378 805q-18 0 -31 7t-24 15t-21.5 15t-23.5 7q-14 0 -20.5 -13.5t-8.5 -33.5h-58q1 57 25.5 88.5t66.5 31.5q18 0 31 -6.5t23.5 -15t20.5 -15t24 -6.5t21 13t9 33h58q-1 -57 -26 -88.5t-66 -31.5zM592 83v-83h-502v740h491v-83h-386v-234h351v-84h-351v-256h397z" />
    <glyph glyph-name="uni1EBD" unicode="&#x1ebd;" horiz-adv-x="560" 
d="M334 563q-18 0 -31 7t-24 15t-21.5 15t-23.5 7q-14 0 -20.5 -13.5t-8.5 -33.5h-58q1 57 25.5 88.5t66.5 31.5q18 0 31 -6.5t23.5 -15t20.5 -15t24 -6.5t21 13t9 33h58q-1 -57 -26 -88.5t-66 -31.5zM516 235h-374q3 -79 39.5 -123t99.5 -44q55 0 91 28.5t46 79.5h98
q-13 -88 -74.5 -137t-160.5 -49q-112 0 -174 68t-62 191t62 191t174 68t173.5 -68t61.5 -191v-14zM281 430q-60 0 -96 -40t-42 -113h274q-6 73 -41 113t-95 40z" />
    <glyph glyph-name="uni1EBE" unicode="&#x1ebe;" horiz-adv-x="634" 
d="M454 866l62 125h90l-79 -125h-73zM592 83v-83h-502v740h491v-83h-386v-234h351v-84h-351v-256h397zM332 905h-4l-57 -113h-76l65 125h140l65 -125h-76z" />
    <glyph glyph-name="uni1EBF" unicode="&#x1ebf;" horiz-adv-x="560" 
d="M408 624l62 125h90l-79 -125h-73zM516 235h-374q3 -79 39.5 -123t99.5 -44q55 0 91 28.5t46 79.5h98q-13 -88 -74.5 -137t-160.5 -49q-112 0 -174 68t-62 191t62 191t174 68t173.5 -68t61.5 -191v-14zM281 430q-60 0 -96 -40t-42 -113h274q-6 73 -41 113t-95 40zM286 663
h-4l-57 -113h-76l65 125h140l65 -125h-76z" />
    <glyph glyph-name="uni1EC0" unicode="&#x1ec0;" horiz-adv-x="634" 
d="M476 866l-79 125h90l62 -125h-73zM592 83v-83h-502v740h491v-83h-386v-234h351v-84h-351v-256h397zM332 905h-4l-57 -113h-76l65 125h140l65 -125h-76z" />
    <glyph glyph-name="uni1EC1" unicode="&#x1ec1;" horiz-adv-x="560" 
d="M430 624l-79 125h90l62 -125h-73zM516 235h-374q3 -79 39.5 -123t99.5 -44q55 0 91 28.5t46 79.5h98q-13 -88 -74.5 -137t-160.5 -49q-112 0 -174 68t-62 191t62 191t174 68t173.5 -68t61.5 -191v-14zM281 430q-60 0 -96 -40t-42 -113h274q-6 73 -41 113t-95 40zM286 663
h-4l-57 -113h-76l65 125h140l65 -125h-76z" />
    <glyph glyph-name="uni1EC2" unicode="&#x1ec2;" horiz-adv-x="634" 
d="M409 952q0 40 25 64t66 24q42 0 66.5 -21t24.5 -56q0 -26 -16 -52.5t-46 -44.5h-73q33 20 50.5 44.5t17.5 42.5q0 19 -8 24.5t-18 5.5t-18.5 -5.5t-10.5 -25.5h-60zM592 83v-83h-502v740h491v-83h-386v-234h351v-84h-351v-256h397zM332 905h-4l-57 -113h-76l65 125h140
l65 -125h-76z" />
    <glyph glyph-name="uni1EC3" unicode="&#x1ec3;" horiz-adv-x="560" 
d="M363 710q0 40 25 64t66 24q42 0 66.5 -21t24.5 -56q0 -26 -16 -52.5t-46 -44.5h-73q33 20 50.5 44.5t17.5 42.5q0 19 -8 24.5t-18 5.5t-18.5 -5.5t-10.5 -25.5h-60zM516 235h-374q3 -79 39.5 -123t99.5 -44q55 0 91 28.5t46 79.5h98q-13 -88 -74.5 -137t-160.5 -49
q-112 0 -174 68t-62 191t62 191t174 68t173.5 -68t61.5 -191v-14zM281 430q-60 0 -96 -40t-42 -113h274q-6 73 -41 113t-95 40zM286 663h-4l-57 -113h-76l65 125h140l65 -125h-76z" />
    <glyph glyph-name="uni1EC4" unicode="&#x1ec4;" horiz-adv-x="634" 
d="M377 959q-18 0 -31 7t-24 15t-21.5 15t-23.5 7q-14 0 -20.5 -13.5t-8.5 -33.5h-58q1 57 25.5 88.5t66.5 31.5q18 0 31 -6.5t23.5 -15t20.5 -15t24 -6.5t21 13t9 33h58q-1 -57 -26 -88.5t-66 -31.5zM592 83v-83h-502v740h491v-83h-386v-234h351v-84h-351v-256h397z
M332 905h-4l-57 -113h-76l65 125h140l65 -125h-76z" />
    <glyph glyph-name="uni1EC5" unicode="&#x1ec5;" horiz-adv-x="560" 
d="M331 717q-18 0 -31 7t-24 15t-21.5 15t-23.5 7q-14 0 -20.5 -13.5t-8.5 -33.5h-58q1 57 25.5 88.5t66.5 31.5q18 0 31 -6.5t23.5 -15t20.5 -15t24 -6.5t21 13t9 33h58q-1 -57 -26 -88.5t-66 -31.5zM516 235h-374q3 -79 39.5 -123t99.5 -44q55 0 91 28.5t46 79.5h98
q-13 -88 -74.5 -137t-160.5 -49q-112 0 -174 68t-62 191t62 191t174 68t173.5 -68t61.5 -191v-14zM281 430q-60 0 -96 -40t-42 -113h274q-6 73 -41 113t-95 40zM286 663h-4l-57 -113h-76l65 125h140l65 -125h-76z" />
    <glyph glyph-name="uni1EC6" unicode="&#x1ec6;" horiz-adv-x="634" 
d="M293 -72h98v-110h-98v110zM592 83v-83h-502v740h491v-83h-386v-234h351v-84h-351v-256h397zM332 905h-4l-57 -113h-76l65 125h140l65 -125h-76z" />
    <glyph glyph-name="uni1EC7" unicode="&#x1ec7;" horiz-adv-x="560" 
d="M234 -72h98v-110h-98v110zM516 235h-374q3 -79 39.5 -123t99.5 -44q55 0 91 28.5t46 79.5h98q-13 -88 -74.5 -137t-160.5 -49q-112 0 -174 68t-62 191t62 191t174 68t173.5 -68t61.5 -191v-14zM281 430q-60 0 -96 -40t-42 -113h274q-6 73 -41 113t-95 40zM286 663h-4
l-57 -113h-76l65 125h140l65 -125h-76z" />
    <glyph glyph-name="uni1EC8" unicode="&#x1ec8;" horiz-adv-x="285" 
d="M54 888q0 40 25 64t66 24q42 0 66.5 -21t24.5 -56q0 -26 -16 -52.5t-46 -44.5h-73q33 20 50.5 44.5t17.5 42.5q0 19 -8 24.5t-18 5.5t-18.5 -5.5t-10.5 -25.5h-60zM90 740h105v-740h-105v740z" />
    <glyph glyph-name="uni1EC9" unicode="&#x1ec9;" horiz-adv-x="246" 
d="M40 646q0 40 25 64t66 24q42 0 66.5 -21t24.5 -56q0 -26 -16 -52.5t-46 -44.5h-73q33 20 50.5 44.5t17.5 42.5q0 19 -8 24.5t-18 5.5t-18.5 -5.5t-10.5 -25.5h-60zM173 498v-498h-100v498h100z" />
    <glyph glyph-name="uni1ECA" unicode="&#x1eca;" horiz-adv-x="285" 
d="M93 -72h98v-110h-98v110zM90 740h105v-740h-105v740z" />
    <glyph glyph-name="uni1ECB" unicode="&#x1ecb;" horiz-adv-x="246" 
d="M74 -72h98v-110h-98v110zM73 715h100v-113h-100v113zM73 498h100v-498h-100v498z" />
    <glyph glyph-name="uni1ECC" unicode="&#x1ecc;" horiz-adv-x="757" 
d="M327 -72h98v-110h-98v110zM379 -10q-78 0 -139 26t-103 74.5t-64.5 119t-22.5 160.5t22.5 160.5t64.5 119t103 74.5t139 26q77 0 138 -26t103 -74.5t64.5 -119t22.5 -160.5t-22.5 -160.5t-64.5 -119t-103 -74.5t-138 -26zM379 76q104 0 162 77t58 217t-58 217t-162 77
q-106 0 -164 -77t-58 -217t58 -217t164 -77z" />
    <glyph glyph-name="uni1ECD" unicode="&#x1ecd;" horiz-adv-x="588" 
d="M243 -72h98v-110h-98v110zM294 -10q-118 0 -183.5 68t-65.5 191t65.5 191t183.5 68t183.5 -68t65.5 -191t-65.5 -191t-183.5 -68zM294 71q70 0 108.5 46.5t38.5 131.5t-38.5 131.5t-108.5 46.5t-108.5 -46.5t-38.5 -131.5t38.5 -131.5t108.5 -46.5z" />
    <glyph glyph-name="uni1ECE" unicode="&#x1ece;" horiz-adv-x="757" 
d="M300 888q0 40 25 64t66 24q42 0 66.5 -21t24.5 -56q0 -26 -16 -52.5t-46 -44.5h-73q33 20 50.5 44.5t17.5 42.5q0 19 -8 24.5t-18 5.5t-18.5 -5.5t-10.5 -25.5h-60zM379 -10q-78 0 -139 26t-103 74.5t-64.5 119t-22.5 160.5t22.5 160.5t64.5 119t103 74.5t139 26
q77 0 138 -26t103 -74.5t64.5 -119t22.5 -160.5t-22.5 -160.5t-64.5 -119t-103 -74.5t-138 -26zM379 76q104 0 162 77t58 217t-58 217t-162 77q-106 0 -164 -77t-58 -217t58 -217t164 -77z" />
    <glyph glyph-name="uni1ECF" unicode="&#x1ecf;" horiz-adv-x="588" 
d="M211 646q0 40 25 64t66 24q42 0 66.5 -21t24.5 -56q0 -26 -16 -52.5t-46 -44.5h-73q33 20 50.5 44.5t17.5 42.5q0 19 -8 24.5t-18 5.5t-18.5 -5.5t-10.5 -25.5h-60zM294 -10q-118 0 -183.5 68t-65.5 191t65.5 191t183.5 68t183.5 -68t65.5 -191t-65.5 -191t-183.5 -68z
M294 71q70 0 108.5 46.5t38.5 131.5t-38.5 131.5t-108.5 46.5t-108.5 -46.5t-38.5 -131.5t38.5 -131.5t108.5 -46.5z" />
    <glyph glyph-name="uni1ED0" unicode="&#x1ed0;" horiz-adv-x="757" 
d="M504 866l62 125h90l-79 -125h-73zM379 750q77 0 138 -26t103 -74.5t64.5 -119t22.5 -160.5t-22.5 -160.5t-64.5 -119t-103 -74.5t-138 -26q-78 0 -139 26t-103 74.5t-64.5 119t-22.5 160.5t22.5 160.5t64.5 119t103 74.5t139 26zM379 76q104 0 162 77t58 217t-58 217
t-162 77q-106 0 -164 -77t-58 -217t58 -217t164 -77zM382 905h-4l-57 -113h-76l65 125h140l65 -125h-76z" />
    <glyph glyph-name="uni1ED1" unicode="&#x1ed1;" horiz-adv-x="588" 
d="M418 624l62 125h90l-79 -125h-73zM294 508q118 0 183.5 -68t65.5 -191t-65.5 -191t-183.5 -68t-183.5 68t-65.5 191t65.5 191t183.5 68zM294 71q70 0 108.5 46.5t38.5 131.5t-38.5 131.5t-108.5 46.5t-108.5 -46.5t-38.5 -131.5t38.5 -131.5t108.5 -46.5zM296 663h-4
l-57 -113h-76l65 125h140l65 -125h-76z" />
    <glyph glyph-name="uni1ED2" unicode="&#x1ed2;" horiz-adv-x="757" 
d="M526 866l-79 125h90l62 -125h-73zM379 750q77 0 138 -26t103 -74.5t64.5 -119t22.5 -160.5t-22.5 -160.5t-64.5 -119t-103 -74.5t-138 -26q-78 0 -139 26t-103 74.5t-64.5 119t-22.5 160.5t22.5 160.5t64.5 119t103 74.5t139 26zM379 76q104 0 162 77t58 217t-58 217
t-162 77q-106 0 -164 -77t-58 -217t58 -217t164 -77zM382 905h-4l-57 -113h-76l65 125h140l65 -125h-76z" />
    <glyph glyph-name="uni1ED3" unicode="&#x1ed3;" horiz-adv-x="588" 
d="M440 624l-79 125h90l62 -125h-73zM294 508q118 0 183.5 -68t65.5 -191t-65.5 -191t-183.5 -68t-183.5 68t-65.5 191t65.5 191t183.5 68zM294 71q70 0 108.5 46.5t38.5 131.5t-38.5 131.5t-108.5 46.5t-108.5 -46.5t-38.5 -131.5t38.5 -131.5t108.5 -46.5zM296 663h-4
l-57 -113h-76l65 125h140l65 -125h-76z" />
    <glyph glyph-name="uni1ED4" unicode="&#x1ed4;" horiz-adv-x="757" 
d="M459 952q0 40 25 64t66 24q42 0 66.5 -21t24.5 -56q0 -26 -16 -52.5t-46 -44.5h-73q33 20 50.5 44.5t17.5 42.5q0 19 -8 24.5t-18 5.5t-18.5 -5.5t-10.5 -25.5h-60zM379 750q77 0 138 -26t103 -74.5t64.5 -119t22.5 -160.5t-22.5 -160.5t-64.5 -119t-103 -74.5t-138 -26
q-78 0 -139 26t-103 74.5t-64.5 119t-22.5 160.5t22.5 160.5t64.5 119t103 74.5t139 26zM379 76q104 0 162 77t58 217t-58 217t-162 77q-106 0 -164 -77t-58 -217t58 -217t164 -77zM382 905h-4l-57 -113h-76l65 125h140l65 -125h-76z" />
    <glyph glyph-name="uni1ED5" unicode="&#x1ed5;" horiz-adv-x="588" 
d="M373 710q0 40 25 64t66 24q42 0 66.5 -21t24.5 -56q0 -26 -16 -52.5t-46 -44.5h-73q33 20 50.5 44.5t17.5 42.5q0 19 -8 24.5t-18 5.5t-18.5 -5.5t-10.5 -25.5h-60zM294 508q118 0 183.5 -68t65.5 -191t-65.5 -191t-183.5 -68t-183.5 68t-65.5 191t65.5 191t183.5 68z
M294 71q70 0 108.5 46.5t38.5 131.5t-38.5 131.5t-108.5 46.5t-108.5 -46.5t-38.5 -131.5t38.5 -131.5t108.5 -46.5zM296 663h-4l-57 -113h-76l65 125h140l65 -125h-76z" />
    <glyph glyph-name="uni1ED6" unicode="&#x1ed6;" horiz-adv-x="757" 
d="M427 959q-18 0 -31 7t-24 15t-21.5 15t-23.5 7q-14 0 -20.5 -13.5t-8.5 -33.5h-58q1 57 25.5 88.5t66.5 31.5q18 0 31 -6.5t23.5 -15t20.5 -15t24 -6.5t21 13t9 33h58q-1 -57 -26 -88.5t-66 -31.5zM379 750q77 0 138 -26t103 -74.5t64.5 -119t22.5 -160.5t-22.5 -160.5
t-64.5 -119t-103 -74.5t-138 -26q-78 0 -139 26t-103 74.5t-64.5 119t-22.5 160.5t22.5 160.5t64.5 119t103 74.5t139 26zM379 76q104 0 162 77t58 217t-58 217t-162 77q-106 0 -164 -77t-58 -217t58 -217t164 -77zM382 905h-4l-57 -113h-76l65 125h140l65 -125h-76z" />
    <glyph glyph-name="uni1ED7" unicode="&#x1ed7;" horiz-adv-x="588" 
d="M341 717q-18 0 -31 7t-24 15t-21.5 15t-23.5 7q-14 0 -20.5 -13.5t-8.5 -33.5h-58q1 57 25.5 88.5t66.5 31.5q18 0 31 -6.5t23.5 -15t20.5 -15t24 -6.5t21 13t9 33h58q-1 -57 -26 -88.5t-66 -31.5zM294 508q118 0 183.5 -68t65.5 -191t-65.5 -191t-183.5 -68t-183.5 68
t-65.5 191t65.5 191t183.5 68zM294 71q70 0 108.5 46.5t38.5 131.5t-38.5 131.5t-108.5 46.5t-108.5 -46.5t-38.5 -131.5t38.5 -131.5t108.5 -46.5zM296 663h-4l-57 -113h-76l65 125h140l65 -125h-76z" />
    <glyph glyph-name="uni1ED8" unicode="&#x1ed8;" horiz-adv-x="757" 
d="M327 -72h98v-110h-98v110zM379 750q77 0 138 -26t103 -74.5t64.5 -119t22.5 -160.5t-22.5 -160.5t-64.5 -119t-103 -74.5t-138 -26q-78 0 -139 26t-103 74.5t-64.5 119t-22.5 160.5t22.5 160.5t64.5 119t103 74.5t139 26zM379 76q104 0 162 77t58 217t-58 217t-162 77
q-106 0 -164 -77t-58 -217t58 -217t164 -77zM382 905h-4l-57 -113h-76l65 125h140l65 -125h-76z" />
    <glyph glyph-name="uni1ED9" unicode="&#x1ed9;" horiz-adv-x="588" 
d="M243 -72h98v-110h-98v110zM294 508q118 0 183.5 -68t65.5 -191t-65.5 -191t-183.5 -68t-183.5 68t-65.5 191t65.5 191t183.5 68zM294 71q70 0 108.5 46.5t38.5 131.5t-38.5 131.5t-108.5 46.5t-108.5 -46.5t-38.5 -131.5t38.5 -131.5t108.5 -46.5zM296 663h-4l-57 -113
h-76l65 125h140l65 -125h-76z" />
    <glyph glyph-name="uni1EDA" unicode="&#x1eda;" horiz-adv-x="757" 
d="M320 802l62 125h96l-79 -125h-79zM379 -10q-78 0 -139 26t-103 74.5t-64.5 119t-22.5 160.5t22.5 160.5t64.5 119t103 74.5t139 26q64 0 117 -18q21 4 36.5 24.5t15.5 73.5h92q0 -47 -27 -79t-74 -38q81 -42 124.5 -129t43.5 -214q0 -90 -22.5 -160.5t-64.5 -119
t-103 -74.5t-138 -26zM379 76q104 0 162 77t58 217t-58 217t-162 77q-106 0 -164 -77t-58 -217t58 -217t164 -77z" />
    <glyph glyph-name="uni1EDB" unicode="&#x1edb;" horiz-adv-x="588" 
d="M241 560l62 125h96l-79 -125h-79zM294 -10q-118 0 -183.5 68t-65.5 191t65.5 191t183.5 68q57 0 103 -17q20 5 33 26t13 71h92q0 -46 -26.5 -78t-71.5 -38q51 -32 78.5 -88.5t27.5 -134.5q0 -123 -65.5 -191t-183.5 -68zM294 71q70 0 108.5 46.5t38.5 131.5t-38.5 131.5
t-108.5 46.5t-108.5 -46.5t-38.5 -131.5t38.5 -131.5t108.5 -46.5z" />
    <glyph glyph-name="uni1EDC" unicode="&#x1edc;" horiz-adv-x="757" 
d="M349 802l-79 125h96l62 -125h-79zM379 -10q-78 0 -139 26t-103 74.5t-64.5 119t-22.5 160.5t22.5 160.5t64.5 119t103 74.5t139 26q64 0 117 -18q21 4 36.5 24.5t15.5 73.5h92q0 -47 -27 -79t-74 -38q81 -42 124.5 -129t43.5 -214q0 -90 -22.5 -160.5t-64.5 -119
t-103 -74.5t-138 -26zM379 76q104 0 162 77t58 217t-58 217t-162 77q-106 0 -164 -77t-58 -217t58 -217t164 -77z" />
    <glyph glyph-name="uni1EDD" unicode="&#x1edd;" horiz-adv-x="588" 
d="M270 560l-79 125h96l62 -125h-79zM294 -10q-118 0 -183.5 68t-65.5 191t65.5 191t183.5 68q57 0 103 -17q20 5 33 26t13 71h92q0 -46 -26.5 -78t-71.5 -38q51 -32 78.5 -88.5t27.5 -134.5q0 -123 -65.5 -191t-183.5 -68zM294 71q70 0 108.5 46.5t38.5 131.5t-38.5 131.5
t-108.5 46.5t-108.5 -46.5t-38.5 -131.5t38.5 -131.5t108.5 -46.5z" />
    <glyph glyph-name="uni1EDE" unicode="&#x1ede;" horiz-adv-x="757" 
d="M300 888q0 40 25 64t66 24q42 0 66.5 -21t24.5 -56q0 -26 -16 -52.5t-46 -44.5h-73q33 20 50.5 44.5t17.5 42.5q0 19 -8 24.5t-18 5.5t-18.5 -5.5t-10.5 -25.5h-60zM379 -10q-78 0 -139 26t-103 74.5t-64.5 119t-22.5 160.5t22.5 160.5t64.5 119t103 74.5t139 26
q64 0 117 -18q21 4 36.5 24.5t15.5 73.5h92q0 -47 -27 -79t-74 -38q81 -42 124.5 -129t43.5 -214q0 -90 -22.5 -160.5t-64.5 -119t-103 -74.5t-138 -26zM379 76q104 0 162 77t58 217t-58 217t-162 77q-106 0 -164 -77t-58 -217t58 -217t164 -77z" />
    <glyph glyph-name="uni1EDF" unicode="&#x1edf;" horiz-adv-x="588" 
d="M211 646q0 40 25 64t66 24q42 0 66.5 -21t24.5 -56q0 -26 -16 -52.5t-46 -44.5h-73q33 20 50.5 44.5t17.5 42.5q0 19 -8 24.5t-18 5.5t-18.5 -5.5t-10.5 -25.5h-60zM294 -10q-118 0 -183.5 68t-65.5 191t65.5 191t183.5 68q57 0 103 -17q20 5 33 26t13 71h92
q0 -46 -26.5 -78t-71.5 -38q51 -32 78.5 -88.5t27.5 -134.5q0 -123 -65.5 -191t-183.5 -68zM294 71q70 0 108.5 46.5t38.5 131.5t-38.5 131.5t-108.5 46.5t-108.5 -46.5t-38.5 -131.5t38.5 -131.5t108.5 -46.5z" />
    <glyph glyph-name="uni1EE0" unicode="&#x1ee0;" horiz-adv-x="757" 
d="M428 805q-18 0 -31 7t-24 15t-21.5 15t-23.5 7q-14 0 -20.5 -13.5t-8.5 -33.5h-58q1 57 25.5 88.5t66.5 31.5q18 0 31 -6.5t23.5 -15t20.5 -15t24 -6.5t21 13t9 33h58q-1 -57 -26 -88.5t-66 -31.5zM379 -10q-78 0 -139 26t-103 74.5t-64.5 119t-22.5 160.5t22.5 160.5
t64.5 119t103 74.5t139 26q64 0 117 -18q21 4 36.5 24.5t15.5 73.5h92q0 -47 -27 -79t-74 -38q81 -42 124.5 -129t43.5 -214q0 -90 -22.5 -160.5t-64.5 -119t-103 -74.5t-138 -26zM379 76q104 0 162 77t58 217t-58 217t-162 77q-106 0 -164 -77t-58 -217t58 -217t164 -77z
" />
    <glyph glyph-name="uni1EE1" unicode="&#x1ee1;" horiz-adv-x="588" 
d="M342 563q-18 0 -31 7t-24 15t-21.5 15t-23.5 7q-14 0 -20.5 -13.5t-8.5 -33.5h-58q1 57 25.5 88.5t66.5 31.5q18 0 31 -6.5t23.5 -15t20.5 -15t24 -6.5t21 13t9 33h58q-1 -57 -26 -88.5t-66 -31.5zM294 -10q-118 0 -183.5 68t-65.5 191t65.5 191t183.5 68q57 0 103 -17
q20 5 33 26t13 71h92q0 -46 -26.5 -78t-71.5 -38q51 -32 78.5 -88.5t27.5 -134.5q0 -123 -65.5 -191t-183.5 -68zM294 71q70 0 108.5 46.5t38.5 131.5t-38.5 131.5t-108.5 46.5t-108.5 -46.5t-38.5 -131.5t38.5 -131.5t108.5 -46.5z" />
    <glyph glyph-name="uni1EE2" unicode="&#x1ee2;" horiz-adv-x="757" 
d="M327 -72h98v-110h-98v110zM379 -10q-78 0 -139 26t-103 74.5t-64.5 119t-22.5 160.5t22.5 160.5t64.5 119t103 74.5t139 26q64 0 117 -18q21 4 36.5 24.5t15.5 73.5h92q0 -47 -27 -79t-74 -38q81 -42 124.5 -129t43.5 -214q0 -90 -22.5 -160.5t-64.5 -119t-103 -74.5
t-138 -26zM379 76q104 0 162 77t58 217t-58 217t-162 77q-106 0 -164 -77t-58 -217t58 -217t164 -77z" />
    <glyph glyph-name="uni1EE3" unicode="&#x1ee3;" horiz-adv-x="588" 
d="M243 -72h98v-110h-98v110zM294 -10q-118 0 -183.5 68t-65.5 191t65.5 191t183.5 68q57 0 103 -17q20 5 33 26t13 71h92q0 -46 -26.5 -78t-71.5 -38q51 -32 78.5 -88.5t27.5 -134.5q0 -123 -65.5 -191t-183.5 -68zM294 71q70 0 108.5 46.5t38.5 131.5t-38.5 131.5
t-108.5 46.5t-108.5 -46.5t-38.5 -131.5t38.5 -131.5t108.5 -46.5z" />
    <glyph glyph-name="uni1EE4" unicode="&#x1ee4;" horiz-adv-x="721" 
d="M309 -72h98v-110h-98v110zM539 740h99v-483q0 -126 -73 -196.5t-205 -70.5q-131 0 -204 70.5t-73 196.5v483h104v-489q0 -83 46 -129t130 -46q83 0 129.5 46t46.5 129v489z" />
    <glyph glyph-name="uni1EE5" unicode="&#x1ee5;" horiz-adv-x="578" 
d="M228 -72h98v-110h-98v110zM505 498v-498h-100v173h-2q0 -87 -42.5 -135t-119.5 -48q-82 0 -127.5 53t-45.5 148v307h100v-304q0 -59 29 -91t82 -32q60 0 93 41t33 115v271h100z" />
    <glyph glyph-name="uni1EE6" unicode="&#x1ee6;" horiz-adv-x="721" 
d="M290 888q0 40 25 64t66 24q42 0 66.5 -21t24.5 -56q0 -26 -16 -52.5t-46 -44.5h-73q33 20 50.5 44.5t17.5 42.5q0 19 -8 24.5t-18 5.5t-18.5 -5.5t-10.5 -25.5h-60zM539 740h99v-483q0 -126 -73 -196.5t-205 -70.5q-131 0 -204 70.5t-73 196.5v483h104v-489
q0 -83 46 -129t130 -46q83 0 129.5 46t46.5 129v489z" />
    <glyph glyph-name="uni1EE7" unicode="&#x1ee7;" horiz-adv-x="578" 
d="M201 646q0 40 25 64t66 24q42 0 66.5 -21t24.5 -56q0 -26 -16 -52.5t-46 -44.5h-73q33 20 50.5 44.5t17.5 42.5q0 19 -8 24.5t-18 5.5t-18.5 -5.5t-10.5 -25.5h-60zM505 498v-498h-100v173h-2q0 -87 -42.5 -135t-119.5 -48q-82 0 -127.5 53t-45.5 148v307h100v-304
q0 -59 29 -91t82 -32q60 0 93 41t33 115v271h100z" />
    <glyph glyph-name="uni1EE8" unicode="&#x1ee8;" horiz-adv-x="721" 
d="M312 802l62 125h96l-79 -125h-79zM539 740h10q12 1 23.5 5t20.5 15t14.5 30t5.5 50h92q0 -38 -17.5 -66t-49.5 -42v-475q0 -126 -73 -196.5t-205 -70.5q-131 0 -204 70.5t-73 196.5v483h104v-489q0 -83 46 -129t130 -46q83 0 129.5 46t46.5 129v489z" />
    <glyph glyph-name="uni1EE9" unicode="&#x1ee9;" horiz-adv-x="578" 
d="M237 560l62 125h96l-79 -125h-79zM414 498q12 1 23.5 5t20.5 15t14.5 30t5.5 50h92q0 -37 -17.5 -65t-47.5 -42v-491h-100v173h-2q0 -87 -42.5 -135t-119.5 -48q-82 0 -127.5 53t-45.5 148v307h100v-304q0 -59 29 -91t82 -32q60 0 93 41t33 115v271h9z" />
    <glyph glyph-name="uni1EEA" unicode="&#x1eea;" horiz-adv-x="721" 
d="M345 802l-79 125h96l62 -125h-79zM539 740h10q12 1 23.5 5t20.5 15t14.5 30t5.5 50h92q0 -38 -17.5 -66t-49.5 -42v-475q0 -126 -73 -196.5t-205 -70.5q-131 0 -204 70.5t-73 196.5v483h104v-489q0 -83 46 -129t130 -46q83 0 129.5 46t46.5 129v489z" />
    <glyph glyph-name="uni1EEB" unicode="&#x1eeb;" horiz-adv-x="578" 
d="M260 560l-79 125h96l62 -125h-79zM414 498q12 1 23.5 5t20.5 15t14.5 30t5.5 50h92q0 -37 -17.5 -65t-47.5 -42v-491h-100v173h-2q0 -87 -42.5 -135t-119.5 -48q-82 0 -127.5 53t-45.5 148v307h100v-304q0 -59 29 -91t82 -32q60 0 93 41t33 115v271h9z" />
    <glyph glyph-name="uni1EEC" unicode="&#x1eec;" horiz-adv-x="721" 
d="M290 888q0 40 25 64t66 24q42 0 66.5 -21t24.5 -56q0 -26 -16 -52.5t-46 -44.5h-73q33 20 50.5 44.5t17.5 42.5q0 19 -8 24.5t-18 5.5t-18.5 -5.5t-10.5 -25.5h-60zM539 740h10q12 1 23.5 5t20.5 15t14.5 30t5.5 50h92q0 -38 -17.5 -66t-49.5 -42v-475q0 -126 -73 -196.5
t-205 -70.5q-131 0 -204 70.5t-73 196.5v483h104v-489q0 -83 46 -129t130 -46q83 0 129.5 46t46.5 129v489z" />
    <glyph glyph-name="uni1EED" unicode="&#x1eed;" horiz-adv-x="578" 
d="M201 646q0 40 25 64t66 24q42 0 66.5 -21t24.5 -56q0 -26 -16 -52.5t-46 -44.5h-73q33 20 50.5 44.5t17.5 42.5q0 19 -8 24.5t-18 5.5t-18.5 -5.5t-10.5 -25.5h-60zM414 498q12 1 23.5 5t20.5 15t14.5 30t5.5 50h92q0 -37 -17.5 -65t-47.5 -42v-491h-100v173h-2
q0 -87 -42.5 -135t-119.5 -48q-82 0 -127.5 53t-45.5 148v307h100v-304q0 -59 29 -91t82 -32q60 0 93 41t33 115v271h9z" />
    <glyph glyph-name="uni1EEE" unicode="&#x1eee;" horiz-adv-x="721" 
d="M408 805q-18 0 -31 7t-24 15t-21.5 15t-23.5 7q-14 0 -20.5 -13.5t-8.5 -33.5h-58q1 57 25.5 88.5t66.5 31.5q18 0 31 -6.5t23.5 -15t20.5 -15t24 -6.5t21 13t9 33h58q-1 -57 -26 -88.5t-66 -31.5zM539 740h10q12 1 23.5 5t20.5 15t14.5 30t5.5 50h92q0 -38 -17.5 -66
t-49.5 -42v-475q0 -126 -73 -196.5t-205 -70.5q-131 0 -204 70.5t-73 196.5v483h104v-489q0 -83 46 -129t130 -46q83 0 129.5 46t46.5 129v489z" />
    <glyph glyph-name="uni1EEF" unicode="&#x1eef;" horiz-adv-x="578" 
d="M337 563q-18 0 -31 7t-24 15t-21.5 15t-23.5 7q-14 0 -20.5 -13.5t-8.5 -33.5h-58q1 57 25.5 88.5t66.5 31.5q18 0 31 -6.5t23.5 -15t20.5 -15t24 -6.5t21 13t9 33h58q-1 -57 -26 -88.5t-66 -31.5zM414 498q12 1 23.5 5t20.5 15t14.5 30t5.5 50h92q0 -37 -17.5 -65
t-47.5 -42v-491h-100v173h-2q0 -87 -42.5 -135t-119.5 -48q-82 0 -127.5 53t-45.5 148v307h100v-304q0 -59 29 -91t82 -32q60 0 93 41t33 115v271h9z" />
    <glyph glyph-name="uni1EF0" unicode="&#x1ef0;" horiz-adv-x="721" 
d="M309 -72h98v-110h-98v110zM539 740h10q12 1 23.5 5t20.5 15t14.5 30t5.5 50h92q0 -38 -17.5 -66t-49.5 -42v-475q0 -126 -73 -196.5t-205 -70.5q-131 0 -204 70.5t-73 196.5v483h104v-489q0 -83 46 -129t130 -46q83 0 129.5 46t46.5 129v489z" />
    <glyph glyph-name="uni1EF1" unicode="&#x1ef1;" horiz-adv-x="578" 
d="M238 -72h98v-110h-98v110zM414 498q12 1 23.5 5t20.5 15t14.5 30t5.5 50h92q0 -37 -17.5 -65t-47.5 -42v-491h-100v173h-2q0 -87 -42.5 -135t-119.5 -48q-82 0 -127.5 53t-45.5 148v307h100v-304q0 -59 29 -91t82 -32q60 0 93 41t33 115v271h9z" />
    <glyph glyph-name="Ygrave" unicode="&#x1ef2;" horiz-adv-x="676" 
d="M681 740l-365 -740h-114l137 283h-100l-225 457h121l216 -447h2l214 447h114zM330 802l-79 125h96l62 -125h-79z" />
    <glyph glyph-name="ygrave" unicode="&#x1ef3;" horiz-adv-x="536" 
d="M513 498l-218 -728h-107l69 230h-83l-150 498h108l136 -491h2l136 491h107zM242 560l-79 125h96l62 -125h-79z" />
    <glyph glyph-name="uni1EF4" unicode="&#x1ef4;" horiz-adv-x="676" 
d="M208 -72h98v-110h-98v110zM681 740l-365 -740h-114l137 283h-100l-225 457h121l216 -447h2l214 447h114z" />
    <glyph glyph-name="uni1EF5" unicode="&#x1ef5;" horiz-adv-x="536" 
d="M408 -72h98v-110h-98v110zM513 498l-218 -728h-107l69 230h-83l-150 498h108l136 -491h2l136 491h107z" />
    <glyph glyph-name="uni1EF6" unicode="&#x1ef6;" horiz-adv-x="676" 
d="M279 888q0 40 25 64t66 24q42 0 66.5 -21t24.5 -56q0 -26 -16 -52.5t-46 -44.5h-73q33 20 50.5 44.5t17.5 42.5q0 19 -8 24.5t-18 5.5t-18.5 -5.5t-10.5 -25.5h-60zM681 740l-365 -740h-114l137 283h-100l-225 457h121l216 -447h2l214 447h114z" />
    <glyph glyph-name="uni1EF7" unicode="&#x1ef7;" horiz-adv-x="536" 
d="M181 646q0 40 25 64t66 24q42 0 66.5 -21t24.5 -56q0 -26 -16 -52.5t-46 -44.5h-73q33 20 50.5 44.5t17.5 42.5q0 19 -8 24.5t-18 5.5t-18.5 -5.5t-10.5 -25.5h-60zM513 498l-218 -728h-107l69 230h-83l-150 498h108l136 -491h2l136 491h107z" />
    <glyph glyph-name="uni1EF8" unicode="&#x1ef8;" horiz-adv-x="676" 
d="M395 805q-18 0 -31 7t-24 15t-21.5 15t-23.5 7q-14 0 -20.5 -13.5t-8.5 -33.5h-58q1 57 25.5 88.5t66.5 31.5q18 0 31 -6.5t23.5 -15t20.5 -15t24 -6.5t21 13t9 33h58q-1 -57 -26 -88.5t-66 -31.5zM681 740l-365 -740h-114l137 283h-100l-225 457h121l216 -447h2l214 447
h114z" />
    <glyph glyph-name="uni1EF9" unicode="&#x1ef9;" horiz-adv-x="536" 
d="M316 563q-18 0 -31 7t-24 15t-21.5 15t-23.5 7q-14 0 -20.5 -13.5t-8.5 -33.5h-58q1 57 25.5 88.5t66.5 31.5q18 0 31 -6.5t23.5 -15t20.5 -15t24 -6.5t21 13t9 33h58q-1 -57 -26 -88.5t-66 -31.5zM513 498l-218 -728h-107l69 230h-83l-150 498h108l136 -491h2l136 491
h107z" />
    <glyph glyph-name="uni1EFA" unicode="&#x1efa;" horiz-adv-x="0" 
d="M406 498q13 0 26 3t23.5 13.5t16.5 30.5t6 53h92q0 -27 -10 -50t-28 -39t-43.5 -23.5t-56.5 -3.5z" />
    <glyph glyph-name="endash" unicode="&#x2013;" horiz-adv-x="589" 
d="M524 274v-42h-460v42h460z" />
    <glyph glyph-name="emdash" unicode="&#x2014;" horiz-adv-x="874" 
d="M809 274v-42h-745v42h745z" />
    <glyph glyph-name="quoteleft" unicode="&#x2018;" horiz-adv-x="230" 
d="M172 684q-48 -9 -76 -34t-35 -60h110v-111h-117v93q0 66 31 111.5t87 60.5v-60v0z" />
    <glyph glyph-name="quoteright" unicode="&#x2019;" horiz-adv-x="224" 
d="M178 740v-93q0 -66 -31 -111.5t-87 -60.5v60q48 9 76 34t35 60h-110v111h117z" />
    <glyph glyph-name="quotesinglbase" unicode="&#x201a;" horiz-adv-x="238" 
d="M182 111v-93q0 -66 -31 -111.5t-87 -60.5v60q48 9 76 34t35 60h-110v111h117z" />
    <glyph glyph-name="quotedblleft" unicode="&#x201c;" horiz-adv-x="398" 
d="M54 572q0 66 31 111.5t87 60.5v-60q-48 -9 -76 -34t-35 -60h110v-111h-117v93zM339 684q-48 -9 -76 -34t-35 -60h110v-111h-117v93q0 66 31 111.5t87 60.5v-60z" />
    <glyph glyph-name="quotedblright" unicode="&#x201d;" horiz-adv-x="392" 
d="M61 740h117v-93q0 -66 -31 -111.5t-87 -60.5v60q48 9 76 34t35 60h-110v111zM345 740v-93q0 -66 -31 -111.5t-87 -60.5v60q48 9 76 34t35 60h-110v111h117z" />
    <glyph glyph-name="quotedblbase" unicode="&#x201e;" horiz-adv-x="405" 
d="M65 111h117v-93q0 -66 -31 -111.5t-87 -60.5v60q48 9 76 34t35 60h-110v111zM349 111v-93q0 -66 -31 -111.5t-87 -60.5v60q48 9 76 34t35 60h-110v111h117z" />
    <glyph glyph-name="dagger" unicode="&#x2020;" horiz-adv-x="382" 
d="M333 654v-52h-113v-257h-60v166q0 35 14.5 58t40.5 31v2h-165v52h113v116h60v-116h110z" />
    <glyph glyph-name="daggerdbl" unicode="&#x2021;" horiz-adv-x="382" 
d="M220 602v-90h113v-52h-113v-115h-60v24q0 35 14.5 58t40.5 31v2h-165v52h110q0 34 14.5 57t40.5 31v2h-165v52h113v116h60v-116h110v-52h-113z" />
    <glyph glyph-name="bullet" unicode="&#x2022;" horiz-adv-x="361" 
d="M86 383h189v-175h-189v175z" />
    <glyph glyph-name="ellipsis" unicode="&#x2026;" horiz-adv-x="646" 
d="M179 111v-111h-117v111h117zM382 111v-111h-117v111h117zM584 111v-111h-117v111h117z" />
    <glyph glyph-name="perthousand" unicode="&#x2030;" horiz-adv-x="1058" 
d="M588 750l34 -25l-483 -735l-34 25zM183 360q-69 0 -107 48.5t-38 136.5t38 136.5t107 48.5t107 -48.5t38 -136.5t-38 -136.5t-107 -48.5zM183 422q32 0 49.5 32t17.5 91t-17.5 91t-49.5 32t-49.5 -32t-17.5 -91t17.5 -91t49.5 -32zM543 -10q-69 0 -107 48.5t-38 136.5
t38 136.5t107 48.5t107 -48.5t38 -136.5t-38 -136.5t-107 -48.5zM881 -10q-68 0 -106 48.5t-38 136.5t38 136.5t106 48.5q69 0 107 -48.5t38 -136.5t-38 -136.5t-107 -48.5zM543 52q32 0 49.5 32t17.5 91t-17.5 91t-49.5 32t-49.5 -32t-17.5 -91t17.5 -91t49.5 -32zM882 52
q31 0 48.5 32t17.5 91t-17.5 91t-48.5 32t-49 -32t-18 -91t18 -91t49 -32z" />
    <glyph glyph-name="guilsinglleft" unicode="&#x2039;" horiz-adv-x="267" 
d="M167 443h52l-126 -193l126 -193h-52l-128 193z" />
    <glyph glyph-name="guilsinglright" unicode="&#x203a;" horiz-adv-x="267" 
d="M100 57h-52l126 193l-126 193h52l128 -193z" />
    <glyph glyph-name="fraction" unicode="&#x2044;" horiz-adv-x="215" 
d="M332 750l34 -25l-483 -735l-34 25z" />
    <glyph glyph-name="uni2070" unicode="&#x2070;" horiz-adv-x="401" 
d="M201 352q-81 0 -125.5 60t-44.5 168t44.5 168t125.5 60q80 0 124.5 -60t44.5 -168t-44.5 -168t-124.5 -60zM201 414q43 0 66.5 44t23.5 122t-23.5 122t-66.5 44q-44 0 -67.5 -44t-23.5 -122t23.5 -122t67.5 -44z" />
    <glyph glyph-name="uni2074" unicode="&#x2074;" horiz-adv-x="384" 
d="M364 464h-58v-106h-77v106h-211v64l145 274h143v-278h58v-60zM88 526v-2h143v271h-2z" />
    <glyph glyph-name="uni2075" unicode="&#x2075;" horiz-adv-x="375" 
d="M186 352q-68 0 -109.5 35t-49.5 98h75q5 -33 27 -52t57 -19q41 0 63.5 23.5t22.5 65.5q0 43 -22 66.5t-63 23.5q-32 0 -53 -16.5t-29 -44.5l-74 10l34 260h253v-60h-185l-29 -200h2q8 52 40 80t81 28q59 0 91.5 -37.5t32.5 -104.5q0 -74 -43.5 -115t-121.5 -41z" />
    <glyph glyph-name="uni2076" unicode="&#x2076;" horiz-adv-x="393" 
d="M235 644q63 0 97 -36t34 -100q0 -74 -45 -115t-122 -41q-83 0 -125.5 55.5t-42.5 163.5q0 112 46 174.5t130 62.5q65 0 104 -34.5t44 -97.5h-74q-4 33 -23 51.5t-51 18.5q-48 0 -74 -45.5t-26 -126.5v-44h2q0 54 33 84t93 30zM197 414q42 0 65.5 23t23.5 65
q0 40 -23.5 61.5t-65.5 21.5t-65 -21t-23 -59q0 -42 24.5 -66.5t63.5 -24.5z" />
    <glyph glyph-name="uni2077" unicode="&#x2077;" horiz-adv-x="336" 
d="M323 802v-57q-66 -20 -103 -110t-37 -234v-43h-80v31q0 79 13.5 142t39 108t62 71t82.5 30v2h-289v60h312z" />
    <glyph glyph-name="uni2078" unicode="&#x2078;" horiz-adv-x="388" 
d="M230 616q61 -8 94.5 -41t33.5 -87q0 -64 -43 -100t-121 -36t-121 36t-43 100q0 54 33.5 87t94.5 41v2q-54 0 -84 23t-30 65q0 48 39.5 75t110.5 27t110.5 -27t39.5 -75q0 -42 -30 -65t-84 -23v-2zM123 680q0 -32 19 -49.5t52 -17.5q34 0 52.5 17.5t18.5 49.5
q0 31 -18.5 48.5t-52.5 17.5q-33 0 -52 -17.5t-19 -48.5zM194 414q40 0 62 19.5t22 54.5t-22 54.5t-62 19.5t-62.5 -19.5t-22.5 -54.5t22.5 -54.5t62.5 -19.5z" />
    <glyph glyph-name="uni2079" unicode="&#x2079;" horiz-adv-x="393" 
d="M196 808q83 0 125 -56.5t42 -162.5q0 -112 -46.5 -174.5t-130.5 -62.5q-65 0 -104 38t-44 106h74q4 -38 23 -60t51 -22q48 0 74 45.5t26 126.5v50h-2q0 -51 -33 -79.5t-92 -28.5q-63 0 -97 34t-34 96q0 71 45 110.5t123 39.5zM196 587q42 0 65 19.5t23 54.5
q0 40 -24.5 62.5t-63.5 22.5q-42 0 -66 -21.5t-24 -60.5q0 -37 24 -57t66 -20z" />
    <glyph glyph-name="uni2080" unicode="&#x2080;" horiz-adv-x="401" 
d="M201 -116q-81 0 -125.5 60t-44.5 168t44.5 168t125.5 60q80 0 124.5 -60t44.5 -168t-44.5 -168t-124.5 -60zM201 -54q43 0 66.5 44t23.5 122t-23.5 122t-66.5 44q-44 0 -67.5 -44t-23.5 -122t23.5 -122t67.5 -44z" />
    <glyph glyph-name="uni2081" unicode="&#x2081;" horiz-adv-x="239" 
d="M182 334v-444h-77v422h-2q0 -52 -22.5 -80.5t-63.5 -28.5v66q42 0 65 17.5t23 47.5h77z" />
    <glyph glyph-name="uni2082" unicode="&#x2082;" horiz-adv-x="375" 
d="M349 -50v-60h-322v57q109 36 169 100.5t60 144.5q0 41 -19 63.5t-52 22.5q-35 0 -56 -26.5t-23 -74.5h-75q5 77 45.5 120t109.5 43q72 0 112 -39.5t40 -110.5q0 -97 -76 -159.5t-213 -78.5v-2h300z" />
    <glyph glyph-name="uni2083" unicode="&#x2083;" horiz-adv-x="372" 
d="M186 144q74 0 115 -33t41 -93q0 -63 -42.5 -98.5t-120.5 -35.5q-69 0 -109.5 38.5t-45.5 108.5h74q2 -41 23 -63.5t59 -22.5q39 0 61 19t22 54q0 34 -23 53t-65 19h-12v55q42 4 64.5 23t22.5 48q0 30 -18.5 46.5t-52.5 16.5q-33 0 -52.5 -23t-21.5 -63h-72q5 69 44.5 108
t108.5 39q68 0 105.5 -27t37.5 -72t-38.5 -70t-108.5 -25v-2h4v0z" />
    <glyph glyph-name="uni2084" unicode="&#x2084;" horiz-adv-x="384" 
d="M365 -4h-58v-106h-77v106h-211v64l145 274h143v-278h58v-60zM89 58v-2h143v271h-2z" />
    <glyph glyph-name="uni2085" unicode="&#x2085;" horiz-adv-x="375" 
d="M186 -116q-68 0 -109.5 35t-49.5 98h75q5 -33 27 -52t57 -19q41 0 63.5 23.5t22.5 65.5q0 43 -22 66.5t-63 23.5q-32 0 -53 -16.5t-29 -44.5l-74 10l34 260h253v-60h-185l-29 -200h2q8 52 40 80t81 28q59 0 91.5 -37.5t32.5 -104.5q0 -74 -43.5 -115t-121.5 -41z" />
    <glyph glyph-name="uni2086" unicode="&#x2086;" horiz-adv-x="393" 
d="M235 176q63 0 97 -36t34 -100q0 -74 -45 -115t-122 -41q-83 0 -125.5 55.5t-42.5 163.5q0 112 46 174.5t130 62.5q65 0 104 -34.5t44 -97.5h-74q-4 33 -23 51.5t-51 18.5q-48 0 -74 -45.5t-26 -126.5v-44h2q0 54 33 84t93 30zM197 -54q42 0 65.5 23t23.5 65
q0 40 -23.5 61.5t-65.5 21.5t-65 -21t-23 -59q0 -42 24.5 -66.5t63.5 -24.5z" />
    <glyph glyph-name="uni2087" unicode="&#x2087;" horiz-adv-x="336" 
d="M324 334v-57q-66 -20 -103 -110t-37 -234v-43h-80v31q0 79 13.5 142t39 108t62 71t82.5 30v2h-289v60h312z" />
    <glyph glyph-name="uni2088" unicode="&#x2088;" horiz-adv-x="388" 
d="M230 148q61 -8 94.5 -41t33.5 -87q0 -64 -43 -100t-121 -36t-121 36t-43 100q0 54 33.5 87t94.5 41v2q-54 0 -84 23t-30 65q0 48 39.5 75t110.5 27t110.5 -27t39.5 -75q0 -42 -30 -65t-84 -23v-2zM123 212q0 -32 19 -49.5t52 -17.5q34 0 52.5 17.5t18.5 49.5
q0 31 -18.5 48.5t-52.5 17.5q-33 0 -52 -17.5t-19 -48.5zM194 -54q40 0 62 19.5t22 54.5t-22 54.5t-62 19.5t-62.5 -19.5t-22.5 -54.5t22.5 -54.5t62.5 -19.5z" />
    <glyph glyph-name="uni2089" unicode="&#x2089;" horiz-adv-x="393" 
d="M196 340q83 0 125 -56.5t42 -162.5q0 -112 -46.5 -174.5t-130.5 -62.5q-65 0 -104 38t-44 106h74q4 -38 23 -60t51 -22q48 0 74 45.5t26 126.5v50h-2q0 -51 -33 -79.5t-92 -28.5q-63 0 -97 34t-34 96q0 71 45 110.5t123 39.5zM196 119q42 0 65 19.5t23 54.5
q0 40 -24.5 62.5t-63.5 22.5q-42 0 -66 -21.5t-24 -60.5q0 -37 24 -57t66 -20z" />
    <glyph glyph-name="Euro" unicode="&#x20ac;" horiz-adv-x="664" 
d="M634 71q-46 -40 -106 -60.5t-112 -20.5q-134 0 -215 79t-98 223h-70v44h66q-1 8 -1 16.5v17.5v19t1 18h-66v44h70q18 143 99 221t214 78q53 0 107 -15t95 -43l-44 -76q-32 24 -74 36t-84 12q-84 0 -136.5 -55.5t-67.5 -156.5h275l-24 -45h-256q-1 -9 -1 -18v-19v-16.5
t1 -16.5h218l-24 -45h-190q15 -103 67.5 -159.5t137.5 -56.5q41 0 88.5 16.5t85.5 50.5z" />
    <glyph glyph-name="trademark" unicode="&#x2122;" horiz-adv-x="672" 
d="M28 770h217v-32h-89v-264h-38v264h-90v32zM604 474h-37l-9 290h-2l-83 -290h-70l-79 290h-2l-9 -290h-35l9 296h74l77 -290h2l81 290h74z" />
    <glyph glyph-name="oneeighth" unicode="&#x215b;" horiz-adv-x="832" 
d="M120 730q0 -52 -22.5 -80.5t-63.5 -28.5v66q42 0 65 17.5t23 47.5h77v-444h-77v422h-2zM601 725l-483 -735l-34 25l483 735zM666 258q61 -8 94.5 -41t33.5 -87q0 -64 -43 -100t-121 -36t-121 36t-43 100q0 54 33.5 87t94.5 41v2q-54 0 -84 23t-30 65q0 48 39.5 75
t110.5 27t110.5 -27t39.5 -75q0 -42 -30 -65t-84 -23v-2zM559 322q0 -32 19 -49.5t52 -17.5q34 0 52.5 17.5t18.5 49.5q0 31 -18.5 48.5t-52.5 17.5q-33 0 -52 -17.5t-19 -48.5zM630 56q40 0 62 19.5t22 54.5t-22 54.5t-62 19.5t-62.5 -19.5t-22.5 -54.5t22.5 -54.5
t62.5 -19.5z" />
    <glyph glyph-name="threeeighths" unicode="&#x215c;" horiz-adv-x="961" 
d="M353 436q0 -63 -42.5 -98.5t-120.5 -35.5q-69 0 -109.5 38.5t-45.5 108.5h74q2 -41 23 -63.5t59 -22.5q39 0 61 19t22 54q0 34 -23 53t-65 19h-12v55q42 4 64.5 23t22.5 48q0 30 -18.5 46.5t-52.5 16.5q-33 0 -52.5 -23t-21.5 -63h-72q5 69 44.5 108t108.5 39
q68 0 105.5 -27t37.5 -72t-38.5 -70t-108.5 -25v-2h4q74 0 115 -33t41 -93zM730 725l-483 -735l-34 25l483 735zM795 258q61 -8 94.5 -41t33.5 -87q0 -64 -43 -100t-121 -36t-121 36t-43 100q0 54 33.5 87t94.5 41v2q-54 0 -84 23t-30 65q0 48 39.5 75t110.5 27t110.5 -27
t39.5 -75q0 -42 -30 -65t-84 -23v-2zM688 322q0 -32 19 -49.5t52 -17.5q34 0 52.5 17.5t18.5 49.5q0 31 -18.5 48.5t-52.5 17.5q-33 0 -52 -17.5t-19 -48.5zM759 56q40 0 62 19.5t22 54.5t-22 54.5t-62 19.5t-62.5 -19.5t-22.5 -54.5t22.5 -54.5t62.5 -19.5z" />
    <glyph glyph-name="fiveeighths" unicode="&#x215d;" horiz-adv-x="965" 
d="M360 458q0 -74 -43.5 -115t-121.5 -41q-68 0 -109.5 35t-49.5 98h75q5 -33 27 -52t57 -19q41 0 63.5 23.5t22.5 65.5q0 43 -22 66.5t-63 23.5q-32 0 -53 -16.5t-29 -44.5l-74 10l34 260h253v-60h-185l-29 -200h2q8 52 40 80t81 28q59 0 91.5 -37.5t32.5 -104.5zM735 725
l-483 -735l-34 25l483 735zM800 258q61 -8 94.5 -41t33.5 -87q0 -64 -43 -100t-121 -36t-121 36t-43 100q0 54 33.5 87t94.5 41v2q-54 0 -84 23t-30 65q0 48 39.5 75t110.5 27t110.5 -27t39.5 -75q0 -42 -30 -65t-84 -23v-2zM693 322q0 -32 19 -49.5t52 -17.5
q34 0 52.5 17.5t18.5 49.5q0 31 -18.5 48.5t-52.5 17.5q-33 0 -52 -17.5t-19 -48.5zM764 56q40 0 62 19.5t22 54.5t-22 54.5t-62 19.5t-62.5 -19.5t-22.5 -54.5t22.5 -54.5t62.5 -19.5z" />
    <glyph glyph-name="seveneighths" unicode="&#x215e;" horiz-adv-x="939" 
d="M117 339q0 79 13.5 142t39 108t62 71t82.5 30v2h-289v60h312v-57q-66 -20 -103 -110t-37 -234v-43h-80v31zM703 725l-483 -735l-34 25l483 735zM768 258q61 -8 94.5 -41t33.5 -87q0 -64 -43 -100t-121 -36t-121 36t-43 100q0 54 33.5 87t94.5 41v2q-54 0 -84 23t-30 65
q0 48 39.5 75t110.5 27t110.5 -27t39.5 -75q0 -42 -30 -65t-84 -23v-2zM661 322q0 -32 19 -49.5t52 -17.5q34 0 52.5 17.5t18.5 49.5q0 31 -18.5 48.5t-52.5 17.5q-33 0 -52 -17.5t-19 -48.5zM732 56q40 0 62 19.5t22 54.5t-22 54.5t-62 19.5t-62.5 -19.5t-22.5 -54.5
t22.5 -54.5t62.5 -19.5z" />
    <glyph glyph-name="partialdiff" unicode="&#x2202;" horiz-adv-x="657" 
d="M321 750q68 0 121.5 -25.5t91 -74.5t57 -119t19.5 -159q0 -90 -23 -161t-66 -120t-105.5 -75t-141.5 -26q-115 0 -179 46t-64 128q0 49 32 87.5t93 65.5t149 41t199 14q0 138 -49 215t-138 77q-64 0 -103.5 -32.5t-47.5 -92.5h-102q12 100 79.5 155.5t177.5 55.5zM275 76
q109 0 169 77.5t60 216.5q-86 0 -153.5 -12.5t-114.5 -36.5t-72 -58.5t-25 -78.5q0 -51 35.5 -79.5t100.5 -28.5z" />
    <glyph glyph-name="emptyset" unicode="&#x2205;" horiz-adv-x="622" 
d="M518 425q26 -32 39.5 -75.5t13.5 -97.5q0 -124 -68 -192.5t-191 -68.5q-106 0 -173 52l-40 -41l-35 34l41 41q-54 68 -54 175q0 122 68.5 190t192.5 68q105 0 171 -51l38 39l35 -34zM99 252q0 -86 40 -140l309 313q-52 41 -137 41q-100 0 -156 -56.5t-56 -157.5zM311 35
q100 0 155 57t55 160q0 42 -10 76.5t-29 60.5l-309 -312q52 -42 138 -42z" />
    <glyph glyph-name="product" unicode="&#x220f;" horiz-adv-x="845" 
d="M821 679h-138v-909h-100v909h-322v-909h-100v909h-137v91h797v-91z" />
    <glyph glyph-name="summation" unicode="&#x2211;" horiz-adv-x="676" 
d="M648 -147v-83h-608v187l472 335v2l-460 289v187h576v-83l-564 2v-2l459 -285v-218l-471 -331v-2z" />
    <glyph glyph-name="minus" unicode="&#x2212;" horiz-adv-x="525" 
d="M66 273h393v-42h-393v42z" />
    <glyph glyph-name="radical" unicode="&#x221a;" horiz-adv-x="673" 
d="M674 770l-272 -880h-194l-82 322h-117v83h205l89 -398h2l256 873h113z" />
    <glyph glyph-name="infinity" unicode="&#x221e;" horiz-adv-x="800" 
d="M563 447q88 0 137 -51.5t49 -144.5t-49 -144.5t-137 -51.5q-63 0 -104.5 29.5t-58.5 83.5q-17 -54 -58.5 -83.5t-104.5 -29.5q-88 0 -137.5 51.5t-49.5 144.5t49.5 144.5t137.5 51.5q63 0 104.5 -29.5t58.5 -83.5q17 54 58.5 83.5t104.5 29.5zM237 97q66 0 102.5 40.5
t36.5 113.5t-36.5 113.5t-102.5 40.5t-102.5 -40.5t-36.5 -113.5t36.5 -113.5t102.5 -40.5zM563 97q66 0 102.5 40.5t36.5 113.5t-36.5 113.5t-102.5 40.5t-102.5 -40.5t-36.5 -113.5t36.5 -113.5t102.5 -40.5z" />
    <glyph glyph-name="integral" unicode="&#x222b;" horiz-adv-x="475" 
d="M187 584q0 94 48.5 145t135.5 51q70 0 116 -26l-22 -73q-19 9 -37.5 13.5t-40.5 4.5q-49 0 -74.5 -29t-25.5 -81v-633q0 -94 -48 -145t-135 -51q-70 0 -117 26l22 73q19 -9 37.5 -13.5t41.5 -4.5q49 0 74 29t25 81v633v0z" />
    <glyph glyph-name="approxequal" unicode="&#x2248;" horiz-adv-x="590" 
d="M408 279q-42 0 -70.5 12t-52 26.5t-47.5 26.5t-58 12q-32 0 -51.5 -21.5t-22.5 -59.5h-40q1 59 31.5 91.5t85.5 32.5q42 0 70.5 -12t52 -26.5t47.5 -26.5t58 -12q32 0 51.5 21.5t22.5 59.5h40q-1 -59 -31.5 -91.5t-85.5 -32.5zM408 101q-42 0 -70.5 12t-52 26.5
t-47.5 26.5t-58 12q-32 0 -51.5 -21.5t-22.5 -59.5h-40q1 59 31.5 91.5t85.5 32.5q42 0 70.5 -12t52 -26.5t47.5 -26.5t58 -12q32 0 51.5 21.5t22.5 59.5h40q-1 -59 -31.5 -91.5t-85.5 -32.5z" />
    <glyph glyph-name="notequal" unicode="&#x2260;" horiz-adv-x="525" 
d="M302 307l-32 -110h189v-42h-201l-45 -155h-46l45 155h-146v42h158l32 110h-190v42h202l43 149h47l-43 -149h144v-42h-157z" />
    <glyph glyph-name="lessequal" unicode="&#x2264;" horiz-adv-x="517" 
d="M66 324v-2l387 -131v-45l-393 138v79l393 139v-45zM60 59h393v-42h-393v42z" />
    <glyph glyph-name="greaterequal" unicode="&#x2265;" horiz-adv-x="517" 
d="M457 363v-79l-393 -138v45l387 131v2l-387 133v45zM64 59h393v-42h-393v42z" />
    <glyph glyph-name="lozenge" unicode="&#x25ca;" horiz-adv-x="489" 
d="M442 307v-116l-147 -191h-101l-146 191v116l146 191h101zM436 250l-190 244h-2l-190 -244v-2l190 -244h2l190 244v2z" />
    <glyph glyph-name="uniF8FF" unicode="&#xf8ff;" horiz-adv-x="1274" 
d="M846 -3q-7 -7 -17 -7q-14 0 -17 7.5t-3 15.5v324l-339 -340q-7 -7 -17 -7q-14 0 -17 7.5t-3 15.5v324l-340 -340q-7 -7 -17 -7q-8 0 -12.5 5t-4.5 13q0 10 5 15l342 341h-324q-8 0 -15.5 3t-7.5 16q0 5 2 8.5t5 7.5l340 342h-327q-20 0 -20 19v1q0 19 20 19h370
q8 0 15.5 -3t7.5 -17q0 -10 -8 -17l-341 -340h330q8 0 14 -6t6 -14v-327l339 338q7 8 17 8q13 0 15.5 -7.5t2.5 -14.5v-324l340 338q6 8 16 8q8 0 12.5 -5.5t4.5 -13.5q0 -3 -1 -7t-5 -7z" />
    <glyph glyph-name="Jacute" horiz-adv-x="560" 
d="M564 921l-185 -93l-30 55l182 98zM371 215v525h105v-519q0 -109 -59.5 -170t-165.5 -61q-100 0 -159.5 68.5t-67.5 191.5h98q7 -82 41.5 -128t90.5 -46q55 0 86 36.5t31 102.5z" />
    <glyph glyph-name="i.loclTRK" horiz-adv-x="246" 
d="M74 715h100v-113h-100v113zM173 498v-498h-100v498h100z" />
    <glyph glyph-name="jacute" horiz-adv-x="246" 
d="M264 679l-185 -93l-30 55l182 98zM173 498v-728h-100v728h100z" />
    <glyph glyph-name="f_b" horiz-adv-x="989" 
d="M303 699q-53 0 -79.5 -26.5t-26.5 -74.5v-100h169v-73h-162v-425h-100v425h-79v73h167v2q-45 17 -70 49.5t-25 76.5q0 73 48 113.5t135 40.5q53 0 96 -19l-13 -76q-27 14 -60 14zM736 508q98 0 152.5 -68t54.5 -191t-54.5 -191t-152.5 -68q-85 0 -133 46.5t-48 129.5h-2
v-166h-100v770h100v-438h2q0 83 48 129.5t133 46.5zM694 71q70 0 108.5 46.5t38.5 131.5t-38.5 131.5t-108.5 46.5t-109 -48.5t-39 -129.5t39 -129.5t109 -48.5z" />
    <glyph glyph-name="f_f_j" horiz-adv-x="948" 
d="M874 497v-727h-100v655h-243v-425h-100v425h-227v-425h-100v425h-79v73h167v2q-45 17 -70 49.5t-25 76.5q0 73 48 113.5t135 40.5q53 0 96 -19l-13 -76q-27 14 -60 14q-53 0 -79.5 -26.5t-26.5 -74.5v-100h322v2q-45 17 -70 49.5t-25 76.5q0 73 48 113.5t135 40.5
q53 0 96 -19l-13 -76q-27 14 -60 14q-53 0 -79.5 -26.5t-26.5 -74.5v-100h351zM874 602h-100v113h100v-113z" />
    <glyph glyph-name="f_f_t" horiz-adv-x="1054" 
d="M868 425v-271q0 -40 22.5 -61.5t64.5 -21.5q38 0 70 16v-76q-21 -10 -48 -15.5t-54 -5.5q-73 0 -114 40.5t-41 113.5v281h-237v-425h-100v425h-227v-425h-100v425h-79v73h167v2q-45 17 -70 49.5t-25 76.5q0 73 48 113.5t135 40.5q53 0 96 -19l-13 -76q-27 14 -60 14
q-53 0 -79.5 -26.5t-26.5 -74.5v-100h322v2q-45 17 -70 49.5t-25 76.5q0 73 48 113.5t135 40.5q53 0 96 -19l-13 -76q-27 14 -60 14q-53 0 -79.5 -26.5t-26.5 -74.5v-100h251v170h100v-42q0 -44 -25.5 -76.5t-70.5 -49.5v-2h253v-73h-164z" />
    <glyph glyph-name="f_h" horiz-adv-x="969" 
d="M303 699q-53 0 -79.5 -26.5t-26.5 -74.5v-100h169v-73h-162v-425h-100v425h-79v73h167v2q-45 17 -70 49.5t-25 76.5q0 73 48 113.5t135 40.5q53 0 96 -19l-13 -76q-27 14 -60 14zM723 508q85 0 131.5 -53t46.5 -148v-307h-100v304q0 59 -30.5 91t-85.5 32
q-62 0 -96.5 -41t-34.5 -115v-271h-100v770h100v-445h2q0 87 44 135t123 48z" />
    <glyph glyph-name="f_iacute" horiz-adv-x="621" 
d="M547 497v-497h-100v425h-243v-425h-100v425h-79v73h167v2q-45 17 -70 49.5t-25 76.5q0 73 48 113.5t135 40.5q53 0 96 -19l-13 -76q-27 14 -60 14q-53 0 -79.5 -26.5t-26.5 -74.5v-100h351zM453 586l-30 55l182 98l33 -60z" />
    <glyph glyph-name="f_j" horiz-adv-x="621" 
d="M547 497v-727h-100v655h-243v-425h-100v425h-79v73h167v2q-45 17 -70 49.5t-25 76.5q0 73 48 113.5t135 40.5q53 0 96 -19l-13 -76q-27 14 -60 14q-53 0 -79.5 -26.5t-26.5 -74.5v-100h351zM547 602h-100v113h100v-113z" />
    <glyph glyph-name="f_k" horiz-adv-x="940" 
d="M303 699q-53 0 -79.5 -26.5t-26.5 -74.5v-100h169v-73h-162v-425h-100v425h-79v73h167v2q-45 17 -70 49.5t-25 76.5q0 73 48 113.5t135 40.5q53 0 96 -19l-13 -76q-27 14 -60 14zM939 0h-127l-256 255h-2v-255h-100v770h100v-507h2l239 235h124l-249 -237z" />
    <glyph glyph-name="f_t" horiz-adv-x="727" 
d="M541 425v-271q0 -40 22.5 -61.5t64.5 -21.5q38 0 70 16v-76q-21 -10 -48 -15.5t-54 -5.5q-73 0 -114 40.5t-41 113.5v281h-237v-425h-100v425h-79v73h167v2q-45 17 -70 49.5t-25 76.5q0 73 48 113.5t135 40.5q53 0 96 -19l-13 -76q-27 14 -60 14q-53 0 -79.5 -26.5
t-26.5 -74.5v-100h251v170h100v-42q0 -44 -25.5 -76.5t-70.5 -49.5v-2h253v-73h-164z" />
    <glyph glyph-name="t_t" horiz-adv-x="741" 
d="M555 425v-271q0 -40 22.5 -61.5t64.5 -21.5q38 0 70 16v-76q-21 -10 -48 -15.5t-54 -5.5q-73 0 -114 40.5t-41 113.5v281h-256v-271q0 -40 22.5 -61.5t64.5 -21.5q38 0 70 16v-76q-21 -10 -48 -15.5t-54 -5.5q-73 0 -114 40.5t-41 113.5v281h-77v73h84v170h100v-42
q0 -44 -25.5 -76.5t-70.5 -49.5v-2h352v170h100v-42q0 -44 -25.5 -76.5t-70.5 -49.5v-2h253v-73h-164z" />
    <glyph glyph-name="zero.lf" horiz-adv-x="654" 
d="M327 -10q-65 0 -116 26t-86.5 74.5t-54 119t-18.5 160.5t18.5 160.5t54 119t86.5 74.5t116 26t116 -26t86 -74.5t53.5 -119t18.5 -160.5t-18.5 -160.5t-53.5 -119t-86 -74.5t-116 -26zM327 76q79 0 123 77t44 217t-44 217t-123 77t-123 -77t-44 -217t44 -217t123 -77z
" />
    <glyph glyph-name="one.lf" horiz-adv-x="363" 
d="M272 740v-740h-104v706h-2q0 -76 -37.5 -118t-104.5 -42v91q69 0 106.5 27.5t37.5 75.5h104z" />
    <glyph glyph-name="two.lf" horiz-adv-x="607" 
d="M564 83v-83h-523v78q93 28 166 71t123.5 98t77 120t26.5 137q0 75 -36 117.5t-100 42.5q-66 0 -104.5 -48t-43.5 -135h-101q7 128 73 198.5t179 70.5q116 0 180 -65.5t64 -183.5q0 -83 -31.5 -153t-91 -123.5t-146 -89t-196.5 -50.5v-2h484z" />
    <glyph glyph-name="three.lf" horiz-adv-x="606" 
d="M299 417q121 0 189.5 -55t68.5 -154q0 -103 -69.5 -160.5t-194.5 -57.5q-113 0 -179 63.5t-73 178.5h101q3 -74 43 -115.5t109 -41.5q73 0 114 35t41 98t-43 98t-120 35h-20v78q76 8 118.5 42.5t42.5 88.5t-35.5 84.5t-98.5 30.5q-62 0 -98 -41.5t-41 -116.5h-99
q8 115 73 179t175 64t171 -45.5t61 -122.5q0 -78 -63.5 -120.5t-178.5 -42.5v-2h6v0z" />
    <glyph glyph-name="four.lf" horiz-adv-x="613" 
d="M581 185h-96v-185h-105v185h-355v89l265 466h195v-472h96v-83zM123 270v-2h260v462h-2z" />
    <glyph glyph-name="five.lf" horiz-adv-x="610" 
d="M303 -10q-110 0 -178 57.5t-80 160.5h103q10 -62 51 -97t104 -35q75 0 117 44t42 122t-41 121.5t-116 43.5q-62 0 -99 -32t-54 -83l-101 13l57 435h407v-83h-313l-49 -347h2q14 84 66.5 130.5t133.5 46.5q102 0 158.5 -63t56.5 -177q0 -121 -70.5 -189t-196.5 -68z" />
    <glyph glyph-name="six.lf" horiz-adv-x="641" 
d="M370 476q106 0 164.5 -60t58.5 -169q0 -60 -19 -108t-54 -81t-84.5 -50.5t-110.5 -17.5q-136 0 -204.5 90.5t-68.5 270.5q0 94 19.5 168t56 125.5t89.5 78.5t121 27q105 0 167.5 -57.5t70.5 -160.5h-102q-6 63 -41.5 97.5t-94.5 34.5q-86 0 -133 -81t-47 -226v-72h2
q0 90 55 140.5t155 50.5zM322 76q77 0 120 43t43 121q0 73 -43 113.5t-120 40.5q-76 0 -118.5 -39t-42.5 -109q0 -39 12 -70.5t33.5 -53.5t51 -34t64.5 -12z" />
    <glyph glyph-name="seven.lf" horiz-adv-x="542" 
d="M525 740v-78q-57 -15 -102 -62.5t-75.5 -122.5t-47 -175.5t-16.5 -222.5v-79h-110v62q0 131 21.5 236.5t62 182t98.5 121t132 53.5v2h-474v83h511z" />
    <glyph glyph-name="eight.lf" horiz-adv-x="632" 
d="M380 422q97 -13 149.5 -67.5t52.5 -143.5q0 -105 -70 -163t-196 -58t-196 58t-70 163q0 89 52.5 143.5t148.5 67.5v2q-84 0 -130.5 39.5t-46.5 111.5q0 82 63.5 128.5t178.5 46.5t178.5 -46.5t63.5 -128.5q0 -71 -47 -111t-131 -40v-2zM181 541q0 -60 35.5 -92.5
t99.5 -32.5q63 0 99 32.5t36 92.5q0 58 -36 90.5t-99 32.5q-64 0 -99.5 -32.5t-35.5 -90.5zM316 76q75 0 116.5 35.5t41.5 99.5t-41.5 99.5t-116.5 35.5t-116.5 -35.5t-41.5 -99.5t41.5 -99.5t116.5 -35.5z" />
    <glyph glyph-name="nine.lf" horiz-adv-x="640" 
d="M318 750q137 0 203.5 -92.5t66.5 -268.5q0 -94 -19.5 -168t-56 -125.5t-90 -78.5t-120.5 -27q-105 0 -167.5 63t-70.5 175h102q6 -72 41.5 -112t94.5 -40q85 0 132.5 81t47.5 226v82h-2q0 -85 -55.5 -133t-155.5 -48q-106 0 -164 57.5t-58 161.5q0 58 19.5 104t54.5 77.5
t85 48.5t112 17zM318 366q76 0 118.5 36t42.5 102q0 75 -45 117.5t-116 42.5q-77 0 -120 -40.5t-43 -113.5q0 -69 43 -106.5t120 -37.5z" />
    <glyph glyph-name="zero.osf" horiz-adv-x="639" 
d="M319 -10q-128 0 -198 77t-70 217t70 217t198 77t198.5 -77t70.5 -217t-70.5 -217t-198.5 -77zM319 71q79 0 123 56t44 157t-44 157t-123 56q-78 0 -122 -56t-44 -157t44 -157t122 -56z" />
    <glyph glyph-name="one.osf" horiz-adv-x="354" 
d="M269 568v-568h-100v534h-2q0 -72 -36 -112t-101 -40v83q66 0 102.5 27.5t36.5 75.5h100z" />
    <glyph glyph-name="two.osf" horiz-adv-x="589" 
d="M546 77v-77h-503v73q90 30 161.5 66t121 76.5t75.5 84t26 87.5q0 53 -35.5 82.5t-98.5 29.5q-65 0 -103 -36t-42 -102h-96q5 103 68 160t172 57q112 0 173.5 -50t61.5 -141q0 -57 -30.5 -106t-88.5 -88.5t-142 -68.5t-190 -45v-2h470z" />
    <glyph glyph-name="three.osf" horiz-adv-x="589" 
d="M281 278q123 0 191.5 -51.5t68.5 -144.5q0 -95 -68 -148.5t-193 -53.5q-109 0 -172.5 58t-69.5 163h95q3 -66 42 -104t106 -38q75 0 116.5 32t41.5 91q0 60 -42.5 93t-120.5 33h-20v72q78 8 120 39t42 79t-35.5 74.5t-99.5 26.5q-60 0 -96.5 -37t-41.5 -103h-93
q7 103 69 161t168 58q109 0 170 -41t61 -115q0 -67 -63 -104.5t-176 -37.5v-2v0z" />
    <glyph glyph-name="four.osf" horiz-adv-x="599" 
d="M572 0h-96v-110h-100v110h-347v84l257 485h190v-492h96v-77zM126 79v-2h252v482h-2z" />
    <glyph glyph-name="five.osf" 
d="M301 -120q-110 0 -178 52t-80 146h96q11 -55 53 -86t108 -31q78 0 121 41.5t43 116.5q0 72 -41.5 112.5t-116.5 40.5q-66 0 -106 -29t-57 -76l-94 13l56 388h416v-77h-326l-52 -310h2q17 78 71 122t134 44q103 0 159.5 -60t56.5 -168q0 -113 -70 -176t-195 -63z" />
    <glyph glyph-name="six.osf" horiz-adv-x="635" 
d="M368 462q106 0 163.5 -59.5t57.5 -166.5q0 -58 -19 -104t-53.5 -77.5t-83 -48t-108.5 -16.5q-141 0 -208 88.5t-67 268.5q0 90 19.5 161.5t56 120.5t89.5 75t120 26q105 0 167 -54.5t70 -153.5h-94q-6 60 -43.5 93.5t-99.5 33.5q-87 0 -135 -79.5t-48 -222.5v-73h2
q0 90 57.5 139t156.5 49zM322 71q78 0 122.5 41.5t44.5 116.5q0 74 -44.5 115.5t-122.5 41.5t-122.5 -40t-44.5 -111q0 -77 46.5 -120.5t120.5 -43.5z" />
    <glyph glyph-name="seven.osf" horiz-adv-x="545" 
d="M517 568v-72q-59 -17 -105.5 -66t-79 -127t-49.5 -182.5t-17 -230.5h-106q0 130 22 236t63 183.5t101 123t136 56.5v2h-456v77h491z" />
    <glyph glyph-name="eight.osf" horiz-adv-x="633" 
d="M378 409q99 -13 153.5 -65.5t54.5 -137.5q0 -103 -71 -159.5t-199 -56.5t-198.5 56.5t-70.5 159.5q0 85 54 137.5t153 65.5v2q-87 0 -135 38.5t-48 107.5q0 81 64.5 127t180.5 46t181 -46t65 -127q0 -69 -48.5 -107.5t-135.5 -38.5v-2zM172 526q0 -58 38 -90t106 -32
t106 32t38 90t-38 90.5t-106 32.5t-106 -32.5t-38 -90.5zM316 71q78 0 122.5 35.5t44.5 99.5q0 63 -44.5 98.5t-122.5 35.5t-122.5 -35.5t-44.5 -98.5q0 -64 44.5 -99.5t122.5 -35.5z" />
    <glyph glyph-name="nine.osf" horiz-adv-x="635" 
d="M309 577q141 0 208 -83t67 -254q0 -85 -19.5 -151.5t-56 -113t-89.5 -71t-120 -24.5q-105 0 -167 50t-70 141h95q5 -52 42.5 -81t99.5 -29q87 0 135 75t48 210v57h-2q0 -85 -57.5 -131.5t-156.5 -46.5q-106 0 -163.5 56.5t-57.5 159.5q0 56 18.5 100t53 74t83.5 46
t109 16zM312 202q78 0 122.5 37t44.5 103q0 36 -12.5 64.5t-34.5 48.5t-52.5 30.5t-67.5 10.5q-78 0 -122.5 -38.5t-44.5 -108.5t44.5 -108.5t122.5 -38.5z" />
    <glyph glyph-name="zero.dnom" horiz-adv-x="401" 
d="M201 -6q-81 0 -125.5 60t-44.5 168t44.5 168t125.5 60q80 0 124.5 -60t44.5 -168t-44.5 -168t-124.5 -60zM201 56q43 0 66.5 44t23.5 122t-23.5 122t-66.5 44q-44 0 -67.5 -44t-23.5 -122t23.5 -122t67.5 -44z" />
    <glyph glyph-name="one.dnom" horiz-adv-x="239" 
d="M182 444v-444h-77v422h-2q0 -52 -22.5 -80.5t-63.5 -28.5v66q42 0 65 17.5t23 47.5h77z" />
    <glyph glyph-name="two.dnom" horiz-adv-x="375" 
d="M349 60v-60h-322v57q109 36 169 100.5t60 144.5q0 41 -19 63.5t-52 22.5q-35 0 -56 -26.5t-23 -74.5h-75q5 77 45.5 120t109.5 43q72 0 112 -39.5t40 -110.5q0 -97 -76 -159.5t-213 -78.5v-2h300z" />
    <glyph glyph-name="three.dnom" horiz-adv-x="372" 
d="M187 254q74 0 115 -33t41 -93q0 -63 -42.5 -98.5t-120.5 -35.5q-69 0 -109.5 38.5t-45.5 108.5h74q2 -41 23 -63.5t59 -22.5q39 0 61 19t22 54q0 34 -23 53t-65 19h-12v55q42 4 64.5 23t22.5 48q0 30 -18.5 46.5t-52.5 16.5q-33 0 -52.5 -23t-21.5 -63h-72q5 69 44.5 108
t108.5 39q68 0 105.5 -27t37.5 -72t-38.5 -70t-108.5 -25v-2h4v0z" />
    <glyph glyph-name="four.dnom" horiz-adv-x="384" 
d="M364 106h-58v-106h-77v106h-211v64l145 274h143v-278h58v-60zM88 168v-2h143v271h-2z" />
    <glyph glyph-name="five.dnom" horiz-adv-x="375" 
d="M186 -6q-68 0 -109.5 35t-49.5 98h75q5 -33 27 -52t57 -19q41 0 63.5 23.5t22.5 65.5q0 43 -22 66.5t-63 23.5q-32 0 -53 -16.5t-29 -44.5l-74 10l34 260h253v-60h-185l-29 -200h2q8 52 40 80t81 28q59 0 91.5 -37.5t32.5 -104.5q0 -74 -43.5 -115t-121.5 -41z" />
    <glyph glyph-name="six.dnom" horiz-adv-x="393" 
d="M235 286q63 0 97 -36t34 -100q0 -74 -45 -115t-122 -41q-83 0 -125.5 55.5t-42.5 163.5q0 112 46 174.5t130 62.5q65 0 104 -34.5t44 -97.5h-74q-4 33 -23 51.5t-51 18.5q-48 0 -74 -45.5t-26 -126.5v-44h2q0 54 33 84t93 30zM197 56q42 0 65.5 23t23.5 65
q0 40 -23.5 61.5t-65.5 21.5t-65 -21t-23 -59q0 -42 24.5 -66.5t63.5 -24.5z" />
    <glyph glyph-name="seven.dnom" horiz-adv-x="336" 
d="M323 444v-57q-66 -20 -103 -110t-37 -234v-43h-80v31q0 79 13.5 142t39 108t62 71t82.5 30v2h-289v60h312z" />
    <glyph glyph-name="eight.dnom" horiz-adv-x="388" 
d="M230 258q61 -8 94.5 -41t33.5 -87q0 -64 -43 -100t-121 -36t-121 36t-43 100q0 54 33.5 87t94.5 41v2q-54 0 -84 23t-30 65q0 48 39.5 75t110.5 27t110.5 -27t39.5 -75q0 -42 -30 -65t-84 -23v-2zM123 322q0 -32 19 -49.5t52 -17.5q34 0 52.5 17.5t18.5 49.5
q0 31 -18.5 48.5t-52.5 17.5q-33 0 -52 -17.5t-19 -48.5zM194 56q40 0 62 19.5t22 54.5t-22 54.5t-62 19.5t-62.5 -19.5t-22.5 -54.5t22.5 -54.5t62.5 -19.5z" />
    <glyph glyph-name="nine.dnom" horiz-adv-x="393" 
d="M196 450q83 0 125 -56.5t42 -162.5q0 -112 -46.5 -174.5t-130.5 -62.5q-65 0 -104 38t-44 106h74q4 -38 23 -60t51 -22q48 0 74 45.5t26 126.5v50h-2q0 -51 -33 -79.5t-92 -28.5q-63 0 -97 34t-34 96q0 71 45 110.5t123 39.5zM196 229q42 0 65 19.5t23 54.5
q0 40 -24.5 62.5t-63.5 22.5q-42 0 -66 -21.5t-24 -60.5q0 -37 24 -57t66 -20z" />
    <glyph glyph-name="zero.numr" horiz-adv-x="401" 
d="M201 302q-81 0 -125.5 60t-44.5 168t44.5 168t125.5 60q80 0 124.5 -60t44.5 -168t-44.5 -168t-124.5 -60zM201 364q43 0 66.5 44t23.5 122t-23.5 122t-66.5 44q-44 0 -67.5 -44t-23.5 -122t23.5 -122t67.5 -44z" />
    <glyph glyph-name="one.numr" horiz-adv-x="239" 
d="M182 752v-444h-77v422h-2q0 -52 -22.5 -80.5t-63.5 -28.5v66q42 0 65 17.5t23 47.5h77z" />
    <glyph glyph-name="two.numr" horiz-adv-x="375" 
d="M349 368v-60h-322v57q109 36 169 100.5t60 144.5q0 41 -19 63.5t-52 22.5q-35 0 -56 -26.5t-23 -74.5h-75q5 77 45.5 120t109.5 43q72 0 112 -39.5t40 -110.5q0 -97 -76 -159.5t-213 -78.5v-2h300z" />
    <glyph glyph-name="three.numr" horiz-adv-x="372" 
d="M186 562q74 0 115 -33t41 -93q0 -63 -42.5 -98.5t-120.5 -35.5q-69 0 -109.5 38.5t-45.5 108.5h74q2 -41 23 -63.5t59 -22.5q39 0 61 19t22 54q0 34 -23 53t-65 19h-12v55q42 4 64.5 23t22.5 48q0 30 -18.5 46.5t-52.5 16.5q-33 0 -52.5 -23t-21.5 -63h-72q5 69 44.5 108
t108.5 39q68 0 105.5 -27t37.5 -72t-38.5 -70t-108.5 -25v-2h4v0z" />
    <glyph glyph-name="four.numr" horiz-adv-x="384" 
d="M365 414h-58v-106h-77v106h-211v64l145 274h143v-278h58v-60zM89 476v-2h143v271h-2z" />
    <glyph glyph-name="five.numr" horiz-adv-x="375" 
d="M186 302q-68 0 -109.5 35t-49.5 98h75q5 -33 27 -52t57 -19q41 0 63.5 23.5t22.5 65.5q0 43 -22 66.5t-63 23.5q-32 0 -53 -16.5t-29 -44.5l-74 10l34 260h253v-60h-185l-29 -200h2q8 52 40 80t81 28q59 0 91.5 -37.5t32.5 -104.5q0 -74 -43.5 -115t-121.5 -41z" />
    <glyph glyph-name="six.numr" horiz-adv-x="393" 
d="M235 594q63 0 97 -36t34 -100q0 -74 -45 -115t-122 -41q-83 0 -125.5 55.5t-42.5 163.5q0 112 46 174.5t130 62.5q65 0 104 -34.5t44 -97.5h-74q-4 33 -23 51.5t-51 18.5q-48 0 -74 -45.5t-26 -126.5v-44h2q0 54 33 84t93 30zM197 364q42 0 65.5 23t23.5 65
q0 40 -23.5 61.5t-65.5 21.5t-65 -21t-23 -59q0 -42 24.5 -66.5t63.5 -24.5z" />
    <glyph glyph-name="seven.numr" horiz-adv-x="336" 
d="M324 752v-57q-66 -20 -103 -110t-37 -234v-43h-80v31q0 79 13.5 142t39 108t62 71t82.5 30v2h-289v60h312z" />
    <glyph glyph-name="eight.numr" horiz-adv-x="388" 
d="M230 566q61 -8 94.5 -41t33.5 -87q0 -64 -43 -100t-121 -36t-121 36t-43 100q0 54 33.5 87t94.5 41v2q-54 0 -84 23t-30 65q0 48 39.5 75t110.5 27t110.5 -27t39.5 -75q0 -42 -30 -65t-84 -23v-2zM123 630q0 -32 19 -49.5t52 -17.5q34 0 52.5 17.5t18.5 49.5
q0 31 -18.5 48.5t-52.5 17.5q-33 0 -52 -17.5t-19 -48.5zM194 364q40 0 62 19.5t22 54.5t-22 54.5t-62 19.5t-62.5 -19.5t-22.5 -54.5t22.5 -54.5t62.5 -19.5z" />
    <glyph glyph-name="nine.numr" horiz-adv-x="393" 
d="M196 758q83 0 125 -56.5t42 -162.5q0 -112 -46.5 -174.5t-130.5 -62.5q-65 0 -104 38t-44 106h74q4 -38 23 -60t51 -22q48 0 74 45.5t26 126.5v50h-2q0 -51 -33 -79.5t-92 -28.5q-63 0 -97 34t-34 96q0 71 45 110.5t123 39.5zM196 537q42 0 65 19.5t23 54.5
q0 40 -24.5 62.5t-63.5 22.5q-42 0 -66 -21.5t-24 -60.5q0 -37 24 -57t66 -20z" />
    <glyph glyph-name="backslash.case" horiz-adv-x="368" 
d="M340 -15l-45 -15l-266 785l45 15z" />
    <glyph glyph-name="exclamdown.case" horiz-adv-x="281" 
d="M82 740h117v-111h-117v111zM188 534l5 -534h-104l5 534h94z" />
    <glyph glyph-name="questiondown.case" horiz-adv-x="546" 
d="M245 629v111h116v-111h-116zM517 229q-6 -113 -69 -176t-170 -63q-111 0 -172 54.5t-61 151.5q0 37 14 79t40 85.5t64.5 87.5t86.5 86h97v-2q-91 -86 -141.5 -172.5t-50.5 -155.5q0 -60 33 -94t93 -34t96 40.5t41 112.5h99z" />
    <glyph glyph-name="slash.case" horiz-adv-x="368" 
d="M339 755l-266 -785l-45 15l266 785z" />
    <glyph glyph-name="numbersign.osf" horiz-adv-x="588" 
d="M445 370l-19 -160h100l-4 -40h-100l-20 -170h-49l18 170h-186l-19 -170h-49l20 170h-103l4 40h104l19 160h-100l4 40h100l18 150h49l-18 -150h186l18 150h49l-17 -150h103l-4 -40h-104zM397 370h-189l-19 -160h189z" />
    <glyph glyph-name="braceleft.case" horiz-adv-x="276" 
d="M167 472q0 -76 -67 -102q67 -28 67 -103v-205q0 -30 18 -49t47 -19v-44q-51 0 -82.5 29t-31.5 77v205q0 41 -22.5 63.5t-64.5 22.5v45q42 0 64.5 22.5t22.5 63.5v206q0 48 31.5 77t82.5 29v-44q-29 0 -47 -19t-18 -49v-206v0z" />
    <glyph glyph-name="braceright.case" horiz-adv-x="276" 
d="M158 478q0 -41 22.5 -63.5t64.5 -22.5v-45q-42 0 -64.5 -22.5t-22.5 -63.5v-205q0 -48 -31.5 -77t-82.5 -29v44q29 0 47 19t18 49v205q0 75 67 103q-67 26 -67 102v206q0 30 -18 49t-47 19v44q51 0 82.5 -29t31.5 -77v-206v0z" />
    <glyph glyph-name="bracketleft.case" horiz-adv-x="307" 
d="M139 746v-752h144v-44h-192v840h192v-44h-144z" />
    <glyph glyph-name="bracketright.case" horiz-adv-x="307" 
d="M216 -50h-192v44h144v752h-144v44h192v-840z" />
    <glyph glyph-name="parenleft.case" horiz-adv-x="260" 
d="M234 -32l-37 -28q-78 102 -113 211.5t-35 218.5t35 218.5t113 211.5l37 -28q-37 -47 -62.5 -97.5t-41.5 -102t-23.5 -103t-7.5 -99.5t7.5 -99t23.5 -102.5t41.5 -102.5t62.5 -98z" />
    <glyph glyph-name="parenright.case" horiz-adv-x="260" 
d="M26 -32q37 47 62.5 98t41.5 102.5t23.5 102.5t7.5 99t-7.5 99.5t-23.5 103t-41.5 102t-62.5 97.5l37 28q78 -102 113 -211.5t35 -218.5t-35 -218.5t-113 -211.5z" />
    <glyph glyph-name="emdash.case" horiz-adv-x="878" 
d="M811 384v-42h-745v42h745z" />
    <glyph glyph-name="endash.case" horiz-adv-x="593" 
d="M526 384v-42h-460v42h460z" />
    <glyph glyph-name="hyphen.case" horiz-adv-x="414" 
d="M347 384v-42h-281v42h281z" />
    <glyph glyph-name="uni00AD.case" horiz-adv-x="414" 
d="M347 384v-42h-281v42h281z" />
    <glyph glyph-name="guillemotleft.case" horiz-adv-x="455" 
d="M175 553h52l-126 -193l126 -193h-52l-128 193zM340 553h52l-126 -193l126 -193h-52l-128 193z" />
    <glyph glyph-name="guillemotright.case" horiz-adv-x="455" 
d="M115 167h-52l126 193l-126 193h52l128 -193zM280 167h-52l126 193l-126 193h52l128 -193z" />
    <glyph glyph-name="guilsinglleft.case" horiz-adv-x="290" 
d="M175 553h52l-126 -193l126 -193h-52l-128 193z" />
    <glyph glyph-name="guilsinglright.case" horiz-adv-x="290" 
d="M115 167h-52l126 193l-126 193h52l128 -193z" />
    <glyph glyph-name="cent.osf" horiz-adv-x="563" 
d="M529 182q-15 -86 -69 -135.5t-142 -55.5v-101h-48v101q-106 7 -165 74t-59 184t59 184t165 74v93h48v-93q85 -6 138.5 -53t69.5 -128h-99q-13 42 -40.5 67.5t-68.5 31.5v-352q43 6 71.5 34t39.5 75h100zM148 249q0 -77 31.5 -123t90.5 -54v354q-59 -8 -90.5 -54
t-31.5 -123z" />
    <glyph glyph-name="dollar.osf" horiz-adv-x="557" 
d="M518 171q0 -80 -56.5 -126.5t-159.5 -51.5v-81h-47v81q-97 5 -154 57.5t-64 143.5h94q5 -53 37.5 -85t86.5 -39v187q-36 5 -72.5 13t-65 24t-46.5 43.5t-18 71.5q0 78 53 120t149 47v80h47v-80q88 -6 140.5 -56t59.5 -135h-95q-3 48 -30 77t-75 36v-166q38 -5 76.5 -13
t69.5 -25t50.5 -46t19.5 -77zM150 416q0 -19 8 -31.5t22.5 -21.5t33.5 -14t41 -9v159q-50 -3 -77.5 -24.5t-27.5 -58.5zM302 70q57 4 88 28t31 63q0 23 -9.5 38.5t-25.5 25.5t-37.5 15.5t-46.5 9.5v-180z" />
    <glyph glyph-name="Euro.osf" horiz-adv-x="568" 
d="M531 56q-38 -32 -87.5 -48t-90.5 -16q-110 0 -177.5 60t-82.5 170h-57v35h54q-1 7 -1 13.5v14.5v13.5t1 13.5h-54v36h57q16 109 83 169t177 60q43 0 87 -11.5t78 -33.5l-39 -68q-26 18 -59.5 27t-66.5 9q-65 0 -106.5 -39.5t-54.5 -111.5h221l-20 -37h-205
q-1 -7 -1 -13.5v-13.5v-13.5t1 -13.5h175l-21 -36h-150q13 -73 54 -113t107 -40q32 0 69 13t68 39z" />
    <glyph glyph-name="sterling.osf" horiz-adv-x="537" 
d="M494 75v-75h-446v72q55 35 75.5 75.5t20.5 78.5q0 10 -3 21h-82v42h67q-14 31 -30 63.5t-16 66.5q0 75 52.5 116.5t148.5 41.5q93 0 147 -49.5t60 -140.5h-93q-3 54 -32.5 83.5t-80.5 29.5q-48 0 -74 -22.5t-26 -62.5q0 -31 17.5 -62.5t32.5 -63.5h167v-42h-154
q1 -5 1.5 -8.5t0.5 -8.5q0 -50 -43.5 -88.5t-137.5 -64.5v-2h428z" />
    <glyph glyph-name="yen.osf" horiz-adv-x="598" 
d="M403 228h99v-35h-116l-22 -47h138v-36h-156l-52 -110h-109l52 110h-136v36h153l22 47h-175v35h94l-163 340h115l155 -335h2l154 335h107z" />
    <glyph glyph-name="plus.case" horiz-adv-x="467" 
d="M430 331h-173v-175h-47v175h-172v42h171v175h48v-175h173v-42z" />
    <glyph glyph-name="minus.case" horiz-adv-x="524" 
d="M66 373h393v-42h-393v42z" />
    <glyph glyph-name="multiply.case" horiz-adv-x="466" 
d="M265 346l149 -149l-32 -32l-149 149l-149 -149l-32 32l149 149l-149 149l32 32l149 -149l149 149l33 -32z" />
    <glyph glyph-name="divide.case" horiz-adv-x="518" 
d="M259 464q-34 0 -34 32q0 34 34 34q35 0 35 -34q0 -32 -35 -32zM63 373h392v-42h-392v42zM259 174q-34 0 -34 32q0 34 34 34q35 0 35 -34q0 -32 -35 -32z" />
    <glyph glyph-name="equal.case" horiz-adv-x="524" 
d="M66 449h393v-42h-393v42zM66 297h393v-42h-393v42z" />
    <glyph glyph-name="notequal.case" horiz-adv-x="524" 
d="M302 407l-32 -110h189v-42h-201l-45 -155h-46l45 155h-146v42h158l32 110h-190v42h202l43 149h47l-43 -149h144v-42h-157z" />
    <glyph glyph-name="greater.case" horiz-adv-x="476" 
d="M438 393v-81l-374 -163v46l368 156v2l-368 158v46z" />
    <glyph glyph-name="less.case" horiz-adv-x="476" 
d="M44 353v-2l368 -156v-46l-374 163v81l374 164v-46z" />
    <glyph glyph-name="greaterequal.case" horiz-adv-x="542" 
d="M473 463v-79l-393 -138v45l387 131v2l-387 133v45zM80 159h393v-42h-393v42z" />
    <glyph glyph-name="lessequal.case" horiz-adv-x="542" 
d="M75 424v-2l387 -131v-45l-393 138v79l393 139v-45zM69 159h393v-42h-393v42z" />
    <glyph glyph-name="plusminus.case" horiz-adv-x="528" 
d="M460 441v-41h-173v-158h-47v158h-172v41h172v159h47v-159h173zM67 159h393v-42h-393v42z" />
    <glyph glyph-name="logicalnot.case" horiz-adv-x="518" 
d="M449 441v-183h-48v141h-345v42h393z" />
    <glyph glyph-name="percent.osf" horiz-adv-x="680" 
d="M171 264q-63 0 -97 41t-34 116q0 74 34 115.5t97 41.5t97.5 -41.5t34.5 -115.5q0 -75 -34.5 -116t-97.5 -41zM534 578l33 -24l-423 -564l-32 24zM171 321q29 0 44.5 26.5t15.5 73.5t-15.5 73t-44.5 26q-28 0 -44 -26t-16 -73t16 -73.5t44 -26.5zM508 -10q-63 0 -97.5 41
t-34.5 115q0 75 34.5 116.5t97.5 41.5t97.5 -41.5t34.5 -116.5q0 -74 -34.5 -115t-97.5 -41zM508 47q29 0 44.5 26t15.5 73q0 48 -15.5 74t-44.5 26t-44.5 -26t-15.5 -74q0 -47 15.5 -73t44.5 -26z" />
    <glyph glyph-name="perthousand.osf" horiz-adv-x="977" 
d="M171 264q-63 0 -97 41t-34 116q0 74 34 115.5t97 41.5t97.5 -41.5t34.5 -115.5q0 -75 -34.5 -116t-97.5 -41zM534 578l33 -24l-423 -564l-32 24zM171 321q29 0 44.5 26.5t15.5 73.5t-15.5 73t-44.5 26q-28 0 -44 -26t-16 -73t16 -73.5t44 -26.5zM508 -10q-63 0 -97.5 41
t-34.5 115q0 75 34.5 116.5t97.5 41.5t97.5 -41.5t34.5 -116.5q0 -74 -34.5 -115t-97.5 -41zM812 -10q-63 0 -97 41t-34 115q0 75 34 116.5t97 41.5t97.5 -41.5t34.5 -116.5q0 -74 -34.5 -115t-97.5 -41zM508 47q29 0 44.5 26t15.5 73q0 48 -15.5 74t-44.5 26t-44.5 -26
t-15.5 -74q0 -47 15.5 -73t44.5 -26zM813 47q28 0 44 26t16 73q0 48 -16 74t-44 26q-29 0 -44.5 -26t-15.5 -74q0 -47 15.5 -73t44.5 -26z" />
    <glyph glyph-name="uni1EA4.001" horiz-adv-x="697" 
d="M515 186h-339l-58 -186h-107l246 740h185l244 -740h-113zM489 270l-142 460h-2l-143 -460h287zM352 905h-4l-57 -113h-76l65 125h140l65 -125h-76zM488 1158l-185 -93l-30 55l182 98z" />
    <glyph glyph-name="uni1EA5.001" 
d="M535 498v-498h-100v166h-2q0 -83 -47.5 -129.5t-133.5 -46.5q-98 0 -152.5 68t-54.5 191t54.5 191t152.5 68q86 0 133.5 -46.5t47.5 -129.5h2v166h100zM295 71q70 0 108.5 48.5t38.5 129.5t-38.5 129.5t-108.5 48.5t-108.5 -46.5t-38.5 -131.5t38.5 -131.5t108.5 -46.5z
M296 663h-4l-57 -113h-76l65 125h140l65 -125h-76zM435 916l-185 -93l-30 55l182 98z" />
    </font>
</defs>
</svg>
