<?xml version="1.0" standalone="no"?>
<!DOCTYPE svg PUBLIC "-//W3C//DTD SVG 1.1//EN" "http://www.w3.org/Graphics/SVG/1.1/DTD/svg11.dtd" >
<svg xmlns="http://www.w3.org/2000/svg" xmlns:xlink="http://www.w3.org/1999/xlink" version="1.1">
<metadata>
Created by FontForge 20201107 at Fri Aug  4 06:25:06 2023
 By 
Copyright (c) 2017 by Alberto Romanos. All rights reserved.
</metadata>
<defs>
<font id="SVN-AlphaCreative-LightItalic" horiz-adv-x="597" >
  <font-face 
    font-family="SVN-AlphaCreative Light"
    font-weight="300"
    font-style="italic"
    font-stretch="normal"
    units-per-em="1000"
    panose-1="0 0 4 0 0 0 0 0 0 0"
    ascent="800"
    descent="-200"
    x-height="492"
    cap-height="740"
    bbox="-699 -240 1220 1101"
    underline-thickness="50"
    underline-position="-100"
    slope="-10"
    unicode-range="U+000D-FB02"
  />
<missing-glyph horiz-adv-x="1274" 
d="M846 -3q-7 -7 -17 -7q-14 0 -17 7.5t-3 15.5v324l-339 -340q-7 -7 -17 -7q-14 0 -17 7.5t-3 15.5v324l-340 -340q-7 -7 -17 -7q-8 0 -12.5 5t-4.5 13q0 10 5 15l342 341h-324q-8 0 -15.5 3t-7.5 16q0 5 2 8.5t5 7.5l340 342h-327q-20 0 -20 19v1q0 19 20 19h370
q8 0 15.5 -3t7.5 -17q0 -10 -8 -17l-341 -340h330q8 0 14 -6t6 -14v-327l339 338q7 8 17 8q13 0 15.5 -7.5t2.5 -14.5v-324l340 338q6 8 16 8q8 0 12.5 -5.5t4.5 -13.5q0 -3 -1 -7t-5 -7z" />
    <glyph glyph-name="fi" unicode="fi" horiz-adv-x="568" 
d="M529 492l-86 -492h-60l78 444h-261l-79 -444h-60l79 444h-82l8 48h132l1 2q-17 17 -27 43t-10 55q0 88 53.5 138t145.5 50q48 0 83 -18l-18 -48q-14 8 -29 11.5t-35 3.5q-59 0 -93 -29t-44 -82l-22 -126h326zM566 704l-16 -96h-60l16 96h60z" />
    <glyph glyph-name="fl" unicode="fl" horiz-adv-x="581" 
d="M203 492h181l-8 -48h-176l-79 -444h-60l79 444h-82l8 48h132l1 2q-17 17 -27 43t-10 55q0 88 53.5 138t145.5 50q48 0 83 -18l-18 -48q-14 8 -29 11.5t-35 3.5q-59 0 -93 -29t-44 -82zM592 770l-136 -770h-60l136 770h60z" />
    <glyph glyph-name="f_f" unicode="ff" horiz-adv-x="663" 
d="M671 729q-59 0 -93 -29t-44 -82l-22 -126h181l-8 -48h-176l-79 -444h-60l79 444h-249l-79 -444h-60l79 444h-82l8 48h132l1 2q-17 17 -27 43t-10 55q0 88 53.5 138t145.5 50q48 0 83 -18l-18 -48q-14 8 -29 11.5t-35 3.5q-59 0 -93 -29t-44 -82l-22 -126h304l1 2
q-17 17 -27 43t-10 55q0 88 53.5 138t145.5 50q50 0 86 -19l-18 -48q-28 16 -67 16z" />
    <glyph glyph-name="f_f_i" unicode="ffi" horiz-adv-x="878" 
d="M839 492l-86 -492h-60l78 444h-261l-79 -444h-60l79 444h-250l-79 -444h-60l79 444h-82l8 48h132l1 2q-17 17 -27 43t-10 55q0 88 53.5 138t145.5 50q48 0 83 -18l-18 -48q-14 8 -29 11.5t-35 3.5q-59 0 -93 -29t-44 -82l-22 -126h305l1 2q-17 17 -27 43t-10 55
q0 88 53.5 138t145.5 50q48 0 83 -18l-18 -48q-14 8 -29 11.5t-35 3.5q-59 0 -93 -29t-44 -82l-22 -126h326zM876 704l-16 -96h-60l16 96h60z" />
    <glyph glyph-name="f_f_l" unicode="ffl" horiz-adv-x="892" 
d="M514 492h181l-8 -48h-176l-79 -444h-60l79 444h-251l-79 -444h-60l79 444h-82l8 48h132l1 2q-17 17 -27 43t-10 55q0 88 53.5 138t145.5 50q48 0 83 -18l-18 -48q-14 8 -29 11.5t-35 3.5q-59 0 -93 -29t-44 -82l-22 -126h306l1 2q-17 17 -27 43t-10 55q0 88 53.5 138
t145.5 50q48 0 83 -18l-18 -48q-14 8 -29 11.5t-35 3.5q-59 0 -93 -29t-44 -82zM903 770l-136 -770h-60l136 770h60z" />
    <glyph glyph-name=".notdef" horiz-adv-x="1274" 
d="M846 -3q-7 -7 -17 -7q-14 0 -17 7.5t-3 15.5v324l-339 -340q-7 -7 -17 -7q-14 0 -17 7.5t-3 15.5v324l-340 -340q-7 -7 -17 -7q-8 0 -12.5 5t-4.5 13q0 10 5 15l342 341h-324q-8 0 -15.5 3t-7.5 16q0 5 2 8.5t5 7.5l340 342h-327q-20 0 -20 19v1q0 19 20 19h370
q8 0 15.5 -3t7.5 -17q0 -10 -8 -17l-341 -340h330q8 0 14 -6t6 -14v-327l339 338q7 8 17 8q13 0 15.5 -7.5t2.5 -14.5v-324l340 338q6 8 16 8q8 0 12.5 -5.5t4.5 -13.5q0 -3 -1 -7t-5 -7z" />
    <glyph glyph-name=".null" horiz-adv-x="0" 
 />
    <glyph glyph-name="nonmarkingreturn" unicode="&#xd;" horiz-adv-x="247" 
 />
    <glyph glyph-name="space" unicode=" " horiz-adv-x="247" 
 />
    <glyph glyph-name="exclam" unicode="!" horiz-adv-x="248" 
d="M179 740h64l-104 -563h-54zM132 74l-12 -74h-79l13 74h78z" />
    <glyph glyph-name="quotedbl" unicode="&#x22;" horiz-adv-x="302" 
d="M214 770l-34 -190h-58l34 190h58zM329 770l-34 -190h-58l34 190h58z" />
    <glyph glyph-name="numbersign" unicode="#" horiz-adv-x="682" 
d="M558 506l-69 -248h128l-12 -40h-127l-60 -218h-46l61 218h-229l-61 -218h-46l61 218h-127l11 40h128l69 248h-126l12 40h125l55 194h46l-53 -194h227l52 194h46l-54 -194h131l-12 -40h-130zM513 506h-226l-71 -247h228z" />
    <glyph glyph-name="dollar" unicode="$" horiz-adv-x="642" 
d="M561 500q1 9 1 18v17q0 70 -36 110.5t-104 47.5l-50 -283q40 -6 80 -15.5t71.5 -27.5t51 -48.5t19.5 -79.5q0 -56 -20.5 -100.5t-59 -76.5t-93.5 -50.5t-123 -21.5l-18 -102h-44l18 102q-103 5 -158.5 61t-55.5 153q0 23 3 47h63q-3 -20 -3 -36q0 -76 41.5 -119.5
t119.5 -48.5l56 314q-39 7 -76.5 16t-66.5 25.5t-47 43.5t-18 71q0 52 19 94t55 72t87 47t115 20l18 100h44l-18 -101q94 -6 144 -59t50 -145q0 -21 -3 -45h-62zM178 530q0 -28 12 -47t33 -31.5t48.5 -20t58.5 -13.5l48 276q-94 -5 -147 -48.5t-53 -115.5zM529 226
q0 33 -13.5 54.5t-37 36t-53.5 22.5t-63 14l-54 -306q103 5 162 52t59 127z" />
    <glyph glyph-name="percent" unicode="%" horiz-adv-x="704" 
d="M661 750l28 -24l-603 -736l-28 24zM199 360q-52 0 -79.5 36t-27.5 101q0 51 12.5 94t35 73.5t54.5 48t71 17.5q52 0 79.5 -36t27.5 -101q0 -51 -12.5 -94t-35 -73.5t-54.5 -48t-71 -17.5zM207 403q25 0 45.5 14.5t35 39.5t22.5 59t8 73q0 46 -15.5 72t-45.5 26
q-25 0 -45.5 -14.5t-35.5 -39t-23 -58.5t-8 -73q0 -46 16 -72.5t46 -26.5zM482 -10q-53 0 -80 36t-27 101q0 51 12 94t34.5 73.5t54.5 48t71 17.5q53 0 80 -36t27 -101q0 -51 -12 -94t-34.5 -73.5t-54.5 -48t-71 -17.5zM489 33q25 0 45.5 14.5t35.5 39.5t23 59t8 73
q0 46 -15.5 72t-45.5 26q-25 0 -45.5 -14.5t-35.5 -39t-23 -58.5t-8 -73q0 -46 16 -72.5t45 -26.5z" />
    <glyph glyph-name="ampersand" unicode="&#x26;" horiz-adv-x="784" 
d="M750 438q-28 -81 -64.5 -147.5t-81.5 -120.5l127 -135l-49 -45l-124 131q-66 -64 -142.5 -97.5t-161.5 -33.5q-105 0 -161 46t-56 124q0 70 27 117t70 78.5t96 52t105 38.5q8 2 14.5 5t14.5 5q-86 0 -135.5 33t-49.5 87q0 39 16.5 71.5t48 55t75.5 35t100 12.5
q88 0 135 -36t47 -100q0 -48 -21 -81.5t-55.5 -57.5t-78.5 -41.5t-90 -34.5q-48 -17 -93.5 -35t-81 -43.5t-57.5 -61.5t-22 -89q0 -57 42.5 -90.5t122.5 -33.5q68 0 131 27.5t118.5 79.5t101 127t78.5 171zM240 566q0 -49 34.5 -78.5t94.5 -29.5l-1 -1q34 12 64.5 25
t53.5 30t36 39t13 52q0 43 -32 67t-93 24q-78 0 -124 -33.5t-46 -94.5z" />
    <glyph glyph-name="quotesingle" unicode="'" horiz-adv-x="187" 
d="M214 770l-34 -190h-58l34 190h58z" />
    <glyph glyph-name="parenleft" unicode="(" horiz-adv-x="269" 
d="M169 -217l-41 -23q-43 86 -62.5 186.5t-19.5 192.5q0 78 14 156.5t45.5 158t81 161t121.5 165.5l33 -23q-70 -83 -117.5 -163t-76.5 -157t-41.5 -151t-12.5 -144q0 -42 4 -88.5t13 -93t23.5 -92t35.5 -85.5z" />
    <glyph glyph-name="parenright" unicode=")" horiz-adv-x="269" 
d="M-62 -217q69 82 116 162t76 157.5t41.5 151.5t12.5 144q0 42 -4 88.5t-13 93t-23.5 92t-34.5 85.5l41 23q43 -86 62 -186.5t19 -192.5q0 -78 -14 -156.5t-45 -158t-81 -161t-121 -165.5z" />
    <glyph glyph-name="asterisk" unicode="*" horiz-adv-x="370" 
d="M329 617q-19 0 -37 4t-37 12l-1 -1l58 -106l-45 -30q-17 30 -21 61q-3 33 5 75l-1 1l-96 -106l-35 27q20 24 43.5 40.5t49.5 26.5q10 4 19.5 8t18.5 6l1 1l-118 42l22 46q35 -10 58.5 -32t38.5 -55v1h2l24 132h50q-8 -38 -25 -70t-49 -64l2 1v-2l132 40l8 -47
q-36 -11 -67 -11z" />
    <glyph glyph-name="plus" unicode="+" horiz-adv-x="456" 
d="M410 233h-162l-29 -166h-45l29 166h-163l8 38h161l29 166h45l-29 -166h163z" />
    <glyph glyph-name="comma" unicode="," horiz-adv-x="210" 
d="M123 74l-11 -65q-9 -51 -36.5 -90.5t-69.5 -59.5l8 46q36 13 60 38t32 57h-74l13 74h78z" />
    <glyph glyph-name="hyphen" unicode="-" horiz-adv-x="394" 
d="M327 269l-6 -38h-252l6 38h252z" />
    <glyph glyph-name="period" unicode="." horiz-adv-x="214" 
d="M119 74l-13 -74h-78l12 74h79z" />
    <glyph glyph-name="slash" unicode="/" horiz-adv-x="411" 
d="M474 787l-467 -927l-40 13l467 927z" />
    <glyph glyph-name="zero" unicode="0" horiz-adv-x="650" 
d="M280 -10q-100 0 -152.5 74t-52.5 204q0 105 24 193.5t68.5 152.5t107 100t139.5 36q100 0 152.5 -74t52.5 -204q0 -105 -24 -193.5t-68.5 -152.5t-107 -100t-139.5 -36zM290 46q60 0 108.5 32t83 88.5t53.5 133.5t19 166q0 107 -38 167.5t-111 60.5q-60 0 -109 -32
t-83.5 -88.5t-53.5 -133.5t-19 -166q0 -107 38.5 -167.5t111.5 -60.5z" />
    <glyph glyph-name="one" unicode="1" horiz-adv-x="324" 
d="M310 740l-130 -740h-62l125 710h-2q-11 -56 -51.5 -87t-104.5 -31l10 56q65 0 105 24t48 68h62z" />
    <glyph glyph-name="two" unicode="2" horiz-adv-x="594" 
d="M57 54h455l-10 -54h-498l8 49q115 28 208 77t157.5 114t99.5 142.5t35 162.5q0 70 -35.5 109.5t-102.5 39.5q-79 0 -136 -55t-79 -155h-61q27 126 102 196t184 70q94 0 144 -51.5t50 -144.5t-36.5 -175t-104 -147.5t-164 -110.5t-216.5 -65v-2z" />
    <glyph glyph-name="three" unicode="3" horiz-adv-x="594" 
d="M311 406q106 0 163.5 -45.5t57.5 -126.5q0 -56 -20.5 -101t-58 -76.5t-91 -49t-120.5 -17.5q-97 0 -148.5 49.5t-51.5 139.5q0 26 4 49h60q-3 -21 -3 -39q0 -69 38.5 -107t110.5 -38q49 0 89 13t68 36.5t43 57t15 74.5q0 61 -43 95t-124 34h-22l9 54q103 13 162 59
t59 117q0 53 -36 82.5t-105 29.5q-74 0 -126.5 -49t-72.5 -137h-59q26 113 98 176.5t177 63.5q93 0 142.5 -38.5t49.5 -106.5q0 -46 -18.5 -82.5t-53 -62t-84 -39t-110.5 -13.5v-2h1v0z" />
    <glyph glyph-name="four" unicode="4" horiz-adv-x="578" 
d="M538 200h-95l-35 -200h-63l35 200h-362l11 59l388 481h121l-85 -486h96zM91 254h300l84 479h-2l-382 -477v-2z" />
    <glyph glyph-name="five" unicode="5" horiz-adv-x="598" 
d="M253 -10q-99 0 -153.5 51.5t-54.5 143.5v17h63q0 -73 41 -114.5t115 -41.5q51 0 93 16.5t71 47.5t45 74.5t16 96.5q0 72 -40 113t-115 41t-125.5 -39t-80.5 -101l-59 8l133 437h379l-9 -54h-321l-118 -372h2q28 82 89 128t143 46q91 0 139.5 -51t48.5 -143
q0 -69 -21 -125t-60.5 -96t-95.5 -61.5t-125 -21.5z" />
    <glyph glyph-name="six" unicode="6" horiz-adv-x="631" 
d="M548 536q1 7 1.5 13.5t0.5 12.5q0 63 -34.5 97.5t-99.5 34.5q-48 0 -90.5 -23t-77 -67t-59.5 -107.5t-39 -144.5l-13 -71h2q16 92 81.5 143.5t165.5 51.5q94 0 144 -49.5t50 -138.5q0 -69 -23 -124t-63 -93.5t-94.5 -59.5t-117.5 -21q-211 0 -211 250q0 109 25.5 202.5
t72 161.5t111.5 107t145 39q90 0 138.5 -47t48.5 -132q0 -9 -0.5 -17.5t-1.5 -17.5h-62zM353 421q-50 0 -90.5 -14.5t-69.5 -42t-44.5 -67t-15.5 -88.5q0 -75 42 -119t113 -44q52 0 93.5 16.5t70.5 46.5t45 72t16 93q0 70 -41 108.5t-119 38.5zM127 239q0 2 0.5 4t0.5 4
q0 -2 -0.5 -4t-0.5 -4z" />
    <glyph glyph-name="seven" unicode="7" horiz-adv-x="522" 
d="M591 740l-8 -49q-62 -14 -117.5 -61.5t-101.5 -124.5t-82 -181.5t-58 -231.5l-16 -92h-67l15 80q24 130 62 236t87.5 184t110 125t128.5 59v2h-455l9 54h493z" />
    <glyph glyph-name="eight" unicode="8" horiz-adv-x="622" 
d="M412 406q72 -13 110 -56.5t38 -111.5q0 -57 -20.5 -103t-59 -78t-93 -49.5t-122.5 -17.5q-106 0 -162 46t-56 130q0 96 58.5 159.5t161.5 80.5v2q-64 0 -98 33.5t-34 93.5q0 49 18.5 89t53 68t83.5 43t109 15q97 0 149 -40.5t52 -112.5q0 -42 -13.5 -77t-38 -60
t-59 -38.5t-77.5 -13.5v-2zM197 521q0 -57 36.5 -89t104.5 -32q89 0 141 47t52 127q0 57 -36 88.5t-105 31.5q-89 0 -141 -46.5t-52 -126.5zM276 46q101 0 159.5 48.5t58.5 133.5q0 62 -42.5 96t-120.5 34q-101 0 -160 -48.5t-59 -133.5q0 -62 42.5 -96t121.5 -34z" />
    <glyph glyph-name="nine" unicode="9" horiz-adv-x="629" 
d="M396 750q106 0 156 -63.5t50 -184.5q0 -110 -25.5 -203.5t-72 -162t-111.5 -107.5t-145 -39q-89 0 -136 50t-47 141q0 20 3 43h62q-2 -11 -2 -18.5v-15.5q0 -69 33.5 -106.5t96.5 -37.5q49 0 91 23t76.5 67t59.5 107.5t40 144.5l14 81h-2q-16 -88 -80.5 -136.5
t-165.5 -48.5q-94 0 -144.5 47.5t-50.5 133.5q0 66 23 119t63 89.5t95 56.5t119 20zM324 339q49 0 89.5 13.5t69 39t44 62.5t15.5 84q0 72 -42.5 114t-112.5 42q-52 0 -93.5 -15.5t-71 -43.5t-45 -67.5t-15.5 -88.5q0 -66 42 -103t120 -37z" />
    <glyph glyph-name="colon" unicode=":" horiz-adv-x="219" 
d="M194 501l-13 -74h-78l12 74h79zM118 74l-13 -74h-78l12 74h79z" />
    <glyph glyph-name="semicolon" unicode=";" horiz-adv-x="220" 
d="M194 501l-13 -74h-78l12 74h79zM41 74h78l-11 -65q-9 -51 -36.5 -90.5t-69.5 -59.5l8 46q36 13 60 38t32 57h-74z" />
    <glyph glyph-name="less" unicode="&#x3c;" horiz-adv-x="473" 
d="M51 253l-1 -2l332 -151l-7 -43l-337 158l6 35l8 40l391 159l-7 -43z" />
    <glyph glyph-name="equal" unicode="=" horiz-adv-x="516" 
d="M90 336h370l-8 -38h-369zM67 206h370l-8 -38h-369z" />
    <glyph glyph-name="greater" unicode="&#x3e;" horiz-adv-x="473" 
d="M431 255l-7 -40l-392 -158l7 43l385 151l1 2l-332 153l7 43l337 -159z" />
    <glyph glyph-name="question" unicode="?" horiz-adv-x="528" 
d="M78 514q25 112 96 174t174 62q92 0 140.5 -45t48.5 -123q0 -47 -19.5 -96.5t-56.5 -101.5t-89 -104t-117 -103h-61v2q64 52 115 104.5t87 103t55.5 97t19.5 86.5q0 58 -34 91t-99 33q-75 0 -127 -47.5t-72 -132.5h-61zM241 74l-13 -74h-78l13 74h78z" />
    <glyph glyph-name="at" unicode="@" horiz-adv-x="1122" 
d="M689 780q97 0 172 -24t126 -69t77.5 -110t26.5 -147q0 -88 -22.5 -161t-64.5 -125.5t-101 -81.5t-132 -29q-50 0 -75.5 22t-25.5 63q0 14 2.5 25.5t6.5 22.5l7 20h-2q-26 -73 -87 -114t-145 -41q-69 0 -104 38t-35 105t22.5 126.5t62 104.5t94 71t118.5 26
q69 0 105.5 -27t36.5 -75q0 -17 -3 -27.5l-7 -24.5h2l50 144h59l-116 -330q-3 -9 -5 -15.5t-2 -16.5q0 -23 14 -36.5t43 -13.5q57 0 102.5 25.5t78 71.5t50 108.5t17.5 137.5q0 147 -91.5 228.5t-263.5 81.5q-133 0 -240 -44t-182.5 -122.5t-116.5 -187t-41 -237.5
q0 -78 24 -140.5t71 -105.5t115 -66t157 -23q67 0 144 14.5t148 41.5l11 -46q-71 -26 -152 -41.5t-159 -15.5q-100 0 -177.5 25.5t-130 74t-80 118t-27.5 157.5q0 142 45 260.5t129 204t203.5 133t267.5 47.5zM721 266q6 20 11 38t5 41q0 51 -29 79t-86 28q-53 0 -97.5 -20
t-77 -55t-51 -82t-18.5 -101q0 -53 28.5 -83.5t84.5 -30.5q78 0 137 48t91 133z" />
    <glyph glyph-name="A" unicode="A" horiz-adv-x="668" 
d="M509 195h-371l-101 -195h-66l395 740h111l133 -740h-69zM500 249l-80 484h-2l-252 -484h334z" />
    <glyph glyph-name="B" unicode="B" horiz-adv-x="665" 
d="M421 406q94 0 143.5 -43.5t49.5 -121.5q0 -55 -19 -99.5t-54.5 -76t-85.5 -48.5t-113 -17h-285l130 740h259q84 0 128 -37.5t44 -105.5q0 -44 -15 -79t-42 -59.5t-65.5 -37.5t-85.5 -13v-2h11zM549 571q0 54 -34 84.5t-97 30.5h-178l-49 -278h178q83 0 131.5 44t48.5 119
zM355 54q88 0 140.5 48t52.5 130q0 57 -36.5 89.5t-103.5 32.5h-226l-53 -300h226z" />
    <glyph glyph-name="C" unicode="C" horiz-adv-x="704" 
d="M663 265q-22 -64 -56 -115t-77.5 -86.5t-95.5 -54.5t-110 -19q-122 0 -186.5 77t-64.5 214q0 105 27 191t77.5 148t121.5 96t159 34q117 0 180.5 -66.5t63.5 -185.5v-15h-61v3q-1 99 -51 153.5t-141 54.5q-71 0 -128 -29.5t-98 -83t-63 -128t-22 -163.5q0 -115 50 -179.5
t146 -64.5q89 0 159.5 58t108.5 161h61v0z" />
    <glyph glyph-name="D" unicode="D" horiz-adv-x="705" 
d="M187 740h203q139 0 213 -77t74 -215q0 -101 -29.5 -183.5t-84 -141.5t-131.5 -91t-172 -32h-203zM275 54q77 0 139 28t106 78.5t68 122t24 158.5q0 115 -58 180t-168 65h-146l-111 -632h146z" />
    <glyph glyph-name="E" unicode="E" horiz-adv-x="612" 
d="M241 686l-49 -276h360l-9 -54h-360l-54 -302h407l-10 -54h-469l130 740h458l-9 -54h-395z" />
    <glyph glyph-name="F" unicode="F" horiz-adv-x="555" 
d="M241 686l-50 -282h315l-9 -54h-316l-62 -350h-62l130 740h430l-9 -54h-367z" />
    <glyph glyph-name="G" unicode="G" horiz-adv-x="725" 
d="M638 489v5q-1 95 -50 147.5t-137 52.5q-72 0 -130 -29.5t-99 -83.5t-63 -129t-22 -165q0 -114 49 -177.5t141 -63.5q112 0 187.5 74.5t100.5 208.5h-250l9 51h311l-66 -380h-60l48 270h-2q-24 -133 -105.5 -206.5t-204.5 -73.5q-106 0 -164.5 76t-58.5 211
q0 106 27.5 193t78.5 149.5t122.5 96.5t159.5 34q114 0 176.5 -66t62.5 -184v-11h-61z" />
    <glyph glyph-name="H" unicode="H" horiz-adv-x="724" 
d="M712 740l-130 -740h-63l61 349h-400l-61 -349h-62l130 740h62l-59 -337h400l59 337h63z" />
    <glyph glyph-name="I" unicode="I" horiz-adv-x="262" 
d="M187 740h62l-130 -740h-62z" />
    <glyph glyph-name="J" unicode="J" horiz-adv-x="537" 
d="M375 206l95 534h62l-94 -529q-18 -105 -82 -163t-162 -58q-84 0 -128 52.5t-44 148.5v23t2 25h59q-1 -9 -1.5 -17.5t-0.5 -16.5q0 -75 32.5 -117t91.5 -42q67 0 112 42.5t58 117.5z" />
    <glyph glyph-name="K" unicode="K" horiz-adv-x="669" 
d="M269 385l362 -385h-92l-352 381h-2l-67 -381h-61l130 740h61l-62 -351h3l452 351h86z" />
    <glyph glyph-name="L" unicode="L" horiz-adv-x="525" 
d="M476 54l-9 -54h-410l130 740h62l-120 -686h347z" />
    <glyph glyph-name="M" unicode="M" horiz-adv-x="922" 
d="M898 740l-109 -740h-62l108 733h-2l-364 -733h-116l-96 733h-2l-149 -733h-60l151 740h124l92 -733h3l359 733h123z" />
    <glyph glyph-name="N" unicode="N" horiz-adv-x="724" 
d="M712 740l-130 -740h-117l-217 733h-2l-128 -733h-61l130 740h118l217 -733h2l128 733h60z" />
    <glyph glyph-name="O" unicode="O" horiz-adv-x="745" 
d="M327 -10q-124 0 -189 77.5t-65 214.5q0 104 27.5 190.5t78 148t122 95.5t160.5 34q124 0 189.5 -77t65.5 -215q0 -104 -27.5 -190.5t-78.5 -148t-123 -95.5t-160 -34zM337 46q71 0 129 29.5t99 83t63 128t22 163.5q0 115 -50.5 179.5t-147.5 64.5q-72 0 -130 -29.5
t-99 -83t-63 -128t-22 -163.5q0 -115 51 -179.5t148 -64.5z" />
    <glyph glyph-name="P" unicode="P" horiz-adv-x="621" 
d="M432 740q99 0 151.5 -46.5t52.5 -131.5q0 -60 -19.5 -108t-56 -82t-89 -52.5t-117.5 -18.5h-181l-54 -301h-62l130 740h245zM368 355q46 0 83.5 14t63.5 40t40.5 62.5t14.5 81.5q0 63 -36.5 98t-105.5 35h-187l-59 -331h186z" />
    <glyph glyph-name="Q" unicode="Q" horiz-adv-x="760" 
d="M408 52l282 2l-9 -54h-352q-124 0 -190 77t-66 212q0 103 27.5 187.5t78.5 145.5t122.5 94.5t159.5 33.5q125 0 190.5 -75t65.5 -206q0 -90 -22 -166t-62 -131.5t-97.5 -86.5t-127.5 -31v-2zM139 294q0 -114 51 -178.5t148 -64.5q71 0 128.5 29.5t98.5 82.5t63 126.5
t22 162.5q0 114 -51 178t-148 64q-71 0 -128.5 -29t-98.5 -82t-63 -126.5t-22 -162.5z" />
    <glyph glyph-name="R" unicode="R" horiz-adv-x="656" 
d="M654 572q0 -56 -19.5 -101.5t-56 -78t-88.5 -50t-116 -17.5v-2q28 0 55 -23.5t46 -67.5l101 -232h-72l-138 323h-190l-57 -323h-62l130 740h254q103 0 158 -44.5t55 -123.5zM384 375q47 0 85 13.5t64.5 38t40.5 59t14 76.5q0 58 -39 91t-112 33h-196l-55 -311h198z" />
    <glyph glyph-name="S" unicode="S" horiz-adv-x="651" 
d="M278 -10q-113 0 -173.5 56t-60.5 158q0 23 3 47h63q-3 -20 -3 -36q0 -81 47 -125t134 -44q114 0 179.5 47.5t65.5 132.5q0 37 -17 59.5t-44.5 37t-63.5 22t-73 14.5q-40 7 -79.5 16t-70.5 25.5t-50 44t-19 72.5q0 54 20.5 97t59 73.5t93.5 46.5t123 16q106 0 162 -53.5
t56 -151.5q0 -21 -3 -45h-62q1 9 1 18v17q0 76 -42.5 117.5t-122.5 41.5q-102 0 -160.5 -44t-58.5 -120q0 -32 15.5 -52t41 -32.5t58.5 -20t69 -13.5q42 -7 83.5 -16t74.5 -27t53.5 -49t20.5 -81q0 -58 -22.5 -104t-64 -78.5t-101 -49.5t-132.5 -17z" />
    <glyph glyph-name="T" unicode="T" horiz-adv-x="564" 
d="M624 686h-233l-121 -686h-63l121 686h-233l9 54h529z" />
    <glyph glyph-name="U" unicode="U" horiz-adv-x="707" 
d="M643 740h59l-85 -488q-22 -124 -103 -193t-206 -69q-107 0 -164 52t-57 146q0 31 6 64l86 488h63l-87 -493q-2 -14 -3.5 -25.5t-1.5 -22.5q0 -73 44 -113t125 -40q96 0 158 53t79 148z" />
    <glyph glyph-name="V" unicode="V" horiz-adv-x="637" 
d="M705 740l-370 -740h-119l-110 740h69l102 -733h2l360 733h66z" />
    <glyph glyph-name="W" unicode="W" horiz-adv-x="990" 
d="M1053 740l-314 -740h-122l-36 733h-2l-291 -733h-123l-53 740h69l49 -733h2l292 733h116l37 -733h2l308 733h66z" />
    <glyph glyph-name="X" unicode="X" horiz-adv-x="622" 
d="M408 385l159 -385h-82l-148 381h-2l-282 -381h-83l296 385l-142 355h76l137 -351h2l259 351h76z" />
    <glyph glyph-name="Y" unicode="Y" horiz-adv-x="638" 
d="M729 740l-514 -740h-71l185 269h-62l-163 471h75l158 -464h2l320 464h70z" />
    <glyph glyph-name="Z" unicode="Z" horiz-adv-x="649" 
d="M15 56l-1 -2h569l-9 -54h-579l22 126l648 558v2h-536l9 54h547l-22 -126z" />
    <glyph glyph-name="bracketleft" unicode="[" horiz-adv-x="298" 
d="M227 728l-163 -916h138l-8 -42h-183l177 1000h183l-8 -42h-136z" />
    <glyph glyph-name="backslash" unicode="\" horiz-adv-x="401" 
d="M307 -127l-44 -13l-139 927l44 13z" />
    <glyph glyph-name="bracketright" unicode="]" horiz-adv-x="298" 
d="M119 -230h-183l9 42h135l163 916h-137l7 42h183z" />
    <glyph glyph-name="asciicircum" unicode="^" horiz-adv-x="519" 
d="M502 353h-49l-107 361h-2l-235 -361h-49l240 367h92z" />
    <glyph glyph-name="underscore" unicode="_" horiz-adv-x="531" 
d="M439 -72l-7 -38h-454l6 38h455z" />
    <glyph glyph-name="grave" unicode="`" horiz-adv-x="220" 
d="M271 632l-27 -36l-151 84l30 40z" />
    <glyph glyph-name="a" unicode="a" 
d="M558 492l-86 -492h-60l28 158h-2q-14 -79 -70.5 -123.5t-144.5 -44.5q-85 0 -130 52t-45 146q0 70 19 128t53.5 99t84 64t109.5 23q76 0 117 -34t41 -97q0 -18 -3 -37h2l27 158h60zM252 41q82 0 137 54.5t72 150.5q3 17 4.5 30t1.5 27q0 70 -37 109.5t-106 39.5
q-49 0 -88.5 -18.5t-67 -51.5t-42.5 -79.5t-15 -102.5q0 -75 36 -117t105 -42z" />
    <glyph glyph-name="b" unicode="b" horiz-adv-x="598" 
d="M374 502q86 0 131 -52t45 -146q0 -70 -19 -128t-54 -99t-84 -64t-110 -23q-76 0 -117 34t-41 97q0 19 3 37h-2l-27 -158h-60l136 770h60l-78 -436h2q14 79 70.5 123.5t144.5 44.5zM273 41q49 0 88.5 18.5t67.5 51.5t43 79.5t15 102.5q0 75 -36.5 117t-105.5 42
q-82 0 -137 -54.5t-72 -151.5q-3 -17 -4.5 -29.5t-1.5 -26.5q0 -70 37 -109.5t106 -39.5z" />
    <glyph glyph-name="c" unicode="c" horiz-adv-x="546" 
d="M240 -10q-94 0 -143 53.5t-49 148.5q0 70 20 127t57 97.5t89 63t116 22.5q85 0 134 -43t55 -121h-61q-8 54 -42.5 84t-94.5 30q-48 0 -87 -18.5t-66.5 -52t-42.5 -80t-15 -102.5q0 -75 35.5 -116.5t103.5 -41.5q63 0 110.5 33t73.5 94h61q-33 -85 -98.5 -131.5
t-155.5 -46.5z" />
    <glyph glyph-name="d" unicode="d" 
d="M608 770l-136 -770h-60l28 158h-2q-14 -79 -70.5 -123.5t-144.5 -44.5q-85 0 -130 52t-45 146q0 70 19 128t53.5 99t84 64t109.5 23q76 0 117 -34t41 -97q0 -18 -3 -37h2l77 436h60zM252 41q82 0 137 54.5t72 150.5q3 17 4.5 30t1.5 27q0 70 -37 109.5t-106 39.5
q-49 0 -88.5 -18.5t-67 -51.5t-42.5 -79.5t-15 -102.5q0 -75 36 -117t105 -42z" />
    <glyph glyph-name="e" unicode="e" horiz-adv-x="549" 
d="M322 502q88 0 136 -48t48 -136q0 -17 -2 -35t-6 -38l-2 -11h-385q-1 -9 -1.5 -18.5t-0.5 -19.5q0 -73 34 -114.5t97 -41.5q66 0 115 34.5t70 97.5h60q-26 -86 -93 -134t-161 -48q-88 0 -135.5 52t-47.5 146q0 70 19.5 128t55 99.5t86 64t113.5 22.5zM313 453
q-76 0 -127.5 -48.5t-68.5 -130.5h325q1 8 1.5 16t0.5 16q0 71 -34 109t-97 38z" />
    <glyph glyph-name="f" unicode="f" horiz-adv-x="354" 
d="M362 729q-59 0 -93 -29t-44 -82l-22 -126h181l-8 -48h-176l-79 -444h-60l79 444h-82l8 48h132l1 2q-17 17 -27 43t-10 55q0 88 53.5 138t145.5 50q50 0 86 -19l-18 -48q-28 16 -67 16z" />
    <glyph glyph-name="g" unicode="g" 
d="M558 492l-89 -505q-19 -107 -89 -167t-179 -60q-98 0 -148.5 49t-39.5 137l58 3q-8 -65 28.5 -101.5t109.5 -36.5q81 0 133 44.5t66 125.5l32 178h-2q-14 -79 -70.5 -123.5t-143.5 -44.5q-86 0 -131 52t-45 146q0 70 19 127.5t53.5 98.5t84 64t109.5 23q76 0 117 -34
t41 -97q0 -18 -3 -37h2l27 158h60zM253 42q82 0 137 54t72 151q2 17 3.5 29.5t1.5 26.5q0 70 -36.5 109.5t-106.5 39.5q-48 0 -87.5 -18.5t-67.5 -51.5t-43 -79.5t-15 -102.5q0 -75 36 -116.5t106 -41.5z" />
    <glyph glyph-name="h" unicode="h" horiz-adv-x="573" 
d="M361 502q73 0 112 -37.5t39 -106.5q0 -11 -1.5 -23t-3.5 -26l-54 -309h-60l54 308q3 19 3 35q0 52 -30 80.5t-87 28.5q-73 0 -122.5 -47.5t-63.5 -134.5l-48 -270h-60l136 770h60l-79 -445h2q15 85 68.5 131t134.5 46z" />
    <glyph glyph-name="i" unicode="i" horiz-adv-x="224" 
d="M162 704h60l-16 -96h-60zM125 492h60l-86 -492h-60z" />
    <glyph glyph-name="j" unicode="j" horiz-adv-x="224" 
d="M162 704h60l-16 -96h-60zM125 492h60l-127 -722h-60z" />
    <glyph glyph-name="k" unicode="k" horiz-adv-x="533" 
d="M221 257l265 -257h-85l-256 252h-1l-45 -252h-60l136 770h60l-90 -510h2l324 232h83z" />
    <glyph glyph-name="l" unicode="l" horiz-adv-x="224" 
d="M175 770h60l-136 -770h-60z" />
    <glyph glyph-name="m" unicode="m" horiz-adv-x="906" 
d="M700 502q72 0 109 -36.5t37 -103.5q0 -25 -4 -48l-56 -314h-60l56 313q3 19 3 34q0 51 -29 78t-84 27q-71 0 -119 -46t-62 -131l-48 -275h-60l55 313q3 19 3 34q0 51 -29 78t-84 27q-71 0 -118.5 -46t-62.5 -131l-48 -275h-60l86 492h60l-28 -162h2q14 81 66.5 126.5
t131.5 45.5q72 0 109.5 -36t37.5 -97q0 -22 -4 -39h2q15 81 67 126.5t131 45.5z" />
    <glyph glyph-name="n" unicode="n" horiz-adv-x="573" 
d="M361 502q73 0 112 -37.5t39 -106.5q0 -11 -1.5 -23t-3.5 -26l-54 -309h-60l54 308q3 19 3 35q0 52 -30 80.5t-87 28.5q-73 0 -122.5 -47.5t-64.5 -134.5l-47 -270h-60l86 492h60l-29 -167h2q15 85 68.5 131t134.5 46z" />
    <glyph glyph-name="o" unicode="o" horiz-adv-x="575" 
d="M243 -10q-94 0 -144.5 53.5t-50.5 148.5q0 70 20 127t57.5 97.5t90 63t117.5 22.5q95 0 145 -53t50 -148q0 -70 -20 -127.5t-57 -98t-90 -63t-118 -22.5zM252 41q49 0 89 18.5t68 51.5t43 79.5t15 102.5q0 75 -37 117t-106 42q-49 0 -88.5 -18.5t-67.5 -51.5t-43 -79.5
t-15 -102.5q0 -75 36.5 -117t105.5 -42z" />
    <glyph glyph-name="p" unicode="p" horiz-adv-x="598" 
d="M374 502q86 0 131 -52t45 -146q0 -70 -19 -128t-54 -99t-84 -64t-110 -23q-76 0 -117 34t-41 97q0 19 3 37h-2l-68 -388h-60l127 722h60l-28 -158h2q14 79 70.5 123.5t144.5 44.5zM273 41q49 0 88.5 18.5t67.5 51.5t43 79.5t15 102.5q0 75 -36.5 116.5t-105.5 41.5
q-82 0 -137 -54t-72 -151q-3 -17 -4.5 -29.5t-1.5 -26.5q0 -71 37 -110t106 -39z" />
    <glyph glyph-name="q" unicode="q" 
d="M558 492l-127 -722h-60l69 388h-2q-14 -79 -70.5 -123.5t-144.5 -44.5q-85 0 -130 52t-45 146q0 70 19 128t53.5 99t84 64t109.5 23q76 0 117 -34t41 -97q0 -18 -3 -37h2l27 158h60zM252 41q82 0 137 54t72 151q3 17 4.5 30t1.5 27q0 71 -37 109.5t-106 38.5
q-49 0 -88.5 -18.5t-67 -51.5t-42.5 -79t-15 -102q0 -75 36 -117t105 -42z" />
    <glyph glyph-name="r" unicode="r" horiz-adv-x="400" 
d="M356 502q45 0 75 -14l-29 -60q-28 17 -72 17q-72 0 -121.5 -51t-65.5 -144l-44 -250h-60l86 492h60l-32 -180h2q16 91 69 140.5t132 49.5z" />
    <glyph glyph-name="s" unicode="s" horiz-adv-x="495" 
d="M201 -10q-85 0 -130 35t-45 99q0 15 3 35h59q-3 -15 -3 -26q0 -46 32 -71t92 -25q75 0 118 28t43 79q0 24 -11.5 39t-30 24.5t-43 15t-50.5 10.5q-29 6 -57 13t-50 19t-35.5 31t-13.5 50q0 72 57 114t155 42q78 0 120 -33t42 -94q0 -9 -1 -17.5t-3 -18.5h-59q2 7 2 13.5
v12.5q0 44 -28 67.5t-81 23.5q-66 0 -105 -26.5t-39 -71.5q0 -19 10.5 -31.5t27.5 -21t39.5 -14t46.5 -10.5q30 -6 60 -13.5t54 -20.5t39 -35t15 -56q0 -78 -62 -122t-168 -44z" />
    <glyph glyph-name="t" unicode="t" horiz-adv-x="358" 
d="M143 135q-1 -6 -1 -11.5v-11.5q0 -34 21 -52.5t60 -18.5q40 0 75 16l-9 -48q-20 -9 -44.5 -14t-49.5 -5q-56 0 -85.5 28t-29.5 79q0 9 1 18t3 19l54 310h-83l8 48h89l31 174h60l-7 -42q-7 -39 -28.5 -73t-50.5 -57l-1 -2h226l-8 -48h-177z" />
    <glyph glyph-name="u" unicode="u" horiz-adv-x="562" 
d="M523 492l-86 -492h-60l29 167h-2q-15 -84 -67.5 -130.5t-130.5 -46.5q-71 0 -108.5 37t-37.5 105q0 12 1.5 24.5t3.5 26.5l55 309h60l-54 -308q-2 -10 -3 -19.5t-1 -17.5q0 -51 29 -78.5t83 -27.5q71 0 118.5 47.5t63.5 133.5l47 270h60z" />
    <glyph glyph-name="v" unicode="v" horiz-adv-x="512" 
d="M529 492l-258 -492h-117l-85 492h65l79 -487h2l249 487h65z" />
    <glyph glyph-name="w" unicode="w" horiz-adv-x="802" 
d="M818 492l-230 -492h-112l-31 487h-2l-203 -487h-112l-58 492h65l50 -487h2l203 487h111l31 -487h2l222 487h62z" />
    <glyph glyph-name="x" unicode="x" horiz-adv-x="515" 
d="M323 257l133 -257h-72l-124 252h-2l-212 -252h-72l223 257l-120 235h71l112 -232h2l193 232h70z" />
    <glyph glyph-name="y" unicode="y" horiz-adv-x="511" 
d="M530 492l-379 -722h-65l121 230h-52l-85 492h65l79 -487h2l249 487h65z" />
    <glyph glyph-name="z" unicode="z" horiz-adv-x="505" 
d="M19 50v-2h415l-9 -48h-425l20 112l454 330l1 2h-390l7 48h402l-20 -112z" />
    <glyph glyph-name="braceleft" unicode="{" horiz-adv-x="268" 
d="M194 672q8 45 41 71.5t80 26.5l-7 -42q-26 0 -45 -17t-24 -45l-52 -294q-7 -38 -28.5 -63.5t-55.5 -39.5q50 -21 50 -77v-11.5t-2 -13.5l-52 -293q-1 -5 -1 -8v-6q0 -22 12.5 -35t35.5 -13l-8 -42q-42 0 -65 21t-23 57q0 5 0.5 9.5t1.5 10.5l51 293q2 8 2 12.5v9.5
q0 31 -19 48t-54 17l6 33l2 10q42 0 68.5 22.5t33.5 64.5l52 294v0z" />
    <glyph glyph-name="bar" unicode="|" horiz-adv-x="236" 
d="M234 770l-177 -1000h-46l177 1000h46z" />
    <glyph glyph-name="braceright" unicode="}" horiz-adv-x="268" 
d="M172 356q0 -31 19 -48t54 -17l-7 -43q-42 0 -68.5 -22.5t-34.5 -64.5l-52 -293q-8 -45 -41 -71.5t-80 -26.5l8 42q26 0 44.5 17t23.5 45l52 293q14 76 85 102q-50 21 -50 78v11t2 14l51 294q1 5 1 8v6q0 22 -12 35t-35 13l7 42q42 0 65 -21t23 -57q0 -5 -0.5 -9.5
t-1.5 -10.5l-51 -294q-1 -6 -1.5 -11.5t-0.5 -10.5z" />
    <glyph glyph-name="asciitilde" unicode="~" horiz-adv-x="596" 
d="M401 193q-42 0 -68.5 11.5t-47.5 25.5t-43 25.5t-56 11.5q-32 0 -55 -21t-32 -57h-37q10 56 45.5 87t89.5 31q42 0 68.5 -11.5t47.5 -25.5t42.5 -25.5t55.5 -11.5q32 0 55.5 21t33.5 57h36q-11 -56 -46 -87t-89 -31z" />
    <glyph glyph-name="uni00A0" unicode="&#xa0;" horiz-adv-x="247" 
 />
    <glyph glyph-name="exclamdown" unicode="&#xa1;" horiz-adv-x="229" 
d="M197 492l-13 -74h-79l13 74h79zM154 315l-91 -545h-64l101 545h54z" />
    <glyph glyph-name="cent" unicode="&#xa2;" horiz-adv-x="547" 
d="M296 170q54 6 95 38.5t65 87.5h61q-31 -79 -90 -125t-140 -52l-21 -119h-45l21 119q-84 6 -127.5 58.5t-43.5 142.5q0 67 18.5 122t52.5 95.5t82 64t108 27.5l19 111h45l-19 -111q74 -6 117 -48t48 -115h-61q-8 48 -36.5 77.5t-76.5 35.5zM133 327q0 -69 30 -109.5
t88 -47.5l72 409q-44 -4 -79 -24t-59.5 -53t-38 -77.5t-13.5 -97.5z" />
    <glyph glyph-name="sterling" unicode="&#xa3;" horiz-adv-x="608" 
d="M406 730q97 0 148.5 -50t51.5 -141q0 -23 -3 -45h-61q3 18 3 35q0 69 -38.5 107t-110.5 38q-90 0 -142 -45.5t-52 -126.5q0 -35 8 -71t15 -72h239l-7 -43h-225q1 -8 1.5 -16t0.5 -16q0 -30 -8.5 -59t-30.5 -57.5t-60 -56.5t-98 -55v-2h498l-10 -54h-518l8 49
q49 31 79.5 62t46.5 60.5t21.5 57.5t5.5 53q0 8 -0.5 16.5t-1.5 17.5h-92l7 43h78q-7 35 -14.5 71.5t-7.5 70.5q0 52 19 94.5t54 72.5t84.5 46t111.5 16z" />
    <glyph glyph-name="currency" unicode="&#xa4;" horiz-adv-x="572" 
d="M483 465q19 -38 19 -87q0 -54 -16 -97.5t-45 -75.5l45 -56l-34 -31l-47 57q-28 -19 -62.5 -29t-76.5 -10q-77 0 -121 42l-70 -59l-25 30l71 60q-19 38 -19 87q0 54 16 97.5t45 75.5l-45 56l34 31l46 -57q59 39 140 39q77 0 121 -42l70 59l25 -30zM274 175q84 0 133 53.5
t49 142.5q0 60 -32.5 94t-92.5 34q-84 0 -133 -53.5t-49 -142.5q0 -60 32 -94t93 -34z" />
    <glyph glyph-name="yen" unicode="&#xa5;" horiz-adv-x="680" 
d="M412 272h163l-8 -42h-184l-41 -58h215l-8 -42h-236l-90 -130h-71l89 130h-147l8 42h168l40 58h-198l7 42h155l-162 468h75l158 -464h2l320 464h70z" />
    <glyph glyph-name="brokenbar" unicode="&#xa6;" horiz-adv-x="236" 
d="M234 770l-71 -400h-46l71 400h46zM128 170l-71 -400h-46l71 400h46z" />
    <glyph glyph-name="section" unicode="&#xa7;" horiz-adv-x="664" 
d="M576 546q2 10 2 16.5v14.5q0 71 -46 109t-131 38q-95 0 -149.5 -33.5t-54.5 -92.5q0 -46 48.5 -71.5t137.5 -25.5q112 0 172 -50t60 -140q0 -56 -18 -102.5t-52 -81t-82 -56t-109 -27.5v-2q94 0 145.5 -27.5t51.5 -76.5q0 -41 -21 -73.5t-60 -56t-94.5 -36t-124.5 -12.5
q-118 0 -182 53.5t-64 151.5q0 20 3 40h63q-1 -8 -1.5 -15t-0.5 -15q0 -76 49.5 -117.5t142.5 -41.5q107 0 167 33.5t60 93.5q0 47 -48 72.5t-138 25.5q-112 0 -172 49.5t-60 140.5q0 56 18 102.5t51.5 81t82 56t109.5 27.5v2q-94 0 -145.5 27.5t-51.5 76.5q0 40 19 72.5
t55 55.5t87 35.5t116 12.5q111 0 170.5 -50.5t59.5 -143.5q0 -10 -0.5 -19.5t-1.5 -20.5h-63zM550 301q0 69 -46 106.5t-131 37.5q-54 0 -97.5 -14t-74.5 -40.5t-48 -64.5t-17 -86q0 -68 45.5 -105.5t130.5 -37.5q55 0 99 14.5t75 41t47.5 64t16.5 84.5z" />
    <glyph glyph-name="dieresis" unicode="&#xa8;" horiz-adv-x="342" 
d="M150 704h58l-16 -96h-58zM295 704h58l-16 -96h-59z" />
    <glyph glyph-name="copyright" unicode="&#xa9;" horiz-adv-x="859" 
d="M384 -10q-152 0 -232 80t-80 223q0 103 31.5 187.5t89.5 144.5t140.5 92.5t184.5 32.5q152 0 232.5 -80t80.5 -223q0 -104 -31.5 -188t-89.5 -144t-140.5 -92.5t-185.5 -32.5zM391 29q90 0 163 29.5t124 83t79 129.5t28 169q0 127 -70.5 199t-202.5 72q-90 0 -163 -29.5
t-124.5 -83t-79.5 -129.5t-28 -169q0 -128 70.5 -199.5t203.5 -71.5zM423 191q-66 0 -101 38t-35 104q0 49 14 89t40 69t63 45t82 16q60 0 94 -31.5t38 -88.5h-43q-5 40 -29 61.5t-66 21.5q-35 0 -62 -13t-46.5 -36t-29.5 -56t-10 -72q0 -51 24.5 -80.5t72.5 -29.5
q45 0 77.5 22.5t50.5 64.5h43q-22 -59 -68 -91.5t-109 -32.5z" />
    <glyph glyph-name="ordfeminine" unicode="&#xaa;" horiz-adv-x="413" 
d="M426 740l-52 -297h-51l17 98h-1q-9 -50 -42.5 -77t-84.5 -27q-50 0 -76.5 31t-26.5 87q0 43 11.5 78t32 60t49.5 39t65 14q45 0 69 -21t24 -59q0 -6 -0.5 -12t-1.5 -12h1l16 98h51zM240 478q45 0 74.5 30.5t38.5 82.5q3 19 3 31q0 39 -19 61t-57 22q-54 0 -86 -38.5
t-32 -100.5q0 -42 20 -65t58 -23z" />
    <glyph glyph-name="guillemotleft" unicode="&#xab;" horiz-adv-x="428" 
d="M207 443h49l-160 -193l92 -193h-49l-94 193zM361 443h49l-160 -193l92 -193h-49l-94 193z" />
    <glyph glyph-name="logicalnot" unicode="&#xac;" horiz-adv-x="517" 
d="M456 333l-28 -163h-45l23 126h-326l6 37h370z" />
    <glyph glyph-name="uni00AD" unicode="&#xad;" horiz-adv-x="394" 
d="M327 269l-6 -38h-252l6 38h252z" />
    <glyph glyph-name="registered" unicode="&#xae;" horiz-adv-x="497" 
d="M342 780q81 0 123.5 -41t42.5 -113q0 -52 -16.5 -94t-46.5 -72t-73 -46t-97 -16q-81 0 -124 41t-43 113q0 51 16.5 93t47 72t73.5 46.5t97 16.5zM280 428q44 0 80 13.5t61.5 39t39.5 60.5t14 79q0 61 -36 95.5t-103 34.5q-44 0 -80 -13.5t-61.5 -39t-39 -61t-13.5 -78.5
q0 -61 35.5 -95.5t102.5 -34.5zM335 686q29 0 45.5 -12.5t16.5 -35.5q0 -32 -22 -50t-60 -18v-2q29 0 39 -22l24 -54h-35l-32 76h-51l-13 -76h-32l30 169h-1l5 25h86zM320 592q20 0 31.5 11t11.5 31q0 27 -31 27h-55l-12 -69h55z" />
    <glyph glyph-name="macron" unicode="&#xaf;" horiz-adv-x="311" 
d="M364 679l-8 -46h-264l9 46h263z" />
    <glyph glyph-name="degree" unicode="&#xb0;" horiz-adv-x="312" 
d="M211 570q-45 0 -68.5 22.5t-23.5 62.5q0 57 35 91t95 34q45 0 68.5 -22.5t23.5 -62.5q0 -57 -34.5 -91t-95.5 -34zM218 612q33 0 52.5 20.5t19.5 55.5q0 24 -12.5 37.5t-36.5 13.5q-32 0 -52 -21t-20 -56q0 -50 49 -50z" />
    <glyph glyph-name="plusminus" unicode="&#xb1;" horiz-adv-x="497" 
d="M449 332l-8 -38h-162l-28 -161h-45l28 161h-162l7 38h162l28 161h44l-28 -161h164zM29 43h370l-8 -38h-369z" />
    <glyph glyph-name="uni00B2" unicode="&#xb2;" horiz-adv-x="364" 
d="M82 401h282l-7 -43h-308l7 40q67 18 121 47t91.5 66t57.5 81t20 91q0 38 -19 59.5t-54 21.5q-43 0 -74 -31t-43 -86h-52q18 76 64 118.5t113 42.5q59 0 90.5 -31t31.5 -88q0 -55 -22.5 -102.5t-64 -84.5t-101 -62.5t-133.5 -36.5v-2z" />
    <glyph glyph-name="uni00B3" unicode="&#xb3;" horiz-adv-x="363" 
d="M239 606q65 0 100 -28t35 -77q0 -69 -48 -109t-132 -40q-60 0 -92.5 30.5t-32.5 86.5q0 7 0.5 13t1.5 14h51q-1 -5 -1.5 -10.5t-0.5 -10.5q0 -38 21 -59t61 -21q54 0 85 27.5t31 72.5q0 33 -23 52t-67 19h-13l7 41q57 7 89 31.5t32 65.5q0 29 -20 45t-56 16
q-40 0 -68.5 -27t-39.5 -75h-50q17 69 61 107t110 38q58 0 89 -23t31 -64q0 -53 -43 -83t-118 -30v-2v0z" />
    <glyph glyph-name="acute" unicode="&#xb4;" horiz-adv-x="222" 
d="M280 680l-181 -84l-13 36l179 88z" />
    <glyph glyph-name="paragraph" unicode="&#xb6;" horiz-adv-x="658" 
d="M468 -230h-55l169 952h-160l-169 -952h-55l169 952q-52 0 -94 -14t-71.5 -40.5t-45.5 -63.5t-16 -83q0 -55 28 -90.5t81 -43.5l-9 -53q-77 9 -118.5 56t-41.5 122q0 59 21 107t59 81.5t92.5 51.5t122.5 18h270z" />
    <glyph glyph-name="periodcentered" unicode="&#xb7;" horiz-adv-x="219" 
d="M157 295l-13 -74h-78l12 74h79z" />
    <glyph glyph-name="cedilla" unicode="&#xb8;" horiz-adv-x="253" 
d="M18 -240q-23 0 -45 6t-36 17l7 38q15 -11 35 -17t42 -6q42 0 65 17t23 46q0 33 -44 35q-20 1 -37 -6t-28 -20l-28 20q19 20 47 32t56 12q42 0 64 -17.5t22 -49.5q0 -49 -38 -78t-105 -29z" />
    <glyph glyph-name="uni00B9" unicode="&#xb9;" horiz-adv-x="215" 
d="M251 802l-78 -444h-53l75 423h-2q-7 -39 -33 -61t-65 -22l8 45q40 0 65 15.5t30 43.5h53z" />
    <glyph glyph-name="ordmasculine" unicode="&#xba;" horiz-adv-x="394" 
d="M230 437q-60 0 -91.5 32t-31.5 91q0 42 12.5 76.5t35.5 58.5t56 37.5t74 13.5q59 0 90 -32t31 -91q0 -42 -12.5 -76.5t-35.5 -58.5t-55.5 -37.5t-72.5 -13.5zM237 478q54 0 86 38.5t32 100.5q0 42 -20 65t-57 23q-55 0 -87 -38.5t-32 -100.5q0 -42 20 -65t58 -23z" />
    <glyph glyph-name="guillemotright" unicode="&#xbb;" horiz-adv-x="428" 
d="M68 57h-49l160 193l-92 193h49l94 -193zM223 57h-49l160 193l-92 193h49l94 -193z" />
    <glyph glyph-name="onequarter" unicode="&#xbc;" horiz-adv-x="771" 
d="M208 731q-7 -39 -33 -61t-65 -22l8 45q40 0 65 15.5t30 43.5h53l-78 -444h-53l75 423h-2zM654 726l-603 -736l-28 24l603 736zM718 114h-58l-20 -114h-53l20 114h-214l8 48l217 282h100l-50 -287h58zM451 157h165l49 281h-2l-212 -279v-2z" />
    <glyph glyph-name="onehalf" unicode="&#xbd;" horiz-adv-x="768" 
d="M206 731q-7 -39 -33 -61t-65 -22l8 45q40 0 65 15.5t30 43.5h53l-78 -444h-53l75 423h-2zM652 726l-603 -736l-28 24l603 736zM413 43h282l-7 -43h-308l7 40q67 18 121 47t91.5 66t57.5 81t20 91q0 38 -19 59.5t-54 21.5q-43 0 -74 -31t-43 -86h-52q18 76 64 118.5
t113 42.5q59 0 90.5 -31t31.5 -88q0 -55 -22.5 -102.5t-64 -84.5t-101 -62.5t-133.5 -36.5v-2z" />
    <glyph glyph-name="threequarters" unicode="&#xbe;" horiz-adv-x="908" 
d="M377 451q0 -69 -48 -109t-132 -40q-60 0 -92.5 30.5t-32.5 86.5q0 7 0.5 13t1.5 14h51q-1 -5 -1.5 -10.5t-0.5 -10.5q0 -38 21 -59t61 -21q54 0 85 27.5t31 72.5q0 33 -23 52t-67 19h-13l7 41q57 7 89 31.5t32 65.5q0 29 -20 45t-56 16q-40 0 -68.5 -27t-39.5 -75h-50
q17 69 61 107t110 38q58 0 89 -23t31 -64q0 -53 -43 -83t-118 -30v-2q65 0 100 -28t35 -77zM791 726l-603 -736l-28 24l603 736zM855 114h-58l-20 -114h-53l20 114h-214l8 48l217 282h100l-50 -287h58zM588 157h165l49 281h-2l-212 -279v-2z" />
    <glyph glyph-name="questiondown" unicode="&#xbf;" horiz-adv-x="519" 
d="M281 418l13 74h79l-13 -74h-79zM448 -4q-25 -112 -96 -174t-174 -62q-93 0 -141 45t-48 123q0 45 19.5 93.5t56 97.5t88 98.5t114.5 97.5h62v-2q-63 -50 -113.5 -99.5t-86.5 -97t-55 -92.5t-19 -84q0 -58 34 -91t99 -33q75 0 127.5 47.5t71.5 132.5h61z" />
    <glyph glyph-name="Agrave" unicode="&#xc0;" horiz-adv-x="668" 
d="M509 195h-371l-101 -195h-66l395 740h111l133 -740h-69zM500 249l-80 484h-2l-252 -484h334zM409 802l-60 125h67l43 -125h-50z" />
    <glyph glyph-name="Aacute" unicode="&#xc1;" horiz-adv-x="668" 
d="M509 195h-371l-101 -195h-66l395 740h111l133 -740h-69zM500 249l-80 484h-2l-252 -484h334zM402 802l81 125h69l-98 -125h-52z" />
    <glyph glyph-name="Acircumflex" unicode="&#xc2;" horiz-adv-x="668" 
d="M509 195h-371l-101 -195h-66l395 740h111l133 -740h-69zM500 249l-80 484h-2l-252 -484h334zM451 908h-4l-83 -116h-54l89 125h102l51 -125h-54z" />
    <glyph glyph-name="Atilde" unicode="&#xc3;" horiz-adv-x="668" 
d="M477 740l133 -740h-69l-32 195h-371l-101 -195h-66l395 740h111zM420 733h-2l-252 -484h334zM480 805q-20 0 -31 8t-19.5 17t-17 17t-22.5 8q-24 0 -38 -53h-45q9 48 32 74t64 26q19 0 30.5 -7.5t19.5 -17t16.5 -17t23.5 -7.5q25 0 39 52h45q-9 -48 -33 -74t-64 -26z" />
    <glyph glyph-name="Adieresis" unicode="&#xc4;" horiz-adv-x="668" 
d="M398 856h-58l16 96h58zM543 856h-59l17 96h58zM509 195h-371l-101 -195h-66l395 740h111l133 -740h-69zM500 249l-80 484h-2l-252 -484h334z" />
    <glyph glyph-name="Aring" unicode="&#xc5;" horiz-adv-x="668" 
d="M431 800q-47 0 -71.5 23t-24.5 64q0 57 36 91.5t98 34.5q46 0 70.5 -22.5t24.5 -63.5q0 -58 -35.5 -92.5t-97.5 -34.5zM462 974q-36 0 -57.5 -22t-21.5 -59q0 -25 14 -39t41 -14q37 0 57.5 21.5t20.5 58.5q0 26 -14 40t-40 14zM509 195h-371l-101 -195h-66l395 740h111
l133 -740h-69zM500 249l-80 484h-2l-252 -484h334z" />
    <glyph glyph-name="AE" unicode="&#xc6;" horiz-adv-x="1053" 
d="M568 686l13 -285h410l-9 -54h-398l13 -293h379l-9 -54h-437l-6 195h-367l-127 -195h-70l489 740h637l-9 -54h-509zM523 249l-14 484h-2l-315 -484h331z" />
    <glyph glyph-name="Ccedilla" unicode="&#xc7;" horiz-adv-x="704" 
d="M663 265q-22 -64 -56 -115t-77.5 -86.5t-95.5 -54.5t-110 -19q-122 0 -186.5 77t-64.5 214q0 105 27 191t77.5 148t121.5 96t159 34q117 0 180.5 -66.5t63.5 -185.5v-15h-61v3q-1 99 -51 153.5t-141 54.5q-71 0 -128 -29.5t-98 -83t-63 -128t-22 -163.5q0 -115 50 -179.5
t146 -64.5q89 0 159.5 58t108.5 161h61zM259 -240q-23 0 -45 6t-36 17l7 38q15 -11 35 -17t42 -6q42 0 65 17t23 46q0 33 -44 35q-20 1 -37 -6t-28 -20l-28 20q19 20 47 32t56 12q42 0 64 -17.5t22 -49.5q0 -49 -38 -78t-105 -29z" />
    <glyph glyph-name="Egrave" unicode="&#xc8;" horiz-adv-x="612" 
d="M241 686l-49 -276h360l-9 -54h-360l-54 -302h407l-10 -54h-469l130 740h458l-9 -54h-395zM419 802l-60 125h67l43 -125h-50z" />
    <glyph glyph-name="Eacute" unicode="&#xc9;" horiz-adv-x="612" 
d="M241 686l-49 -276h360l-9 -54h-360l-54 -302h407l-10 -54h-469l130 740h458l-9 -54h-395zM390 802l81 125h69l-98 -125h-52z" />
    <glyph glyph-name="Ecircumflex" unicode="&#xca;" horiz-adv-x="612" 
d="M241 686l-49 -276h360l-9 -54h-360l-54 -302h407l-10 -54h-469l130 740h458l-9 -54h-395zM438 908h-4l-83 -116h-54l89 125h102l51 -125h-54z" />
    <glyph glyph-name="Edieresis" unicode="&#xcb;" horiz-adv-x="612" 
d="M391 856h-58l16 96h58zM536 856h-59l17 96h58zM241 686l-49 -276h360l-9 -54h-360l-54 -302h407l-10 -54h-469l130 740h458l-9 -54h-395z" />
    <glyph glyph-name="Igrave" unicode="&#xcc;" horiz-adv-x="262" 
d="M187 740h62l-130 -740h-62zM207 802l-60 125h67l43 -125h-50z" />
    <glyph glyph-name="Iacute" unicode="&#xcd;" horiz-adv-x="262" 
d="M187 740h62l-130 -740h-62zM198 802l81 125h69l-98 -125h-52z" />
    <glyph glyph-name="Icircumflex" unicode="&#xce;" horiz-adv-x="262" 
d="M383 818h-56l-68 147h-2l-118 -147h-56l127 154h99zM187 740h62l-130 -740h-62z" />
    <glyph glyph-name="Idieresis" unicode="&#xcf;" horiz-adv-x="262" 
d="M154 952h58l-16 -96h-58zM299 952h58l-16 -96h-59zM187 740h62l-130 -740h-62z" />
    <glyph glyph-name="Eth" unicode="&#xd0;" horiz-adv-x="713" 
d="M399 740q139 0 213 -77t74 -215q0 -101 -29.5 -183.5t-84 -141.5t-131.5 -91t-172 -32h-203l63 357h-100l7 37h99l61 346h203zM284 54q77 0 139 28t106 78.5t68 122t24 158.5q0 115 -58 180t-168 65h-146l-51 -292h146l-7 -37h-146l-53 -303h146z" />
    <glyph glyph-name="Ntilde" unicode="&#xd1;" horiz-adv-x="724" 
d="M406 915q-23 0 -40.5 -19.5t-25.5 -53.5h-39q11 58 41 90.5t75 32.5q26 0 43 -11t30.5 -23.5t27 -23.5t31.5 -11q23 0 40.5 19t26.5 54h39q-11 -59 -41.5 -91t-75.5 -32q-26 0 -43 11t-30.5 23.5t-27 23.5t-31.5 11zM712 740l-130 -740h-117l-217 733h-2l-128 -733h-61
l130 740h118l217 -733h2l128 733h60z" />
    <glyph glyph-name="Ograve" unicode="&#xd2;" horiz-adv-x="745" 
d="M327 -10q-124 0 -189 77.5t-65 214.5q0 104 27.5 190.5t78 148t122 95.5t160.5 34q124 0 189.5 -77t65.5 -215q0 -104 -27.5 -190.5t-78.5 -148t-123 -95.5t-160 -34zM337 46q71 0 129 29.5t99 83t63 128t22 163.5q0 115 -50.5 179.5t-147.5 64.5q-72 0 -130 -29.5
t-99 -83t-63 -128t-22 -163.5q0 -115 51 -179.5t148 -64.5zM447 802l-60 125h67l43 -125h-50z" />
    <glyph glyph-name="Oacute" unicode="&#xd3;" horiz-adv-x="745" 
d="M327 -10q-124 0 -189 77.5t-65 214.5q0 104 27.5 190.5t78 148t122 95.5t160.5 34q124 0 189.5 -77t65.5 -215q0 -104 -27.5 -190.5t-78.5 -148t-123 -95.5t-160 -34zM337 46q71 0 129 29.5t99 83t63 128t22 163.5q0 115 -50.5 179.5t-147.5 64.5q-72 0 -130 -29.5
t-99 -83t-63 -128t-22 -163.5q0 -115 51 -179.5t148 -64.5zM428 802l81 125h69l-98 -125h-52z" />
    <glyph glyph-name="Ocircumflex" unicode="&#xd4;" horiz-adv-x="745" 
d="M461 750q124 0 189.5 -77t65.5 -215q0 -104 -27.5 -190.5t-78.5 -148t-123 -95.5t-160 -34q-124 0 -189 77.5t-65 214.5q0 104 27.5 190.5t78 148t122 95.5t160.5 34zM337 46q71 0 129 29.5t99 83t63 128t22 163.5q0 115 -50.5 179.5t-147.5 64.5q-72 0 -130 -29.5
t-99 -83t-63 -128t-22 -163.5q0 -115 51 -179.5t148 -64.5zM478 908h-4l-83 -116h-54l89 125h102l51 -125h-54z" />
    <glyph glyph-name="Otilde" unicode="&#xd5;" horiz-adv-x="745" 
d="M327 -10q-124 0 -189 77.5t-65 214.5q0 104 27.5 190.5t78 148t122 95.5t160.5 34q124 0 189.5 -77t65.5 -215q0 -104 -27.5 -190.5t-78.5 -148t-123 -95.5t-160 -34zM337 46q71 0 129 29.5t99 83t63 128t22 163.5q0 115 -50.5 179.5t-147.5 64.5q-72 0 -130 -29.5
t-99 -83t-63 -128t-22 -163.5q0 -115 51 -179.5t148 -64.5zM511 805q-20 0 -31 8t-19.5 17t-17 17t-22.5 8q-24 0 -38 -53h-45q9 48 32 74t64 26q19 0 30.5 -7.5t19.5 -17t16.5 -17t23.5 -7.5q25 0 39 52h45q-9 -48 -33 -74t-64 -26z" />
    <glyph glyph-name="Odieresis" unicode="&#xd6;" horiz-adv-x="745" 
d="M395 952h58l-16 -96h-58zM540 952h58l-16 -96h-59zM327 -10q-124 0 -189 77.5t-65 214.5q0 104 27.5 190.5t78 148t122 95.5t160.5 34q124 0 189.5 -77t65.5 -215q0 -104 -27.5 -190.5t-78.5 -148t-123 -95.5t-160 -34zM337 46q71 0 129 29.5t99 83t63 128t22 163.5
q0 115 -50.5 179.5t-147.5 64.5q-72 0 -130 -29.5t-99 -83t-63 -128t-22 -163.5q0 -115 51 -179.5t148 -64.5z" />
    <glyph glyph-name="multiply" unicode="&#xd7;" horiz-adv-x="478" 
d="M269 246l123 -148l-36 -30l-122 148l-175 -148l-24 30l174 148l-122 148l35 30l123 -148l175 148l24 -30z" />
    <glyph glyph-name="Oslash" unicode="&#xd8;" horiz-adv-x="745" 
d="M654 668q62 -76 62 -210q0 -104 -27.5 -190.5t-78.5 -148t-123 -95.5t-160 -34q-49 0 -89 13t-71 37l-59 -76l-37 25l64 83q-62 76 -62 210q0 104 27.5 190.5t78 148t122 95.5t160.5 34q98 0 161 -51l60 77l36 -25zM138 290q0 -101 40 -164l404 521q-49 47 -130 47
q-72 0 -130 -29.5t-99 -83t-63 -128t-22 -163.5zM650 450q0 101 -39 163l-404 -521q49 -46 130 -46q71 0 129 29.5t99 83t63 128t22 163.5z" />
    <glyph glyph-name="Ugrave" unicode="&#xd9;" horiz-adv-x="707" 
d="M643 740h59l-85 -488q-22 -124 -103 -193t-206 -69q-107 0 -164 52t-57 146q0 31 6 64l86 488h63l-87 -493q-2 -14 -3.5 -25.5t-1.5 -22.5q0 -73 44 -113t125 -40q96 0 158 53t79 148zM449 802l-60 125h67l43 -125h-50z" />
    <glyph glyph-name="Uacute" unicode="&#xda;" horiz-adv-x="707" 
d="M643 740h59l-85 -488q-22 -124 -103 -193t-206 -69q-107 0 -164 52t-57 146q0 31 6 64l86 488h63l-87 -493q-2 -14 -3.5 -25.5t-1.5 -22.5q0 -73 44 -113t125 -40q96 0 158 53t79 148zM403 802l81 125h69l-98 -125h-52z" />
    <glyph glyph-name="Ucircumflex" unicode="&#xdb;" horiz-adv-x="707" 
d="M362 818h-56l127 154h99l74 -154h-56l-68 147h-2zM702 740l-85 -488q-22 -124 -103 -193t-206 -69q-107 0 -164 52t-57 146q0 31 6 64l86 488h63l-87 -493q-2 -14 -3.5 -25.5t-1.5 -22.5q0 -73 44 -113t125 -40q96 0 158 53t79 148l87 493h59z" />
    <glyph glyph-name="Udieresis" unicode="&#xdc;" horiz-adv-x="707" 
d="M377 952h58l-16 -96h-58zM522 952h58l-16 -96h-59zM643 740h59l-85 -488q-22 -124 -103 -193t-206 -69q-107 0 -164 52t-57 146q0 31 6 64l86 488h63l-87 -493q-2 -14 -3.5 -25.5t-1.5 -22.5q0 -73 44 -113t125 -40q96 0 158 53t79 148z" />
    <glyph glyph-name="Yacute" unicode="&#xdd;" horiz-adv-x="638" 
d="M729 740l-514 -740h-71l185 269h-62l-163 471h75l158 -464h2l320 464h70zM368 802l81 125h69l-98 -125h-52z" />
    <glyph glyph-name="Thorn" unicode="&#xde;" horiz-adv-x="634" 
d="M409 602q98 0 150 -48.5t52 -134.5q0 -60 -20 -109t-56.5 -84t-89 -54t-116.5 -19h-183l-27 -153h-62l130 740h62l-24 -138h184zM343 206q46 0 83.5 14.5t64 41.5t41 65t14.5 85q0 64 -37 100t-106 36h-188l-60 -342h188z" />
    <glyph glyph-name="germandbls" unicode="&#xdf;" horiz-adv-x="616" 
d="M337 451q110 0 169 -50t59 -138q0 -62 -19.5 -112t-56.5 -86t-89 -55.5t-117 -19.5q-25 0 -48.5 3t-41.5 9l9 49q17 -5 39 -7.5t45 -2.5q50 0 90 15.5t68.5 44t44 68.5t15.5 88q0 71 -45.5 110.5t-130.5 39.5h-37l8 46q100 5 157.5 49.5t57.5 119.5q0 51 -31 79t-91 28
q-78 0 -128.5 -41.5t-64.5 -117.5l-100 -570h-60l100 568q17 101 86.5 156.5t175.5 55.5q86 0 132 -36.5t46 -102.5q0 -88 -65 -138t-177 -50v-2v0z" />
    <glyph glyph-name="agrave" unicode="&#xe0;" 
d="M558 492l-86 -492h-60l28 158h-2q-14 -79 -70.5 -123.5t-144.5 -44.5q-85 0 -130 52t-45 146q0 70 19 128t53.5 99t84 64t109.5 23q76 0 117 -34t41 -97q0 -18 -3 -37h2l27 158h60zM252 41q82 0 137 54.5t72 150.5q3 17 4.5 30t1.5 27q0 70 -37 109.5t-106 39.5
q-49 0 -88.5 -18.5t-67 -51.5t-42.5 -79.5t-15 -102.5q0 -75 36 -117t105 -42zM340 560l-60 125h67l43 -125h-50z" />
    <glyph glyph-name="aacute" unicode="&#xe1;" 
d="M558 492l-86 -492h-60l28 158h-2q-14 -79 -70.5 -123.5t-144.5 -44.5q-85 0 -130 52t-45 146q0 70 19 128t53.5 99t84 64t109.5 23q76 0 117 -34t41 -97q0 -18 -3 -37h2l27 158h60zM252 41q82 0 137 54.5t72 150.5q3 17 4.5 30t1.5 27q0 70 -37 109.5t-106 39.5
q-49 0 -88.5 -18.5t-67 -51.5t-42.5 -79.5t-15 -102.5q0 -75 36 -117t105 -42zM316 560l81 125h69l-98 -125h-52z" />
    <glyph glyph-name="acircumflex" unicode="&#xe2;" 
d="M558 492l-86 -492h-60l28 158h-2q-14 -79 -70.5 -123.5t-144.5 -44.5q-85 0 -130 52t-45 146q0 70 19 128t53.5 99t84 64t109.5 23q76 0 117 -34t41 -97q0 -18 -3 -37h2l27 158h60zM252 41q82 0 137 54.5t72 150.5q3 17 4.5 30t1.5 27q0 70 -37 109.5t-106 39.5
q-49 0 -88.5 -18.5t-67 -51.5t-42.5 -79.5t-15 -102.5q0 -75 36 -117t105 -42zM359 666h-4l-83 -116h-54l89 125h102l51 -125h-54z" />
    <glyph glyph-name="atilde" unicode="&#xe3;" 
d="M558 492l-86 -492h-60l28 158h-2q-14 -79 -70.5 -123.5t-144.5 -44.5q-85 0 -130 52t-45 146q0 70 19 128t53.5 99t84 64t109.5 23q76 0 117 -34t41 -97q0 -18 -3 -37h2l27 158h60zM252 41q82 0 137 54.5t72 150.5q3 17 4.5 30t1.5 27q0 70 -37 109.5t-106 39.5
q-49 0 -88.5 -18.5t-67 -51.5t-42.5 -79.5t-15 -102.5q0 -75 36 -117t105 -42zM387 563q-20 0 -31 8t-19.5 17t-17 17t-22.5 8q-24 0 -38 -53h-45q9 48 32 74t64 26q19 0 30.5 -7.5t19.5 -17t16.5 -17t23.5 -7.5q25 0 39 52h45q-9 -48 -33 -74t-64 -26z" />
    <glyph glyph-name="adieresis" unicode="&#xe4;" 
d="M309 608h-58l16 96h58zM454 608h-59l17 96h58zM558 492l-86 -492h-60l28 158h-2q-14 -79 -70.5 -123.5t-144.5 -44.5q-85 0 -130 52t-45 146q0 70 19 128t53.5 99t84 64t109.5 23q76 0 117 -34t41 -97q0 -18 -3 -37h2l27 158h60zM252 41q82 0 137 54.5t72 150.5
q3 17 4.5 30t1.5 27q0 70 -37 109.5t-106 39.5q-49 0 -88.5 -18.5t-67 -51.5t-42.5 -79.5t-15 -102.5q0 -75 36 -117t105 -42z" />
    <glyph glyph-name="aring" unicode="&#xe5;" 
d="M342 552q-47 0 -71.5 23t-24.5 64q0 57 36 91.5t98 34.5q46 0 70.5 -22.5t24.5 -63.5q0 -58 -35.5 -92.5t-97.5 -34.5zM373 726q-36 0 -57.5 -22t-21.5 -59q0 -25 14 -39t41 -14q37 0 57.5 21.5t20.5 58.5q0 26 -14 40t-40 14zM558 492l-86 -492h-60l28 158h-2
q-14 -79 -70.5 -123.5t-144.5 -44.5q-85 0 -130 52t-45 146q0 70 19 128t53.5 99t84 64t109.5 23q76 0 117 -34t41 -97q0 -18 -3 -37h2l27 158h60zM252 41q82 0 137 54.5t72 150.5q3 17 4.5 30t1.5 27q0 70 -37 109.5t-106 39.5q-49 0 -88.5 -18.5t-67 -51.5t-42.5 -79.5
t-15 -102.5q0 -75 36 -117t105 -42z" />
    <glyph glyph-name="ae" unicode="&#xe6;" horiz-adv-x="943" 
d="M735 502q80 0 123 -46.5t43 -131.5q0 -19 -1.5 -38t-6.5 -41l-3 -11h-383q-4 -23 -4 -48q0 -70 34 -108t98 -38q66 0 114.5 34.5t70.5 97.5h60q-26 -86 -88 -134t-148 -48q-70 0 -108 33t-38 94q0 18 3 38h-2l-27 -155h-60l28 158h-2q-14 -79 -70.5 -123.5t-144.5 -44.5
q-85 0 -130 52t-45 146q0 70 19 128t53.5 99t84 64t109.5 23q76 0 117 -34t41 -97q0 -18 -3 -37h2l27 158h60l-27 -156h2q14 79 67.5 122.5t134.5 43.5zM707 453q-71 0 -121 -47t-71 -132h322q1 8 1 16v16q0 71 -33.5 109t-97.5 38zM252 41q82 0 137 54.5t72 150.5
q3 17 4.5 30t1.5 27q0 70 -37 109.5t-106 39.5q-49 0 -88.5 -18.5t-67 -51.5t-42.5 -79.5t-15 -102.5q0 -75 36 -117t105 -42z" />
    <glyph glyph-name="ccedilla" unicode="&#xe7;" horiz-adv-x="546" 
d="M240 -10q-94 0 -143 53.5t-49 148.5q0 70 20 127t57 97.5t89 63t116 22.5q85 0 134 -43t55 -121h-61q-8 54 -42.5 84t-94.5 30q-48 0 -87 -18.5t-66.5 -52t-42.5 -80t-15 -102.5q0 -75 35.5 -116.5t103.5 -41.5q63 0 110.5 33t73.5 94h61q-33 -85 -98.5 -131.5
t-155.5 -46.5zM175 -240q-23 0 -45 6t-36 17l7 38q15 -11 35 -17t42 -6q42 0 65 17t23 46q0 33 -44 35q-20 1 -37 -6t-28 -20l-28 20q19 20 47 32t56 12q42 0 64 -17.5t22 -49.5q0 -49 -38 -78t-105 -29z" />
    <glyph glyph-name="egrave" unicode="&#xe8;" horiz-adv-x="549" 
d="M322 502q88 0 136 -48t48 -136q0 -17 -2 -35t-6 -38l-2 -11h-385q-1 -9 -1.5 -18.5t-0.5 -19.5q0 -73 34 -114.5t97 -41.5q66 0 115 34.5t70 97.5h60q-26 -86 -93 -134t-161 -48q-88 0 -135.5 52t-47.5 146q0 70 19.5 128t55 99.5t86 64t113.5 22.5zM313 453
q-76 0 -127.5 -48.5t-68.5 -130.5h325q1 8 1.5 16t0.5 16q0 71 -34 109t-97 38zM315 560l-60 125h67l43 -125h-50z" />
    <glyph glyph-name="eacute" unicode="&#xe9;" horiz-adv-x="549" 
d="M322 502q88 0 136 -48t48 -136q0 -17 -2 -35t-6 -38l-2 -11h-385q-1 -9 -1.5 -18.5t-0.5 -19.5q0 -73 34 -114.5t97 -41.5q66 0 115 34.5t70 97.5h60q-26 -86 -93 -134t-161 -48q-88 0 -135.5 52t-47.5 146q0 70 19.5 128t55 99.5t86 64t113.5 22.5zM313 453
q-76 0 -127.5 -48.5t-68.5 -130.5h325q1 8 1.5 16t0.5 16q0 71 -34 109t-97 38zM296 560l81 125h69l-98 -125h-52z" />
    <glyph glyph-name="ecircumflex" unicode="&#xea;" horiz-adv-x="549" 
d="M322 502q88 0 136 -48t48 -136q0 -17 -2 -35t-6 -38l-2 -11h-385q-1 -9 -1.5 -18.5t-0.5 -19.5q0 -73 34 -114.5t97 -41.5q66 0 115 34.5t70 97.5h60q-26 -86 -93 -134t-161 -48q-88 0 -135.5 52t-47.5 146q0 70 19.5 128t55 99.5t86 64t113.5 22.5zM313 453
q-76 0 -127.5 -48.5t-68.5 -130.5h325q1 8 1.5 16t0.5 16q0 71 -34 109t-97 38zM346 666h-4l-83 -116h-54l89 125h102l51 -125h-54z" />
    <glyph glyph-name="edieresis" unicode="&#xeb;" horiz-adv-x="549" 
d="M297 608h-58l16 96h58zM442 608h-59l17 96h58zM322 502q88 0 136 -48t48 -136q0 -17 -2 -35t-6 -38l-2 -11h-385q-1 -9 -1.5 -18.5t-0.5 -19.5q0 -73 34 -114.5t97 -41.5q66 0 115 34.5t70 97.5h60q-26 -86 -93 -134t-161 -48q-88 0 -135.5 52t-47.5 146q0 70 19.5 128
t55 99.5t86 64t113.5 22.5zM313 453q-76 0 -127.5 -48.5t-68.5 -130.5h325q1 8 1.5 16t0.5 16q0 71 -34 109t-97 38z" />
    <glyph glyph-name="igrave" unicode="&#xec;" horiz-adv-x="224" 
d="M185 492l-86 -492h-60l86 492h60zM144 560l-60 125h67l43 -125h-50z" />
    <glyph glyph-name="iacute" unicode="&#xed;" horiz-adv-x="224" 
d="M185 492l-86 -492h-60l86 492h60zM134 560l81 125h69l-98 -125h-52z" />
    <glyph glyph-name="icircumflex" unicode="&#xee;" horiz-adv-x="224" 
d="M320 570h-56l-68 147h-2l-118 -147h-56l127 154h99zM125 492h60l-86 -492h-60z" />
    <glyph glyph-name="idieresis" unicode="&#xef;" horiz-adv-x="224" 
d="M91 704h58l-16 -96h-58zM236 704h58l-16 -96h-59zM185 492l-86 -492h-60l86 492h60z" />
    <glyph glyph-name="eth" unicode="&#xf0;" horiz-adv-x="586" 
d="M387 692q81 -56 116.5 -127t35.5 -168q0 -60 -12 -129q-26 -144 -97.5 -211t-186.5 -67q-94 0 -144.5 53t-50.5 148q0 68 19 125t53.5 97.5t83.5 63t109 22.5q78 0 119.5 -44t41.5 -124q0 -15 -1.5 -30.5t-3.5 -32.5h2q5 34 8 64.5t3 58.5q0 92 -36 157t-116 116
l-149 -70l-17 37l123 58q-43 23 -103 46l24 45q82 -29 139 -63l134 63l15 -37zM252 41q49 0 89 18.5t68 51.5t43 79t15 101q0 75 -37 116.5t-106 41.5q-49 0 -88.5 -18t-67.5 -51t-43 -79t-15 -102q0 -75 36.5 -116.5t105.5 -41.5z" />
    <glyph glyph-name="ntilde" unicode="&#xf1;" horiz-adv-x="573" 
d="M289 667q-23 0 -40.5 -19.5t-25.5 -53.5h-39q11 58 41 90.5t75 32.5q26 0 43 -11t30.5 -23.5t27 -23.5t31.5 -11q23 0 40.5 19t26.5 54h39q-11 -59 -41.5 -91t-75.5 -32q-26 0 -43 11t-30.5 23.5t-27 23.5t-31.5 11zM361 502q73 0 112 -37.5t39 -106.5q0 -11 -1.5 -23
t-3.5 -26l-54 -309h-60l54 308q3 19 3 35q0 52 -30 80.5t-87 28.5q-73 0 -122.5 -47.5t-64.5 -134.5l-47 -270h-60l86 492h60l-29 -167h2q15 85 68.5 131t134.5 46z" />
    <glyph glyph-name="ograve" unicode="&#xf2;" horiz-adv-x="575" 
d="M243 -10q-94 0 -144.5 53.5t-50.5 148.5q0 70 20 127t57.5 97.5t90 63t117.5 22.5q95 0 145 -53t50 -148q0 -70 -20 -127.5t-57 -98t-90 -63t-118 -22.5zM252 41q49 0 89 18.5t68 51.5t43 79.5t15 102.5q0 75 -37 117t-106 42q-49 0 -88.5 -18.5t-67.5 -51.5t-43 -79.5
t-15 -102.5q0 -75 36.5 -117t105.5 -42zM322 560l-60 125h67l43 -125h-50z" />
    <glyph glyph-name="oacute" unicode="&#xf3;" horiz-adv-x="575" 
d="M243 -10q-94 0 -144.5 53.5t-50.5 148.5q0 70 20 127t57.5 97.5t90 63t117.5 22.5q95 0 145 -53t50 -148q0 -70 -20 -127.5t-57 -98t-90 -63t-118 -22.5zM252 41q49 0 89 18.5t68 51.5t43 79.5t15 102.5q0 75 -37 117t-106 42q-49 0 -88.5 -18.5t-67.5 -51.5t-43 -79.5
t-15 -102.5q0 -75 36.5 -117t105.5 -42zM308 560l81 125h69l-98 -125h-52z" />
    <glyph glyph-name="ocircumflex" unicode="&#xf4;" horiz-adv-x="575" 
d="M333 502q95 0 145 -53t50 -148q0 -70 -20 -127.5t-57 -98t-90 -63t-118 -22.5q-94 0 -144.5 53.5t-50.5 148.5q0 70 20 127t57.5 97.5t90 63t117.5 22.5zM252 41q49 0 89 18.5t68 51.5t43 79.5t15 102.5q0 75 -37 117t-106 42q-49 0 -88.5 -18.5t-67.5 -51.5t-43 -79.5
t-15 -102.5q0 -75 36.5 -117t105.5 -42zM357 666h-4l-83 -116h-54l89 125h102l51 -125h-54z" />
    <glyph glyph-name="otilde" unicode="&#xf5;" horiz-adv-x="575" 
d="M243 -10q-94 0 -144.5 53.5t-50.5 148.5q0 70 20 127t57.5 97.5t90 63t117.5 22.5q95 0 145 -53t50 -148q0 -70 -20 -127.5t-57 -98t-90 -63t-118 -22.5zM252 41q49 0 89 18.5t68 51.5t43 79.5t15 102.5q0 75 -37 117t-106 42q-49 0 -88.5 -18.5t-67.5 -51.5t-43 -79.5
t-15 -102.5q0 -75 36.5 -117t105.5 -42zM387 563q-20 0 -31 8t-19.5 17t-17 17t-22.5 8q-24 0 -38 -53h-45q9 48 32 74t64 26q19 0 30.5 -7.5t19.5 -17t16.5 -17t23.5 -7.5q25 0 39 52h45q-9 -48 -33 -74t-64 -26z" />
    <glyph glyph-name="odieresis" unicode="&#xf6;" horiz-adv-x="575" 
d="M267 704h58l-16 -96h-58zM412 704h58l-16 -96h-59zM243 -10q-94 0 -144.5 53.5t-50.5 148.5q0 70 20 127t57.5 97.5t90 63t117.5 22.5q95 0 145 -53t50 -148q0 -70 -20 -127.5t-57 -98t-90 -63t-118 -22.5zM252 41q49 0 89 18.5t68 51.5t43 79.5t15 102.5q0 75 -37 117
t-106 42q-49 0 -88.5 -18.5t-67.5 -51.5t-43 -79.5t-15 -102.5q0 -75 36.5 -117t105.5 -42z" />
    <glyph glyph-name="divide" unicode="&#xf7;" horiz-adv-x="513" 
d="M276 361q-27 0 -27 25q0 17 10.5 27.5t27.5 10.5q29 0 29 -26q0 -37 -40 -37zM76 271h370l-7 -38h-370zM227 80q-28 0 -28 24q0 18 10.5 28.5t28.5 10.5q28 0 28 -27q0 -17 -10 -26.5t-29 -9.5z" />
    <glyph glyph-name="oslash" unicode="&#xf8;" horiz-adv-x="575" 
d="M480 446q48 -51 48 -145q0 -70 -20 -127.5t-57 -98t-90 -63t-118 -22.5q-70 0 -116 30l-47 -57l-33 25l49 59q-48 53 -48 145q0 70 20 127t57.5 97.5t90 63t117.5 22.5q71 0 116 -30l47 56l33 -23zM110 200q0 -65 27 -104l275 330q-35 26 -88 26q-49 0 -88.5 -18.5
t-67.5 -51.5t-43 -79.5t-15 -102.5zM467 293q0 65 -27 104l-275 -331q36 -25 87 -25q49 0 89 18.5t68 51.5t43 79.5t15 102.5z" />
    <glyph glyph-name="ugrave" unicode="&#xf9;" horiz-adv-x="562" 
d="M523 492l-86 -492h-60l29 167h-2q-15 -84 -67.5 -130.5t-130.5 -46.5q-71 0 -108.5 37t-37.5 105q0 12 1.5 24.5t3.5 26.5l55 309h60l-54 -308q-2 -10 -3 -19.5t-1 -17.5q0 -51 29 -78.5t83 -27.5q71 0 118.5 47.5t63.5 133.5l47 270h60zM321 560l-60 125h67l43 -125h-50
z" />
    <glyph glyph-name="uacute" unicode="&#xfa;" horiz-adv-x="562" 
d="M523 492l-86 -492h-60l29 167h-2q-15 -84 -67.5 -130.5t-130.5 -46.5q-71 0 -108.5 37t-37.5 105q0 12 1.5 24.5t3.5 26.5l55 309h60l-54 -308q-2 -10 -3 -19.5t-1 -17.5q0 -51 29 -78.5t83 -27.5q71 0 118.5 47.5t63.5 133.5l47 270h60zM293 560l81 125h69l-98 -125h-52
z" />
    <glyph glyph-name="ucircumflex" unicode="&#xfb;" horiz-adv-x="562" 
d="M242 570h-56l127 154h99l74 -154h-56l-68 147h-2zM523 492l-86 -492h-60l29 167h-2q-15 -84 -67.5 -130.5t-130.5 -46.5q-71 0 -108.5 37t-37.5 105q0 12 1.5 24.5t3.5 26.5l55 309h60l-54 -308q-2 -10 -3 -19.5t-1 -17.5q0 -51 29 -78.5t83 -27.5q71 0 118.5 47.5
t63.5 133.5l47 270h60z" />
    <glyph glyph-name="udieresis" unicode="&#xfc;" horiz-adv-x="562" 
d="M299 608h-58l16 96h58zM444 608h-59l17 96h58zM523 492l-86 -492h-60l29 167h-2q-15 -84 -67.5 -130.5t-130.5 -46.5q-71 0 -108.5 37t-37.5 105q0 12 1.5 24.5t3.5 26.5l55 309h60l-54 -308q-2 -10 -3 -19.5t-1 -17.5q0 -51 29 -78.5t83 -27.5q71 0 118.5 47.5
t63.5 133.5l47 270h60z" />
    <glyph glyph-name="yacute" unicode="&#xfd;" horiz-adv-x="511" 
d="M530 492l-379 -722h-65l121 230h-52l-85 492h65l79 -487h2l249 487h65zM269 560l81 125h69l-98 -125h-52z" />
    <glyph glyph-name="thorn" unicode="&#xfe;" horiz-adv-x="598" 
d="M374 502q86 0 131 -52t45 -146q0 -70 -19 -128t-54 -99t-84 -64t-110 -23q-76 0 -117 34t-41 96q0 17 3 35h-2l-68 -385h-60l177 1000h60l-77 -433h2q14 78 70 121.5t144 43.5zM273 41q49 0 88.5 18.5t67.5 51.5t43 79.5t15 102.5q0 75 -36.5 116.5t-105.5 41.5
q-82 0 -137 -54t-72 -151q-3 -16 -4.5 -29t-1.5 -27q0 -71 37 -110t106 -39z" />
    <glyph glyph-name="ydieresis" unicode="&#xff;" horiz-adv-x="511" 
d="M280 608h-58l16 96h58zM425 608h-59l17 96h58zM530 492l-379 -722h-65l121 230h-52l-85 492h65l79 -487h2l249 487h65z" />
    <glyph glyph-name="Amacron" unicode="&#x100;" horiz-adv-x="668" 
d="M578 881h-264l9 46h263zM509 195h-371l-101 -195h-66l395 740h111l133 -740h-69zM500 249l-80 484h-2l-252 -484h334z" />
    <glyph glyph-name="amacron" unicode="&#x101;" 
d="M489 633h-264l9 46h263zM558 492l-86 -492h-60l28 158h-2q-14 -79 -70.5 -123.5t-144.5 -44.5q-85 0 -130 52t-45 146q0 70 19 128t53.5 99t84 64t109.5 23q76 0 117 -34t41 -97q0 -18 -3 -37h2l27 158h60zM252 41q82 0 137 54.5t72 150.5q3 17 4.5 30t1.5 27
q0 70 -37 109.5t-106 39.5q-49 0 -88.5 -18.5t-67 -51.5t-42.5 -79.5t-15 -102.5q0 -75 36 -117t105 -42z" />
    <glyph glyph-name="Abreve" unicode="&#x102;" horiz-adv-x="668" 
d="M509 195h-371l-101 -195h-66l395 740h111l133 -740h-69zM500 249l-80 484h-2l-252 -484h334zM426 792q-57 0 -84 30.5t-18 85.5h47q-4 -23 0.5 -37t13.5 -22t21.5 -10.5t25.5 -2.5t26 2.5t25 10.5t20.5 22t12.5 37h50q-9 -55 -44.5 -85.5t-95.5 -30.5z" />
    <glyph glyph-name="abreve" unicode="&#x103;" 
d="M558 492l-86 -492h-60l28 158h-2q-14 -79 -70.5 -123.5t-144.5 -44.5q-85 0 -130 52t-45 146q0 70 19 128t53.5 99t84 64t109.5 23q76 0 117 -34t41 -97q0 -18 -3 -37h2l27 158h60zM252 41q82 0 137 54.5t72 150.5q3 17 4.5 30t1.5 27q0 70 -37 109.5t-106 39.5
q-49 0 -88.5 -18.5t-67 -51.5t-42.5 -79.5t-15 -102.5q0 -75 36 -117t105 -42zM343 550q-57 0 -84 30.5t-18 85.5h47q-4 -23 0.5 -37t13.5 -22t21.5 -10.5t25.5 -2.5t26 2.5t25 10.5t20.5 22t12.5 37h50q-9 -55 -44.5 -85.5t-95.5 -30.5z" />
    <glyph glyph-name="Aogonek" unicode="&#x104;" horiz-adv-x="668" 
d="M482 -171q0 -27 29 -27q20 0 39 6t38 17l-8 -42q-20 -11 -42.5 -17t-46.5 -6q-32 0 -49 15t-17 42t18.5 58.5t45.5 59t57.5 45.5t54.5 18v2h-60l-32 195h-371l-101 -195h-66l395 740h111l133 -740q-60 -47 -94 -92.5t-34 -78.5zM500 249l-80 484h-2l-252 -484h334z" />
    <glyph glyph-name="aogonek" unicode="&#x105;" 
d="M472 0q-60 -47 -94 -92.5t-34 -78.5q0 -27 29 -27q20 0 39 6t38 17l-8 -42q-20 -11 -42.5 -17t-46.5 -6q-32 0 -49 15t-17 42t18.5 58.5t45.5 59t57.5 45.5t54.5 18v2h-51l28 158h-2q-14 -79 -70.5 -123.5t-144.5 -44.5q-85 0 -130 52t-45 146q0 70 19 128t53.5 99t84 64
t109.5 23q76 0 117 -34t41 -97q0 -18 -3 -37h2l27 158h60zM252 41q82 0 137 54.5t72 150.5q3 17 4.5 30t1.5 27q0 70 -37 109.5t-106 39.5q-49 0 -88.5 -18.5t-67 -51.5t-42.5 -79.5t-15 -102.5q0 -75 36 -117t105 -42z" />
    <glyph glyph-name="Cacute" unicode="&#x106;" horiz-adv-x="704" 
d="M620 928l-181 -84l-13 36l179 88zM663 265q-22 -64 -56 -115t-77.5 -86.5t-95.5 -54.5t-110 -19q-122 0 -186.5 77t-64.5 214q0 105 27 191t77.5 148t121.5 96t159 34q117 0 180.5 -66.5t63.5 -185.5v-15h-61v3q-1 99 -51 153.5t-141 54.5q-71 0 -128 -29.5t-98 -83
t-63 -128t-22 -163.5q0 -115 50 -179.5t146 -64.5q89 0 159.5 58t108.5 161h61z" />
    <glyph glyph-name="cacute" unicode="&#x107;" horiz-adv-x="546" 
d="M492 680l-181 -84l-13 36l179 88zM240 -10q-94 0 -143 53.5t-49 148.5q0 70 20 127t57 97.5t89 63t116 22.5q85 0 134 -43t55 -121h-61q-8 54 -42.5 84t-94.5 30q-48 0 -87 -18.5t-66.5 -52t-42.5 -80t-15 -102.5q0 -75 35.5 -116.5t103.5 -41.5q63 0 110.5 33t73.5 94
h61q-33 -85 -98.5 -131.5t-155.5 -46.5z" />
    <glyph glyph-name="Cdotaccent" unicode="&#x10a;" horiz-adv-x="704" 
d="M463 952h60l-16 -96h-60zM663 265q-22 -64 -56 -115t-77.5 -86.5t-95.5 -54.5t-110 -19q-122 0 -186.5 77t-64.5 214q0 105 27 191t77.5 148t121.5 96t159 34q117 0 180.5 -66.5t63.5 -185.5v-15h-61v3q-1 99 -51 153.5t-141 54.5q-71 0 -128 -29.5t-98 -83t-63 -128
t-22 -163.5q0 -115 50 -179.5t146 -64.5q89 0 159.5 58t108.5 161h61z" />
    <glyph glyph-name="cdotaccent" unicode="&#x10b;" horiz-adv-x="546" 
d="M335 704h60l-16 -96h-60zM240 -10q-94 0 -143 53.5t-49 148.5q0 70 20 127t57 97.5t89 63t116 22.5q85 0 134 -43t55 -121h-61q-8 54 -42.5 84t-94.5 30q-48 0 -87 -18.5t-66.5 -52t-42.5 -80t-15 -102.5q0 -75 35.5 -116.5t103.5 -41.5q63 0 110.5 33t73.5 94h61
q-33 -85 -98.5 -131.5t-155.5 -46.5z" />
    <glyph glyph-name="Ccaron" unicode="&#x10c;" horiz-adv-x="704" 
d="M348 972h56l67 -147h2l119 147h56l-127 -154h-100zM641 483v3q-1 99 -51 153.5t-141 54.5q-71 0 -128 -29.5t-98 -83t-63 -128t-22 -163.5q0 -115 50 -179.5t146 -64.5q89 0 159.5 58t108.5 161h61q-22 -64 -56 -115t-77.5 -86.5t-95.5 -54.5t-110 -19q-122 0 -186.5 77
t-64.5 214q0 105 27 191t77.5 148t121.5 96t159 34q117 0 180.5 -66.5t63.5 -185.5v-15h-61z" />
    <glyph glyph-name="ccaron" unicode="&#x10d;" horiz-adv-x="546" 
d="M220 724h56l67 -147h2l119 147h56l-127 -154h-100zM321 452q-48 0 -87 -18.5t-66.5 -52t-42.5 -80t-15 -102.5q0 -75 35.5 -116.5t103.5 -41.5q63 0 110.5 33t73.5 94h61q-33 -85 -98.5 -131.5t-155.5 -46.5q-94 0 -143 53.5t-49 148.5q0 70 20 127t57 97.5t89 63
t116 22.5q85 0 134 -43t55 -121h-61q-8 54 -42.5 84t-94.5 30z" />
    <glyph glyph-name="Dcaron" unicode="&#x10e;" horiz-adv-x="705" 
d="M282 972h56l67 -147h2l119 147h56l-127 -154h-100zM390 740q139 0 213 -77t74 -215q0 -101 -29.5 -183.5t-84 -141.5t-131.5 -91t-172 -32h-203l130 740h203zM275 54q77 0 139 28t106 78.5t68 122t24 158.5q0 115 -58 180t-168 65h-146l-111 -632h146z" />
    <glyph glyph-name="dcaron" unicode="&#x10f;" horiz-adv-x="619" 
d="M759 767l-91 -206l-42 13l86 206zM548 770h60l-136 -770h-60l28 158h-2q-14 -79 -70.5 -123.5t-144.5 -44.5q-85 0 -130 52t-45 146q0 70 19 128t53.5 99t84 64t109.5 23q76 0 117 -34t41 -97q0 -18 -3 -37h2zM252 41q82 0 137 54.5t72 150.5q3 17 4.5 30t1.5 27
q0 70 -37 109.5t-106 39.5q-49 0 -88.5 -18.5t-67 -51.5t-42.5 -79.5t-15 -102.5q0 -75 36 -117t105 -42z" />
    <glyph glyph-name="Dcroat" unicode="&#x110;" horiz-adv-x="713" 
d="M399 740q139 0 213 -77t74 -215q0 -101 -29.5 -183.5t-84 -141.5t-131.5 -91t-172 -32h-203l62 352h-100l9 47h99l60 341h203zM284 54q77 0 139 28t106 78.5t68 122t24 158.5q0 115 -58 180t-168 65h-146l-50 -287h146l-9 -47h-146l-52 -298h146z" />
    <glyph glyph-name="dcroat" unicode="&#x111;" 
d="M252 41q82 0 137 54.5t72 150.5q3 17 4.5 30t1.5 27q0 70 -37 109.5t-106 39.5q-49 0 -88.5 -18.5t-67 -51.5t-42.5 -79.5t-15 -102.5q0 -75 36 -117t105 -42zM652 608h-73l-107 -608h-60l28 158h-2q-14 -79 -70.5 -123.5t-144.5 -44.5q-85 0 -130 52t-45 146
q0 70 19 128t53.5 99t84 64t109.5 23q76 0 117 -34t41 -97q0 -18 -3 -37h2l48 274h-175l9 47h175l20 115h60l-20 -115h73z" />
    <glyph glyph-name="Emacron" unicode="&#x112;" horiz-adv-x="612" 
d="M571 881h-264l9 46h263zM241 686l-49 -276h360l-9 -54h-360l-54 -302h407l-10 -54h-469l130 740h458l-9 -54h-395z" />
    <glyph glyph-name="emacron" unicode="&#x113;" horiz-adv-x="549" 
d="M477 633h-264l9 46h263zM322 502q88 0 136 -48t48 -136q0 -17 -2 -35t-6 -38l-2 -11h-385q-1 -9 -1.5 -18.5t-0.5 -19.5q0 -73 34 -114.5t97 -41.5q66 0 115 34.5t70 97.5h60q-26 -86 -93 -134t-161 -48q-88 0 -135.5 52t-47.5 146q0 70 19.5 128t55 99.5t86 64
t113.5 22.5zM313 453q-76 0 -127.5 -48.5t-68.5 -130.5h325q1 8 1.5 16t0.5 16q0 71 -34 109t-97 38z" />
    <glyph glyph-name="Edotaccent" unicode="&#x116;" horiz-adv-x="612" 
d="M465 856h-60l16 96h60zM241 686l-49 -276h360l-9 -54h-360l-54 -302h407l-10 -54h-469l130 740h458l-9 -54h-395z" />
    <glyph glyph-name="edotaccent" unicode="&#x117;" horiz-adv-x="549" 
d="M371 608h-60l16 96h60zM322 502q88 0 136 -48t48 -136q0 -17 -2 -35t-6 -38l-2 -11h-385q-1 -9 -1.5 -18.5t-0.5 -19.5q0 -73 34 -114.5t97 -41.5q66 0 115 34.5t70 97.5h60q-26 -86 -93 -134t-161 -48q-88 0 -135.5 52t-47.5 146q0 70 19.5 128t55 99.5t86 64
t113.5 22.5zM313 453q-76 0 -127.5 -48.5t-68.5 -130.5h325q1 8 1.5 16t0.5 16q0 71 -34 109t-97 38z" />
    <glyph glyph-name="Eogonek" unicode="&#x118;" horiz-adv-x="612" 
d="M241 686l-49 -276h360l-9 -54h-360l-54 -302h407l-10 -54h-102q-60 -47 -94 -92.5t-34 -78.5q0 -27 29 -27q20 0 39 6t38 17l-8 -42q-20 -11 -42.5 -17t-46.5 -6q-32 0 -49 15t-17 42t18.5 58.5t45.5 59t57.5 45.5t54.5 18v2h-358l130 740h458l-9 -54h-395z" />
    <glyph glyph-name="eogonek" unicode="&#x119;" horiz-adv-x="549" 
d="M322 502q88 0 136 -48t48 -136q0 -17 -2 -35t-6 -38l-2 -11h-385q-1 -9 -1.5 -18.5t-0.5 -19.5q0 -73 34 -114.5t97 -41.5q66 0 115 34.5t70 97.5h60q-28 -91 -102 -140q-37 -28 -67 -56t-51 -54t-32.5 -50t-11.5 -43q0 -27 30 -27q20 0 39 6t37 17l-7 -42
q-20 -11 -42.5 -17t-46.5 -6q-32 0 -49.5 15t-17.5 42q0 24 17 51.5t44 54t60.5 50t67.5 40.5v3q-55 -26 -122 -26q-88 0 -135.5 52t-47.5 146q0 70 19.5 128t55 99.5t86 64t113.5 22.5zM313 453q-76 0 -127.5 -48.5t-68.5 -130.5h325q1 8 1.5 16t0.5 16q0 71 -34 109
t-97 38z" />
    <glyph glyph-name="Ecaron" unicode="&#x11a;" horiz-adv-x="612" 
d="M305 972h56l67 -147h2l119 147h56l-127 -154h-100zM241 686l-49 -276h360l-9 -54h-360l-54 -302h407l-10 -54h-469l130 740h458l-9 -54h-395z" />
    <glyph glyph-name="ecaron" unicode="&#x11b;" horiz-adv-x="549" 
d="M211 724h56l67 -147h2l119 147h56l-127 -154h-100zM322 502q88 0 136 -48t48 -136q0 -17 -2 -35t-6 -38l-2 -11h-385q-1 -9 -1.5 -18.5t-0.5 -19.5q0 -73 34 -114.5t97 -41.5q66 0 115 34.5t70 97.5h60q-26 -86 -93 -134t-161 -48q-88 0 -135.5 52t-47.5 146
q0 70 19.5 128t55 99.5t86 64t113.5 22.5zM313 453q-76 0 -127.5 -48.5t-68.5 -130.5h325q1 8 1.5 16t0.5 16q0 71 -34 109t-97 38z" />
    <glyph glyph-name="Gbreve" unicode="&#x11e;" horiz-adv-x="725" 
d="M471 815q-65 0 -94 41.5t-16 115.5h49q-10 -54 8.5 -84t60.5 -30t70.5 30t38.5 84h49q-14 -74 -57 -115.5t-109 -41.5zM638 489v5q-1 95 -50 147.5t-137 52.5q-72 0 -130 -29.5t-99 -83.5t-63 -129t-22 -165q0 -114 49 -177.5t141 -63.5q112 0 187.5 74.5t100.5 208.5
h-250l9 51h311l-66 -380h-60l48 270h-2q-24 -133 -105.5 -206.5t-204.5 -73.5q-106 0 -164.5 76t-58.5 211q0 106 27.5 193t78.5 149.5t122.5 96.5t159.5 34q114 0 176.5 -66t62.5 -184v-11h-61z" />
    <glyph glyph-name="gbreve" unicode="&#x11f;" 
d="M356 567q-65 0 -94 41.5t-16 115.5h49q-10 -54 8.5 -84t60.5 -30t70.5 30t38.5 84h49q-14 -74 -57 -115.5t-109 -41.5zM558 492l-89 -505q-19 -107 -89 -167t-179 -60q-98 0 -148.5 49t-39.5 137l58 3q-8 -65 28.5 -101.5t109.5 -36.5q81 0 133 44.5t66 125.5l32 178h-2
q-14 -79 -70.5 -123.5t-143.5 -44.5q-86 0 -131 52t-45 146q0 70 19 127.5t53.5 98.5t84 64t109.5 23q76 0 117 -34t41 -97q0 -18 -3 -37h2l27 158h60zM253 42q82 0 137 54t72 151q2 17 3.5 29.5t1.5 26.5q0 70 -36.5 109.5t-106.5 39.5q-48 0 -87.5 -18.5t-67.5 -51.5
t-43 -79.5t-15 -102.5q0 -75 36 -116.5t106 -41.5z" />
    <glyph glyph-name="Gdotaccent" unicode="&#x120;" horiz-adv-x="725" 
d="M509 856h-60l16 96h60zM638 489v5q-1 95 -50 147.5t-137 52.5q-72 0 -130 -29.5t-99 -83.5t-63 -129t-22 -165q0 -114 49 -177.5t141 -63.5q112 0 187.5 74.5t100.5 208.5h-250l9 51h311l-66 -380h-60l48 270h-2q-24 -133 -105.5 -206.5t-204.5 -73.5q-106 0 -164.5 76
t-58.5 211q0 106 27.5 193t78.5 149.5t122.5 96.5t159.5 34q114 0 176.5 -66t62.5 -184v-11h-61z" />
    <glyph glyph-name="gdotaccent" unicode="&#x121;" 
d="M393 608h-60l16 96h60zM558 492l-89 -505q-19 -107 -89 -167t-179 -60q-98 0 -148.5 49t-39.5 137l58 3q-8 -65 28.5 -101.5t109.5 -36.5q81 0 133 44.5t66 125.5l32 178h-2q-14 -79 -70.5 -123.5t-143.5 -44.5q-86 0 -131 52t-45 146q0 70 19 127.5t53.5 98.5t84 64
t109.5 23q76 0 117 -34t41 -97q0 -18 -3 -37h2l27 158h60zM253 42q82 0 137 54t72 151q2 17 3.5 29.5t1.5 26.5q0 70 -36.5 109.5t-106.5 39.5q-48 0 -87.5 -18.5t-67.5 -51.5t-43 -79.5t-15 -102.5q0 -75 36 -116.5t106 -41.5z" />
    <glyph glyph-name="Gcommaaccent" unicode="&#x122;" horiz-adv-x="725" 
d="M638 489v5q-1 95 -50 147.5t-137 52.5q-72 0 -130 -29.5t-99 -83.5t-63 -129t-22 -165q0 -114 49 -177.5t141 -63.5q112 0 187.5 74.5t100.5 208.5h-250l9 51h311l-66 -380h-60l48 270h-2q-24 -133 -105.5 -206.5t-204.5 -73.5q-106 0 -164.5 76t-58.5 211
q0 106 27.5 193t78.5 149.5t122.5 96.5t159.5 34q114 0 176.5 -66t62.5 -184v-11h-61zM281 -79h67l-9 -50q-8 -41 -27 -66t-59 -45l4 29q34 12 51.5 30t24.5 45h-62z" />
    <glyph glyph-name="gcommaaccent" unicode="&#x123;" 
d="M396 606h-67l9 51q6 33 25 53t57 35l-5 -29q-32 -8 -49 -20t-22 -31h62zM558 492l-89 -505q-19 -107 -89 -167t-179 -60q-98 0 -148.5 49t-39.5 137l58 3q-8 -65 28.5 -101.5t109.5 -36.5q81 0 133 44.5t66 125.5l32 178h-2q-14 -79 -70.5 -123.5t-143.5 -44.5
q-86 0 -131 52t-45 146q0 70 19 127.5t53.5 98.5t84 64t109.5 23q76 0 117 -34t41 -97q0 -18 -3 -37h2l27 158h60zM253 42q82 0 137 54t72 151q2 17 3.5 29.5t1.5 26.5q0 70 -36.5 109.5t-106.5 39.5q-48 0 -87.5 -18.5t-67.5 -51.5t-43 -79.5t-15 -102.5q0 -75 36 -116.5
t106 -41.5z" />
    <glyph glyph-name="Hbar" unicode="&#x126;" horiz-adv-x="726" 
d="M746 564h-64l-99 -564h-63l61 349h-400l-61 -349h-62l99 564h-64l7 37h64l24 139h62l-24 -139h400l24 139h63l-24 -139h64zM619 564h-400l-28 -161h400z" />
    <glyph glyph-name="hbar" unicode="&#x127;" horiz-adv-x="573" 
d="M361 502q73 0 112 -37.5t39 -106.5q0 -11 -1.5 -23t-3.5 -26l-54 -309h-60l54 308q3 19 3 35q0 52 -30 80.5t-87 28.5q-73 0 -122.5 -47.5t-63.5 -134.5l-48 -270h-60l109 618h-74l7 37h74l20 115h60l-20 -115h174l-7 -37h-174l-52 -293h2q15 85 68.5 131t134.5 46z" />
    <glyph glyph-name="Itilde" unicode="&#x128;" horiz-adv-x="262" 
d="M267 805q-20 0 -31 8t-19.5 17t-17 17t-22.5 8q-24 0 -38 -53h-45q9 48 32 74t64 26q19 0 30.5 -7.5t19.5 -17t16.5 -17t23.5 -7.5q25 0 39 52h45q-9 -48 -33 -74t-64 -26zM187 740h62l-130 -740h-62z" />
    <glyph glyph-name="itilde" unicode="&#x129;" horiz-adv-x="224" 
d="M205 563q-20 0 -31 8t-19.5 17t-17 17t-22.5 8q-24 0 -38 -53h-45q9 48 32 74t64 26q19 0 30.5 -7.5t19.5 -17t16.5 -17t23.5 -7.5q25 0 39 52h45q-9 -48 -33 -74t-64 -26zM185 492l-86 -492h-60l86 492h60z" />
    <glyph glyph-name="Imacron" unicode="&#x12a;" horiz-adv-x="262" 
d="M383 927l-8 -46h-264l9 46h263zM187 740h62l-130 -740h-62z" />
    <glyph glyph-name="imacron" unicode="&#x12b;" horiz-adv-x="224" 
d="M321 679l-8 -46h-264l9 46h263zM185 492l-86 -492h-60l86 492h60z" />
    <glyph glyph-name="Iogonek" unicode="&#x12e;" horiz-adv-x="262" 
d="M119 0q-60 -47 -94 -92.5t-34 -78.5q0 -27 29 -27q20 0 39 6t38 17l-8 -42q-20 -11 -42.5 -17t-46.5 -6q-32 0 -49 15t-17 42t18.5 58.5t45.5 59t57.5 45.5t54.5 18v2h-53l130 740h62l-130 -740v0z" />
    <glyph glyph-name="iogonek" unicode="&#x12f;" horiz-adv-x="224" 
d="M222 704l-16 -96h-60l16 96h60zM125 492h60l-86 -492q-60 -47 -94 -92.5t-34 -78.5q0 -27 29 -27q20 0 39 6t38 17l-8 -42q-20 -11 -42.5 -17t-46.5 -6q-32 0 -49 15t-17 42t18.5 58.5t45.5 59t57.5 45.5t54.5 18v2h-51z" />
    <glyph glyph-name="Idotaccent" unicode="&#x130;" horiz-adv-x="262" 
d="M225 952h60l-16 -96h-60zM187 740h62l-130 -740h-62z" />
    <glyph glyph-name="dotlessi" unicode="&#x131;" horiz-adv-x="224" 
d="M185 492l-86 -492h-60l86 492h60z" />
    <glyph glyph-name="Kcommaaccent" unicode="&#x136;" horiz-adv-x="669" 
d="M269 385l362 -385h-92l-352 381h-2l-67 -381h-61l130 740h61l-62 -351h3l452 351h86zM260 -79h67l-9 -50q-8 -41 -27 -66t-59 -45l4 29q34 12 51.5 30t24.5 45h-62z" />
    <glyph glyph-name="kcommaaccent" unicode="&#x137;" horiz-adv-x="533" 
d="M221 257l265 -257h-85l-256 252h-1l-45 -252h-60l136 770h60l-90 -510h2l324 232h83zM172 -79h67l-9 -50q-8 -41 -27 -66t-59 -45l4 29q34 12 51.5 30t24.5 45h-62z" />
    <glyph glyph-name="Lacute" unicode="&#x139;" horiz-adv-x="525" 
d="M202 844l-13 36l179 88l15 -40zM476 54l-9 -54h-410l130 740h62l-120 -686h347z" />
    <glyph glyph-name="lacute" unicode="&#x13a;" horiz-adv-x="224" 
d="M369 958l-181 -84l-13 36l179 88zM175 770h60l-136 -770h-60z" />
    <glyph glyph-name="Lcommaaccent" unicode="&#x13b;" horiz-adv-x="525" 
d="M476 54l-9 -54h-410l130 740h62l-120 -686h347zM174 -79h67l-9 -50q-8 -41 -27 -66t-59 -45l4 29q34 12 51.5 30t24.5 45h-62z" />
    <glyph glyph-name="lcommaaccent" unicode="&#x13c;" horiz-adv-x="224" 
d="M235 770l-136 -770h-60l136 770h60zM22 -79h67l-9 -50q-8 -41 -27 -66t-59 -45l4 29q34 12 51.5 30t24.5 45h-62z" />
    <glyph glyph-name="Lcaron" unicode="&#x13d;" horiz-adv-x="527" 
d="M332 531l-41 13l85 206l48 -13zM476 54l-9 -54h-410l130 740h62l-120 -686h347z" />
    <glyph glyph-name="lcaron" unicode="&#x13e;" horiz-adv-x="264" 
d="M386 767l-92 -206l-41 13l86 206zM175 770h60l-136 -770h-60z" />
    <glyph glyph-name="Lslash" unicode="&#x141;" horiz-adv-x="531" 
d="M482 54l-9 -54h-410l56 320l-77 -46l8 46l77 46l66 374h62l-59 -335l177 106l-8 -46l-177 -106l-53 -305h347z" />
    <glyph glyph-name="lslash" unicode="&#x142;" horiz-adv-x="276" 
d="M271 453l-76 -59l-70 -394h-60l61 343l-77 -59l8 49l77 60l67 377h60l-58 -327l77 59z" />
    <glyph glyph-name="Nacute" unicode="&#x143;" horiz-adv-x="724" 
d="M433 844l-13 36l179 88l15 -40zM712 740l-130 -740h-117l-217 733h-2l-128 -733h-61l130 740h118l217 -733h2l128 733h60z" />
    <glyph glyph-name="nacute" unicode="&#x144;" horiz-adv-x="573" 
d="M315 596l-13 36l179 88l15 -40zM361 502q73 0 112 -37.5t39 -106.5q0 -11 -1.5 -23t-3.5 -26l-54 -309h-60l54 308q3 19 3 35q0 52 -30 80.5t-87 28.5q-73 0 -122.5 -47.5t-64.5 -134.5l-47 -270h-60l86 492h60l-29 -167h2q15 85 68.5 131t134.5 46z" />
    <glyph glyph-name="Ncommaaccent" unicode="&#x145;" horiz-adv-x="724" 
d="M712 740l-130 -740h-117l-217 733h-2l-128 -733h-61l130 740h118l217 -733h2l128 733h60zM273 -79h67l-9 -50q-8 -41 -27 -66t-59 -45l4 29q34 12 51.5 30t24.5 45h-62z" />
    <glyph glyph-name="ncommaaccent" unicode="&#x146;" horiz-adv-x="573" 
d="M361 502q73 0 112 -37.5t39 -106.5q0 -11 -1.5 -23t-3.5 -26l-54 -309h-60l54 308q3 19 3 35q0 52 -30 80.5t-87 28.5q-73 0 -122.5 -47.5t-64.5 -134.5l-47 -270h-60l86 492h60l-29 -167h2q15 85 68.5 131t134.5 46zM199 -79h67l-9 -50q-8 -41 -27 -66t-59 -45l4 29
q34 12 51.5 30t24.5 45h-62z" />
    <glyph glyph-name="Ncaron" unicode="&#x147;" horiz-adv-x="724" 
d="M341 972h56l67 -147h2l119 147h56l-127 -154h-100zM712 740l-130 -740h-117l-217 733h-2l-128 -733h-61l130 740h118l217 -733h2l128 733h60z" />
    <glyph glyph-name="ncaron" unicode="&#x148;" horiz-adv-x="573" 
d="M224 724h56l67 -147h2l119 147h56l-127 -154h-100zM361 502q73 0 112 -37.5t39 -106.5q0 -11 -1.5 -23t-3.5 -26l-54 -309h-60l54 308q3 19 3 35q0 52 -30 80.5t-87 28.5q-73 0 -122.5 -47.5t-64.5 -134.5l-47 -270h-60l86 492h60l-29 -167h2q15 85 68.5 131t134.5 46z
" />
    <glyph glyph-name="Eng" unicode="&#x14a;" horiz-adv-x="724" 
d="M712 740l-130 -740l-4 -21q-19 -103 -81.5 -161t-158.5 -58q-51 0 -88 19l24 52q28 -15 70 -15q67 0 112 41t58 116l5 27h-54l-217 733h-2l-128 -733h-61l130 740h118l217 -733h2l128 733h60z" />
    <glyph glyph-name="eng" unicode="&#x14b;" horiz-adv-x="573" 
d="M361 502q73 0 112 -37.5t39 -106.5q0 -11 -1.5 -23t-3.5 -26l-65 -372q-15 -85 -67.5 -131t-131.5 -46q-59 0 -96 21l24 46q18 -8 37 -12t43 -4q54 0 86.5 32.5t43.5 90.5l66 374q3 19 3 35q0 52 -30 80.5t-87 28.5q-73 0 -122.5 -47.5t-64.5 -134.5l-47 -270h-60l86 492
h60l-29 -167h2q15 85 68.5 131t134.5 46z" />
    <glyph glyph-name="Omacron" unicode="&#x14c;" horiz-adv-x="745" 
d="M625 927l-8 -46h-264l9 46h263zM327 -10q-124 0 -189 77.5t-65 214.5q0 104 27.5 190.5t78 148t122 95.5t160.5 34q124 0 189.5 -77t65.5 -215q0 -104 -27.5 -190.5t-78.5 -148t-123 -95.5t-160 -34zM337 46q71 0 129 29.5t99 83t63 128t22 163.5q0 115 -50.5 179.5
t-147.5 64.5q-72 0 -130 -29.5t-99 -83t-63 -128t-22 -163.5q0 -115 51 -179.5t148 -64.5z" />
    <glyph glyph-name="omacron" unicode="&#x14d;" horiz-adv-x="575" 
d="M496 679l-8 -46h-264l9 46h263zM243 -10q-94 0 -144.5 53.5t-50.5 148.5q0 70 20 127t57.5 97.5t90 63t117.5 22.5q95 0 145 -53t50 -148q0 -70 -20 -127.5t-57 -98t-90 -63t-118 -22.5zM252 41q49 0 89 18.5t68 51.5t43 79.5t15 102.5q0 75 -37 117t-106 42
q-49 0 -88.5 -18.5t-67.5 -51.5t-43 -79.5t-15 -102.5q0 -75 36.5 -117t105.5 -42z" />
    <glyph glyph-name="Ohungarumlaut" unicode="&#x150;" horiz-adv-x="745" 
d="M568 952l-160 -125l-24 30l155 129zM688 952l-160 -125l-24 30l155 129zM327 -10q-124 0 -189 77.5t-65 214.5q0 104 27.5 190.5t78 148t122 95.5t160.5 34q124 0 189.5 -77t65.5 -215q0 -104 -27.5 -190.5t-78.5 -148t-123 -95.5t-160 -34zM337 46q71 0 129 29.5t99 83
t63 128t22 163.5q0 115 -50.5 179.5t-147.5 64.5q-72 0 -130 -29.5t-99 -83t-63 -128t-22 -163.5q0 -115 51 -179.5t148 -64.5z" />
    <glyph glyph-name="ohungarumlaut" unicode="&#x151;" horiz-adv-x="575" 
d="M440 704l-160 -125l-24 30l155 129zM560 704l-160 -125l-24 30l155 129zM243 -10q-94 0 -144.5 53.5t-50.5 148.5q0 70 20 127t57.5 97.5t90 63t117.5 22.5q95 0 145 -53t50 -148q0 -70 -20 -127.5t-57 -98t-90 -63t-118 -22.5zM252 41q49 0 89 18.5t68 51.5t43 79.5
t15 102.5q0 75 -37 117t-106 42q-49 0 -88.5 -18.5t-67.5 -51.5t-43 -79.5t-15 -102.5q0 -75 36.5 -117t105.5 -42z" />
    <glyph glyph-name="OE" unicode="&#x152;" horiz-adv-x="1132" 
d="M765 686l-49 -276h356l-9 -54h-356l-54 -302h402l-9 -54h-465l44 252h-2q-11 -61 -37.5 -109.5t-67 -82.5t-93.5 -52t-116 -18q-115 0 -175.5 76.5t-60.5 210.5q0 105 26.5 192t74.5 149.5t116.5 97t152.5 34.5q109 0 168 -52.5t59 -148.5q0 -30 -6 -61h2l45 252h454
l-9 -54h-391zM337 46q61 0 113 22.5t92.5 64.5t68 102t41.5 135q4 25 6 48.5t2 44.5q0 109 -52.5 170t-155.5 61q-72 0 -130 -29.5t-99 -83t-63 -128t-22 -163.5q0 -115 51 -179.5t148 -64.5z" />
    <glyph glyph-name="oe" unicode="&#x153;" horiz-adv-x="950" 
d="M723 502q88 0 136 -47.5t48 -135.5q0 -17 -2 -35.5t-6 -38.5l-2 -11h-385q-1 -9 -1.5 -18.5t-0.5 -19.5q0 -73 34 -114.5t98 -41.5q66 0 114.5 34.5t69.5 97.5h60q-26 -86 -93 -134t-161 -48q-89 0 -135.5 48t-47.5 136h-2q-16 -87 -74.5 -135.5t-149.5 -48.5
q-85 0 -130 52t-45 146q0 70 19 128t53.5 99t84 64t109.5 23q78 0 120 -37t42 -104q0 -10 -1 -21t-3 -22h2q32 88 96 136t153 48zM714 453q-76 0 -127.5 -48.5t-68.5 -130.5h325q1 8 1.5 16t0.5 16q0 71 -34 109t-97 38zM252 41q82 0 137 54.5t72 150.5q3 17 4.5 30t1.5 27
q0 70 -37 109.5t-106 39.5q-49 0 -88.5 -18.5t-67 -51.5t-42.5 -79.5t-15 -102.5q0 -75 36 -117t105 -42z" />
    <glyph glyph-name="Racute" unicode="&#x154;" horiz-adv-x="656" 
d="M379 844l-13 36l179 88l15 -40zM654 572q0 -56 -19.5 -101.5t-56 -78t-88.5 -50t-116 -17.5v-2q28 0 55 -23.5t46 -67.5l101 -232h-72l-138 323h-190l-57 -323h-62l130 740h254q103 0 158 -44.5t55 -123.5zM384 375q47 0 85 13.5t64.5 38t40.5 59t14 76.5q0 58 -39 91
t-112 33h-196l-55 -311h198z" />
    <glyph glyph-name="racute" unicode="&#x155;" horiz-adv-x="400" 
d="M220 596l-13 36l179 88l15 -40zM356 502q45 0 75 -14l-29 -60q-28 17 -72 17q-72 0 -121.5 -51t-65.5 -144l-44 -250h-60l86 492h60l-32 -180h2q16 91 69 140.5t132 49.5z" />
    <glyph glyph-name="Rcommaaccent" unicode="&#x156;" horiz-adv-x="656" 
d="M654 572q0 -56 -19.5 -101.5t-56 -78t-88.5 -50t-116 -17.5v-2q28 0 55 -23.5t46 -67.5l101 -232h-72l-138 323h-190l-57 -323h-62l130 740h254q103 0 158 -44.5t55 -123.5zM384 375q47 0 85 13.5t64.5 38t40.5 59t14 76.5q0 58 -39 91t-112 33h-196l-55 -311h198z
M249 -79h67l-9 -50q-8 -41 -27 -66t-59 -45l4 29q34 12 51.5 30t24.5 45h-62z" />
    <glyph glyph-name="rcommaaccent" unicode="&#x157;" horiz-adv-x="400" 
d="M356 502q45 0 75 -14l-29 -60q-28 17 -72 17q-72 0 -121.5 -51t-65.5 -144l-44 -250h-60l86 492h60l-32 -180h2q16 91 69 140.5t132 49.5zM24 -79h67l-9 -50q-8 -41 -27 -66t-59 -45l4 29q34 12 51.5 30t24.5 45h-62z" />
    <glyph glyph-name="Rcaron" unicode="&#x158;" horiz-adv-x="656" 
d="M288 972h56l67 -147h2l119 147h56l-127 -154h-100zM654 572q0 -56 -19.5 -101.5t-56 -78t-88.5 -50t-116 -17.5v-2q28 0 55 -23.5t46 -67.5l101 -232h-72l-138 323h-190l-57 -323h-62l130 740h254q103 0 158 -44.5t55 -123.5zM384 375q47 0 85 13.5t64.5 38t40.5 59
t14 76.5q0 58 -39 91t-112 33h-196l-55 -311h198z" />
    <glyph glyph-name="rcaron" unicode="&#x159;" horiz-adv-x="400" 
d="M129 724h56l67 -147h2l119 147h56l-127 -154h-100zM356 502q45 0 75 -14l-29 -60q-28 17 -72 17q-72 0 -121.5 -51t-65.5 -144l-44 -250h-60l86 492h60l-32 -180h2q16 91 69 140.5t132 49.5z" />
    <glyph glyph-name="Sacute" unicode="&#x15a;" horiz-adv-x="651" 
d="M574 928l-181 -84l-13 36l179 88zM278 -10q-113 0 -173.5 56t-60.5 158q0 23 3 47h63q-3 -20 -3 -36q0 -81 47 -125t134 -44q114 0 179.5 47.5t65.5 132.5q0 37 -17 59.5t-44.5 37t-63.5 22t-73 14.5q-40 7 -79.5 16t-70.5 25.5t-50 44t-19 72.5q0 54 20.5 97t59 73.5
t93.5 46.5t123 16q106 0 162 -53.5t56 -151.5q0 -21 -3 -45h-62q1 9 1 18v17q0 76 -42.5 117.5t-122.5 41.5q-102 0 -160.5 -44t-58.5 -120q0 -32 15.5 -52t41 -32.5t58.5 -20t69 -13.5q42 -7 83.5 -16t74.5 -27t53.5 -49t20.5 -81q0 -58 -22.5 -104t-64 -78.5t-101 -49.5
t-132.5 -17z" />
    <glyph glyph-name="sacute" unicode="&#x15b;" horiz-adv-x="495" 
d="M454 680l-181 -84l-13 36l179 88zM201 -10q-85 0 -130 35t-45 99q0 15 3 35h59q-3 -15 -3 -26q0 -46 32 -71t92 -25q75 0 118 28t43 79q0 24 -11.5 39t-30 24.5t-43 15t-50.5 10.5q-29 6 -57 13t-50 19t-35.5 31t-13.5 50q0 72 57 114t155 42q78 0 120 -33t42 -94
q0 -9 -1 -17.5t-3 -18.5h-59q2 7 2 13.5v12.5q0 44 -28 67.5t-81 23.5q-66 0 -105 -26.5t-39 -71.5q0 -19 10.5 -31.5t27.5 -21t39.5 -14t46.5 -10.5q30 -6 60 -13.5t54 -20.5t39 -35t15 -56q0 -78 -62 -122t-168 -44z" />
    <glyph glyph-name="Scedilla" unicode="&#x15e;" horiz-adv-x="651" 
d="M278 -10q-113 0 -173.5 56t-60.5 158q0 23 3 47h63q-3 -20 -3 -36q0 -81 47 -125t134 -44q114 0 179.5 47.5t65.5 132.5q0 37 -17 59.5t-44.5 37t-63.5 22t-73 14.5q-40 7 -79.5 16t-70.5 25.5t-50 44t-19 72.5q0 54 20.5 97t59 73.5t93.5 46.5t123 16q106 0 162 -53.5
t56 -151.5q0 -21 -3 -45h-62q1 9 1 18v17q0 76 -42.5 117.5t-122.5 41.5q-102 0 -160.5 -44t-58.5 -120q0 -32 15.5 -52t41 -32.5t58.5 -20t69 -13.5q42 -7 83.5 -16t74.5 -27t53.5 -49t20.5 -81q0 -58 -22.5 -104t-64 -78.5t-101 -49.5t-132.5 -17zM213 -240q-23 0 -45 6
t-36 17l7 38q15 -11 35 -17t42 -6q42 0 65 17t23 46q0 33 -44 35q-20 1 -37 -6t-28 -20l-28 20q19 20 47 32t56 12q42 0 64 -17.5t22 -49.5q0 -49 -38 -78t-105 -29z" />
    <glyph glyph-name="scedilla" unicode="&#x15f;" horiz-adv-x="495" 
d="M201 -10q-85 0 -130 35t-45 99q0 15 3 35h59q-3 -15 -3 -26q0 -46 32 -71t92 -25q75 0 118 28t43 79q0 24 -11.5 39t-30 24.5t-43 15t-50.5 10.5q-29 6 -57 13t-50 19t-35.5 31t-13.5 50q0 72 57 114t155 42q78 0 120 -33t42 -94q0 -9 -1 -17.5t-3 -18.5h-59q2 7 2 13.5
v12.5q0 44 -28 67.5t-81 23.5q-66 0 -105 -26.5t-39 -71.5q0 -19 10.5 -31.5t27.5 -21t39.5 -14t46.5 -10.5q30 -6 60 -13.5t54 -20.5t39 -35t15 -56q0 -78 -62 -122t-168 -44zM136 -240q-23 0 -45 6t-36 17l7 38q15 -11 35 -17t42 -6q42 0 65 17t23 46q0 33 -44 35
q-20 1 -37 -6t-28 -20l-28 20q19 20 47 32t56 12q42 0 64 -17.5t22 -49.5q0 -49 -38 -78t-105 -29z" />
    <glyph glyph-name="Scaron" unicode="&#x160;" horiz-adv-x="651" 
d="M301 972h56l67 -147h2l119 147h56l-127 -154h-100zM565 500q1 9 1 18v17q0 76 -42.5 117.5t-122.5 41.5q-102 0 -160.5 -44t-58.5 -120q0 -32 15.5 -52t41 -32.5t58.5 -20t69 -13.5q42 -7 83.5 -16t74.5 -27t53.5 -49t20.5 -81q0 -58 -22.5 -104t-64 -78.5t-101 -49.5
t-132.5 -17q-113 0 -173.5 56t-60.5 158q0 23 3 47h63q-3 -20 -3 -36q0 -81 47 -125t134 -44q114 0 179.5 47.5t65.5 132.5q0 37 -17 59.5t-44.5 37t-63.5 22t-73 14.5q-40 7 -79.5 16t-70.5 25.5t-50 44t-19 72.5q0 54 20.5 97t59 73.5t93.5 46.5t123 16q106 0 162 -53.5
t56 -151.5q0 -21 -3 -45h-62z" />
    <glyph glyph-name="scaron" unicode="&#x161;" horiz-adv-x="495" 
d="M181 724h56l67 -147h2l119 147h56l-127 -154h-100zM291 502q78 0 120 -33t42 -94q0 -9 -1 -17.5t-3 -18.5h-59q2 7 2 13.5v12.5q0 44 -28 67.5t-81 23.5q-66 0 -105 -26.5t-39 -71.5q0 -19 10.5 -31.5t27.5 -21t39.5 -14t46.5 -10.5q30 -6 60 -13.5t54 -20.5t39 -35
t15 -56q0 -78 -62 -122t-168 -44q-85 0 -130 35t-45 99q0 15 3 35h59q-3 -15 -3 -26q0 -46 32 -71t92 -25q75 0 118 28t43 79q0 24 -11.5 39t-30 24.5t-43 15t-50.5 10.5q-29 6 -57 13t-50 19t-35.5 31t-13.5 50q0 72 57 114t155 42z" />
    <glyph glyph-name="uni0162" unicode="&#x162;" horiz-adv-x="564" 
d="M624 686h-233l-121 -686h-63l121 686h-233l9 54h529zM229 -66q42 0 64 -17.5t22 -49.5q0 -49 -38 -78t-105 -29q-23 0 -45 6t-36 17l7 38q15 -11 35 -17t42 -6q42 0 65 17t23 46q0 33 -44 35q-20 1 -37 -6t-28 -20l-28 20q19 20 47 32t56 12z" />
    <glyph glyph-name="uni0163" unicode="&#x163;" horiz-adv-x="358" 
d="M143 135q-1 -6 -1 -11.5v-11.5q0 -34 21 -52.5t60 -18.5q40 0 75 16l-9 -48q-20 -9 -44.5 -14t-49.5 -5q-56 0 -85.5 28t-29.5 79q0 9 1 18t3 19l54 310h-83l8 48h89l31 174h60l-7 -42q-7 -39 -28.5 -73t-50.5 -57l-1 -2h226l-8 -48h-177zM127 -66q42 0 64 -17.5
t22 -49.5q0 -49 -38 -78t-105 -29q-23 0 -45 6t-36 17l7 38q15 -11 35 -17t42 -6q42 0 65 17t23 46q0 33 -44 35q-20 1 -37 -6t-28 -20l-28 20q19 20 47 32t56 12z" />
    <glyph glyph-name="Tcaron" unicode="&#x164;" horiz-adv-x="564" 
d="M261 972h56l67 -147h2l119 147h56l-127 -154h-100zM624 686h-233l-121 -686h-63l121 686h-233l9 54h529z" />
    <glyph glyph-name="tcaron" unicode="&#x165;" horiz-adv-x="358" 
d="M325 561l-42 13l86 206l47 -13zM156 492h226l-8 -48h-177l-54 -309q-1 -6 -1 -11.5v-11.5q0 -34 21 -52.5t60 -18.5q40 0 75 16l-9 -48q-20 -9 -44.5 -14t-49.5 -5q-56 0 -85.5 28t-29.5 79q0 9 1 18t3 19l54 310h-83l8 48h89l31 174h60l-7 -42q-7 -39 -28.5 -73
t-50.5 -57z" />
    <glyph glyph-name="Tbar" unicode="&#x166;" horiz-adv-x="572" 
d="M395 686l-52 -298h122l-7 -37h-122l-62 -351h-63l62 351h-123l7 37h123l52 298h-233l9 54h529l-9 -54h-233z" />
    <glyph glyph-name="tbar" unicode="&#x167;" horiz-adv-x="375" 
d="M206 444l-31 -177h178l-8 -37h-176l-17 -95q-1 -6 -1 -11.5v-11.5q0 -34 21 -52.5t60 -18.5q40 0 75 16l-9 -48q-20 -9 -44.5 -14t-49.5 -5q-56 0 -85.5 28t-29.5 79q0 9 1 18t3 19l17 96h-83l8 37h81l31 177h-83l8 48h89l31 174h60l-7 -42q-7 -39 -28.5 -73t-50.5 -57
l-1 -2h226l-8 -48h-177z" />
    <glyph glyph-name="Utilde" unicode="&#x168;" horiz-adv-x="707" 
d="M490 805q-20 0 -31 8t-19.5 17t-17 17t-22.5 8q-24 0 -38 -53h-45q9 48 32 74t64 26q19 0 30.5 -7.5t19.5 -17t16.5 -17t23.5 -7.5q25 0 39 52h45q-9 -48 -33 -74t-64 -26zM643 740h59l-85 -488q-22 -124 -103 -193t-206 -69q-107 0 -164 52t-57 146q0 31 6 64l86 488h63
l-87 -493q-2 -14 -3.5 -25.5t-1.5 -22.5q0 -73 44 -113t125 -40q96 0 158 53t79 148z" />
    <glyph glyph-name="utilde" unicode="&#x169;" horiz-adv-x="562" 
d="M367 563q-20 0 -31 8t-19.5 17t-17 17t-22.5 8q-24 0 -38 -53h-45q9 48 32 74t64 26q19 0 30.5 -7.5t19.5 -17t16.5 -17t23.5 -7.5q25 0 39 52h45q-9 -48 -33 -74t-64 -26zM523 492l-86 -492h-60l29 167h-2q-15 -84 -67.5 -130.5t-130.5 -46.5q-71 0 -108.5 37t-37.5 105
q0 12 1.5 24.5t3.5 26.5l55 309h60l-54 -308q-2 -10 -3 -19.5t-1 -17.5q0 -51 29 -78.5t83 -27.5q71 0 118.5 47.5t63.5 133.5l47 270h60z" />
    <glyph glyph-name="Umacron" unicode="&#x16a;" horiz-adv-x="707" 
d="M606 927l-8 -46h-264l9 46h263zM643 740h59l-85 -488q-22 -124 -103 -193t-206 -69q-107 0 -164 52t-57 146q0 31 6 64l86 488h63l-87 -493q-2 -14 -3.5 -25.5t-1.5 -22.5q0 -73 44 -113t125 -40q96 0 158 53t79 148z" />
    <glyph glyph-name="umacron" unicode="&#x16b;" horiz-adv-x="562" 
d="M478 633h-264l9 46h263zM523 492l-86 -492h-60l29 167h-2q-15 -84 -67.5 -130.5t-130.5 -46.5q-71 0 -108.5 37t-37.5 105q0 12 1.5 24.5t3.5 26.5l55 309h60l-54 -308q-2 -10 -3 -19.5t-1 -17.5q0 -51 29 -78.5t83 -27.5q71 0 118.5 47.5t63.5 133.5l47 270h60z" />
    <glyph glyph-name="Uring" unicode="&#x16e;" horiz-adv-x="707" 
d="M452 800q-47 0 -71.5 23t-24.5 64q0 57 36 91.5t98 34.5q46 0 70.5 -22.5t24.5 -63.5q0 -58 -35.5 -92.5t-97.5 -34.5zM459 840q37 0 57.5 21.5t20.5 58.5q0 26 -14 40t-40 14q-36 0 -57.5 -22t-21.5 -59q0 -25 14 -39t41 -14zM643 740h59l-85 -488q-22 -124 -103 -193
t-206 -69q-107 0 -164 52t-57 146q0 31 6 64l86 488h63l-87 -493q-2 -14 -3.5 -25.5t-1.5 -22.5q0 -73 44 -113t125 -40q96 0 158 53t79 148z" />
    <glyph glyph-name="uring" unicode="&#x16f;" horiz-adv-x="562" 
d="M332 552q-47 0 -71.5 23t-24.5 64q0 57 36 91.5t98 34.5q46 0 70.5 -22.5t24.5 -63.5q0 -58 -35.5 -92.5t-97.5 -34.5zM363 726q-36 0 -57.5 -22t-21.5 -59q0 -25 14 -39t41 -14q37 0 57.5 21.5t20.5 58.5q0 26 -14 40t-40 14zM523 492l-86 -492h-60l29 167h-2
q-15 -84 -67.5 -130.5t-130.5 -46.5q-71 0 -108.5 37t-37.5 105q0 12 1.5 24.5t3.5 26.5l55 309h60l-54 -308q-2 -10 -3 -19.5t-1 -17.5q0 -51 29 -78.5t83 -27.5q71 0 118.5 47.5t63.5 133.5l47 270h60z" />
    <glyph glyph-name="Uhungarumlaut" unicode="&#x170;" horiz-adv-x="707" 
d="M550 952l-160 -125l-24 30l155 129zM670 952l-160 -125l-24 30l155 129zM643 740h59l-85 -488q-22 -124 -103 -193t-206 -69q-107 0 -164 52t-57 146q0 31 6 64l86 488h63l-87 -493q-2 -14 -3.5 -25.5t-1.5 -22.5q0 -73 44 -113t125 -40q96 0 158 53t79 148z" />
    <glyph glyph-name="uhungarumlaut" unicode="&#x171;" horiz-adv-x="562" 
d="M270 579l-24 30l155 129l29 -34zM366 609l155 129l29 -34l-160 -125zM463 492h60l-86 -492h-60l29 167h-2q-15 -84 -67.5 -130.5t-130.5 -46.5q-71 0 -108.5 37t-37.5 105q0 12 1.5 24.5t3.5 26.5l55 309h60l-54 -308q-2 -10 -3 -19.5t-1 -17.5q0 -51 29 -78.5t83 -27.5
q71 0 118.5 47.5t63.5 133.5z" />
    <glyph glyph-name="Uogonek" unicode="&#x172;" horiz-adv-x="707" 
d="M702 740l-85 -488q-18 -102 -77 -167.5t-150 -85.5q-57 -48 -89.5 -93t-32.5 -77q0 -27 30 -27q20 0 39 6t37 17l-7 -42q-20 -11 -42.5 -17t-46.5 -6q-32 0 -49.5 15t-17.5 42q0 22 14.5 47t38.5 49t54 45t60 36v2q-33 -6 -70 -6q-107 0 -164 52t-57 146q0 31 6 64
l86 488h63l-87 -493q-2 -14 -3.5 -25.5t-1.5 -22.5q0 -73 44 -113t125 -40q96 0 158 53t79 148l87 493h59z" />
    <glyph glyph-name="uogonek" unicode="&#x173;" horiz-adv-x="562" 
d="M437 0q-60 -47 -94 -92.5t-34 -78.5q0 -27 29 -27q20 0 39 6t38 17l-8 -42q-20 -11 -42.5 -17t-46.5 -6q-32 0 -49 15t-17 42t18.5 58.5t45.5 59t57.5 45.5t54.5 18v2h-51l29 167h-2q-15 -84 -67.5 -130.5t-130.5 -46.5q-71 0 -108.5 37t-37.5 105q0 12 1.5 24.5
t3.5 26.5l55 309h60l-54 -308q-2 -10 -3 -19.5t-1 -17.5q0 -51 29 -78.5t83 -27.5q71 0 118.5 47.5t63.5 133.5l47 270h60l-86 -492v0z" />
    <glyph glyph-name="Wcircumflex" unicode="&#x174;" horiz-adv-x="990" 
d="M504 818h-56l127 154h99l74 -154h-56l-68 147h-2zM1053 740l-314 -740h-122l-36 733h-2l-291 -733h-123l-53 740h69l49 -733h2l292 733h116l37 -733h2l308 733h66z" />
    <glyph glyph-name="wcircumflex" unicode="&#x175;" horiz-adv-x="802" 
d="M365 570h-56l127 154h99l74 -154h-56l-68 147h-2zM818 492l-230 -492h-112l-31 487h-2l-203 -487h-112l-58 492h65l50 -487h2l203 487h111l31 -487h2l222 487h62z" />
    <glyph glyph-name="Ycircumflex" unicode="&#x176;" horiz-adv-x="638" 
d="M339 818h-56l127 154h99l74 -154h-56l-68 147h-2zM729 740l-514 -740h-71l185 269h-62l-163 471h75l158 -464h2l320 464h70z" />
    <glyph glyph-name="ycircumflex" unicode="&#x177;" horiz-adv-x="511" 
d="M223 570h-56l127 154h99l74 -154h-56l-68 147h-2zM530 492l-379 -722h-65l121 230h-52l-85 492h65l79 -487h2l249 487h65z" />
    <glyph glyph-name="Ydieresis" unicode="&#x178;" horiz-adv-x="638" 
d="M396 856h-58l16 96h58zM541 856h-59l17 96h58zM729 740l-514 -740h-71l185 269h-62l-163 471h75l158 -464h2l320 464h70z" />
    <glyph glyph-name="Zacute" unicode="&#x179;" horiz-adv-x="649" 
d="M398 844l-13 36l179 88l15 -40zM15 56l-1 -2h569l-9 -54h-579l22 126l648 558v2h-536l9 54h547l-22 -126z" />
    <glyph glyph-name="zacute" unicode="&#x17a;" horiz-adv-x="505" 
d="M279 596l-13 36l179 88l15 -40zM19 50v-2h415l-9 -48h-425l20 112l454 330l1 2h-390l7 48h402l-20 -112z" />
    <glyph glyph-name="Zdotaccent" unicode="&#x17b;" horiz-adv-x="649" 
d="M466 856h-60l16 96h60zM15 56l-1 -2h569l-9 -54h-579l22 126l648 558v2h-536l9 54h547l-22 -126z" />
    <glyph glyph-name="zdotaccent" unicode="&#x17c;" horiz-adv-x="505" 
d="M347 608h-60l16 96h60zM19 50v-2h415l-9 -48h-425l20 112l454 330l1 2h-390l7 48h402l-20 -112z" />
    <glyph glyph-name="Zcaron" unicode="&#x17d;" horiz-adv-x="649" 
d="M307 972h56l67 -147h2l119 147h56l-127 -154h-100zM15 56l-1 -2h569l-9 -54h-579l22 126l648 558v2h-536l9 54h547l-22 -126z" />
    <glyph glyph-name="zcaron" unicode="&#x17e;" horiz-adv-x="505" 
d="M188 724h56l67 -147h2l119 147h56l-127 -154h-100zM19 50v-2h415l-9 -48h-425l20 112l454 330l1 2h-390l7 48h402l-20 -112z" />
    <glyph glyph-name="florin" unicode="&#x192;" horiz-adv-x="645" 
d="M613 750q30 0 58 -5.5t48 -15.5l-22 -46q-37 16 -85 16t-85.5 -33t-57.5 -92l-61 -173h168l-8 -38h-174l-77 -219q-26 -73 -77.5 -113.5t-118.5 -40.5q-30 0 -57.5 5.5t-47.5 15.5l22 46q16 -8 38.5 -12t46.5 -4q47 0 84 33t58 92l69 197h-159l7 38h166l68 195
q26 73 78 113.5t119 40.5z" />
    <glyph glyph-name="Ohorn" unicode="&#x1a0;" horiz-adv-x="745" 
d="M327 -10q-124 0 -189 77.5t-65 214.5q0 104 27.5 190.5t78 148t122 95.5t160.5 34q58 0 105 -18q21 4 40 23t27 70h61q-7 -42 -34 -71t-65 -37q60 -34 90.5 -99.5t30.5 -159.5q0 -104 -27.5 -190.5t-78.5 -148t-123 -95.5t-160 -34zM337 46q71 0 129 29.5t99 83t63 128
t22 163.5q0 115 -50.5 179.5t-147.5 64.5q-72 0 -130 -29.5t-99 -83t-63 -128t-22 -163.5q0 -115 51 -179.5t148 -64.5z" />
    <glyph glyph-name="ohorn" unicode="&#x1a1;" horiz-adv-x="575" 
d="M243 -10q-94 0 -144.5 53.5t-50.5 148.5q0 70 20 127t57.5 97.5t90 63t117.5 22.5q51 0 91 -17q19 6 35 25.5t24 66.5h61q-7 -40 -32.5 -68.5t-60.5 -38.5q77 -51 77 -169q0 -70 -20 -127.5t-57 -98t-90 -63t-118 -22.5zM252 41q49 0 89 18.5t68 51.5t43 79.5t15 102.5
q0 75 -37 117t-106 42q-49 0 -88.5 -18.5t-67.5 -51.5t-43 -79.5t-15 -102.5q0 -75 36.5 -117t105.5 -42z" />
    <glyph glyph-name="Uhorn" unicode="&#x1af;" horiz-adv-x="707" 
d="M643 740h10q12 1 24.5 5t23 14t19 28.5t13.5 47.5h61q-7 -40 -32.5 -69t-61.5 -38l-83 -476q-22 -124 -103 -193t-206 -69q-107 0 -164 52t-57 146q0 31 6 64l86 488h63l-87 -493q-2 -14 -3.5 -25.5t-1.5 -22.5q0 -73 44 -113t125 -40q96 0 158 53t79 148z" />
    <glyph glyph-name="uhorn" unicode="&#x1b0;" horiz-adv-x="562" 
d="M465 492q13 0 26 3t25 13t21.5 28.5t14.5 50.5h61q-7 -39 -32 -67.5t-60 -38.5l-84 -481h-60l29 167h-2q-15 -84 -67.5 -130.5t-130.5 -46.5q-71 0 -108.5 37t-37.5 105q0 12 1.5 24.5t3.5 26.5l55 309h60l-54 -308q-2 -10 -3 -19.5t-1 -17.5q0 -51 29 -78.5t83 -27.5
q71 0 118.5 47.5t63.5 133.5l47 270h2z" />
    <glyph glyph-name="Scommaaccent" unicode="&#x218;" horiz-adv-x="651" 
d="M565 500q1 9 1 18v17q0 76 -42.5 117.5t-122.5 41.5q-102 0 -160.5 -44t-58.5 -120q0 -32 15.5 -52t41 -32.5t58.5 -20t69 -13.5q42 -7 83.5 -16t74.5 -27t53.5 -49t20.5 -81q0 -58 -22.5 -104t-64 -78.5t-101 -49.5t-132.5 -17q-113 0 -173.5 56t-60.5 158q0 23 3 47h63
q-3 -20 -3 -36q0 -81 47 -125t134 -44q114 0 179.5 47.5t65.5 132.5q0 37 -17 59.5t-44.5 37t-63.5 22t-73 14.5q-40 7 -79.5 16t-70.5 25.5t-50 44t-19 72.5q0 54 20.5 97t59 73.5t93.5 46.5t123 16q106 0 162 -53.5t56 -151.5q0 -21 -3 -45h-62zM232 -79h67l-9 -50
q-8 -41 -27 -66t-59 -45l4 29q34 12 51.5 30t24.5 45h-62z" />
    <glyph glyph-name="scommaaccent" unicode="&#x219;" horiz-adv-x="495" 
d="M390 339q2 7 2 13.5v12.5q0 44 -28 67.5t-81 23.5q-66 0 -105 -26.5t-39 -71.5q0 -19 10.5 -31.5t27.5 -21t39.5 -14t46.5 -10.5q30 -6 60 -13.5t54 -20.5t39 -35t15 -56q0 -78 -62 -122t-168 -44q-85 0 -130 35t-45 99q0 15 3 35h59q-3 -15 -3 -26q0 -46 32 -71t92 -25
q75 0 118 28t43 79q0 24 -11.5 39t-30 24.5t-43 15t-50.5 10.5q-29 6 -57 13t-50 19t-35.5 31t-13.5 50q0 72 57 114t155 42q78 0 120 -33t42 -94q0 -9 -1 -17.5t-3 -18.5h-59zM155 -79h67l-9 -50q-8 -41 -27 -66t-59 -45l4 29q34 12 51.5 30t24.5 45h-62z" />
    <glyph glyph-name="uni021A" unicode="&#x21a;" horiz-adv-x="564" 
d="M624 686h-233l-121 -686h-63l121 686h-233l9 54h529zM192 -79h67l-9 -50q-8 -41 -27 -66t-59 -45l4 29q34 12 51.5 30t24.5 45h-62z" />
    <glyph glyph-name="uni021B" unicode="&#x21b;" horiz-adv-x="358" 
d="M143 135q-1 -6 -1 -11.5v-11.5q0 -34 21 -52.5t60 -18.5q40 0 75 16l-9 -48q-20 -9 -44.5 -14t-49.5 -5q-56 0 -85.5 28t-29.5 79q0 9 1 18t3 19l54 310h-83l8 48h89l31 174h60l-7 -42q-7 -39 -28.5 -73t-50.5 -57l-1 -2h226l-8 -48h-177zM89 -79h67l-9 -50
q-8 -41 -27 -66t-59 -45l4 29q34 12 51.5 30t24.5 45h-62z" />
    <glyph glyph-name="uni0237" unicode="&#x237;" horiz-adv-x="224" 
d="M185 492l-127 -722h-60l127 722h60z" />
    <glyph glyph-name="circumflex" unicode="&#x2c6;" horiz-adv-x="336" 
d="M376 570h-56l-68 147h-2l-118 -147h-56l127 154h99z" />
    <glyph glyph-name="caron" unicode="&#x2c7;" horiz-adv-x="336" 
d="M403 724l-127 -154h-100l-73 154h56l67 -147h2l119 147h56z" />
    <glyph glyph-name="breve" unicode="&#x2d8;" horiz-adv-x="331" 
d="M388 724q-14 -74 -57 -115.5t-109 -41.5q-65 0 -94 41.5t-16 115.5h49q-10 -54 8.5 -84t60.5 -30t70.5 30t38.5 84h49v0z" />
    <glyph glyph-name="dotaccent" unicode="&#x2d9;" horiz-adv-x="195" 
d="M148 704h60l-16 -96h-60z" />
    <glyph glyph-name="ring" unicode="&#x2da;" horiz-adv-x="276" 
d="M192 552q-47 0 -71.5 23t-24.5 64q0 57 36 91.5t98 34.5q46 0 70.5 -22.5t24.5 -63.5q0 -58 -35.5 -92.5t-97.5 -34.5zM199 592q37 0 57.5 21.5t20.5 58.5q0 26 -14 40t-40 14q-36 0 -57.5 -22t-21.5 -59q0 -25 14 -39t41 -14z" />
    <glyph glyph-name="ogonek" unicode="&#x2db;" horiz-adv-x="211" 
d="M108 -217q-20 -11 -42.5 -17t-46.5 -6q-32 0 -49 15t-17 42t18.5 58.5t45.5 59t57.5 45.5t54.5 18v2h9q-60 -47 -94 -92.5t-34 -78.5q0 -27 29 -27q20 0 39 6t38 17l-8 -42v0z" />
    <glyph glyph-name="tilde" unicode="&#x2dc;" horiz-adv-x="398" 
d="M332 601q-26 0 -43 11t-30.5 23.5t-27 23.5t-31.5 11q-23 0 -40.5 -19.5t-25.5 -53.5h-39q11 58 41 90.5t75 32.5q26 0 43 -11t30.5 -23.5t27 -23.5t31.5 -11q23 0 40.5 19t26.5 54h39q-11 -59 -41.5 -91t-75.5 -32z" />
    <glyph glyph-name="hungarumlaut" unicode="&#x2dd;" horiz-adv-x="350" 
d="M279 704l-160 -125l-24 30l155 129zM399 704l-160 -125l-24 30l155 129z" />
    <glyph glyph-name="gravecomb" unicode="&#x300;" horiz-adv-x="0" 
d="M51 632l-27 -36l-151 84l30 40z" />
    <glyph glyph-name="acutecomb" unicode="&#x301;" horiz-adv-x="0" 
d="M58 680l-181 -84l-13 36l179 88z" />
    <glyph glyph-name="uni0302" unicode="&#x302;" horiz-adv-x="0" 
d="M40 570h-56l-68 147h-2l-118 -147h-56l127 154h99z" />
    <glyph glyph-name="tildecomb" unicode="&#x303;" horiz-adv-x="0" 
d="M-66 598q-26 0 -43 11t-30.5 23.5t-27 23.5t-31.5 11q-23 0 -40.5 -19.5t-25.5 -53.5h-39q11 58 41 90.5t75 32.5q26 0 43 -11t30.5 -23.5t27 -23.5t31.5 -11q23 0 40.5 19t26.5 54h39q-11 -59 -41.5 -91t-75.5 -32z" />
    <glyph glyph-name="uni0304" unicode="&#x304;" horiz-adv-x="0" 
d="M53 679l-8 -46h-264l9 46h263z" />
    <glyph glyph-name="uni0306" unicode="&#x306;" horiz-adv-x="0" 
d="M57 724q-14 -74 -57 -115.5t-109 -41.5q-65 0 -94 41.5t-16 115.5h49q-10 -54 8.5 -84t60.5 -30t70.5 30t38.5 84h49v0z" />
    <glyph glyph-name="uni0307" unicode="&#x307;" horiz-adv-x="0" 
d="M-47 704h60l-16 -96h-60z" />
    <glyph glyph-name="uni0308" unicode="&#x308;" horiz-adv-x="0" 
d="M-192 704h58l-16 -96h-58zM-47 704h58l-16 -96h-59z" />
    <glyph glyph-name="uni030A" unicode="&#x30a;" horiz-adv-x="0" 
d="M-84 552q-47 0 -71.5 23t-24.5 64q0 57 36 91.5t98 34.5q46 0 70.5 -22.5t24.5 -63.5q0 -58 -35.5 -92.5t-97.5 -34.5zM-77 592q37 0 57.5 21.5t20.5 58.5q0 26 -14 40t-40 14q-36 0 -57.5 -22t-21.5 -59q0 -25 14 -39t41 -14z" />
    <glyph glyph-name="uni030B" unicode="&#x30b;" horiz-adv-x="0" 
d="M-71 704l-160 -125l-24 30l155 129zM49 704l-160 -125l-24 30l155 129z" />
    <glyph glyph-name="uni030C" unicode="&#x30c;" horiz-adv-x="0" 
d="M67 724l-127 -154h-100l-73 154h56l67 -147h2l119 147h56z" />
    <glyph glyph-name="uni0312" unicode="&#x312;" horiz-adv-x="0" 
d="M66 716q-32 -8 -49 -20t-22 -31h62l-10 -59h-67l9 51q6 33 25 53t57 35l-5 -29v0z" />
    <glyph glyph-name="uni0326" unicode="&#x326;" horiz-adv-x="0" 
d="M-90 -79l-9 -50q-8 -41 -27 -66t-59 -45l4 29q34 12 51.5 30t24.5 45h-62l10 57h67z" />
    <glyph glyph-name="uni0327" unicode="&#x327;" horiz-adv-x="0" 
d="M-235 -240q-23 0 -45 6t-36 17l7 38q15 -11 35 -17t42 -6q42 0 65 17t23 46q0 33 -44 35q-20 1 -37 -6t-28 -20l-28 20q19 20 47 32t56 12q42 0 64 -17.5t22 -49.5q0 -49 -38 -78t-105 -29z" />
    <glyph glyph-name="uni0328" unicode="&#x328;" horiz-adv-x="0" 
d="M-103 -217q-20 -11 -42.5 -17t-46.5 -6q-32 0 -49 15t-17 42t18.5 58.5t45.5 59t57.5 45.5t54.5 18v2h9q-60 -47 -94 -92.5t-34 -78.5q0 -27 29 -27q20 0 39 6t38 17l-8 -42v0z" />
    <glyph glyph-name="uni0335" unicode="&#x335;" horiz-adv-x="0" 
d="M-39 368l-7 -37h-308l7 37h308z" />
    <glyph glyph-name="uni0336" unicode="&#x336;" horiz-adv-x="0" 
d="M-692 368h653l-7 -37h-653z" />
    <glyph glyph-name="uni0337" unicode="&#x337;" horiz-adv-x="0" 
d="M32 505l-449 -542l-33 25l449 540z" />
    <glyph glyph-name="uni0338" unicode="&#x338;" horiz-adv-x="0" 
d="M57 751l-610 -787l-37 25l611 787z" />
    <glyph glyph-name="uni0394" unicode="&#x394;" horiz-adv-x="669" 
d="M611 0h-639l395 740h111zM533 54l-112 679h-2l-353 -679h467z" />
    <glyph glyph-name="uni03A9" unicode="&#x3a9;" horiz-adv-x="772" 
d="M448 55h211l-10 -55h-260l10 55q61 0 111 31t85 84.5t54 125.5t19 155q0 115 -53 179t-153 64q-72 0 -131 -28.5t-101 -81.5t-65 -128t-23 -169q0 -109 40 -170.5t118 -61.5l-10 -55h-260l10 55h211v2q-84 0 -128 64t-44 178q0 103 28 186.5t79.5 142t124 90.5t161.5 32
q128 0 196 -74t68 -206q0 -86 -20.5 -161.5t-58 -131.5t-90.5 -88t-119 -32v-2z" />
    <glyph glyph-name="uni03BC" unicode="&#x3bc;" horiz-adv-x="568" 
d="M529 492l-86 -492h-60l29 167h-2q-15 -84 -67.5 -130.5t-130.5 -46.5q-67 0 -104 33.5t-42 94.5l-7 -344l-1 -4h-60l73 413l55 309h60l-54 -308q-2 -10 -3 -19.5t-1 -17.5q0 -51 29 -78.5t83 -27.5q71 0 118.5 47.5t63.5 133.5l47 270h60z" />
    <glyph glyph-name="pi" unicode="&#x3c0;" horiz-adv-x="593" 
d="M606 444h-90l-78 -444h-60l78 444h-250l-78 -444h-60l78 444h-90l8 48h550z" />
    <glyph glyph-name="Wgrave" unicode="&#x1e80;" horiz-adv-x="990" 
d="M636 844l-151 84l30 40l148 -88zM1053 740l-314 -740h-122l-36 733h-2l-291 -733h-123l-53 740h69l49 -733h2l292 733h116l37 -733h2l308 733h66z" />
    <glyph glyph-name="wgrave" unicode="&#x1e81;" horiz-adv-x="802" 
d="M498 596l-151 84l30 40l148 -88zM818 492l-230 -492h-112l-31 487h-2l-203 -487h-112l-58 492h65l50 -487h2l203 487h111l31 -487h2l222 487h62z" />
    <glyph glyph-name="Wacute" unicode="&#x1e82;" horiz-adv-x="990" 
d="M566 844l-13 36l179 88l15 -40zM1053 740l-314 -740h-122l-36 733h-2l-291 -733h-123l-53 740h69l49 -733h2l292 733h116l37 -733h2l308 733h66z" />
    <glyph glyph-name="wacute" unicode="&#x1e83;" horiz-adv-x="802" 
d="M428 596l-13 36l179 88l15 -40zM818 492l-230 -492h-112l-31 487h-2l-203 -487h-112l-58 492h65l50 -487h2l203 487h111l31 -487h2l222 487h62z" />
    <glyph glyph-name="Wdieresis" unicode="&#x1e84;" horiz-adv-x="990" 
d="M561 856h-58l16 96h58zM706 856h-59l17 96h58zM1053 740l-314 -740h-122l-36 733h-2l-291 -733h-123l-53 740h69l49 -733h2l292 733h116l37 -733h2l308 733h66z" />
    <glyph glyph-name="wdieresis" unicode="&#x1e85;" horiz-adv-x="802" 
d="M422 608h-58l16 96h58zM567 608h-59l17 96h58zM818 492l-230 -492h-112l-31 487h-2l-203 -487h-112l-58 492h65l50 -487h2l203 487h111l31 -487h2l222 487h62z" />
    <glyph glyph-name="uni1E9E" unicode="&#x1e9e;" horiz-adv-x="661" 
d="M352 404q122 0 188 -46.5t66 -131.5q0 -54 -21 -98t-60 -74.5t-94 -47t-123 -16.5q-28 0 -55 3t-47 9l10 55q44 -11 100 -11q52 0 94 12t71 34.5t45 54.5t16 71q0 65 -51.5 100.5t-147.5 35.5h-49l9 52q115 6 181.5 52t66.5 122q0 54 -37.5 84t-108.5 30
q-81 0 -133.5 -43t-66.5 -121l-93 -530h-63l93 528q19 106 90.5 164t181.5 58q100 0 152.5 -39.5t52.5 -109.5q0 -46 -19.5 -82t-55.5 -61t-87 -38.5t-115 -13.5v-2h10v0z" />
    <glyph glyph-name="uni1EA0" unicode="&#x1ea0;" horiz-adv-x="668" 
d="M242 -105h60l-16 -96h-60zM509 195h-371l-101 -195h-66l395 740h111l133 -740h-69zM500 249l-80 484h-2l-252 -484h334z" />
    <glyph glyph-name="uni1EA1" unicode="&#x1ea1;" 
d="M212 -105h60l-16 -96h-60zM558 492l-86 -492h-60l28 158h-2q-14 -79 -70.5 -123.5t-144.5 -44.5q-85 0 -130 52t-45 146q0 70 19 128t53.5 99t84 64t109.5 23q76 0 117 -34t41 -97q0 -18 -3 -37h2l27 158h60zM252 41q82 0 137 54.5t72 150.5q3 17 4.5 30t1.5 27
q0 70 -37 109.5t-106 39.5q-49 0 -88.5 -18.5t-67 -51.5t-42.5 -79.5t-15 -102.5q0 -75 36 -117t105 -42z" />
    <glyph glyph-name="uni1EA2" unicode="&#x1ea2;" horiz-adv-x="668" 
d="M362 888q6 40 33 63.5t68 23.5q42 0 60 -20.5t12 -55.5q-8 -55 -78 -97h-56q36 19 59.5 42.5t27.5 49.5q4 19 -3.5 31t-30.5 12t-35 -13.5t-17 -35.5h-40zM509 195h-371l-101 -195h-66l395 740h111l133 -740h-69zM500 249l-80 484h-2l-252 -484h334z" />
    <glyph glyph-name="uni1EA3" unicode="&#x1ea3;" 
d="M287 646q6 40 33 63.5t68 23.5q42 0 60 -20.5t12 -55.5q-8 -55 -78 -97h-56q36 19 59.5 42.5t27.5 49.5q4 19 -3.5 31t-30.5 12t-35 -13.5t-17 -35.5h-40zM558 492l-86 -492h-60l28 158h-2q-14 -79 -70.5 -123.5t-144.5 -44.5q-85 0 -130 52t-45 146q0 70 19 128t53.5 99
t84 64t109.5 23q76 0 117 -34t41 -97q0 -18 -3 -37h2l27 158h60zM252 41q82 0 137 54.5t72 150.5q3 17 4.5 30t1.5 27q0 70 -37 109.5t-106 39.5q-49 0 -88.5 -18.5t-67 -51.5t-42.5 -79.5t-15 -102.5q0 -75 36 -117t105 -42z" />
    <glyph glyph-name="uni1EA4" unicode="&#x1ea4;" horiz-adv-x="668" 
d="M556 866l81 125h69l-98 -125h-52zM509 195h-371l-101 -195h-66l395 740h111l133 -740h-69zM500 249l-80 484h-2l-252 -484h334zM451 908h-4l-83 -116h-54l89 125h102l51 -125h-54z" />
    <glyph glyph-name="uni1EA5" unicode="&#x1ea5;" 
d="M464 624l81 125h69l-98 -125h-52zM558 492l-86 -492h-60l28 158h-2q-14 -79 -70.5 -123.5t-144.5 -44.5q-85 0 -130 52t-45 146q0 70 19 128t53.5 99t84 64t109.5 23q76 0 117 -34t41 -97q0 -18 -3 -37h2l27 158h60zM252 41q82 0 137 54.5t72 150.5q3 17 4.5 30t1.5 27
q0 70 -37 109.5t-106 39.5q-49 0 -88.5 -18.5t-67 -51.5t-42.5 -79.5t-15 -102.5q0 -75 36 -117t105 -42zM359 666h-4l-83 -116h-54l89 125h102l51 -125h-54z" />
    <glyph glyph-name="uni1EA6" unicode="&#x1ea6;" horiz-adv-x="668" 
d="M580 866l-60 125h67l43 -125h-50zM509 195h-371l-101 -195h-66l395 740h111l133 -740h-69zM500 249l-80 484h-2l-252 -484h334zM451 908h-4l-83 -116h-54l89 125h102l51 -125h-54z" />
    <glyph glyph-name="uni1EA7" unicode="&#x1ea7;" 
d="M488 624l-60 125h67l43 -125h-50zM558 492l-86 -492h-60l28 158h-2q-14 -79 -70.5 -123.5t-144.5 -44.5q-85 0 -130 52t-45 146q0 70 19 128t53.5 99t84 64t109.5 23q76 0 117 -34t41 -97q0 -18 -3 -37h2l27 158h60zM252 41q82 0 137 54.5t72 150.5q3 17 4.5 30t1.5 27
q0 70 -37 109.5t-106 39.5q-49 0 -88.5 -18.5t-67 -51.5t-42.5 -79.5t-15 -102.5q0 -75 36 -117t105 -42zM359 666h-4l-83 -116h-54l89 125h102l51 -125h-54z" />
    <glyph glyph-name="uni1EA8" unicode="&#x1ea8;" horiz-adv-x="668" 
d="M522 952q6 40 33 63.5t68 23.5q42 0 60 -20.5t12 -55.5q-8 -55 -78 -97h-56q36 19 59.5 42.5t27.5 49.5q4 19 -3.5 31t-30.5 12t-35 -13.5t-17 -35.5h-40zM509 195h-371l-101 -195h-66l395 740h111l133 -740h-69zM500 249l-80 484h-2l-252 -484h334zM451 908h-4l-83 -116
h-54l89 125h102l51 -125h-54z" />
    <glyph glyph-name="uni1EA9" unicode="&#x1ea9;" 
d="M430 710q6 40 33 63.5t68 23.5q42 0 60 -20.5t12 -55.5q-8 -55 -78 -97h-56q36 19 59.5 42.5t27.5 49.5q4 19 -3.5 31t-30.5 12t-35 -13.5t-17 -35.5h-40zM558 492l-86 -492h-60l28 158h-2q-14 -79 -70.5 -123.5t-144.5 -44.5q-85 0 -130 52t-45 146q0 70 19 128t53.5 99
t84 64t109.5 23q76 0 117 -34t41 -97q0 -18 -3 -37h2l27 158h60zM252 41q82 0 137 54.5t72 150.5q3 17 4.5 30t1.5 27q0 70 -37 109.5t-106 39.5q-49 0 -88.5 -18.5t-67 -51.5t-42.5 -79.5t-15 -102.5q0 -75 36 -117t105 -42zM359 666h-4l-83 -116h-54l89 125h102l51 -125
h-54z" />
    <glyph glyph-name="uni1EAA" unicode="&#x1eaa;" horiz-adv-x="668" 
d="M501 965q-20 0 -31 8t-19.5 17t-17 17t-22.5 8q-24 0 -38 -53h-45q9 48 32 74t64 26q19 0 30.5 -7.5t19.5 -17t16.5 -17t23.5 -7.5q25 0 39 52h45q-9 -48 -33 -74t-64 -26zM509 195h-371l-101 -195h-66l395 740h111l133 -740h-69zM500 249l-80 484h-2l-252 -484h334z
M451 908h-4l-83 -116h-54l89 125h102l51 -125h-54z" />
    <glyph glyph-name="uni1EAB" unicode="&#x1eab;" 
d="M409 723q-20 0 -31 8t-19.5 17t-17 17t-22.5 8q-24 0 -38 -53h-45q9 48 32 74t64 26q19 0 30.5 -7.5t19.5 -17t16.5 -17t23.5 -7.5q25 0 39 52h45q-9 -48 -33 -74t-64 -26zM558 492l-86 -492h-60l28 158h-2q-14 -79 -70.5 -123.5t-144.5 -44.5q-85 0 -130 52t-45 146
q0 70 19 128t53.5 99t84 64t109.5 23q76 0 117 -34t41 -97q0 -18 -3 -37h2l27 158h60zM252 41q82 0 137 54.5t72 150.5q3 17 4.5 30t1.5 27q0 70 -37 109.5t-106 39.5q-49 0 -88.5 -18.5t-67 -51.5t-42.5 -79.5t-15 -102.5q0 -75 36 -117t105 -42zM359 666h-4l-83 -116h-54
l89 125h102l51 -125h-54z" />
    <glyph glyph-name="uni1EAC" unicode="&#x1eac;" horiz-adv-x="668" 
d="M242 -105h60l-16 -96h-60zM509 195h-371l-101 -195h-66l395 740h111l133 -740h-69zM500 249l-80 484h-2l-252 -484h334zM451 908h-4l-83 -116h-54l89 125h102l51 -125h-54z" />
    <glyph glyph-name="uni1EAD" unicode="&#x1ead;" 
d="M212 -105h60l-16 -96h-60zM558 492l-86 -492h-60l28 158h-2q-14 -79 -70.5 -123.5t-144.5 -44.5q-85 0 -130 52t-45 146q0 70 19 128t53.5 99t84 64t109.5 23q76 0 117 -34t41 -97q0 -18 -3 -37h2l27 158h60zM252 41q82 0 137 54.5t72 150.5q3 17 4.5 30t1.5 27
q0 70 -37 109.5t-106 39.5q-49 0 -88.5 -18.5t-67 -51.5t-42.5 -79.5t-15 -102.5q0 -75 36 -117t105 -42zM359 666h-4l-83 -116h-54l89 125h102l51 -125h-54z" />
    <glyph glyph-name="uni1EAE" unicode="&#x1eae;" horiz-adv-x="668" 
d="M412 928l81 125h69l-98 -125h-52zM509 195h-371l-101 -195h-66l395 740h111l133 -740h-69zM500 249l-80 484h-2l-252 -484h334zM426 792q-57 0 -84 30.5t-18 85.5h47q-4 -23 0.5 -37t13.5 -22t21.5 -10.5t25.5 -2.5t26 2.5t25 10.5t20.5 22t12.5 37h50
q-9 -55 -44.5 -85.5t-95.5 -30.5z" />
    <glyph glyph-name="uni1EAF" unicode="&#x1eaf;" 
d="M329 686l81 125h69l-98 -125h-52zM558 492l-86 -492h-60l28 158h-2q-14 -79 -70.5 -123.5t-144.5 -44.5q-85 0 -130 52t-45 146q0 70 19 128t53.5 99t84 64t109.5 23q76 0 117 -34t41 -97q0 -18 -3 -37h2l27 158h60zM252 41q82 0 137 54.5t72 150.5q3 17 4.5 30t1.5 27
q0 70 -37 109.5t-106 39.5q-49 0 -88.5 -18.5t-67 -51.5t-42.5 -79.5t-15 -102.5q0 -75 36 -117t105 -42zM343 550q-57 0 -84 30.5t-18 85.5h47q-4 -23 0.5 -37t13.5 -22t21.5 -10.5t25.5 -2.5t26 2.5t25 10.5t20.5 22t12.5 37h50q-9 -55 -44.5 -85.5t-95.5 -30.5z" />
    <glyph glyph-name="uni1EB0" unicode="&#x1eb0;" horiz-adv-x="668" 
d="M420 928l-60 125h67l43 -125h-50zM509 195h-371l-101 -195h-66l395 740h111l133 -740h-69zM500 249l-80 484h-2l-252 -484h334zM426 792q-57 0 -84 30.5t-18 85.5h47q-4 -23 0.5 -37t13.5 -22t21.5 -10.5t25.5 -2.5t26 2.5t25 10.5t20.5 22t12.5 37h50
q-9 -55 -44.5 -85.5t-95.5 -30.5z" />
    <glyph glyph-name="uni1EB1" unicode="&#x1eb1;" 
d="M337 686l-60 125h67l43 -125h-50zM558 492l-86 -492h-60l28 158h-2q-14 -79 -70.5 -123.5t-144.5 -44.5q-85 0 -130 52t-45 146q0 70 19 128t53.5 99t84 64t109.5 23q76 0 117 -34t41 -97q0 -18 -3 -37h2l27 158h60zM252 41q82 0 137 54.5t72 150.5q3 17 4.5 30t1.5 27
q0 70 -37 109.5t-106 39.5q-49 0 -88.5 -18.5t-67 -51.5t-42.5 -79.5t-15 -102.5q0 -75 36 -117t105 -42zM343 550q-57 0 -84 30.5t-18 85.5h47q-4 -23 0.5 -37t13.5 -22t21.5 -10.5t25.5 -2.5t26 2.5t25 10.5t20.5 22t12.5 37h50q-9 -55 -44.5 -85.5t-95.5 -30.5z" />
    <glyph glyph-name="uni1EB2" unicode="&#x1eb2;" horiz-adv-x="668" 
d="M378 1014q6 40 33 63.5t68 23.5q42 0 60 -20.5t12 -55.5q-8 -55 -78 -97h-56q36 19 59.5 42.5t27.5 49.5q4 19 -3.5 31t-30.5 12t-35 -13.5t-17 -35.5h-40zM509 195h-371l-101 -195h-66l395 740h111l133 -740h-69zM500 249l-80 484h-2l-252 -484h334zM426 792
q-57 0 -84 30.5t-18 85.5h47q-4 -23 0.5 -37t13.5 -22t21.5 -10.5t25.5 -2.5t26 2.5t25 10.5t20.5 22t12.5 37h50q-9 -55 -44.5 -85.5t-95.5 -30.5z" />
    <glyph glyph-name="uni1EB3" unicode="&#x1eb3;" 
d="M295 772q6 40 33 63.5t68 23.5q42 0 60 -20.5t12 -55.5q-8 -55 -78 -97h-56q36 19 59.5 42.5t27.5 49.5q4 19 -3.5 31t-30.5 12t-35 -13.5t-17 -35.5h-40zM558 492l-86 -492h-60l28 158h-2q-14 -79 -70.5 -123.5t-144.5 -44.5q-85 0 -130 52t-45 146q0 70 19 128t53.5 99
t84 64t109.5 23q76 0 117 -34t41 -97q0 -18 -3 -37h2l27 158h60zM252 41q82 0 137 54.5t72 150.5q3 17 4.5 30t1.5 27q0 70 -37 109.5t-106 39.5q-49 0 -88.5 -18.5t-67 -51.5t-42.5 -79.5t-15 -102.5q0 -75 36 -117t105 -42zM343 550q-57 0 -84 30.5t-18 85.5h47
q-4 -23 0.5 -37t13.5 -22t21.5 -10.5t25.5 -2.5t26 2.5t25 10.5t20.5 22t12.5 37h50q-9 -55 -44.5 -85.5t-95.5 -30.5z" />
    <glyph glyph-name="uni1EB4" unicode="&#x1eb4;" horiz-adv-x="668" 
d="M495 956q-20 0 -31 8t-19.5 17t-17 17t-22.5 8q-24 0 -38 -53h-45q9 48 32 74t64 26q19 0 30.5 -7.5t19.5 -17t16.5 -17t23.5 -7.5q25 0 39 52h45q-9 -48 -33 -74t-64 -26zM509 195h-371l-101 -195h-66l395 740h111l133 -740h-69zM500 249l-80 484h-2l-252 -484h334z
M426 792q-57 0 -84 30.5t-18 85.5h47q-4 -23 0.5 -37t13.5 -22t21.5 -10.5t25.5 -2.5t26 2.5t25 10.5t20.5 22t12.5 37h50q-9 -55 -44.5 -85.5t-95.5 -30.5z" />
    <glyph glyph-name="uni1EB5" unicode="&#x1eb5;" 
d="M412 714q-20 0 -31 8t-19.5 17t-17 17t-22.5 8q-24 0 -38 -53h-45q9 48 32 74t64 26q19 0 30.5 -7.5t19.5 -17t16.5 -17t23.5 -7.5q25 0 39 52h45q-9 -48 -33 -74t-64 -26zM558 492l-86 -492h-60l28 158h-2q-14 -79 -70.5 -123.5t-144.5 -44.5q-85 0 -130 52t-45 146
q0 70 19 128t53.5 99t84 64t109.5 23q76 0 117 -34t41 -97q0 -18 -3 -37h2l27 158h60zM252 41q82 0 137 54.5t72 150.5q3 17 4.5 30t1.5 27q0 70 -37 109.5t-106 39.5q-49 0 -88.5 -18.5t-67 -51.5t-42.5 -79.5t-15 -102.5q0 -75 36 -117t105 -42zM343 550q-57 0 -84 30.5
t-18 85.5h47q-4 -23 0.5 -37t13.5 -22t21.5 -10.5t25.5 -2.5t26 2.5t25 10.5t20.5 22t12.5 37h50q-9 -55 -44.5 -85.5t-95.5 -30.5z" />
    <glyph glyph-name="uni1EB6" unicode="&#x1eb6;" horiz-adv-x="668" 
d="M242 -105h60l-16 -96h-60zM509 195h-371l-101 -195h-66l395 740h111l133 -740h-69zM500 249l-80 484h-2l-252 -484h334zM426 792q-57 0 -84 30.5t-18 85.5h47q-4 -23 0.5 -37t13.5 -22t21.5 -10.5t25.5 -2.5t26 2.5t25 10.5t20.5 22t12.5 37h50q-9 -55 -44.5 -85.5
t-95.5 -30.5z" />
    <glyph glyph-name="uni1EB7" unicode="&#x1eb7;" 
d="M212 -105h60l-16 -96h-60zM558 492l-86 -492h-60l28 158h-2q-14 -79 -70.5 -123.5t-144.5 -44.5q-85 0 -130 52t-45 146q0 70 19 128t53.5 99t84 64t109.5 23q76 0 117 -34t41 -97q0 -18 -3 -37h2l27 158h60zM252 41q82 0 137 54.5t72 150.5q3 17 4.5 30t1.5 27
q0 70 -37 109.5t-106 39.5q-49 0 -88.5 -18.5t-67 -51.5t-42.5 -79.5t-15 -102.5q0 -75 36 -117t105 -42zM343 550q-57 0 -84 30.5t-18 85.5h47q-4 -23 0.5 -37t13.5 -22t21.5 -10.5t25.5 -2.5t26 2.5t25 10.5t20.5 22t12.5 37h50q-9 -55 -44.5 -85.5t-95.5 -30.5z" />
    <glyph glyph-name="uni1EB8" unicode="&#x1eb8;" horiz-adv-x="612" 
d="M252 -105h60l-16 -96h-60zM241 686l-49 -276h360l-9 -54h-360l-54 -302h407l-10 -54h-469l130 740h458l-9 -54h-395z" />
    <glyph glyph-name="uni1EB9" unicode="&#x1eb9;" horiz-adv-x="549" 
d="M192 -105h60l-16 -96h-60zM322 502q88 0 136 -48t48 -136q0 -17 -2 -35t-6 -38l-2 -11h-385q-1 -9 -1.5 -18.5t-0.5 -19.5q0 -73 34 -114.5t97 -41.5q66 0 115 34.5t70 97.5h60q-26 -86 -93 -134t-161 -48q-88 0 -135.5 52t-47.5 146q0 70 19.5 128t55 99.5t86 64
t113.5 22.5zM313 453q-76 0 -127.5 -48.5t-68.5 -130.5h325q1 8 1.5 16t0.5 16q0 71 -34 109t-97 38z" />
    <glyph glyph-name="uni1EBA" unicode="&#x1eba;" horiz-adv-x="612" 
d="M362 888q6 40 33 63.5t68 23.5q42 0 60 -20.5t12 -55.5q-8 -55 -78 -97h-56q36 19 59.5 42.5t27.5 49.5q4 19 -3.5 31t-30.5 12t-35 -13.5t-17 -35.5h-40zM241 686l-49 -276h360l-9 -54h-360l-54 -302h407l-10 -54h-469l130 740h458l-9 -54h-395z" />
    <glyph glyph-name="uni1EBB" unicode="&#x1ebb;" horiz-adv-x="549" 
d="M265 646q6 40 33 63.5t68 23.5q42 0 60 -20.5t12 -55.5q-8 -55 -78 -97h-56q36 19 59.5 42.5t27.5 49.5q4 19 -3.5 31t-30.5 12t-35 -13.5t-17 -35.5h-40zM322 502q88 0 136 -48t48 -136q0 -17 -2 -35t-6 -38l-2 -11h-385q-1 -9 -1.5 -18.5t-0.5 -19.5q0 -73 34 -114.5
t97 -41.5q66 0 115 34.5t70 97.5h60q-26 -86 -93 -134t-161 -48q-88 0 -135.5 52t-47.5 146q0 70 19.5 128t55 99.5t86 64t113.5 22.5zM313 453q-76 0 -127.5 -48.5t-68.5 -130.5h325q1 8 1.5 16t0.5 16q0 71 -34 109t-97 38z" />
    <glyph glyph-name="uni1EBC" unicode="&#x1ebc;" horiz-adv-x="612" 
d="M468 805q-20 0 -31 8t-19.5 17t-17 17t-22.5 8q-24 0 -38 -53h-45q9 48 32 74t64 26q19 0 30.5 -7.5t19.5 -17t16.5 -17t23.5 -7.5q25 0 39 52h45q-9 -48 -33 -74t-64 -26zM241 686l-49 -276h360l-9 -54h-360l-54 -302h407l-10 -54h-469l130 740h458l-9 -54h-395z" />
    <glyph glyph-name="uni1EBD" unicode="&#x1ebd;" horiz-adv-x="549" 
d="M375 563q-20 0 -31 8t-19.5 17t-17 17t-22.5 8q-24 0 -38 -53h-45q9 48 32 74t64 26q19 0 30.5 -7.5t19.5 -17t16.5 -17t23.5 -7.5q25 0 39 52h45q-9 -48 -33 -74t-64 -26zM322 502q88 0 136 -48t48 -136q0 -17 -2 -35t-6 -38l-2 -11h-385q-1 -9 -1.5 -18.5t-0.5 -19.5
q0 -73 34 -114.5t97 -41.5q66 0 115 34.5t70 97.5h60q-26 -86 -93 -134t-161 -48q-88 0 -135.5 52t-47.5 146q0 70 19.5 128t55 99.5t86 64t113.5 22.5zM313 453q-76 0 -127.5 -48.5t-68.5 -130.5h325q1 8 1.5 16t0.5 16q0 71 -34 109t-97 38z" />
    <glyph glyph-name="uni1EBE" unicode="&#x1ebe;" horiz-adv-x="612" 
d="M543 866l81 125h69l-98 -125h-52zM241 686l-49 -276h360l-9 -54h-360l-54 -302h407l-10 -54h-469l130 740h458l-9 -54h-395zM438 908h-4l-83 -116h-54l89 125h102l51 -125h-54z" />
    <glyph glyph-name="uni1EBF" unicode="&#x1ebf;" horiz-adv-x="549" 
d="M451 624l81 125h69l-98 -125h-52zM322 502q88 0 136 -48t48 -136q0 -17 -2 -35t-6 -38l-2 -11h-385q-1 -9 -1.5 -18.5t-0.5 -19.5q0 -73 34 -114.5t97 -41.5q66 0 115 34.5t70 97.5h60q-26 -86 -93 -134t-161 -48q-88 0 -135.5 52t-47.5 146q0 70 19.5 128t55 99.5t86 64
t113.5 22.5zM313 453q-76 0 -127.5 -48.5t-68.5 -130.5h325q1 8 1.5 16t0.5 16q0 71 -34 109t-97 38zM346 666h-4l-83 -116h-54l89 125h102l51 -125h-54z" />
    <glyph glyph-name="uni1EC0" unicode="&#x1ec0;" horiz-adv-x="612" 
d="M567 866l-60 125h67l43 -125h-50zM241 686l-49 -276h360l-9 -54h-360l-54 -302h407l-10 -54h-469l130 740h458l-9 -54h-395zM438 908h-4l-83 -116h-54l89 125h102l51 -125h-54z" />
    <glyph glyph-name="uni1EC1" unicode="&#x1ec1;" horiz-adv-x="549" 
d="M475 624l-60 125h67l43 -125h-50zM322 502q88 0 136 -48t48 -136q0 -17 -2 -35t-6 -38l-2 -11h-385q-1 -9 -1.5 -18.5t-0.5 -19.5q0 -73 34 -114.5t97 -41.5q66 0 115 34.5t70 97.5h60q-26 -86 -93 -134t-161 -48q-88 0 -135.5 52t-47.5 146q0 70 19.5 128t55 99.5t86 64
t113.5 22.5zM313 453q-76 0 -127.5 -48.5t-68.5 -130.5h325q1 8 1.5 16t0.5 16q0 71 -34 109t-97 38zM346 666h-4l-83 -116h-54l89 125h102l51 -125h-54z" />
    <glyph glyph-name="uni1EC2" unicode="&#x1ec2;" horiz-adv-x="612" 
d="M509 952q6 40 33 63.5t68 23.5q42 0 60 -20.5t12 -55.5q-8 -55 -78 -97h-56q36 19 59.5 42.5t27.5 49.5q4 19 -3.5 31t-30.5 12t-35 -13.5t-17 -35.5h-40zM241 686l-49 -276h360l-9 -54h-360l-54 -302h407l-10 -54h-469l130 740h458l-9 -54h-395zM438 908h-4l-83 -116
h-54l89 125h102l51 -125h-54z" />
    <glyph glyph-name="uni1EC3" unicode="&#x1ec3;" horiz-adv-x="549" 
d="M417 710q6 40 33 63.5t68 23.5q42 0 60 -20.5t12 -55.5q-8 -55 -78 -97h-56q36 19 59.5 42.5t27.5 49.5q4 19 -3.5 31t-30.5 12t-35 -13.5t-17 -35.5h-40zM322 502q88 0 136 -48t48 -136q0 -17 -2 -35t-6 -38l-2 -11h-385q-1 -9 -1.5 -18.5t-0.5 -19.5q0 -73 34 -114.5
t97 -41.5q66 0 115 34.5t70 97.5h60q-26 -86 -93 -134t-161 -48q-88 0 -135.5 52t-47.5 146q0 70 19.5 128t55 99.5t86 64t113.5 22.5zM313 453q-76 0 -127.5 -48.5t-68.5 -130.5h325q1 8 1.5 16t0.5 16q0 71 -34 109t-97 38zM346 666h-4l-83 -116h-54l89 125h102l51 -125
h-54z" />
    <glyph glyph-name="uni1EC4" unicode="&#x1ec4;" horiz-adv-x="612" 
d="M488 965q-20 0 -31 8t-19.5 17t-17 17t-22.5 8q-24 0 -38 -53h-45q9 48 32 74t64 26q19 0 30.5 -7.5t19.5 -17t16.5 -17t23.5 -7.5q25 0 39 52h45q-9 -48 -33 -74t-64 -26zM241 686l-49 -276h360l-9 -54h-360l-54 -302h407l-10 -54h-469l130 740h458l-9 -54h-395z
M438 908h-4l-83 -116h-54l89 125h102l51 -125h-54z" />
    <glyph glyph-name="uni1EC5" unicode="&#x1ec5;" horiz-adv-x="549" 
d="M396 723q-20 0 -31 8t-19.5 17t-17 17t-22.5 8q-24 0 -38 -53h-45q9 48 32 74t64 26q19 0 30.5 -7.5t19.5 -17t16.5 -17t23.5 -7.5q25 0 39 52h45q-9 -48 -33 -74t-64 -26zM322 502q88 0 136 -48t48 -136q0 -17 -2 -35t-6 -38l-2 -11h-385q-1 -9 -1.5 -18.5t-0.5 -19.5
q0 -73 34 -114.5t97 -41.5q66 0 115 34.5t70 97.5h60q-26 -86 -93 -134t-161 -48q-88 0 -135.5 52t-47.5 146q0 70 19.5 128t55 99.5t86 64t113.5 22.5zM313 453q-76 0 -127.5 -48.5t-68.5 -130.5h325q1 8 1.5 16t0.5 16q0 71 -34 109t-97 38zM346 666h-4l-83 -116h-54
l89 125h102l51 -125h-54z" />
    <glyph glyph-name="uni1EC6" unicode="&#x1ec6;" horiz-adv-x="612" 
d="M252 -105h60l-16 -96h-60zM241 686l-49 -276h360l-9 -54h-360l-54 -302h407l-10 -54h-469l130 740h458l-9 -54h-395zM438 908h-4l-83 -116h-54l89 125h102l51 -125h-54z" />
    <glyph glyph-name="uni1EC7" unicode="&#x1ec7;" horiz-adv-x="549" 
d="M192 -105h60l-16 -96h-60zM322 502q88 0 136 -48t48 -136q0 -17 -2 -35t-6 -38l-2 -11h-385q-1 -9 -1.5 -18.5t-0.5 -19.5q0 -73 34 -114.5t97 -41.5q66 0 115 34.5t70 97.5h60q-26 -86 -93 -134t-161 -48q-88 0 -135.5 52t-47.5 146q0 70 19.5 128t55 99.5t86 64
t113.5 22.5zM313 453q-76 0 -127.5 -48.5t-68.5 -130.5h325q1 8 1.5 16t0.5 16q0 71 -34 109t-97 38zM346 666h-4l-83 -116h-54l89 125h102l51 -125h-54z" />
    <glyph glyph-name="uni1EC8" unicode="&#x1ec8;" horiz-adv-x="262" 
d="M163 888q6 40 33 63.5t68 23.5q42 0 60 -20.5t12 -55.5q-8 -55 -78 -97h-56q36 19 59.5 42.5t27.5 49.5q4 19 -3.5 31t-30.5 12t-35 -13.5t-17 -35.5h-40zM187 740h62l-130 -740h-62z" />
    <glyph glyph-name="uni1EC9" unicode="&#x1ec9;" horiz-adv-x="224" 
d="M97 646q6 40 33 63.5t68 23.5q42 0 60 -20.5t12 -55.5q-8 -55 -78 -97h-56q36 19 59.5 42.5t27.5 49.5q4 19 -3.5 31t-30.5 12t-35 -13.5t-17 -35.5h-40zM185 492l-86 -492h-60l86 492h60z" />
    <glyph glyph-name="uni1ECA" unicode="&#x1eca;" horiz-adv-x="262" 
d="M40 -105h60l-16 -96h-60zM187 740h62l-130 -740h-62z" />
    <glyph glyph-name="uni1ECB" unicode="&#x1ecb;" horiz-adv-x="224" 
d="M22 -105h60l-16 -96h-60zM162 704h60l-16 -96h-60zM125 492h60l-86 -492h-60z" />
    <glyph glyph-name="uni1ECC" unicode="&#x1ecc;" horiz-adv-x="745" 
d="M293 -105h60l-16 -96h-60zM327 -10q-124 0 -189 77.5t-65 214.5q0 104 27.5 190.5t78 148t122 95.5t160.5 34q124 0 189.5 -77t65.5 -215q0 -104 -27.5 -190.5t-78.5 -148t-123 -95.5t-160 -34zM337 46q71 0 129 29.5t99 83t63 128t22 163.5q0 115 -50.5 179.5
t-147.5 64.5q-72 0 -130 -29.5t-99 -83t-63 -128t-22 -163.5q0 -115 51 -179.5t148 -64.5z" />
    <glyph glyph-name="uni1ECD" unicode="&#x1ecd;" horiz-adv-x="575" 
d="M198 -105h60l-16 -96h-60zM243 -10q-94 0 -144.5 53.5t-50.5 148.5q0 70 20 127t57.5 97.5t90 63t117.5 22.5q95 0 145 -53t50 -148q0 -70 -20 -127.5t-57 -98t-90 -63t-118 -22.5zM252 41q49 0 89 18.5t68 51.5t43 79.5t15 102.5q0 75 -37 117t-106 42
q-49 0 -88.5 -18.5t-67.5 -51.5t-43 -79.5t-15 -102.5q0 -75 36.5 -117t105.5 -42z" />
    <glyph glyph-name="uni1ECE" unicode="&#x1ece;" horiz-adv-x="745" 
d="M382 888q6 40 33 63.5t68 23.5q42 0 60 -20.5t12 -55.5q-8 -55 -78 -97h-56q36 19 59.5 42.5t27.5 49.5q4 19 -3.5 31t-30.5 12t-35 -13.5t-17 -35.5h-40zM327 -10q-124 0 -189 77.5t-65 214.5q0 104 27.5 190.5t78 148t122 95.5t160.5 34q124 0 189.5 -77t65.5 -215
q0 -104 -27.5 -190.5t-78.5 -148t-123 -95.5t-160 -34zM337 46q71 0 129 29.5t99 83t63 128t22 163.5q0 115 -50.5 179.5t-147.5 64.5q-72 0 -130 -29.5t-99 -83t-63 -128t-22 -163.5q0 -115 51 -179.5t148 -64.5z" />
    <glyph glyph-name="uni1ECF" unicode="&#x1ecf;" horiz-adv-x="575" 
d="M277 646q6 40 33 63.5t68 23.5q42 0 60 -20.5t12 -55.5q-8 -55 -78 -97h-56q36 19 59.5 42.5t27.5 49.5q4 19 -3.5 31t-30.5 12t-35 -13.5t-17 -35.5h-40zM243 -10q-94 0 -144.5 53.5t-50.5 148.5q0 70 20 127t57.5 97.5t90 63t117.5 22.5q95 0 145 -53t50 -148
q0 -70 -20 -127.5t-57 -98t-90 -63t-118 -22.5zM252 41q49 0 89 18.5t68 51.5t43 79.5t15 102.5q0 75 -37 117t-106 42q-49 0 -88.5 -18.5t-67.5 -51.5t-43 -79.5t-15 -102.5q0 -75 36.5 -117t105.5 -42z" />
    <glyph glyph-name="uni1ED0" unicode="&#x1ed0;" horiz-adv-x="745" 
d="M583 866l81 125h69l-98 -125h-52zM461 750q124 0 189.5 -77t65.5 -215q0 -104 -27.5 -190.5t-78.5 -148t-123 -95.5t-160 -34q-124 0 -189 77.5t-65 214.5q0 104 27.5 190.5t78 148t122 95.5t160.5 34zM337 46q71 0 129 29.5t99 83t63 128t22 163.5q0 115 -50.5 179.5
t-147.5 64.5q-72 0 -130 -29.5t-99 -83t-63 -128t-22 -163.5q0 -115 51 -179.5t148 -64.5zM478 908h-4l-83 -116h-54l89 125h102l51 -125h-54z" />
    <glyph glyph-name="uni1ED1" unicode="&#x1ed1;" horiz-adv-x="575" 
d="M462 624l81 125h69l-98 -125h-52zM333 502q95 0 145 -53t50 -148q0 -70 -20 -127.5t-57 -98t-90 -63t-118 -22.5q-94 0 -144.5 53.5t-50.5 148.5q0 70 20 127t57.5 97.5t90 63t117.5 22.5zM252 41q49 0 89 18.5t68 51.5t43 79.5t15 102.5q0 75 -37 117t-106 42
q-49 0 -88.5 -18.5t-67.5 -51.5t-43 -79.5t-15 -102.5q0 -75 36.5 -117t105.5 -42zM357 666h-4l-83 -116h-54l89 125h102l51 -125h-54z" />
    <glyph glyph-name="uni1ED2" unicode="&#x1ed2;" horiz-adv-x="745" 
d="M607 866l-60 125h67l43 -125h-50zM461 750q124 0 189.5 -77t65.5 -215q0 -104 -27.5 -190.5t-78.5 -148t-123 -95.5t-160 -34q-124 0 -189 77.5t-65 214.5q0 104 27.5 190.5t78 148t122 95.5t160.5 34zM337 46q71 0 129 29.5t99 83t63 128t22 163.5q0 115 -50.5 179.5
t-147.5 64.5q-72 0 -130 -29.5t-99 -83t-63 -128t-22 -163.5q0 -115 51 -179.5t148 -64.5zM478 908h-4l-83 -116h-54l89 125h102l51 -125h-54z" />
    <glyph glyph-name="uni1ED3" unicode="&#x1ed3;" horiz-adv-x="575" 
d="M486 624l-60 125h67l43 -125h-50zM333 502q95 0 145 -53t50 -148q0 -70 -20 -127.5t-57 -98t-90 -63t-118 -22.5q-94 0 -144.5 53.5t-50.5 148.5q0 70 20 127t57.5 97.5t90 63t117.5 22.5zM252 41q49 0 89 18.5t68 51.5t43 79.5t15 102.5q0 75 -37 117t-106 42
q-49 0 -88.5 -18.5t-67.5 -51.5t-43 -79.5t-15 -102.5q0 -75 36.5 -117t105.5 -42zM357 666h-4l-83 -116h-54l89 125h102l51 -125h-54z" />
    <glyph glyph-name="uni1ED4" unicode="&#x1ed4;" horiz-adv-x="745" 
d="M549 952q6 40 33 63.5t68 23.5q42 0 60 -20.5t12 -55.5q-8 -55 -78 -97h-56q36 19 59.5 42.5t27.5 49.5q4 19 -3.5 31t-30.5 12t-35 -13.5t-17 -35.5h-40zM461 750q124 0 189.5 -77t65.5 -215q0 -104 -27.5 -190.5t-78.5 -148t-123 -95.5t-160 -34q-124 0 -189 77.5
t-65 214.5q0 104 27.5 190.5t78 148t122 95.5t160.5 34zM337 46q71 0 129 29.5t99 83t63 128t22 163.5q0 115 -50.5 179.5t-147.5 64.5q-72 0 -130 -29.5t-99 -83t-63 -128t-22 -163.5q0 -115 51 -179.5t148 -64.5zM478 908h-4l-83 -116h-54l89 125h102l51 -125h-54z" />
    <glyph glyph-name="uni1ED5" unicode="&#x1ed5;" horiz-adv-x="575" 
d="M428 710q6 40 33 63.5t68 23.5q42 0 60 -20.5t12 -55.5q-8 -55 -78 -97h-56q36 19 59.5 42.5t27.5 49.5q4 19 -3.5 31t-30.5 12t-35 -13.5t-17 -35.5h-40zM333 502q95 0 145 -53t50 -148q0 -70 -20 -127.5t-57 -98t-90 -63t-118 -22.5q-94 0 -144.5 53.5t-50.5 148.5
q0 70 20 127t57.5 97.5t90 63t117.5 22.5zM252 41q49 0 89 18.5t68 51.5t43 79.5t15 102.5q0 75 -37 117t-106 42q-49 0 -88.5 -18.5t-67.5 -51.5t-43 -79.5t-15 -102.5q0 -75 36.5 -117t105.5 -42zM357 666h-4l-83 -116h-54l89 125h102l51 -125h-54z" />
    <glyph glyph-name="uni1ED6" unicode="&#x1ed6;" horiz-adv-x="745" 
d="M528 965q-20 0 -31 8t-19.5 17t-17 17t-22.5 8q-24 0 -38 -53h-45q9 48 32 74t64 26q19 0 30.5 -7.5t19.5 -17t16.5 -17t23.5 -7.5q25 0 39 52h45q-9 -48 -33 -74t-64 -26zM461 750q124 0 189.5 -77t65.5 -215q0 -104 -27.5 -190.5t-78.5 -148t-123 -95.5t-160 -34
q-124 0 -189 77.5t-65 214.5q0 104 27.5 190.5t78 148t122 95.5t160.5 34zM337 46q71 0 129 29.5t99 83t63 128t22 163.5q0 115 -50.5 179.5t-147.5 64.5q-72 0 -130 -29.5t-99 -83t-63 -128t-22 -163.5q0 -115 51 -179.5t148 -64.5zM478 908h-4l-83 -116h-54l89 125h102
l51 -125h-54z" />
    <glyph glyph-name="uni1ED7" unicode="&#x1ed7;" horiz-adv-x="575" 
d="M407 723q-20 0 -31 8t-19.5 17t-17 17t-22.5 8q-24 0 -38 -53h-45q9 48 32 74t64 26q19 0 30.5 -7.5t19.5 -17t16.5 -17t23.5 -7.5q25 0 39 52h45q-9 -48 -33 -74t-64 -26zM333 502q95 0 145 -53t50 -148q0 -70 -20 -127.5t-57 -98t-90 -63t-118 -22.5q-94 0 -144.5 53.5
t-50.5 148.5q0 70 20 127t57.5 97.5t90 63t117.5 22.5zM252 41q49 0 89 18.5t68 51.5t43 79.5t15 102.5q0 75 -37 117t-106 42q-49 0 -88.5 -18.5t-67.5 -51.5t-43 -79.5t-15 -102.5q0 -75 36.5 -117t105.5 -42zM357 666h-4l-83 -116h-54l89 125h102l51 -125h-54z" />
    <glyph glyph-name="uni1ED8" unicode="&#x1ed8;" horiz-adv-x="745" 
d="M293 -105h60l-16 -96h-60zM461 750q124 0 189.5 -77t65.5 -215q0 -104 -27.5 -190.5t-78.5 -148t-123 -95.5t-160 -34q-124 0 -189 77.5t-65 214.5q0 104 27.5 190.5t78 148t122 95.5t160.5 34zM337 46q71 0 129 29.5t99 83t63 128t22 163.5q0 115 -50.5 179.5
t-147.5 64.5q-72 0 -130 -29.5t-99 -83t-63 -128t-22 -163.5q0 -115 51 -179.5t148 -64.5zM478 908h-4l-83 -116h-54l89 125h102l51 -125h-54z" />
    <glyph glyph-name="uni1ED9" unicode="&#x1ed9;" horiz-adv-x="575" 
d="M198 -105h60l-16 -96h-60zM333 502q95 0 145 -53t50 -148q0 -70 -20 -127.5t-57 -98t-90 -63t-118 -22.5q-94 0 -144.5 53.5t-50.5 148.5q0 70 20 127t57.5 97.5t90 63t117.5 22.5zM252 41q49 0 89 18.5t68 51.5t43 79.5t15 102.5q0 75 -37 117t-106 42
q-49 0 -88.5 -18.5t-67.5 -51.5t-43 -79.5t-15 -102.5q0 -75 36.5 -117t105.5 -42zM357 666h-4l-83 -116h-54l89 125h102l51 -125h-54z" />
    <glyph glyph-name="uni1EDA" unicode="&#x1eda;" horiz-adv-x="745" 
d="M428 802l81 125h69l-98 -125h-52zM327 -10q-124 0 -189 77.5t-65 214.5q0 104 27.5 190.5t78 148t122 95.5t160.5 34q58 0 105 -18q21 4 40 23t27 70h61q-7 -42 -34 -71t-65 -37q60 -34 90.5 -99.5t30.5 -159.5q0 -104 -27.5 -190.5t-78.5 -148t-123 -95.5t-160 -34z
M337 46q71 0 129 29.5t99 83t63 128t22 163.5q0 115 -50.5 179.5t-147.5 64.5q-72 0 -130 -29.5t-99 -83t-63 -128t-22 -163.5q0 -115 51 -179.5t148 -64.5z" />
    <glyph glyph-name="uni1EDB" unicode="&#x1edb;" horiz-adv-x="575" 
d="M308 560l81 125h69l-98 -125h-52zM243 -10q-94 0 -144.5 53.5t-50.5 148.5q0 70 20 127t57.5 97.5t90 63t117.5 22.5q51 0 91 -17q19 6 35 25.5t24 66.5h61q-7 -40 -32.5 -68.5t-60.5 -38.5q77 -51 77 -169q0 -70 -20 -127.5t-57 -98t-90 -63t-118 -22.5zM252 41
q49 0 89 18.5t68 51.5t43 79.5t15 102.5q0 75 -37 117t-106 42q-49 0 -88.5 -18.5t-67.5 -51.5t-43 -79.5t-15 -102.5q0 -75 36.5 -117t105.5 -42z" />
    <glyph glyph-name="uni1EDC" unicode="&#x1edc;" horiz-adv-x="745" 
d="M447 802l-60 125h67l43 -125h-50zM327 -10q-124 0 -189 77.5t-65 214.5q0 104 27.5 190.5t78 148t122 95.5t160.5 34q58 0 105 -18q21 4 40 23t27 70h61q-7 -42 -34 -71t-65 -37q60 -34 90.5 -99.5t30.5 -159.5q0 -104 -27.5 -190.5t-78.5 -148t-123 -95.5t-160 -34z
M337 46q71 0 129 29.5t99 83t63 128t22 163.5q0 115 -50.5 179.5t-147.5 64.5q-72 0 -130 -29.5t-99 -83t-63 -128t-22 -163.5q0 -115 51 -179.5t148 -64.5z" />
    <glyph glyph-name="uni1EDD" unicode="&#x1edd;" horiz-adv-x="575" 
d="M322 560l-60 125h67l43 -125h-50zM243 -10q-94 0 -144.5 53.5t-50.5 148.5q0 70 20 127t57.5 97.5t90 63t117.5 22.5q51 0 91 -17q19 6 35 25.5t24 66.5h61q-7 -40 -32.5 -68.5t-60.5 -38.5q77 -51 77 -169q0 -70 -20 -127.5t-57 -98t-90 -63t-118 -22.5zM252 41
q49 0 89 18.5t68 51.5t43 79.5t15 102.5q0 75 -37 117t-106 42q-49 0 -88.5 -18.5t-67.5 -51.5t-43 -79.5t-15 -102.5q0 -75 36.5 -117t105.5 -42z" />
    <glyph glyph-name="uni1EDE" unicode="&#x1ede;" horiz-adv-x="745" 
d="M382 888q6 40 33 63.5t68 23.5q42 0 60 -20.5t12 -55.5q-8 -55 -78 -97h-56q36 19 59.5 42.5t27.5 49.5q4 19 -3.5 31t-30.5 12t-35 -13.5t-17 -35.5h-40zM327 -10q-124 0 -189 77.5t-65 214.5q0 104 27.5 190.5t78 148t122 95.5t160.5 34q58 0 105 -18q21 4 40 23t27 70
h61q-7 -42 -34 -71t-65 -37q60 -34 90.5 -99.5t30.5 -159.5q0 -104 -27.5 -190.5t-78.5 -148t-123 -95.5t-160 -34zM337 46q71 0 129 29.5t99 83t63 128t22 163.5q0 115 -50.5 179.5t-147.5 64.5q-72 0 -130 -29.5t-99 -83t-63 -128t-22 -163.5q0 -115 51 -179.5t148 -64.5z
" />
    <glyph glyph-name="uni1EDF" unicode="&#x1edf;" horiz-adv-x="575" 
d="M277 646q6 40 33 63.5t68 23.5q42 0 60 -20.5t12 -55.5q-8 -55 -78 -97h-56q36 19 59.5 42.5t27.5 49.5q4 19 -3.5 31t-30.5 12t-35 -13.5t-17 -35.5h-40zM243 -10q-94 0 -144.5 53.5t-50.5 148.5q0 70 20 127t57.5 97.5t90 63t117.5 22.5q51 0 91 -17q19 6 35 25.5
t24 66.5h61q-7 -40 -32.5 -68.5t-60.5 -38.5q77 -51 77 -169q0 -70 -20 -127.5t-57 -98t-90 -63t-118 -22.5zM252 41q49 0 89 18.5t68 51.5t43 79.5t15 102.5q0 75 -37 117t-106 42q-49 0 -88.5 -18.5t-67.5 -51.5t-43 -79.5t-15 -102.5q0 -75 36.5 -117t105.5 -42z" />
    <glyph glyph-name="uni1EE0" unicode="&#x1ee0;" horiz-adv-x="745" 
d="M511 805q-20 0 -31 8t-19.5 17t-17 17t-22.5 8q-24 0 -38 -53h-45q9 48 32 74t64 26q19 0 30.5 -7.5t19.5 -17t16.5 -17t23.5 -7.5q25 0 39 52h45q-9 -48 -33 -74t-64 -26zM327 -10q-124 0 -189 77.5t-65 214.5q0 104 27.5 190.5t78 148t122 95.5t160.5 34q58 0 105 -18
q21 4 40 23t27 70h61q-7 -42 -34 -71t-65 -37q60 -34 90.5 -99.5t30.5 -159.5q0 -104 -27.5 -190.5t-78.5 -148t-123 -95.5t-160 -34zM337 46q71 0 129 29.5t99 83t63 128t22 163.5q0 115 -50.5 179.5t-147.5 64.5q-72 0 -130 -29.5t-99 -83t-63 -128t-22 -163.5
q0 -115 51 -179.5t148 -64.5z" />
    <glyph glyph-name="uni1EE1" unicode="&#x1ee1;" horiz-adv-x="575" 
d="M387 578q-20 0 -31 8t-19.5 17t-17 17t-22.5 8q-24 0 -38 -53h-45q9 48 32 74t64 26q19 0 30.5 -7.5t19.5 -17t16.5 -17t23.5 -7.5q25 0 39 52h45q-9 -48 -33 -74t-64 -26zM243 -10q-94 0 -144.5 53.5t-50.5 148.5q0 70 20 127t57.5 97.5t90 63t117.5 22.5q51 0 91 -17
q19 6 35 25.5t24 66.5h61q-7 -40 -32.5 -68.5t-60.5 -38.5q77 -51 77 -169q0 -70 -20 -127.5t-57 -98t-90 -63t-118 -22.5zM252 41q49 0 89 18.5t68 51.5t43 79.5t15 102.5q0 75 -37 117t-106 42q-49 0 -88.5 -18.5t-67.5 -51.5t-43 -79.5t-15 -102.5q0 -75 36.5 -117
t105.5 -42z" />
    <glyph glyph-name="uni1EE2" unicode="&#x1ee2;" horiz-adv-x="745" 
d="M293 -105h60l-16 -96h-60zM327 -10q-124 0 -189 77.5t-65 214.5q0 104 27.5 190.5t78 148t122 95.5t160.5 34q58 0 105 -18q21 4 40 23t27 70h61q-7 -42 -34 -71t-65 -37q60 -34 90.5 -99.5t30.5 -159.5q0 -104 -27.5 -190.5t-78.5 -148t-123 -95.5t-160 -34zM337 46
q71 0 129 29.5t99 83t63 128t22 163.5q0 115 -50.5 179.5t-147.5 64.5q-72 0 -130 -29.5t-99 -83t-63 -128t-22 -163.5q0 -115 51 -179.5t148 -64.5z" />
    <glyph glyph-name="uni1EE3" unicode="&#x1ee3;" horiz-adv-x="575" 
d="M198 -105h60l-16 -96h-60zM243 -10q-94 0 -144.5 53.5t-50.5 148.5q0 70 20 127t57.5 97.5t90 63t117.5 22.5q51 0 91 -17q19 6 35 25.5t24 66.5h61q-7 -40 -32.5 -68.5t-60.5 -38.5q77 -51 77 -169q0 -70 -20 -127.5t-57 -98t-90 -63t-118 -22.5zM252 41q49 0 89 18.5
t68 51.5t43 79.5t15 102.5q0 75 -37 117t-106 42q-49 0 -88.5 -18.5t-67.5 -51.5t-43 -79.5t-15 -102.5q0 -75 36.5 -117t105.5 -42z" />
    <glyph glyph-name="uni1EE4" unicode="&#x1ee4;" horiz-adv-x="707" 
d="M261 -105h60l-16 -96h-60zM643 740h59l-85 -488q-22 -124 -103 -193t-206 -69q-107 0 -164 52t-57 146q0 31 6 64l86 488h63l-87 -493q-2 -14 -3.5 -25.5t-1.5 -22.5q0 -73 44 -113t125 -40q96 0 158 53t79 148z" />
    <glyph glyph-name="uni1EE5" unicode="&#x1ee5;" horiz-adv-x="562" 
d="M198 -105h60l-16 -96h-60zM523 492l-86 -492h-60l29 167h-2q-15 -84 -67.5 -130.5t-130.5 -46.5q-71 0 -108.5 37t-37.5 105q0 12 1.5 24.5t3.5 26.5l55 309h60l-54 -308q-2 -10 -3 -19.5t-1 -17.5q0 -51 29 -78.5t83 -27.5q71 0 118.5 47.5t63.5 133.5l47 270h60z" />
    <glyph glyph-name="uni1EE6" unicode="&#x1ee6;" horiz-adv-x="707" 
d="M382 888q6 40 33 63.5t68 23.5q42 0 60 -20.5t12 -55.5q-8 -55 -78 -97h-56q36 19 59.5 42.5t27.5 49.5q4 19 -3.5 31t-30.5 12t-35 -13.5t-17 -35.5h-40zM643 740h59l-85 -488q-22 -124 -103 -193t-206 -69q-107 0 -164 52t-57 146q0 31 6 64l86 488h63l-87 -493
q-2 -14 -3.5 -25.5t-1.5 -22.5q0 -73 44 -113t125 -40q96 0 158 53t79 148z" />
    <glyph glyph-name="uni1EE7" unicode="&#x1ee7;" horiz-adv-x="562" 
d="M252 646q6 40 33 63.5t68 23.5q42 0 60 -20.5t12 -55.5q-8 -55 -78 -97h-56q36 19 59.5 42.5t27.5 49.5q4 19 -3.5 31t-30.5 12t-35 -13.5t-17 -35.5h-40zM523 492l-86 -492h-60l29 167h-2q-15 -84 -67.5 -130.5t-130.5 -46.5q-71 0 -108.5 37t-37.5 105q0 12 1.5 24.5
t3.5 26.5l55 309h60l-54 -308q-2 -10 -3 -19.5t-1 -17.5q0 -51 29 -78.5t83 -27.5q71 0 118.5 47.5t63.5 133.5l47 270h60z" />
    <glyph glyph-name="uni1EE8" unicode="&#x1ee8;" horiz-adv-x="707" 
d="M403 802l81 125h69l-98 -125h-52zM643 740h10q12 1 24.5 5t23 14t19 28.5t13.5 47.5h61q-7 -40 -32.5 -69t-61.5 -38l-83 -476q-22 -124 -103 -193t-206 -69q-107 0 -164 52t-57 146q0 31 6 64l86 488h63l-87 -493q-2 -14 -3.5 -25.5t-1.5 -22.5q0 -73 44 -113t125 -40
q96 0 158 53t79 148z" />
    <glyph glyph-name="uni1EE9" unicode="&#x1ee9;" horiz-adv-x="562" 
d="M293 560l81 125h69l-98 -125h-52zM465 492q13 0 26 3t25 13t21.5 28.5t14.5 50.5h61q-7 -39 -32 -67.5t-60 -38.5l-84 -481h-60l29 167h-2q-15 -84 -67.5 -130.5t-130.5 -46.5q-71 0 -108.5 37t-37.5 105q0 12 1.5 24.5t3.5 26.5l55 309h60l-54 -308q-2 -10 -3 -19.5
t-1 -17.5q0 -51 29 -78.5t83 -27.5q71 0 118.5 47.5t63.5 133.5l47 270h2z" />
    <glyph glyph-name="uni1EEA" unicode="&#x1eea;" horiz-adv-x="707" 
d="M449 802l-60 125h67l43 -125h-50zM643 740h10q12 1 24.5 5t23 14t19 28.5t13.5 47.5h61q-7 -40 -32.5 -69t-61.5 -38l-83 -476q-22 -124 -103 -193t-206 -69q-107 0 -164 52t-57 146q0 31 6 64l86 488h63l-87 -493q-2 -14 -3.5 -25.5t-1.5 -22.5q0 -73 44 -113t125 -40
q96 0 158 53t79 148z" />
    <glyph glyph-name="uni1EEB" unicode="&#x1eeb;" horiz-adv-x="562" 
d="M321 560l-60 125h67l43 -125h-50zM465 492q13 0 26 3t25 13t21.5 28.5t14.5 50.5h61q-7 -39 -32 -67.5t-60 -38.5l-84 -481h-60l29 167h-2q-15 -84 -67.5 -130.5t-130.5 -46.5q-71 0 -108.5 37t-37.5 105q0 12 1.5 24.5t3.5 26.5l55 309h60l-54 -308q-2 -10 -3 -19.5
t-1 -17.5q0 -51 29 -78.5t83 -27.5q71 0 118.5 47.5t63.5 133.5l47 270h2z" />
    <glyph glyph-name="uni1EEC" unicode="&#x1eec;" horiz-adv-x="707" 
d="M382 888q6 40 33 63.5t68 23.5q42 0 60 -20.5t12 -55.5q-8 -55 -78 -97h-56q36 19 59.5 42.5t27.5 49.5q4 19 -3.5 31t-30.5 12t-35 -13.5t-17 -35.5h-40zM643 740h10q12 1 24.5 5t23 14t19 28.5t13.5 47.5h61q-7 -40 -32.5 -69t-61.5 -38l-83 -476q-22 -124 -103 -193
t-206 -69q-107 0 -164 52t-57 146q0 31 6 64l86 488h63l-87 -493q-2 -14 -3.5 -25.5t-1.5 -22.5q0 -73 44 -113t125 -40q96 0 158 53t79 148z" />
    <glyph glyph-name="uni1EED" unicode="&#x1eed;" horiz-adv-x="562" 
d="M252 646q6 40 33 63.5t68 23.5q42 0 60 -20.5t12 -55.5q-8 -55 -78 -97h-56q36 19 59.5 42.5t27.5 49.5q4 19 -3.5 31t-30.5 12t-35 -13.5t-17 -35.5h-40zM465 492q13 0 26 3t25 13t21.5 28.5t14.5 50.5h61q-7 -39 -32 -67.5t-60 -38.5l-84 -481h-60l29 167h-2
q-15 -84 -67.5 -130.5t-130.5 -46.5q-71 0 -108.5 37t-37.5 105q0 12 1.5 24.5t3.5 26.5l55 309h60l-54 -308q-2 -10 -3 -19.5t-1 -17.5q0 -51 29 -78.5t83 -27.5q71 0 118.5 47.5t63.5 133.5l47 270h2z" />
    <glyph glyph-name="uni1EEE" unicode="&#x1eee;" horiz-adv-x="707" 
d="M490 805q-20 0 -31 8t-19.5 17t-17 17t-22.5 8q-24 0 -38 -53h-45q9 48 32 74t64 26q19 0 30.5 -7.5t19.5 -17t16.5 -17t23.5 -7.5q25 0 39 52h45q-9 -48 -33 -74t-64 -26zM643 740h10q12 1 24.5 5t23 14t19 28.5t13.5 47.5h61q-7 -40 -32.5 -69t-61.5 -38l-83 -476
q-22 -124 -103 -193t-206 -69q-107 0 -164 52t-57 146q0 31 6 64l86 488h63l-87 -493q-2 -14 -3.5 -25.5t-1.5 -22.5q0 -73 44 -113t125 -40q96 0 158 53t79 148z" />
    <glyph glyph-name="uni1EEF" unicode="&#x1eef;" horiz-adv-x="562" 
d="M367 563q-20 0 -31 8t-19.5 17t-17 17t-22.5 8q-24 0 -38 -53h-45q9 48 32 74t64 26q19 0 30.5 -7.5t19.5 -17t16.5 -17t23.5 -7.5q25 0 39 52h45q-9 -48 -33 -74t-64 -26zM465 492q13 0 26 3t25 13t21.5 28.5t14.5 50.5h61q-7 -39 -32 -67.5t-60 -38.5l-84 -481h-60
l29 167h-2q-15 -84 -67.5 -130.5t-130.5 -46.5q-71 0 -108.5 37t-37.5 105q0 12 1.5 24.5t3.5 26.5l55 309h60l-54 -308q-2 -10 -3 -19.5t-1 -17.5q0 -51 29 -78.5t83 -27.5q71 0 118.5 47.5t63.5 133.5l47 270h2z" />
    <glyph glyph-name="uni1EF0" unicode="&#x1ef0;" horiz-adv-x="707" 
d="M261 -105h60l-16 -96h-60zM643 740h10q12 1 24.5 5t23 14t19 28.5t13.5 47.5h61q-7 -40 -32.5 -69t-61.5 -38l-83 -476q-22 -124 -103 -193t-206 -69q-107 0 -164 52t-57 146q0 31 6 64l86 488h63l-87 -493q-2 -14 -3.5 -25.5t-1.5 -22.5q0 -73 44 -113t125 -40
q96 0 158 53t79 148z" />
    <glyph glyph-name="uni1EF1" unicode="&#x1ef1;" horiz-adv-x="562" 
d="M198 -105h60l-16 -96h-60zM465 492q13 0 26 3t25 13t21.5 28.5t14.5 50.5h61q-7 -39 -32 -67.5t-60 -38.5l-84 -481h-60l29 167h-2q-15 -84 -67.5 -130.5t-130.5 -46.5q-71 0 -108.5 37t-37.5 105q0 12 1.5 24.5t3.5 26.5l55 309h60l-54 -308q-2 -10 -3 -19.5t-1 -17.5
q0 -51 29 -78.5t83 -27.5q71 0 118.5 47.5t63.5 133.5l47 270h2z" />
    <glyph glyph-name="Ygrave" unicode="&#x1ef2;" horiz-adv-x="638" 
d="M729 740l-514 -740h-71l185 269h-62l-163 471h75l158 -464h2l320 464h70zM400 802l-60 125h67l43 -125h-50z" />
    <glyph glyph-name="ygrave" unicode="&#x1ef3;" horiz-adv-x="511" 
d="M530 492l-379 -722h-65l121 230h-52l-85 492h65l79 -487h2l249 487h65zM286 560l-60 125h67l43 -125h-50z" />
    <glyph glyph-name="uni1EF4" unicode="&#x1ef4;" horiz-adv-x="638" 
d="M131 -105h60l-16 -96h-60zM729 740l-514 -740h-71l185 269h-62l-163 471h75l158 -464h2l320 464h70z" />
    <glyph glyph-name="uni1EF5" unicode="&#x1ef5;" horiz-adv-x="511" 
d="M298 -105h60l-16 -96h-60zM530 492l-379 -722h-65l121 230h-52l-85 492h65l79 -487h2l249 487h65z" />
    <glyph glyph-name="uni1EF6" unicode="&#x1ef6;" horiz-adv-x="638" 
d="M352 888q6 40 33 63.5t68 23.5q42 0 60 -20.5t12 -55.5q-8 -55 -78 -97h-56q36 19 59.5 42.5t27.5 49.5q4 19 -3.5 31t-30.5 12t-35 -13.5t-17 -35.5h-40zM729 740l-514 -740h-71l185 269h-62l-163 471h75l158 -464h2l320 464h70z" />
    <glyph glyph-name="uni1EF7" unicode="&#x1ef7;" horiz-adv-x="511" 
d="M242 646q6 40 33 63.5t68 23.5q42 0 60 -20.5t12 -55.5q-8 -55 -78 -97h-56q36 19 59.5 42.5t27.5 49.5q4 19 -3.5 31t-30.5 12t-35 -13.5t-17 -35.5h-40zM530 492l-379 -722h-65l121 230h-52l-85 492h65l79 -487h2l249 487h65z" />
    <glyph glyph-name="uni1EF8" unicode="&#x1ef8;" horiz-adv-x="638" 
d="M460 805q-20 0 -31 8t-19.5 17t-17 17t-22.5 8q-24 0 -38 -53h-45q9 48 32 74t64 26q19 0 30.5 -7.5t19.5 -17t16.5 -17t23.5 -7.5q25 0 39 52h45q-9 -48 -33 -74t-64 -26zM729 740l-514 -740h-71l185 269h-62l-163 471h75l158 -464h2l320 464h70z" />
    <glyph glyph-name="uni1EF9" unicode="&#x1ef9;" horiz-adv-x="511" 
d="M352 563q-20 0 -31 8t-19.5 17t-17 17t-22.5 8q-24 0 -38 -53h-45q9 48 32 74t64 26q19 0 30.5 -7.5t19.5 -17t16.5 -17t23.5 -7.5q25 0 39 52h45q-9 -48 -33 -74t-64 -26zM530 492l-379 -722h-65l121 230h-52l-85 492h65l79 -487h2l249 487h65z" />
    <glyph glyph-name="endash" unicode="&#x2013;" horiz-adv-x="571" 
d="M504 269l-6 -38h-429l6 38h429z" />
    <glyph glyph-name="emdash" unicode="&#x2014;" horiz-adv-x="855" 
d="M788 269l-6 -38h-713l6 38h713z" />
    <glyph glyph-name="quoteleft" unicode="&#x2018;" horiz-adv-x="202" 
d="M218 700q-36 -13 -60 -38t-32 -57h74l-13 -74h-78l11 65q9 51 36.5 90.5t69.5 59.5l-8 -46v0z" />
    <glyph glyph-name="quoteright" unicode="&#x2019;" horiz-adv-x="196" 
d="M230 740l-11 -65q-9 -51 -36.5 -90.5t-69.5 -59.5l8 46q36 13 60 38t32 57h-74l13 74h78z" />
    <glyph glyph-name="quotesinglbase" unicode="&#x201a;" horiz-adv-x="210" 
d="M123 74l-11 -65q-9 -51 -36.5 -90.5t-69.5 -59.5l8 46q36 13 60 38t32 57h-74l13 74h78z" />
    <glyph glyph-name="quotedblleft" unicode="&#x201c;" horiz-adv-x="330" 
d="M120 596q9 51 36.5 90.5t69.5 59.5l-8 -46q-36 -13 -60 -38t-32 -57h74l-13 -74h-78zM346 700q-36 -13 -60 -38t-32 -57h74l-13 -74h-78l11 65q9 51 36.5 90.5t69.5 59.5z" />
    <glyph glyph-name="quotedblright" unicode="&#x201d;" horiz-adv-x="324" 
d="M152 740h78l-11 -65q-9 -51 -36.5 -90.5t-69.5 -59.5l8 46q36 13 60 38t32 57h-74zM358 740l-11 -65q-9 -51 -36.5 -90.5t-69.5 -59.5l8 46q36 13 60 38t32 57h-74l13 74h78z" />
    <glyph glyph-name="quotedblbase" unicode="&#x201e;" horiz-adv-x="338" 
d="M45 74h78l-11 -65q-9 -51 -36.5 -90.5t-69.5 -59.5l8 46q36 13 60 38t32 57h-74zM251 74l-11 -65q-9 -51 -36.5 -90.5t-69.5 -59.5l8 46q36 13 60 38t32 57h-74l13 74h78z" />
    <glyph glyph-name="dagger" unicode="&#x2020;" horiz-adv-x="377" 
d="M395 655l-7 -40h-113l-44 -250h-46l28 159q5 32 20 55t38 34v2h-153l7 40h113l21 115h46l-21 -115h111z" />
    <glyph glyph-name="daggerdbl" unicode="&#x2021;" horiz-adv-x="377" 
d="M275 615l-17 -95h113l-7 -40h-113l-20 -115h-46l5 24q5 32 20 55t37 34v2h-152l7 40h110l1 4q5 32 20 55t38 34v2h-153l7 40h113l21 115h46l-21 -115h111l-7 -40h-113z" />
    <glyph glyph-name="bullet" unicode="&#x2022;" horiz-adv-x="336" 
d="M113 365h151l-25 -139h-151z" />
    <glyph glyph-name="ellipsis" unicode="&#x2026;" horiz-adv-x="573" 
d="M119 74l-13 -74h-78l12 74h79zM299 74l-13 -74h-78l12 74h79zM478 74l-13 -74h-78l12 74h79z" />
    <glyph glyph-name="perthousand" unicode="&#x2030;" horiz-adv-x="1014" 
d="M661 750l28 -24l-603 -736l-28 24zM199 360q-52 0 -79.5 36t-27.5 101q0 51 12.5 94t35 73.5t54.5 48t71 17.5q52 0 79.5 -36t27.5 -101q0 -51 -12.5 -94t-35 -73.5t-54.5 -48t-71 -17.5zM207 403q25 0 45.5 14.5t35 39.5t22.5 59t8 73q0 46 -15.5 72t-45.5 26
q-25 0 -45.5 -14.5t-35.5 -39t-23 -58.5t-8 -73q0 -46 16 -72.5t46 -26.5zM482 -10q-53 0 -80 36t-27 101q0 51 12 94t34.5 73.5t54.5 48t71 17.5q53 0 80 -36t27 -101q0 -51 -12 -94t-34.5 -73.5t-54.5 -48t-71 -17.5zM800 -10q-53 0 -80.5 36t-27.5 101q0 51 12.5 94
t35 73.5t54.5 48t71 17.5q52 0 79.5 -36t27.5 -101q0 -51 -12.5 -94t-35 -73.5t-54 -48t-70.5 -17.5zM489 33q25 0 45.5 14.5t35.5 39.5t23 59t8 73q0 46 -15.5 72t-45.5 26q-25 0 -45.5 -14.5t-35.5 -39t-23 -58.5t-8 -73q0 -46 16 -72.5t45 -26.5zM807 33q25 0 45.5 14
t35.5 39t23 59t8 73q0 46 -15.5 72.5t-46.5 26.5q-24 0 -44.5 -14t-35.5 -39t-23 -59t-8 -73q0 -46 16 -72.5t45 -26.5z" />
    <glyph glyph-name="guilsinglleft" unicode="&#x2039;" horiz-adv-x="273" 
d="M207 443h49l-160 -193l92 -193h-49l-94 193z" />
    <glyph glyph-name="guilsinglright" unicode="&#x203a;" horiz-adv-x="273" 
d="M68 57h-49l160 193l-92 193h49l94 -193z" />
    <glyph glyph-name="fraction" unicode="&#x2044;" horiz-adv-x="204" 
d="M412 750l28 -24l-603 -736l-28 24z" />
    <glyph glyph-name="uni2070" unicode="&#x2070;" horiz-adv-x="397" 
d="M218 352q-63 0 -96 44.5t-33 124.5q0 63 15 115.5t42.5 91t66 59.5t85.5 21q63 0 95.5 -44.5t32.5 -124.5q0 -63 -15 -115.5t-42 -91t-65.5 -59.5t-85.5 -21zM225 396q33 0 60 18.5t46 51t29.5 76.5t10.5 94q0 60 -20.5 94t-60.5 34q-33 0 -60 -18.5t-46 -51t-29.5 -76.5
t-10.5 -94q0 -60 20.5 -94t60.5 -34z" />
    <glyph glyph-name="uni2074" unicode="&#x2074;" horiz-adv-x="363" 
d="M383 472h-58l-20 -114h-53l20 114h-214l8 48l217 282h100l-50 -287h58zM116 515h165l49 281h-2l-212 -279v-2z" />
    <glyph glyph-name="uni2075" unicode="&#x2075;" horiz-adv-x="364" 
d="M199 352q-61 0 -95 31t-34 87v11h52q0 -39 22 -62t63 -23q57 0 90 35t33 94q0 39 -21.5 61.5t-63.5 22.5q-39 0 -67 -21t-44 -54l-50 7l80 261h237l-7 -43h-189l-70 -214h2q17 51 54 78.5t87 27.5q52 0 80 -30.5t28 -84.5q0 -85 -50.5 -134.5t-136.5 -49.5z" />
    <glyph glyph-name="uni2076" unicode="&#x2076;" horiz-adv-x="385" 
d="M369 678q1 5 1 7v5q0 35 -19 54.5t-54 19.5q-55 0 -94 -51t-56 -142l-7 -43h2q10 54 48.5 85t98.5 31q56 0 85 -29.5t29 -81.5q0 -41 -14 -74.5t-39 -57t-59 -36.5t-74 -13q-66 0 -98.5 39.5t-32.5 115.5q0 65 15.5 120t44 95.5t69 63t89.5 22.5q57 0 87 -29.5t30 -82.5
v-18h-52zM258 600q-56 0 -88.5 -30.5t-32.5 -84.5q0 -41 23 -65t62 -24q57 0 91 34t34 90q0 38 -23 59t-66 21zM133 500q0 2 0.5 3t0.5 3q0 -2 -0.5 -3t-0.5 -3z" />
    <glyph glyph-name="uni2077" unicode="&#x2077;" horiz-adv-x="321" 
d="M408 802l-7 -40q-36 -9 -68.5 -37.5t-59 -74t-47.5 -106.5t-34 -135l-9 -51h-56l7 42q14 78 37.5 141.5t54.5 109t69 73t81 33.5v2h-278l8 43h302z" />
    <glyph glyph-name="uni2078" unicode="&#x2078;" horiz-adv-x="379" 
d="M294 607q46 -8 71 -35t25 -69q0 -69 -48.5 -110t-133.5 -41q-66 0 -101 29t-35 80q0 60 37.5 98t102.5 48v2q-42 0 -64.5 20t-22.5 55q0 57 44 90.5t119 33.5q60 0 92.5 -24t32.5 -67q0 -49 -32.5 -78.5t-86.5 -29.5v-2zM177 670q0 -32 19.5 -49t55.5 -17q48 0 76 25.5
t28 68.5q0 31 -20 48.5t-56 17.5q-47 0 -75 -25.5t-28 -68.5zM215 396q56 0 87.5 27.5t31.5 74.5q0 70 -88 70q-55 0 -87 -26.5t-32 -73.5q0 -34 23 -53t65 -19z" />
    <glyph glyph-name="uni2079" unicode="&#x2079;" horiz-adv-x="383" 
d="M287 808q66 0 97 -39.5t31 -114.5q0 -65 -15.5 -120.5t-44 -96t-68.5 -63t-89 -22.5q-56 0 -85.5 31t-29.5 87v11.5t1 12.5h51q-1 -5 -1 -9v-9q0 -38 18.5 -59t52.5 -21q54 0 93.5 51t55.5 142l9 49h-2q-10 -52 -48 -81t-98 -29q-56 0 -85.5 28.5t-29.5 79.5q0 39 14 71
t39 54.5t59 34.5t75 12zM245 572q56 0 88.5 28t32.5 79q0 40 -23.5 62.5t-62.5 22.5q-57 0 -90.5 -31.5t-33.5 -85.5q0 -35 23 -55t66 -20zM369 667q0 -2 -0.5 -3.5t-0.5 -3.5q0 2 0.5 3.5t0.5 3.5z" />
    <glyph glyph-name="uni2080" unicode="&#x2080;" horiz-adv-x="397" 
d="M135 -116q-63 0 -96 44.5t-33 124.5q0 63 15 115.5t42.5 91t66 59.5t85.5 21q63 0 95.5 -44.5t32.5 -124.5q0 -63 -15 -115.5t-42 -91t-65.5 -59.5t-85.5 -21zM142 -72q33 0 60 18.5t46 51t29.5 76.5t10.5 94q0 60 -20.5 94t-60.5 34q-33 0 -60 -18.5t-46 -51
t-29.5 -76.5t-10.5 -94q0 -60 20.5 -94t60.5 -34z" />
    <glyph glyph-name="uni2081" unicode="&#x2081;" horiz-adv-x="215" 
d="M168 334l-78 -444h-53l75 423h-2q-7 -39 -33 -61t-65 -22l8 45q40 0 65 15.5t30 43.5h53z" />
    <glyph glyph-name="uni2082" unicode="&#x2082;" horiz-adv-x="364" 
d="M-1 -67h282l-7 -43h-308l7 40q67 18 121 47t91.5 66t57.5 81t20 91q0 38 -19 59.5t-54 21.5q-43 0 -74 -31t-43 -86h-52q18 76 64 118.5t113 42.5q59 0 90.5 -31t31.5 -88q0 -55 -22.5 -102.5t-64 -84.5t-101 -62.5t-133.5 -36.5v-2z" />
    <glyph glyph-name="uni2083" unicode="&#x2083;" horiz-adv-x="363" 
d="M157 138q65 0 100 -28t35 -77q0 -69 -48 -109t-132 -40q-60 0 -92.5 30.5t-32.5 86.5q0 7 0.5 13t1.5 14h51q-1 -5 -1.5 -10.5t-0.5 -10.5q0 -38 21 -59t61 -21q54 0 85 27.5t31 72.5q0 33 -23 52t-67 19h-13l7 41q57 7 89 31.5t32 65.5q0 29 -20 45t-56 16
q-40 0 -68.5 -27t-39.5 -75h-50q17 69 61 107t110 38q58 0 89 -23t31 -64q0 -53 -43 -83t-118 -30v-2v0z" />
    <glyph glyph-name="uni2084" unicode="&#x2084;" horiz-adv-x="363" 
d="M301 4h-58l-20 -114h-53l20 114h-214l8 48l217 282h100l-50 -287h58zM34 47h165l49 281h-2l-212 -279v-2z" />
    <glyph glyph-name="uni2085" unicode="&#x2085;" horiz-adv-x="364" 
d="M117 -116q-61 0 -95 31t-34 87v11h52q0 -39 22 -62t63 -23q57 0 90 35t33 94q0 39 -21.5 61.5t-63.5 22.5q-39 0 -67 -21t-44 -54l-50 7l80 261h237l-7 -43h-189l-70 -214h2q17 51 54 78.5t87 27.5q52 0 80 -30.5t28 -84.5q0 -85 -50.5 -134.5t-136.5 -49.5z" />
    <glyph glyph-name="uni2086" unicode="&#x2086;" horiz-adv-x="385" 
d="M286 210q1 5 1 7v5q0 35 -19 54.5t-54 19.5q-55 0 -94 -51t-56 -142l-7 -43h2q10 54 48.5 85t98.5 31q56 0 85 -29.5t29 -81.5q0 -41 -14 -74.5t-39 -57t-59 -36.5t-74 -13q-66 0 -98.5 39.5t-32.5 115.5q0 65 15.5 120t44 95.5t69 63t89.5 22.5q57 0 87 -29.5t30 -82.5
v-18h-52zM175 132q-56 0 -88.5 -30.5t-32.5 -84.5q0 -41 23 -65t62 -24q57 0 91 34t34 90q0 38 -23 59t-66 21zM50 32q0 2 0.5 3t0.5 3q0 -2 -0.5 -3t-0.5 -3z" />
    <glyph glyph-name="uni2087" unicode="&#x2087;" horiz-adv-x="321" 
d="M326 334l-7 -40q-36 -9 -68.5 -37.5t-59 -74t-47.5 -106.5t-34 -135l-9 -51h-56l7 42q14 78 37.5 141.5t54.5 109t69 73t81 33.5v2h-278l8 43h302z" />
    <glyph glyph-name="uni2088" unicode="&#x2088;" horiz-adv-x="379" 
d="M212 139q46 -8 71 -35t25 -69q0 -69 -48.5 -110t-133.5 -41q-66 0 -101 29t-35 80q0 60 37.5 98t102.5 48v2q-42 0 -64.5 20t-22.5 55q0 57 44 90.5t119 33.5q60 0 92.5 -24t32.5 -67q0 -49 -32.5 -78.5t-86.5 -29.5v-2zM95 202q0 -32 19.5 -49t55.5 -17q48 0 76 25.5
t28 68.5q0 31 -20 48.5t-56 17.5q-47 0 -75 -25.5t-28 -68.5zM133 -72q56 0 87.5 27.5t31.5 74.5q0 70 -88 70q-55 0 -87 -26.5t-32 -73.5q0 -34 23 -53t65 -19z" />
    <glyph glyph-name="uni2089" unicode="&#x2089;" horiz-adv-x="383" 
d="M204 340q66 0 97 -39.5t31 -114.5q0 -65 -15.5 -120.5t-44 -96t-68.5 -63t-89 -22.5q-56 0 -85.5 31t-29.5 87v11.5t1 12.5h51q-1 -5 -1 -9v-9q0 -38 18.5 -59t52.5 -21q54 0 93.5 51t55.5 142l9 49h-2q-10 -52 -48 -81t-98 -29q-56 0 -85.5 28.5t-29.5 79.5q0 39 14 71
t39 54.5t59 34.5t75 12zM162 104q56 0 88.5 28t32.5 79q0 40 -23.5 62.5t-62.5 22.5q-57 0 -90.5 -31.5t-33.5 -85.5q0 -35 23 -55t66 -20zM286 199q0 -2 -0.5 -3.5t-0.5 -3.5q0 2 0.5 3.5t0.5 3.5z" />
    <glyph glyph-name="Euro" unicode="&#x20ac;" horiz-adv-x="637" 
d="M473 694q-50 0 -93.5 -17t-79 -48.5t-61.5 -76.5t-41 -100h295l-31 -42h-274q-4 -17 -6 -35.5t-4 -37.5h232l-30 -42h-204v-10q0 -112 46.5 -175.5t135.5 -63.5q45 0 97.5 17t99.5 55l20 -47q-50 -38 -111.5 -59.5t-115.5 -21.5q-116 0 -176.5 76t-60.5 210v19h-65l7 41
h60q2 20 4.5 38t5.5 36h-57l8 41h58q18 69 50.5 124t77.5 94t101 60t121 21q53 0 102.5 -15t83.5 -44l-37 -48q-29 26 -72 38.5t-86 12.5z" />
    <glyph glyph-name="trademark" unicode="&#x2122;" horiz-adv-x="675" 
d="M244 741l-47 -267h-37l47 267h-90l5 29h217l-5 -29h-90zM681 770l-43 -296h-35l42 291h-2l-134 -291h-64l-28 291h-2l-60 -291h-33l61 296h69l25 -291h2l133 291h69z" />
    <glyph glyph-name="oneeighth" unicode="&#x215b;" horiz-adv-x="784" 
d="M206 731q-7 -39 -33 -61t-65 -22l8 45q40 0 65 15.5t30 43.5h53l-78 -444h-53l75 423h-2zM652 726l-603 -736l-28 24l603 736zM629 249q46 -8 71 -35t25 -69q0 -69 -48.5 -110t-133.5 -41q-66 0 -101 29t-35 80q0 60 37.5 98t102.5 48v2q-42 0 -64.5 20t-22.5 55
q0 57 44 90.5t119 33.5q60 0 92.5 -24t32.5 -67q0 -49 -32.5 -78.5t-86.5 -29.5v-2zM512 312q0 -32 19.5 -49t55.5 -17q48 0 76 25.5t28 68.5q0 31 -20 48.5t-56 17.5q-47 0 -75 -25.5t-28 -68.5zM550 38q56 0 87.5 27.5t31.5 74.5q0 70 -88 70q-55 0 -87 -26.5t-32 -73.5
q0 -34 23 -53t65 -19z" />
    <glyph glyph-name="threeeighths" unicode="&#x215c;" horiz-adv-x="921" 
d="M375 451q0 -69 -48 -109t-132 -40q-60 0 -92.5 30.5t-32.5 86.5q0 7 0.5 13t1.5 14h51q-1 -5 -1.5 -10.5t-0.5 -10.5q0 -38 21 -59t61 -21q54 0 85 27.5t31 72.5q0 33 -23 52t-67 19h-13l7 41q57 7 89 31.5t32 65.5q0 29 -20 45t-56 16q-40 0 -68.5 -27t-39.5 -75h-50
q17 69 61 107t110 38q58 0 89 -23t31 -64q0 -53 -43 -83t-118 -30v-2q65 0 100 -28t35 -77zM789 726l-603 -736l-28 24l603 736zM766 249q46 -8 71 -35t25 -69q0 -69 -48.5 -110t-133.5 -41q-66 0 -101 29t-35 80q0 60 37.5 98t102.5 48v2q-42 0 -64.5 20t-22.5 55
q0 57 44 90.5t119 33.5q60 0 92.5 -24t32.5 -67q0 -49 -32.5 -78.5t-86.5 -29.5v-2zM649 312q0 -32 19.5 -49t55.5 -17q48 0 76 25.5t28 68.5q0 31 -20 48.5t-56 17.5q-47 0 -75 -25.5t-28 -68.5zM687 38q56 0 87.5 27.5t31.5 74.5q0 70 -88 70q-55 0 -87 -26.5t-32 -73.5
q0 -34 23 -53t65 -19z" />
    <glyph glyph-name="fiveeighths" unicode="&#x215d;" horiz-adv-x="926" 
d="M387 486q0 -85 -50.5 -134.5t-136.5 -49.5q-61 0 -95 31t-34 87v11h52q0 -39 22 -62t63 -23q57 0 90 35t33 94q0 39 -21.5 61.5t-63.5 22.5q-39 0 -67 -21t-44 -54l-50 7l80 261h237l-7 -43h-189l-70 -214h2q17 51 54 78.5t87 27.5q52 0 80 -30.5t28 -84.5zM795 726
l-603 -736l-28 24l603 736zM772 249q46 -8 71 -35t25 -69q0 -69 -48.5 -110t-133.5 -41q-66 0 -101 29t-35 80q0 60 37.5 98t102.5 48v2q-42 0 -64.5 20t-22.5 55q0 57 44 90.5t119 33.5q60 0 92.5 -24t32.5 -67q0 -49 -32.5 -78.5t-86.5 -29.5v-2zM655 312q0 -32 19.5 -49
t55.5 -17q48 0 76 25.5t28 68.5q0 31 -20 48.5t-56 17.5q-47 0 -75 -25.5t-28 -68.5zM693 38q56 0 87.5 27.5t31.5 74.5q0 70 -88 70q-55 0 -87 -26.5t-32 -73.5q0 -34 23 -53t65 -19z" />
    <glyph glyph-name="seveneighths" unicode="&#x215e;" horiz-adv-x="906" 
d="M385 709h-278l8 43h302l-7 -40q-36 -9 -68.5 -37.5t-59 -74t-47.5 -106.5t-34 -135l-9 -51h-56l7 42q14 78 37.5 141.5t54.5 109t69 73t81 33.5v2zM765 726l-603 -736l-28 24l603 736zM742 249q46 -8 71 -35t25 -69q0 -69 -48.5 -110t-133.5 -41q-66 0 -101 29t-35 80
q0 60 37.5 98t102.5 48v2q-42 0 -64.5 20t-22.5 55q0 57 44 90.5t119 33.5q60 0 92.5 -24t32.5 -67q0 -49 -32.5 -78.5t-86.5 -29.5v-2zM625 312q0 -32 19.5 -49t55.5 -17q48 0 76 25.5t28 68.5q0 31 -20 48.5t-56 17.5q-47 0 -75 -25.5t-28 -68.5zM663 38q56 0 87.5 27.5
t31.5 74.5q0 70 -88 70q-55 0 -87 -26.5t-32 -73.5q0 -34 23 -53t65 -19z" />
    <glyph glyph-name="partialdiff" unicode="&#x2202;" horiz-adv-x="642" 
d="M401 750q106 0 161 -74.5t55 -206.5q0 -109 -28.5 -197.5t-81.5 -151t-127.5 -96.5t-165.5 -34q-94 0 -144.5 37.5t-50.5 105.5q0 57 36.5 101.5t104.5 75.5t166 47t220 16q6 42 6 89q0 109 -41.5 170.5t-122.5 61.5q-75 0 -128.5 -37.5t-73.5 -105.5h-63
q29 94 101.5 146.5t176.5 52.5zM225 46q65 0 119.5 22.5t95.5 65t68 102.5t38 135q-107 0 -192.5 -15.5t-145 -44t-91.5 -70t-32 -93.5q0 -48 36.5 -75t103.5 -27z" />
    <glyph glyph-name="emptyset" unicode="&#x2205;" horiz-adv-x="637" 
d="M553 425q32 -50 32 -122q0 -71 -22 -128.5t-62.5 -98t-98 -63t-128.5 -22.5q-104 0 -161 54l-48 -42l-29 32l50 43q-32 50 -32 123q0 70 22 127t62.5 97.5t98 62.5t129.5 22q52 0 92 -13.5t68 -39.5l48 42l27 -33zM99 208q0 -58 24 -98l366 316q-46 43 -130 43
q-59 0 -107 -18.5t-82 -52.5t-52.5 -82.5t-18.5 -107.5zM538 295q0 57 -23 97l-365 -316q48 -43 132 -43q58 0 105.5 18.5t81 53t51.5 83t18 107.5z" />
    <glyph glyph-name="product" unicode="&#x220f;" horiz-adv-x="824" 
d="M881 716h-143l-167 -946h-60l167 946h-368l-167 -946h-60l167 946h-143l10 54h774z" />
    <glyph glyph-name="summation" unicode="&#x2211;" horiz-adv-x="639" 
d="M143 717l-1 -2l379 -344l-3 -19v1l-3 -18l-16 -90v4l-4 -22l-520 -402l-1 -2l563 1l-11 -54h-572l22 121l522 407v2l-379 349l22 121h542l-9 -54z" />
    <glyph glyph-name="minus" unicode="&#x2212;" horiz-adv-x="515" 
d="M77 271h370l-8 -38h-369z" />
    <glyph glyph-name="radical" unicode="&#x221a;" horiz-adv-x="630" 
d="M719 770l-444 -880h-118l-42 351h-109l9 54h161l39 -400h2l432 875h70z" />
    <glyph glyph-name="infinity" unicode="&#x221e;" horiz-adv-x="809" 
d="M601 444q75 0 115 -40.5t40 -112.5q0 -53 -16 -96t-45 -73.5t-70 -47t-92 -16.5q-58 0 -93.5 27.5t-46.5 78.5q-26 -50 -72.5 -78t-110.5 -28q-75 0 -114.5 40.5t-39.5 112.5q0 53 15.5 96t44.5 73.5t70 47t92 16.5q58 0 93.5 -27.5t46.5 -78.5q26 50 72.5 78t110.5 28z
M217 97q39 0 70 13.5t53.5 38t34.5 59t12 76.5q0 57 -29.5 89t-86.5 32q-38 0 -69.5 -13.5t-54 -38t-34.5 -59t-12 -76.5q0 -57 30 -89t86 -32zM540 97q39 0 70 13.5t53.5 38t34.5 59t12 76.5q0 57 -29.5 89t-86.5 32q-38 0 -69.5 -13.5t-54 -38t-34.5 -59t-12 -76.5
q0 -57 30 -89t86 -32z" />
    <glyph glyph-name="integral" unicode="&#x222b;" horiz-adv-x="451" 
d="M258 602q15 85 68 131.5t132 46.5q57 0 95 -20l-22 -47q-35 16 -81 16q-54 0 -87 -32.5t-43 -90.5l-118 -668q-15 -85 -67.5 -131.5t-131.5 -46.5q-58 0 -96 20l22 47q19 -8 38 -12t43 -4q54 0 87.5 32.5t43.5 90.5l117 668v0z" />
    <glyph glyph-name="approxequal" unicode="&#x2248;" horiz-adv-x="607" 
d="M426 276q-42 0 -68.5 11.5t-47.5 25.5t-43 25.5t-56 11.5q-32 0 -55 -21t-32 -57h-37q10 56 45.5 87t89.5 31q42 0 68.5 -11.5t47.5 -25.5t42.5 -25.5t55.5 -11.5q32 0 55.5 21t33.5 57h36q-11 -56 -46 -87t-89 -31zM386 110q-42 0 -68.5 11.5t-47.5 25.5t-43 25.5
t-56 11.5q-32 0 -55 -21t-32 -57h-37q10 56 45.5 87t89.5 31q42 0 68.5 -11.5t47.5 -25.5t42.5 -25.5t55.5 -11.5q32 0 55.5 21t33.5 57h36q-11 -56 -46 -87t-89 -31z" />
    <glyph glyph-name="notequal" unicode="&#x2260;" horiz-adv-x="516" 
d="M303 298l-43 -92h177l-8 -38h-186l-79 -168h-41l78 168h-141l7 38h152l43 92h-179l7 38h189l73 156h42l-73 -156h139l-8 -38h-149z" />
    <glyph glyph-name="lessequal" unicode="&#x2264;" horiz-adv-x="506" 
d="M87 318l-1 -2l340 -134l-8 -42l-345 141l7 35l7 39l394 142l-7 -42zM32 43h370l-8 -38h-369z" />
    <glyph glyph-name="greaterequal" unicode="&#x2265;" horiz-adv-x="501" 
d="M452 320l-7 -39l-394 -141l7 42l387 134l1 2l-340 137l8 42l344 -142zM33 43h370l-6 -38h-370z" />
    <glyph glyph-name="lozenge" unicode="&#x25ca;" horiz-adv-x="499" 
d="M456 301l-8 -44l-11 -66l-183 -191h-96l-115 191l7 45v-1l12 66l182 191h97zM440 247l-146 241h-2l-234 -241v-2l148 -241h2l232 241v2z" />
    <glyph glyph-name="uniF8FF" unicode="&#xf8ff;" horiz-adv-x="1274" 
d="M846 -3q-7 -7 -17 -7q-14 0 -17 7.5t-3 15.5v324l-339 -340q-7 -7 -17 -7q-14 0 -17 7.5t-3 15.5v324l-340 -340q-7 -7 -17 -7q-8 0 -12.5 5t-4.5 13q0 10 5 15l342 341h-324q-8 0 -15.5 3t-7.5 16q0 5 2 8.5t5 7.5l340 342h-327q-20 0 -20 19v1q0 19 20 19h370
q8 0 15.5 -3t7.5 -17q0 -10 -8 -17l-341 -340h330q8 0 14 -6t6 -14v-327l339 338q7 8 17 8q13 0 15.5 -7.5t2.5 -14.5v-324l340 338q6 8 16 8q8 0 12.5 -5.5t4.5 -13.5q0 -3 -1 -7t-5 -7z" />
    <glyph glyph-name="Jacute" horiz-adv-x="537" 
d="M664 928l-181 -84l-13 36l179 88zM375 206l95 534h62l-94 -529q-18 -105 -82 -163t-162 -58q-84 0 -128 52.5t-44 148.5v23t2 25h59q-1 -9 -1.5 -17.5t-0.5 -16.5q0 -75 32.5 -117t91.5 -42q67 0 112 42.5t58 117.5z" />
    <glyph glyph-name="i.loclTRK" horiz-adv-x="224" 
d="M162 704h60l-16 -96h-60zM185 492l-86 -492h-60l86 492h60z" />
    <glyph glyph-name="jacute" horiz-adv-x="224" 
d="M320 680l-181 -84l-13 36l179 88zM185 492l-127 -722h-60l127 722h60z" />
    <glyph glyph-name="f_b" horiz-adv-x="958" 
d="M203 492h181l-8 -48h-176l-79 -444h-60l79 444h-82l8 48h132l1 2q-17 17 -27 43t-10 55q0 88 53.5 138t145.5 50q48 0 83 -18l-18 -48q-14 8 -29 11.5t-35 3.5q-59 0 -93 -29t-44 -82zM734 502q86 0 131 -52t45 -146q0 -70 -19 -128t-54 -99t-84 -64t-110 -23
q-76 0 -117 34t-41 97q0 19 3 37h-2l-27 -158h-60l136 770h60l-78 -436h2q14 79 70.5 123.5t144.5 44.5zM633 41q49 0 88.5 18.5t67.5 51.5t43 79.5t15 102.5q0 75 -36.5 117t-105.5 42q-82 0 -137 -54.5t-72 -151.5q-3 -17 -4.5 -29.5t-1.5 -26.5q0 -70 37 -109.5
t106 -39.5z" />
    <glyph glyph-name="f_f_j" horiz-adv-x="877" 
d="M838 492l-127 -722h-60l119 674h-261l-79 -444h-60l79 444h-249l-79 -444h-60l79 444h-82l8 48h132l1 2q-17 17 -27 43t-10 55q0 88 53.5 138t145.5 50q48 0 83 -18l-18 -48q-14 8 -29 11.5t-35 3.5q-59 0 -93 -29t-44 -82l-22 -126h304l1 2q-17 17 -27 43t-10 55
q0 88 53.5 138t145.5 50q48 0 83 -18l-18 -48q-14 8 -29 11.5t-35 3.5q-59 0 -93 -29t-44 -82l-22 -126h326zM875 704l-16 -96h-60l16 96h60z" />
    <glyph glyph-name="f_f_t" horiz-adv-x="987" 
d="M773 135q-1 -6 -1 -11.5v-11.5q0 -34 21 -52.5t60 -18.5q40 0 75 16l-9 -48q-20 -9 -44.5 -14t-49.5 -5q-56 0 -85.5 28t-29.5 79q0 9 1 18t3 19l54 310h-258l-79 -444h-60l79 444h-250l-79 -444h-60l79 444h-82l8 48h132l1 2q-17 17 -27 43t-10 55q0 88 53.5 138
t145.5 50q48 0 83 -18l-18 -48q-14 8 -29 11.5t-35 3.5q-59 0 -93 -29t-44 -82l-22 -126h305l1 2q-17 17 -27 43t-10 55q0 88 53.5 138t145.5 50q48 0 83 -18l-18 -48q-14 8 -29 11.5t-35 3.5q-59 0 -93 -29t-44 -82l-22 -126h269l31 174h60l-7 -42q-7 -39 -28.5 -73
t-50.5 -57l-1 -2h226l-8 -48h-177z" />
    <glyph glyph-name="f_h" horiz-adv-x="932" 
d="M203 492h181l-8 -48h-176l-79 -444h-60l79 444h-82l8 48h132l1 2q-17 17 -27 43t-10 55q0 88 53.5 138t145.5 50q48 0 83 -18l-18 -48q-14 8 -29 11.5t-35 3.5q-59 0 -93 -29t-44 -82zM721 502q73 0 112 -37.5t39 -106.5q0 -11 -1.5 -23t-3.5 -26l-54 -309h-60l54 308
q3 19 3 35q0 52 -30 80.5t-87 28.5q-73 0 -122.5 -47.5t-63.5 -134.5l-48 -270h-60l136 770h60l-79 -445h2q15 85 68.5 131t134.5 46z" />
    <glyph glyph-name="f_iacute" horiz-adv-x="568" 
d="M529 492l-86 -492h-60l78 444h-261l-79 -444h-60l79 444h-82l8 48h132l1 2q-17 17 -27 43t-10 55q0 88 53.5 138t145.5 50q48 0 83 -18l-18 -48q-14 8 -29 11.5t-35 3.5q-59 0 -93 -29t-44 -82l-22 -126h326zM483 596l-13 36l179 88l15 -40z" />
    <glyph glyph-name="f_j" horiz-adv-x="568" 
d="M529 492l-127 -722h-60l119 674h-261l-79 -444h-60l79 444h-82l8 48h132l1 2q-17 17 -27 43t-10 55q0 88 53.5 138t145.5 50q48 0 83 -18l-18 -48q-14 8 -29 11.5t-35 3.5q-59 0 -93 -29t-44 -82l-22 -126h326zM566 704l-16 -96h-60l16 96h60z" />
    <glyph glyph-name="f_k" horiz-adv-x="891" 
d="M203 492h181l-8 -48h-176l-79 -444h-60l79 444h-82l8 48h132l1 2q-17 17 -27 43t-10 55q0 88 53.5 138t145.5 50q48 0 83 -18l-18 -48q-14 8 -29 11.5t-35 3.5q-59 0 -93 -29t-44 -82zM580 257l265 -257h-85l-256 252h-1l-45 -252h-60l136 770h60l-90 -510h2l324 232h83z
" />
    <glyph glyph-name="f_t" horiz-adv-x="677" 
d="M463 135q-1 -6 -1 -11.5v-11.5q0 -34 21 -52.5t60 -18.5q40 0 75 16l-9 -48q-20 -9 -44.5 -14t-49.5 -5q-56 0 -85.5 28t-29.5 79q0 9 1 18t3 19l54 310h-258l-79 -444h-60l79 444h-82l8 48h132l1 2q-17 17 -27 43t-10 55q0 88 53.5 138t145.5 50q48 0 83 -18l-18 -48
q-14 8 -29 11.5t-35 3.5q-59 0 -93 -29t-44 -82l-22 -126h269l31 174h60l-7 -42q-7 -39 -28.5 -73t-50.5 -57l-1 -2h226l-8 -48h-177z" />
    <glyph glyph-name="t_t" horiz-adv-x="693" 
d="M478 135q-1 -6 -1 -11.5v-11.5q0 -34 21 -52.5t60 -18.5q40 0 75 16l-9 -48q-20 -9 -44.5 -14t-49.5 -5q-56 0 -85.5 28t-29.5 79q0 9 1 18t3 19l54 310h-276l-54 -309q-1 -6 -1 -11.5v-11.5q0 -34 21 -52.5t60 -18.5q40 0 75 16l-9 -48q-20 -9 -44.5 -14t-49.5 -5
q-56 0 -85.5 28t-29.5 79q0 9 1 18t3 19l54 310h-83l8 48h89l31 174h60l-7 -42q-7 -39 -28.5 -73t-50.5 -57l-1 -2h331l31 174h60l-7 -42q-7 -39 -28.5 -73t-50.5 -57l-1 -2h226l-8 -48h-177z" />
    <glyph glyph-name="zero.lf" horiz-adv-x="650" 
d="M280 -10q-100 0 -152.5 74t-52.5 204q0 105 24 193.5t68.5 152.5t107 100t139.5 36q100 0 152.5 -74t52.5 -204q0 -105 -24 -193.5t-68.5 -152.5t-107 -100t-139.5 -36zM290 46q60 0 108.5 32t83 88.5t53.5 133.5t19 166q0 107 -38 167.5t-111 60.5q-60 0 -109 -32
t-83.5 -88.5t-53.5 -133.5t-19 -166q0 -107 38.5 -167.5t111.5 -60.5z" />
    <glyph glyph-name="one.lf" horiz-adv-x="324" 
d="M310 740l-130 -740h-62l125 710h-2q-11 -56 -51.5 -87t-104.5 -31l10 56q65 0 105 24t48 68h62z" />
    <glyph glyph-name="two.lf" horiz-adv-x="594" 
d="M57 54h455l-10 -54h-498l8 49q115 28 208 77t157.5 114t99.5 142.5t35 162.5q0 70 -35.5 109.5t-102.5 39.5q-79 0 -136 -55t-79 -155h-61q27 126 102 196t184 70q94 0 144 -51.5t50 -144.5t-36.5 -175t-104 -147.5t-164 -110.5t-216.5 -65v-2z" />
    <glyph glyph-name="three.lf" horiz-adv-x="594" 
d="M311 406q106 0 163.5 -45.5t57.5 -126.5q0 -56 -20.5 -101t-58 -76.5t-91 -49t-120.5 -17.5q-97 0 -148.5 49.5t-51.5 139.5q0 26 4 49h60q-3 -21 -3 -39q0 -69 38.5 -107t110.5 -38q49 0 89 13t68 36.5t43 57t15 74.5q0 61 -43 95t-124 34h-22l9 54q103 13 162 59
t59 117q0 53 -36 82.5t-105 29.5q-74 0 -126.5 -49t-72.5 -137h-59q26 113 98 176.5t177 63.5q93 0 142.5 -38.5t49.5 -106.5q0 -46 -18.5 -82.5t-53 -62t-84 -39t-110.5 -13.5v-2h1v0z" />
    <glyph glyph-name="four.lf" horiz-adv-x="578" 
d="M538 200h-95l-35 -200h-63l35 200h-362l11 59l388 481h121l-85 -486h96zM91 254h300l84 479h-2l-382 -477v-2z" />
    <glyph glyph-name="five.lf" horiz-adv-x="598" 
d="M253 -10q-99 0 -153.5 51.5t-54.5 143.5v17h63q0 -73 41 -114.5t115 -41.5q51 0 93 16.5t71 47.5t45 74.5t16 96.5q0 72 -40 113t-115 41t-125.5 -39t-80.5 -101l-59 8l133 437h379l-9 -54h-321l-118 -372h2q28 82 89 128t143 46q91 0 139.5 -51t48.5 -143
q0 -69 -21 -125t-60.5 -96t-95.5 -61.5t-125 -21.5z" />
    <glyph glyph-name="six.lf" horiz-adv-x="631" 
d="M548 536q1 7 1.5 13.5t0.5 12.5q0 63 -34.5 97.5t-99.5 34.5q-48 0 -90.5 -23t-77 -67t-59.5 -107.5t-39 -144.5l-13 -71h2q16 92 81.5 143.5t165.5 51.5q94 0 144 -49.5t50 -138.5q0 -69 -23 -124t-63 -93.5t-94.5 -59.5t-117.5 -21q-211 0 -211 250q0 109 25.5 202.5
t72 161.5t111.5 107t145 39q90 0 138.5 -47t48.5 -132q0 -9 -0.5 -17.5t-1.5 -17.5h-62zM353 421q-50 0 -90.5 -14.5t-69.5 -42t-44.5 -67t-15.5 -88.5q0 -75 42 -119t113 -44q52 0 93.5 16.5t70.5 46.5t45 72t16 93q0 70 -41 108.5t-119 38.5zM127 239q0 2 0.5 4t0.5 4
q0 -2 -0.5 -4t-0.5 -4z" />
    <glyph glyph-name="seven.lf" horiz-adv-x="522" 
d="M591 740l-8 -49q-62 -14 -117.5 -61.5t-101.5 -124.5t-82 -181.5t-58 -231.5l-16 -92h-67l15 80q24 130 62 236t87.5 184t110 125t128.5 59v2h-455l9 54h493z" />
    <glyph glyph-name="eight.lf" horiz-adv-x="622" 
d="M412 406q72 -13 110 -56.5t38 -111.5q0 -57 -20.5 -103t-59 -78t-93 -49.5t-122.5 -17.5q-106 0 -162 46t-56 130q0 96 58.5 159.5t161.5 80.5v2q-64 0 -98 33.5t-34 93.5q0 49 18.5 89t53 68t83.5 43t109 15q97 0 149 -40.5t52 -112.5q0 -42 -13.5 -77t-38 -60
t-59 -38.5t-77.5 -13.5v-2zM197 521q0 -57 36.5 -89t104.5 -32q89 0 141 47t52 127q0 57 -36 88.5t-105 31.5q-89 0 -141 -46.5t-52 -126.5zM276 46q101 0 159.5 48.5t58.5 133.5q0 62 -42.5 96t-120.5 34q-101 0 -160 -48.5t-59 -133.5q0 -62 42.5 -96t121.5 -34z" />
    <glyph glyph-name="nine.lf" horiz-adv-x="629" 
d="M396 750q106 0 156 -63.5t50 -184.5q0 -110 -25.5 -203.5t-72 -162t-111.5 -107.5t-145 -39q-89 0 -136 50t-47 141q0 20 3 43h62q-2 -11 -2 -18.5v-15.5q0 -69 33.5 -106.5t96.5 -37.5q49 0 91 23t76.5 67t59.5 107.5t40 144.5l14 81h-2q-16 -88 -80.5 -136.5
t-165.5 -48.5q-94 0 -144.5 47.5t-50.5 133.5q0 66 23 119t63 89.5t95 56.5t119 20zM324 339q49 0 89.5 13.5t69 39t44 62.5t15.5 84q0 72 -42.5 114t-112.5 42q-52 0 -93.5 -15.5t-71 -43.5t-45 -67.5t-15.5 -88.5q0 -66 42 -103t120 -37z" />
    <glyph glyph-name="zero.osf" horiz-adv-x="633" 
d="M271 -10q-102 0 -156 60.5t-54 166.5q0 79 22 144.5t63 112.5t98.5 72.5t129.5 25.5q103 0 157 -60t54 -166q0 -80 -22 -145.5t-63 -112.5t-99 -72.5t-130 -25.5zM280 41q55 0 100 21.5t77 61t49 94t17 120.5q0 86 -40.5 135t-117.5 49q-55 0 -100 -21.5t-76.5 -61
t-48.5 -94.5t-17 -121q0 -86 40.5 -134.5t116.5 -48.5z" />
    <glyph glyph-name="one.osf" horiz-adv-x="319" 
d="M279 562l-99 -562h-60l94 532h-2q-10 -54 -49 -83.5t-101 -29.5l9 51q62 0 101 24.5t47 67.5h60z" />
    <glyph glyph-name="two.osf" horiz-adv-x="580" 
d="M50 48h450l-8 -48h-486l9 44q108 32 195 73t147.5 88t93 98.5t32.5 104.5q0 54 -37.5 84t-107.5 30q-77 0 -130 -41.5t-71 -117.5h-58q23 100 93.5 154.5t175.5 54.5q94 0 144.5 -41t50.5 -114q0 -64 -34.5 -121t-98 -104t-155 -83.5t-205.5 -58.5v-2z" />
    <glyph glyph-name="three.osf" horiz-adv-x="583" 
d="M279 264q106 0 163 -42.5t57 -118.5q0 -51 -20 -92t-57.5 -70t-90.5 -45t-120 -16q-94 0 -144.5 45.5t-50.5 130.5q0 20 3 41h57q-2 -9 -2 -16.5v-14.5q0 -64 38 -100t109 -36q100 0 158 44.5t58 121.5q0 60 -43.5 92t-124.5 32h-22l7 46q103 9 161 50t58 106
q0 48 -37.5 74t-106.5 26q-73 0 -124.5 -43.5t-70.5 -120.5h-56q23 101 92.5 157.5t169.5 56.5q94 0 145.5 -35.5t51.5 -100.5q0 -81 -69 -125.5t-189 -44.5v-2v0z" />
    <glyph glyph-name="four.osf" horiz-adv-x="563" 
d="M495 0h-96l-19 -110h-60l19 110h-353l10 55l386 508h117l-91 -515h95zM56 48h293l90 508h-2l-381 -506v-2z" />
    <glyph glyph-name="five.osf" horiz-adv-x="602" 
d="M234 -120q-102 0 -158.5 47t-56.5 135v7h59q1 -65 45 -101.5t120 -36.5q52 0 94 15.5t72 43.5t46 68t16 90q0 68 -41 106.5t-119 38.5t-130 -35t-81 -90l-56 8l125 386h394l-9 -48h-340l-110 -330h2q29 75 90.5 116.5t142.5 41.5q94 0 144.5 -48.5t50.5 -134.5
q0 -64 -21 -115.5t-60 -88t-94.5 -56t-124.5 -19.5z" />
    <glyph glyph-name="six.osf" horiz-adv-x="635" 
d="M557 526q1 6 1 12v11q0 62 -37 96t-106 34q-50 0 -94 -23t-79 -66t-60.5 -106t-39.5 -142l-13 -74h2q17 92 84.5 142.5t171.5 50.5q96 0 147 -49t51 -137q0 -66 -23 -119t-63 -90t-94.5 -56.5t-118.5 -19.5q-112 0 -165 60t-53 185q0 109 25.5 200t72.5 156.5t112.5 102
t146.5 36.5q93 0 142.5 -45.5t49.5 -128.5v-15t-1 -15h-59zM356 412q-53 0 -95.5 -14.5t-72.5 -42t-46 -66.5t-16 -88q0 -75 44.5 -117.5t119.5 -42.5q53 0 96 15.5t73.5 44t47 69.5t16.5 91q0 72 -43 111.5t-124 39.5z" />
    <glyph glyph-name="seven.osf" horiz-adv-x="532" 
d="M557 562l-8 -44q-65 -17 -122.5 -68t-105.5 -131.5t-85 -189t-60 -239.5h-66q23 132 62 240t91 188t115.5 129.5t136.5 64.5v2h-440l9 48h473z" />
    <glyph glyph-name="eight.osf" horiz-adv-x="630" 
d="M410 394q78 -13 119 -56t41 -110q0 -54 -21 -98t-60 -75t-94.5 -48t-124.5 -17q-109 0 -168 45.5t-59 127.5q0 94 61.5 154t170.5 77v2q-70 0 -107.5 32.5t-37.5 92.5q0 48 19 86.5t54 66t85.5 42t112.5 14.5q100 0 153.5 -40t53.5 -112q0 -85 -53.5 -133.5t-144.5 -48.5
v-2zM189 509q0 -57 39.5 -88t112.5 -31q46 0 83.5 11.5t63.5 33.5t40.5 53t14.5 70q0 57 -39.5 89t-111.5 32q-46 0 -83.5 -12t-64 -34t-41 -53.5t-14.5 -70.5zM279 41q105 0 166.5 48t61.5 133q0 61 -44.5 95t-128.5 34q-106 0 -167 -47.5t-61 -131.5q0 -62 45 -96.5
t128 -34.5z" />
    <glyph glyph-name="nine.osf" horiz-adv-x="634" 
d="M362 572q114 0 167 -58t53 -177q0 -102 -25 -186.5t-71 -144.5t-110.5 -93t-143.5 -33q-94 0 -145 42t-51 120v23h59v-16q0 -56 38 -87t108 -31q50 0 93.5 21.5t78 62.5t59.5 100t38 134l10 55h-2q-15 -88 -82.5 -135.5t-171.5 -47.5q-97 0 -148.5 47.5t-51.5 132.5
q0 63 22.5 113.5t62.5 85.5t94.5 53.5t118.5 18.5zM295 170q52 0 94.5 14t72.5 39.5t46 62t16 81.5q0 72 -46 113t-121 41q-53 0 -95.5 -14.5t-72.5 -41.5t-46 -65t-16 -86q0 -68 43.5 -106t124.5 -38z" />
    <glyph glyph-name="zero.dnom" horiz-adv-x="397" 
d="M155 -6q-63 0 -96 44.5t-33 124.5q0 63 15 115.5t42.5 91t66 59.5t85.5 21q63 0 95.5 -44.5t32.5 -124.5q0 -63 -15 -115.5t-42 -91t-65.5 -59.5t-85.5 -21zM162 38q33 0 60 18.5t46 51t29.5 76.5t10.5 94q0 60 -20.5 94t-60.5 34q-33 0 -60 -18.5t-46 -51t-29.5 -76.5
t-10.5 -94q0 -60 20.5 -94t60.5 -34z" />
    <glyph glyph-name="one.dnom" horiz-adv-x="215" 
d="M188 444l-78 -444h-53l75 423h-2q-7 -39 -33 -61t-65 -22l8 45q40 0 65 15.5t30 43.5h53z" />
    <glyph glyph-name="two.dnom" horiz-adv-x="364" 
d="M19 43h282l-7 -43h-308l7 40q67 18 121 47t91.5 66t57.5 81t20 91q0 38 -19 59.5t-54 21.5q-43 0 -74 -31t-43 -86h-52q18 76 64 118.5t113 42.5q59 0 90.5 -31t31.5 -88q0 -55 -22.5 -102.5t-64 -84.5t-101 -62.5t-133.5 -36.5v-2z" />
    <glyph glyph-name="three.dnom" horiz-adv-x="363" 
d="M176 248q65 0 100 -28t35 -77q0 -69 -48 -109t-132 -40q-60 0 -92.5 30.5t-32.5 86.5q0 7 0.5 13t1.5 14h51q-1 -5 -1.5 -10.5t-0.5 -10.5q0 -38 21 -59t61 -21q54 0 85 27.5t31 72.5q0 33 -23 52t-67 19h-13l7 41q57 7 89 31.5t32 65.5q0 29 -20 45t-56 16
q-40 0 -68.5 -27t-39.5 -75h-50q17 69 61 107t110 38q58 0 89 -23t31 -64q0 -53 -43 -83t-118 -30v-2v0z" />
    <glyph glyph-name="four.dnom" horiz-adv-x="363" 
d="M320 114h-58l-20 -114h-53l20 114h-214l8 48l217 282h100l-50 -287h58zM53 157h165l49 281h-2l-212 -279v-2z" />
    <glyph glyph-name="five.dnom" horiz-adv-x="364" 
d="M136 -6q-61 0 -95 31t-34 87v11h52q0 -39 22 -62t63 -23q57 0 90 35t33 94q0 39 -21.5 61.5t-63.5 22.5q-39 0 -67 -21t-44 -54l-50 7l80 261h237l-7 -43h-189l-70 -214h2q17 51 54 78.5t87 27.5q52 0 80 -30.5t28 -84.5q0 -85 -50.5 -134.5t-136.5 -49.5z" />
    <glyph glyph-name="six.dnom" horiz-adv-x="385" 
d="M306 320q1 5 1 7v5q0 35 -19 54.5t-54 19.5q-55 0 -94 -51t-56 -142l-7 -43h2q10 54 48.5 85t98.5 31q56 0 85 -29.5t29 -81.5q0 -41 -14 -74.5t-39 -57t-59 -36.5t-74 -13q-66 0 -98.5 39.5t-32.5 115.5q0 65 15.5 120t44 95.5t69 63t89.5 22.5q57 0 87 -29.5t30 -82.5
v-18h-52zM195 242q-56 0 -88.5 -30.5t-32.5 -84.5q0 -41 23 -65t62 -24q57 0 91 34t34 90q0 38 -23 59t-66 21zM70 142q0 2 0.5 3t0.5 3q0 -2 -0.5 -3t-0.5 -3z" />
    <glyph glyph-name="seven.dnom" horiz-adv-x="321" 
d="M345 444l-7 -40q-36 -9 -68.5 -37.5t-59 -74t-47.5 -106.5t-34 -135l-9 -51h-56l7 42q14 78 37.5 141.5t54.5 109t69 73t81 33.5v2h-278l8 43h302z" />
    <glyph glyph-name="eight.dnom" horiz-adv-x="379" 
d="M231 249q46 -8 71 -35t25 -69q0 -69 -48.5 -110t-133.5 -41q-66 0 -101 29t-35 80q0 60 37.5 98t102.5 48v2q-42 0 -64.5 20t-22.5 55q0 57 44 90.5t119 33.5q60 0 92.5 -24t32.5 -67q0 -49 -32.5 -78.5t-86.5 -29.5v-2zM114 312q0 -32 19.5 -49t55.5 -17q48 0 76 25.5
t28 68.5q0 31 -20 48.5t-56 17.5q-47 0 -75 -25.5t-28 -68.5zM152 38q56 0 87.5 27.5t31.5 74.5q0 70 -88 70q-55 0 -87 -26.5t-32 -73.5q0 -34 23 -53t65 -19z" />
    <glyph glyph-name="nine.dnom" horiz-adv-x="383" 
d="M224 450q66 0 97 -39.5t31 -114.5q0 -65 -15.5 -120.5t-44 -96t-68.5 -63t-89 -22.5q-56 0 -85.5 31t-29.5 87v11.5t1 12.5h51q-1 -5 -1 -9v-9q0 -38 18.5 -59t52.5 -21q54 0 93.5 51t55.5 142l9 49h-2q-10 -52 -48 -81t-98 -29q-56 0 -85.5 28.5t-29.5 79.5q0 39 14 71
t39 54.5t59 34.5t75 12zM182 214q56 0 88.5 28t32.5 79q0 40 -23.5 62.5t-62.5 22.5q-57 0 -90.5 -31.5t-33.5 -85.5q0 -35 23 -55t66 -20zM306 309q0 -2 -0.5 -3.5t-0.5 -3.5q0 2 0.5 3.5t0.5 3.5z" />
    <glyph glyph-name="zero.numr" horiz-adv-x="397" 
d="M209 302q-63 0 -96 44.5t-33 124.5q0 63 15 115.5t42.5 91t66 59.5t85.5 21q63 0 95.5 -44.5t32.5 -124.5q0 -63 -15 -115.5t-42 -91t-65.5 -59.5t-85.5 -21zM216 346q33 0 60 18.5t46 51t29.5 76.5t10.5 94q0 60 -20.5 94t-60.5 34q-33 0 -60 -18.5t-46 -51t-29.5 -76.5
t-10.5 -94q0 -60 20.5 -94t60.5 -34z" />
    <glyph glyph-name="one.numr" horiz-adv-x="215" 
d="M242 752l-78 -444h-53l75 423h-2q-7 -39 -33 -61t-65 -22l8 45q40 0 65 15.5t30 43.5h53z" />
    <glyph glyph-name="two.numr" horiz-adv-x="364" 
d="M73 351h282l-7 -43h-308l7 40q67 18 121 47t91.5 66t57.5 81t20 91q0 38 -19 59.5t-54 21.5q-43 0 -74 -31t-43 -86h-52q18 76 64 118.5t113 42.5q59 0 90.5 -31t31.5 -88q0 -55 -22.5 -102.5t-64 -84.5t-101 -62.5t-133.5 -36.5v-2z" />
    <glyph glyph-name="three.numr" horiz-adv-x="363" 
d="M230 556q65 0 100 -28t35 -77q0 -69 -48 -109t-132 -40q-60 0 -92.5 30.5t-32.5 86.5q0 7 0.5 13t1.5 14h51q-1 -5 -1.5 -10.5t-0.5 -10.5q0 -38 21 -59t61 -21q54 0 85 27.5t31 72.5q0 33 -23 52t-67 19h-13l7 41q57 7 89 31.5t32 65.5q0 29 -20 45t-56 16
q-40 0 -68.5 -27t-39.5 -75h-50q17 69 61 107t110 38q58 0 89 -23t31 -64q0 -53 -43 -83t-118 -30v-2v0z" />
    <glyph glyph-name="four.numr" horiz-adv-x="363" 
d="M375 422h-58l-20 -114h-53l20 114h-214l8 48l217 282h100l-50 -287h58zM108 465h165l49 281h-2l-212 -279v-2z" />
    <glyph glyph-name="five.numr" horiz-adv-x="364" 
d="M190 302q-61 0 -95 31t-34 87v11h52q0 -39 22 -62t63 -23q57 0 90 35t33 94q0 39 -21.5 61.5t-63.5 22.5q-39 0 -67 -21t-44 -54l-50 7l80 261h237l-7 -43h-189l-70 -214h2q17 51 54 78.5t87 27.5q52 0 80 -30.5t28 -84.5q0 -85 -50.5 -134.5t-136.5 -49.5z" />
    <glyph glyph-name="six.numr" horiz-adv-x="385" 
d="M360 628q1 5 1 7v5q0 35 -19 54.5t-54 19.5q-55 0 -94 -51t-56 -142l-7 -43h2q10 54 48.5 85t98.5 31q56 0 85 -29.5t29 -81.5q0 -41 -14 -74.5t-39 -57t-59 -36.5t-74 -13q-66 0 -98.5 39.5t-32.5 115.5q0 65 15.5 120t44 95.5t69 63t89.5 22.5q57 0 87 -29.5t30 -82.5
v-18h-52zM249 550q-56 0 -88.5 -30.5t-32.5 -84.5q0 -41 23 -65t62 -24q57 0 91 34t34 90q0 38 -23 59t-66 21zM124 450q0 2 0.5 3t0.5 3q0 -2 -0.5 -3t-0.5 -3z" />
    <glyph glyph-name="seven.numr" horiz-adv-x="321" 
d="M400 752l-7 -40q-36 -9 -68.5 -37.5t-59 -74t-47.5 -106.5t-34 -135l-9 -51h-56l7 42q14 78 37.5 141.5t54.5 109t69 73t81 33.5v2h-278l8 43h302z" />
    <glyph glyph-name="eight.numr" horiz-adv-x="379" 
d="M285 557q46 -8 71 -35t25 -69q0 -69 -48.5 -110t-133.5 -41q-66 0 -101 29t-35 80q0 60 37.5 98t102.5 48v2q-42 0 -64.5 20t-22.5 55q0 57 44 90.5t119 33.5q60 0 92.5 -24t32.5 -67q0 -49 -32.5 -78.5t-86.5 -29.5v-2zM168 620q0 -32 19.5 -49t55.5 -17q48 0 76 25.5
t28 68.5q0 31 -20 48.5t-56 17.5q-47 0 -75 -25.5t-28 -68.5zM206 346q56 0 87.5 27.5t31.5 74.5q0 70 -88 70q-55 0 -87 -26.5t-32 -73.5q0 -34 23 -53t65 -19z" />
    <glyph glyph-name="nine.numr" horiz-adv-x="383" 
d="M278 758q66 0 97 -39.5t31 -114.5q0 -65 -15.5 -120.5t-44 -96t-68.5 -63t-89 -22.5q-56 0 -85.5 31t-29.5 87v11.5t1 12.5h51q-1 -5 -1 -9v-9q0 -38 18.5 -59t52.5 -21q54 0 93.5 51t55.5 142l9 49h-2q-10 -52 -48 -81t-98 -29q-56 0 -85.5 28.5t-29.5 79.5q0 39 14 71
t39 54.5t59 34.5t75 12zM236 522q56 0 88.5 28t32.5 79q0 40 -23.5 62.5t-62.5 22.5q-57 0 -90.5 -31.5t-33.5 -85.5q0 -35 23 -55t66 -20zM360 617q0 -2 -0.5 -3.5t-0.5 -3.5q0 2 0.5 3.5t0.5 3.5z" />
    <glyph glyph-name="backslash.case" horiz-adv-x="361" 
d="M283 -17l-44 -13l-117 787l43 13z" />
    <glyph glyph-name="exclamdown.case" horiz-adv-x="258" 
d="M177 740h79l-13 -74h-79zM213 563l-94 -563h-64l104 563h54z" />
    <glyph glyph-name="questiondown.case" horiz-adv-x="528" 
d="M330 666l13 74h78l-13 -74h-78zM494 226q-25 -111 -96.5 -173.5t-174.5 -62.5q-91 0 -140 45t-49 123q0 46 20 96t56.5 102t88.5 104t117 103h61v-2q-63 -52 -114.5 -104.5t-87.5 -103t-55.5 -97t-19.5 -86.5q0 -58 34.5 -91t99.5 -33q75 0 127 47.5t72 132.5h61z" />
    <glyph glyph-name="slash.case" horiz-adv-x="373" 
d="M425 757l-395 -787l-39 13l395 787z" />
    <glyph glyph-name="numbersign.osf" horiz-adv-x="595" 
d="M470 371l-48 -162h101l-11 -38h-101l-50 -171h-47l48 171h-188l-49 -171h-47l50 171h-104l11 38h105l47 162h-100l10 38h102l44 151h47l-45 -151h188l45 151h47l-44 -151h104l-10 -38h-105zM423 371h-190l-48 -162h191z" />
    <glyph glyph-name="braceleft.case" horiz-adv-x="278" 
d="M203 692q8 45 40.5 71.5t79.5 26.5l-8 -42q-26 0 -44 -17t-23 -45l-39 -214q-7 -38 -28.5 -63.5t-55.5 -39.5q50 -21 50 -77v-11t-2 -14l-37 -213q-1 -5 -1 -8v-6q0 -22 12 -35t35 -13l-7 -42q-42 0 -65 21t-23 57v8t2 12l37 213q1 6 1.5 11t0.5 10q0 32 -19.5 49
t-54.5 17l8 43q42 0 68 22.5t34 64.5l39 214v0z" />
    <glyph glyph-name="braceright.case" horiz-adv-x="278" 
d="M194 457q0 -32 19.5 -49t54.5 -17l-8 -43q-42 0 -68 -22.5t-34 -64.5l-37 -213q-8 -45 -41.5 -71.5t-79.5 -26.5l7 42q26 0 44.5 17t23.5 45l38 213q7 38 28.5 63.5t55.5 39.5q-50 21 -50 77v11t2 14l38 214q1 5 1 8v6q0 22 -12.5 35t-35.5 13l8 42q41 0 64.5 -21.5
t23.5 -56.5q0 -5 -0.5 -9.5t-1.5 -10.5l-38 -214q-2 -8 -2 -12v-9z" />
    <glyph glyph-name="bracketleft.case" horiz-adv-x="310" 
d="M235 748l-134 -756h137l-7 -42h-183l148 840h183l-8 -42h-136z" />
    <glyph glyph-name="bracketright.case" horiz-adv-x="311" 
d="M159 -50h-183l8 42h136l134 756h-137l7 42h183z" />
    <glyph glyph-name="parenleft.case" horiz-adv-x="268" 
d="M184 -33l-41 -27q-19 37 -33 77.5t-23 82.5t-13.5 83.5t-4.5 80.5q0 66 12 131.5t39 132.5t70 134.5t105 137.5l31 -27q-58 -66 -98 -131.5t-64.5 -128.5t-35.5 -124.5t-11 -119.5q0 -71 15.5 -152.5t51.5 -149.5z" />
    <glyph glyph-name="parenright.case" horiz-adv-x="267" 
d="M-14 -33q58 66 98 131.5t64.5 128.5t35.5 124t11 120q0 71 -15.5 152.5t-51.5 149.5l41 27q19 -37 33 -77.5t23 -82.5t13.5 -83.5t4.5 -80.5q0 -131 -51.5 -264t-174.5 -272z" />
    <glyph glyph-name="emdash.case" horiz-adv-x="863" 
d="M809 379l-6 -38h-713l6 38h713z" />
    <glyph glyph-name="endash.case" horiz-adv-x="579" 
d="M525 379l-6 -38h-429l6 38h429z" />
    <glyph glyph-name="hyphen.case" horiz-adv-x="402" 
d="M348 379l-6 -38h-252l6 38h252z" />
    <glyph glyph-name="uni00AD.case" horiz-adv-x="402" 
d="M348 379l-6 -38h-252l6 38h252z" />
    <glyph glyph-name="guillemotleft.case" horiz-adv-x="455" 
d="M234 553h49l-160 -193l92 -193h-49l-94 193zM388 553h49l-160 -193l92 -193h-49l-94 193z" />
    <glyph glyph-name="guillemotright.case" horiz-adv-x="456" 
d="M108 167h-49l160 193l-92 193h49l94 -193zM263 167h-49l160 193l-92 193h49l94 -193z" />
    <glyph glyph-name="guilsinglleft.case" horiz-adv-x="300" 
d="M234 553h49l-160 -193l92 -193h-49l-94 193z" />
    <glyph glyph-name="guilsinglright.case" horiz-adv-x="302" 
d="M108 167h-49l160 193l-92 193h49l94 -193z" />
    <glyph glyph-name="cent.osf" horiz-adv-x="544" 
d="M274 42q54 6 95 38.5t65 87.5h61q-31 -79 -90 -125t-140 -52l-18 -101h-44l18 101q-84 6 -128 58.5t-44 142.5q0 67 18.5 122t52.5 95.5t82 64t108 27.5l16 93h45l-16 -93q74 -6 117 -48t48 -115h-61q-8 48 -36.5 77.5t-76.5 35.5zM111 199q0 -69 30.5 -109.5t88.5 -47.5
l71 409q-44 -4 -79 -24t-59.5 -53t-38 -77.5t-13.5 -97.5z" />
    <glyph glyph-name="dollar.osf" horiz-adv-x="545" 
d="M447 384q0 6 0.5 11.5t0.5 10.5q0 50 -28 79t-80 35l-36 -204q33 -5 65 -12.5t57.5 -21.5t41.5 -37.5t16 -60.5q0 -42 -16.5 -76.5t-47 -59t-74.5 -39t-99 -16.5l-14 -80h-44l14 80q-84 5 -129 47t-45 117v16t2 16h59q-1 -5 -1 -10.5v-11.5q0 -54 31.5 -86.5t91.5 -37.5
l40 228q-31 5 -61 12.5t-54 20.5t-38.5 34t-14.5 54q0 81 58.5 127.5t161.5 51.5l14 79h45l-14 -80q76 -5 117 -46t41 -111q0 -7 -0.5 -14t-1.5 -15h-58zM146 404q0 -20 9 -34t25 -23t36.5 -14.5t44.5 -9.5l34 197q-69 -4 -109 -34.5t-40 -81.5zM423 171q0 24 -10.5 40
t-28 26t-40.5 16t-49 11l-39 -221q78 5 122.5 38.5t44.5 89.5z" />
    <glyph glyph-name="Euro.osf" horiz-adv-x="549" 
d="M385 521q-78 0 -133.5 -47t-80.5 -128h237l-25 -34h-220q-3 -14 -5 -28t-3 -28h186l-25 -33h-162q0 -85 37.5 -133t109.5 -48q35 0 77 13.5t80 42.5l19 -43q-41 -30 -91 -46.5t-94 -16.5q-97 0 -147.5 58.5t-50.5 164.5v8h-55l6 32h50q2 15 3.5 29t4.5 28h-48l7 33h48
q29 105 102.5 165.5t181.5 60.5q43 0 83.5 -11.5t68.5 -33.5l-33 -44q-25 20 -59 29.5t-69 9.5z" />
    <glyph glyph-name="sterling.osf" horiz-adv-x="521" 
d="M439 386q1 7 1.5 12.5t0.5 11.5q0 54 -30.5 82.5t-86.5 28.5q-69 0 -109 -33t-40 -92q0 -26 7.5 -54.5t14.5 -57.5h189l-8 -38h-175q1 -4 1 -8v-8q0 -23 -7 -46t-26 -45.5t-52 -45t-85 -43.5v-1h410l-9 -49h-425l8 46q37 22 61.5 46.5t38 48.5t19 46t5.5 40v9.5t-1 9.5
h-79l7 38h65q-6 27 -13 55.5t-7 55.5q0 80 58 128t161 48q79 0 122 -40t43 -112v-15t-2 -18h-57z" />
    <glyph glyph-name="yen.osf" horiz-adv-x="559" 
d="M337 212h117l-6 -32h-133l-31 -45h156l-6 -33h-173l-70 -102h-67l70 102h-119l7 33h134l31 45h-157l5 32h112l-118 350h71l114 -347h2l236 347h66z" />
    <glyph glyph-name="plus.case" horiz-adv-x="450" 
d="M425 333h-162l-29 -166h-45l29 166h-163l8 38h161l29 166h45l-29 -166h163z" />
    <glyph glyph-name="minus.case" horiz-adv-x="520" 
d="M96 371h370l-8 -38h-369z" />
    <glyph glyph-name="multiply.case" horiz-adv-x="473" 
d="M282 346l123 -148l-36 -30l-122 148l-175 -148l-24 30l174 148l-122 148l35 30l123 -148l175 148l24 -30z" />
    <glyph glyph-name="divide.case" horiz-adv-x="516" 
d="M294 461q-27 0 -27 25q0 17 10.5 27.5t27.5 10.5q29 0 29 -26q0 -37 -40 -37zM94 371h370l-7 -38h-370zM245 180q-28 0 -28 24q0 18 10.5 28.5t28.5 10.5q28 0 28 -27q0 -17 -10 -26.5t-29 -9.5z" />
    <glyph glyph-name="equal.case" horiz-adv-x="518" 
d="M106 436h370l-8 -38h-369zM83 306h370l-8 -38h-369z" />
    <glyph glyph-name="notequal.case" horiz-adv-x="518" 
d="M319 398l-43 -92h177l-8 -38h-186l-79 -168h-41l78 168h-141l7 38h152l43 92h-179l7 38h189l73 156h42l-73 -156h139l-8 -38h-149z" />
    <glyph glyph-name="greater.case" horiz-adv-x="471" 
d="M449 355l-7 -40l-392 -158l7 43l385 151l1 2l-332 153l7 43l337 -159z" />
    <glyph glyph-name="less.case" horiz-adv-x="473" 
d="M66 353l-1 -2l332 -151l-7 -43l-337 158l6 35l8 40l391 159l-7 -43z" />
    <glyph glyph-name="greaterequal.case" horiz-adv-x="530" 
d="M488 420l-7 -39l-394 -141l7 42l387 134l1 2l-340 137l8 42l344 -142zM69 143h370l-6 -38h-370z" />
    <glyph glyph-name="lessequal.case" horiz-adv-x="533" 
d="M114 418l-1 -2l340 -134l-8 -42l-345 141l7 35l7 39l394 142l-7 -42zM59 143h370l-8 -38h-369z" />
    <glyph glyph-name="plusminus.case" horiz-adv-x="517" 
d="M476 432l-8 -38h-162l-28 -161h-45l28 161h-162l7 38h162l28 161h44l-28 -161h164zM56 143h370l-8 -38h-369z" />
    <glyph glyph-name="logicalnot.case" horiz-adv-x="507" 
d="M461 433l-28 -163h-45l23 126h-326l6 37h370z" />
    <glyph glyph-name="percent.osf" horiz-adv-x="654" 
d="M582 572l25 -21l-521 -561l-26 22zM172 261q-48 0 -73 31.5t-25 85.5q0 43 10.5 79t30.5 61.5t48.5 39.5t63.5 14q48 0 73 -31t25 -86q0 -43 -11 -78.5t-31 -61t-48 -40t-63 -14.5zM178 301q45 0 71 42.5t26 106.5q0 39 -14 61t-41 22q-22 0 -40 -11.5t-31 -31.5
t-20 -47.5t-7 -59.5q0 -38 14.5 -60t41.5 -22zM440 -10q-48 0 -73 31t-25 86q0 43 11 79t31 61.5t48 39.5t63 14q48 0 73.5 -31t25.5 -86q0 -43 -11 -79t-31 -61.5t-48.5 -39.5t-63.5 -14zM447 30q44 0 71 42t27 107q0 38 -15 60t-42 22q-44 0 -70 -42t-26 -107
q0 -38 14 -60t41 -22z" />
    <glyph glyph-name="perthousand.osf" horiz-adv-x="928" 
d="M582 572l25 -21l-521 -561l-26 22zM172 261q-48 0 -73 31.5t-25 85.5q0 43 10.5 79t30.5 61.5t48.5 39.5t63.5 14q48 0 73 -31t25 -86q0 -43 -11 -78.5t-31 -61t-48 -40t-63 -14.5zM178 301q45 0 71 42.5t26 106.5q0 39 -14 61t-41 22q-22 0 -40 -11.5t-31 -31.5
t-20 -47.5t-7 -59.5q0 -38 14.5 -60t41.5 -22zM440 -10q-48 0 -73 31t-25 86q0 43 11 79t31 61.5t48 39.5t63 14q48 0 73.5 -31t25.5 -86q0 -43 -11 -79t-31 -61.5t-48.5 -39.5t-63.5 -14zM725 -10q-48 0 -73 31t-25 86q0 43 11 79t31 61.5t48.5 39.5t63.5 14q48 0 73 -31
t25 -86q0 -43 -11 -79t-31 -61.5t-48.5 -39.5t-63.5 -14zM447 30q44 0 71 42t27 107q0 38 -15 60t-42 22q-44 0 -70 -42t-26 -107q0 -38 14 -60t41 -22zM733 30q44 0 70.5 42t26.5 107q0 38 -14.5 60t-42.5 22q-44 0 -70 -42t-26 -107q0 -38 14.5 -60t41.5 -22z" />
    </font>
</defs>
</svg>
