<?xml version="1.0" standalone="no"?>
<!DOCTYPE svg PUBLIC "-//W3C//DTD SVG 1.1//EN" "http://www.w3.org/Graphics/SVG/1.1/DTD/svg11.dtd" >
<svg xmlns="http://www.w3.org/2000/svg" xmlns:xlink="http://www.w3.org/1999/xlink" version="1.1">
<metadata>
Created by FontForge 20201107 at Fri Aug  4 06:25:12 2023
 By 
Copyright (c) 2017 by Alberto Romanos. All rights reserved.
</metadata>
<defs>
<font id="SVN-AlphaCreative-Regular" horiz-adv-x="603" >
  <font-face 
    font-family="SVN-AlphaCreative"
    font-weight="400"
    font-stretch="normal"
    units-per-em="1000"
    panose-1="0 0 5 0 0 0 0 0 0 0"
    ascent="800"
    descent="-200"
    x-height="495"
    cap-height="740"
    bbox="-726 -240 1220 1101"
    underline-thickness="50"
    underline-position="-100"
    unicode-range="U+000D-FB02"
  />
<missing-glyph horiz-adv-x="1274" 
d="M846 -3q-7 -7 -17 -7q-14 0 -17 7.5t-3 15.5v324l-339 -340q-7 -7 -17 -7q-14 0 -17 7.5t-3 15.5v324l-340 -340q-7 -7 -17 -7q-8 0 -12.5 5t-4.5 13q0 10 5 15l342 341h-324q-8 0 -15.5 3t-7.5 16q0 5 2 8.5t5 7.5l340 342h-327q-20 0 -20 19v1q0 19 20 19h370
q8 0 15.5 -3t7.5 -17q0 -10 -8 -17l-341 -340h330q8 0 14 -6t6 -14v-327l339 338q7 8 17 8q13 0 15.5 -7.5t2.5 -14.5v-324l340 338q6 8 16 8q8 0 12.5 -5.5t4.5 -13.5q0 -3 -1 -7t-5 -7z" />
    <glyph glyph-name="fi" unicode="fi" horiz-adv-x="599" 
d="M522 0h-82v434h-253v-434h-82v434h-80v61h152v2q-36 20 -57 53t-21 75q0 74 46.5 114.5t129.5 40.5q54 0 92 -19l-12 -63q-27 14 -63 14q-55 0 -83 -27.5t-28 -77.5v-112h341v-495zM522 690v-105h-82v105h82z" />
    <glyph glyph-name="fl" unicode="fl" horiz-adv-x="607" 
d="M292 712q-55 0 -83 -27.5t-28 -77.5v-112h175v-61h-169v-434h-82v434h-80v61h152v2q-36 20 -57 53t-21 75q0 74 46.5 114.5t129.5 40.5q54 0 92 -19l-12 -63q-27 14 -63 14zM530 770v-770h-82v770h82z" />
    <glyph glyph-name="f_f" unicode="ff" horiz-adv-x="689" 
d="M612 712q-55 0 -83 -27.5t-28 -77.5v-112h175v-61h-169v-434h-82v434h-238v-434h-82v434h-80v61h152v2q-36 20 -57 53t-21 75q0 74 46.5 114.5t129.5 40.5q54 0 92 -19l-12 -63q-27 14 -63 14q-55 0 -83 -27.5t-28 -77.5v-112h316v2q-36 20 -57 53t-21 75
q0 74 46.5 114.5t129.5 40.5q57 0 99 -21l-11 -64q-30 17 -71 17z" />
    <glyph glyph-name="f_f_i" unicode="ffi" horiz-adv-x="919" 
d="M842 0h-82v434h-253v-434h-82v434h-238v-434h-82v434h-80v61h152v2q-36 20 -57 53t-21 75q0 74 46.5 114.5t129.5 40.5q54 0 92 -19l-12 -63q-27 14 -63 14q-55 0 -83 -27.5t-28 -77.5v-112h316v2q-36 20 -57 53t-21 75q0 74 46.5 114.5t129.5 40.5q54 0 92 -19l-12 -63
q-27 14 -63 14q-55 0 -83 -27.5t-28 -77.5v-112h341v-495zM842 690v-105h-82v105h82z" />
    <glyph glyph-name="f_f_l" unicode="ffl" horiz-adv-x="927" 
d="M612 712q-55 0 -83 -27.5t-28 -77.5v-112h175v-61h-169v-434h-82v434h-238v-434h-82v434h-80v61h152v2q-36 20 -57 53t-21 75q0 74 46.5 114.5t129.5 40.5q54 0 92 -19l-12 -63q-27 14 -63 14q-55 0 -83 -27.5t-28 -77.5v-112h316v2q-36 20 -57 53t-21 75
q0 74 46.5 114.5t129.5 40.5q54 0 92 -19l-12 -63q-27 14 -63 14zM850 770v-770h-82v770h82z" />
    <glyph glyph-name=".notdef" horiz-adv-x="1274" 
d="M846 -3q-7 -7 -17 -7q-14 0 -17 7.5t-3 15.5v324l-339 -340q-7 -7 -17 -7q-14 0 -17 7.5t-3 15.5v324l-340 -340q-7 -7 -17 -7q-8 0 -12.5 5t-4.5 13q0 10 5 15l342 341h-324q-8 0 -15.5 3t-7.5 16q0 5 2 8.5t5 7.5l340 342h-327q-20 0 -20 19v1q0 19 20 19h370
q8 0 15.5 -3t7.5 -17q0 -10 -8 -17l-341 -340h330q8 0 14 -6t6 -14v-327l339 338q7 8 17 8q13 0 15.5 -7.5t2.5 -14.5v-324l340 338q6 8 16 8q8 0 12.5 -5.5t4.5 -13.5q0 -3 -1 -7t-5 -7z" />
    <glyph glyph-name=".null" horiz-adv-x="0" 
 />
    <glyph glyph-name="nonmarkingreturn" unicode="&#xd;" horiz-adv-x="238" 
 />
    <glyph glyph-name="space" unicode=" " horiz-adv-x="238" 
 />
    <glyph glyph-name="exclam" unicode="!" horiz-adv-x="261" 
d="M88 740h86l-5 -547h-76zM180 95v-95h-100v95h100z" />
    <glyph glyph-name="quotedbl" unicode="&#x22;" horiz-adv-x="335" 
d="M139 770v-203h-77v203h77zM273 770v-203h-77v203h77z" />
    <glyph glyph-name="numbersign" unicode="#" horiz-adv-x="682" 
d="M512 506l-25 -248h128l-6 -40h-126l-22 -218h-47l23 218h-228l-23 -218h-47l23 218h-127l5 40h126l26 248h-125l5 40h125l20 194h47l-19 -194h225l19 194h47l-20 -194h131l-5 -40h-130zM466 506h-225l-28 -247h227z" />
    <glyph glyph-name="dollar" unicode="$" horiz-adv-x="646" 
d="M608 211q0 -100 -68.5 -157.5t-193.5 -62.5v-103h-46v103q-59 3 -106 21.5t-81 52.5t-53.5 81t-23.5 107h85q5 -85 52 -134t127 -55v286q-45 7 -88.5 17t-78 30t-56 54t-21.5 90q0 97 64.5 150.5t179.5 58.5v100h46v-101q108 -7 171 -73t70 -178h-85q-4 78 -45 123.5
t-111 53.5v-256q46 -8 93 -18t84.5 -32t61 -59.5t23.5 -98.5zM143 546q0 -31 12.5 -51.5t34 -34t50 -21t60.5 -13.5v251q-75 -4 -116 -38t-41 -93zM346 64q83 5 128.5 41.5t45.5 99.5q0 36 -14 60t-38 39t-55.5 24t-66.5 15v-279z" />
    <glyph glyph-name="percent" unicode="%" horiz-adv-x="715" 
d="M580 750l33 -25l-478 -735l-33 25zM181 360q-66 0 -103 48.5t-37 136.5t37 136.5t103 48.5t103 -48.5t37 -136.5t-37 -136.5t-103 -48.5zM181 413q35 0 54 34.5t19 97.5t-19 97.5t-54 34.5t-54.5 -34.5t-19.5 -97.5t19.5 -97.5t54.5 -34.5zM535 -10q-66 0 -103 48.5
t-37 136.5t37 136.5t103 48.5q67 0 104 -48.5t37 -136.5t-37 -136.5t-104 -48.5zM535 43q35 0 54.5 34.5t19.5 97.5t-19.5 97.5t-54.5 34.5t-54 -34.5t-19 -97.5t19 -97.5t54 -34.5z" />
    <glyph glyph-name="ampersand" unicode="&#x26;" horiz-adv-x="796" 
d="M727 -10l-144 127q-57 -62 -127.5 -94.5t-153.5 -32.5q-121 0 -189 55.5t-68 151.5q0 61 22.5 102t58.5 68.5t80.5 46t88.5 33.5q9 3 18 6.5t17 6.5q-49 0 -89 9.5t-68 27t-43 42t-15 54.5q0 75 57.5 116t161.5 41q103 0 160 -43.5t57 -122.5q0 -42 -18.5 -71.5
t-48.5 -52t-68.5 -39.5t-78.5 -32q-39 -15 -75.5 -31t-65.5 -37.5t-46.5 -51t-17.5 -72.5q0 -62 46 -98t129 -36q65 0 122 26.5t102.5 77t78.5 123t51 165.5l71 -20q-16 -77 -41.5 -141t-60.5 -116l148 -132zM200 579q0 -54 37 -85.5t99 -31.5q27 10 50 21t40.5 24.5
t27.5 31t10 40.5q0 48 -34 73t-96 25q-63 0 -98.5 -25.5t-35.5 -72.5z" />
    <glyph glyph-name="quotesingle" unicode="'" horiz-adv-x="201" 
d="M139 770v-203h-77v203h77z" />
    <glyph glyph-name="parenleft" unicode="(" horiz-adv-x="270" 
d="M253 -216l-37 -24q-88 123 -127 251.5t-39 258.5t39 258.5t127 251.5l37 -24q-85 -118 -120 -243.5t-35 -242.5t35 -242.5t120 -243.5z" />
    <glyph glyph-name="parenright" unicode=")" horiz-adv-x="270" 
d="M17 -216q85 118 120 243.5t35 242.5t-35 242.5t-120 243.5l37 24q88 -123 127 -251.5t39 -258.5t-39 -258.5t-127 -251.5z" />
    <glyph glyph-name="asterisk" unicode="*" horiz-adv-x="380" 
d="M277 607q-41 0 -83 22l-2 -2l78 -108l-45 -34q-25 34 -32 69q-5 17 -5 35t2 38l-3 1l-78 -108l-47 32q17 26 40.5 43t50.5 25q8 4 16.5 6.5t18.5 4.5h-1v2l-128 42l17 54q75 -22 113 -94h2v135h58q0 -40 -14 -73.5t-41 -62.5l1 -2l128 41l18 -55q-17 -5 -32 -8t-32 -3z
" />
    <glyph glyph-name="plus" unicode="+" horiz-adv-x="467" 
d="M425 232h-168v-171h-47v171h-167v40h167v171h46v-171h169v-40z" />
    <glyph glyph-name="comma" unicode="," horiz-adv-x="226" 
d="M168 95v-81q0 -60 -26 -102.5t-74 -59.5v54q41 11 65 35.5t29 58.5h-94v95h100z" />
    <glyph glyph-name="hyphen" unicode="-" horiz-adv-x="403" 
d="M336 271v-39h-268v39h268z" />
    <glyph glyph-name="period" unicode="." horiz-adv-x="230" 
d="M165 95v-95h-100v95h100z" />
    <glyph glyph-name="slash" unicode="/" horiz-adv-x="406" 
d="M378 786l-308 -926l-43 14l308 926z" />
    <glyph glyph-name="zero" unicode="0" horiz-adv-x="647" 
d="M324 -10q-63 0 -113 26t-84.5 74.5t-52.5 119t-18 160.5t18 160.5t52.5 119t84.5 74.5t113 26t112.5 -26t84 -74.5t53 -119t18.5 -160.5t-18.5 -160.5t-53 -119t-84 -74.5t-112.5 -26zM324 63q85 0 132.5 81t47.5 226t-47.5 226t-132.5 81q-86 0 -133 -81t-47 -226
t47 -226t133 -81z" />
    <glyph glyph-name="one" unicode="1" horiz-adv-x="346" 
d="M252 740v-740h-86v708h-2q0 -67 -36.5 -104t-101.5 -37v75q66 0 103 26t37 72h86z" />
    <glyph glyph-name="two" unicode="2" horiz-adv-x="600" 
d="M555 70v-70h-512v65q95 27 169.5 70t126.5 99.5t79 124t27 144.5q0 82 -39.5 128t-110.5 46q-72 0 -114 -51t-47 -144h-83q6 127 70.5 197.5t175.5 70.5q113 0 176 -65t63 -183q0 -86 -30.5 -157.5t-88.5 -127t-142 -92.5t-191 -53v-2h471z" />
    <glyph glyph-name="three" unicode="3" horiz-adv-x="601" 
d="M292 412q121 0 188.5 -54.5t67.5 -153.5q0 -101 -67.5 -157.5t-190.5 -56.5q-111 0 -175.5 63t-69.5 177h83q3 -80 45.5 -124.5t117.5 -44.5q80 0 124 37.5t44 105.5t-45.5 105.5t-129.5 37.5h-21v67q83 10 129 47t46 94q0 59 -39 91.5t-109 32.5q-66 0 -105.5 -45
t-44.5 -126h-81q6 115 69.5 178.5t171.5 63.5t167 -45.5t59 -125.5q0 -78 -62.5 -121.5t-175.5 -43.5v-2h4v0z" />
    <glyph glyph-name="four" unicode="4" horiz-adv-x="598" 
d="M566 192h-96v-192h-86v192h-358v76l282 472h162v-478h96v-70zM108 264v-2h278v470h-2z" />
    <glyph glyph-name="five" unicode="5" 
d="M301 -10q-107 0 -174 56.5t-79 158.5h85q11 -67 54.5 -104.5t112.5 -37.5q81 0 126.5 46.5t45.5 131.5t-44.5 132t-124.5 47q-68 0 -108.5 -35t-57.5 -92l-83 11l57 436h394v-70h-316l-51 -358h2q14 83 67 129.5t134 46.5q104 0 162 -64t58 -179q0 -121 -68.5 -188
t-191.5 -67z" />
    <glyph glyph-name="six" unicode="6" horiz-adv-x="633" 
d="M356 476q108 0 167 -61t59 -171q0 -60 -18.5 -107t-52.5 -80t-82 -50t-106 -17q-267 0 -267 357q0 95 19 170t54.5 126.5t87 79t117.5 27.5q102 0 162.5 -56.5t68.5 -159.5h-84q-6 68 -44.5 105.5t-102.5 37.5q-91 0 -141.5 -85t-50.5 -237v-72h2q0 91 56 142t156 51z
M319 63q83 0 129 46t46 130q0 80 -46 123.5t-129 43.5q-81 0 -126.5 -42t-45.5 -117q0 -43 13 -77t35.5 -58t54 -36.5t69.5 -12.5z" />
    <glyph glyph-name="seven" unicode="7" horiz-adv-x="535" 
d="M517 740v-65q-58 -15 -103.5 -62.5t-77 -123t-48.5 -178t-17 -226.5v-85h-90v70q0 130 20.5 236t58.5 183t93.5 123t126.5 56v2h-466v70h503z" />
    <glyph glyph-name="eight" unicode="8" horiz-adv-x="626" 
d="M381 415q92 -14 142 -68t50 -140q0 -103 -68.5 -160t-191.5 -57t-191.5 57t-68.5 160q0 86 50.5 140t141.5 68v2q-79 0 -123.5 40.5t-44.5 114.5q0 84 62 131t174 47t174 -47t62 -131q0 -73 -44.5 -114t-123.5 -41v-2zM165 544q0 -64 39 -100t109 -36t109 36t39 100
q0 63 -39 98t-109 35t-109 -35t-39 -98zM313 63q81 0 126.5 37.5t45.5 106.5t-45.5 106.5t-126.5 37.5t-126.5 -37.5t-45.5 -106.5t45.5 -106.5t126.5 -37.5z" />
    <glyph glyph-name="nine" unicode="9" horiz-adv-x="632" 
d="M312 750q136 0 200 -91t64 -266q0 -95 -19 -170t-54.5 -126.5t-87 -79t-117.5 -27.5q-103 0 -163 62t-68 174h84q5 -78 44 -120.5t103 -42.5q91 0 141 85t50 237v82h-2q0 -87 -55.5 -135t-155.5 -48q-108 0 -167 58t-59 164q0 58 19 103t53.5 76.5t82.5 48t107 16.5z
M312 354q81 0 127 39t46 110q0 40 -13 72.5t-36 55t-54.5 34.5t-69.5 12q-82 0 -128 -43.5t-46 -122.5q0 -75 46 -116t128 -41z" />
    <glyph glyph-name="colon" unicode=":" horiz-adv-x="236" 
d="M168 503v-95h-100v95h100zM168 95v-95h-100v95h100z" />
    <glyph glyph-name="semicolon" unicode=";" horiz-adv-x="236" 
d="M169 503v-95h-100v95h100zM68 95h100v-81q0 -60 -26 -102.5t-74 -59.5v54q41 11 65 35.5t29 58.5h-94v95z" />
    <glyph glyph-name="less" unicode="&#x3c;" horiz-adv-x="475" 
d="M49 253v-2l364 -154v-44l-370 161v77l370 162v-44z" />
    <glyph glyph-name="equal" unicode="=" horiz-adv-x="521" 
d="M69 343h383v-40h-383v40zM69 201h383v-40h-383v40z" />
    <glyph glyph-name="greater" unicode="&#x3e;" horiz-adv-x="475" 
d="M432 291v-77l-370 -161v44l364 154v2l-364 156v44z" />
    <glyph glyph-name="question" unicode="?" horiz-adv-x="540" 
d="M29 512q6 113 67 175.5t167 62.5q109 0 168.5 -54.5t59.5 -151.5q0 -39 -14 -82.5t-41 -88.5t-66 -90.5t-88 -89.5h-81v2q47 45 84.5 91t63 90t39 85.5t13.5 77.5q0 65 -37 101.5t-103 36.5q-67 0 -106.5 -43.5t-43.5 -121.5h-82zM287 95v-95h-99v95h99z" />
    <glyph glyph-name="at" unicode="@" horiz-adv-x="1120" 
d="M675 141v13.5t2 16.5l3 20h-2q-14 -75 -66.5 -117.5t-135.5 -42.5q-80 0 -122 48.5t-42 134.5q0 65 17 118.5t48 92t75.5 59.5t98.5 21q76 0 117 -32.5t41 -92.5q0 -8 -1 -16t-2 -18h2l27 150h79l-58 -329q-1 -6 -1.5 -10.5t-0.5 -8.5q0 -27 16.5 -42t45.5 -15
q87 0 134.5 69t47.5 193q0 87 -27.5 155.5t-79.5 116t-127.5 72.5t-171.5 25q-112 0 -200 -34t-149 -98.5t-93 -157t-32 -210.5q0 -95 28.5 -170t83 -127t133.5 -79.5t179 -27.5q68 0 143 15t141 43l23 -57q-66 -28 -147 -43.5t-160 -15.5q-116 0 -208 31.5t-155.5 91
t-97 145t-33.5 194.5q0 132 37 235.5t107 175t171 109.5t229 38q112 0 200.5 -29t149.5 -84t93.5 -134.5t32.5 -179.5q0 -75 -18 -134.5t-52.5 -101t-83.5 -63t-112 -21.5q-62 0 -94.5 28.5t-32.5 79.5zM519 96q69 0 115.5 42t63.5 117l3 13q2 12 3 23.5t1 22.5
q0 61 -32 93.5t-93 32.5q-42 0 -76 -15t-58.5 -43t-37.5 -66.5t-13 -85.5q0 -63 32 -98.5t92 -35.5z" />
    <glyph glyph-name="A" unicode="A" horiz-adv-x="685" 
d="M517 190h-354l-62 -190h-88l254 740h152l253 -740h-93zM495 260l-153 472h-2l-154 -472h309z" />
    <glyph glyph-name="B" unicode="B" horiz-adv-x="676" 
d="M398 412q111 0 172 -53t61 -150q0 -99 -64 -154t-179 -55h-293v740h278q96 0 148.5 -45t52.5 -126q0 -74 -49.5 -114.5t-139.5 -40.5v-2h13zM485 541q0 61 -37 95t-103 34h-165v-256h165q66 0 103 33.5t37 93.5zM393 70q71 0 110.5 36.5t39.5 102.5t-39.5 102t-110.5 36
h-213v-277h213z" />
    <glyph glyph-name="C" unicode="C" horiz-adv-x="712" 
d="M671 271q-10 -66 -35.5 -118t-64 -88.5t-89 -55.5t-110.5 -19q-75 0 -134 26t-100.5 74.5t-63 119t-21.5 160.5t21.5 160.5t63 119t100.5 74.5t134 26q122 0 200.5 -72t98.5 -202h-83q-18 96 -75 148.5t-141 52.5q-109 0 -169.5 -81t-60.5 -226t60.5 -226t169.5 -81
q85 0 141.5 54.5t74.5 153.5h83v0z" />
    <glyph glyph-name="D" unicode="D" horiz-adv-x="712" 
d="M95 740h214q83 0 148.5 -25t110.5 -73t69 -116.5t24 -155.5t-24 -155.5t-69 -116.5t-110.5 -73t-148.5 -25h-214v740zM315 70q61 0 108.5 20.5t80.5 59t50.5 94t17.5 126.5t-17.5 126.5t-50.5 94t-80.5 59t-108.5 20.5h-135v-600h135z" />
    <glyph glyph-name="E" unicode="E" horiz-adv-x="625" 
d="M582 70v-70h-487v740h476v-70h-391v-253h356v-70h-356v-277h402z" />
    <glyph glyph-name="F" unicode="F" horiz-adv-x="564" 
d="M180 670v-260h308v-70h-308v-340h-85v740h445v-70h-360z" />
    <glyph glyph-name="G" unicode="G" horiz-adv-x="735" 
d="M673 383v-383h-81v269h-2q0 -132 -68 -205.5t-190 -73.5q-64 0 -115.5 26t-87.5 74.5t-55.5 119t-19.5 160.5t21.5 160.5t63 119t101 74.5t134.5 26q119 0 196 -70.5t97 -196.5h-83q-18 92 -73.5 143t-136.5 51q-110 0 -171 -81t-61 -226t59 -226t165 -81
q105 0 163.5 67.5t60.5 188.5h-234v64h317z" />
    <glyph glyph-name="H" unicode="H" horiz-adv-x="735" 
d="M640 740v-740h-85v341h-375v-341h-85v740h85v-329h375v329h85z" />
    <glyph glyph-name="I" unicode="I" horiz-adv-x="275" 
d="M95 740h85v-740h-85v740z" />
    <glyph glyph-name="J" unicode="J" horiz-adv-x="552" 
d="M378 211v529h86v-523q0 -108 -57 -167.5t-160 -59.5q-97 0 -155 67t-66 188h81q7 -86 44.5 -134t97.5 -48q61 0 95 39t34 109z" />
    <glyph glyph-name="K" unicode="K" horiz-adv-x="689" 
d="M693 0h-117l-396 381h-2v-381h-83v740h83v-351h2l368 351h109l-375 -354z" />
    <glyph glyph-name="L" unicode="L" horiz-adv-x="541" 
d="M521 72v-72h-426v740h85v-668h341z" />
    <glyph glyph-name="M" unicode="M" horiz-adv-x="948" 
d="M865 0h-86l-21 732h-2l-212 -732h-154l-202 732h-2l-21 -732h-81l22 740h167l195 -732h3l204 732h167z" />
    <glyph glyph-name="N" unicode="N" horiz-adv-x="735" 
d="M640 740v-740h-150l-313 732h-2l3 -732h-83v740h152l312 -732h2l-2 732h81z" />
    <glyph glyph-name="O" unicode="O" horiz-adv-x="748" 
d="M374 -10q-75 0 -135 26t-101 74.5t-63 119t-22 160.5t22 160.5t63 119t101 74.5t135 26q76 0 135.5 -26t100.5 -74.5t63 -119t22 -160.5t-22 -160.5t-63 -119t-100.5 -74.5t-135.5 -26zM374 63q55 0 98 21t73 60.5t46 96.5t16 129t-16 129t-46 96.5t-73 60.5t-98 21
t-98 -21t-73 -60.5t-45.5 -96.5t-15.5 -129t15.5 -129t45.5 -96.5t73 -60.5t98 -21z" />
    <glyph glyph-name="P" unicode="P" horiz-adv-x="631" 
d="M349 740q118 0 183 -58.5t65 -164.5t-65.5 -165t-183.5 -59h-168v-293h-85v740h254zM353 363q74 0 115 41t41 113t-40.5 112.5t-114.5 40.5h-174v-307h173z" />
    <glyph glyph-name="Q" unicode="Q" horiz-adv-x="763" 
d="M732 70v-70h-358q-75 0 -135 25.5t-101 74t-63 118t-22 157.5t22 157.5t63 118t101 74t135 25.5q76 0 135.5 -25t100.5 -71t63 -111.5t22 -147.5q0 -77 -17 -137t-49.5 -101.5t-79 -63.5t-105.5 -22v-2zM142 374q0 -145 61 -226t171 -81q55 0 98 21t73 60.5t46 96.5
t16 129q0 143 -61.5 223t-171.5 80t-171 -80t-61 -223z" />
    <glyph glyph-name="R" unicode="R" horiz-adv-x="668" 
d="M635 0h-96l-185 316h-174v-316h-85v740h264q120 0 187 -53.5t67 -150.5q0 -103 -65.5 -160.5t-183.5 -57.5v-2q38 0 75.5 -24.5t63.5 -70.5zM365 383q76 0 118 39t42 108q0 66 -42.5 103t-117.5 37h-185v-287h185z" />
    <glyph glyph-name="S" unicode="S" horiz-adv-x="662" 
d="M329 -10q-128 0 -202.5 69t-82.5 194h85q6 -91 58.5 -140.5t142.5 -49.5q94 0 146 37t52 105q0 41 -18 66t-47 40t-67.5 23t-78.5 15q-46 7 -91 16.5t-81 29.5t-58.5 54.5t-22.5 91.5q0 101 70 155t195 54q119 0 189 -66.5t77 -185.5h-85q-5 85 -53 132t-131 47t-129 -34
t-46 -97q0 -36 16.5 -57.5t43.5 -35t62.5 -20.5t74.5 -13q47 -8 95 -18t86.5 -31.5t62.5 -59t24 -100.5q0 -105 -75.5 -163t-211.5 -58z" />
    <glyph glyph-name="T" unicode="T" horiz-adv-x="580" 
d="M561 670h-228v-670h-86v670h-228v70h542v-70z" />
    <glyph glyph-name="U" unicode="U" horiz-adv-x="715" 
d="M547 740h81v-485q0 -125 -71.5 -195t-199.5 -70q-127 0 -198.5 70t-71.5 195v485h86v-491q0 -88 49 -137t137 -49q89 0 138.5 49t49.5 137v491z" />
    <glyph glyph-name="V" unicode="V" horiz-adv-x="656" 
d="M638 740l-231 -740h-158l-230 740h93l217 -732h2l218 732h89z" />
    <glyph glyph-name="W" unicode="W" horiz-adv-x="1013" 
d="M987 740l-171 -740h-160l-149 732h-2l-148 -732h-161l-170 740h93l162 -732h2l150 732h149l152 -732h2l163 732h88z" />
    <glyph glyph-name="X" unicode="X" horiz-adv-x="647" 
d="M633 0h-107l-201 381h-2l-202 -381h-107l217 386l-193 354h99l186 -351h2l185 351h100l-194 -354z" />
    <glyph glyph-name="Y" unicode="Y" horiz-adv-x="660" 
d="M665 740l-374 -740h-95l138 277h-83l-235 463h101l226 -455h2l225 455h95z" />
    <glyph glyph-name="Z" unicode="Z" horiz-adv-x="666" 
d="M632 70v-70h-592v163l559 505v2h-546v70h557v-163l-559 -505v-2h581z" />
    <glyph glyph-name="bracketleft" unicode="[" horiz-adv-x="297" 
d="M137 727v-914h141v-43h-188v1000h188v-43h-141z" />
    <glyph glyph-name="backslash" unicode="\" horiz-adv-x="406" 
d="M379 -126l-43 -14l-308 926l43 14z" />
    <glyph glyph-name="bracketright" unicode="]" horiz-adv-x="297" 
d="M207 -230h-188v43h141v914h-141v43h188v-1000z" />
    <glyph glyph-name="asciicircum" unicode="^" horiz-adv-x="520" 
d="M482 353h-50l-171 361h-2l-171 -361h-51l175 367h95z" />
    <glyph glyph-name="underscore" unicode="_" horiz-adv-x="549" 
d="M511 -71v-39h-473v39h473z" />
    <glyph glyph-name="grave" unicode="`" horiz-adv-x="228" 
d="M214 637l-25 -46l-177 89l28 51z" />
    <glyph glyph-name="a" unicode="a" 
d="M526 495v-495h-82v163h-2q0 -81 -48.5 -127t-134.5 -46q-100 0 -155 68t-55 190q0 121 55 189t155 68q86 0 134.5 -45.5t48.5 -126.5h2v162h82zM291 58q76 0 117.5 51t41.5 139t-41.5 139t-117.5 51q-75 0 -116.5 -50t-41.5 -140q0 -91 41.5 -140.5t116.5 -49.5z" />
    <glyph glyph-name="b" unicode="b" 
d="M344 505q100 0 155.5 -68t55.5 -189q0 -122 -55.5 -190t-155.5 -68q-86 0 -134 46t-48 127h-2v-163h-82v770h82v-437h2q0 81 48 126.5t134 45.5zM312 58q75 0 117 49.5t42 140.5q0 90 -42 140t-117 50t-117 -51t-42 -139t42 -139t117 -51z" />
    <glyph glyph-name="c" unicode="c" horiz-adv-x="555" 
d="M288 -10q-113 0 -176.5 68t-63.5 190q0 121 63.5 189t176.5 68q91 0 150 -45t77 -129h-82q-17 51 -53.5 79t-91.5 28q-74 0 -115 -50t-41 -140q0 -91 41 -140.5t115 -49.5q58 0 96 30.5t52 86.5h82q-17 -88 -76 -136.5t-154 -48.5z" />
    <glyph glyph-name="d" unicode="d" 
d="M526 770v-770h-82v163h-2q0 -81 -48.5 -127t-134.5 -46q-100 0 -155 68t-55 190q0 121 55 189t155 68q86 0 134.5 -45.5t48.5 -126.5h2v437h82zM291 58q76 0 117.5 51t41.5 139t-41.5 139t-117.5 51q-75 0 -116.5 -50t-41.5 -140q0 -91 41.5 -140.5t116.5 -49.5z" />
    <glyph glyph-name="e" unicode="e" horiz-adv-x="554" 
d="M507 235h-378q3 -86 42 -133t107 -47q60 0 99 31.5t49 87.5h81q-12 -88 -72 -136t-157 -48q-109 0 -169.5 67.5t-60.5 189.5q0 123 60.5 190.5t169.5 67.5t169 -67.5t60 -190.5v-12zM278 440q-64 0 -103 -43t-45 -121h295q-6 78 -44.5 121t-102.5 43z" />
    <glyph glyph-name="f" unicode="f" horiz-adv-x="370" 
d="M292 712q-55 0 -83 -27.5t-28 -77.5v-112h175v-61h-169v-434h-82v434h-80v61h152v2q-36 20 -57 53t-21 75q0 74 46.5 114.5t129.5 40.5q57 0 99 -21l-11 -64q-30 17 -71 17z" />
    <glyph glyph-name="g" unicode="g" 
d="M526 495v-506q0 -109 -62 -169t-174 -60q-100 0 -160 48.5t-68 135.5l78 8q5 -59 44.5 -92t105.5 -33q73 0 113.5 41t40.5 115v182h-2q0 -81 -48.5 -127t-134.5 -46q-100 0 -155 68t-55 189t55 188.5t155 67.5q86 0 134.5 -45.5t48.5 -126.5h2v162h82zM291 60
q76 0 117.5 50.5t41.5 138.5t-41.5 138.5t-117.5 50.5q-75 0 -116.5 -49.5t-41.5 -139.5t41.5 -139.5t116.5 -49.5z" />
    <glyph glyph-name="h" unicode="h" horiz-adv-x="582" 
d="M330 505q85 0 132 -51.5t47 -145.5v-308h-82v306q0 63 -33 97.5t-93 34.5q-67 0 -104 -44t-37 -123v-271h-82v770h82v-445h2q0 85 44.5 132.5t123.5 47.5z" />
    <glyph glyph-name="i" unicode="i" horiz-adv-x="237" 
d="M78 690h82v-105h-82v105zM78 495h82v-495h-82v495z" />
    <glyph glyph-name="j" unicode="j" horiz-adv-x="237" 
d="M78 690h82v-105h-82v105zM78 495h82v-725h-82v725z" />
    <glyph glyph-name="k" unicode="k" horiz-adv-x="549" 
d="M546 0h-109l-275 253h-2v-253h-82v770h82v-508h2l259 233h105l-268 -236z" />
    <glyph glyph-name="l" unicode="l" horiz-adv-x="237" 
d="M78 770h82v-770h-82v770z" />
    <glyph glyph-name="m" unicode="m" horiz-adv-x="912" 
d="M665 505q83 0 128.5 -50.5t45.5 -141.5v-313h-82v311q0 60 -32 93.5t-89 33.5q-65 0 -101 -42.5t-36 -119.5v-276h-82v311q0 60 -31.5 93.5t-89.5 33.5q-65 0 -100.5 -42.5t-35.5 -119.5v-276h-82v495h82v-166h2q0 84 43.5 130t121.5 46q82 0 127 -48t45 -128h2
q0 84 43 130t121 46z" />
    <glyph glyph-name="n" unicode="n" horiz-adv-x="582" 
d="M330 505q85 0 132 -51.5t47 -145.5v-308h-82v306q0 63 -33 97.5t-93 34.5q-67 0 -104 -44t-37 -123v-271h-82v495h82v-170h2q0 85 44.5 132.5t123.5 47.5z" />
    <glyph glyph-name="o" unicode="o" horiz-adv-x="582" 
d="M291 -10q-115 0 -179 68t-64 190q0 121 64.5 189t178.5 68q115 0 178.5 -68t63.5 -189q0 -122 -63.5 -190t-178.5 -68zM291 58q75 0 117 49.5t42 140.5q0 90 -42 140t-117 50t-117 -50t-42 -140q0 -91 42 -140.5t117 -49.5z" />
    <glyph glyph-name="p" unicode="p" 
d="M344 505q100 0 155.5 -68t55.5 -189q0 -122 -55.5 -190t-155.5 -68q-86 0 -134 46t-48 127h-2v-393h-82v725h82v-162h2q0 81 48 126.5t134 45.5zM312 57q75 0 117 50t42 141q0 90 -42 140t-117 50t-117 -51t-42 -139t42 -139.5t117 -51.5z" />
    <glyph glyph-name="q" unicode="q" 
d="M526 495v-725h-82v393h-2q0 -81 -48.5 -127t-134.5 -46q-100 0 -155 68t-55 190q0 121 55 189t155 68q86 0 134.5 -45.5t48.5 -126.5h2v162h82zM291 57q76 0 117.5 50t41.5 141q0 90 -41.5 140t-117.5 50q-75 0 -116.5 -50t-41.5 -140q0 -91 41.5 -141t116.5 -50z" />
    <glyph glyph-name="r" unicode="r" horiz-adv-x="410" 
d="M324 505q22 0 42 -3.5t35 -11.5l-25 -77q-14 8 -33.5 12.5t-39.5 4.5q-68 0 -105.5 -49t-37.5 -138v-243h-82v495h82v-188h2q0 94 42.5 146t119.5 52z" />
    <glyph glyph-name="s" unicode="s" horiz-adv-x="506" 
d="M252 -10q-100 0 -155 44.5t-55 125.5h79q0 -54 34 -83t97 -29q62 0 96 22.5t34 62.5q0 26 -12 42t-32 26t-46 16t-54 11q-32 6 -64.5 13t-58.5 21.5t-42 38.5t-16 63q0 66 51.5 103.5t143.5 37.5t143.5 -43t51.5 -121h-79q0 51 -30 79t-86 28q-54 0 -84.5 -20.5
t-30.5 -58.5q0 -21 11 -34.5t29.5 -22t42.5 -14t50 -9.5q33 -6 67.5 -14t62 -24t45 -42t17.5 -69q0 -71 -55 -110.5t-155 -39.5z" />
    <glyph glyph-name="t" unicode="t" horiz-adv-x="375" 
d="M185 434v-289q0 -42 23.5 -64.5t66.5 -22.5q39 0 71 16v-64q-20 -9 -45.5 -14.5t-51.5 -5.5q-69 0 -107.5 39t-38.5 111v294h-80v61h86v172h82v-42q0 -42 -21 -75t-57 -53v-2h241v-61h-169z" />
    <glyph glyph-name="u" unicode="u" horiz-adv-x="572" 
d="M494 495v-495h-82v170h-2q0 -85 -43 -132.5t-120 -47.5q-83 0 -128.5 51.5t-45.5 145.5v308h82v-305q0 -63 31.5 -98t89.5 -35q65 0 100.5 44t35.5 124v270h82z" />
    <glyph glyph-name="v" unicode="v" horiz-adv-x="526" 
d="M501 495l-159 -495h-158l-159 495h88l149 -489h2l149 489h88z" />
    <glyph glyph-name="w" unicode="w" horiz-adv-x="826" 
d="M799 495l-132 -495h-148l-105 489h-2l-105 -489h-148l-132 495h88l121 -489h2l105 489h143l104 -489h2l122 489h85z" />
    <glyph glyph-name="x" unicode="x" horiz-adv-x="535" 
d="M518 0h-97l-153 253h-2l-153 -253h-96l165 259l-148 236h94l138 -233h2l139 233h94l-149 -236z" />
    <glyph glyph-name="y" unicode="y" horiz-adv-x="526" 
d="M502 495l-234 -725h-88l75 230h-70l-159 495h88l149 -489h2l149 489h88z" />
    <glyph glyph-name="z" unicode="z" horiz-adv-x="518" 
d="M481 62v-62h-436v143l406 289v2h-400v61h412v-142l-407 -289v-2h425z" />
    <glyph glyph-name="braceleft" unicode="{" horiz-adv-x="267" 
d="M163 372q0 -76 -67 -102q67 -28 67 -103v-289q0 -29 17 -47t45 -18v-43q-49 0 -79 28t-30 74v289q0 42 -22.5 64t-64.5 22v45q42 0 64.5 22t22.5 64v290q0 46 30 74t79 28v-43q-28 0 -45 -18t-17 -47v-290v0z" />
    <glyph glyph-name="bar" unicode="|" horiz-adv-x="227" 
d="M137 770v-1000h-47v1000h47z" />
    <glyph glyph-name="braceright" unicode="}" horiz-adv-x="267" 
d="M151 378q0 -42 22.5 -64t64.5 -22v-45q-42 0 -64.5 -22t-22.5 -64v-289q0 -46 -30 -74t-79 -28v43q28 0 45 18t17 47v289q0 75 67 103q-67 26 -67 102v290q0 29 -17 47t-45 18v43q49 0 79 -28t30 -74v-290v0z" />
    <glyph glyph-name="asciitilde" unicode="~" horiz-adv-x="590" 
d="M408 191q-42 0 -70.5 12t-52 26t-47.5 26t-58 12q-32 0 -51.5 -21t-22.5 -59h-39q1 58 31 90t85 32q42 0 70.5 -12t52 -26t47.5 -26t58 -12q32 0 51.5 21t22.5 59h38q-1 -58 -31 -90t-84 -32z" />
    <glyph glyph-name="uni00A0" unicode="&#xa0;" horiz-adv-x="238" 
 />
    <glyph glyph-name="exclamdown" unicode="&#xa1;" horiz-adv-x="243" 
d="M171 495v-94h-100v94h100zM160 303l5 -533h-86l5 533h76z" />
    <glyph glyph-name="cent" unicode="&#xa2;" horiz-adv-x="558" 
d="M519 301q-16 -82 -68.5 -130t-137.5 -54v-117h-46v117q-103 7 -160.5 74t-57.5 183q0 115 57.5 182t160.5 74v110h46v-110q81 -6 133.5 -50.5t69.5 -122.5h-82q-14 45 -45 72.5t-76 33.5v-378q48 7 79.5 36.5t44.5 79.5h82zM133 374q0 -84 35 -132.5t99 -56.5v378
q-64 -8 -99 -57t-35 -132z" />
    <glyph glyph-name="sterling" unicode="&#xa3;" horiz-adv-x="621" 
d="M579 70v-70h-532v65q67 44 91.5 93.5t24.5 106.5q0 24 -8 51h-96v44h80q-9 21 -18.5 42t-17.5 42.5t-13 43.5t-5 44q0 94 63 146t176 52q111 0 175.5 -62.5t70.5 -175.5h-83q-5 78 -47.5 121.5t-114.5 43.5q-70 0 -109.5 -33.5t-39.5 -94.5q0 -21 5.5 -42t13.5 -42
t17.5 -42.5t18.5 -42.5h226v-44h-211q3 -12 5 -24t2 -24q0 -61 -42.5 -110.5t-141.5 -85.5v-2h510z" />
    <glyph glyph-name="currency" unicode="&#xa4;" horiz-adv-x="563" 
d="M479 337q0 -40 -9.5 -72t-26.5 -57l58 -60l-30 -32l-58 59q-51 -40 -131 -40q-81 0 -130 41l-59 -59l-31 31l59 60q-35 50 -35 129q0 78 35 128l-58 60l30 32l59 -59q49 41 130 41q79 0 130 -40l59 58l31 -31l-59 -60q36 -50 36 -129zM282 175q71 0 110.5 42.5
t39.5 119.5t-39.5 119.5t-110.5 42.5t-110.5 -42.5t-39.5 -119.5t39.5 -119.5t110.5 -42.5z" />
    <glyph glyph-name="yen" unicode="&#xa5;" horiz-adv-x="700" 
d="M442 280h150v-43h-172l-30 -59h202v-43h-224l-68 -135h-95l67 135h-157v43h179l29 59h-208v43h143l-233 460h101l226 -455h2l225 455h95z" />
    <glyph glyph-name="brokenbar" unicode="&#xa6;" horiz-adv-x="227" 
d="M137 770v-400h-47v400h47zM137 170v-400h-47v400h47z" />
    <glyph glyph-name="section" unicode="&#xa7;" horiz-adv-x="673" 
d="M393 42q107 0 166 -30.5t59 -87.5q0 -78 -73 -121t-206 -43q-132 0 -208.5 64.5t-83.5 181.5h85q5 -82 60 -127.5t149 -45.5q91 0 140.5 28t49.5 79q0 48 -49.5 75t-139.5 27q-131 0 -203 60.5t-72 169.5q0 98 58.5 157t165.5 70v2q-106 0 -165 31t-59 87
q0 76 66.5 118.5t186.5 42.5q125 0 198 -61.5t80 -173.5h-85q-4 78 -54.5 120t-137.5 42q-79 0 -123 -27t-44 -76t49.5 -75.5t138.5 -26.5q131 0 203.5 -60.5t72.5 -169.5q0 -98 -58.5 -157t-166.5 -70v-3zM154 272q0 -75 49.5 -116.5t138.5 -41.5q90 0 139.5 41.5
t49.5 116.5t-49.5 116t-139.5 41q-88 0 -138 -41t-50 -116z" />
    <glyph glyph-name="dieresis" unicode="&#xa8;" horiz-adv-x="373" 
d="M68 710h79v-105h-79v105zM227 710h78v-105h-78v105z" />
    <glyph glyph-name="copyright" unicode="&#xa9;" horiz-adv-x="850" 
d="M425 -10q-88 0 -157.5 26t-117.5 74.5t-73 119t-25 160.5t25 160.5t73 119t117.5 74.5t157.5 26t157 -26t117 -74.5t73.5 -119t25.5 -160.5t-25.5 -160.5t-73.5 -119t-117 -74.5t-157 -26zM425 31q77 0 137.5 23t102.5 66.5t64 106.5t22 143t-22 143t-64 106.5
t-102.5 66.5t-137.5 23t-137.5 -23t-102.5 -66.5t-64 -106.5t-22 -143t22 -143t64 -106.5t102.5 -66.5t137.5 -23zM428 191q-78 0 -121 47.5t-43 132.5q0 86 43 133.5t121 47.5q60 0 100 -31.5t54 -89.5h-45q-11 39 -39 61t-70 22q-57 0 -88 -37.5t-31 -105.5
q0 -67 31 -104.5t88 -37.5q45 0 73 22.5t39 64.5h45q-11 -60 -52.5 -92.5t-104.5 -32.5z" />
    <glyph glyph-name="ordfeminine" unicode="&#xaa;" horiz-adv-x="414" 
d="M345 740v-299h-63v100h-1q0 -50 -28.5 -78t-79.5 -28q-59 0 -91.5 41t-32.5 114q0 74 32.5 115t91.5 41q51 0 79.5 -28t28.5 -78h1v100h63zM200 486q41 0 63.5 28t22.5 76t-22.5 76.5t-63.5 28.5q-42 0 -64 -27.5t-22 -77.5q0 -49 22 -76.5t64 -27.5z" />
    <glyph glyph-name="guillemotleft" unicode="&#xab;" horiz-adv-x="430" 
d="M169 443h50l-126 -193l126 -193h-50l-128 193zM329 443h50l-126 -193l126 -193h-50l-128 193z" />
    <glyph glyph-name="logicalnot" unicode="&#xac;" horiz-adv-x="523" 
d="M450 337v-174h-46v135h-336v39h382z" />
    <glyph glyph-name="uni00AD" unicode="&#xad;" horiz-adv-x="403" 
d="M336 271v-39h-268v39h268z" />
    <glyph glyph-name="registered" unicode="&#xae;" horiz-adv-x="492" 
d="M246 780q94 0 145.5 -50.5t51.5 -141.5t-51.5 -142t-145.5 -51t-146 51t-52 142t52 141.5t146 50.5zM246 427q77 0 120 42.5t43 118.5t-43 118.5t-120 42.5t-120 -42.5t-43 -118.5t43 -118.5t120 -42.5zM256 566q14 0 26 -6t18 -16l33 -53h-36l-45 75h-50v-75h-33v195h87
q34 0 52.5 -15.5t18.5 -43.5q0 -29 -18.5 -44t-52.5 -15v-2zM257 591q35 0 35 35q0 33 -35 33h-55v-68h55z" />
    <glyph glyph-name="macron" unicode="&#xaf;" horiz-adv-x="326" 
d="M304 688v-61h-282v61h282z" />
    <glyph glyph-name="degree" unicode="&#xb0;" horiz-adv-x="322" 
d="M161 558q-56 0 -86.5 29t-30.5 82t30.5 82t86.5 29t86.5 -29t30.5 -82t-30.5 -82t-86.5 -29zM161 607q26 0 41.5 16.5t15.5 45.5t-15.5 45.5t-41.5 16.5q-27 0 -42 -16.5t-15 -45.5t15 -45.5t42 -16.5z" />
    <glyph glyph-name="plusminus" unicode="&#xb1;" horiz-adv-x="507" 
d="M445 337v-40h-169v-159h-46v159h-168v40h168v160h46v-160h169zM62 52h383v-40h-383v40z" />
    <glyph glyph-name="uni00B2" unicode="&#xb2;" horiz-adv-x="371" 
d="M343 410v-52h-315v49q111 35 172.5 101.5t61.5 151.5q0 45 -21 69.5t-58 24.5q-38 0 -61 -28.5t-25 -79.5h-64q5 77 44 119.5t107 42.5q71 0 109.5 -39t38.5 -111q0 -99 -73.5 -164t-206.5 -82v-2h291z" />
    <glyph glyph-name="uni00B3" unicode="&#xb3;" horiz-adv-x="369" 
d="M182 609q73 0 114 -33t41 -92q0 -63 -42 -97.5t-117 -34.5q-69 0 -108.5 38t-43.5 107h63q2 -43 25 -67.5t64 -24.5q43 0 67 20.5t24 58.5q0 36 -25 57t-70 21h-12v48q45 5 69.5 25t24.5 52t-20.5 50t-57.5 18q-36 0 -57.5 -24.5t-23.5 -68.5h-63q5 69 44 107.5t106 38.5
q66 0 103 -27t37 -74q0 -45 -38 -70.5t-107 -25.5v-2h3v0z" />
    <glyph glyph-name="acute" unicode="&#xb4;" horiz-adv-x="233" 
d="M216 680l-177 -89l-25 46l174 94z" />
    <glyph glyph-name="paragraph" unicode="&#xb6;" horiz-adv-x="683" 
d="M583 -230h-71v936h-154v-936h-71v936q-86 0 -134 -41t-48 -116q0 -63 33.5 -103t93.5 -50v-69q-97 9 -150.5 67.5t-53.5 154.5q0 105 68 163t191 58h296v-1000z" />
    <glyph glyph-name="periodcentered" unicode="&#xb7;" horiz-adv-x="234" 
d="M167 307v-95h-100v95h100z" />
    <glyph glyph-name="cedilla" unicode="&#xb8;" horiz-adv-x="264" 
d="M109 -240q-23 0 -47 6t-42 16v43q17 -11 38 -17t43 -6q36 0 56 14t20 38q0 20 -13 30.5t-36 10.5q-18 1 -33 -6t-25 -18l-34 24q17 19 44.5 30.5t56.5 11.5q48 0 75.5 -21.5t27.5 -59.5q0 -46 -34.5 -71t-96.5 -25z" />
    <glyph glyph-name="uni00B9" unicode="&#xb9;" horiz-adv-x="230" 
d="M170 802v-444h-66v423h-2q0 -47 -22.5 -72.5t-62.5 -25.5v57q41 0 64 16.5t23 45.5h66z" />
    <glyph glyph-name="ordmasculine" unicode="&#xba;" horiz-adv-x="395" 
d="M198 435q-72 0 -111.5 41t-39.5 114q0 74 39.5 115t111.5 41q71 0 110.5 -41t39.5 -115q0 -73 -39.5 -114t-110.5 -41zM198 486q41 0 63.5 27.5t22.5 76.5q0 50 -22.5 77.5t-63.5 27.5q-42 0 -64 -27.5t-22 -77.5q0 -49 22 -76.5t64 -27.5z" />
    <glyph glyph-name="guillemotright" unicode="&#xbb;" horiz-adv-x="430" 
d="M101 57h-50l126 193l-126 193h50l128 -193zM261 57h-50l126 193l-126 193h50l128 -193z" />
    <glyph glyph-name="onequarter" unicode="&#xbc;" horiz-adv-x="801" 
d="M121 731q0 -47 -22.5 -72.5t-62.5 -25.5v57q41 0 64 16.5t23 45.5h66v-444h-66v423h-2zM586 725l-478 -735l-33 25l478 735zM772 110h-58v-110h-66v110h-213v56l155 278h124v-282h58v-52zM497 164v-2h153v276h-2z" />
    <glyph glyph-name="onehalf" unicode="&#xbd;" horiz-adv-x="797" 
d="M121 731q0 -47 -22.5 -72.5t-62.5 -25.5v57q41 0 64 16.5t23 45.5h66v-444h-66v423h-2zM586 725l-478 -735l-33 25l478 735zM759 52v-52h-315v49q111 35 172.5 101.5t61.5 151.5q0 45 -21 69.5t-58 24.5q-38 0 -61 -28.5t-25 -79.5h-64q5 77 44 119.5t107 42.5
q71 0 109.5 -39t38.5 -111q0 -99 -73.5 -164t-206.5 -82v-2h291z" />
    <glyph glyph-name="threequarters" unicode="&#xbe;" horiz-adv-x="934" 
d="M348 434q0 -63 -42 -97.5t-117 -34.5q-69 0 -108.5 38t-43.5 107h63q2 -43 25 -67.5t64 -24.5q43 0 67 20.5t24 58.5q0 36 -25 57t-70 21h-12v48q45 5 69.5 25t24.5 52t-20.5 50t-57.5 18q-36 0 -57.5 -24.5t-23.5 -68.5h-63q5 69 44 107.5t106 38.5q66 0 103 -27t37 -74
q0 -45 -38 -70.5t-107 -25.5v-2h3q73 0 114 -33t41 -92zM719 725l-478 -735l-33 25l478 735zM904 110h-58v-110h-66v110h-213v56l155 278h124v-282h58v-52zM629 164v-2h153v276h-2z" />
    <glyph glyph-name="questiondown" unicode="&#xbf;" horiz-adv-x="527" 
d="M242 401v94h100v-94h-100zM501 -2q-6 -113 -67.5 -175.5t-167.5 -62.5q-108 0 -168 54.5t-60 151.5q0 37 14 79t41 85t66 87t88 86h81v-2q-47 -43 -84 -87t-63 -86.5t-39.5 -82.5t-13.5 -74q0 -65 37 -101.5t103 -36.5q67 0 106.5 43.5t44.5 121.5h82z" />
    <glyph glyph-name="Agrave" unicode="&#xc0;" horiz-adv-x="685" 
d="M517 190h-354l-62 -190h-88l254 740h152l253 -740h-93zM495 260l-153 472h-2l-154 -472h309zM320 802l-79 125h81l62 -125h-64z" />
    <glyph glyph-name="Aacute" unicode="&#xc1;" horiz-adv-x="685" 
d="M517 190h-354l-62 -190h-88l254 740h152l253 -740h-93zM495 260l-153 472h-2l-154 -472h309zM303 802l62 125h81l-79 -125h-64z" />
    <glyph glyph-name="Acircumflex" unicode="&#xc2;" horiz-adv-x="685" 
d="M517 190h-354l-62 -190h-88l254 740h152l253 -740h-93zM495 260l-153 472h-2l-154 -472h309zM344 908h-4l-60 -116h-66l65 125h126l65 -125h-66z" />
    <glyph glyph-name="Atilde" unicode="&#xc3;" horiz-adv-x="685" 
d="M517 190h-354l-62 -190h-88l254 740h152l253 -740h-93zM495 260l-153 472h-2l-154 -472h309zM391 805q-18 0 -30.5 6.5t-23.5 14.5t-21.5 14.5t-23.5 6.5t-20.5 -13t-9.5 -32h-52q1 51 23.5 79.5t63.5 28.5q18 0 30.5 -6.5t23 -14t20.5 -14t24 -6.5t21.5 12.5t9.5 31.5
h52q-1 -51 -24 -79.5t-63 -28.5z" />
    <glyph glyph-name="Adieresis" unicode="&#xc4;" horiz-adv-x="685" 
d="M302 850h-79v105h79v-105zM460 850h-78v105h78v-105zM517 190h-354l-62 -190h-88l254 740h152l253 -740h-93zM495 260l-153 472h-2l-154 -472h309z" />
    <glyph glyph-name="Aring" unicode="&#xc5;" horiz-adv-x="685" 
d="M342 797q-56 0 -87 29.5t-31 80.5q0 52 31 81t87 29t86.5 -29t30.5 -81q0 -51 -30.5 -80.5t-86.5 -29.5zM342 971q-29 0 -45.5 -17t-16.5 -47t16.5 -46.5t45.5 -16.5t45 16.5t16 46.5t-16 47t-45 17zM517 190h-354l-62 -190h-88l254 740h152l253 -740h-93zM495 260
l-153 472h-2l-154 -472h309z" />
    <glyph glyph-name="AE" unicode="&#xc6;" horiz-adv-x="1065" 
d="M1022 70v-70h-457l-36 190h-350l-87 -190h-93l348 740h664v-70h-492l54 -261h403v-70h-388l56 -269h378zM516 260l-88 472h-2l-215 -472h305z" />
    <glyph glyph-name="Ccedilla" unicode="&#xc7;" horiz-adv-x="712" 
d="M671 271q-10 -66 -35.5 -118t-64 -88.5t-89 -55.5t-110.5 -19q-75 0 -134 26t-100.5 74.5t-63 119t-21.5 160.5t21.5 160.5t63 119t100.5 74.5t134 26q122 0 200.5 -72t98.5 -202h-83q-18 96 -75 148.5t-141 52.5q-109 0 -169.5 -81t-60.5 -226t60.5 -226t169.5 -81
q85 0 141.5 54.5t74.5 153.5h83zM349 -240q-23 0 -47 6t-42 16v43q17 -11 38 -17t43 -6q36 0 56 14t20 38q0 20 -13 30.5t-36 10.5q-18 1 -33 -6t-25 -18l-34 24q17 19 44.5 30.5t56.5 11.5q48 0 75.5 -21.5t27.5 -59.5q0 -46 -34.5 -71t-96.5 -25z" />
    <glyph glyph-name="Egrave" unicode="&#xc8;" horiz-adv-x="625" 
d="M582 70v-70h-487v740h476v-70h-391v-253h356v-70h-356v-277h402zM323 802l-79 125h81l62 -125h-64z" />
    <glyph glyph-name="Eacute" unicode="&#xc9;" horiz-adv-x="625" 
d="M582 70v-70h-487v740h476v-70h-391v-253h356v-70h-356v-277h402zM300 802l62 125h81l-79 -125h-64z" />
    <glyph glyph-name="Ecircumflex" unicode="&#xca;" horiz-adv-x="625" 
d="M582 70v-70h-487v740h476v-70h-391v-253h356v-70h-356v-277h402zM326 908h-4l-60 -116h-66l65 125h126l65 -125h-66z" />
    <glyph glyph-name="Edieresis" unicode="&#xcb;" horiz-adv-x="625" 
d="M291 850h-79v105h79v-105zM449 850h-78v105h78v-105zM582 70v-70h-487v740h476v-70h-391v-253h356v-70h-356v-277h402z" />
    <glyph glyph-name="Igrave" unicode="&#xcc;" horiz-adv-x="275" 
d="M95 740h85v-740h-85v740zM115 802l-79 125h81l62 -125h-64z" />
    <glyph glyph-name="Iacute" unicode="&#xcd;" horiz-adv-x="275" 
d="M95 740h85v-740h-85v740zM94 802l62 125h81l-79 -125h-64z" />
    <glyph glyph-name="Icircumflex" unicode="&#xce;" horiz-adv-x="275" 
d="M295 815h-70l-87 151h-2l-86 -151h-70l95 160h125zM95 740h85v-740h-85v740z" />
    <glyph glyph-name="Idieresis" unicode="&#xcf;" horiz-adv-x="275" 
d="M19 955h79v-105h-79v105zM178 955h78v-105h-78v105zM95 740h85v-740h-85v740z" />
    <glyph glyph-name="Eth" unicode="&#xd0;" horiz-adv-x="721" 
d="M318 740q83 0 148.5 -25t110.5 -73t69 -116.5t24 -155.5t-24 -155.5t-69 -116.5t-110.5 -73t-148.5 -25h-214v356h-93v39h93v345h214zM324 70q61 0 108.5 20.5t80.5 59t50.5 94t17.5 126.5t-17.5 126.5t-50.5 94t-80.5 59t-108.5 20.5h-135v-275h145v-39h-145v-286h135z
" />
    <glyph glyph-name="Ntilde" unicode="&#xd1;" horiz-adv-x="735" 
d="M293 906q-23 0 -37 -18t-16 -50h-45q1 63 28 97t75 34q26 0 45 -10t35 -21.5t31 -21.5t33 -10q23 0 36.5 17.5t16.5 49.5h45q-1 -62 -28 -96.5t-76 -34.5q-26 0 -44.5 10t-34.5 22t-31 22t-33 10zM640 740v-740h-150l-313 732h-2l3 -732h-83v740h152l312 -732h2l-2 732
h81z" />
    <glyph glyph-name="Ograve" unicode="&#xd2;" horiz-adv-x="748" 
d="M374 -10q-75 0 -135 26t-101 74.5t-63 119t-22 160.5t22 160.5t63 119t101 74.5t135 26q76 0 135.5 -26t100.5 -74.5t63 -119t22 -160.5t-22 -160.5t-63 -119t-100.5 -74.5t-135.5 -26zM374 63q55 0 98 21t73 60.5t46 96.5t16 129t-16 129t-46 96.5t-73 60.5t-98 21
t-98 -21t-73 -60.5t-45.5 -96.5t-15.5 -129t15.5 -129t45.5 -96.5t73 -60.5t98 -21zM350 802l-79 125h81l62 -125h-64z" />
    <glyph glyph-name="Oacute" unicode="&#xd3;" horiz-adv-x="748" 
d="M374 -10q-75 0 -135 26t-101 74.5t-63 119t-22 160.5t22 160.5t63 119t101 74.5t135 26q76 0 135.5 -26t100.5 -74.5t63 -119t22 -160.5t-22 -160.5t-63 -119t-100.5 -74.5t-135.5 -26zM374 63q55 0 98 21t73 60.5t46 96.5t16 129t-16 129t-46 96.5t-73 60.5t-98 21
t-98 -21t-73 -60.5t-45.5 -96.5t-15.5 -129t15.5 -129t45.5 -96.5t73 -60.5t98 -21zM328 802l62 125h81l-79 -125h-64z" />
    <glyph glyph-name="Ocircumflex" unicode="&#xd4;" horiz-adv-x="748" 
d="M374 750q76 0 135.5 -26t100.5 -74.5t63 -119t22 -160.5t-22 -160.5t-63 -119t-100.5 -74.5t-135.5 -26q-75 0 -135 26t-101 74.5t-63 119t-22 160.5t22 160.5t63 119t101 74.5t135 26zM374 63q55 0 98 21t73 60.5t46 96.5t16 129t-16 129t-46 96.5t-73 60.5t-98 21
t-98 -21t-73 -60.5t-45.5 -96.5t-15.5 -129t15.5 -129t45.5 -96.5t73 -60.5t98 -21zM376 908h-4l-60 -116h-66l65 125h126l65 -125h-66z" />
    <glyph glyph-name="Otilde" unicode="&#xd5;" horiz-adv-x="748" 
d="M374 -10q-75 0 -135 26t-101 74.5t-63 119t-22 160.5t22 160.5t63 119t101 74.5t135 26q76 0 135.5 -26t100.5 -74.5t63 -119t22 -160.5t-22 -160.5t-63 -119t-100.5 -74.5t-135.5 -26zM374 63q55 0 98 21t73 60.5t46 96.5t16 129t-16 129t-46 96.5t-73 60.5t-98 21
t-98 -21t-73 -60.5t-45.5 -96.5t-15.5 -129t15.5 -129t45.5 -96.5t73 -60.5t98 -21zM422 805q-18 0 -30.5 6.5t-23.5 14.5t-21.5 14.5t-23.5 6.5t-20.5 -13t-9.5 -32h-52q1 51 23.5 79.5t63.5 28.5q18 0 30.5 -6.5t23 -14t20.5 -14t24 -6.5t21.5 12.5t9.5 31.5h52
q-1 -51 -24 -79.5t-63 -28.5z" />
    <glyph glyph-name="Odieresis" unicode="&#xd6;" horiz-adv-x="748" 
d="M256 955h79v-105h-79v105zM415 955h78v-105h-78v105zM374 -10q-75 0 -135 26t-101 74.5t-63 119t-22 160.5t22 160.5t63 119t101 74.5t135 26q76 0 135.5 -26t100.5 -74.5t63 -119t22 -160.5t-22 -160.5t-63 -119t-100.5 -74.5t-135.5 -26zM374 63q55 0 98 21t73 60.5
t46 96.5t16 129t-16 129t-46 96.5t-73 60.5t-98 21t-98 -21t-73 -60.5t-45.5 -96.5t-15.5 -129t15.5 -129t45.5 -96.5t73 -60.5t98 -21z" />
    <glyph glyph-name="multiply" unicode="&#xd7;" horiz-adv-x="476" 
d="M269 246l149 -148l-32 -32l-149 149l-149 -149l-30 31l148 149l-148 148l30 32l150 -149l148 149l32 -32z" />
    <glyph glyph-name="Oslash" unicode="&#xd8;" horiz-adv-x="748" 
d="M587 674q53 -49 80.5 -125.5t27.5 -178.5q0 -90 -22 -160.5t-63 -119t-100.5 -74.5t-135.5 -26q-99 0 -173 46l-44 -73l-42 26l47 77q-53 49 -81 125.5t-28 178.5q0 90 22 160.5t63 119t101 74.5t135 26q100 0 174 -46l44 73l42 -26zM142 370q0 -151 64 -230l300 495
q-54 42 -132 42q-55 0 -98 -21t-73 -60.5t-45.5 -96.5t-15.5 -129zM374 63q55 0 98 21t73 60.5t46 96.5t16 129q0 75 -16.5 132.5t-48.5 97.5l-300 -496q55 -41 132 -41z" />
    <glyph glyph-name="Ugrave" unicode="&#xd9;" horiz-adv-x="715" 
d="M547 740h81v-485q0 -125 -71.5 -195t-199.5 -70q-127 0 -198.5 70t-71.5 195v485h86v-491q0 -88 49 -137t137 -49q89 0 138.5 49t49.5 137v491zM356 802l-79 125h81l62 -125h-64z" />
    <glyph glyph-name="Uacute" unicode="&#xda;" horiz-adv-x="715" 
d="M547 740h81v-485q0 -125 -71.5 -195t-199.5 -70q-127 0 -198.5 70t-71.5 195v485h86v-491q0 -88 49 -137t137 -49q89 0 138.5 49t49.5 137v491zM312 802l62 125h81l-79 -125h-64z" />
    <glyph glyph-name="Ucircumflex" unicode="&#xdb;" horiz-adv-x="715" 
d="M272 815h-70l95 160h125l95 -160h-70l-87 151h-2zM628 740v-485q0 -125 -71.5 -195t-199.5 -70q-127 0 -198.5 70t-71.5 195v485h86v-491q0 -88 49 -137t137 -49q89 0 138.5 49t49.5 137v491h81z" />
    <glyph glyph-name="Udieresis" unicode="&#xdc;" horiz-adv-x="715" 
d="M240 955h79v-105h-79v105zM399 955h78v-105h-78v105zM547 740h81v-485q0 -125 -71.5 -195t-199.5 -70q-127 0 -198.5 70t-71.5 195v485h86v-491q0 -88 49 -137t137 -49q89 0 138.5 49t49.5 137v491z" />
    <glyph glyph-name="Yacute" unicode="&#xdd;" horiz-adv-x="660" 
d="M665 740l-374 -740h-95l138 277h-83l-235 463h101l226 -455h2l225 455h95zM294 802l62 125h81l-79 -125h-64z" />
    <glyph glyph-name="Thorn" unicode="&#xde;" horiz-adv-x="643" 
d="M349 605q118 0 183 -60t65 -168t-65.5 -168.5t-183.5 -60.5h-168v-148h-85v740h85v-135h169zM353 218q74 0 115 42t41 117t-40.5 116.5t-114.5 41.5h-174v-317h173z" />
    <glyph glyph-name="germandbls" unicode="&#xdf;" horiz-adv-x="622" 
d="M306 457q128 0 199 -60.5t71 -169.5q0 -112 -63 -174.5t-175 -62.5q-25 0 -49 3t-43 9v64q35 -8 77 -8q81 0 125 45t44 126t-49.5 126t-139.5 45h-34v59q81 4 125 38.5t44 94.5q0 57 -34 88.5t-96 31.5q-70 0 -109 -38t-39 -108v-566h-82v563q0 103 60.5 160t169.5 57
q102 0 158 -43t56 -121q0 -75 -56.5 -116t-159.5 -41v-2v0z" />
    <glyph glyph-name="agrave" unicode="&#xe0;" 
d="M526 495v-495h-82v163h-2q0 -81 -48.5 -127t-134.5 -46q-100 0 -155 68t-55 190q0 121 55 189t155 68q86 0 134.5 -45.5t48.5 -126.5h2v162h82zM291 58q76 0 117.5 51t41.5 139t-41.5 139t-117.5 51q-75 0 -116.5 -50t-41.5 -140q0 -91 41.5 -140.5t116.5 -49.5zM279 560
l-79 125h81l62 -125h-64z" />
    <glyph glyph-name="aacute" unicode="&#xe1;" 
d="M526 495v-495h-82v163h-2q0 -81 -48.5 -127t-134.5 -46q-100 0 -155 68t-55 190q0 121 55 189t155 68q86 0 134.5 -45.5t48.5 -126.5h2v162h82zM291 58q76 0 117.5 51t41.5 139t-41.5 139t-117.5 51q-75 0 -116.5 -50t-41.5 -140q0 -91 41.5 -140.5t116.5 -49.5zM260 560
l62 125h81l-79 -125h-64z" />
    <glyph glyph-name="acircumflex" unicode="&#xe2;" 
d="M526 495v-495h-82v163h-2q0 -81 -48.5 -127t-134.5 -46q-100 0 -155 68t-55 190q0 121 55 189t155 68q86 0 134.5 -45.5t48.5 -126.5h2v162h82zM291 58q76 0 117.5 51t41.5 139t-41.5 139t-117.5 51q-75 0 -116.5 -50t-41.5 -140q0 -91 41.5 -140.5t116.5 -49.5zM294 666
h-4l-60 -116h-66l65 125h126l65 -125h-66z" />
    <glyph glyph-name="atilde" unicode="&#xe3;" 
d="M526 495v-495h-82v163h-2q0 -81 -48.5 -127t-134.5 -46q-100 0 -155 68t-55 190q0 121 55 189t155 68q86 0 134.5 -45.5t48.5 -126.5h2v162h82zM291 58q76 0 117.5 51t41.5 139t-41.5 139t-117.5 51q-75 0 -116.5 -50t-41.5 -140q0 -91 41.5 -140.5t116.5 -49.5zM340 563
q-18 0 -30.5 6.5t-23.5 14.5t-21.5 14.5t-23.5 6.5t-20.5 -13t-9.5 -32h-52q1 51 23.5 79.5t63.5 28.5q18 0 30.5 -6.5t23 -14t20.5 -14t24 -6.5t21.5 12.5t9.5 31.5h52q-1 -51 -24 -79.5t-63 -28.5z" />
    <glyph glyph-name="adieresis" unicode="&#xe4;" 
d="M252 605h-79v105h79v-105zM410 605h-78v105h78v-105zM526 495v-495h-82v163h-2q0 -81 -48.5 -127t-134.5 -46q-100 0 -155 68t-55 190q0 121 55 189t155 68q86 0 134.5 -45.5t48.5 -126.5h2v162h82zM291 58q76 0 117.5 51t41.5 139t-41.5 139t-117.5 51q-75 0 -116.5 -50
t-41.5 -140q0 -91 41.5 -140.5t116.5 -49.5z" />
    <glyph glyph-name="aring" unicode="&#xe5;" 
d="M292 552q-56 0 -87 29.5t-31 80.5q0 52 31 81t87 29t86.5 -29t30.5 -81q0 -51 -30.5 -80.5t-86.5 -29.5zM292 726q-29 0 -45.5 -17t-16.5 -47t16.5 -46.5t45.5 -16.5t45 16.5t16 46.5t-16 47t-45 17zM526 495v-495h-82v163h-2q0 -81 -48.5 -127t-134.5 -46
q-100 0 -155 68t-55 190q0 121 55 189t155 68q86 0 134.5 -45.5t48.5 -126.5h2v162h82zM291 58q76 0 117.5 51t41.5 139t-41.5 139t-117.5 51q-75 0 -116.5 -50t-41.5 -140q0 -91 41.5 -140.5t116.5 -49.5z" />
    <glyph glyph-name="ae" unicode="&#xe6;" horiz-adv-x="945" 
d="M897 235h-378q3 -86 42 -133t108 -47q60 0 98.5 31.5t49.5 87.5h80q-10 -88 -62 -136t-137 -48q-81 0 -125.5 44t-44.5 125h-2v-159h-82v163h-2q0 -81 -48.5 -127t-134.5 -46q-100 0 -155 68t-55 190q0 121 55 189t155 68q86 0 134.5 -45.5t48.5 -126.5h2v162h82v-159h2
q0 80 44.5 124.5t125.5 44.5q95 0 147 -67.5t52 -190.5v-12zM669 440q-65 0 -104 -43t-45 -121h296q-6 78 -44.5 121t-102.5 43zM291 58q76 0 117.5 51t41.5 139t-41.5 139t-117.5 51q-75 0 -116.5 -50t-41.5 -140q0 -91 41.5 -140.5t116.5 -49.5z" />
    <glyph glyph-name="ccedilla" unicode="&#xe7;" horiz-adv-x="555" 
d="M288 -10q-113 0 -176.5 68t-63.5 190q0 121 63.5 189t176.5 68q91 0 150 -45t77 -129h-82q-17 51 -53.5 79t-91.5 28q-74 0 -115 -50t-41 -140q0 -91 41 -140.5t115 -49.5q58 0 96 30.5t52 86.5h82q-17 -88 -76 -136.5t-154 -48.5zM266 -240q-23 0 -47 6t-42 16v43
q17 -11 38 -17t43 -6q36 0 56 14t20 38q0 20 -13 30.5t-36 10.5q-18 1 -33 -6t-25 -18l-34 24q17 19 44.5 30.5t56.5 11.5q48 0 75.5 -21.5t27.5 -59.5q0 -46 -34.5 -71t-96.5 -25z" />
    <glyph glyph-name="egrave" unicode="&#xe8;" horiz-adv-x="554" 
d="M507 235h-378q3 -86 42 -133t107 -47q60 0 99 31.5t49 87.5h81q-12 -88 -72 -136t-157 -48q-109 0 -169.5 67.5t-60.5 189.5q0 123 60.5 190.5t169.5 67.5t169 -67.5t60 -190.5v-12zM278 440q-64 0 -103 -43t-45 -121h295q-6 78 -44.5 121t-102.5 43zM261 560l-79 125h81
l62 -125h-64z" />
    <glyph glyph-name="eacute" unicode="&#xe9;" horiz-adv-x="554" 
d="M507 235h-378q3 -86 42 -133t107 -47q60 0 99 31.5t49 87.5h81q-12 -88 -72 -136t-157 -48q-109 0 -169.5 67.5t-60.5 189.5q0 123 60.5 190.5t169.5 67.5t169 -67.5t60 -190.5v-12zM278 440q-64 0 -103 -43t-45 -121h295q-6 78 -44.5 121t-102.5 43zM238 560l62 125h81
l-79 -125h-64z" />
    <glyph glyph-name="ecircumflex" unicode="&#xea;" horiz-adv-x="554" 
d="M507 235h-378q3 -86 42 -133t107 -47q60 0 99 31.5t49 87.5h81q-12 -88 -72 -136t-157 -48q-109 0 -169.5 67.5t-60.5 189.5q0 123 60.5 190.5t169.5 67.5t169 -67.5t60 -190.5v-12zM278 440q-64 0 -103 -43t-45 -121h295q-6 78 -44.5 121t-102.5 43zM284 666h-4
l-60 -116h-66l65 125h126l65 -125h-66z" />
    <glyph glyph-name="edieresis" unicode="&#xeb;" horiz-adv-x="554" 
d="M238 605h-79v105h79v-105zM396 605h-78v105h78v-105zM507 235h-378q3 -86 42 -133t107 -47q60 0 99 31.5t49 87.5h81q-12 -88 -72 -136t-157 -48q-109 0 -169.5 67.5t-60.5 189.5q0 123 60.5 190.5t169.5 67.5t169 -67.5t60 -190.5v-12zM278 440q-64 0 -103 -43t-45 -121
h295q-6 78 -44.5 121t-102.5 43z" />
    <glyph glyph-name="igrave" unicode="&#xec;" horiz-adv-x="237" 
d="M160 495v-495h-82v495h82zM95 560l-79 125h81l62 -125h-64z" />
    <glyph glyph-name="iacute" unicode="&#xed;" horiz-adv-x="237" 
d="M160 495v-495h-82v495h82zM79 560l62 125h81l-79 -125h-64z" />
    <glyph glyph-name="icircumflex" unicode="&#xee;" horiz-adv-x="237" 
d="M276 570h-70l-87 151h-2l-86 -151h-70l95 160h125zM78 495h82v-495h-82v495z" />
    <glyph glyph-name="idieresis" unicode="&#xef;" horiz-adv-x="237" 
d="M0 710h79v-105h-79v105zM159 710h78v-105h-78v105zM160 495v-495h-82v495h82z" />
    <glyph glyph-name="eth" unicode="&#xf0;" horiz-adv-x="592" 
d="M326 684q57 -35 96 -77t64 -92.5t36 -111t11 -132.5q0 -133 -63.5 -207t-178.5 -74t-179 67t-64 188q0 120 56 186.5t156 66.5q90 0 140.5 -60.5t50.5 -166.5h2q0 70 -10 126.5t-33 102t-60.5 82t-91.5 67.5l-139 -72l-28 45l109 57q-24 11 -51.5 21t-57.5 21l21 59
q46 -15 85 -31t74 -34l125 65l28 -45zM291 58q75 0 117 49t42 138t-42 138t-117 49t-117 -49t-42 -138t42 -138t117 -49z" />
    <glyph glyph-name="ntilde" unicode="&#xf1;" horiz-adv-x="582" 
d="M219 661q-23 0 -37 -18t-16 -50h-45q1 63 28 97t75 34q26 0 45 -10t35 -21.5t31 -21.5t33 -10q23 0 36.5 17.5t16.5 49.5h45q-1 -62 -28 -96.5t-76 -34.5q-26 0 -44.5 10t-34.5 22t-31 22t-33 10zM330 505q85 0 132 -51.5t47 -145.5v-308h-82v306q0 63 -33 97.5t-93 34.5
q-67 0 -104 -44t-37 -123v-271h-82v495h82v-170h2q0 85 44.5 132.5t123.5 47.5z" />
    <glyph glyph-name="ograve" unicode="&#xf2;" horiz-adv-x="582" 
d="M291 -10q-115 0 -179 68t-64 190q0 121 64.5 189t178.5 68q115 0 178.5 -68t63.5 -189q0 -122 -63.5 -190t-178.5 -68zM291 58q75 0 117 49.5t42 140.5q0 90 -42 140t-117 50t-117 -50t-42 -140q0 -91 42 -140.5t117 -49.5zM270 560l-79 125h81l62 -125h-64z" />
    <glyph glyph-name="oacute" unicode="&#xf3;" horiz-adv-x="582" 
d="M291 -10q-115 0 -179 68t-64 190q0 121 64.5 189t178.5 68q115 0 178.5 -68t63.5 -189q0 -122 -63.5 -190t-178.5 -68zM291 58q75 0 117 49.5t42 140.5q0 90 -42 140t-117 50t-117 -50t-42 -140q0 -91 42 -140.5t117 -49.5zM246 560l62 125h81l-79 -125h-64z" />
    <glyph glyph-name="ocircumflex" unicode="&#xf4;" horiz-adv-x="582" 
d="M291 505q115 0 178.5 -68t63.5 -189q0 -122 -63.5 -190t-178.5 -68t-179 68t-64 190q0 121 64.5 189t178.5 68zM291 58q75 0 117 49.5t42 140.5q0 90 -42 140t-117 50t-117 -50t-42 -140q0 -91 42 -140.5t117 -49.5zM292 666h-4l-60 -116h-66l65 125h126l65 -125h-66z
" />
    <glyph glyph-name="otilde" unicode="&#xf5;" horiz-adv-x="582" 
d="M291 -10q-115 0 -179 68t-64 190q0 121 64.5 189t178.5 68q115 0 178.5 -68t63.5 -189q0 -122 -63.5 -190t-178.5 -68zM291 58q75 0 117 49.5t42 140.5q0 90 -42 140t-117 50t-117 -50t-42 -140q0 -91 42 -140.5t117 -49.5zM339 563q-18 0 -30.5 6.5t-23.5 14.5
t-21.5 14.5t-23.5 6.5t-20.5 -13t-9.5 -32h-52q1 51 23.5 79.5t63.5 28.5q18 0 30.5 -6.5t23 -14t20.5 -14t24 -6.5t21.5 12.5t9.5 31.5h52q-1 -51 -24 -79.5t-63 -28.5z" />
    <glyph glyph-name="odieresis" unicode="&#xf6;" horiz-adv-x="582" 
d="M172 710h79v-105h-79v105zM331 710h78v-105h-78v105zM291 -10q-115 0 -179 68t-64 190q0 121 64.5 189t178.5 68q115 0 178.5 -68t63.5 -189q0 -122 -63.5 -190t-178.5 -68zM291 58q75 0 117 49.5t42 140.5q0 90 -42 140t-117 50t-117 -50t-42 -140q0 -91 42 -140.5
t117 -49.5z" />
    <glyph glyph-name="divide" unicode="&#xf7;" horiz-adv-x="517" 
d="M259 362q-34 0 -34 32q0 33 34 33t34 -33q0 -32 -34 -32zM68 272h382v-40h-382v40zM259 77q-34 0 -34 31q0 34 34 34t34 -34q0 -31 -34 -31z" />
    <glyph glyph-name="oslash" unicode="&#xf8;" horiz-adv-x="582" 
d="M453 452q39 -33 59.5 -84.5t20.5 -119.5q0 -122 -63.5 -190t-178.5 -68q-72 0 -124 27l-37 -56l-38 25l37 56q-39 34 -60 85.5t-21 120.5q0 121 64.5 189t178.5 68q71 0 124 -28l37 56l38 -24zM132 248q0 -89 41 -139l202 307q-36 22 -84 22q-75 0 -117 -50t-42 -140z
M291 58q75 0 117 49.5t42 140.5q0 89 -41 138l-201 -307q34 -21 83 -21z" />
    <glyph glyph-name="ugrave" unicode="&#xf9;" horiz-adv-x="572" 
d="M494 495v-495h-82v170h-2q0 -85 -43 -132.5t-120 -47.5q-83 0 -128.5 51.5t-45.5 145.5v308h82v-305q0 -63 31.5 -98t89.5 -35q65 0 100.5 44t35.5 124v270h82zM270 560l-79 125h81l62 -125h-64z" />
    <glyph glyph-name="uacute" unicode="&#xfa;" horiz-adv-x="572" 
d="M494 495v-495h-82v170h-2q0 -85 -43 -132.5t-120 -47.5q-83 0 -128.5 51.5t-45.5 145.5v308h82v-305q0 -63 31.5 -98t89.5 -35q65 0 100.5 44t35.5 124v270h82zM242 560l62 125h81l-79 -125h-64z" />
    <glyph glyph-name="ucircumflex" unicode="&#xfb;" horiz-adv-x="572" 
d="M197 570h-70l95 160h125l95 -160h-70l-87 151h-2zM494 495v-495h-82v170h-2q0 -85 -43 -132.5t-120 -47.5q-83 0 -128.5 51.5t-45.5 145.5v308h82v-305q0 -63 31.5 -98t89.5 -35q65 0 100.5 44t35.5 124v270h82z" />
    <glyph glyph-name="udieresis" unicode="&#xfc;" horiz-adv-x="572" 
d="M244 605h-79v105h79v-105zM402 605h-78v105h78v-105zM494 495v-495h-82v170h-2q0 -85 -43 -132.5t-120 -47.5q-83 0 -128.5 51.5t-45.5 145.5v308h82v-305q0 -63 31.5 -98t89.5 -35q65 0 100.5 44t35.5 124v270h82z" />
    <glyph glyph-name="yacute" unicode="&#xfd;" horiz-adv-x="526" 
d="M502 495l-234 -725h-88l75 230h-70l-159 495h88l149 -489h2l149 489h88zM223 560l62 125h81l-79 -125h-64z" />
    <glyph glyph-name="thorn" unicode="&#xfe;" 
d="M344 505q100 0 155.5 -68t55.5 -189q0 -122 -55.5 -190t-155.5 -68q-86 0 -134 43.5t-48 121.5h-2v-385h-82v1000h82v-430h2q0 78 48 121.5t134 43.5zM312 57q75 0 117 50t42 141q0 90 -42 140t-117 50t-117 -51t-42 -139t42 -139.5t117 -51.5z" />
    <glyph glyph-name="ydieresis" unicode="&#xff;" horiz-adv-x="526" 
d="M226 605h-79v105h79v-105zM384 605h-78v105h78v-105zM502 495l-234 -725h-88l75 230h-70l-159 495h88l149 -489h2l149 489h88z" />
    <glyph glyph-name="Amacron" unicode="&#x100;" horiz-adv-x="685" 
d="M483 872h-282v61h282v-61zM517 190h-354l-62 -190h-88l254 740h152l253 -740h-93zM495 260l-153 472h-2l-154 -472h309z" />
    <glyph glyph-name="amacron" unicode="&#x101;" 
d="M432 627h-282v61h282v-61zM526 495v-495h-82v163h-2q0 -81 -48.5 -127t-134.5 -46q-100 0 -155 68t-55 190q0 121 55 189t155 68q86 0 134.5 -45.5t48.5 -126.5h2v162h82zM291 58q76 0 117.5 51t41.5 139t-41.5 139t-117.5 51q-75 0 -116.5 -50t-41.5 -140
q0 -91 41.5 -140.5t116.5 -49.5z" />
    <glyph glyph-name="Abreve" unicode="&#x102;" horiz-adv-x="685" 
d="M517 190h-354l-62 -190h-88l254 740h152l253 -740h-93zM495 260l-153 472h-2l-154 -472h309zM343 792q-63 0 -95.5 30.5t-32.5 85.5h64q0 -36 18.5 -48t45.5 -12t45.5 12t18.5 48h64q0 -55 -32.5 -85.5t-95.5 -30.5z" />
    <glyph glyph-name="abreve" unicode="&#x103;" 
d="M526 495v-495h-82v163h-2q0 -81 -48.5 -127t-134.5 -46q-100 0 -155 68t-55 190q0 121 55 189t155 68q86 0 134.5 -45.5t48.5 -126.5h2v162h82zM291 58q76 0 117.5 51t41.5 139t-41.5 139t-117.5 51q-75 0 -116.5 -50t-41.5 -140q0 -91 41.5 -140.5t116.5 -49.5zM292 550
q-63 0 -95.5 30.5t-32.5 85.5h64q0 -36 18.5 -48t45.5 -12t45.5 12t18.5 48h64q0 -55 -32.5 -85.5t-95.5 -30.5z" />
    <glyph glyph-name="Aogonek" unicode="&#x104;" horiz-adv-x="685" 
d="M606 -188q20 0 38.5 6t35.5 17v-52q-18 -11 -42 -17t-51 -6q-40 0 -62.5 19t-22.5 54q0 25 14.5 53.5t37.5 53.5t51.5 41.5t56.5 16.5v2h-83l-62 190h-354l-62 -190h-88l254 740h152l253 -740h-1q-46 -42 -72 -83t-26 -73t33 -32zM495 260l-153 472h-2l-154 -472h309z
" />
    <glyph glyph-name="aogonek" unicode="&#x105;" 
d="M461 -188q20 0 38.5 6t35.5 17v-52q-18 -11 -42 -17t-51 -6q-40 0 -62.5 19t-22.5 54q0 25 14.5 53.5t37.5 53.5t51.5 41.5t56.5 16.5v2h-73v163h-2q0 -81 -48.5 -127t-134.5 -46q-100 0 -155 68t-55 190q0 121 55 189t155 68q86 0 134.5 -45.5t48.5 -126.5h2v162h82
v-495q-46 -42 -72 -83t-26 -73t33 -32zM291 58q76 0 117.5 51t41.5 139t-41.5 139t-117.5 51q-75 0 -116.5 -50t-41.5 -140q0 -91 41.5 -140.5t116.5 -49.5z" />
    <glyph glyph-name="Cacute" unicode="&#x106;" horiz-adv-x="712" 
d="M508 925l-177 -89l-25 46l174 94zM671 271q-10 -66 -35.5 -118t-64 -88.5t-89 -55.5t-110.5 -19q-75 0 -134 26t-100.5 74.5t-63 119t-21.5 160.5t21.5 160.5t63 119t100.5 74.5t134 26q122 0 200.5 -72t98.5 -202h-83q-18 96 -75 148.5t-141 52.5q-109 0 -169.5 -81
t-60.5 -226t60.5 -226t169.5 -81q85 0 141.5 54.5t74.5 153.5h83z" />
    <glyph glyph-name="cacute" unicode="&#x107;" horiz-adv-x="555" 
d="M424 680l-177 -89l-25 46l174 94zM288 -10q-113 0 -176.5 68t-63.5 190q0 121 63.5 189t176.5 68q91 0 150 -45t77 -129h-82q-17 51 -53.5 79t-91.5 28q-74 0 -115 -50t-41 -140q0 -91 41 -140.5t115 -49.5q58 0 96 30.5t52 86.5h82q-17 -88 -76 -136.5t-154 -48.5z" />
    <glyph glyph-name="Cdotaccent" unicode="&#x10a;" horiz-adv-x="712" 
d="M330 955h82v-105h-82v105zM671 271q-10 -66 -35.5 -118t-64 -88.5t-89 -55.5t-110.5 -19q-75 0 -134 26t-100.5 74.5t-63 119t-21.5 160.5t21.5 160.5t63 119t100.5 74.5t134 26q122 0 200.5 -72t98.5 -202h-83q-18 96 -75 148.5t-141 52.5q-109 0 -169.5 -81t-60.5 -226
t60.5 -226t169.5 -81q85 0 141.5 54.5t74.5 153.5h83z" />
    <glyph glyph-name="cdotaccent" unicode="&#x10b;" horiz-adv-x="555" 
d="M247 710h82v-105h-82v105zM288 -10q-113 0 -176.5 68t-63.5 190q0 121 63.5 189t176.5 68q91 0 150 -45t77 -129h-82q-17 51 -53.5 79t-91.5 28q-74 0 -115 -50t-41 -140q0 -91 41 -140.5t115 -49.5q58 0 96 30.5t52 86.5h82q-17 -88 -76 -136.5t-154 -48.5z" />
    <glyph glyph-name="Ccaron" unicode="&#x10c;" horiz-adv-x="712" 
d="M214 975h70l86 -151h2l87 151h70l-95 -160h-125zM372 63q85 0 141.5 54.5t74.5 153.5h83q-10 -66 -35.5 -118t-64 -88.5t-89 -55.5t-110.5 -19q-75 0 -134 26t-100.5 74.5t-63 119t-21.5 160.5t21.5 160.5t63 119t100.5 74.5t134 26q122 0 200.5 -72t98.5 -202h-83
q-18 96 -75 148.5t-141 52.5q-109 0 -169.5 -81t-60.5 -226t60.5 -226t169.5 -81z" />
    <glyph glyph-name="ccaron" unicode="&#x10d;" horiz-adv-x="555" 
d="M131 730h70l86 -151h2l87 151h70l-95 -160h-125zM518 175q-17 -88 -76 -136.5t-154 -48.5q-113 0 -176.5 68t-63.5 190q0 121 63.5 189t176.5 68q91 0 150 -45t77 -129h-82q-17 51 -53.5 79t-91.5 28q-74 0 -115 -50t-41 -140q0 -91 41 -140.5t115 -49.5q58 0 96 30.5
t52 86.5h82z" />
    <glyph glyph-name="Dcaron" unicode="&#x10e;" horiz-adv-x="712" 
d="M153 975h70l86 -151h2l87 151h70l-95 -160h-125zM309 740q83 0 148.5 -25t110.5 -73t69 -116.5t24 -155.5t-24 -155.5t-69 -116.5t-110.5 -73t-148.5 -25h-214v740h214zM315 70q61 0 108.5 20.5t80.5 59t50.5 94t17.5 126.5t-17.5 126.5t-50.5 94t-80.5 59t-108.5 20.5
h-135v-600h135z" />
    <glyph glyph-name="dcaron" unicode="&#x10f;" horiz-adv-x="628" 
d="M690 763l-55 -207l-57 17l48 207zM444 770h82v-770h-82v163h-2q0 -81 -48.5 -127t-134.5 -46q-100 0 -155 68t-55 190q0 121 55 189t155 68q86 0 134.5 -45.5t48.5 -126.5h2v437zM291 58q76 0 117.5 51t41.5 139t-41.5 139t-117.5 51q-75 0 -116.5 -50t-41.5 -140
q0 -91 41.5 -140.5t116.5 -49.5z" />
    <glyph glyph-name="Dcroat" unicode="&#x110;" horiz-adv-x="721" 
d="M318 740q83 0 148.5 -25t110.5 -73t69 -116.5t24 -155.5t-24 -155.5t-69 -116.5t-110.5 -73t-148.5 -25h-214v346h-83v49h83v345h214zM324 70q61 0 108.5 20.5t80.5 59t50.5 94t17.5 126.5t-17.5 126.5t-50.5 94t-80.5 59t-108.5 20.5h-135v-275h145v-49h-145v-276h135z
" />
    <glyph glyph-name="dcroat" unicode="&#x111;" 
d="M586 608h-60v-608h-82v163h-2q0 -81 -48.5 -127t-134.5 -46q-100 0 -155 68t-55 190q0 121 55 189t155 68q86 0 134.5 -45.5t48.5 -126.5h2v275h-171v49h171v113h82v-113h60v-49zM291 58q76 0 117.5 51t41.5 139t-41.5 139t-117.5 51q-75 0 -116.5 -50t-41.5 -140
q0 -91 41.5 -140.5t116.5 -49.5z" />
    <glyph glyph-name="Emacron" unicode="&#x112;" horiz-adv-x="625" 
d="M472 872h-282v61h282v-61zM582 70v-70h-487v740h476v-70h-391v-253h356v-70h-356v-277h402z" />
    <glyph glyph-name="emacron" unicode="&#x113;" horiz-adv-x="554" 
d="M419 627h-282v61h282v-61zM507 235h-378q3 -86 42 -133t107 -47q60 0 99 31.5t49 87.5h81q-12 -88 -72 -136t-157 -48q-109 0 -169.5 67.5t-60.5 189.5q0 123 60.5 190.5t169.5 67.5t169 -67.5t60 -190.5v-12zM278 440q-64 0 -103 -43t-45 -121h295q-6 78 -44.5 121
t-102.5 43z" />
    <glyph glyph-name="Edotaccent" unicode="&#x116;" horiz-adv-x="625" 
d="M372 850h-82v105h82v-105zM582 70v-70h-487v740h476v-70h-391v-253h356v-70h-356v-277h402z" />
    <glyph glyph-name="edotaccent" unicode="&#x117;" horiz-adv-x="554" 
d="M319 605h-82v105h82v-105zM507 235h-378q3 -86 42 -133t107 -47q60 0 99 31.5t49 87.5h81q-12 -88 -72 -136t-157 -48q-109 0 -169.5 67.5t-60.5 189.5q0 123 60.5 190.5t169.5 67.5t169 -67.5t60 -190.5v-12zM278 440q-64 0 -103 -43t-45 -121h295q-6 78 -44.5 121
t-102.5 43z" />
    <glyph glyph-name="Eogonek" unicode="&#x118;" horiz-adv-x="625" 
d="M477 0q-46 -42 -72 -83t-26 -73t33 -32q20 0 38.5 6t35.5 17v-52q-18 -11 -42 -17t-51 -6q-40 0 -62.5 19t-22.5 54q0 25 14.5 53.5t37.5 53.5t51.5 41.5t56.5 16.5v2h-373v740h476v-70h-391v-253h356v-70h-356v-277h402v-70h-105v0z" />
    <glyph glyph-name="eogonek" unicode="&#x119;" horiz-adv-x="554" 
d="M507 235h-378q3 -86 42 -133t107 -47q60 0 99 31.5t49 87.5h81q-14 -97 -86 -145q-58 -49 -90.5 -98t-32.5 -87q0 -32 34 -32q20 0 38 6t35 17v-52q-18 -11 -42 -17t-50 -6q-41 0 -63 19t-22 54q0 21 13.5 45.5t36.5 49t53.5 46.5t64.5 39v1q-51 -24 -118 -24
q-109 0 -169.5 67.5t-60.5 189.5q0 123 60.5 190.5t169.5 67.5t169 -67.5t60 -190.5v-12zM278 440q-64 0 -103 -43t-45 -121h295q-6 78 -44.5 121t-102.5 43z" />
    <glyph glyph-name="Ecaron" unicode="&#x11a;" horiz-adv-x="625" 
d="M174 975h70l86 -151h2l87 151h70l-95 -160h-125zM582 70v-70h-487v740h476v-70h-391v-253h356v-70h-356v-277h402z" />
    <glyph glyph-name="ecaron" unicode="&#x11b;" horiz-adv-x="554" 
d="M121 730h70l86 -151h2l87 151h70l-95 -160h-125zM507 235h-378q3 -86 42 -133t107 -47q60 0 99 31.5t49 87.5h81q-12 -88 -72 -136t-157 -48q-109 0 -169.5 67.5t-60.5 189.5q0 123 60.5 190.5t169.5 67.5t169 -67.5t60 -190.5v-12zM278 440q-64 0 -103 -43t-45 -121h295
q-6 78 -44.5 121t-102.5 43z" />
    <glyph glyph-name="Gbreve" unicode="&#x11e;" horiz-adv-x="735" 
d="M374 812q-69 0 -107 43t-38 120h61q0 -51 22.5 -80t61.5 -29t61.5 29t22.5 80h61q0 -77 -38 -120t-107 -43zM673 383v-383h-81v269h-2q0 -132 -68 -205.5t-190 -73.5q-64 0 -115.5 26t-87.5 74.5t-55.5 119t-19.5 160.5t21.5 160.5t63 119t101 74.5t134.5 26
q119 0 196 -70.5t97 -196.5h-83q-18 92 -73.5 143t-136.5 51q-110 0 -171 -81t-61 -226t59 -226t165 -81q105 0 163.5 67.5t60.5 188.5h-234v64h317z" />
    <glyph glyph-name="gbreve" unicode="&#x11f;" 
d="M303 567q-69 0 -107 43t-38 120h61q0 -51 22.5 -80t61.5 -29t61.5 29t22.5 80h61q0 -77 -38 -120t-107 -43zM526 495v-506q0 -109 -62 -169t-174 -60q-100 0 -160 48.5t-68 135.5l78 8q5 -59 44.5 -92t105.5 -33q73 0 113.5 41t40.5 115v182h-2q0 -81 -48.5 -127
t-134.5 -46q-100 0 -155 68t-55 189t55 188.5t155 67.5q86 0 134.5 -45.5t48.5 -126.5h2v162h82zM291 60q76 0 117.5 50.5t41.5 138.5t-41.5 138.5t-117.5 50.5q-75 0 -116.5 -49.5t-41.5 -139.5t41.5 -139.5t116.5 -49.5z" />
    <glyph glyph-name="Gdotaccent" unicode="&#x120;" horiz-adv-x="735" 
d="M414 850h-82v105h82v-105zM673 383v-383h-81v269h-2q0 -132 -68 -205.5t-190 -73.5q-64 0 -115.5 26t-87.5 74.5t-55.5 119t-19.5 160.5t21.5 160.5t63 119t101 74.5t134.5 26q119 0 196 -70.5t97 -196.5h-83q-18 92 -73.5 143t-136.5 51q-110 0 -171 -81t-61 -226
t59 -226t165 -81q105 0 163.5 67.5t60.5 188.5h-234v64h317z" />
    <glyph glyph-name="gdotaccent" unicode="&#x121;" 
d="M344 605h-82v105h82v-105zM526 495v-506q0 -109 -62 -169t-174 -60q-100 0 -160 48.5t-68 135.5l78 8q5 -59 44.5 -92t105.5 -33q73 0 113.5 41t40.5 115v182h-2q0 -81 -48.5 -127t-134.5 -46q-100 0 -155 68t-55 189t55 188.5t155 67.5q86 0 134.5 -45.5t48.5 -126.5h2
v162h82zM291 60q76 0 117.5 50.5t41.5 138.5t-41.5 138.5t-117.5 50.5q-75 0 -116.5 -49.5t-41.5 -139.5t41.5 -139.5t116.5 -49.5z" />
    <glyph glyph-name="Gcommaaccent" unicode="&#x122;" horiz-adv-x="735" 
d="M673 383v-383h-81v269h-2q0 -132 -68 -205.5t-190 -73.5q-64 0 -115.5 26t-87.5 74.5t-55.5 119t-19.5 160.5t21.5 160.5t63 119t101 74.5t134.5 26q119 0 196 -70.5t97 -196.5h-83q-18 92 -73.5 143t-136.5 51q-110 0 -171 -81t-61 -226t59 -226t165 -81
q105 0 163.5 67.5t60.5 188.5h-234v64h317zM333 -75h83v-57q0 -42 -19.5 -66.5t-63.5 -41.5v32q38 10 55.5 26t21.5 42h-77v65z" />
    <glyph glyph-name="gcommaaccent" unicode="&#x123;" 
d="M345 603h-83v59q0 38 19.5 60t63.5 34v-32q-39 -6 -56.5 -18.5t-20.5 -32.5h77v-70zM526 495v-506q0 -109 -62 -169t-174 -60q-100 0 -160 48.5t-68 135.5l78 8q5 -59 44.5 -92t105.5 -33q73 0 113.5 41t40.5 115v182h-2q0 -81 -48.5 -127t-134.5 -46q-100 0 -155 68
t-55 189t55 188.5t155 67.5q86 0 134.5 -45.5t48.5 -126.5h2v162h82zM291 60q76 0 117.5 50.5t41.5 138.5t-41.5 138.5t-117.5 50.5q-75 0 -116.5 -49.5t-41.5 -139.5t41.5 -139.5t116.5 -49.5z" />
    <glyph glyph-name="Hbar" unicode="&#x126;" horiz-adv-x="737" 
d="M704 565h-63v-565h-85v341h-375v-341h-85v565h-62v39h62v136h85v-136h375v136h85v-136h63v-39zM556 565h-375v-154h375v154z" />
    <glyph glyph-name="hbar" unicode="&#x127;" horiz-adv-x="582" 
d="M330 505q85 0 132 -51.5t47 -145.5v-308h-82v306q0 63 -33 97.5t-93 34.5q-67 0 -104 -44t-37 -123v-271h-82v618h-71v39h71v113h82v-113h170v-39h-170v-293h2q0 85 44.5 132.5t123.5 47.5z" />
    <glyph glyph-name="Itilde" unicode="&#x128;" horiz-adv-x="275" 
d="M185 805q-18 0 -30.5 6.5t-23.5 14.5t-21.5 14.5t-23.5 6.5t-20.5 -13t-9.5 -32h-52q1 51 23.5 79.5t63.5 28.5q18 0 30.5 -6.5t23 -14t20.5 -14t24 -6.5t21.5 12.5t9.5 31.5h52q-1 -51 -24 -79.5t-63 -28.5zM95 740h85v-740h-85v740z" />
    <glyph glyph-name="itilde" unicode="&#x129;" horiz-adv-x="237" 
d="M166 563q-18 0 -30.5 6.5t-23.5 14.5t-21.5 14.5t-23.5 6.5t-20.5 -13t-9.5 -32h-52q1 51 23.5 79.5t63.5 28.5q18 0 30.5 -6.5t23 -14t20.5 -14t24 -6.5t21.5 12.5t9.5 31.5h52q-1 -51 -24 -79.5t-63 -28.5zM160 495v-495h-82v495h82z" />
    <glyph glyph-name="Imacron" unicode="&#x12a;" horiz-adv-x="275" 
d="M279 933v-61h-282v61h282zM95 740h85v-740h-85v740z" />
    <glyph glyph-name="imacron" unicode="&#x12b;" horiz-adv-x="237" 
d="M260 688v-61h-282v61h282zM160 495v-495h-82v495h82z" />
    <glyph glyph-name="Iogonek" unicode="&#x12e;" horiz-adv-x="275" 
d="M115 -188q20 0 38.5 6t35.5 17v-52q-18 -11 -42 -17t-51 -6q-40 0 -62.5 19t-22.5 54q0 25 14.5 53.5t37.5 53.5t51.5 41.5t56.5 16.5v2h-76v740h85v-740q-46 -42 -72 -83t-26 -73t33 -32z" />
    <glyph glyph-name="iogonek" unicode="&#x12f;" horiz-adv-x="237" 
d="M160 605h-82v105h82v-105zM94 -188q20 0 38.5 6t35.5 17v-52q-18 -11 -42 -17t-51 -6q-40 0 -62.5 19t-22.5 54q0 25 14.5 53.5t37.5 53.5t51.5 41.5t56.5 16.5v2h-72v495h82v-495h-1q-46 -42 -72 -83t-26 -73t33 -32z" />
    <glyph glyph-name="Idotaccent" unicode="&#x130;" horiz-adv-x="275" 
d="M96 955h82v-105h-82v105zM95 740h85v-740h-85v740z" />
    <glyph glyph-name="dotlessi" unicode="&#x131;" horiz-adv-x="237" 
d="M160 495v-495h-82v495h82z" />
    <glyph glyph-name="Kcommaaccent" unicode="&#x136;" horiz-adv-x="689" 
d="M693 0h-117l-396 381h-2v-381h-83v740h83v-351h2l368 351h109l-375 -354zM317 -75h83v-57q0 -42 -19.5 -66.5t-63.5 -41.5v32q38 10 55.5 26t21.5 42h-77v65z" />
    <glyph glyph-name="kcommaaccent" unicode="&#x137;" horiz-adv-x="549" 
d="M546 0h-109l-275 253h-2v-253h-82v770h82v-508h2l259 233h105l-268 -236zM232 -75h83v-57q0 -42 -19.5 -66.5t-63.5 -41.5v32q38 10 55.5 26t21.5 42h-77v65z" />
    <glyph glyph-name="Lacute" unicode="&#x139;" horiz-adv-x="541" 
d="M97 836l-25 46l174 94l28 -51zM521 72v-72h-426v740h85v-668h341z" />
    <glyph glyph-name="lacute" unicode="&#x13a;" horiz-adv-x="237" 
d="M255 955l-177 -89l-25 46l174 94zM78 770h82v-770h-82v770z" />
    <glyph glyph-name="Lcommaaccent" unicode="&#x13b;" horiz-adv-x="541" 
d="M521 72v-72h-426v740h85v-668h341zM231 -75h83v-57q0 -42 -19.5 -66.5t-63.5 -41.5v32q38 10 55.5 26t21.5 42h-77v65z" />
    <glyph glyph-name="lcommaaccent" unicode="&#x13c;" horiz-adv-x="237" 
d="M160 0h-82v770h82v-770zM161 -75v-57q0 -42 -19.5 -66.5t-63.5 -41.5v32q38 10 55.5 26t21.5 42h-77v65h83z" />
    <glyph glyph-name="Lcaron" unicode="&#x13d;" horiz-adv-x="544" 
d="M320 526l-58 17l49 207l64 -17zM521 72v-72h-426v740h85v-668h341z" />
    <glyph glyph-name="lcaron" unicode="&#x13e;" horiz-adv-x="277" 
d="M324 763l-56 -207l-57 17l49 207zM78 770h82v-770h-82v770z" />
    <glyph glyph-name="Lslash" unicode="&#x141;" horiz-adv-x="547" 
d="M527 72v-72h-426v309l-68 -44v47l68 44v384h85v-331l162 104v-47l-162 -104v-290h341z" />
    <glyph glyph-name="lslash" unicode="&#x142;" horiz-adv-x="288" 
d="M250 456l-64 -51v-405h-82v345l-65 -52v50l65 52v375h82v-316l64 51v-49z" />
    <glyph glyph-name="Nacute" unicode="&#x143;" horiz-adv-x="735" 
d="M327 836l-25 46l174 94l28 -51zM640 740v-740h-150l-313 732h-2l3 -732h-83v740h152l312 -732h2l-2 732h81z" />
    <glyph glyph-name="nacute" unicode="&#x144;" horiz-adv-x="582" 
d="M253 591l-25 46l174 94l28 -51zM330 505q85 0 132 -51.5t47 -145.5v-308h-82v306q0 63 -33 97.5t-93 34.5q-67 0 -104 -44t-37 -123v-271h-82v495h82v-170h2q0 85 44.5 132.5t123.5 47.5z" />
    <glyph glyph-name="Ncommaaccent" unicode="&#x145;" horiz-adv-x="735" 
d="M640 740v-740h-150l-313 732h-2l3 -732h-83v740h152l312 -732h2l-2 732h81zM327 -75h83v-57q0 -42 -19.5 -66.5t-63.5 -41.5v32q38 10 55.5 26t21.5 42h-77v65z" />
    <glyph glyph-name="ncommaaccent" unicode="&#x146;" horiz-adv-x="582" 
d="M330 505q85 0 132 -51.5t47 -145.5v-308h-82v306q0 63 -33 97.5t-93 34.5q-67 0 -104 -44t-37 -123v-271h-82v495h82v-170h2q0 85 44.5 132.5t123.5 47.5zM253 -75h83v-57q0 -42 -19.5 -66.5t-63.5 -41.5v32q38 10 55.5 26t21.5 42h-77v65z" />
    <glyph glyph-name="Ncaron" unicode="&#x147;" horiz-adv-x="735" 
d="M211 975h70l86 -151h2l87 151h70l-95 -160h-125zM640 740v-740h-150l-313 732h-2l3 -732h-83v740h152l312 -732h2l-2 732h81z" />
    <glyph glyph-name="ncaron" unicode="&#x148;" horiz-adv-x="582" 
d="M136 730h70l86 -151h2l87 151h70l-95 -160h-125zM330 505q85 0 132 -51.5t47 -145.5v-308h-82v306q0 63 -33 97.5t-93 34.5q-67 0 -104 -44t-37 -123v-271h-82v495h82v-170h2q0 85 44.5 132.5t123.5 47.5z" />
    <glyph glyph-name="Eng" unicode="&#x14a;" horiz-adv-x="735" 
d="M640 740v-758q0 -105 -54.5 -163.5t-153.5 -58.5q-55 0 -98 21l23 66q30 -14 69 -14q61 0 95 37t34 104v26h-65l-313 732h-2l3 -732h-83v740h152l312 -732h2l-2 732h81z" />
    <glyph glyph-name="eng" unicode="&#x14b;" horiz-adv-x="582" 
d="M330 505q85 0 132 -51.5t47 -145.5v-363q0 -88 -46 -136.5t-130 -48.5q-65 0 -109 26l24 59q34 -17 78 -17q51 0 76 30.5t25 84.5v363q0 63 -33 97.5t-93 34.5q-67 0 -104 -44t-37 -123v-271h-82v495h82v-170h2q0 85 44.5 132.5t123.5 47.5z" />
    <glyph glyph-name="Omacron" unicode="&#x14c;" horiz-adv-x="748" 
d="M516 933v-61h-282v61h282zM374 -10q-75 0 -135 26t-101 74.5t-63 119t-22 160.5t22 160.5t63 119t101 74.5t135 26q76 0 135.5 -26t100.5 -74.5t63 -119t22 -160.5t-22 -160.5t-63 -119t-100.5 -74.5t-135.5 -26zM374 63q55 0 98 21t73 60.5t46 96.5t16 129t-16 129
t-46 96.5t-73 60.5t-98 21t-98 -21t-73 -60.5t-45.5 -96.5t-15.5 -129t15.5 -129t45.5 -96.5t73 -60.5t98 -21z" />
    <glyph glyph-name="omacron" unicode="&#x14d;" horiz-adv-x="582" 
d="M432 688v-61h-282v61h282zM291 -10q-115 0 -179 68t-64 190q0 121 64.5 189t178.5 68q115 0 178.5 -68t63.5 -189q0 -122 -63.5 -190t-178.5 -68zM291 58q75 0 117 49.5t42 140.5q0 90 -42 140t-117 50t-117 -50t-42 -140q0 -91 42 -140.5t117 -49.5z" />
    <glyph glyph-name="Ohungarumlaut" unicode="&#x150;" horiz-adv-x="748" 
d="M450 951l-148 -133l-37 38l141 136zM587 951l-148 -133l-37 38l141 136zM374 -10q-75 0 -135 26t-101 74.5t-63 119t-22 160.5t22 160.5t63 119t101 74.5t135 26q76 0 135.5 -26t100.5 -74.5t63 -119t22 -160.5t-22 -160.5t-63 -119t-100.5 -74.5t-135.5 -26zM374 63
q55 0 98 21t73 60.5t46 96.5t16 129t-16 129t-46 96.5t-73 60.5t-98 21t-98 -21t-73 -60.5t-45.5 -96.5t-15.5 -129t15.5 -129t45.5 -96.5t73 -60.5t98 -21z" />
    <glyph glyph-name="ohungarumlaut" unicode="&#x151;" horiz-adv-x="582" 
d="M366 706l-148 -133l-37 38l141 136zM503 706l-148 -133l-37 38l141 136zM291 -10q-115 0 -179 68t-64 190q0 121 64.5 189t178.5 68q115 0 178.5 -68t63.5 -189q0 -122 -63.5 -190t-178.5 -68zM291 58q75 0 117 49.5t42 140.5q0 90 -42 140t-117 50t-117 -50t-42 -140
q0 -91 42 -140.5t117 -49.5z" />
    <glyph glyph-name="OE" unicode="&#x152;" horiz-adv-x="1138" 
d="M1095 70v-70h-484v255h-2q0 -62 -18 -111t-52.5 -83.5t-83.5 -52.5t-112 -18q-68 0 -121.5 26t-91 75t-57 119.5t-19.5 159.5t19.5 159.5t57 119.5t91 75t121.5 26q63 0 112 -18t83.5 -52.5t52.5 -83.5t18 -111h2v255h473v-70h-387v-253h352v-70h-352v-277h398zM375 63
q57 0 102.5 21.5t76.5 61.5t47.5 96.5t16.5 127.5q0 70 -16.5 127t-47.5 97t-76.5 61.5t-102.5 21.5q-55 0 -98.5 -21t-73.5 -60.5t-45.5 -96.5t-15.5 -129t15.5 -129t45.5 -96.5t73.5 -60.5t98.5 -21z" />
    <glyph glyph-name="oe" unicode="&#x153;" horiz-adv-x="951" 
d="M904 235h-378q3 -86 41.5 -133t107.5 -47q60 0 99 31.5t49 87.5h81q-12 -88 -72 -136t-157 -48q-93 0 -150.5 49t-74.5 139h-2q0 -89 -49.5 -138.5t-139.5 -49.5q-100 0 -155 68t-55 190q0 121 55 189t155 68q90 0 139.5 -49.5t49.5 -137.5h2q17 90 74.5 138.5
t150.5 48.5q109 0 169 -67.5t60 -190.5v-12zM675 440q-65 0 -103.5 -43t-44.5 -121h295q-6 78 -44.5 121t-102.5 43zM291 58q76 0 117.5 51t41.5 139t-41.5 139t-117.5 51q-75 0 -116.5 -50t-41.5 -140q0 -91 41.5 -140.5t116.5 -49.5z" />
    <glyph glyph-name="Racute" unicode="&#x154;" horiz-adv-x="668" 
d="M271 836l-25 46l174 94l28 -51zM635 0h-96l-185 316h-174v-316h-85v740h264q120 0 187 -53.5t67 -150.5q0 -103 -65.5 -160.5t-183.5 -57.5v-2q38 0 75.5 -24.5t63.5 -70.5zM365 383q76 0 118 39t42 108q0 66 -42.5 103t-117.5 37h-185v-287h185z" />
    <glyph glyph-name="racute" unicode="&#x155;" horiz-adv-x="410" 
d="M160 591l-25 46l174 94l28 -51zM324 505q22 0 42 -3.5t35 -11.5l-25 -77q-14 8 -33.5 12.5t-39.5 4.5q-68 0 -105.5 -49t-37.5 -138v-243h-82v495h82v-188h2q0 94 42.5 146t119.5 52z" />
    <glyph glyph-name="Rcommaaccent" unicode="&#x156;" horiz-adv-x="668" 
d="M635 0h-96l-185 316h-174v-316h-85v740h264q120 0 187 -53.5t67 -150.5q0 -103 -65.5 -160.5t-183.5 -57.5v-2q38 0 75.5 -24.5t63.5 -70.5zM365 383q76 0 118 39t42 108q0 66 -42.5 103t-117.5 37h-185v-287h185zM301 -75h83v-57q0 -42 -19.5 -66.5t-63.5 -41.5v32
q38 10 55.5 26t21.5 42h-77v65z" />
    <glyph glyph-name="rcommaaccent" unicode="&#x157;" horiz-adv-x="410" 
d="M324 505q22 0 42 -3.5t35 -11.5l-25 -77q-14 8 -33.5 12.5t-39.5 4.5q-68 0 -105.5 -49t-37.5 -138v-243h-82v495h82v-188h2q0 94 42.5 146t119.5 52zM79 -75h83v-57q0 -42 -19.5 -66.5t-63.5 -41.5v32q38 10 55.5 26t21.5 42h-77v65z" />
    <glyph glyph-name="Rcaron" unicode="&#x158;" horiz-adv-x="668" 
d="M155 975h70l86 -151h2l87 151h70l-95 -160h-125zM635 0h-96l-185 316h-174v-316h-85v740h264q120 0 187 -53.5t67 -150.5q0 -103 -65.5 -160.5t-183.5 -57.5v-2q38 0 75.5 -24.5t63.5 -70.5zM365 383q76 0 118 39t42 108q0 66 -42.5 103t-117.5 37h-185v-287h185z" />
    <glyph glyph-name="rcaron" unicode="&#x159;" horiz-adv-x="410" 
d="M44 730h70l86 -151h2l87 151h70l-95 -160h-125zM324 505q22 0 42 -3.5t35 -11.5l-25 -77q-14 8 -33.5 12.5t-39.5 4.5q-68 0 -105.5 -49t-37.5 -138v-243h-82v495h82v-188h2q0 94 42.5 146t119.5 52z" />
    <glyph glyph-name="Sacute" unicode="&#x15a;" horiz-adv-x="662" 
d="M465 925l-177 -89l-25 46l174 94zM329 -10q-128 0 -202.5 69t-82.5 194h85q6 -91 58.5 -140.5t142.5 -49.5q94 0 146 37t52 105q0 41 -18 66t-47 40t-67.5 23t-78.5 15q-46 7 -91 16.5t-81 29.5t-58.5 54.5t-22.5 91.5q0 101 70 155t195 54q119 0 189 -66.5t77 -185.5
h-85q-5 85 -53 132t-131 47t-129 -34t-46 -97q0 -36 16.5 -57.5t43.5 -35t62.5 -20.5t74.5 -13q47 -8 95 -18t86.5 -31.5t62.5 -59t24 -100.5q0 -105 -75.5 -163t-211.5 -58z" />
    <glyph glyph-name="sacute" unicode="&#x15b;" horiz-adv-x="506" 
d="M388 680l-177 -89l-25 46l174 94zM252 -10q-100 0 -155 44.5t-55 125.5h79q0 -54 34 -83t97 -29q62 0 96 22.5t34 62.5q0 26 -12 42t-32 26t-46 16t-54 11q-32 6 -64.5 13t-58.5 21.5t-42 38.5t-16 63q0 66 51.5 103.5t143.5 37.5t143.5 -43t51.5 -121h-79q0 51 -30 79
t-86 28q-54 0 -84.5 -20.5t-30.5 -58.5q0 -21 11 -34.5t29.5 -22t42.5 -14t50 -9.5q33 -6 67.5 -14t62 -24t45 -42t17.5 -69q0 -71 -55 -110.5t-155 -39.5z" />
    <glyph glyph-name="Scedilla" unicode="&#x15e;" horiz-adv-x="662" 
d="M329 -10q-128 0 -202.5 69t-82.5 194h85q6 -91 58.5 -140.5t142.5 -49.5q94 0 146 37t52 105q0 41 -18 66t-47 40t-67.5 23t-78.5 15q-46 7 -91 16.5t-81 29.5t-58.5 54.5t-22.5 91.5q0 101 70 155t195 54q119 0 189 -66.5t77 -185.5h-85q-5 85 -53 132t-131 47t-129 -34
t-46 -97q0 -36 16.5 -57.5t43.5 -35t62.5 -20.5t74.5 -13q47 -8 95 -18t86.5 -31.5t62.5 -59t24 -100.5q0 -105 -75.5 -163t-211.5 -58zM307 -240q-23 0 -47 6t-42 16v43q17 -11 38 -17t43 -6q36 0 56 14t20 38q0 20 -13 30.5t-36 10.5q-18 1 -33 -6t-25 -18l-34 24
q17 19 44.5 30.5t56.5 11.5q48 0 75.5 -21.5t27.5 -59.5q0 -46 -34.5 -71t-96.5 -25z" />
    <glyph glyph-name="scedilla" unicode="&#x15f;" horiz-adv-x="506" 
d="M252 -10q-100 0 -155 44.5t-55 125.5h79q0 -54 34 -83t97 -29q62 0 96 22.5t34 62.5q0 26 -12 42t-32 26t-46 16t-54 11q-32 6 -64.5 13t-58.5 21.5t-42 38.5t-16 63q0 66 51.5 103.5t143.5 37.5t143.5 -43t51.5 -121h-79q0 51 -30 79t-86 28q-54 0 -84.5 -20.5
t-30.5 -58.5q0 -21 11 -34.5t29.5 -22t42.5 -14t50 -9.5q33 -6 67.5 -14t62 -24t45 -42t17.5 -69q0 -71 -55 -110.5t-155 -39.5zM228 -240q-23 0 -47 6t-42 16v43q17 -11 38 -17t43 -6q36 0 56 14t20 38q0 20 -13 30.5t-36 10.5q-18 1 -33 -6t-25 -18l-34 24
q17 19 44.5 30.5t56.5 11.5q48 0 75.5 -21.5t27.5 -59.5q0 -46 -34.5 -71t-96.5 -25z" />
    <glyph glyph-name="Scaron" unicode="&#x160;" horiz-adv-x="662" 
d="M172 975h70l86 -151h2l87 151h70l-95 -160h-125zM348 420q47 -8 95 -18t86.5 -31.5t62.5 -59t24 -100.5q0 -105 -75.5 -163t-211.5 -58q-128 0 -202.5 69t-82.5 194h85q6 -91 58.5 -140.5t142.5 -49.5q94 0 146 37t52 105q0 41 -18 66t-47 40t-67.5 23t-78.5 15
q-46 7 -91 16.5t-81 29.5t-58.5 54.5t-22.5 91.5q0 101 70 155t195 54q119 0 189 -66.5t77 -185.5h-85q-5 85 -53 132t-131 47t-129 -34t-46 -97q0 -36 16.5 -57.5t43.5 -35t62.5 -20.5t74.5 -13z" />
    <glyph glyph-name="scaron" unicode="&#x161;" horiz-adv-x="506" 
d="M95 730h70l86 -151h2l87 151h70l-95 -160h-125zM270 289q33 -6 67.5 -14t62 -24t45 -42t17.5 -69q0 -71 -55 -110.5t-155 -39.5t-155 44.5t-55 125.5h79q0 -54 34 -83t97 -29q62 0 96 22.5t34 62.5q0 26 -12 42t-32 26t-46 16t-54 11q-32 6 -64.5 13t-58.5 21.5t-42 38.5
t-16 63q0 66 51.5 103.5t143.5 37.5t143.5 -43t51.5 -121h-79q0 51 -30 79t-86 28q-54 0 -84.5 -20.5t-30.5 -58.5q0 -21 11 -34.5t29.5 -22t42.5 -14t50 -9.5z" />
    <glyph glyph-name="uni0162" unicode="&#x162;" horiz-adv-x="580" 
d="M561 740v-70h-228v-670h-86v670h-228v70h542zM296 -63q48 0 75.5 -21.5t27.5 -59.5q0 -46 -34.5 -71t-96.5 -25q-23 0 -47 6t-42 16v43q17 -11 38 -17t43 -6q36 0 56 14t20 38q0 20 -13 30.5t-36 10.5q-18 1 -33 -6t-25 -18l-34 24q17 19 44.5 30.5t56.5 11.5z" />
    <glyph glyph-name="uni0163" unicode="&#x163;" horiz-adv-x="375" 
d="M185 434v-289q0 -42 23.5 -64.5t66.5 -22.5q39 0 71 16v-64q-20 -9 -45.5 -14.5t-51.5 -5.5q-69 0 -107.5 39t-38.5 111v294h-80v61h86v172h82v-42q0 -42 -21 -75t-57 -53v-2h241v-61h-169zM194 -63q48 0 75.5 -21.5t27.5 -59.5q0 -46 -34.5 -71t-96.5 -25q-23 0 -47 6
t-42 16v43q17 -11 38 -17t43 -6q36 0 56 14t20 38q0 20 -13 30.5t-36 10.5q-18 1 -33 -6t-25 -18l-34 24q17 19 44.5 30.5t56.5 11.5z" />
    <glyph glyph-name="Tcaron" unicode="&#x164;" horiz-adv-x="580" 
d="M133 975h70l86 -151h2l87 151h70l-95 -160h-125zM561 670h-228v-670h-86v670h-228v70h542v-70z" />
    <glyph glyph-name="tcaron" unicode="&#x165;" horiz-adv-x="375" 
d="M301 556l-57 17l49 207l64 -17zM113 495h241v-61h-169v-289q0 -42 23.5 -64.5t66.5 -22.5q39 0 71 16v-64q-20 -9 -45.5 -14.5t-51.5 -5.5q-69 0 -107.5 39t-38.5 111v294h-80v61h86v172h82v-42q0 -42 -21 -75t-57 -53v-2z" />
    <glyph glyph-name="Tbar" unicode="&#x166;" horiz-adv-x="586" 
d="M336 670v-283h119v-39h-119v-348h-86v348h-118v39h118v283h-228v70h542v-70h-228z" />
    <glyph glyph-name="tbar" unicode="&#x167;" horiz-adv-x="389" 
d="M193 434v-163h169v-39h-169v-87q0 -42 23.5 -64.5t66.5 -22.5q39 0 71 16v-64q-20 -9 -45.5 -14.5t-51.5 -5.5q-69 0 -107.5 39t-38.5 111v92h-80v39h80v163h-80v61h86v172h82v-42q0 -42 -21 -75t-57 -53v-2h241v-61h-169z" />
    <glyph glyph-name="Utilde" unicode="&#x168;" horiz-adv-x="715" 
d="M405 805q-18 0 -30.5 6.5t-23.5 14.5t-21.5 14.5t-23.5 6.5t-20.5 -13t-9.5 -32h-52q1 51 23.5 79.5t63.5 28.5q18 0 30.5 -6.5t23 -14t20.5 -14t24 -6.5t21.5 12.5t9.5 31.5h52q-1 -51 -24 -79.5t-63 -28.5zM547 740h81v-485q0 -125 -71.5 -195t-199.5 -70
q-127 0 -198.5 70t-71.5 195v485h86v-491q0 -88 49 -137t137 -49q89 0 138.5 49t49.5 137v491z" />
    <glyph glyph-name="utilde" unicode="&#x169;" horiz-adv-x="572" 
d="M328 563q-18 0 -30.5 6.5t-23.5 14.5t-21.5 14.5t-23.5 6.5t-20.5 -13t-9.5 -32h-52q1 51 23.5 79.5t63.5 28.5q18 0 30.5 -6.5t23 -14t20.5 -14t24 -6.5t21.5 12.5t9.5 31.5h52q-1 -51 -24 -79.5t-63 -28.5zM494 495v-495h-82v170h-2q0 -85 -43 -132.5t-120 -47.5
q-83 0 -128.5 51.5t-45.5 145.5v308h82v-305q0 -63 31.5 -98t89.5 -35q65 0 100.5 44t35.5 124v270h82z" />
    <glyph glyph-name="Umacron" unicode="&#x16a;" horiz-adv-x="715" 
d="M500 933v-61h-282v61h282zM547 740h81v-485q0 -125 -71.5 -195t-199.5 -70q-127 0 -198.5 70t-71.5 195v485h86v-491q0 -88 49 -137t137 -49q89 0 138.5 49t49.5 137v491z" />
    <glyph glyph-name="umacron" unicode="&#x16b;" horiz-adv-x="572" 
d="M425 627h-282v61h282v-61zM494 495v-495h-82v170h-2q0 -85 -43 -132.5t-120 -47.5q-83 0 -128.5 51.5t-45.5 145.5v308h82v-305q0 -63 31.5 -98t89.5 -35q65 0 100.5 44t35.5 124v270h82z" />
    <glyph glyph-name="Uring" unicode="&#x16e;" horiz-adv-x="715" 
d="M359 797q-56 0 -87 29.5t-31 80.5q0 52 31 81t87 29t86.5 -29t30.5 -81q0 -51 -30.5 -80.5t-86.5 -29.5zM359 844q29 0 45 16.5t16 46.5t-16 47t-45 17t-45.5 -17t-16.5 -47t16.5 -46.5t45.5 -16.5zM547 740h81v-485q0 -125 -71.5 -195t-199.5 -70q-127 0 -198.5 70
t-71.5 195v485h86v-491q0 -88 49 -137t137 -49q89 0 138.5 49t49.5 137v491z" />
    <glyph glyph-name="uring" unicode="&#x16f;" horiz-adv-x="572" 
d="M284 552q-56 0 -87 29.5t-31 80.5q0 52 31 81t87 29t86.5 -29t30.5 -81q0 -51 -30.5 -80.5t-86.5 -29.5zM284 726q-29 0 -45.5 -17t-16.5 -47t16.5 -46.5t45.5 -16.5t45 16.5t16 46.5t-16 47t-45 17zM494 495v-495h-82v170h-2q0 -85 -43 -132.5t-120 -47.5
q-83 0 -128.5 51.5t-45.5 145.5v308h82v-305q0 -63 31.5 -98t89.5 -35q65 0 100.5 44t35.5 124v270h82z" />
    <glyph glyph-name="Uhungarumlaut" unicode="&#x170;" horiz-adv-x="715" 
d="M434 951l-148 -133l-37 38l141 136zM571 951l-148 -133l-37 38l141 136zM547 740h81v-485q0 -125 -71.5 -195t-199.5 -70q-127 0 -198.5 70t-71.5 195v485h86v-491q0 -88 49 -137t137 -49q89 0 138.5 49t49.5 137v491z" />
    <glyph glyph-name="uhungarumlaut" unicode="&#x171;" horiz-adv-x="572" 
d="M211 573l-37 38l141 136l44 -41zM311 611l141 136l44 -41l-148 -133zM412 495h82v-495h-82v170h-2q0 -85 -43 -132.5t-120 -47.5q-83 0 -128.5 51.5t-45.5 145.5v308h82v-305q0 -63 31.5 -98t89.5 -35q65 0 100.5 44t35.5 124v270z" />
    <glyph glyph-name="Uogonek" unicode="&#x172;" horiz-adv-x="715" 
d="M628 740v-485q0 -102 -48 -167.5t-136 -87.5h1q-45 -42 -69.5 -82.5t-24.5 -73.5q0 -32 33 -32q20 0 38.5 6t35.5 17v-52q-18 -11 -42 -17t-51 -6q-40 0 -62.5 19t-22.5 54q0 19 12 41.5t32.5 44t48 41.5t58.5 35v2q-17 -4 -35.5 -5.5t-38.5 -1.5q-127 0 -198.5 70
t-71.5 195v485h86v-491q0 -88 49 -137t137 -49q89 0 138.5 49t49.5 137v491h81z" />
    <glyph glyph-name="uogonek" unicode="&#x173;" horiz-adv-x="572" 
d="M429 -188q20 0 38.5 6t35.5 17v-52q-18 -11 -42 -17t-51 -6q-40 0 -62.5 19t-22.5 54q0 25 14.5 53.5t37.5 53.5t51.5 41.5t56.5 16.5v2h-73v170h-2q0 -85 -43 -132.5t-120 -47.5q-83 0 -128.5 51.5t-45.5 145.5v308h82v-305q0 -63 31.5 -98t89.5 -35q65 0 100.5 44
t35.5 124v270h82v-495q-46 -42 -72 -83t-26 -73t33 -32z" />
    <glyph glyph-name="Wcircumflex" unicode="&#x174;" horiz-adv-x="1013" 
d="M421 815h-70l95 160h125l95 -160h-70l-87 151h-2zM987 740l-171 -740h-160l-149 732h-2l-148 -732h-161l-170 740h93l162 -732h2l150 732h149l152 -732h2l163 732h88z" />
    <glyph glyph-name="wcircumflex" unicode="&#x175;" horiz-adv-x="826" 
d="M326 570h-70l95 160h125l95 -160h-70l-87 151h-2zM799 495l-132 -495h-148l-105 489h-2l-105 -489h-148l-132 495h88l121 -489h2l105 489h143l104 -489h2l122 489h85z" />
    <glyph glyph-name="Ycircumflex" unicode="&#x176;" horiz-adv-x="660" 
d="M256 815h-70l95 160h125l95 -160h-70l-87 151h-2zM665 740l-374 -740h-95l138 277h-83l-235 463h101l226 -455h2l225 455h95z" />
    <glyph glyph-name="ycircumflex" unicode="&#x177;" horiz-adv-x="526" 
d="M179 570h-70l95 160h125l95 -160h-70l-87 151h-2zM502 495l-234 -725h-88l75 230h-70l-159 495h88l149 -489h2l149 489h88z" />
    <glyph glyph-name="Ydieresis" unicode="&#x178;" horiz-adv-x="660" 
d="M303 850h-79v105h79v-105zM461 850h-78v105h78v-105zM665 740l-374 -740h-95l138 277h-83l-235 463h101l226 -455h2l225 455h95z" />
    <glyph glyph-name="Zacute" unicode="&#x179;" horiz-adv-x="666" 
d="M296 836l-25 46l174 94l28 -51zM632 70v-70h-592v163l559 505v2h-546v70h557v-163l-559 -505v-2h581z" />
    <glyph glyph-name="zacute" unicode="&#x17a;" horiz-adv-x="518" 
d="M218 591l-25 46l174 94l28 -51zM481 62v-62h-436v143l406 289v2h-400v61h412v-142l-407 -289v-2h425z" />
    <glyph glyph-name="Zdotaccent" unicode="&#x17b;" horiz-adv-x="666" 
d="M377 850h-82v105h82v-105zM632 70v-70h-592v163l559 505v2h-546v70h557v-163l-559 -505v-2h581z" />
    <glyph glyph-name="zdotaccent" unicode="&#x17c;" horiz-adv-x="518" 
d="M300 605h-82v105h82v-105zM481 62v-62h-436v143l406 289v2h-400v61h412v-142l-407 -289v-2h425z" />
    <glyph glyph-name="Zcaron" unicode="&#x17d;" horiz-adv-x="666" 
d="M179 975h70l86 -151h2l87 151h70l-95 -160h-125zM632 70v-70h-592v163l559 505v2h-546v70h557v-163l-559 -505v-2h581z" />
    <glyph glyph-name="zcaron" unicode="&#x17e;" horiz-adv-x="518" 
d="M102 730h70l86 -151h2l87 151h70l-95 -160h-125zM481 62v-62h-436v143l406 289v2h-400v61h412v-142l-407 -289v-2h425z" />
    <glyph glyph-name="florin" unicode="&#x192;" horiz-adv-x="657" 
d="M542 682q-45 0 -75 -30.5t-40 -85.5l-29 -164h159v-39h-166l-38 -216q-13 -75 -60 -116t-119 -41q-32 0 -63 6.5t-55 17.5l18 60q37 -16 87 -16q45 0 75 30.5t40 85.5l33 189h-152v39h159l34 191q13 75 60 116t119 41q32 0 62.5 -6.5t55.5 -17.5l-18 -60q-37 16 -87 16z
" />
    <glyph glyph-name="Ohorn" unicode="&#x1a0;" horiz-adv-x="748" 
d="M374 -10q-75 0 -135 26t-101 74.5t-63 119t-22 160.5t22 160.5t63 119t101 74.5t135 26q65 0 120 -20q12 1 23.5 5t20.5 15t14.5 30.5t5.5 49.5h80q0 -48 -28.5 -80.5t-77.5 -36.5q79 -43 121 -130t42 -213q0 -90 -22 -160.5t-63 -119t-100.5 -74.5t-135.5 -26zM374 63
q55 0 98 21t73 60.5t46 96.5t16 129t-16 129t-46 96.5t-73 60.5t-98 21t-98 -21t-73 -60.5t-45.5 -96.5t-15.5 -129t15.5 -129t45.5 -96.5t73 -60.5t98 -21z" />
    <glyph glyph-name="ohorn" unicode="&#x1a1;" horiz-adv-x="582" 
d="M291 -10q-115 0 -179 68t-64 190q0 121 64.5 189t178.5 68q58 0 103 -18q21 4 36.5 24.5t15.5 73.5h80q0 -45 -26 -77t-71 -39q51 -31 77.5 -87t26.5 -134q0 -122 -63.5 -190t-178.5 -68zM291 58q75 0 117 49.5t42 140.5q0 90 -42 140t-117 50t-117 -50t-42 -140
q0 -91 42 -140.5t117 -49.5z" />
    <glyph glyph-name="Uhorn" unicode="&#x1af;" horiz-adv-x="715" 
d="M547 740h9q13 0 26 3t23.5 13.5t16.5 30.5t6 53h80q0 -41 -21.5 -71t-58.5 -41v-473q0 -125 -71.5 -195t-199.5 -70q-127 0 -198.5 70t-71.5 195v485h86v-491q0 -88 49 -137t137 -49q89 0 138.5 49t49.5 137v491z" />
    <glyph glyph-name="uhorn" unicode="&#x1b0;" horiz-adv-x="572" 
d="M418 495q13 0 26 3t23.5 13.5t16.5 30.5t6 53h80q0 -40 -20.5 -70t-55.5 -41v-484h-82v170h-2q0 -85 -43 -132.5t-120 -47.5q-83 0 -128.5 51.5t-45.5 145.5v308h82v-305q0 -63 31.5 -98t89.5 -35q65 0 100.5 44t35.5 124v270h6z" />
    <glyph glyph-name="Scommaaccent" unicode="&#x218;" horiz-adv-x="662" 
d="M348 420q47 -8 95 -18t86.5 -31.5t62.5 -59t24 -100.5q0 -105 -75.5 -163t-211.5 -58q-128 0 -202.5 69t-82.5 194h85q6 -91 58.5 -140.5t142.5 -49.5q94 0 146 37t52 105q0 41 -18 66t-47 40t-67.5 23t-78.5 15q-46 7 -91 16.5t-81 29.5t-58.5 54.5t-22.5 91.5
q0 101 70 155t195 54q119 0 189 -66.5t77 -185.5h-85q-5 85 -53 132t-131 47t-129 -34t-46 -97q0 -36 16.5 -57.5t43.5 -35t62.5 -20.5t74.5 -13zM288 -75h83v-57q0 -42 -19.5 -66.5t-63.5 -41.5v32q38 10 55.5 26t21.5 42h-77v65z" />
    <glyph glyph-name="scommaaccent" unicode="&#x219;" horiz-adv-x="506" 
d="M270 289q33 -6 67.5 -14t62 -24t45 -42t17.5 -69q0 -71 -55 -110.5t-155 -39.5t-155 44.5t-55 125.5h79q0 -54 34 -83t97 -29q62 0 96 22.5t34 62.5q0 26 -12 42t-32 26t-46 16t-54 11q-32 6 -64.5 13t-58.5 21.5t-42 38.5t-16 63q0 66 51.5 103.5t143.5 37.5t143.5 -43
t51.5 -121h-79q0 51 -30 79t-86 28q-54 0 -84.5 -20.5t-30.5 -58.5q0 -21 11 -34.5t29.5 -22t42.5 -14t50 -9.5zM210 -75h83v-57q0 -42 -19.5 -66.5t-63.5 -41.5v32q38 10 55.5 26t21.5 42h-77v65z" />
    <glyph glyph-name="uni021A" unicode="&#x21a;" horiz-adv-x="580" 
d="M561 670h-228v-670h-86v670h-228v70h542v-70zM249 -75h83v-57q0 -42 -19.5 -66.5t-63.5 -41.5v32q38 10 55.5 26t21.5 42h-77v65z" />
    <glyph glyph-name="uni021B" unicode="&#x21b;" horiz-adv-x="375" 
d="M185 434v-289q0 -42 23.5 -64.5t66.5 -22.5q39 0 71 16v-64q-20 -9 -45.5 -14.5t-51.5 -5.5q-69 0 -107.5 39t-38.5 111v294h-80v61h86v172h82v-42q0 -42 -21 -75t-57 -53v-2h241v-61h-169zM148 -75h83v-57q0 -42 -19.5 -66.5t-63.5 -41.5v32q38 10 55.5 26t21.5 42h-77
v65z" />
    <glyph glyph-name="uni0237" unicode="&#x237;" horiz-adv-x="237" 
d="M160 495v-725h-82v725h82z" />
    <glyph glyph-name="circumflex" unicode="&#x2c6;" horiz-adv-x="347" 
d="M331 570h-70l-87 151h-2l-86 -151h-70l95 160h125z" />
    <glyph glyph-name="caron" unicode="&#x2c7;" horiz-adv-x="347" 
d="M331 730l-95 -160h-125l-95 160h70l86 -151h2l87 151h70z" />
    <glyph glyph-name="breve" unicode="&#x2d8;" horiz-adv-x="340" 
d="M315 730q0 -77 -38 -120t-107 -43t-107 43t-38 120h61q0 -51 22.5 -80t61.5 -29t61.5 29t22.5 80h61v0z" />
    <glyph glyph-name="dotaccent" unicode="&#x2d9;" horiz-adv-x="210" 
d="M64 710h82v-105h-82v105z" />
    <glyph glyph-name="ring" unicode="&#x2da;" horiz-adv-x="283" 
d="M142 552q-56 0 -87 29.5t-31 80.5q0 52 31 81t87 29t86.5 -29t30.5 -81q0 -51 -30.5 -80.5t-86.5 -29.5zM142 599q29 0 45 16.5t16 46.5t-16 47t-45 17t-45.5 -17t-16.5 -47t16.5 -46.5t45.5 -16.5z" />
    <glyph glyph-name="ogonek" unicode="&#x2db;" horiz-adv-x="221" 
d="M202 -217q-18 -11 -42 -17t-51 -6q-40 0 -62.5 19t-22.5 54q0 25 14.5 53.5t37.5 53.5t51.5 41.5t56.5 16.5v2h9q-46 -42 -72 -83t-26 -73t33 -32q20 0 38.5 6t35.5 17v-52v0z" />
    <glyph glyph-name="tilde" unicode="&#x2dc;" horiz-adv-x="410" 
d="M273 597q-26 0 -44.5 10t-34.5 22t-31 22t-33 10q-23 0 -37 -18t-16 -50h-45q1 63 28 97t75 34q26 0 45 -10t35 -21.5t31 -21.5t33 -10q23 0 36.5 17.5t16.5 49.5h45q-1 -62 -28 -96.5t-76 -34.5z" />
    <glyph glyph-name="hungarumlaut" unicode="&#x2dd;" horiz-adv-x="383" 
d="M214 706l-148 -133l-37 38l141 136zM351 706l-148 -133l-37 38l141 136z" />
    <glyph glyph-name="gravecomb" unicode="&#x300;" horiz-adv-x="0" 
d="M-14 637l-25 -46l-177 89l28 51z" />
    <glyph glyph-name="acutecomb" unicode="&#x301;" horiz-adv-x="0" 
d="M-17 680l-177 -89l-25 46l174 94z" />
    <glyph glyph-name="uni0302" unicode="&#x302;" horiz-adv-x="0" 
d="M-16 570h-70l-87 151h-2l-86 -151h-70l95 160h125z" />
    <glyph glyph-name="tildecomb" unicode="&#x303;" horiz-adv-x="0" 
d="M-136 597q-26 0 -44.5 10t-34.5 22t-31 22t-33 10q-23 0 -37 -18t-16 -50h-45q1 63 28 97t75 34q26 0 45 -10t35 -21.5t31 -21.5t33 -10q23 0 36.5 17.5t16.5 49.5h45q-1 -62 -28 -96.5t-76 -34.5z" />
    <glyph glyph-name="uni0304" unicode="&#x304;" horiz-adv-x="0" 
d="M-22 688v-61h-282v61h282z" />
    <glyph glyph-name="uni0306" unicode="&#x306;" horiz-adv-x="0" 
d="M-25 730q0 -77 -38 -120t-107 -43t-107 43t-38 120h61q0 -51 22.5 -80t61.5 -29t61.5 29t22.5 80h61v0z" />
    <glyph glyph-name="uni0307" unicode="&#x307;" horiz-adv-x="0" 
d="M-146 710h82v-105h-82v105z" />
    <glyph glyph-name="uni0308" unicode="&#x308;" horiz-adv-x="0" 
d="M-305 710h79v-105h-79v105zM-146 710h78v-105h-78v105z" />
    <glyph glyph-name="uni030A" unicode="&#x30a;" horiz-adv-x="0" 
d="M-141 552q-56 0 -87 29.5t-31 80.5q0 52 31 81t87 29t86.5 -29t30.5 -81q0 -51 -30.5 -80.5t-86.5 -29.5zM-141 599q29 0 45 16.5t16 46.5t-16 47t-45 17t-45.5 -17t-16.5 -47t16.5 -46.5t45.5 -16.5z" />
    <glyph glyph-name="uni030B" unicode="&#x30b;" horiz-adv-x="0" 
d="M-169 706l-148 -133l-37 38l141 136zM-32 706l-148 -133l-37 38l141 136z" />
    <glyph glyph-name="uni030C" unicode="&#x30c;" horiz-adv-x="0" 
d="M-16 730l-95 -160h-125l-95 160h70l86 -151h2l87 151h70z" />
    <glyph glyph-name="uni0312" unicode="&#x312;" horiz-adv-x="0" 
d="M-18 724q-39 -6 -56.5 -18.5t-20.5 -32.5h77v-70h-83v59q0 38 19.5 60t63.5 34v-32v0z" />
    <glyph glyph-name="uni0326" unicode="&#x326;" horiz-adv-x="0" 
d="M-31 -75v-57q0 -42 -19.5 -66.5t-63.5 -41.5v32q38 10 55.5 26t21.5 42h-77v65h83z" />
    <glyph glyph-name="uni0327" unicode="&#x327;" horiz-adv-x="0" 
d="M-155 -240q-23 0 -47 6t-42 16v43q17 -11 38 -17t43 -6q36 0 56 14t20 38q0 20 -13 30.5t-36 10.5q-18 1 -33 -6t-25 -18l-34 24q17 19 44.5 30.5t56.5 11.5q48 0 75.5 -21.5t27.5 -59.5q0 -46 -34.5 -71t-96.5 -25z" />
    <glyph glyph-name="uni0328" unicode="&#x328;" horiz-adv-x="0" 
d="M-19 -217q-18 -11 -42 -17t-51 -6q-40 0 -62.5 19t-22.5 54q0 25 14.5 53.5t37.5 53.5t51.5 41.5t56.5 16.5v2h9q-46 -42 -72 -83t-26 -73t33 -32q20 0 38.5 6t35.5 17v-52v0z" />
    <glyph glyph-name="uni0335" unicode="&#x335;" horiz-adv-x="0" 
d="M-57 371v-39h-323v39h323z" />
    <glyph glyph-name="uni0336" unicode="&#x336;" horiz-adv-x="0" 
d="M-726 371h670v-39h-670v39z" />
    <glyph glyph-name="uni0337" unicode="&#x337;" horiz-adv-x="0" 
d="M-7 509l-360 -548l-38 25l360 547z" />
    <glyph glyph-name="uni0338" unicode="&#x338;" horiz-adv-x="0" 
d="M-26 751l-477 -788l-42 26l477 788z" />
    <glyph glyph-name="uni0394" unicode="&#x394;" horiz-adv-x="685" 
d="M672 0h-659l254 740h152zM556 70l-214 662h-2l-216 -662h432z" />
    <glyph glyph-name="uni03A9" unicode="&#x3a9;" horiz-adv-x="779" 
d="M486 71h222v-71h-270v71q91 0 141.5 80t50.5 224q0 143 -63 222.5t-177 79.5q-115 0 -178.5 -78t-63.5 -218q0 -147 50.5 -228.5t141.5 -81.5v-71h-269v71h221v2q-55 0 -98 22.5t-73 65t-45.5 103.5t-15.5 138q0 82 22.5 146.5t64.5 109.5t103.5 68.5t139.5 23.5
t139 -23.5t103 -68.5t64.5 -109.5t22.5 -146.5q0 -77 -16 -138t-46 -103.5t-73 -65t-98 -22.5v-2z" />
    <glyph glyph-name="uni03BC" unicode="&#x3bc;" horiz-adv-x="577" 
d="M499 495v-495h-82v170h-2q0 -85 -43 -132.5t-120 -47.5q-63 0 -105 31t-59 88l72 -335v-4h-82v725h82v-305q0 -63 31.5 -98t89.5 -35q65 0 100.5 44t35.5 124v270h82z" />
    <glyph glyph-name="pi" unicode="&#x3c0;" horiz-adv-x="614" 
d="M593 434h-90v-434h-82v434h-228v-434h-82v434h-90v61h572v-61z" />
    <glyph glyph-name="Wgrave" unicode="&#x1e80;" horiz-adv-x="1013" 
d="M549 836l-177 89l28 51l174 -94zM987 740l-171 -740h-160l-149 732h-2l-148 -732h-161l-170 740h93l162 -732h2l150 732h149l152 -732h2l163 732h88z" />
    <glyph glyph-name="wgrave" unicode="&#x1e81;" horiz-adv-x="826" 
d="M454 591l-177 89l28 51l174 -94zM799 495l-132 -495h-148l-105 489h-2l-105 -489h-148l-132 495h88l121 -489h2l105 489h143l104 -489h2l122 489h85z" />
    <glyph glyph-name="Wacute" unicode="&#x1e82;" horiz-adv-x="1013" 
d="M467 836l-25 46l174 94l28 -51zM987 740l-171 -740h-160l-149 732h-2l-148 -732h-161l-170 740h93l162 -732h2l150 732h149l152 -732h2l163 732h88z" />
    <glyph glyph-name="wacute" unicode="&#x1e83;" horiz-adv-x="826" 
d="M373 591l-25 46l174 94l28 -51zM799 495l-132 -495h-148l-105 489h-2l-105 -489h-148l-132 495h88l121 -489h2l105 489h143l104 -489h2l122 489h85z" />
    <glyph glyph-name="Wdieresis" unicode="&#x1e84;" horiz-adv-x="1013" 
d="M469 850h-79v105h79v-105zM627 850h-78v105h78v-105zM987 740l-171 -740h-160l-149 732h-2l-148 -732h-161l-170 740h93l162 -732h2l150 732h149l152 -732h2l163 732h88z" />
    <glyph glyph-name="wdieresis" unicode="&#x1e85;" horiz-adv-x="826" 
d="M374 605h-79v105h79v-105zM532 605h-78v105h78v-105zM799 495l-132 -495h-148l-105 489h-2l-105 -489h-148l-132 495h88l121 -489h2l105 489h143l104 -489h2l122 489h85z" />
    <glyph glyph-name="uni1E9E" unicode="&#x1e9e;" horiz-adv-x="671" 
d="M331 410q139 0 217 -56t78 -156q0 -99 -69 -153.5t-194 -54.5q-28 0 -55 3t-48 9v71q21 -5 46.5 -7.5t51.5 -2.5q86 0 133.5 36t47.5 101q0 70 -54 108.5t-152 38.5h-49v65q95 4 148 40.5t53 99.5q0 59 -40 92t-114 33q-75 0 -116 -39.5t-41 -111.5v-526h-86v523
q0 108 64 167.5t179 59.5t178.5 -46t63.5 -128q0 -78 -66.5 -121t-185.5 -43v-2h10v0z" />
    <glyph glyph-name="uni1EA0" unicode="&#x1ea0;" horiz-adv-x="685" 
d="M301 -70h82v-105h-82v105zM517 190h-354l-62 -190h-88l254 740h152l253 -740h-93zM495 260l-153 472h-2l-154 -472h309z" />
    <glyph glyph-name="uni1EA1" unicode="&#x1ea1;" 
d="M248 -70h82v-105h-82v105zM526 495v-495h-82v163h-2q0 -81 -48.5 -127t-134.5 -46q-100 0 -155 68t-55 190q0 121 55 189t155 68q86 0 134.5 -45.5t48.5 -126.5h2v162h82zM291 58q76 0 117.5 51t41.5 139t-41.5 139t-117.5 51q-75 0 -116.5 -50t-41.5 -140
q0 -91 41.5 -140.5t116.5 -49.5z" />
    <glyph glyph-name="uni1EA2" unicode="&#x1ea2;" horiz-adv-x="685" 
d="M260 888q0 40 24.5 63.5t65.5 23.5q42 0 66 -20.5t24 -55.5q0 -26 -16.5 -51.5t-49.5 -45.5h-63q33 23 53 44.5t20 47.5q0 35 -36 35t-39 -41h-49zM517 190h-354l-62 -190h-88l254 740h152l253 -740h-93zM495 260l-153 472h-2l-154 -472h309z" />
    <glyph glyph-name="uni1EA3" unicode="&#x1ea3;" 
d="M222 646q0 40 24.5 63.5t65.5 23.5q42 0 66 -20.5t24 -55.5q0 -26 -16.5 -51.5t-49.5 -45.5h-63q33 23 53 44.5t20 47.5q0 35 -36 35t-39 -41h-49zM526 495v-495h-82v163h-2q0 -81 -48.5 -127t-134.5 -46q-100 0 -155 68t-55 190q0 121 55 189t155 68q86 0 134.5 -45.5
t48.5 -126.5h2v162h82zM291 58q76 0 117.5 51t41.5 139t-41.5 139t-117.5 51q-75 0 -116.5 -50t-41.5 -140q0 -91 41.5 -140.5t116.5 -49.5z" />
    <glyph glyph-name="uni1EA4" unicode="&#x1ea4;" horiz-adv-x="685" 
d="M461 866l62 125h81l-79 -125h-64zM517 190h-354l-62 -190h-88l254 740h152l253 -740h-93zM495 260l-153 472h-2l-154 -472h309zM344 908h-4l-60 -116h-66l65 125h126l65 -125h-66z" />
    <glyph glyph-name="uni1EA5" unicode="&#x1ea5;" 
d="M411 624l62 125h81l-79 -125h-64zM526 495v-495h-82v163h-2q0 -81 -48.5 -127t-134.5 -46q-100 0 -155 68t-55 190q0 121 55 189t155 68q86 0 134.5 -45.5t48.5 -126.5h2v162h82zM291 58q76 0 117.5 51t41.5 139t-41.5 139t-117.5 51q-75 0 -116.5 -50t-41.5 -140
q0 -91 41.5 -140.5t116.5 -49.5zM294 666h-4l-60 -116h-66l65 125h126l65 -125h-66z" />
    <glyph glyph-name="uni1EA6" unicode="&#x1ea6;" horiz-adv-x="685" 
d="M486 866l-79 125h81l62 -125h-64zM517 190h-354l-62 -190h-88l254 740h152l253 -740h-93zM495 260l-153 472h-2l-154 -472h309zM344 908h-4l-60 -116h-66l65 125h126l65 -125h-66z" />
    <glyph glyph-name="uni1EA7" unicode="&#x1ea7;" 
d="M436 624l-79 125h81l62 -125h-64zM526 495v-495h-82v163h-2q0 -81 -48.5 -127t-134.5 -46q-100 0 -155 68t-55 190q0 121 55 189t155 68q86 0 134.5 -45.5t48.5 -126.5h2v162h82zM291 58q76 0 117.5 51t41.5 139t-41.5 139t-117.5 51q-75 0 -116.5 -50t-41.5 -140
q0 -91 41.5 -140.5t116.5 -49.5zM294 666h-4l-60 -116h-66l65 125h126l65 -125h-66z" />
    <glyph glyph-name="uni1EA8" unicode="&#x1ea8;" horiz-adv-x="685" 
d="M409 952q0 40 24.5 63.5t65.5 23.5q42 0 66 -20.5t24 -55.5q0 -26 -16.5 -51.5t-49.5 -45.5h-63q33 23 53 44.5t20 47.5q0 35 -36 35t-39 -41h-49zM517 190h-354l-62 -190h-88l254 740h152l253 -740h-93zM495 260l-153 472h-2l-154 -472h309zM344 908h-4l-60 -116h-66
l65 125h126l65 -125h-66z" />
    <glyph glyph-name="uni1EA9" unicode="&#x1ea9;" 
d="M359 710q0 40 24.5 63.5t65.5 23.5q42 0 66 -20.5t24 -55.5q0 -26 -16.5 -51.5t-49.5 -45.5h-63q33 23 53 44.5t20 47.5q0 35 -36 35t-39 -41h-49zM526 495v-495h-82v163h-2q0 -81 -48.5 -127t-134.5 -46q-100 0 -155 68t-55 190q0 121 55 189t155 68q86 0 134.5 -45.5
t48.5 -126.5h2v162h82zM291 58q76 0 117.5 51t41.5 139t-41.5 139t-117.5 51q-75 0 -116.5 -50t-41.5 -140q0 -91 41.5 -140.5t116.5 -49.5zM294 666h-4l-60 -116h-66l65 125h126l65 -125h-66z" />
    <glyph glyph-name="uni1EAA" unicode="&#x1eaa;" horiz-adv-x="685" 
d="M390 961q-18 0 -30.5 6.5t-23.5 14.5t-21.5 14.5t-23.5 6.5t-20.5 -13t-9.5 -32h-52q1 51 23.5 79.5t63.5 28.5q18 0 30.5 -6.5t23 -14t20.5 -14t24 -6.5t21.5 12.5t9.5 31.5h52q-1 -51 -24 -79.5t-63 -28.5zM517 190h-354l-62 -190h-88l254 740h152l253 -740h-93z
M495 260l-153 472h-2l-154 -472h309zM344 908h-4l-60 -116h-66l65 125h126l65 -125h-66z" />
    <glyph glyph-name="uni1EAB" unicode="&#x1eab;" 
d="M340 719q-18 0 -30.5 6.5t-23.5 14.5t-21.5 14.5t-23.5 6.5t-20.5 -13t-9.5 -32h-52q1 51 23.5 79.5t63.5 28.5q18 0 30.5 -6.5t23 -14t20.5 -14t24 -6.5t21.5 12.5t9.5 31.5h52q-1 -51 -24 -79.5t-63 -28.5zM526 495v-495h-82v163h-2q0 -81 -48.5 -127t-134.5 -46
q-100 0 -155 68t-55 190q0 121 55 189t155 68q86 0 134.5 -45.5t48.5 -126.5h2v162h82zM291 58q76 0 117.5 51t41.5 139t-41.5 139t-117.5 51q-75 0 -116.5 -50t-41.5 -140q0 -91 41.5 -140.5t116.5 -49.5zM294 666h-4l-60 -116h-66l65 125h126l65 -125h-66z" />
    <glyph glyph-name="uni1EAC" unicode="&#x1eac;" horiz-adv-x="685" 
d="M301 -70h82v-105h-82v105zM517 190h-354l-62 -190h-88l254 740h152l253 -740h-93zM495 260l-153 472h-2l-154 -472h309zM344 908h-4l-60 -116h-66l65 125h126l65 -125h-66z" />
    <glyph glyph-name="uni1EAD" unicode="&#x1ead;" 
d="M248 -70h82v-105h-82v105zM526 495v-495h-82v163h-2q0 -81 -48.5 -127t-134.5 -46q-100 0 -155 68t-55 190q0 121 55 189t155 68q86 0 134.5 -45.5t48.5 -126.5h2v162h82zM291 58q76 0 117.5 51t41.5 139t-41.5 139t-117.5 51q-75 0 -116.5 -50t-41.5 -140
q0 -91 41.5 -140.5t116.5 -49.5zM294 666h-4l-60 -116h-66l65 125h126l65 -125h-66z" />
    <glyph glyph-name="uni1EAE" unicode="&#x1eae;" horiz-adv-x="685" 
d="M307 928l62 125h81l-79 -125h-64zM517 190h-354l-62 -190h-88l254 740h152l253 -740h-93zM495 260l-153 472h-2l-154 -472h309zM343 792q-63 0 -95.5 30.5t-32.5 85.5h64q0 -36 18.5 -48t45.5 -12t45.5 12t18.5 48h64q0 -55 -32.5 -85.5t-95.5 -30.5z" />
    <glyph glyph-name="uni1EAF" unicode="&#x1eaf;" 
d="M256 686l62 125h81l-79 -125h-64zM526 495v-495h-82v163h-2q0 -81 -48.5 -127t-134.5 -46q-100 0 -155 68t-55 190q0 121 55 189t155 68q86 0 134.5 -45.5t48.5 -126.5h2v162h82zM291 58q76 0 117.5 51t41.5 139t-41.5 139t-117.5 51q-75 0 -116.5 -50t-41.5 -140
q0 -91 41.5 -140.5t116.5 -49.5zM292 550q-63 0 -95.5 30.5t-32.5 85.5h64q0 -36 18.5 -48t45.5 -12t45.5 12t18.5 48h64q0 -55 -32.5 -85.5t-95.5 -30.5z" />
    <glyph glyph-name="uni1EB0" unicode="&#x1eb0;" horiz-adv-x="685" 
d="M318 928l-79 125h81l62 -125h-64zM517 190h-354l-62 -190h-88l254 740h152l253 -740h-93zM495 260l-153 472h-2l-154 -472h309zM343 792q-63 0 -95.5 30.5t-32.5 85.5h64q0 -36 18.5 -48t45.5 -12t45.5 12t18.5 48h64q0 -55 -32.5 -85.5t-95.5 -30.5z" />
    <glyph glyph-name="uni1EB1" unicode="&#x1eb1;" 
d="M267 686l-79 125h81l62 -125h-64zM526 495v-495h-82v163h-2q0 -81 -48.5 -127t-134.5 -46q-100 0 -155 68t-55 190q0 121 55 189t155 68q86 0 134.5 -45.5t48.5 -126.5h2v162h82zM291 58q76 0 117.5 51t41.5 139t-41.5 139t-117.5 51q-75 0 -116.5 -50t-41.5 -140
q0 -91 41.5 -140.5t116.5 -49.5zM292 550q-63 0 -95.5 30.5t-32.5 85.5h64q0 -36 18.5 -48t45.5 -12t45.5 12t18.5 48h64q0 -55 -32.5 -85.5t-95.5 -30.5z" />
    <glyph glyph-name="uni1EB2" unicode="&#x1eb2;" horiz-adv-x="685" 
d="M258 1014q0 40 24.5 63.5t65.5 23.5q42 0 66 -20.5t24 -55.5q0 -26 -16.5 -51.5t-49.5 -45.5h-63q33 23 53 44.5t20 47.5q0 35 -36 35t-39 -41h-49zM517 190h-354l-62 -190h-88l254 740h152l253 -740h-93zM495 260l-153 472h-2l-154 -472h309zM343 792q-63 0 -95.5 30.5
t-32.5 85.5h64q0 -36 18.5 -48t45.5 -12t45.5 12t18.5 48h64q0 -55 -32.5 -85.5t-95.5 -30.5z" />
    <glyph glyph-name="uni1EB3" unicode="&#x1eb3;" 
d="M207 772q0 40 24.5 63.5t65.5 23.5q42 0 66 -20.5t24 -55.5q0 -26 -16.5 -51.5t-49.5 -45.5h-63q33 23 53 44.5t20 47.5q0 35 -36 35t-39 -41h-49zM526 495v-495h-82v163h-2q0 -81 -48.5 -127t-134.5 -46q-100 0 -155 68t-55 190q0 121 55 189t155 68q86 0 134.5 -45.5
t48.5 -126.5h2v162h82zM291 58q76 0 117.5 51t41.5 139t-41.5 139t-117.5 51q-75 0 -116.5 -50t-41.5 -140q0 -91 41.5 -140.5t116.5 -49.5zM292 550q-63 0 -95.5 30.5t-32.5 85.5h64q0 -36 18.5 -48t45.5 -12t45.5 12t18.5 48h64q0 -55 -32.5 -85.5t-95.5 -30.5z" />
    <glyph glyph-name="uni1EB4" unicode="&#x1eb4;" horiz-adv-x="685" 
d="M390 952q-18 0 -30.5 6.5t-23.5 14.5t-21.5 14.5t-23.5 6.5t-20.5 -13t-9.5 -32h-52q1 51 23.5 79.5t63.5 28.5q18 0 30.5 -6.5t23 -14t20.5 -14t24 -6.5t21.5 12.5t9.5 31.5h52q-1 -51 -24 -79.5t-63 -28.5zM517 190h-354l-62 -190h-88l254 740h152l253 -740h-93z
M495 260l-153 472h-2l-154 -472h309zM343 792q-63 0 -95.5 30.5t-32.5 85.5h64q0 -36 18.5 -48t45.5 -12t45.5 12t18.5 48h64q0 -55 -32.5 -85.5t-95.5 -30.5z" />
    <glyph glyph-name="uni1EB5" unicode="&#x1eb5;" 
d="M339 710q-18 0 -30.5 6.5t-23.5 14.5t-21.5 14.5t-23.5 6.5t-20.5 -13t-9.5 -32h-52q1 51 23.5 79.5t63.5 28.5q18 0 30.5 -6.5t23 -14t20.5 -14t24 -6.5t21.5 12.5t9.5 31.5h52q-1 -51 -24 -79.5t-63 -28.5zM526 495v-495h-82v163h-2q0 -81 -48.5 -127t-134.5 -46
q-100 0 -155 68t-55 190q0 121 55 189t155 68q86 0 134.5 -45.5t48.5 -126.5h2v162h82zM291 58q76 0 117.5 51t41.5 139t-41.5 139t-117.5 51q-75 0 -116.5 -50t-41.5 -140q0 -91 41.5 -140.5t116.5 -49.5zM292 550q-63 0 -95.5 30.5t-32.5 85.5h64q0 -36 18.5 -48t45.5 -12
t45.5 12t18.5 48h64q0 -55 -32.5 -85.5t-95.5 -30.5z" />
    <glyph glyph-name="uni1EB6" unicode="&#x1eb6;" horiz-adv-x="685" 
d="M301 -70h82v-105h-82v105zM517 190h-354l-62 -190h-88l254 740h152l253 -740h-93zM495 260l-153 472h-2l-154 -472h309zM343 792q-63 0 -95.5 30.5t-32.5 85.5h64q0 -36 18.5 -48t45.5 -12t45.5 12t18.5 48h64q0 -55 -32.5 -85.5t-95.5 -30.5z" />
    <glyph glyph-name="uni1EB7" unicode="&#x1eb7;" 
d="M248 -70h82v-105h-82v105zM526 495v-495h-82v163h-2q0 -81 -48.5 -127t-134.5 -46q-100 0 -155 68t-55 190q0 121 55 189t155 68q86 0 134.5 -45.5t48.5 -126.5h2v162h82zM291 58q76 0 117.5 51t41.5 139t-41.5 139t-117.5 51q-75 0 -116.5 -50t-41.5 -140
q0 -91 41.5 -140.5t116.5 -49.5zM292 550q-63 0 -95.5 30.5t-32.5 85.5h64q0 -36 18.5 -48t45.5 -12t45.5 12t18.5 48h64q0 -55 -32.5 -85.5t-95.5 -30.5z" />
    <glyph glyph-name="uni1EB8" unicode="&#x1eb8;" horiz-adv-x="625" 
d="M301 -70h82v-105h-82v105zM582 70v-70h-487v740h476v-70h-391v-253h356v-70h-356v-277h402z" />
    <glyph glyph-name="uni1EB9" unicode="&#x1eb9;" horiz-adv-x="554" 
d="M238 -70h82v-105h-82v105zM507 235h-378q3 -86 42 -133t107 -47q60 0 99 31.5t49 87.5h81q-12 -88 -72 -136t-157 -48q-109 0 -169.5 67.5t-60.5 189.5q0 123 60.5 190.5t169.5 67.5t169 -67.5t60 -190.5v-12zM278 440q-64 0 -103 -43t-45 -121h295q-6 78 -44.5 121
t-102.5 43z" />
    <glyph glyph-name="uni1EBA" unicode="&#x1eba;" horiz-adv-x="625" 
d="M259 888q0 40 24.5 63.5t65.5 23.5q42 0 66 -20.5t24 -55.5q0 -26 -16.5 -51.5t-49.5 -45.5h-63q33 23 53 44.5t20 47.5q0 35 -36 35t-39 -41h-49zM582 70v-70h-487v740h476v-70h-391v-253h356v-70h-356v-277h402z" />
    <glyph glyph-name="uni1EBB" unicode="&#x1ebb;" horiz-adv-x="554" 
d="M202 646q0 40 24.5 63.5t65.5 23.5q42 0 66 -20.5t24 -55.5q0 -26 -16.5 -51.5t-49.5 -45.5h-63q33 23 53 44.5t20 47.5q0 35 -36 35t-39 -41h-49zM507 235h-378q3 -86 42 -133t107 -47q60 0 99 31.5t49 87.5h81q-12 -88 -72 -136t-157 -48q-109 0 -169.5 67.5
t-60.5 189.5q0 123 60.5 190.5t169.5 67.5t169 -67.5t60 -190.5v-12zM278 440q-64 0 -103 -43t-45 -121h295q-6 78 -44.5 121t-102.5 43z" />
    <glyph glyph-name="uni1EBC" unicode="&#x1ebc;" horiz-adv-x="625" 
d="M371 805q-18 0 -30.5 6.5t-23.5 14.5t-21.5 14.5t-23.5 6.5t-20.5 -13t-9.5 -32h-52q1 51 23.5 79.5t63.5 28.5q18 0 30.5 -6.5t23 -14t20.5 -14t24 -6.5t21.5 12.5t9.5 31.5h52q-1 -51 -24 -79.5t-63 -28.5zM582 70v-70h-487v740h476v-70h-391v-253h356v-70h-356v-277
h402z" />
    <glyph glyph-name="uni1EBD" unicode="&#x1ebd;" horiz-adv-x="554" 
d="M329 563q-18 0 -30.5 6.5t-23.5 14.5t-21.5 14.5t-23.5 6.5t-20.5 -13t-9.5 -32h-52q1 51 23.5 79.5t63.5 28.5q18 0 30.5 -6.5t23 -14t20.5 -14t24 -6.5t21.5 12.5t9.5 31.5h52q-1 -51 -24 -79.5t-63 -28.5zM507 235h-378q3 -86 42 -133t107 -47q60 0 99 31.5t49 87.5
h81q-12 -88 -72 -136t-157 -48q-109 0 -169.5 67.5t-60.5 189.5q0 123 60.5 190.5t169.5 67.5t169 -67.5t60 -190.5v-12zM278 440q-64 0 -103 -43t-45 -121h295q-6 78 -44.5 121t-102.5 43z" />
    <glyph glyph-name="uni1EBE" unicode="&#x1ebe;" horiz-adv-x="625" 
d="M443 866l62 125h81l-79 -125h-64zM582 70v-70h-487v740h476v-70h-391v-253h356v-70h-356v-277h402zM326 908h-4l-60 -116h-66l65 125h126l65 -125h-66z" />
    <glyph glyph-name="uni1EBF" unicode="&#x1ebf;" horiz-adv-x="554" 
d="M401 624l62 125h81l-79 -125h-64zM507 235h-378q3 -86 42 -133t107 -47q60 0 99 31.5t49 87.5h81q-12 -88 -72 -136t-157 -48q-109 0 -169.5 67.5t-60.5 189.5q0 123 60.5 190.5t169.5 67.5t169 -67.5t60 -190.5v-12zM278 440q-64 0 -103 -43t-45 -121h295
q-6 78 -44.5 121t-102.5 43zM284 666h-4l-60 -116h-66l65 125h126l65 -125h-66z" />
    <glyph glyph-name="uni1EC0" unicode="&#x1ec0;" horiz-adv-x="625" 
d="M468 866l-79 125h81l62 -125h-64zM582 70v-70h-487v740h476v-70h-391v-253h356v-70h-356v-277h402zM326 908h-4l-60 -116h-66l65 125h126l65 -125h-66z" />
    <glyph glyph-name="uni1EC1" unicode="&#x1ec1;" horiz-adv-x="554" 
d="M426 624l-79 125h81l62 -125h-64zM507 235h-378q3 -86 42 -133t107 -47q60 0 99 31.5t49 87.5h81q-12 -88 -72 -136t-157 -48q-109 0 -169.5 67.5t-60.5 189.5q0 123 60.5 190.5t169.5 67.5t169 -67.5t60 -190.5v-12zM278 440q-64 0 -103 -43t-45 -121h295
q-6 78 -44.5 121t-102.5 43zM284 666h-4l-60 -116h-66l65 125h126l65 -125h-66z" />
    <glyph glyph-name="uni1EC2" unicode="&#x1ec2;" horiz-adv-x="625" 
d="M391 952q0 40 24.5 63.5t65.5 23.5q42 0 66 -20.5t24 -55.5q0 -26 -16.5 -51.5t-49.5 -45.5h-63q33 23 53 44.5t20 47.5q0 35 -36 35t-39 -41h-49zM582 70v-70h-487v740h476v-70h-391v-253h356v-70h-356v-277h402zM326 908h-4l-60 -116h-66l65 125h126l65 -125h-66z" />
    <glyph glyph-name="uni1EC3" unicode="&#x1ec3;" horiz-adv-x="554" 
d="M349 710q0 40 24.5 63.5t65.5 23.5q42 0 66 -20.5t24 -55.5q0 -26 -16.5 -51.5t-49.5 -45.5h-63q33 23 53 44.5t20 47.5q0 35 -36 35t-39 -41h-49zM507 235h-378q3 -86 42 -133t107 -47q60 0 99 31.5t49 87.5h81q-12 -88 -72 -136t-157 -48q-109 0 -169.5 67.5
t-60.5 189.5q0 123 60.5 190.5t169.5 67.5t169 -67.5t60 -190.5v-12zM278 440q-64 0 -103 -43t-45 -121h295q-6 78 -44.5 121t-102.5 43zM284 666h-4l-60 -116h-66l65 125h126l65 -125h-66z" />
    <glyph glyph-name="uni1EC4" unicode="&#x1ec4;" horiz-adv-x="625" 
d="M372 961q-18 0 -30.5 6.5t-23.5 14.5t-21.5 14.5t-23.5 6.5t-20.5 -13t-9.5 -32h-52q1 51 23.5 79.5t63.5 28.5q18 0 30.5 -6.5t23 -14t20.5 -14t24 -6.5t21.5 12.5t9.5 31.5h52q-1 -51 -24 -79.5t-63 -28.5zM582 70v-70h-487v740h476v-70h-391v-253h356v-70h-356v-277
h402zM326 908h-4l-60 -116h-66l65 125h126l65 -125h-66z" />
    <glyph glyph-name="uni1EC5" unicode="&#x1ec5;" horiz-adv-x="554" 
d="M330 719q-18 0 -30.5 6.5t-23.5 14.5t-21.5 14.5t-23.5 6.5t-20.5 -13t-9.5 -32h-52q1 51 23.5 79.5t63.5 28.5q18 0 30.5 -6.5t23 -14t20.5 -14t24 -6.5t21.5 12.5t9.5 31.5h52q-1 -51 -24 -79.5t-63 -28.5zM507 235h-378q3 -86 42 -133t107 -47q60 0 99 31.5t49 87.5
h81q-12 -88 -72 -136t-157 -48q-109 0 -169.5 67.5t-60.5 189.5q0 123 60.5 190.5t169.5 67.5t169 -67.5t60 -190.5v-12zM278 440q-64 0 -103 -43t-45 -121h295q-6 78 -44.5 121t-102.5 43zM284 666h-4l-60 -116h-66l65 125h126l65 -125h-66z" />
    <glyph glyph-name="uni1EC6" unicode="&#x1ec6;" horiz-adv-x="625" 
d="M301 -70h82v-105h-82v105zM582 70v-70h-487v740h476v-70h-391v-253h356v-70h-356v-277h402zM326 908h-4l-60 -116h-66l65 125h126l65 -125h-66z" />
    <glyph glyph-name="uni1EC7" unicode="&#x1ec7;" horiz-adv-x="554" 
d="M238 -70h82v-105h-82v105zM507 235h-378q3 -86 42 -133t107 -47q60 0 99 31.5t49 87.5h81q-12 -88 -72 -136t-157 -48q-109 0 -169.5 67.5t-60.5 189.5q0 123 60.5 190.5t169.5 67.5t169 -67.5t60 -190.5v-12zM278 440q-64 0 -103 -43t-45 -121h295q-6 78 -44.5 121
t-102.5 43zM284 666h-4l-60 -116h-66l65 125h126l65 -125h-66z" />
    <glyph glyph-name="uni1EC8" unicode="&#x1ec8;" horiz-adv-x="275" 
d="M52 888q0 40 24.5 63.5t65.5 23.5q42 0 66 -20.5t24 -55.5q0 -26 -16.5 -51.5t-49.5 -45.5h-63q33 23 53 44.5t20 47.5q0 35 -36 35t-39 -41h-49zM95 740h85v-740h-85v740z" />
    <glyph glyph-name="uni1EC9" unicode="&#x1ec9;" horiz-adv-x="237" 
d="M37 646q0 40 24.5 63.5t65.5 23.5q42 0 66 -20.5t24 -55.5q0 -26 -16.5 -51.5t-49.5 -45.5h-63q33 23 53 44.5t20 47.5q0 35 -36 35t-39 -41h-49zM160 495v-495h-82v495h82z" />
    <glyph glyph-name="uni1ECA" unicode="&#x1eca;" horiz-adv-x="275" 
d="M96 -70h82v-105h-82v105zM95 740h85v-740h-85v740z" />
    <glyph glyph-name="uni1ECB" unicode="&#x1ecb;" horiz-adv-x="237" 
d="M78 -70h82v-105h-82v105zM78 690h82v-105h-82v105zM78 495h82v-495h-82v495z" />
    <glyph glyph-name="uni1ECC" unicode="&#x1ecc;" horiz-adv-x="748" 
d="M332 -70h82v-105h-82v105zM374 -10q-75 0 -135 26t-101 74.5t-63 119t-22 160.5t22 160.5t63 119t101 74.5t135 26q76 0 135.5 -26t100.5 -74.5t63 -119t22 -160.5t-22 -160.5t-63 -119t-100.5 -74.5t-135.5 -26zM374 63q55 0 98 21t73 60.5t46 96.5t16 129t-16 129
t-46 96.5t-73 60.5t-98 21t-98 -21t-73 -60.5t-45.5 -96.5t-15.5 -129t15.5 -129t45.5 -96.5t73 -60.5t98 -21z" />
    <glyph glyph-name="uni1ECD" unicode="&#x1ecd;" horiz-adv-x="582" 
d="M247 -70h82v-105h-82v105zM291 -10q-115 0 -179 68t-64 190q0 121 64.5 189t178.5 68q115 0 178.5 -68t63.5 -189q0 -122 -63.5 -190t-178.5 -68zM291 58q75 0 117 49.5t42 140.5q0 90 -42 140t-117 50t-117 -50t-42 -140q0 -91 42 -140.5t117 -49.5z" />
    <glyph glyph-name="uni1ECE" unicode="&#x1ece;" horiz-adv-x="748" 
d="M295 888q0 40 24.5 63.5t65.5 23.5q42 0 66 -20.5t24 -55.5q0 -26 -16.5 -51.5t-49.5 -45.5h-63q33 23 53 44.5t20 47.5q0 35 -36 35t-39 -41h-49zM374 -10q-75 0 -135 26t-101 74.5t-63 119t-22 160.5t22 160.5t63 119t101 74.5t135 26q76 0 135.5 -26t100.5 -74.5
t63 -119t22 -160.5t-22 -160.5t-63 -119t-100.5 -74.5t-135.5 -26zM374 63q55 0 98 21t73 60.5t46 96.5t16 129t-16 129t-46 96.5t-73 60.5t-98 21t-98 -21t-73 -60.5t-45.5 -96.5t-15.5 -129t15.5 -129t45.5 -96.5t73 -60.5t98 -21z" />
    <glyph glyph-name="uni1ECF" unicode="&#x1ecf;" horiz-adv-x="582" 
d="M212 646q0 40 24.5 63.5t65.5 23.5q42 0 66 -20.5t24 -55.5q0 -26 -16.5 -51.5t-49.5 -45.5h-63q33 23 53 44.5t20 47.5q0 35 -36 35t-39 -41h-49zM291 -10q-115 0 -179 68t-64 190q0 121 64.5 189t178.5 68q115 0 178.5 -68t63.5 -189q0 -122 -63.5 -190t-178.5 -68z
M291 58q75 0 117 49.5t42 140.5q0 90 -42 140t-117 50t-117 -50t-42 -140q0 -91 42 -140.5t117 -49.5z" />
    <glyph glyph-name="uni1ED0" unicode="&#x1ed0;" horiz-adv-x="748" 
d="M493 866l62 125h81l-79 -125h-64zM374 750q76 0 135.5 -26t100.5 -74.5t63 -119t22 -160.5t-22 -160.5t-63 -119t-100.5 -74.5t-135.5 -26q-75 0 -135 26t-101 74.5t-63 119t-22 160.5t22 160.5t63 119t101 74.5t135 26zM374 63q55 0 98 21t73 60.5t46 96.5t16 129
t-16 129t-46 96.5t-73 60.5t-98 21t-98 -21t-73 -60.5t-45.5 -96.5t-15.5 -129t15.5 -129t45.5 -96.5t73 -60.5t98 -21zM376 908h-4l-60 -116h-66l65 125h126l65 -125h-66z" />
    <glyph glyph-name="uni1ED1" unicode="&#x1ed1;" horiz-adv-x="582" 
d="M409 624l62 125h81l-79 -125h-64zM291 505q115 0 178.5 -68t63.5 -189q0 -122 -63.5 -190t-178.5 -68t-179 68t-64 190q0 121 64.5 189t178.5 68zM291 58q75 0 117 49.5t42 140.5q0 90 -42 140t-117 50t-117 -50t-42 -140q0 -91 42 -140.5t117 -49.5zM292 666h-4
l-60 -116h-66l65 125h126l65 -125h-66z" />
    <glyph glyph-name="uni1ED2" unicode="&#x1ed2;" horiz-adv-x="748" 
d="M518 866l-79 125h81l62 -125h-64zM374 750q76 0 135.5 -26t100.5 -74.5t63 -119t22 -160.5t-22 -160.5t-63 -119t-100.5 -74.5t-135.5 -26q-75 0 -135 26t-101 74.5t-63 119t-22 160.5t22 160.5t63 119t101 74.5t135 26zM374 63q55 0 98 21t73 60.5t46 96.5t16 129
t-16 129t-46 96.5t-73 60.5t-98 21t-98 -21t-73 -60.5t-45.5 -96.5t-15.5 -129t15.5 -129t45.5 -96.5t73 -60.5t98 -21zM376 908h-4l-60 -116h-66l65 125h126l65 -125h-66z" />
    <glyph glyph-name="uni1ED3" unicode="&#x1ed3;" horiz-adv-x="582" 
d="M434 624l-79 125h81l62 -125h-64zM291 505q115 0 178.5 -68t63.5 -189q0 -122 -63.5 -190t-178.5 -68t-179 68t-64 190q0 121 64.5 189t178.5 68zM291 58q75 0 117 49.5t42 140.5q0 90 -42 140t-117 50t-117 -50t-42 -140q0 -91 42 -140.5t117 -49.5zM292 666h-4
l-60 -116h-66l65 125h126l65 -125h-66z" />
    <glyph glyph-name="uni1ED4" unicode="&#x1ed4;" horiz-adv-x="748" 
d="M441 952q0 40 24.5 63.5t65.5 23.5q42 0 66 -20.5t24 -55.5q0 -26 -16.5 -51.5t-49.5 -45.5h-63q33 23 53 44.5t20 47.5q0 35 -36 35t-39 -41h-49zM374 750q76 0 135.5 -26t100.5 -74.5t63 -119t22 -160.5t-22 -160.5t-63 -119t-100.5 -74.5t-135.5 -26q-75 0 -135 26
t-101 74.5t-63 119t-22 160.5t22 160.5t63 119t101 74.5t135 26zM374 63q55 0 98 21t73 60.5t46 96.5t16 129t-16 129t-46 96.5t-73 60.5t-98 21t-98 -21t-73 -60.5t-45.5 -96.5t-15.5 -129t15.5 -129t45.5 -96.5t73 -60.5t98 -21zM376 908h-4l-60 -116h-66l65 125h126
l65 -125h-66z" />
    <glyph glyph-name="uni1ED5" unicode="&#x1ed5;" horiz-adv-x="582" 
d="M357 710q0 40 24.5 63.5t65.5 23.5q42 0 66 -20.5t24 -55.5q0 -26 -16.5 -51.5t-49.5 -45.5h-63q33 23 53 44.5t20 47.5q0 35 -36 35t-39 -41h-49zM291 505q115 0 178.5 -68t63.5 -189q0 -122 -63.5 -190t-178.5 -68t-179 68t-64 190q0 121 64.5 189t178.5 68zM291 58
q75 0 117 49.5t42 140.5q0 90 -42 140t-117 50t-117 -50t-42 -140q0 -91 42 -140.5t117 -49.5zM292 666h-4l-60 -116h-66l65 125h126l65 -125h-66z" />
    <glyph glyph-name="uni1ED6" unicode="&#x1ed6;" horiz-adv-x="748" 
d="M422 961q-18 0 -30.5 6.5t-23.5 14.5t-21.5 14.5t-23.5 6.5t-20.5 -13t-9.5 -32h-52q1 51 23.5 79.5t63.5 28.5q18 0 30.5 -6.5t23 -14t20.5 -14t24 -6.5t21.5 12.5t9.5 31.5h52q-1 -51 -24 -79.5t-63 -28.5zM374 750q76 0 135.5 -26t100.5 -74.5t63 -119t22 -160.5
t-22 -160.5t-63 -119t-100.5 -74.5t-135.5 -26q-75 0 -135 26t-101 74.5t-63 119t-22 160.5t22 160.5t63 119t101 74.5t135 26zM374 63q55 0 98 21t73 60.5t46 96.5t16 129t-16 129t-46 96.5t-73 60.5t-98 21t-98 -21t-73 -60.5t-45.5 -96.5t-15.5 -129t15.5 -129
t45.5 -96.5t73 -60.5t98 -21zM376 908h-4l-60 -116h-66l65 125h126l65 -125h-66z" />
    <glyph glyph-name="uni1ED7" unicode="&#x1ed7;" horiz-adv-x="582" 
d="M338 719q-18 0 -30.5 6.5t-23.5 14.5t-21.5 14.5t-23.5 6.5t-20.5 -13t-9.5 -32h-52q1 51 23.5 79.5t63.5 28.5q18 0 30.5 -6.5t23 -14t20.5 -14t24 -6.5t21.5 12.5t9.5 31.5h52q-1 -51 -24 -79.5t-63 -28.5zM291 505q115 0 178.5 -68t63.5 -189q0 -122 -63.5 -190
t-178.5 -68t-179 68t-64 190q0 121 64.5 189t178.5 68zM291 58q75 0 117 49.5t42 140.5q0 90 -42 140t-117 50t-117 -50t-42 -140q0 -91 42 -140.5t117 -49.5zM292 666h-4l-60 -116h-66l65 125h126l65 -125h-66z" />
    <glyph glyph-name="uni1ED8" unicode="&#x1ed8;" horiz-adv-x="748" 
d="M332 -70h82v-105h-82v105zM374 750q76 0 135.5 -26t100.5 -74.5t63 -119t22 -160.5t-22 -160.5t-63 -119t-100.5 -74.5t-135.5 -26q-75 0 -135 26t-101 74.5t-63 119t-22 160.5t22 160.5t63 119t101 74.5t135 26zM374 63q55 0 98 21t73 60.5t46 96.5t16 129t-16 129
t-46 96.5t-73 60.5t-98 21t-98 -21t-73 -60.5t-45.5 -96.5t-15.5 -129t15.5 -129t45.5 -96.5t73 -60.5t98 -21zM376 908h-4l-60 -116h-66l65 125h126l65 -125h-66z" />
    <glyph glyph-name="uni1ED9" unicode="&#x1ed9;" horiz-adv-x="582" 
d="M247 -70h82v-105h-82v105zM291 505q115 0 178.5 -68t63.5 -189q0 -122 -63.5 -190t-178.5 -68t-179 68t-64 190q0 121 64.5 189t178.5 68zM291 58q75 0 117 49.5t42 140.5q0 90 -42 140t-117 50t-117 -50t-42 -140q0 -91 42 -140.5t117 -49.5zM292 666h-4l-60 -116h-66
l65 125h126l65 -125h-66z" />
    <glyph glyph-name="uni1EDA" unicode="&#x1eda;" horiz-adv-x="748" 
d="M328 802l62 125h81l-79 -125h-64zM374 -10q-75 0 -135 26t-101 74.5t-63 119t-22 160.5t22 160.5t63 119t101 74.5t135 26q65 0 120 -20q12 1 23.5 5t20.5 15t14.5 30.5t5.5 49.5h80q0 -48 -28.5 -80.5t-77.5 -36.5q79 -43 121 -130t42 -213q0 -90 -22 -160.5t-63 -119
t-100.5 -74.5t-135.5 -26zM374 63q55 0 98 21t73 60.5t46 96.5t16 129t-16 129t-46 96.5t-73 60.5t-98 21t-98 -21t-73 -60.5t-45.5 -96.5t-15.5 -129t15.5 -129t45.5 -96.5t73 -60.5t98 -21z" />
    <glyph glyph-name="uni1EDB" unicode="&#x1edb;" horiz-adv-x="582" 
d="M246 560l62 125h81l-79 -125h-64zM291 -10q-115 0 -179 68t-64 190q0 121 64.5 189t178.5 68q58 0 103 -18q21 4 36.5 24.5t15.5 73.5h80q0 -45 -26 -77t-71 -39q51 -31 77.5 -87t26.5 -134q0 -122 -63.5 -190t-178.5 -68zM291 58q75 0 117 49.5t42 140.5q0 90 -42 140
t-117 50t-117 -50t-42 -140q0 -91 42 -140.5t117 -49.5z" />
    <glyph glyph-name="uni1EDC" unicode="&#x1edc;" horiz-adv-x="748" 
d="M350 802l-79 125h81l62 -125h-64zM374 -10q-75 0 -135 26t-101 74.5t-63 119t-22 160.5t22 160.5t63 119t101 74.5t135 26q65 0 120 -20q12 1 23.5 5t20.5 15t14.5 30.5t5.5 49.5h80q0 -48 -28.5 -80.5t-77.5 -36.5q79 -43 121 -130t42 -213q0 -90 -22 -160.5t-63 -119
t-100.5 -74.5t-135.5 -26zM374 63q55 0 98 21t73 60.5t46 96.5t16 129t-16 129t-46 96.5t-73 60.5t-98 21t-98 -21t-73 -60.5t-45.5 -96.5t-15.5 -129t15.5 -129t45.5 -96.5t73 -60.5t98 -21z" />
    <glyph glyph-name="uni1EDD" unicode="&#x1edd;" horiz-adv-x="582" 
d="M270 560l-79 125h81l62 -125h-64zM291 -10q-115 0 -179 68t-64 190q0 121 64.5 189t178.5 68q58 0 103 -18q21 4 36.5 24.5t15.5 73.5h80q0 -45 -26 -77t-71 -39q51 -31 77.5 -87t26.5 -134q0 -122 -63.5 -190t-178.5 -68zM291 58q75 0 117 49.5t42 140.5q0 90 -42 140
t-117 50t-117 -50t-42 -140q0 -91 42 -140.5t117 -49.5z" />
    <glyph glyph-name="uni1EDE" unicode="&#x1ede;" horiz-adv-x="748" 
d="M295 888q0 40 24.5 63.5t65.5 23.5q42 0 66 -20.5t24 -55.5q0 -26 -16.5 -51.5t-49.5 -45.5h-63q33 23 53 44.5t20 47.5q0 35 -36 35t-39 -41h-49zM374 -10q-75 0 -135 26t-101 74.5t-63 119t-22 160.5t22 160.5t63 119t101 74.5t135 26q65 0 120 -20q12 1 23.5 5
t20.5 15t14.5 30.5t5.5 49.5h80q0 -48 -28.5 -80.5t-77.5 -36.5q79 -43 121 -130t42 -213q0 -90 -22 -160.5t-63 -119t-100.5 -74.5t-135.5 -26zM374 63q55 0 98 21t73 60.5t46 96.5t16 129t-16 129t-46 96.5t-73 60.5t-98 21t-98 -21t-73 -60.5t-45.5 -96.5t-15.5 -129
t15.5 -129t45.5 -96.5t73 -60.5t98 -21z" />
    <glyph glyph-name="uni1EDF" unicode="&#x1edf;" horiz-adv-x="582" 
d="M212 646q0 40 24.5 63.5t65.5 23.5q42 0 66 -20.5t24 -55.5q0 -26 -16.5 -51.5t-49.5 -45.5h-63q33 23 53 44.5t20 47.5q0 35 -36 35t-39 -41h-49zM291 -10q-115 0 -179 68t-64 190q0 121 64.5 189t178.5 68q58 0 103 -18q21 4 36.5 24.5t15.5 73.5h80q0 -45 -26 -77
t-71 -39q51 -31 77.5 -87t26.5 -134q0 -122 -63.5 -190t-178.5 -68zM291 58q75 0 117 49.5t42 140.5q0 90 -42 140t-117 50t-117 -50t-42 -140q0 -91 42 -140.5t117 -49.5z" />
    <glyph glyph-name="uni1EE0" unicode="&#x1ee0;" horiz-adv-x="748" 
d="M422 805q-18 0 -30.5 6.5t-23.5 14.5t-21.5 14.5t-23.5 6.5t-20.5 -13t-9.5 -32h-52q1 51 23.5 79.5t63.5 28.5q18 0 30.5 -6.5t23 -14t20.5 -14t24 -6.5t21.5 12.5t9.5 31.5h52q-1 -51 -24 -79.5t-63 -28.5zM374 -10q-75 0 -135 26t-101 74.5t-63 119t-22 160.5
t22 160.5t63 119t101 74.5t135 26q65 0 120 -20q12 1 23.5 5t20.5 15t14.5 30.5t5.5 49.5h80q0 -48 -28.5 -80.5t-77.5 -36.5q79 -43 121 -130t42 -213q0 -90 -22 -160.5t-63 -119t-100.5 -74.5t-135.5 -26zM374 63q55 0 98 21t73 60.5t46 96.5t16 129t-16 129t-46 96.5
t-73 60.5t-98 21t-98 -21t-73 -60.5t-45.5 -96.5t-15.5 -129t15.5 -129t45.5 -96.5t73 -60.5t98 -21z" />
    <glyph glyph-name="uni1EE1" unicode="&#x1ee1;" horiz-adv-x="582" 
d="M339 563q-18 0 -30.5 6.5t-23.5 14.5t-21.5 14.5t-23.5 6.5t-20.5 -13t-9.5 -32h-52q1 51 23.5 79.5t63.5 28.5q18 0 30.5 -6.5t23 -14t20.5 -14t24 -6.5t21.5 12.5t9.5 31.5h52q-1 -51 -24 -79.5t-63 -28.5zM291 -10q-115 0 -179 68t-64 190q0 121 64.5 189t178.5 68
q58 0 103 -18q21 4 36.5 24.5t15.5 73.5h80q0 -45 -26 -77t-71 -39q51 -31 77.5 -87t26.5 -134q0 -122 -63.5 -190t-178.5 -68zM291 58q75 0 117 49.5t42 140.5q0 90 -42 140t-117 50t-117 -50t-42 -140q0 -91 42 -140.5t117 -49.5z" />
    <glyph glyph-name="uni1EE2" unicode="&#x1ee2;" horiz-adv-x="748" 
d="M332 -70h82v-105h-82v105zM374 -10q-75 0 -135 26t-101 74.5t-63 119t-22 160.5t22 160.5t63 119t101 74.5t135 26q65 0 120 -20q12 1 23.5 5t20.5 15t14.5 30.5t5.5 49.5h80q0 -48 -28.5 -80.5t-77.5 -36.5q79 -43 121 -130t42 -213q0 -90 -22 -160.5t-63 -119
t-100.5 -74.5t-135.5 -26zM374 63q55 0 98 21t73 60.5t46 96.5t16 129t-16 129t-46 96.5t-73 60.5t-98 21t-98 -21t-73 -60.5t-45.5 -96.5t-15.5 -129t15.5 -129t45.5 -96.5t73 -60.5t98 -21z" />
    <glyph glyph-name="uni1EE3" unicode="&#x1ee3;" horiz-adv-x="582" 
d="M247 -70h82v-105h-82v105zM291 -10q-115 0 -179 68t-64 190q0 121 64.5 189t178.5 68q58 0 103 -18q21 4 36.5 24.5t15.5 73.5h80q0 -45 -26 -77t-71 -39q51 -31 77.5 -87t26.5 -134q0 -122 -63.5 -190t-178.5 -68zM291 58q75 0 117 49.5t42 140.5q0 90 -42 140t-117 50
t-117 -50t-42 -140q0 -91 42 -140.5t117 -49.5z" />
    <glyph glyph-name="uni1EE4" unicode="&#x1ee4;" horiz-adv-x="715" 
d="M315 -70h82v-105h-82v105zM547 740h81v-485q0 -125 -71.5 -195t-199.5 -70q-127 0 -198.5 70t-71.5 195v485h86v-491q0 -88 49 -137t137 -49q89 0 138.5 49t49.5 137v491z" />
    <glyph glyph-name="uni1EE5" unicode="&#x1ee5;" horiz-adv-x="572" 
d="M235 -70h82v-105h-82v105zM494 495v-495h-82v170h-2q0 -85 -43 -132.5t-120 -47.5q-83 0 -128.5 51.5t-45.5 145.5v308h82v-305q0 -63 31.5 -98t89.5 -35q65 0 100.5 44t35.5 124v270h82z" />
    <glyph glyph-name="uni1EE6" unicode="&#x1ee6;" horiz-adv-x="715" 
d="M278 888q0 40 24.5 63.5t65.5 23.5q42 0 66 -20.5t24 -55.5q0 -26 -16.5 -51.5t-49.5 -45.5h-63q33 23 53 44.5t20 47.5q0 35 -36 35t-39 -41h-49zM547 740h81v-485q0 -125 -71.5 -195t-199.5 -70q-127 0 -198.5 70t-71.5 195v485h86v-491q0 -88 49 -137t137 -49
q89 0 138.5 49t49.5 137v491z" />
    <glyph glyph-name="uni1EE7" unicode="&#x1ee7;" horiz-adv-x="572" 
d="M202 646q0 40 24.5 63.5t65.5 23.5q42 0 66 -20.5t24 -55.5q0 -26 -16.5 -51.5t-49.5 -45.5h-63q33 23 53 44.5t20 47.5q0 35 -36 35t-39 -41h-49zM494 495v-495h-82v170h-2q0 -85 -43 -132.5t-120 -47.5q-83 0 -128.5 51.5t-45.5 145.5v308h82v-305q0 -63 31.5 -98
t89.5 -35q65 0 100.5 44t35.5 124v270h82z" />
    <glyph glyph-name="uni1EE8" unicode="&#x1ee8;" horiz-adv-x="715" 
d="M312 802l62 125h81l-79 -125h-64zM547 740h9q13 0 26 3t23.5 13.5t16.5 30.5t6 53h80q0 -41 -21.5 -71t-58.5 -41v-473q0 -125 -71.5 -195t-199.5 -70q-127 0 -198.5 70t-71.5 195v485h86v-491q0 -88 49 -137t137 -49q89 0 138.5 49t49.5 137v491z" />
    <glyph glyph-name="uni1EE9" unicode="&#x1ee9;" horiz-adv-x="572" 
d="M242 560l62 125h81l-79 -125h-64zM418 495q13 0 26 3t23.5 13.5t16.5 30.5t6 53h80q0 -40 -20.5 -70t-55.5 -41v-484h-82v170h-2q0 -85 -43 -132.5t-120 -47.5q-83 0 -128.5 51.5t-45.5 145.5v308h82v-305q0 -63 31.5 -98t89.5 -35q65 0 100.5 44t35.5 124v270h6z" />
    <glyph glyph-name="uni1EEA" unicode="&#x1eea;" horiz-adv-x="715" 
d="M356 802l-79 125h81l62 -125h-64zM547 740h9q13 0 26 3t23.5 13.5t16.5 30.5t6 53h80q0 -41 -21.5 -71t-58.5 -41v-473q0 -125 -71.5 -195t-199.5 -70q-127 0 -198.5 70t-71.5 195v485h86v-491q0 -88 49 -137t137 -49q89 0 138.5 49t49.5 137v491z" />
    <glyph glyph-name="uni1EEB" unicode="&#x1eeb;" horiz-adv-x="572" 
d="M270 560l-79 125h81l62 -125h-64zM418 495q13 0 26 3t23.5 13.5t16.5 30.5t6 53h80q0 -40 -20.5 -70t-55.5 -41v-484h-82v170h-2q0 -85 -43 -132.5t-120 -47.5q-83 0 -128.5 51.5t-45.5 145.5v308h82v-305q0 -63 31.5 -98t89.5 -35q65 0 100.5 44t35.5 124v270h6z" />
    <glyph glyph-name="uni1EEC" unicode="&#x1eec;" horiz-adv-x="715" 
d="M278 888q0 40 24.5 63.5t65.5 23.5q42 0 66 -20.5t24 -55.5q0 -26 -16.5 -51.5t-49.5 -45.5h-63q33 23 53 44.5t20 47.5q0 35 -36 35t-39 -41h-49zM547 740h9q13 0 26 3t23.5 13.5t16.5 30.5t6 53h80q0 -41 -21.5 -71t-58.5 -41v-473q0 -125 -71.5 -195t-199.5 -70
q-127 0 -198.5 70t-71.5 195v485h86v-491q0 -88 49 -137t137 -49q89 0 138.5 49t49.5 137v491z" />
    <glyph glyph-name="uni1EED" unicode="&#x1eed;" horiz-adv-x="572" 
d="M202 646q0 40 24.5 63.5t65.5 23.5q42 0 66 -20.5t24 -55.5q0 -26 -16.5 -51.5t-49.5 -45.5h-63q33 23 53 44.5t20 47.5q0 35 -36 35t-39 -41h-49zM418 495q13 0 26 3t23.5 13.5t16.5 30.5t6 53h80q0 -40 -20.5 -70t-55.5 -41v-484h-82v170h-2q0 -85 -43 -132.5
t-120 -47.5q-83 0 -128.5 51.5t-45.5 145.5v308h82v-305q0 -63 31.5 -98t89.5 -35q65 0 100.5 44t35.5 124v270h6z" />
    <glyph glyph-name="uni1EEE" unicode="&#x1eee;" horiz-adv-x="715" 
d="M405 805q-18 0 -30.5 6.5t-23.5 14.5t-21.5 14.5t-23.5 6.5t-20.5 -13t-9.5 -32h-52q1 51 23.5 79.5t63.5 28.5q18 0 30.5 -6.5t23 -14t20.5 -14t24 -6.5t21.5 12.5t9.5 31.5h52q-1 -51 -24 -79.5t-63 -28.5zM547 740h9q13 0 26 3t23.5 13.5t16.5 30.5t6 53h80
q0 -41 -21.5 -71t-58.5 -41v-473q0 -125 -71.5 -195t-199.5 -70q-127 0 -198.5 70t-71.5 195v485h86v-491q0 -88 49 -137t137 -49q89 0 138.5 49t49.5 137v491z" />
    <glyph glyph-name="uni1EEF" unicode="&#x1eef;" horiz-adv-x="572" 
d="M328 563q-18 0 -30.5 6.5t-23.5 14.5t-21.5 14.5t-23.5 6.5t-20.5 -13t-9.5 -32h-52q1 51 23.5 79.5t63.5 28.5q18 0 30.5 -6.5t23 -14t20.5 -14t24 -6.5t21.5 12.5t9.5 31.5h52q-1 -51 -24 -79.5t-63 -28.5zM418 495q13 0 26 3t23.5 13.5t16.5 30.5t6 53h80
q0 -40 -20.5 -70t-55.5 -41v-484h-82v170h-2q0 -85 -43 -132.5t-120 -47.5q-83 0 -128.5 51.5t-45.5 145.5v308h82v-305q0 -63 31.5 -98t89.5 -35q65 0 100.5 44t35.5 124v270h6z" />
    <glyph glyph-name="uni1EF0" unicode="&#x1ef0;" horiz-adv-x="715" 
d="M315 -70h82v-105h-82v105zM547 740h9q13 0 26 3t23.5 13.5t16.5 30.5t6 53h80q0 -41 -21.5 -71t-58.5 -41v-473q0 -125 -71.5 -195t-199.5 -70q-127 0 -198.5 70t-71.5 195v485h86v-491q0 -88 49 -137t137 -49q89 0 138.5 49t49.5 137v491z" />
    <glyph glyph-name="uni1EF1" unicode="&#x1ef1;" horiz-adv-x="572" 
d="M235 -70h82v-105h-82v105zM418 495q13 0 26 3t23.5 13.5t16.5 30.5t6 53h80q0 -40 -20.5 -70t-55.5 -41v-484h-82v170h-2q0 -85 -43 -132.5t-120 -47.5q-83 0 -128.5 51.5t-45.5 145.5v308h82v-305q0 -63 31.5 -98t89.5 -35q65 0 100.5 44t35.5 124v270h6z" />
    <glyph glyph-name="Ygrave" unicode="&#x1ef2;" horiz-adv-x="660" 
d="M665 740l-374 -740h-95l138 277h-83l-235 463h101l226 -455h2l225 455h95zM330 802l-79 125h81l62 -125h-64z" />
    <glyph glyph-name="ygrave" unicode="&#x1ef3;" horiz-adv-x="526" 
d="M502 495l-234 -725h-88l75 230h-70l-159 495h88l149 -489h2l149 489h88zM250 560l-79 125h81l62 -125h-64z" />
    <glyph glyph-name="uni1EF4" unicode="&#x1ef4;" horiz-adv-x="660" 
d="M199 -70h82v-105h-82v105zM665 740l-374 -740h-95l138 277h-83l-235 463h101l226 -455h2l225 455h95z" />
    <glyph glyph-name="uni1EF5" unicode="&#x1ef5;" horiz-adv-x="526" 
d="M385 -70h82v-105h-82v105zM502 495l-234 -725h-88l75 230h-70l-159 495h88l149 -489h2l149 489h88z" />
    <glyph glyph-name="uni1EF6" unicode="&#x1ef6;" horiz-adv-x="660" 
d="M248 888q0 40 24.5 63.5t65.5 23.5q42 0 66 -20.5t24 -55.5q0 -26 -16.5 -51.5t-49.5 -45.5h-63q33 23 53 44.5t20 47.5q0 35 -36 35t-39 -41h-49zM665 740l-374 -740h-95l138 277h-83l-235 463h101l226 -455h2l225 455h95z" />
    <glyph glyph-name="uni1EF7" unicode="&#x1ef7;" horiz-adv-x="526" 
d="M190 646q0 40 24.5 63.5t65.5 23.5q42 0 66 -20.5t24 -55.5q0 -26 -16.5 -51.5t-49.5 -45.5h-63q33 23 53 44.5t20 47.5q0 35 -36 35t-39 -41h-49zM502 495l-234 -725h-88l75 230h-70l-159 495h88l149 -489h2l149 489h88z" />
    <glyph glyph-name="uni1EF8" unicode="&#x1ef8;" horiz-adv-x="660" 
d="M386 805q-18 0 -30.5 6.5t-23.5 14.5t-21.5 14.5t-23.5 6.5t-20.5 -13t-9.5 -32h-52q1 51 23.5 79.5t63.5 28.5q18 0 30.5 -6.5t23 -14t20.5 -14t24 -6.5t21.5 12.5t9.5 31.5h52q-1 -51 -24 -79.5t-63 -28.5zM665 740l-374 -740h-95l138 277h-83l-235 463h101l226 -455h2
l225 455h95z" />
    <glyph glyph-name="uni1EF9" unicode="&#x1ef9;" horiz-adv-x="526" 
d="M313 563q-18 0 -30.5 6.5t-23.5 14.5t-21.5 14.5t-23.5 6.5t-20.5 -13t-9.5 -32h-52q1 51 23.5 79.5t63.5 28.5q18 0 30.5 -6.5t23 -14t20.5 -14t24 -6.5t21.5 12.5t9.5 31.5h52q-1 -51 -24 -79.5t-63 -28.5zM502 495l-234 -725h-88l75 230h-70l-159 495h88l149 -489h2
l149 489h88z" />
    <glyph glyph-name="uni1EFA" unicode="&#x1efa;" horiz-adv-x="0" 
d="M418 495q13 0 26 3t23.5 13.5t16.5 30.5t6 53h80q0 -27 -10 -50t-28 -39t-43.5 -23.5t-56.5 -3.5z" />
    <glyph glyph-name="endash" unicode="&#x2013;" horiz-adv-x="582" 
d="M514 271v-39h-446v39h446z" />
    <glyph glyph-name="emdash" unicode="&#x2014;" horiz-adv-x="866" 
d="M798 271v-39h-730v39h730z" />
    <glyph glyph-name="quoteleft" unicode="&#x2018;" horiz-adv-x="218" 
d="M157 691q-41 -11 -65 -35.5t-29 -58.5h94v-95h-100v81q0 60 26 102.5t74 59.5v-54v0z" />
    <glyph glyph-name="quoteright" unicode="&#x2019;" horiz-adv-x="212" 
d="M163 740v-81q0 -60 -26 -102.5t-74 -59.5v54q41 11 65 35.5t29 58.5h-94v95h100z" />
    <glyph glyph-name="quotesinglbase" unicode="&#x201a;" horiz-adv-x="226" 
d="M168 95v-81q0 -60 -26 -102.5t-74 -59.5v54q41 11 65 35.5t29 58.5h-94v95h100z" />
    <glyph glyph-name="quotedblleft" unicode="&#x201c;" horiz-adv-x="368" 
d="M57 583q0 60 26 102.5t74 59.5v-54q-41 -11 -65 -35.5t-29 -58.5h94v-95h-100v81zM307 691q-41 -11 -65 -35.5t-29 -58.5h94v-95h-100v81q0 60 26 102.5t74 59.5v-54z" />
    <glyph glyph-name="quotedblright" unicode="&#x201d;" horiz-adv-x="362" 
d="M63 740h100v-81q0 -60 -26 -102.5t-74 -59.5v54q41 11 65 35.5t29 58.5h-94v95zM313 740v-81q0 -60 -26 -102.5t-74 -59.5v54q41 11 65 35.5t29 58.5h-94v95h100z" />
    <glyph glyph-name="quotedblbase" unicode="&#x201e;" horiz-adv-x="376" 
d="M68 95h100v-81q0 -60 -26 -102.5t-74 -59.5v54q41 11 65 35.5t29 58.5h-94v95zM318 95v-81q0 -60 -26 -102.5t-74 -59.5v54q41 11 65 35.5t29 58.5h-94v95h100z" />
    <glyph glyph-name="dagger" unicode="&#x2020;" horiz-adv-x="382" 
d="M330 655v-47h-113v-254h-54v163q0 33 13 56.5t36 32.5v2h-159v47h113v115h53v-115h111z" />
    <glyph glyph-name="daggerdbl" unicode="&#x2021;" horiz-adv-x="382" 
d="M217 608v-92h113v-47h-113v-115h-54v24q0 33 13 56.5t36 32.5v2h-159v47h110v1q0 33 13 56.5t36 32.5v2h-159v47h113v115h53v-115h111v-47h-113z" />
    <glyph glyph-name="bullet" unicode="&#x2022;" horiz-adv-x="350" 
d="M89 375h172v-159h-172v159z" />
    <glyph glyph-name="ellipsis" unicode="&#x2026;" horiz-adv-x="615" 
d="M165 95v-95h-100v95h100zM357 95v-95h-100v95h100zM549 95v-95h-100v95h100z" />
    <glyph glyph-name="perthousand" unicode="&#x2030;" horiz-adv-x="1037" 
d="M580 750l33 -25l-478 -735l-33 25zM181 360q-66 0 -103 48.5t-37 136.5t37 136.5t103 48.5t103 -48.5t37 -136.5t-37 -136.5t-103 -48.5zM181 413q35 0 54 34.5t19 97.5t-19 97.5t-54 34.5t-54.5 -34.5t-19.5 -97.5t19.5 -97.5t54.5 -34.5zM535 -10q-66 0 -103 48.5
t-37 136.5t37 136.5t103 48.5q67 0 104 -48.5t37 -136.5t-37 -136.5t-104 -48.5zM865 -10q-66 0 -103 48.5t-37 136.5t37 136.5t103 48.5t103 -48.5t37 -136.5t-37 -136.5t-103 -48.5zM535 43q35 0 54.5 34.5t19.5 97.5t-19.5 97.5t-54.5 34.5t-54 -34.5t-19 -97.5t19 -97.5
t54 -34.5zM865 43q34 0 53.5 34.5t19.5 97.5t-19.5 97.5t-53.5 34.5q-35 0 -54.5 -34.5t-19.5 -97.5t19.5 -97.5t54.5 -34.5z" />
    <glyph glyph-name="guilsinglleft" unicode="&#x2039;" horiz-adv-x="270" 
d="M169 443h50l-126 -193l126 -193h-50l-128 193z" />
    <glyph glyph-name="guilsinglright" unicode="&#x203a;" horiz-adv-x="270" 
d="M101 57h-50l126 193l-126 193h50l128 -193z" />
    <glyph glyph-name="fraction" unicode="&#x2044;" horiz-adv-x="210" 
d="M328 750l33 -25l-478 -735l-33 25z" />
    <glyph glyph-name="uni2070" unicode="&#x2070;" horiz-adv-x="397" 
d="M198 352q-78 0 -121.5 60t-43.5 168t43.5 168t121.5 60t122 -60t44 -168t-44 -168t-122 -60zM198 406q48 0 73.5 46t25.5 128t-25.5 128t-73.5 46q-46 0 -72 -46t-26 -128t26 -128t72 -46z" />
    <glyph glyph-name="uni2074" unicode="&#x2074;" horiz-adv-x="376" 
d="M355 468h-58v-110h-66v110h-213v56l155 278h124v-282h58v-52zM80 522v-2h153v276h-2z" />
    <glyph glyph-name="uni2075" unicode="&#x2075;" horiz-adv-x="371" 
d="M184 352q-66 0 -107 34.5t-49 96.5h65q6 -36 30 -56.5t61 -20.5q45 0 69.5 25.5t24.5 71.5q0 47 -24 72.5t-69 25.5q-35 0 -57.5 -19t-31.5 -49l-64 8l35 261h245v-52h-187l-30 -206h2q8 51 40 79t81 28q60 0 94 -38t34 -106q0 -73 -42.5 -114t-119.5 -41z" />
    <glyph glyph-name="uni2076" unicode="&#x2076;" horiz-adv-x="388" 
d="M226 644q63 0 98 -36t35 -102q0 -73 -44 -113.5t-118 -40.5q-81 0 -123 55t-42 162q0 113 45.5 176t127.5 63q63 0 101 -34.5t43 -96.5h-64q-4 37 -24.5 57t-55.5 20q-51 0 -79 -47.5t-28 -133.5v-44h2q0 54 33 84.5t93 30.5zM195 406q45 0 70.5 25.5t25.5 70.5
q0 43 -25.5 66.5t-70.5 23.5t-69.5 -22.5t-24.5 -64.5q0 -46 26 -72.5t68 -26.5z" />
    <glyph glyph-name="uni2077" unicode="&#x2077;" horiz-adv-x="332" 
d="M319 802v-49q-68 -19 -105.5 -111t-37.5 -237v-47h-69v36q0 158 49.5 250.5t138.5 103.5v2h-283v52h307z" />
    <glyph glyph-name="uni2078" unicode="&#x2078;" horiz-adv-x="384" 
d="M230 612q59 -8 91 -40.5t32 -86.5q0 -63 -42.5 -98t-118.5 -35t-118 35t-42 98q0 54 32 86.5t90 40.5v2q-51 0 -79.5 23.5t-28.5 65.5q0 50 38.5 77.5t107.5 27.5t107.5 -27.5t38.5 -77.5q0 -42 -28.5 -65.5t-79.5 -23.5v-2zM113 682q0 -35 21 -54t58 -19q38 0 58.5 19
t20.5 54q0 34 -20.5 53t-58.5 19q-37 0 -58 -19t-21 -53zM192 406q44 0 68 20.5t24 58.5t-24 59t-68 21t-68.5 -21t-24.5 -59t24.5 -58.5t68.5 -20.5z" />
    <glyph glyph-name="uni2079" unicode="&#x2079;" horiz-adv-x="388" 
d="M193 808q82 0 122.5 -55.5t40.5 -161.5q0 -113 -45.5 -176t-127.5 -63q-63 0 -101 38t-43 105h64q4 -42 24.5 -65.5t55.5 -23.5q51 0 79 47.5t28 133.5v50h-2q0 -51 -33.5 -80t-92.5 -29q-63 0 -98 34.5t-35 97.5q0 70 44.5 109t119.5 39zM193 580q45 0 69.5 21.5
t24.5 59.5q0 44 -26 68.5t-68 24.5q-45 0 -70.5 -23.5t-25.5 -66.5q0 -41 25.5 -62.5t70.5 -21.5z" />
    <glyph glyph-name="uni2080" unicode="&#x2080;" horiz-adv-x="397" 
d="M198 -116q-78 0 -121.5 60t-43.5 168t43.5 168t121.5 60t122 -60t44 -168t-44 -168t-122 -60zM198 -62q48 0 73.5 46t25.5 128t-25.5 128t-73.5 46q-46 0 -72 -46t-26 -128t26 -128t72 -46z" />
    <glyph glyph-name="uni2081" unicode="&#x2081;" horiz-adv-x="230" 
d="M170 334v-444h-66v423h-2q0 -47 -22.5 -72.5t-62.5 -25.5v57q41 0 64 16.5t23 45.5h66z" />
    <glyph glyph-name="uni2082" unicode="&#x2082;" horiz-adv-x="371" 
d="M343 -58v-52h-315v49q111 35 172.5 101.5t61.5 151.5q0 45 -21 69.5t-58 24.5q-38 0 -61 -28.5t-25 -79.5h-64q5 77 44 119.5t107 42.5q71 0 109.5 -39t38.5 -111q0 -99 -73.5 -164t-206.5 -82v-2h291z" />
    <glyph glyph-name="uni2083" unicode="&#x2083;" horiz-adv-x="369" 
d="M182 141q73 0 114 -33t41 -92q0 -63 -42 -97.5t-117 -34.5q-69 0 -108.5 38t-43.5 107h63q2 -43 25 -67.5t64 -24.5q43 0 67 20.5t24 58.5q0 36 -25 57t-70 21h-12v48q45 5 69.5 25t24.5 52t-20.5 50t-57.5 18q-36 0 -57.5 -24.5t-23.5 -68.5h-63q5 69 44 107.5t106 38.5
q66 0 103 -27t37 -74q0 -45 -38 -70.5t-107 -25.5v-2h3v0z" />
    <glyph glyph-name="uni2084" unicode="&#x2084;" horiz-adv-x="376" 
d="M356 0h-58v-110h-66v110h-213v56l155 278h124v-282h58v-52zM81 54v-2h153v276h-2z" />
    <glyph glyph-name="uni2085" unicode="&#x2085;" horiz-adv-x="371" 
d="M184 -116q-66 0 -107 34.5t-49 96.5h65q6 -36 30 -56.5t61 -20.5q45 0 69.5 25.5t24.5 71.5q0 47 -24 72.5t-69 25.5q-35 0 -57.5 -19t-31.5 -49l-64 8l35 261h245v-52h-187l-30 -206h2q8 51 40 79t81 28q60 0 94 -38t34 -106q0 -73 -42.5 -114t-119.5 -41z" />
    <glyph glyph-name="uni2086" unicode="&#x2086;" horiz-adv-x="388" 
d="M226 176q63 0 98 -36t35 -102q0 -73 -44 -113.5t-118 -40.5q-81 0 -123 55t-42 162q0 113 45.5 176t127.5 63q63 0 101 -34.5t43 -96.5h-64q-4 37 -24.5 57t-55.5 20q-51 0 -79 -47.5t-28 -133.5v-44h2q0 54 33 84.5t93 30.5zM195 -62q45 0 70.5 25.5t25.5 70.5
q0 43 -25.5 66.5t-70.5 23.5t-69.5 -22.5t-24.5 -64.5q0 -46 26 -72.5t68 -26.5z" />
    <glyph glyph-name="uni2087" unicode="&#x2087;" horiz-adv-x="332" 
d="M320 334v-49q-68 -19 -105.5 -111t-37.5 -237v-47h-69v36q0 158 49.5 250.5t138.5 103.5v2h-283v52h307z" />
    <glyph glyph-name="uni2088" unicode="&#x2088;" horiz-adv-x="384" 
d="M230 144q59 -8 91 -40.5t32 -86.5q0 -63 -42.5 -98t-118.5 -35t-118 35t-42 98q0 54 32 86.5t90 40.5v2q-51 0 -79.5 23.5t-28.5 65.5q0 50 38.5 77.5t107.5 27.5t107.5 -27.5t38.5 -77.5q0 -42 -28.5 -65.5t-79.5 -23.5v-2zM113 214q0 -35 21 -54t58 -19q38 0 58.5 19
t20.5 54q0 34 -20.5 53t-58.5 19q-37 0 -58 -19t-21 -53zM192 -62q44 0 68 20.5t24 58.5t-24 59t-68 21t-68.5 -21t-24.5 -59t24.5 -58.5t68.5 -20.5z" />
    <glyph glyph-name="uni2089" unicode="&#x2089;" horiz-adv-x="388" 
d="M193 340q82 0 122.5 -55.5t40.5 -161.5q0 -113 -45.5 -176t-127.5 -63q-63 0 -101 38t-43 105h64q4 -42 24.5 -65.5t55.5 -23.5q51 0 79 47.5t28 133.5v50h-2q0 -51 -33.5 -80t-92.5 -29q-63 0 -98 34.5t-35 97.5q0 70 44.5 109t119.5 39zM193 112q45 0 69.5 21.5
t24.5 59.5q0 44 -26 68.5t-68 24.5q-45 0 -70.5 -23.5t-25.5 -66.5q0 -41 25.5 -62.5t70.5 -21.5z" />
    <glyph glyph-name="Euro" unicode="&#x20ac;" horiz-adv-x="652" 
d="M621 71q-23 -20 -49.5 -35t-55 -25t-57 -15.5t-54.5 -5.5q-129 0 -207.5 79t-95.5 224h-67v43h64q-1 8 -1 16.5v17.5v19.5t1 18.5h-64v43h68q17 143 95.5 221t206.5 78q53 0 106.5 -15t93.5 -43l-37 -64q-33 25 -76.5 37t-86.5 12q-88 0 -143 -58.5t-70 -166.5h281
l-24 -44h-262q-1 -9 -1 -18.5v-19.5v-16.5t1 -16.5h224l-24 -44h-196q14 -110 69.5 -170t144.5 -60q42 0 91 17t88 52z" />
    <glyph glyph-name="trademark" unicode="&#x2122;" horiz-adv-x="673" 
d="M29 770h217v-30h-89v-266h-38v266h-90v30zM602 474h-37l-9 291h-2l-83 -291h-67l-79 291h-2l-9 -291h-34l9 296h72l77 -291h2l81 291h72z" />
    <glyph glyph-name="oneeighth" unicode="&#x215b;" horiz-adv-x="811" 
d="M121 731q0 -47 -22.5 -72.5t-62.5 -25.5v57q41 0 64 16.5t23 45.5h66v-444h-66v423h-2zM586 725l-478 -735l-33 25l478 735zM649 254q59 -8 91 -40.5t32 -86.5q0 -63 -42.5 -98t-118.5 -35t-118 35t-42 98q0 54 32 86.5t90 40.5v2q-51 0 -79.5 23.5t-28.5 65.5
q0 50 38.5 77.5t107.5 27.5t107.5 -27.5t38.5 -77.5q0 -42 -28.5 -65.5t-79.5 -23.5v-2zM532 324q0 -35 21 -54t58 -19q38 0 58.5 19t20.5 54q0 34 -20.5 53t-58.5 19q-37 0 -58 -19t-21 -53zM611 48q44 0 68 20.5t24 58.5t-24 59t-68 21t-68.5 -21t-24.5 -59t24.5 -58.5
t68.5 -20.5z" />
    <glyph glyph-name="threeeighths" unicode="&#x215c;" horiz-adv-x="944" 
d="M348 434q0 -63 -42 -97.5t-117 -34.5q-69 0 -108.5 38t-43.5 107h63q2 -43 25 -67.5t64 -24.5q43 0 67 20.5t24 58.5q0 36 -25 57t-70 21h-12v48q45 5 69.5 25t24.5 52t-20.5 50t-57.5 18q-36 0 -57.5 -24.5t-23.5 -68.5h-63q5 69 44 107.5t106 38.5q66 0 103 -27t37 -74
q0 -45 -38 -70.5t-107 -25.5v-2h3q73 0 114 -33t41 -92zM719 725l-478 -735l-33 25l478 735zM782 254q59 -8 91 -40.5t32 -86.5q0 -63 -42.5 -98t-118.5 -35t-118 35t-42 98q0 54 32 86.5t90 40.5v2q-51 0 -79.5 23.5t-28.5 65.5q0 50 38.5 77.5t107.5 27.5t107.5 -27.5
t38.5 -77.5q0 -42 -28.5 -65.5t-79.5 -23.5v-2zM665 324q0 -35 21 -54t58 -19q38 0 58.5 19t20.5 54q0 34 -20.5 53t-58.5 19q-37 0 -58 -19t-21 -53zM744 48q44 0 68 20.5t24 58.5t-24 59t-68 21t-68.5 -21t-24.5 -59t24.5 -58.5t68.5 -20.5z" />
    <glyph glyph-name="fiveeighths" unicode="&#x215d;" horiz-adv-x="949" 
d="M356 457q0 -73 -42.5 -114t-119.5 -41q-66 0 -107 34.5t-49 96.5h65q6 -36 30 -56.5t61 -20.5q45 0 69.5 25.5t24.5 71.5q0 47 -24 72.5t-69 25.5q-35 0 -57.5 -19t-31.5 -49l-64 8l35 261h245v-52h-187l-30 -206h2q8 51 40 79t81 28q60 0 94 -38t34 -106zM724 725
l-478 -735l-33 25l478 735zM787 254q59 -8 91 -40.5t32 -86.5q0 -63 -42.5 -98t-118.5 -35t-118 35t-42 98q0 54 32 86.5t90 40.5v2q-51 0 -79.5 23.5t-28.5 65.5q0 50 38.5 77.5t107.5 27.5t107.5 -27.5t38.5 -77.5q0 -42 -28.5 -65.5t-79.5 -23.5v-2zM670 324
q0 -35 21 -54t58 -19q38 0 58.5 19t20.5 54q0 34 -20.5 53t-58.5 19q-37 0 -58 -19t-21 -53zM749 48q44 0 68 20.5t24 58.5t-24 59t-68 21t-68.5 -21t-24.5 -59t24.5 -58.5t68.5 -20.5z" />
    <glyph glyph-name="seveneighths" unicode="&#x215e;" horiz-adv-x="923" 
d="M122 344q0 158 49.5 250.5t138.5 103.5v2h-283v52h307v-49q-68 -19 -105.5 -111t-37.5 -237v-47h-69v36zM692 725l-478 -735l-33 25l478 735zM755 254q59 -8 91 -40.5t32 -86.5q0 -63 -42.5 -98t-118.5 -35t-118 35t-42 98q0 54 32 86.5t90 40.5v2q-51 0 -79.5 23.5
t-28.5 65.5q0 50 38.5 77.5t107.5 27.5t107.5 -27.5t38.5 -77.5q0 -42 -28.5 -65.5t-79.5 -23.5v-2zM638 324q0 -35 21 -54t58 -19q38 0 58.5 19t20.5 54q0 34 -20.5 53t-58.5 19q-37 0 -58 -19t-21 -53zM717 48q44 0 68 20.5t24 58.5t-24 59t-68 21t-68.5 -21t-24.5 -59
t24.5 -58.5t68.5 -20.5z" />
    <glyph glyph-name="partialdiff" unicode="&#x2202;" horiz-adv-x="649" 
d="M318 750q66 0 118 -26t88.5 -74.5t55.5 -119t19 -159.5q0 -90 -22.5 -160.5t-65 -119.5t-104 -75t-139.5 -26q-111 0 -172 45.5t-61 126.5q0 49 32.5 88t93.5 66t149.5 41.5t201.5 14.5q0 145 -52 225t-146 80q-69 0 -111.5 -34.5t-50.5 -97.5h-85q12 97 78 151t173 54z
M269 63q115 0 178.5 80.5t64.5 226.5q-92 0 -164 -13t-122 -38t-76.5 -60.5t-26.5 -81.5q0 -54 38.5 -84t107.5 -30z" />
    <glyph glyph-name="emptyset" unicode="&#x2205;" horiz-adv-x="628" 
d="M520 426q54 -68 54 -174q0 -124 -68 -192.5t-191 -68.5q-107 0 -173 52l-40 -40l-34 33l40 41q-54 66 -54 175q0 122 68.5 190t192.5 68q53 0 95.5 -13t74.5 -37l39 39l35 -34zM101 252q0 -87 40 -142l311 316q-53 41 -138 41q-101 0 -157 -56.5t-56 -158.5zM314 34
q100 0 156 57.5t56 160.5q0 85 -40 139l-312 -315q56 -42 140 -42z" />
    <glyph glyph-name="product" unicode="&#x220f;" horiz-adv-x="834" 
d="M811 696h-140v-926h-82v926h-343v-926h-82v926h-140v74h787v-74z" />
    <glyph glyph-name="summation" unicode="&#x2211;" horiz-adv-x="659" 
d="M631 -160v-70h-592v158l462 367v2l-451 315v158h561v-70l-549 1v-2l450 -311v-185l-461 -362v-2z" />
    <glyph glyph-name="minus" unicode="&#x2212;" horiz-adv-x="521" 
d="M69 272h383v-40h-383v40z" />
    <glyph glyph-name="radical" unicode="&#x221a;" horiz-adv-x="654" 
d="M654 770l-279 -880h-160l-92 335h-113v70h185l98 -399h2l266 874h93z" />
    <glyph glyph-name="infinity" unicode="&#x221e;" horiz-adv-x="803" 
d="M564 445q88 0 136.5 -51t48.5 -143t-48.5 -143t-136.5 -51q-62 0 -103.5 28.5t-58.5 81.5q-18 -53 -59.5 -81.5t-103.5 -28.5q-88 0 -136.5 51t-48.5 143t48.5 143t136.5 51q62 0 103.5 -28.5t59.5 -81.5q17 53 58.5 81.5t103.5 28.5zM239 97q66 0 102.5 40.5t36.5 113.5
t-36.5 113.5t-102.5 40.5t-102.5 -40.5t-36.5 -113.5t36.5 -113.5t102.5 -40.5zM564 97q66 0 102.5 40.5t36.5 113.5t-36.5 113.5t-102.5 40.5t-102.5 -40.5t-36.5 -113.5t36.5 -113.5t102.5 -40.5z" />
    <glyph glyph-name="integral" unicode="&#x222b;" horiz-adv-x="465" 
d="M192 592q0 90 46 139t130 49q65 0 109 -23l-19 -62q-35 17 -81 17q-51 0 -77 -30.5t-26 -84.5v-649q0 -90 -46.5 -139t-130.5 -49q-65 0 -108 23l18 62q35 -17 81 -17q51 0 77.5 30.5t26.5 84.5v649v0z" />
    <glyph glyph-name="approxequal" unicode="&#x2248;" horiz-adv-x="594" 
d="M410 277q-42 0 -70.5 12t-52 26t-47.5 26t-58 12q-32 0 -51.5 -21t-22.5 -59h-39q1 58 31 90t85 32q42 0 70.5 -12t52 -26t47.5 -26t58 -12q32 0 51.5 21t22.5 59h38q-1 -58 -31 -90t-84 -32zM410 105q-42 0 -70.5 12t-52 26t-47.5 26t-58 12q-32 0 -51.5 -21t-22.5 -59
h-39q1 58 31 90t85 32q42 0 70.5 -12t52 -26t47.5 -26t58 -12q32 0 51.5 21t22.5 59h38q-1 -58 -31 -90t-84 -32z" />
    <glyph glyph-name="notequal" unicode="&#x2260;" horiz-adv-x="521" 
d="M298 303l-30 -102h184v-40h-195l-47 -161h-44l47 161h-144v40h155l30 102h-185v40h197l44 152h44l-44 -152h142v-40h-154z" />
    <glyph glyph-name="lessequal" unicode="&#x2264;" horiz-adv-x="512" 
d="M445 143l-382 140v76l382 141v-44l-376 -135v-2l376 -132v-44zM446 52v-40h-383v40h383z" />
    <glyph glyph-name="greaterequal" unicode="&#x2265;" horiz-adv-x="512" 
d="M449 359v-76l-382 -140v44l376 132v2l-376 135v44zM66 52h383v-40h-383v40z" />
    <glyph glyph-name="lozenge" unicode="&#x25ca;" horiz-adv-x="495" 
d="M445 304v-113l-148 -191h-99l-147 191v113l147 191h99zM439 249l-190 242h-2l-190 -242v-2l190 -243h2l190 243v2z" />
    <glyph glyph-name="uniF8FF" unicode="&#xf8ff;" horiz-adv-x="1274" 
d="M846 -3q-7 -7 -17 -7q-14 0 -17 7.5t-3 15.5v324l-339 -340q-7 -7 -17 -7q-14 0 -17 7.5t-3 15.5v324l-340 -340q-7 -7 -17 -7q-8 0 -12.5 5t-4.5 13q0 10 5 15l342 341h-324q-8 0 -15.5 3t-7.5 16q0 5 2 8.5t5 7.5l340 342h-327q-20 0 -20 19v1q0 19 20 19h370
q8 0 15.5 -3t7.5 -17q0 -10 -8 -17l-341 -340h330q8 0 14 -6t6 -14v-327l339 338q7 8 17 8q13 0 15.5 -7.5t2.5 -14.5v-324l340 338q6 8 16 8q8 0 12.5 -5.5t4.5 -13.5q0 -3 -1 -7t-5 -7z" />
    <glyph glyph-name="Jacute" horiz-adv-x="552" 
d="M557 925l-177 -89l-25 46l174 94zM378 211v529h86v-523q0 -108 -57 -167.5t-160 -59.5q-97 0 -155 67t-66 188h81q7 -86 44.5 -134t97.5 -48q61 0 95 39t34 109z" />
    <glyph glyph-name="i.loclTRK" horiz-adv-x="237" 
d="M78 710h82v-105h-82v105zM160 495v-495h-82v495h82z" />
    <glyph glyph-name="jacute" horiz-adv-x="237" 
d="M255 680l-177 -89l-25 46l174 94zM160 495v-725h-82v725h82z" />
    <glyph glyph-name="f_b" horiz-adv-x="975" 
d="M292 712q-55 0 -83 -27.5t-28 -77.5v-112h175v-61h-169v-434h-82v434h-80v61h152v2q-36 20 -57 53t-21 75q0 74 46.5 114.5t129.5 40.5q54 0 92 -19l-12 -63q-27 14 -63 14zM715 505q100 0 155.5 -68t55.5 -189q0 -122 -55.5 -190t-155.5 -68q-86 0 -134 46t-48 127h-2
v-163h-82v770h82v-437h2q0 81 48 126.5t134 45.5zM683 58q75 0 117 49.5t42 140.5q0 90 -42 140t-117 50t-117 -51t-42 -139t42 -139t117 -51z" />
    <glyph glyph-name="f_f_j" horiz-adv-x="918" 
d="M842 -230h-82v664h-253v-434h-82v434h-238v-434h-82v434h-80v61h152v2q-36 20 -57 53t-21 75q0 74 46.5 114.5t129.5 40.5q54 0 92 -19l-12 -63q-27 14 -63 14q-55 0 -83 -27.5t-28 -77.5v-112h316v2q-36 20 -57 53t-21 75q0 74 46.5 114.5t129.5 40.5q54 0 92 -19
l-12 -63q-27 14 -63 14q-55 0 -83 -27.5t-28 -77.5v-112h341v-725zM842 690v-105h-82v105h82z" />
    <glyph glyph-name="f_f_t" horiz-adv-x="1027" 
d="M837 434v-289q0 -42 23.5 -64.5t66.5 -22.5q39 0 71 16v-64q-20 -9 -45.5 -14.5t-51.5 -5.5q-69 0 -107.5 39t-38.5 111v294h-248v-434h-82v434h-238v-434h-82v434h-80v61h152v2q-36 20 -57 53t-21 75q0 74 46.5 114.5t129.5 40.5q54 0 92 -19l-12 -63q-27 14 -63 14
q-55 0 -83 -27.5t-28 -77.5v-112h316v2q-36 20 -57 53t-21 75q0 74 46.5 114.5t129.5 40.5q54 0 92 -19l-12 -63q-27 14 -63 14q-55 0 -83 -27.5t-28 -77.5v-112h260v172h82v-42q0 -42 -21 -75t-57 -53v-2h241v-61h-169z" />
    <glyph glyph-name="f_h" horiz-adv-x="954" 
d="M292 712q-55 0 -83 -27.5t-28 -77.5v-112h175v-61h-169v-434h-82v434h-80v61h152v2q-36 20 -57 53t-21 75q0 74 46.5 114.5t129.5 40.5q54 0 92 -19l-12 -63q-27 14 -63 14zM702 505q85 0 132 -51.5t47 -145.5v-308h-82v306q0 63 -33 97.5t-93 34.5q-67 0 -104 -44
t-37 -123v-271h-82v770h82v-445h2q0 85 44.5 132.5t123.5 47.5z" />
    <glyph glyph-name="f_iacute" horiz-adv-x="599" 
d="M522 0h-82v434h-253v-434h-82v434h-80v61h152v2q-36 20 -57 53t-21 75q0 74 46.5 114.5t129.5 40.5q54 0 92 -19l-12 -63q-27 14 -63 14q-55 0 -83 -27.5t-28 -77.5v-112h341v-495zM440 591l-25 46l174 94l28 -51z" />
    <glyph glyph-name="f_j" horiz-adv-x="599" 
d="M522 -230h-82v664h-253v-434h-82v434h-80v61h152v2q-36 20 -57 53t-21 75q0 74 46.5 114.5t129.5 40.5q54 0 92 -19l-12 -63q-27 14 -63 14q-55 0 -83 -27.5t-28 -77.5v-112h341v-725zM522 690v-105h-82v105h82z" />
    <glyph glyph-name="f_k" horiz-adv-x="921" 
d="M292 712q-55 0 -83 -27.5t-28 -77.5v-112h175v-61h-169v-434h-82v434h-80v61h152v2q-36 20 -57 53t-21 75q0 74 46.5 114.5t129.5 40.5q54 0 92 -19l-12 -63q-27 14 -63 14zM918 0h-109l-275 253h-2v-253h-82v770h82v-508h2l259 233h105l-268 -236z" />
    <glyph glyph-name="f_t" horiz-adv-x="707" 
d="M517 434v-289q0 -42 23.5 -64.5t66.5 -22.5q39 0 71 16v-64q-20 -9 -45.5 -14.5t-51.5 -5.5q-69 0 -107.5 39t-38.5 111v294h-248v-434h-82v434h-80v61h152v2q-36 20 -57 53t-21 75q0 74 46.5 114.5t129.5 40.5q54 0 92 -19l-12 -63q-27 14 -63 14q-55 0 -83 -27.5
t-28 -77.5v-112h260v172h82v-42q0 -42 -21 -75t-57 -53v-2h241v-61h-169z" />
    <glyph glyph-name="t_t" horiz-adv-x="722" 
d="M532 145q0 -42 23.5 -64.5t66.5 -22.5q39 0 71 16v-64q-20 -9 -45.5 -14.5t-51.5 -5.5q-69 0 -107.5 39t-38.5 111v294h-265v-289q0 -42 23.5 -64.5t66.5 -22.5q39 0 71 16v-64q-20 -9 -45.5 -14.5t-51.5 -5.5q-69 0 -107.5 39t-38.5 111v294h-80v61h86v172h82v-42
q0 -42 -21 -75t-57 -53v-2h343v172h82v-42q0 -42 -21 -75t-57 -53v-2h241v-61h-169v-289z" />
    <glyph glyph-name="zero.lf" horiz-adv-x="647" 
d="M324 -10q-63 0 -113 26t-84.5 74.5t-52.5 119t-18 160.5t18 160.5t52.5 119t84.5 74.5t113 26t112.5 -26t84 -74.5t53 -119t18.5 -160.5t-18.5 -160.5t-53 -119t-84 -74.5t-112.5 -26zM324 63q85 0 132.5 81t47.5 226t-47.5 226t-132.5 81q-86 0 -133 -81t-47 -226
t47 -226t133 -81z" />
    <glyph glyph-name="one.lf" horiz-adv-x="346" 
d="M252 740v-740h-86v708h-2q0 -67 -36.5 -104t-101.5 -37v75q66 0 103 26t37 72h86z" />
    <glyph glyph-name="two.lf" horiz-adv-x="600" 
d="M555 70v-70h-512v65q95 27 169.5 70t126.5 99.5t79 124t27 144.5q0 82 -39.5 128t-110.5 46q-72 0 -114 -51t-47 -144h-83q6 127 70.5 197.5t175.5 70.5q113 0 176 -65t63 -183q0 -86 -30.5 -157.5t-88.5 -127t-142 -92.5t-191 -53v-2h471z" />
    <glyph glyph-name="three.lf" horiz-adv-x="601" 
d="M292 412q121 0 188.5 -54.5t67.5 -153.5q0 -101 -67.5 -157.5t-190.5 -56.5q-111 0 -175.5 63t-69.5 177h83q3 -80 45.5 -124.5t117.5 -44.5q80 0 124 37.5t44 105.5t-45.5 105.5t-129.5 37.5h-21v67q83 10 129 47t46 94q0 59 -39 91.5t-109 32.5q-66 0 -105.5 -45
t-44.5 -126h-81q6 115 69.5 178.5t171.5 63.5t167 -45.5t59 -125.5q0 -78 -62.5 -121.5t-175.5 -43.5v-2h4v0z" />
    <glyph glyph-name="four.lf" horiz-adv-x="598" 
d="M566 192h-96v-192h-86v192h-358v76l282 472h162v-478h96v-70zM108 264v-2h278v470h-2z" />
    <glyph glyph-name="five.lf" 
d="M301 -10q-107 0 -174 56.5t-79 158.5h85q11 -67 54.5 -104.5t112.5 -37.5q81 0 126.5 46.5t45.5 131.5t-44.5 132t-124.5 47q-68 0 -108.5 -35t-57.5 -92l-83 11l57 436h394v-70h-316l-51 -358h2q14 83 67 129.5t134 46.5q104 0 162 -64t58 -179q0 -121 -68.5 -188
t-191.5 -67z" />
    <glyph glyph-name="six.lf" horiz-adv-x="633" 
d="M356 476q108 0 167 -61t59 -171q0 -60 -18.5 -107t-52.5 -80t-82 -50t-106 -17q-267 0 -267 357q0 95 19 170t54.5 126.5t87 79t117.5 27.5q102 0 162.5 -56.5t68.5 -159.5h-84q-6 68 -44.5 105.5t-102.5 37.5q-91 0 -141.5 -85t-50.5 -237v-72h2q0 91 56 142t156 51z
M319 63q83 0 129 46t46 130q0 80 -46 123.5t-129 43.5q-81 0 -126.5 -42t-45.5 -117q0 -43 13 -77t35.5 -58t54 -36.5t69.5 -12.5z" />
    <glyph glyph-name="seven.lf" horiz-adv-x="535" 
d="M517 740v-65q-58 -15 -103.5 -62.5t-77 -123t-48.5 -178t-17 -226.5v-85h-90v70q0 130 20.5 236t58.5 183t93.5 123t126.5 56v2h-466v70h503z" />
    <glyph glyph-name="eight.lf" horiz-adv-x="626" 
d="M381 415q92 -14 142 -68t50 -140q0 -103 -68.5 -160t-191.5 -57t-191.5 57t-68.5 160q0 86 50.5 140t141.5 68v2q-79 0 -123.5 40.5t-44.5 114.5q0 84 62 131t174 47t174 -47t62 -131q0 -73 -44.5 -114t-123.5 -41v-2zM165 544q0 -64 39 -100t109 -36t109 36t39 100
q0 63 -39 98t-109 35t-109 -35t-39 -98zM313 63q81 0 126.5 37.5t45.5 106.5t-45.5 106.5t-126.5 37.5t-126.5 -37.5t-45.5 -106.5t45.5 -106.5t126.5 -37.5z" />
    <glyph glyph-name="nine.lf" horiz-adv-x="632" 
d="M312 750q136 0 200 -91t64 -266q0 -95 -19 -170t-54.5 -126.5t-87 -79t-117.5 -27.5q-103 0 -163 62t-68 174h84q5 -78 44 -120.5t103 -42.5q91 0 141 85t50 237v82h-2q0 -87 -55.5 -135t-155.5 -48q-108 0 -167 58t-59 164q0 58 19 103t53.5 76.5t82.5 48t107 16.5z
M312 354q81 0 127 39t46 110q0 40 -13 72.5t-36 55t-54.5 34.5t-69.5 12q-82 0 -128 -43.5t-46 -122.5q0 -75 46 -116t128 -41z" />
    <glyph glyph-name="zero.osf" horiz-adv-x="633" 
d="M317 -10q-125 0 -193.5 77t-68.5 216q0 138 68.5 215t193.5 77t193.5 -77t68.5 -215q0 -139 -68.5 -216t-193.5 -77zM317 58q85 0 131.5 59t46.5 166q0 106 -46.5 165.5t-131.5 59.5t-132 -59.5t-47 -165.5q0 -107 47 -166t132 -59z" />
    <glyph glyph-name="one.osf" horiz-adv-x="339" 
d="M249 565v-565h-82v533h-2q0 -63 -35.5 -98.5t-98.5 -35.5v69q64 0 100 25.5t36 71.5h82z" />
    <glyph glyph-name="two.osf" horiz-adv-x="585" 
d="M540 64v-64h-495v60q93 30 166 67t123.5 79t77.5 87.5t27 92.5q0 58 -39 90.5t-110 32.5q-70 0 -111 -38.5t-46 -108.5h-79q5 102 67.5 157.5t168.5 55.5q109 0 170 -49.5t61 -139.5q0 -57 -30 -107.5t-87 -92t-139 -72t-186 -48.5v-2h461z" />
    <glyph glyph-name="three.osf" horiz-adv-x="586" 
d="M279 272q121 0 188.5 -51t67.5 -143q0 -93 -67.5 -145.5t-189.5 -52.5q-107 0 -169.5 57.5t-67.5 161.5h78q4 -72 46 -112.5t114 -40.5q81 0 126.5 34.5t45.5 97.5q0 65 -46 100t-130 35h-20v61q83 8 129 41t46 85t-39 80.5t-109 28.5q-66 0 -105.5 -39.5t-44.5 -111.5
h-77q6 103 67 160t164 57q108 0 167.5 -41t59.5 -116q0 -69 -61.5 -106.5t-172.5 -37.5v-2v0z" />
    <glyph glyph-name="four.osf" horiz-adv-x="584" 
d="M556 0h-96v-110h-82v110h-349v71l274 495h157v-502h96v-64zM110 66v-2h270v493h-2z" />
    <glyph glyph-name="five.osf" horiz-adv-x="605" 
d="M299 -120q-107 0 -173.5 51t-79.5 143h80q11 -60 56.5 -93t116.5 -33q84 0 130 44t46 124q0 78 -45 121.5t-126 43.5q-71 0 -113.5 -31.5t-60.5 -82.5l-78 11l56 387h406v-63h-332l-52 -320h2q16 77 70 120t135 43q106 0 164 -60t58 -169q0 -112 -68.5 -174t-191.5 -62z
" />
    <glyph glyph-name="six.osf" horiz-adv-x="632" 
d="M357 462q108 0 167.5 -60t59.5 -169q0 -57 -18.5 -102.5t-52.5 -76.5t-82 -47.5t-106 -16.5q-141 0 -206 86.5t-65 268.5q0 91 19 162.5t55 121t88 75.5t118 26q103 0 164 -54t69 -152h-79q-5 66 -45.5 102t-108.5 36q-93 0 -145 -83.5t-52 -233.5v-73h2q0 91 58.5 140.5
t159.5 49.5zM321 58q85 0 132.5 44.5t47.5 125.5t-47.5 125t-132.5 44t-132.5 -42.5t-47.5 -119.5q0 -41 13.5 -74t37.5 -56t57 -35t72 -12z" />
    <glyph glyph-name="seven.osf" horiz-adv-x="540" 
d="M511 565v-59q-60 -17 -107.5 -67t-80.5 -129t-50.5 -185t-17.5 -235h-88q0 131 21 238t60.5 185.5t97 126t130.5 60.5v2h-448v63h483z" />
    <glyph glyph-name="eight.osf" horiz-adv-x="630" 
d="M379 402q96 -13 148.5 -65t52.5 -135q0 -101 -70 -156.5t-195 -55.5t-195 55.5t-70 156.5q0 83 52.5 135t147.5 65v2q-83 0 -129.5 39t-46.5 110q0 84 63.5 130.5t177.5 46.5t177.5 -46.5t63.5 -130.5q0 -71 -46.5 -110t-130.5 -39v-2zM157 529q0 -63 41.5 -97t116.5 -34
q74 0 115.5 34t41.5 97t-41.5 98t-115.5 35q-75 0 -116.5 -35t-41.5 -98zM315 58q85 0 133 37.5t48 106.5q0 68 -48 105.5t-133 37.5t-133 -37.5t-48 -105.5q0 -69 48 -106.5t133 -37.5z" />
    <glyph glyph-name="nine.osf" horiz-adv-x="632" 
d="M306 575q141 0 206.5 -82t65.5 -253q0 -85 -19 -151.5t-55.5 -113t-88.5 -71t-118 -24.5q-103 0 -164 49.5t-69 138.5h79q5 -57 46 -88.5t108 -31.5q94 0 145.5 78.5t51.5 221.5v55h-2q0 -86 -58.5 -133t-159.5 -47q-108 0 -167.5 57.5t-59.5 161.5q0 55 18.5 98.5
t52.5 73.5t82 45.5t106 15.5zM310 188q85 0 132.5 40t47.5 112q0 39 -13.5 70t-37.5 52.5t-57 33t-72 11.5q-85 0 -132.5 -41.5t-47.5 -118.5q0 -76 47.5 -117.5t132.5 -41.5z" />
    <glyph glyph-name="zero.dnom" horiz-adv-x="397" 
d="M198 -6q-78 0 -121.5 60t-43.5 168t43.5 168t121.5 60t122 -60t44 -168t-44 -168t-122 -60zM198 48q48 0 73.5 46t25.5 128t-25.5 128t-73.5 46q-46 0 -72 -46t-26 -128t26 -128t72 -46z" />
    <glyph glyph-name="one.dnom" horiz-adv-x="230" 
d="M170 444v-444h-66v423h-2q0 -47 -22.5 -72.5t-62.5 -25.5v57q41 0 64 16.5t23 45.5h66z" />
    <glyph glyph-name="two.dnom" horiz-adv-x="371" 
d="M343 52v-52h-315v49q111 35 172.5 101.5t61.5 151.5q0 45 -21 69.5t-58 24.5q-38 0 -61 -28.5t-25 -79.5h-64q5 77 44 119.5t107 42.5q71 0 109.5 -39t38.5 -111q0 -99 -73.5 -164t-206.5 -82v-2h291z" />
    <glyph glyph-name="three.dnom" horiz-adv-x="369" 
d="M183 251q73 0 114 -33t41 -92q0 -63 -42 -97.5t-117 -34.5q-69 0 -108.5 38t-43.5 107h63q2 -43 25 -67.5t64 -24.5q43 0 67 20.5t24 58.5q0 36 -25 57t-70 21h-12v48q45 5 69.5 25t24.5 52t-20.5 50t-57.5 18q-36 0 -57.5 -24.5t-23.5 -68.5h-63q5 69 44 107.5t106 38.5
q66 0 103 -27t37 -74q0 -45 -38 -70.5t-107 -25.5v-2h3v0z" />
    <glyph glyph-name="four.dnom" horiz-adv-x="376" 
d="M355 110h-58v-110h-66v110h-213v56l155 278h124v-282h58v-52zM80 164v-2h153v276h-2z" />
    <glyph glyph-name="five.dnom" horiz-adv-x="371" 
d="M184 -6q-66 0 -107 34.5t-49 96.5h65q6 -36 30 -56.5t61 -20.5q45 0 69.5 25.5t24.5 71.5q0 47 -24 72.5t-69 25.5q-35 0 -57.5 -19t-31.5 -49l-64 8l35 261h245v-52h-187l-30 -206h2q8 51 40 79t81 28q60 0 94 -38t34 -106q0 -73 -42.5 -114t-119.5 -41z" />
    <glyph glyph-name="six.dnom" horiz-adv-x="388" 
d="M226 286q63 0 98 -36t35 -102q0 -73 -44 -113.5t-118 -40.5q-81 0 -123 55t-42 162q0 113 45.5 176t127.5 63q63 0 101 -34.5t43 -96.5h-64q-4 37 -24.5 57t-55.5 20q-51 0 -79 -47.5t-28 -133.5v-44h2q0 54 33 84.5t93 30.5zM195 48q45 0 70.5 25.5t25.5 70.5
q0 43 -25.5 66.5t-70.5 23.5t-69.5 -22.5t-24.5 -64.5q0 -46 26 -72.5t68 -26.5z" />
    <glyph glyph-name="seven.dnom" horiz-adv-x="332" 
d="M319 444v-49q-68 -19 -105.5 -111t-37.5 -237v-47h-69v36q0 158 49.5 250.5t138.5 103.5v2h-283v52h307z" />
    <glyph glyph-name="eight.dnom" horiz-adv-x="384" 
d="M230 254q59 -8 91 -40.5t32 -86.5q0 -63 -42.5 -98t-118.5 -35t-118 35t-42 98q0 54 32 86.5t90 40.5v2q-51 0 -79.5 23.5t-28.5 65.5q0 50 38.5 77.5t107.5 27.5t107.5 -27.5t38.5 -77.5q0 -42 -28.5 -65.5t-79.5 -23.5v-2zM113 324q0 -35 21 -54t58 -19q38 0 58.5 19
t20.5 54q0 34 -20.5 53t-58.5 19q-37 0 -58 -19t-21 -53zM192 48q44 0 68 20.5t24 58.5t-24 59t-68 21t-68.5 -21t-24.5 -59t24.5 -58.5t68.5 -20.5z" />
    <glyph glyph-name="nine.dnom" horiz-adv-x="388" 
d="M193 450q82 0 122.5 -55.5t40.5 -161.5q0 -113 -45.5 -176t-127.5 -63q-63 0 -101 38t-43 105h64q4 -42 24.5 -65.5t55.5 -23.5q51 0 79 47.5t28 133.5v50h-2q0 -51 -33.5 -80t-92.5 -29q-63 0 -98 34.5t-35 97.5q0 70 44.5 109t119.5 39zM193 222q45 0 69.5 21.5
t24.5 59.5q0 44 -26 68.5t-68 24.5q-45 0 -70.5 -23.5t-25.5 -66.5q0 -41 25.5 -62.5t70.5 -21.5z" />
    <glyph glyph-name="zero.numr" horiz-adv-x="397" 
d="M198 302q-78 0 -121.5 60t-43.5 168t43.5 168t121.5 60t122 -60t44 -168t-44 -168t-122 -60zM198 356q48 0 73.5 46t25.5 128t-25.5 128t-73.5 46q-46 0 -72 -46t-26 -128t26 -128t72 -46z" />
    <glyph glyph-name="one.numr" horiz-adv-x="230" 
d="M170 752v-444h-66v423h-2q0 -47 -22.5 -72.5t-62.5 -25.5v57q41 0 64 16.5t23 45.5h66z" />
    <glyph glyph-name="two.numr" horiz-adv-x="371" 
d="M343 360v-52h-315v49q111 35 172.5 101.5t61.5 151.5q0 45 -21 69.5t-58 24.5q-38 0 -61 -28.5t-25 -79.5h-64q5 77 44 119.5t107 42.5q71 0 109.5 -39t38.5 -111q0 -99 -73.5 -164t-206.5 -82v-2h291z" />
    <glyph glyph-name="three.numr" horiz-adv-x="369" 
d="M182 559q73 0 114 -33t41 -92q0 -63 -42 -97.5t-117 -34.5q-69 0 -108.5 38t-43.5 107h63q2 -43 25 -67.5t64 -24.5q43 0 67 20.5t24 58.5q0 36 -25 57t-70 21h-12v48q45 5 69.5 25t24.5 52t-20.5 50t-57.5 18q-36 0 -57.5 -24.5t-23.5 -68.5h-63q5 69 44 107.5t106 38.5
q66 0 103 -27t37 -74q0 -45 -38 -70.5t-107 -25.5v-2h3v0z" />
    <glyph glyph-name="four.numr" horiz-adv-x="376" 
d="M356 418h-58v-110h-66v110h-213v56l155 278h124v-282h58v-52zM81 472v-2h153v276h-2z" />
    <glyph glyph-name="five.numr" horiz-adv-x="371" 
d="M184 302q-66 0 -107 34.5t-49 96.5h65q6 -36 30 -56.5t61 -20.5q45 0 69.5 25.5t24.5 71.5q0 47 -24 72.5t-69 25.5q-35 0 -57.5 -19t-31.5 -49l-64 8l35 261h245v-52h-187l-30 -206h2q8 51 40 79t81 28q60 0 94 -38t34 -106q0 -73 -42.5 -114t-119.5 -41z" />
    <glyph glyph-name="six.numr" horiz-adv-x="388" 
d="M226 594q63 0 98 -36t35 -102q0 -73 -44 -113.5t-118 -40.5q-81 0 -123 55t-42 162q0 113 45.5 176t127.5 63q63 0 101 -34.5t43 -96.5h-64q-4 37 -24.5 57t-55.5 20q-51 0 -79 -47.5t-28 -133.5v-44h2q0 54 33 84.5t93 30.5zM195 356q45 0 70.5 25.5t25.5 70.5
q0 43 -25.5 66.5t-70.5 23.5t-69.5 -22.5t-24.5 -64.5q0 -46 26 -72.5t68 -26.5z" />
    <glyph glyph-name="seven.numr" horiz-adv-x="332" 
d="M320 752v-49q-68 -19 -105.5 -111t-37.5 -237v-47h-69v36q0 158 49.5 250.5t138.5 103.5v2h-283v52h307z" />
    <glyph glyph-name="eight.numr" horiz-adv-x="384" 
d="M230 562q59 -8 91 -40.5t32 -86.5q0 -63 -42.5 -98t-118.5 -35t-118 35t-42 98q0 54 32 86.5t90 40.5v2q-51 0 -79.5 23.5t-28.5 65.5q0 50 38.5 77.5t107.5 27.5t107.5 -27.5t38.5 -77.5q0 -42 -28.5 -65.5t-79.5 -23.5v-2zM113 632q0 -35 21 -54t58 -19q38 0 58.5 19
t20.5 54q0 34 -20.5 53t-58.5 19q-37 0 -58 -19t-21 -53zM192 356q44 0 68 20.5t24 58.5t-24 59t-68 21t-68.5 -21t-24.5 -59t24.5 -58.5t68.5 -20.5z" />
    <glyph glyph-name="nine.numr" horiz-adv-x="388" 
d="M193 758q82 0 122.5 -55.5t40.5 -161.5q0 -113 -45.5 -176t-127.5 -63q-63 0 -101 38t-43 105h64q4 -42 24.5 -65.5t55.5 -23.5q51 0 79 47.5t28 133.5v50h-2q0 -51 -33.5 -80t-92.5 -29q-63 0 -98 34.5t-35 97.5q0 70 44.5 109t119.5 39zM193 530q45 0 69.5 21.5
t24.5 59.5q0 44 -26 68.5t-68 24.5q-45 0 -70.5 -23.5t-25.5 -66.5q0 -41 25.5 -62.5t70.5 -21.5z" />
    <glyph glyph-name="backslash.case" horiz-adv-x="366" 
d="M336 -16l-44 -14l-261 786l43 14z" />
    <glyph glyph-name="exclamdown.case" horiz-adv-x="271" 
d="M85 740h100v-95h-100v95zM174 547l5 -547h-86l5 547h76z" />
    <glyph glyph-name="questiondown.case" horiz-adv-x="540" 
d="M252 645v95h99v-95h-99zM510 228q-6 -113 -67 -175.5t-167 -62.5q-109 0 -168.5 54.5t-59.5 151.5q0 39 14 82.5t41 88.5t66 90.5t88 89.5h81v-2q-47 -45 -84.5 -91t-63 -90t-39 -85.5t-13.5 -77.5q0 -65 37 -101.5t103 -36.5q67 0 106.5 43.5t43.5 121.5h82z" />
    <glyph glyph-name="slash.case" horiz-adv-x="366" 
d="M335 756l-261 -786l-44 14l262 786z" />
    <glyph glyph-name="numbersign.osf" horiz-adv-x="593" 
d="M447 371l-19 -162h101l-5 -38h-100l-20 -171h-48l19 171h-187l-20 -171h-48l20 171h-104l5 38h104l19 162h-101l5 38h100l18 151h48l-18 -151h187l18 151h48l-18 -151h105l-5 -38h-104zM400 371h-189l-20 -162h190z" />
    <glyph glyph-name="braceleft.case" horiz-adv-x="278" 
d="M169 472q0 -76 -67 -102q67 -28 67 -103v-209q0 -29 17 -47t44 -18v-43q-49 0 -78.5 28t-29.5 74v209q0 42 -22.5 64t-64.5 22v45q42 0 64.5 22t22.5 64v210q0 46 29.5 74t78.5 28v-43q-27 0 -44 -18t-17 -47v-210v0z" />
    <glyph glyph-name="braceright.case" horiz-adv-x="278" 
d="M156 478q0 -42 22.5 -64t64.5 -22v-45q-42 0 -64.5 -22t-22.5 -64v-209q0 -46 -29.5 -74t-78.5 -28v43q27 0 44 18t17 47v209q0 75 67 103q-67 26 -67 102v210q0 29 -17 47t-44 18v43q49 0 78.5 -28t29.5 -74v-210v0z" />
    <glyph glyph-name="bracketleft.case" horiz-adv-x="309" 
d="M142 747v-754h141v-43h-188v840h188v-43h-141z" />
    <glyph glyph-name="bracketright.case" horiz-adv-x="309" 
d="M214 -50h-188v43h141v754h-141v43h188v-840z" />
    <glyph glyph-name="parenleft.case" horiz-adv-x="263" 
d="M233 -33l-37 -27q-76 103 -109.5 212t-33.5 218t33.5 218t109.5 212l37 -27q-72 -98 -102 -202t-30 -201t30 -201.5t102 -201.5z" />
    <glyph glyph-name="parenright.case" horiz-adv-x="263" 
d="M30 -33q72 97 102 201.5t30 201.5t-30 201t-102 202l37 27q76 -103 109.5 -212t33.5 -218t-33.5 -218t-109.5 -212z" />
    <glyph glyph-name="emdash.case" horiz-adv-x="870" 
d="M800 381v-39h-730v39h730z" />
    <glyph glyph-name="endash.case" horiz-adv-x="586" 
d="M516 381v-39h-446v39h446z" />
    <glyph glyph-name="hyphen.case" horiz-adv-x="407" 
d="M338 381v-39h-268v39h268z" />
    <glyph glyph-name="uni00AD.case" horiz-adv-x="407" 
d="M338 381v-39h-268v39h268z" />
    <glyph glyph-name="guillemotleft.case" horiz-adv-x="455" 
d="M177 553h50l-126 -193l126 -193h-50l-128 193zM337 553h50l-126 -193l126 -193h-50l-128 193z" />
    <glyph glyph-name="guillemotright.case" horiz-adv-x="455" 
d="M118 167h-50l126 193l-126 193h50l128 -193zM278 167h-50l126 193l-126 193h50l128 -193z" />
    <glyph glyph-name="guilsinglleft.case" horiz-adv-x="295" 
d="M177 553h50l-126 -193l126 -193h-50l-128 193z" />
    <glyph glyph-name="guilsinglright.case" horiz-adv-x="295" 
d="M118 167h-50l126 193l-126 193h50l128 -193z" />
    <glyph glyph-name="cent.osf" horiz-adv-x="555" 
d="M519 175q-16 -82 -68.5 -130t-137.5 -54v-101h-46v101q-103 7 -160.5 74t-57.5 183q0 115 57.5 182t160.5 74v93h46v-93q81 -6 133.5 -50.5t69.5 -122.5h-82q-14 45 -45 72.5t-76 33.5v-378q48 7 79.5 36.5t44.5 79.5h82zM133 248q0 -84 35 -132.5t99 -56.5v378
q-64 -8 -99 -57t-35 -132z" />
    <glyph glyph-name="dollar.osf" horiz-adv-x="549" 
d="M509 166q0 -78 -55.5 -123t-155.5 -50v-81h-46v81q-95 5 -150.5 56.5t-62.5 141.5h78q5 -58 40 -92.5t95 -40.5v206q-36 5 -71 12.5t-63 23.5t-45.5 42.5t-17.5 69.5q0 75 51.5 116t145.5 45v80h46v-80q87 -6 138 -55t56 -134h-78q-3 53 -33.5 84.5t-82.5 38.5v-182
q37 -6 74.5 -14t68 -24.5t49.5 -45.5t19 -75zM136 417q0 -21 9 -35.5t25 -24t37 -15.5t45 -10v176q-55 -3 -85.5 -26.5t-30.5 -64.5zM298 58q63 4 97 30t34 70q0 25 -10.5 42t-28.5 28.5t-41.5 17.5t-50.5 11v-199z" />
    <glyph glyph-name="Euro.osf" horiz-adv-x="560" 
d="M520 56q-37 -31 -85 -47.5t-91 -16.5q-106 0 -171 60t-79 170h-56v34h53q-1 7 -1 13.5v14.5v14.5t1 13.5h-53v35h56q15 109 79.5 168t170.5 59q43 0 86.5 -11.5t76.5 -33.5l-33 -57q-27 19 -61 28t-69 9q-69 0 -111.5 -41.5t-55.5 -119.5h224l-19 -36h-209
q-1 -7 -1 -13.5v-14.5v-13.5t1 -13.5h178l-20 -35h-154q12 -78 55 -121.5t112 -43.5q34 0 72 13t70 41z" />
    <glyph glyph-name="sterling.osf" horiz-adv-x="532" 
d="M487 64v-64h-436v61q54 35 74 76t20 81q0 16 -4 28h-80v40h66q-14 32 -29.5 64.5t-15.5 67.5q0 74 51.5 115t145.5 41q91 0 143.5 -49t57.5 -138h-76q-4 58 -36.5 90t-88.5 32q-54 0 -83.5 -24.5t-29.5 -69.5q0 -16 5 -32t12 -32t15.5 -32.5t15.5 -32.5h176v-40h-163
q3 -12 3 -24q0 -49 -38 -89t-125 -68v-1h420z" />
    <glyph glyph-name="yen.osf" horiz-adv-x="582" 
d="M377 220h108v-33h-125l-22 -46h147v-35h-165l-52 -106h-89l51 106h-127v35h144l23 46h-167v33h102l-171 345h95l164 -340h2l164 340h88z" />
    <glyph glyph-name="plus.case" horiz-adv-x="462" 
d="M422 332h-168v-171h-47v171h-167v40h167v171h46v-171h169v-40z" />
    <glyph glyph-name="minus.case" horiz-adv-x="520" 
d="M69 372h383v-40h-383v40z" />
    <glyph glyph-name="multiply.case" horiz-adv-x="471" 
d="M267 346l149 -148l-32 -32l-149 149l-149 -149l-30 31l148 149l-148 148l30 32l150 -149l148 149l32 -32z" />
    <glyph glyph-name="divide.case" horiz-adv-x="517" 
d="M259 462q-34 0 -34 32q0 33 34 33t34 -33q0 -32 -34 -32zM68 372h382v-40h-382v40zM259 177q-34 0 -34 31q0 34 34 34t34 -34q0 -31 -34 -31z" />
    <glyph glyph-name="equal.case" horiz-adv-x="520" 
d="M69 443h383v-40h-383v40zM69 301h383v-40h-383v40z" />
    <glyph glyph-name="notequal.case" horiz-adv-x="520" 
d="M298 403l-30 -102h184v-40h-195l-47 -161h-44l47 161h-144v40h155l30 102h-185v40h197l44 152h44l-44 -152h142v-40h-154z" />
    <glyph glyph-name="greater.case" horiz-adv-x="476" 
d="M435 391v-77l-370 -161v44l364 154v2l-364 156v44z" />
    <glyph glyph-name="less.case" horiz-adv-x="476" 
d="M46 353v-2l364 -154v-44l-370 161v77l370 162v-44z" />
    <glyph glyph-name="greaterequal.case" horiz-adv-x="538" 
d="M466 459v-76l-382 -140v44l376 132v2l-376 135v44zM83 152h383v-40h-383v40z" />
    <glyph glyph-name="lessequal.case" horiz-adv-x="538" 
d="M455 243l-382 140v76l382 141v-44l-376 -135v-2l376 -132v-44zM456 152v-40h-383v40h383z" />
    <glyph glyph-name="plusminus.case" horiz-adv-x="524" 
d="M454 437v-40h-169v-159h-46v159h-168v40h168v160h46v-160h169zM71 152h383v-40h-383v40z" />
    <glyph glyph-name="logicalnot.case" horiz-adv-x="516" 
d="M442 437v-174h-46v135h-336v39h382z" />
    <glyph glyph-name="percent.osf" horiz-adv-x="668" 
d="M169 263q-60 0 -93 41t-33 115t33 115t93 41q61 0 94.5 -41t33.5 -115t-33.5 -115t-94.5 -41zM529 575l31 -22l-422 -563l-32 23zM170 312q31 0 48 28t17 79t-17 79t-48 28q-32 0 -49 -28t-17 -79t17 -79t49 -28zM497 -10q-60 0 -93.5 41t-33.5 115t33.5 115.5t93.5 41.5
t93.5 -41.5t33.5 -115.5t-33.5 -115t-93.5 -41zM497 39q32 0 49 28t17 79t-17 79t-49 28q-31 0 -48 -28t-17 -79t17 -79t48 -28z" />
    <glyph glyph-name="perthousand.osf" horiz-adv-x="955" 
d="M169 263q-60 0 -93 41t-33 115t33 115t93 41q61 0 94.5 -41t33.5 -115t-33.5 -115t-94.5 -41zM529 575l31 -22l-422 -563l-32 23zM170 312q31 0 48 28t17 79t-17 79t-48 28q-32 0 -49 -28t-17 -79t17 -79t49 -28zM497 -10q-60 0 -93.5 41t-33.5 115t33.5 115.5t93.5 41.5
t93.5 -41.5t33.5 -115.5t-33.5 -115t-93.5 -41zM793 -10q-60 0 -93.5 41t-33.5 115t33.5 115.5t93.5 41.5t93.5 -41.5t33.5 -115.5t-33.5 -115t-93.5 -41zM497 39q32 0 49 28t17 79t-17 79t-49 28q-31 0 -48 -28t-17 -79t17 -79t48 -28zM793 39q32 0 49 28t17 79t-17 79
t-49 28q-31 0 -48.5 -28t-17.5 -79t17.5 -79t48.5 -28z" />
    <glyph glyph-name="Ohorn.001" horiz-adv-x="748" 
d="M374 -10q-75 0 -135 26t-101 74.5t-63 119t-22 160.5t22 160.5t63 119t101 74.5t135 26q76 0 135.5 -26t100.5 -74.5t63 -119t22 -160.5t-22 -160.5t-63 -119t-100.5 -74.5t-135.5 -26zM374 63q55 0 98 21t73 60.5t46 96.5t16 129t-16 129t-46 96.5t-73 60.5t-98 21
t-98 -21t-73 -60.5t-45.5 -96.5t-15.5 -129t15.5 -129t45.5 -96.5t73 -60.5t98 -21z" />
    <glyph glyph-name="ohorn.001" horiz-adv-x="582" 
d="M291 -10q-115 0 -179 68t-64 190q0 121 64.5 189t178.5 68q115 0 178.5 -68t63.5 -189q0 -122 -63.5 -190t-178.5 -68zM291 58q75 0 117 49.5t42 140.5q0 90 -42 140t-117 50t-117 -50t-42 -140q0 -91 42 -140.5t117 -49.5z" />
    <glyph glyph-name="Uhorn.001" horiz-adv-x="715" 
d="M547 740h81v-485q0 -125 -71.5 -195t-199.5 -70q-127 0 -198.5 70t-71.5 195v485h86v-491q0 -88 49 -137t137 -49q89 0 138.5 49t49.5 137v491z" />
    <glyph glyph-name="uhorn.001" horiz-adv-x="572" 
d="M494 495v-495h-82v170h-2q0 -85 -43 -132.5t-120 -47.5q-83 0 -128.5 51.5t-45.5 145.5v308h82v-305q0 -63 31.5 -98t89.5 -35q65 0 100.5 44t35.5 124v270h82z" />
    </font>
</defs>
</svg>
