<svg width="110" height="78" viewBox="0 0 110 78" fill="none" xmlns="http://www.w3.org/2000/svg">
<rect width="110" height="78" rx="39" transform="matrix(-1 0 0 1 110 0)" fill="white"/>
<g clip-path="url(#clip0_1730_2078)">
<path d="M44.7852 27.0905C47.1551 26.0168 49.8034 25.7178 52.353 26.2363C54.9027 26.7547 57.2239 28.0641 58.9863 29.9781L58.2053 31.1615C56.4081 30.041 54.3636 29.3784 52.2508 29.2319C50.138 29.0854 48.0215 29.4595 46.0869 30.3213C45.5007 29.3122 45.0623 28.2242 44.7852 27.0905Z" fill="black"/>
<path d="M42.9414 33.1345C44.2824 31.8873 45.8847 30.9547 47.6315 30.4047C49.3784 29.8547 51.2259 29.701 53.0396 29.9549C54.8533 30.2088 56.5876 30.8639 58.1162 31.8725C59.6448 32.8811 60.9294 34.2179 61.8763 35.7854C60.5343 37.0306 58.9319 37.9614 57.1854 38.5102C55.4389 39.059 53.5921 39.212 51.7791 38.9582C49.9661 38.7044 48.2324 38.0501 46.7037 37.0427C45.175 36.0354 43.8899 34.7004 42.9414 33.1345Z" fill="black"/>
<path d="M51.4632 41.6111C50.7132 41.6098 49.9648 41.5425 49.2266 41.4099C50.3741 40.9779 51.4541 40.3841 52.4337 39.6466C52.7887 39.6466 53.1437 39.6466 53.4988 39.6466C56.0525 39.6387 58.5457 38.8681 60.6585 37.4336C59.5042 38.7354 58.089 39.78 56.5049 40.4997C54.9208 41.2194 53.2031 41.598 51.4632 41.6111Z" fill="black"/>
<path d="M65.6054 28.5678L65.4161 28.7098L65.2504 28.8518L65.0847 29.0056L64.919 29.1713L64.8125 29.2897L64.5166 29.6684L64.3865 29.8577L64.2799 30.0234C64.0169 30.4807 63.8253 30.9756 63.7119 31.4909L63.4752 32.4494V32.5323C63.2072 33.4481 62.8339 34.3297 62.3628 35.1595C61.4431 33.6802 60.2358 32.4004 58.8125 31.3962L60.8835 28.2127L60.9427 28.1181L61.0373 27.9997L61.274 27.7394L61.3924 27.6329L61.6764 27.4198L61.7947 27.3488C61.948 27.2599 62.1107 27.1884 62.2799 27.1358L62.5877 27.053H62.9545C63.3077 27.0287 63.6621 27.077 63.9959 27.195L64.2563 27.2897L64.5285 27.4198L66.1971 28.1891C65.9012 28.3666 65.7474 28.4849 65.6054 28.5678Z" fill="black"/>
<path d="M21.6392 47.7379H20.9883V46.7556H21.6392V46.3769C21.6203 46.1461 21.6483 45.914 21.7215 45.6943C21.7947 45.4746 21.9116 45.2721 22.0652 45.0988C22.2227 44.9511 22.4094 44.838 22.6132 44.7667C22.817 44.6954 23.0334 44.6674 23.2486 44.6846C23.426 44.6728 23.6039 44.6728 23.7812 44.6846L24.2072 44.7793V45.7852C24.0991 45.7458 23.9884 45.7142 23.8759 45.6905C23.7539 45.6782 23.631 45.6782 23.509 45.6905C23.0593 45.6905 22.8344 45.9509 22.8344 46.4834V46.7674H24.1954V47.7379H22.8226V51.8799H21.6392V47.7379Z" fill="black"/>
<path d="M27.1533 51.985C26.9013 52.0011 26.6489 51.9617 26.4137 51.8697C26.1786 51.7777 25.9665 51.6353 25.7923 51.4525C25.4617 51.0416 25.2932 50.5236 25.319 49.9968V46.7188H26.5024V49.6418C26.4811 49.9739 26.5821 50.3023 26.7864 50.5649C26.8901 50.6757 27.0173 50.7618 27.1585 50.8171C27.2998 50.8724 27.4517 50.8954 27.603 50.8844C27.7585 50.8918 27.9138 50.866 28.0587 50.8089C28.2035 50.7518 28.3346 50.6646 28.4432 50.5531C28.5607 50.4294 28.6501 50.2819 28.7052 50.1206C28.7604 49.9592 28.78 49.7878 28.7628 49.6182V46.7188H29.9462V51.8785H28.7628V51.0619C28.5903 51.3153 28.3739 51.5357 28.1237 51.7128C27.836 51.9014 27.4971 51.9965 27.1533 51.985Z" fill="black"/>
<path d="M33.4745 51.9743C33.0921 51.9712 32.7126 51.9072 32.3503 51.785C31.967 51.6488 31.6075 51.4531 31.2852 51.2051L31.8177 50.4003C32.0786 50.5966 32.3654 50.7558 32.6698 50.8737C32.9375 50.9796 33.2222 51.0357 33.51 51.0394C33.7181 51.0477 33.924 50.9942 34.1017 50.8855C34.1676 50.842 34.2209 50.782 34.2562 50.7113C34.2916 50.6407 34.3077 50.562 34.3029 50.4832C34.3074 50.4383 34.3024 50.3929 34.2881 50.35C34.2739 50.3072 34.2507 50.2679 34.2201 50.2347C34.1467 50.1549 34.0582 50.0905 33.9597 50.0453C33.8416 49.9879 33.7189 49.9404 33.5929 49.9033L33.155 49.7613L32.5869 49.5838C32.4003 49.5154 32.2248 49.4196 32.0662 49.2997C31.9129 49.1843 31.7842 49.0395 31.6875 48.8737C31.5832 48.6818 31.534 48.4647 31.5455 48.2465C31.5359 48.0184 31.5805 47.7913 31.6757 47.5838C31.7755 47.393 31.9123 47.2241 32.0781 47.0867C32.2468 46.9433 32.4446 46.8384 32.6579 46.779C32.8907 46.7025 33.1349 46.6665 33.3798 46.6725C33.7134 46.6706 34.0451 46.7226 34.3621 46.8264C34.6845 46.9244 34.9913 47.0679 35.2733 47.2524L34.8 48.0927C34.5634 47.9507 34.3137 47.8318 34.0544 47.7376C33.8273 47.6525 33.5869 47.6084 33.3443 47.6074C33.1561 47.5954 32.969 47.6452 32.8118 47.7495C32.7525 47.7903 32.7042 47.8452 32.6712 47.9092C32.6381 47.9732 32.6214 48.0443 32.6224 48.1163C32.6206 48.2083 32.6546 48.2974 32.7171 48.3648C32.7948 48.4449 32.8872 48.5092 32.9893 48.5542C33.1062 48.6175 33.2291 48.6691 33.3562 48.708L33.794 48.8501L34.3621 49.0631C34.5438 49.1342 34.715 49.2298 34.871 49.3471C35.0266 49.4551 35.156 49.5966 35.2497 49.7613C35.3478 49.9428 35.3967 50.1468 35.3917 50.353C35.3985 50.5974 35.3499 50.8401 35.2497 51.0631C35.1566 51.2615 35.0189 51.4356 34.8473 51.5719C34.6615 51.7093 34.4533 51.8134 34.2319 51.8796C33.9841 51.9409 33.7298 51.9727 33.4745 51.9743Z" fill="black"/>
<path d="M37.0234 44.8047H38.2074V45.9881H37.0234V44.8047ZM37.0234 46.7219H38.2074V51.8816H37.0234V46.7219Z" fill="black"/>
<path d="M42.5279 51.998C42.1546 51.9984 41.7848 51.926 41.4391 51.785C41.1163 51.6482 40.8199 51.4559 40.5634 51.217C40.3225 50.9709 40.1298 50.6819 39.9953 50.3649C39.8526 50.0367 39.784 49.6812 39.7941 49.3235C39.783 48.9619 39.8517 48.6023 39.9953 48.2702C40.2115 47.7735 40.5693 47.3514 41.0239 47.0568C41.4785 46.7621 42.0098 46.6079 42.5515 46.6134C42.9286 46.6142 43.302 46.6865 43.6521 46.8264C43.9734 46.9649 44.2662 47.1615 44.516 47.4063C44.768 47.6523 44.9673 47.9471 45.1016 48.2726C45.2359 48.5982 45.3024 48.9477 45.2971 49.2998C45.2972 49.6539 45.2247 50.0044 45.0841 50.3294C44.8105 50.9812 44.2921 51.4996 43.6403 51.7732C43.2872 51.9184 42.9096 51.9947 42.5279 51.998ZM42.5279 50.9566C42.7516 50.9604 42.9736 50.916 43.1788 50.8264C43.3657 50.7412 43.5345 50.6206 43.6758 50.4714C43.8074 50.3167 43.9115 50.1406 43.9835 49.9507C44.0541 49.7491 44.0901 49.5371 44.09 49.3235C44.0919 49.1048 44.0517 48.8879 43.9717 48.6844C43.8986 48.4862 43.7859 48.305 43.6403 48.1519C43.5037 47.9974 43.3337 47.876 43.1433 47.7969C42.9417 47.7089 42.7241 47.6635 42.5042 47.6635C42.2843 47.6635 42.0667 47.7089 41.8651 47.7969C41.6766 47.8793 41.5073 48.0002 41.3681 48.1519C41.2316 48.303 41.1269 48.4801 41.0604 48.6726C40.9887 48.878 40.9527 49.0941 40.9539 49.3116C40.9508 49.5304 40.991 49.7476 41.0722 49.9507C41.1411 50.1482 41.2499 50.3295 41.3918 50.4832C41.5415 50.6278 41.7133 50.7476 41.9006 50.8383C42.1058 50.9278 42.3278 50.9722 42.5515 50.9684L42.5279 50.9566Z" fill="black"/>
<path d="M46.8125 46.7194H47.9959V47.5123C48.0811 47.3903 48.1761 47.2756 48.2799 47.1691C48.3841 47.0546 48.5036 46.955 48.635 46.8732C48.7719 46.7911 48.9192 46.7274 49.0728 46.6839C49.4009 46.5845 49.7496 46.5749 50.0826 46.6561C50.4156 46.7373 50.7208 46.9062 50.9663 47.1454C51.3049 47.5434 51.4784 48.0556 51.4516 48.5774V51.8792H50.2681V48.9442C50.2903 48.6065 50.1847 48.2728 49.9723 48.0093C49.8687 47.8978 49.7418 47.8103 49.6008 47.753C49.4597 47.6958 49.3077 47.6701 49.1557 47.678C48.9999 47.6771 48.8455 47.7069 48.7014 47.7658C48.5572 47.8247 48.426 47.9115 48.3154 48.0212C48.2034 48.1483 48.1175 48.2964 48.0626 48.4568C48.0078 48.6172 47.9851 48.7869 47.9959 48.9561V51.8673H46.8125V46.7194Z" fill="black"/>
<path d="M53.1914 46.7184H54.3748V47.9018C54.5242 47.5325 54.7644 47.2069 55.0731 46.9551C55.4127 46.7023 55.8358 46.588 56.2565 46.6355V47.89H56.1855C55.9424 47.8849 55.7009 47.9292 55.4754 48.0201C55.2617 48.1053 55.0682 48.2343 54.9074 48.3989C54.7484 48.5866 54.6278 48.8037 54.5523 49.0379C54.4619 49.329 54.418 49.6325 54.4222 49.9373V51.9018H53.2387L53.1914 46.7184Z" fill="black"/>
<path d="M59.7341 51.9983C59.3775 51.9966 59.0243 51.9284 58.6927 51.7971C58.3754 51.6722 58.0869 51.484 57.8447 51.2439C57.6026 51.0038 57.412 50.7169 57.2844 50.4006C57.1404 50.0562 57.0718 49.685 57.0833 49.3119C57.0825 48.9533 57.1425 48.5972 57.2608 48.2586C57.3807 47.9425 57.5617 47.6529 57.7933 47.4066C58.0201 47.1517 58.2994 46.9489 58.6119 46.812C58.9244 46.6752 59.2628 46.6075 59.604 46.6137C59.9802 46.6087 60.3525 46.6897 60.6927 46.8503C60.9929 46.9884 61.2564 47.1952 61.4619 47.4539C61.6727 47.7121 61.8296 48.0098 61.9235 48.3296C62.0314 48.6745 62.0872 49.0334 62.0892 49.3947C62.0891 49.5603 62.0891 49.5603 62.0891 49.726L58.3259 49.7261C58.3696 50.1014 58.5509 50.4471 58.8347 50.6965C59.1103 50.9251 59.459 51.0469 59.817 51.0397C60.0812 51.0413 60.343 50.9889 60.5862 50.8858C60.8121 50.7563 61.0226 50.6014 61.2134 50.4243L61.9117 51.0397C61.6657 51.3297 61.3639 51.5672 61.0241 51.7379C60.6235 51.9337 60.1793 52.0234 59.7341 51.9983ZM60.9176 48.9332C60.8967 48.7509 60.8529 48.572 60.7874 48.4006C60.7265 48.2444 60.6383 48.1001 60.527 47.9746C60.4155 47.8485 60.2783 47.7476 60.1247 47.6787C59.9614 47.6042 59.7834 47.5678 59.604 47.5722C59.4357 47.5678 59.2685 47.5993 59.1134 47.6646C58.9583 47.7299 58.8189 47.8275 58.7046 47.9509C58.4593 48.2231 58.3097 48.5681 58.2785 48.9332H60.9176Z" fill="black"/>
<path d="M65.3539 51.9743C64.9517 51.9761 64.552 51.9121 64.1704 51.785C63.7908 51.6488 63.4353 51.4531 63.1172 51.2051L63.6379 50.4004C63.9014 50.5992 64.1924 50.7586 64.5018 50.8737C64.7663 50.9763 65.0466 51.0323 65.3302 51.0394C65.5385 51.0492 65.7448 50.9956 65.9219 50.8856C65.9892 50.8426 66.0442 50.783 66.0815 50.7125C66.1188 50.642 66.1372 50.563 66.1349 50.4832C66.1345 50.3916 66.1008 50.3034 66.0403 50.2347C65.9713 50.1552 65.8867 50.0908 65.7917 50.0453C65.6696 49.9877 65.543 49.9402 65.413 49.9033L64.9752 49.7613L64.4071 49.5838C64.2217 49.5128 64.0465 49.4173 63.8864 49.2998C63.7331 49.1843 63.6044 49.0395 63.5077 48.8737C63.4067 48.6805 63.3577 48.4644 63.3657 48.2465C63.3662 48.0181 63.4146 47.7923 63.5077 47.5838C63.6032 47.3936 63.736 47.2245 63.8983 47.0867C64.0728 46.9454 64.274 46.8408 64.49 46.7791C64.7187 46.7025 64.9589 46.6664 65.2 46.6725C65.5375 46.6696 65.8733 46.7215 66.1941 46.8264C66.5155 46.927 66.822 47.0703 67.1053 47.2524L66.632 48.0927C66.3913 47.9506 66.1377 47.8317 65.8746 47.7376C65.6513 47.6534 65.4149 47.6094 65.1763 47.6075C64.9879 47.5936 64.8003 47.6436 64.6438 47.7495C64.5845 47.7903 64.5362 47.8452 64.5032 47.9092C64.4702 47.9732 64.4534 48.0443 64.4545 48.1163C64.4506 48.1622 64.4572 48.2083 64.4736 48.2513C64.4899 48.2944 64.5158 48.3332 64.5491 48.3649C64.6225 48.4446 64.711 48.509 64.8095 48.5542C64.9264 48.6176 65.0493 48.6691 65.1763 48.708L65.6142 48.8501L66.1823 49.0631C66.364 49.1343 66.5352 49.2298 66.6912 49.3471C66.8468 49.4551 66.9762 49.5966 67.0698 49.7613C67.1721 49.9417 67.2251 50.1457 67.2237 50.353C67.2264 50.5982 67.1738 50.8409 67.0698 51.0631C66.9808 51.2639 66.8424 51.439 66.6675 51.5719C66.483 51.7115 66.2744 51.8158 66.0521 51.8797C65.8236 51.9373 65.5894 51.9691 65.3539 51.9743Z" fill="black"/>
<path d="M86.0532 51.9743C85.6509 51.9776 85.2509 51.9136 84.8698 51.785C84.4865 51.6488 84.127 51.4531 83.8047 51.2051L84.3372 50.4003C84.5966 50.599 84.8836 50.7585 85.1893 50.8737C85.457 50.9796 85.7417 51.0357 86.0295 51.0394C86.2377 51.0477 86.4436 50.9942 86.6213 50.8855C86.6872 50.842 86.7405 50.782 86.7758 50.7113C86.8111 50.6407 86.8272 50.562 86.8224 50.4832C86.827 50.4383 86.8219 50.3929 86.8077 50.35C86.7934 50.3072 86.7702 50.2679 86.7396 50.2347C86.6662 50.1549 86.5777 50.0905 86.4792 50.0453C86.3611 49.9879 86.2384 49.9404 86.1124 49.9033L85.6745 49.7613L85.1065 49.5838C84.9198 49.5154 84.7443 49.4196 84.5858 49.2997C84.4325 49.1843 84.3037 49.0395 84.207 48.8737C84.1027 48.6818 84.0536 48.4647 84.065 48.2465C84.0554 48.0184 84.1 47.7913 84.1952 47.5838C84.295 47.393 84.4318 47.2241 84.5976 47.0867C84.7663 46.9433 84.9642 46.8384 85.1775 46.779C85.4102 46.7025 85.6544 46.6665 85.8994 46.6725C86.2329 46.6706 86.5646 46.7226 86.8816 46.8264C87.204 46.9244 87.5109 47.0679 87.7928 47.2524L87.3195 48.0927C87.0829 47.9507 86.8332 47.8318 86.5739 47.7376C86.3468 47.6525 86.1064 47.6084 85.8639 47.6074C85.6756 47.5954 85.4886 47.6452 85.3313 47.7495C85.272 47.7903 85.2237 47.8452 85.1907 47.9092C85.1577 47.9732 85.1409 48.0443 85.142 48.1163C85.1401 48.2083 85.1741 48.2974 85.2366 48.3648C85.3123 48.442 85.4003 48.506 85.497 48.5542C85.6189 48.6156 85.7455 48.667 85.8757 48.708L86.3136 48.8501L86.8816 49.0631C87.0633 49.1342 87.2345 49.2298 87.3905 49.3471C87.543 49.4586 87.6718 49.5994 87.7692 49.7613C87.8673 49.9428 87.9162 50.1468 87.9112 50.353C87.918 50.5974 87.8695 50.8401 87.7692 51.0631C87.6761 51.2615 87.5384 51.4356 87.3668 51.5719C87.181 51.7093 86.9728 51.8134 86.7514 51.8796C86.5228 51.9365 86.2887 51.9682 86.0532 51.9743Z" fill="black"/>
<path d="M71.2505 51.9993C70.8771 52.0009 70.5071 51.9285 70.1618 51.7863C69.8359 51.6553 69.5386 51.4624 69.286 51.2183C69.0411 50.9755 68.8479 50.6857 68.718 50.3662C68.5753 50.0381 68.5066 49.6825 68.5168 49.3248C68.5056 48.9632 68.5743 48.6036 68.718 48.2715C68.9947 47.6219 69.5121 47.1045 70.1618 46.8278C70.5079 46.6746 70.8841 46.6018 71.2623 46.6147C71.6392 46.6045 72.0141 46.673 72.3629 46.8159C72.6848 46.9474 72.9773 47.1418 73.2231 47.3877C73.469 47.6335 73.6634 47.926 73.7949 48.2479C73.9376 48.576 74.0063 48.9316 73.9961 49.2893C74.0069 49.6432 73.9381 49.995 73.7949 50.3189C73.5164 50.9715 72.9941 51.4895 72.3393 51.7627C71.9952 51.9115 71.6254 51.9919 71.2505 51.9993ZM71.2505 50.9579C71.5676 50.9622 71.8781 50.8676 72.1389 50.6874C72.3998 50.5071 72.598 50.2501 72.7061 49.952C72.7768 49.7504 72.8128 49.5384 72.8127 49.3248C72.8098 49.1027 72.7698 48.8827 72.6943 48.6739C72.6168 48.4779 72.5045 48.2975 72.3629 48.1414C72.2207 47.9932 72.0522 47.8728 71.8659 47.7863C71.6643 47.6984 71.4468 47.653 71.2268 47.653C71.0069 47.653 70.7894 47.6984 70.5878 47.7863C70.3992 47.8688 70.2299 47.9897 70.0908 48.1414C69.9511 48.2901 69.846 48.468 69.7831 48.6621C69.703 48.8655 69.6628 49.0825 69.6647 49.3011C69.6695 49.5191 69.7094 49.7349 69.7831 49.9402C69.8637 50.131 69.9757 50.307 70.1144 50.4609C70.2644 50.6232 70.448 50.7507 70.6524 50.8345C70.8569 50.9183 71.0772 50.9564 71.2979 50.9461L71.2505 50.9579Z" fill="black"/>
<path d="M75.5316 46.721H76.715V47.9044C76.8573 47.5344 77.0939 47.208 77.4014 46.9577C77.7426 46.7081 78.1644 46.5942 78.5849 46.6382V47.8926H78.4428C78.1961 47.8888 77.9509 47.933 77.721 48.0228C77.5093 48.1053 77.3191 48.2348 77.1647 48.4015C77.0016 48.5863 76.8804 48.8043 76.8097 49.0405C76.7137 49.3303 76.6696 49.6348 76.6795 49.9399V51.9044H75.4961L75.5316 46.721Z" fill="black"/>
<path d="M81.6147 51.9635C81.4114 51.9632 81.2089 51.9394 81.0111 51.8925C80.8373 51.8388 80.6762 51.7502 80.5378 51.6321C80.4023 51.5029 80.2972 51.3453 80.2301 51.1706C80.1592 50.9365 80.1233 50.6933 80.1235 50.4487V47.7386H79.4727V46.7209H80.1235V45.3008H81.307V46.7209H82.6916V47.7386H81.307V50.2712C81.301 50.359 81.3126 50.4472 81.341 50.5305C81.3694 50.6138 81.4142 50.6906 81.4727 50.7564C81.6051 50.8662 81.7744 50.9212 81.946 50.9102C82.2013 50.9105 82.4529 50.8497 82.6798 50.7327V51.7031C82.5298 51.7872 82.371 51.8546 82.2064 51.9043C82.0132 51.9532 81.8137 51.9732 81.6147 51.9635Z" fill="black"/>
</g>
<defs>
<clipPath id="clip0_1730_2078">
<rect width="66.9704" height="26" fill="white" transform="translate(21 26)"/>
</clipPath>
</defs>
</svg>
