<svg width="78" height="78" viewBox="0 0 78 78" fill="none" xmlns="http://www.w3.org/2000/svg">
<rect x="0.5" y="0.5" width="77" height="77" rx="38.5" fill="white" stroke="white"/>
<g clip-path="url(#clip0_1730_2068)">
<path d="M28.8183 52.3009C28.4656 52.3009 28.1272 52.4411 27.8778 52.6905C27.6284 52.9399 27.4883 53.2782 27.4883 53.6309C27.4883 53.9837 27.6284 54.322 27.8778 54.5714C28.1272 54.8208 28.4656 54.9609 28.8183 54.9609C29.0648 54.9642 29.3072 54.8984 29.5182 54.7709L29.8183 55.0309L30.0883 54.6909L29.8583 54.5009C30.0723 54.2611 30.1929 53.9523 30.1982 53.6309C30.1904 53.272 30.0409 52.9307 29.7823 52.6815C29.5238 52.4324 29.1773 52.2956 28.8183 52.3009ZM29.2883 54.0109L29.0082 54.3509L29.1382 54.4609C29.0345 54.4929 28.9268 54.5097 28.8183 54.5109C28.6432 54.505 28.4738 54.4476 28.3312 54.3458C28.1887 54.2441 28.0793 54.1025 28.0168 53.9389C27.9544 53.7753 27.9416 53.5968 27.98 53.4259C28.0185 53.2551 28.1066 53.0994 28.2332 52.9783C28.3597 52.8572 28.5192 52.7762 28.6916 52.7453C28.864 52.7145 29.0417 52.7352 29.2024 52.8049C29.3631 52.8746 29.4996 52.9901 29.595 53.1371C29.6903 53.284 29.7401 53.4558 29.7383 53.6309C29.7381 53.8416 29.6597 54.0448 29.5182 54.2009L29.2883 54.0109Z" fill="#22181A"/>
<path d="M32.5007 53.8386C32.5096 53.9271 32.4991 54.0164 32.4699 54.1004C32.4407 54.1844 32.3935 54.261 32.3316 54.3249C32.2697 54.3887 32.1945 54.4382 32.1114 54.47C32.0284 54.5017 31.9393 54.5149 31.8506 54.5086C31.7623 54.5151 31.6736 54.502 31.5909 54.4702C31.5083 54.4384 31.4337 54.3887 31.3725 54.3247C31.3113 54.2606 31.265 54.1838 31.2371 54.0998C31.2091 54.0157 31.2 53.9265 31.2106 53.8386V52.3086H30.7706V53.8586C30.7561 54.0098 30.7734 54.1624 30.8213 54.3066C30.8692 54.4508 30.9467 54.5834 31.0489 54.6958C31.151 54.8083 31.2756 54.8981 31.4145 54.9596C31.5535 55.0211 31.7037 55.0529 31.8556 55.0529C32.0076 55.0529 32.1578 55.0211 32.2967 54.9596C32.4357 54.8981 32.5602 54.8083 32.6624 54.6958C32.7646 54.5834 32.8421 54.4508 32.89 54.3066C32.9379 54.1624 32.9552 54.0098 32.9407 53.8586V52.3086H32.5007V53.8386Z" fill="#22181A"/>
<path d="M34.5395 53.5386L33.7995 52.3086H33.2695L34.3195 54.0286V54.9486H34.7695V54.0286L35.8095 52.3086H35.2795L34.5395 53.5386Z" fill="#22181A"/>
<path d="M39.3598 54.09L37.9098 52.31H37.7598L37.7098 52.25V52.31H37.5898V54.95H38.0398V53.17L39.4898 54.95H39.6398L39.6898 55.01V54.95H39.8098V52.31H39.3598V54.09Z" fill="#22181A"/>
<path d="M42.13 53.5386H40.95V52.3086H40.5V54.9486H40.95V53.9786H42.13V54.9486H42.58V52.3086H42.13V53.5386Z" fill="#22181A"/>
<path d="M44.53 52.3009C44.2693 52.3107 44.0172 52.397 43.8052 52.549C43.5931 52.701 43.4305 52.9119 43.3375 53.1557C43.2444 53.3994 43.2251 53.6651 43.2819 53.9197C43.3388 54.1743 43.4692 54.4066 43.6571 54.5876C43.8449 54.7687 44.0819 54.8905 44.3384 54.9379C44.5949 54.9853 44.8597 54.9562 45.0999 54.8542C45.34 54.7522 45.5448 54.5819 45.6889 54.3644C45.8329 54.1469 45.9098 53.8918 45.91 53.6309C45.9021 53.272 45.7526 52.9307 45.4941 52.6815C45.2356 52.4324 44.889 52.2956 44.53 52.3009ZM44.53 54.5109C44.3549 54.505 44.1855 54.4476 44.043 54.3458C43.9004 54.2441 43.7911 54.1025 43.7286 53.9389C43.6661 53.7753 43.6533 53.5968 43.6918 53.4259C43.7303 53.2551 43.8183 53.0994 43.9448 52.9783C44.0714 52.8572 44.2309 52.7762 44.4033 52.7453C44.5757 52.7145 44.7534 52.7352 44.9141 52.8049C45.0748 52.8746 45.2113 52.9901 45.3067 53.1371C45.402 53.284 45.4518 53.4558 45.45 53.6309C45.4421 53.8688 45.3415 54.0941 45.1695 54.2586C44.9975 54.4231 44.7679 54.5137 44.53 54.5109Z" fill="#22181A"/>
<path d="M48.2488 52.31V54.09L46.7987 52.31H46.6488L46.5888 52.25V52.31H46.4688V54.95H46.9188V53.17L48.3688 54.95H48.5188L48.5688 55.01V54.95H48.6888V52.31H48.2488Z" fill="#22181A"/>
<path d="M39.1803 21.3604C39.2964 21.5072 39.3823 21.6756 39.4331 21.8558C39.4839 22.0359 39.4986 22.2244 39.4763 22.4103C39.454 22.5962 39.3951 22.7758 39.3031 22.9388C39.2111 23.1019 39.0878 23.2451 38.9403 23.3604C38.7411 23.5119 38.5074 23.6115 38.2602 23.6504H38.0902C37.7137 23.6984 37.3535 23.8332 37.038 24.0443C36.7225 24.2553 36.4604 24.5368 36.2722 24.8665C36.0841 25.1962 35.9752 25.5651 35.954 25.9441C35.9328 26.323 36 26.7018 36.1502 27.0504C36.1758 27.1232 36.1766 27.2025 36.1524 27.2759C36.1283 27.3493 36.0805 27.4126 36.0166 27.456C35.9526 27.4993 35.8762 27.5203 35.799 27.5157C35.7219 27.5111 35.6485 27.4811 35.5902 27.4304L35.4403 27.2504C34.7969 26.4178 34.5076 25.3652 34.6349 24.3208C34.7621 23.2763 35.2958 22.3241 36.1203 21.6704C36.5877 21.2967 37.1353 21.0366 37.7202 20.9104H37.9803C38.2015 20.8868 38.4252 20.9153 38.6335 20.9934C38.8418 21.0715 39.029 21.1972 39.1803 21.3604Z" fill="#22181A"/>
<path d="M44.442 28.0896C44.2456 28.2429 44.0124 28.3419 43.7657 28.3766C43.519 28.4113 43.2676 28.3805 43.0366 28.2873C42.8055 28.1941 42.6031 28.0417 42.4496 27.8455C42.2961 27.6493 42.1969 27.4162 42.1619 27.1696C42.1619 27.1696 42.1619 27.0696 42.1619 27.0196C42.1114 26.5805 41.9381 26.1646 41.6619 25.8196C41.3289 25.3953 40.8651 25.0928 40.3425 24.959C39.82 24.8252 39.2679 24.8676 38.7719 25.0796C38.7009 25.1022 38.6248 25.1028 38.5534 25.0814C38.482 25.06 38.4188 25.0175 38.3719 24.9596C38.3233 24.8966 38.2969 24.8192 38.2969 24.7396C38.2969 24.66 38.3233 24.5826 38.3719 24.5196L38.5519 24.3696C39.0837 23.9602 39.7098 23.6912 40.3728 23.5873C41.0358 23.4834 41.7142 23.548 42.3457 23.7751C42.9772 24.0021 43.5414 24.3845 43.9863 24.8868C44.4313 25.3891 44.7427 25.9953 44.8919 26.6496C44.8967 26.7362 44.8967 26.823 44.8919 26.9096C44.9138 27.1277 44.8846 27.3479 44.8065 27.5528C44.7283 27.7576 44.6035 27.9414 44.442 28.0896Z" fill="#22181A"/>
<path d="M37.7318 33.2593C37.4978 32.9656 37.3878 32.5922 37.4251 32.2186C37.4625 31.845 37.6443 31.5008 37.9318 31.2593C38.1245 31.1052 38.3566 31.0081 38.6018 30.9793H38.7717C39.2098 30.9317 39.6256 30.7619 39.9718 30.4893C40.3976 30.1482 40.6962 29.6736 40.8196 29.1421C40.9429 28.6106 40.8838 28.0531 40.6517 27.5593C40.6258 27.4879 40.6224 27.4103 40.6421 27.3369C40.6618 27.2636 40.7035 27.1981 40.7617 27.1493C40.8256 27.0982 40.905 27.0703 40.9868 27.0703C41.0686 27.0703 41.1479 27.0982 41.2117 27.1493C41.2117 27.1493 41.2117 27.1493 41.2617 27.1493L41.4218 27.3293C41.7625 27.737 42.0186 28.2085 42.1751 28.7163C42.3315 29.2241 42.3853 29.758 42.3331 30.2868C42.281 30.8155 42.124 31.3286 41.8714 31.7961C41.6188 32.2635 41.2756 32.676 40.8618 33.0093C40.3892 33.3683 39.8426 33.6177 39.2617 33.7393H39.0018C38.7672 33.7656 38.5297 33.7358 38.3089 33.6523C38.0881 33.5689 37.8903 33.4342 37.7318 33.2593Z" fill="#22181A"/>
<path d="M32.4505 26.6197C32.6478 26.4669 32.8816 26.3684 33.1288 26.334C33.3759 26.2996 33.6277 26.3304 33.8592 26.4234C34.0908 26.5164 34.2939 26.6684 34.4485 26.8642C34.6031 27.0601 34.7038 27.2929 34.7406 27.5397C34.7406 27.5397 34.7406 27.6497 34.7406 27.6997C34.798 28.1369 34.9706 28.5511 35.2406 28.8997C35.5742 29.3262 36.0398 29.6301 36.5644 29.764C37.0891 29.8979 37.6433 29.8542 38.1405 29.6397C38.2087 29.6138 38.2835 29.6105 38.3537 29.6303C38.424 29.6501 38.486 29.692 38.5306 29.7497C38.5835 29.8128 38.6125 29.8924 38.6125 29.9747C38.6125 30.057 38.5835 30.1367 38.5306 30.1997C38.4801 30.2602 38.4192 30.311 38.3506 30.3497C37.518 30.9931 36.4654 31.2824 35.421 31.1551C34.3765 31.0279 33.4243 30.4942 32.7705 29.6697C32.3972 29.2021 32.1371 28.6545 32.0105 28.0697C32.0105 27.9797 32.0105 27.8897 32.0105 27.8097C31.9896 27.591 32.0183 27.3705 32.0945 27.1644C32.1707 26.9584 32.2924 26.7722 32.4505 26.6197Z" fill="#22181A"/>
<path d="M47.5319 23.6383C47.4379 23.7992 47.3131 23.9398 47.1645 24.0522C47.0159 24.1645 46.8465 24.2463 46.6661 24.2928C46.4857 24.3393 46.2979 24.3495 46.1135 24.323C45.9291 24.2965 45.7518 24.2337 45.5918 24.1383C45.3764 24.0118 45.1999 23.8285 45.0818 23.6083L45.0419 23.4583C44.8346 23.0678 44.523 22.7424 44.1418 22.5183C43.6751 22.2314 43.1254 22.1098 42.5812 22.1733C42.037 22.2368 41.53 22.4816 41.1418 22.8683C41.0816 22.91 41.0101 22.9324 40.9369 22.9324C40.8636 22.9324 40.7921 22.91 40.7319 22.8683C40.6615 22.8268 40.6073 22.7627 40.5782 22.6863C40.5492 22.61 40.547 22.5261 40.5719 22.4483C40.5676 22.4285 40.5676 22.4081 40.5719 22.3883C40.6046 22.3163 40.6413 22.2462 40.6819 22.1783C41.2278 21.2766 42.1076 20.6268 43.1301 20.3703C44.1525 20.1137 45.2348 20.2712 46.1418 20.8083C46.6554 21.1127 47.0931 21.5299 47.4219 22.0283C47.4719 22.1083 47.5219 22.1783 47.5619 22.2583C47.6795 22.4704 47.7386 22.7099 47.7333 22.9524C47.7281 23.1948 47.6585 23.4315 47.5319 23.6383Z" fill="#22181A"/>
<path d="M42.8318 36.2493C42.4853 36.0996 42.212 35.8191 42.0715 35.4688C41.931 35.1185 41.9347 34.7269 42.0818 34.3793C42.1795 34.1505 42.3345 33.9508 42.5318 33.7993C42.5785 33.7786 42.6222 33.7516 42.6618 33.7193C42.9677 33.4956 43.2176 33.2039 43.3917 32.8673C43.5658 32.5306 43.6595 32.1582 43.6653 31.7792C43.6711 31.4002 43.5889 31.0251 43.4252 30.6833C43.2615 30.3414 43.0207 30.0423 42.7218 29.8093C42.6653 29.7615 42.626 29.6966 42.6097 29.6244C42.5935 29.5522 42.6013 29.4767 42.6318 29.4093C42.661 29.3334 42.7163 29.2706 42.7879 29.232C42.8594 29.1935 42.9424 29.1819 43.0218 29.1993H43.0918L43.3118 29.2793C44.2787 29.6975 45.0416 30.4803 45.4347 31.4576C45.8279 32.435 45.8197 33.528 45.4118 34.4993C45.1921 35.0489 44.8501 35.5414 44.4118 35.9393L44.2018 36.0993C44.0049 36.2385 43.7759 36.3254 43.5362 36.3516C43.2966 36.3779 43.0541 36.3426 42.8318 36.2493Z" fill="#22181A"/>
<path d="M29.7508 32.3401C29.8154 32.1644 29.914 32.0033 30.0411 31.8659C30.1681 31.7286 30.3211 31.6177 30.4911 31.5396C30.6612 31.4616 30.845 31.4179 31.032 31.4111C31.219 31.4043 31.4055 31.4345 31.5807 31.5001C31.8125 31.5828 32.0167 31.7282 32.1708 31.9201L32.2707 32.0401C32.5109 32.3327 32.8155 32.566 33.1606 32.7218C33.5057 32.8775 33.882 32.9515 34.2604 32.9379C34.6388 32.9244 35.0089 32.8237 35.342 32.6437C35.6751 32.4636 35.9621 32.2092 36.1808 31.9001C36.2288 31.8439 36.2926 31.8033 36.3639 31.7837C36.4352 31.7641 36.5107 31.7663 36.5807 31.7901C36.6564 31.8172 36.72 31.8702 36.7603 31.9398C36.8006 32.0094 36.8149 32.0909 36.8008 32.1701C36.8008 32.1701 36.8008 32.1701 36.8008 32.2301C36.7821 32.3081 36.7587 32.3849 36.7307 32.4601C36.4931 33.0872 36.1016 33.6446 35.5923 34.0808C35.0829 34.5171 34.472 34.8183 33.8158 34.9567C33.1595 35.0951 32.479 35.0663 31.8368 34.873C31.1946 34.6796 30.6114 34.3278 30.1407 33.8501C30.0788 33.7881 30.0219 33.7212 29.9707 33.6501C29.8308 33.4658 29.7378 33.2503 29.6994 33.0222C29.6611 32.794 29.6787 32.5599 29.7508 32.3401Z" fill="#22181A"/>
<path d="M33.4487 18.7099C33.6224 18.7763 33.7814 18.8764 33.9163 19.0045C34.0511 19.1326 34.1593 19.2861 34.2346 19.4562C34.3099 19.6263 34.3509 19.8097 34.355 19.9956C34.3591 20.1816 34.3263 20.3666 34.2587 20.5399C34.1748 20.7764 34.0257 20.9844 33.8287 21.1399L33.6987 21.2298C33.3541 21.4876 33.0848 21.8329 32.9187 22.2298C32.725 22.7351 32.7033 23.2902 32.857 23.809C33.0107 24.3278 33.3311 24.7816 33.7687 25.0999C33.8243 25.1483 33.8638 25.2126 33.8817 25.2841C33.8995 25.3557 33.895 25.431 33.8687 25.4999C33.8397 25.5763 33.7847 25.6402 33.7135 25.6804C33.6423 25.7206 33.5592 25.7345 33.4787 25.7199H33.4187L33.1987 25.6399C32.2164 25.2555 31.4257 24.4987 30.9987 23.5341C30.5716 22.5696 30.5429 21.4755 30.9187 20.4898C31.137 19.9337 31.479 19.4344 31.9187 19.0299L32.1187 18.8599C32.311 18.7274 32.5329 18.6445 32.7649 18.6183C32.9969 18.5922 33.2317 18.6236 33.4487 18.7099Z" fill="#22181A"/>
<path d="M46.5311 31.6886C46.1594 31.6272 45.8269 31.4215 45.6059 31.1163C45.3849 30.811 45.2934 30.431 45.3511 30.0586C45.3924 29.8134 45.4957 29.5827 45.6511 29.3886C45.6896 29.3569 45.7233 29.3199 45.7512 29.2786C46.0391 28.9404 46.2262 28.528 46.2911 28.0886C46.3782 27.555 46.2848 27.0077 46.0258 26.5332C45.7668 26.0586 45.357 25.684 44.8612 25.4686C44.7959 25.4359 44.7425 25.3836 44.7084 25.3191C44.6744 25.2545 44.6613 25.1809 44.6712 25.1086C44.6848 25.0272 44.7261 24.953 44.788 24.8983C44.8499 24.8437 44.9286 24.812 45.0111 24.8086H45.0911H45.3212C45.9815 24.9207 46.6031 25.1969 47.129 25.6117C47.6548 26.0266 48.0681 26.5668 48.3309 27.1829C48.5936 27.799 48.6975 28.4713 48.6329 29.1379C48.5683 29.8046 48.3373 30.4444 47.9611 30.9986L47.8012 31.2086C47.647 31.389 47.4497 31.5276 47.2277 31.6115C47.0057 31.6954 46.7661 31.7219 46.5311 31.6886Z" fill="#22181A"/>
<path d="M35.2005 36.2502C35.1925 36.0637 35.2214 35.8774 35.2854 35.702C35.3494 35.5267 35.4473 35.3657 35.5736 35.2282C35.7 35.0907 35.8522 34.9795 36.0215 34.9009C36.1909 34.8223 36.3741 34.7779 36.5606 34.7702C36.8107 34.7562 37.0599 34.8116 37.2806 34.9302L37.4106 35.0102C37.7948 35.2238 38.2316 35.3243 38.6706 35.3002C39.2106 35.2776 39.728 35.0771 40.1422 34.7298C40.5564 34.3825 40.8441 33.908 40.9605 33.3802C40.9791 33.3041 41.0228 33.2364 41.0844 33.188C41.1461 33.1396 41.2222 33.1133 41.3006 33.1133C41.379 33.1133 41.4551 33.1396 41.5167 33.188C41.5783 33.2364 41.6219 33.3041 41.6405 33.3802C41.6452 33.3999 41.6452 33.4205 41.6405 33.4402C41.6455 33.5201 41.6455 33.6003 41.6405 33.6802C41.6813 34.733 41.3052 35.7593 40.5937 36.5364C39.8822 37.3134 38.8928 37.7783 37.8406 37.8302C37.2439 37.8548 36.6494 37.7454 36.1006 37.5102L35.8606 37.4002C35.6665 37.2754 35.5052 37.1058 35.3904 36.9057C35.2755 36.7056 35.2104 36.4808 35.2005 36.2502Z" fill="#22181A"/>
<path d="M29.6689 24.0705C29.9188 24.0666 30.1652 24.1292 30.3829 24.2518C30.6006 24.3745 30.7818 24.5527 30.908 24.7684C31.0341 24.9841 31.1007 25.2294 31.1008 25.4793C31.101 25.7292 31.0348 25.9746 30.9089 26.1905L30.8289 26.3205C30.6354 26.647 30.5204 27.0141 30.493 27.3927C30.4656 27.7713 30.5265 28.1511 30.671 28.5021C30.8155 28.8532 31.0396 29.1658 31.3256 29.4154C31.6115 29.665 31.9516 29.8448 32.319 29.9405C32.3893 29.9653 32.45 30.0114 32.493 30.0723C32.536 30.1332 32.5591 30.2059 32.559 30.2805C32.5602 30.3612 32.5327 30.4397 32.4814 30.5019C32.4301 30.5642 32.3584 30.6063 32.2789 30.6205H31.9589C31.2885 30.6162 30.63 30.4435 30.0438 30.1183C29.4576 29.7931 28.9625 29.3257 28.6041 28.7592C28.2456 28.1927 28.0354 27.5452 27.9926 26.8762C27.9497 26.2071 28.0757 25.5381 28.3589 24.9305C28.3963 24.8506 28.4398 24.7737 28.489 24.7005C28.6194 24.5072 28.7951 24.3488 29.0007 24.239C29.2064 24.1292 29.4358 24.0713 29.6689 24.0705Z" fill="#22181A"/>
<path d="M42.2603 19.0096C42.2176 19.3841 42.0287 19.7266 41.7346 19.9626C41.4406 20.1986 41.0653 20.3089 40.6904 20.2695C40.4428 20.2454 40.207 20.1518 40.0103 19.9996L39.8903 19.8996C39.5365 19.6355 39.119 19.4699 38.6804 19.4196C38.144 19.361 37.6033 19.4813 37.1422 19.7615C36.6811 20.0418 36.3254 20.4664 36.1304 20.9696C36.1005 21.0377 36.0491 21.0941 35.9841 21.1303C35.9191 21.1664 35.844 21.1802 35.7703 21.1696C35.688 21.1646 35.6105 21.129 35.5532 21.0698C35.4958 21.0105 35.4627 20.932 35.4603 20.8496V20.7796C35.4559 20.7029 35.4559 20.6262 35.4603 20.5495C35.581 19.5029 36.1098 18.5462 36.9318 17.8871C37.7537 17.2281 38.8025 16.9199 39.8504 17.0296C40.4429 17.0979 41.013 17.2959 41.5203 17.6096L41.7404 17.7596C41.9222 17.9099 42.0646 18.1023 42.1552 18.3201C42.2458 18.538 42.2819 18.7746 42.2603 19.0096Z" fill="#22181A"/>
<path d="M27.59 46.9491L24.59 42.0391H24V49.4291H24.8V43.8891L27.59 48.4591L30.37 43.8891V49.4291H31.18V42.0391H30.6L27.59 46.9491Z" fill="#22181A"/>
<path d="M36.5214 42.0391L33.1914 49.4591H34.0414L34.9314 47.4591H38.6214L39.5214 49.4591H40.3914L37.0414 42.0391H36.5214ZM35.2814 46.6691L36.7914 43.2391L38.3214 46.6691H35.2814Z" fill="#22181A"/>
<path d="M43.2219 42.0391H42.4219V49.4291H43.2219V42.0391Z" fill="#22181A"/>
<path d="M49.3197 42.0391H48.7596L45.4297 49.4591H46.3097L47.1897 47.4591H50.8797L51.7797 49.4591H52.6497L49.3197 42.0391ZM47.5297 46.6691L49.0397 43.2391L50.5597 46.6691H47.5297Z" fill="#22181A"/>
<path d="M27.5703 59.2484C27.5703 58.9384 27.8103 58.7984 28.1403 58.7984C28.2565 58.7952 28.3722 58.8156 28.4803 58.8584C28.4803 58.6984 28.3803 58.6084 28.1803 58.6084C28.0469 58.6055 27.9143 58.6293 27.7903 58.6784L27.6903 58.3784C27.8629 58.3005 28.051 58.2629 28.2403 58.2684C28.3247 58.2605 28.4098 58.2697 28.4906 58.2955C28.5714 58.3212 28.646 58.363 28.7103 58.4184C28.7658 58.4788 28.8087 58.5497 28.8362 58.6271C28.8637 58.7044 28.8753 58.7865 28.8703 58.8684V59.6884H28.4803V59.4584C28.4281 59.5178 28.3633 59.5648 28.2906 59.596C28.218 59.6271 28.1393 59.6416 28.0603 59.6384C28.0025 59.6453 27.9438 59.6407 27.8878 59.6248C27.8317 59.6089 27.7793 59.5821 27.7338 59.5458C27.6882 59.5095 27.6503 59.4645 27.6222 59.4135C27.5941 59.3624 27.5765 59.3063 27.5703 59.2484ZM28.4903 59.1584V59.0884C28.4045 59.0714 28.3161 59.0714 28.2303 59.0884C28.0603 59.0884 27.9603 59.1584 27.9603 59.2784C27.9603 59.3884 28.0503 59.4484 28.1803 59.4484C28.3103 59.4484 28.4903 59.3084 28.4903 59.1584Z" fill="#22181A"/>
<path d="M30.381 58.5909H30.2109V58.2609H30.381V58.1809C30.3743 58.1181 30.3806 58.0547 30.3995 57.9945C30.4185 57.9342 30.4496 57.8786 30.491 57.8309C30.5344 57.7924 30.585 57.7628 30.64 57.7439C30.6949 57.725 30.753 57.7172 30.811 57.7209C30.9072 57.7076 31.0047 57.7076 31.101 57.7209V58.0509C31.0414 58.0404 30.9805 58.0404 30.921 58.0509C30.9005 58.0474 30.8795 58.0489 30.8597 58.0552C30.8399 58.0615 30.8219 58.0724 30.8072 58.0871C30.7925 58.1018 30.7815 58.1198 30.7752 58.1396C30.7689 58.1594 30.7674 58.1804 30.7709 58.2009V58.2609H31.0909V58.5809H30.7809V59.6509H30.381V58.5909Z" fill="#22181A"/>
<path d="M31.4609 59.16V58.25H31.861V59.04C31.861 59.22 31.941 59.32 32.101 59.32C32.1365 59.3203 32.1716 59.3129 32.2041 59.2986C32.2366 59.2842 32.2656 59.263 32.2892 59.2365C32.3129 59.21 32.3307 59.1788 32.3413 59.1449C32.3519 59.111 32.3552 59.0753 32.351 59.04V58.25H32.741V59.66H32.351V59.46C32.3034 59.5273 32.2405 59.5824 32.1675 59.6207C32.0945 59.6589 32.0134 59.6793 31.931 59.68C31.631 59.68 31.4609 59.46 31.4609 59.16Z" fill="#22181A"/>
<path d="M33.1484 59.4615L33.3185 59.2015C33.4444 59.3016 33.5979 59.361 33.7584 59.3715C33.8784 59.3715 33.9285 59.3715 33.9285 59.2615C33.9285 59.1715 33.7884 59.1415 33.6384 59.0915C33.4884 59.0415 33.2184 58.9415 33.2184 58.6715C33.2195 58.6075 33.2338 58.5444 33.2606 58.4862C33.2874 58.4281 33.326 58.3762 33.374 58.3338C33.422 58.2915 33.4783 58.2596 33.5394 58.2403C33.6004 58.2209 33.6648 58.2145 33.7285 58.2215C33.9167 58.2239 34.1003 58.2793 34.2584 58.3815L34.0984 58.6615C33.9853 58.5857 33.8543 58.5409 33.7184 58.5315C33.6284 58.5315 33.5784 58.5315 33.5784 58.6215C33.5784 58.6915 33.7085 58.7415 33.8585 58.7915C34.0085 58.8415 34.2885 58.9515 34.2885 59.2015C34.2885 59.5115 34.0485 59.6515 33.7485 59.6515C33.5332 59.6544 33.3228 59.5877 33.1484 59.4615Z" fill="#22181A"/>
<path d="M34.7383 57.7383H35.1583V58.0983H34.7383V57.7383ZM34.7383 58.2483H35.1382V59.6583H34.7383V58.2483Z" fill="#22181A"/>
<path d="M35.6094 58.9611C35.6093 58.8626 35.6291 58.7652 35.6677 58.6746C35.7062 58.584 35.7627 58.5022 35.8337 58.434C35.9047 58.3658 35.9888 58.3127 36.0808 58.2778C36.1729 58.2429 36.271 58.227 36.3694 58.2311C36.4669 58.2271 36.5642 58.2426 36.6556 58.2769C36.747 58.3112 36.8306 58.3634 36.9015 58.4305C36.9723 58.4976 37.029 58.5783 37.0682 58.6677C37.1073 58.7571 37.1281 58.8535 37.1294 58.9511C37.1294 59.1527 37.0493 59.346 36.9067 59.4885C36.7642 59.631 36.5709 59.7111 36.3694 59.7111C36.1678 59.7111 35.9745 59.631 35.832 59.4885C35.6894 59.346 35.6094 59.1527 35.6094 58.9511V58.9611ZM36.7394 58.9611C36.7421 58.9108 36.7345 58.8606 36.7172 58.8133C36.6998 58.7661 36.6729 58.7229 36.6383 58.6864C36.6037 58.6499 36.562 58.6209 36.5157 58.601C36.4695 58.5812 36.4197 58.571 36.3694 58.5711C36.3195 58.5696 36.2699 58.5785 36.2237 58.5972C36.1775 58.616 36.1357 58.6441 36.1009 58.6798C36.0661 58.7155 36.0391 58.7581 36.0216 58.8048C36.0041 58.8515 35.9966 58.9013 35.9994 58.9511C35.9981 59.001 36.0065 59.0507 36.0244 59.0973C36.0423 59.1439 36.0692 59.1865 36.1036 59.2228C36.1379 59.259 36.1791 59.2881 36.2247 59.3084C36.2703 59.3287 36.3195 59.3398 36.3694 59.3411C36.4188 59.3411 36.4678 59.3312 36.5133 59.312C36.5589 59.2928 36.6001 59.2646 36.6346 59.2292C36.6691 59.1938 36.6961 59.1518 36.7141 59.1058C36.7321 59.0597 36.7407 59.0105 36.7394 58.9611Z" fill="#22181A"/>
<path d="M37.5781 58.2505H37.9681V58.4505C38.0157 58.3831 38.0786 58.3281 38.1516 58.2898C38.2246 58.2516 38.3057 58.2312 38.3881 58.2305C38.6881 58.2305 38.8582 58.4205 38.8582 58.7505V59.6605H38.4681V58.8705C38.4681 58.6805 38.3781 58.5905 38.2181 58.5905C38.0581 58.5905 37.9681 58.6805 37.9681 58.8705V59.6605H37.5781V58.2505Z" fill="#22181A"/>
<path d="M40.3086 58.2492H40.7086V58.5292C40.7362 58.4342 40.7965 58.352 40.8788 58.2971C40.9612 58.2422 41.0602 58.2182 41.1586 58.2292V58.6392C40.8886 58.6392 40.7286 58.7992 40.7286 59.1392V59.6592H40.3286L40.3086 58.2492Z" fill="#22181A"/>
<path d="M41.4889 58.9605C41.4849 58.8661 41.5 58.7718 41.5334 58.6834C41.5667 58.595 41.6176 58.5142 41.683 58.446C41.7484 58.3778 41.827 58.3235 41.9139 58.2865C42.0009 58.2494 42.0944 58.2304 42.1889 58.2305C42.2854 58.2298 42.3808 58.2497 42.469 58.2887C42.5572 58.3278 42.6361 58.3852 42.7004 58.457C42.7647 58.5289 42.813 58.6137 42.8421 58.7056C42.8711 58.7976 42.8803 58.8947 42.8689 58.9905V59.0905H41.8689C41.8812 59.1708 41.9226 59.2438 41.9854 59.2955C42.0481 59.3472 42.1277 59.3739 42.2089 59.3705C42.2732 59.3725 42.3371 59.3601 42.396 59.3341C42.4548 59.3081 42.5071 59.2693 42.5489 59.2205L42.7789 59.4305C42.7106 59.5151 42.6236 59.5827 42.5246 59.6278C42.4257 59.6729 42.3176 59.6944 42.2089 59.6905C42.1131 59.6919 42.0181 59.6739 41.9294 59.6375C41.8408 59.6012 41.7604 59.5473 41.6931 59.4791C41.6259 59.4109 41.5731 59.3298 41.538 59.2407C41.5029 59.1515 41.4862 59.0562 41.4889 58.9605ZM42.4889 58.8405C42.484 58.7635 42.4505 58.6911 42.395 58.6375C42.3395 58.5838 42.2661 58.5528 42.1889 58.5505C42.0189 58.5505 41.9189 58.6605 41.8789 58.8405H42.4889Z" fill="#22181A"/>
<path d="M43.2188 59.4615L43.3887 59.2015C43.5147 59.3016 43.6682 59.361 43.8287 59.3715C43.9387 59.3715 43.9988 59.3715 43.9988 59.2615C43.9988 59.1715 43.8587 59.1415 43.7087 59.0915C43.5587 59.0415 43.2888 58.9415 43.2888 58.6715C43.2898 58.6075 43.3041 58.5444 43.3309 58.4862C43.3577 58.4281 43.3963 58.3762 43.4443 58.3338C43.4923 58.2915 43.5487 58.2596 43.6097 58.2403C43.6707 58.2209 43.7351 58.2145 43.7988 58.2215C43.9836 58.2257 44.1636 58.2811 44.3188 58.3815L44.1688 58.6615C44.0541 58.5888 43.9239 58.5442 43.7888 58.5315C43.6988 58.5315 43.6487 58.5315 43.6487 58.6215C43.6487 58.6915 43.7788 58.7415 43.9288 58.7915C44.0788 58.8415 44.3588 58.9515 44.3588 59.2015C44.3588 59.5115 44.1188 59.6515 43.8188 59.6515C43.6029 59.659 43.391 59.5919 43.2188 59.4615Z" fill="#22181A"/>
<path d="M44.7305 58.9611C44.7304 58.8626 44.7502 58.7652 44.7888 58.6746C44.8273 58.584 44.8838 58.5022 44.9548 58.434C45.0258 58.3658 45.1098 58.3127 45.2019 58.2778C45.294 58.2429 45.3921 58.227 45.4905 58.2311C45.588 58.2271 45.6853 58.2426 45.7767 58.2769C45.8681 58.3112 45.9517 58.3634 46.0226 58.4305C46.0934 58.4976 46.1501 58.5783 46.1893 58.6677C46.2284 58.7571 46.2492 58.8535 46.2505 58.9511C46.2505 59.1527 46.1704 59.346 46.0279 59.4885C45.8854 59.631 45.692 59.7111 45.4905 59.7111C45.2889 59.7111 45.0956 59.631 44.9531 59.4885C44.8105 59.346 44.7305 59.1527 44.7305 58.9511V58.9611ZM45.8605 58.9611C45.8632 58.9108 45.8556 58.8606 45.8383 58.8133C45.8209 58.7661 45.794 58.7229 45.7594 58.6864C45.7248 58.6499 45.6831 58.6209 45.6368 58.601C45.5906 58.5812 45.5408 58.571 45.4905 58.5711C45.4406 58.5696 45.391 58.5785 45.3448 58.5972C45.2986 58.616 45.2568 58.6441 45.222 58.6798C45.1872 58.7155 45.1602 58.7581 45.1427 58.8048C45.1252 58.8515 45.1177 58.9013 45.1205 58.9511C45.1192 59.001 45.1276 59.0507 45.1455 59.0973C45.1634 59.1439 45.1903 59.1865 45.2247 59.2228C45.259 59.259 45.3002 59.2881 45.3458 59.3084C45.3914 59.3287 45.4406 59.3398 45.4905 59.3411C45.5399 59.3411 45.5888 59.3312 45.6344 59.312C45.68 59.2928 45.7212 59.2646 45.7557 59.2292C45.7902 59.1938 45.8172 59.1518 45.8352 59.1058C45.8532 59.0597 45.8618 59.0105 45.8605 58.9611Z" fill="#22181A"/>
<path d="M46.6992 58.2484H47.0892V58.5284C47.1186 58.4344 47.1793 58.3534 47.2612 58.2988C47.3431 58.2442 47.4412 58.2193 47.5392 58.2284V58.6384C47.2792 58.6384 47.1093 58.7984 47.1093 59.1384V59.6584H46.7192L46.6992 58.2484Z" fill="#22181A"/>
<path d="M48.0389 59.2606V58.5906H47.8789V58.2506H48.0389V57.8906H48.4389V58.2506H48.7689V58.5906H48.4389V59.1906C48.4389 59.2806 48.4389 59.3306 48.5689 59.3306C48.6385 59.3293 48.7068 59.3122 48.7689 59.2806V59.6006C48.6716 59.6562 48.5608 59.6839 48.4489 59.6806C48.1789 59.6806 48.0389 59.5806 48.0389 59.2606Z" fill="#22181A"/>
</g>
<defs>
<clipPath id="clip0_1730_2068">
<rect width="28.64" height="42.69" fill="white" transform="translate(24 17)"/>
</clipPath>
</defs>
</svg>
