<svg width="150" height="78" viewBox="0 0 150 78" fill="none" xmlns="http://www.w3.org/2000/svg">
<rect x="0.5" y="0.5" width="149" height="77" fill="white" stroke="white"/>
<g clip-path="url(#clip0_1730_2067)">
<path d="M55.4951 45.0234V46.315C54.9655 45.8217 54.2764 45.5386 53.5556 45.5183C53.2054 45.5131 52.8579 45.5825 52.5361 45.7218C52.2143 45.8612 51.9253 46.0674 51.6879 46.3271C51.436 46.5841 51.2382 46.8898 51.1065 47.2258C50.9749 47.5619 50.912 47.9213 50.9216 48.2825C50.9134 48.6381 50.9771 48.9916 51.1088 49.3216C51.2405 49.6516 51.4376 49.951 51.6879 50.2017C51.9283 50.4558 52.2185 50.6567 52.54 50.7918C52.8615 50.9268 53.2073 50.9931 53.5556 50.9863C53.8893 50.9985 54.2213 50.9324 54.5254 50.7932C54.6905 50.7277 54.8472 50.6426 54.9923 50.5397C55.167 50.4205 55.3348 50.2916 55.4951 50.1534V51.4812C54.9004 51.8221 54.2278 52.001 53.5436 52.0002C53.0564 52.0066 52.573 51.915 52.1213 51.7308C51.6697 51.5465 51.2591 51.2733 50.9135 50.9271C50.5679 50.5809 50.2942 50.1687 50.1085 49.7146C49.9228 49.2605 49.8289 48.7736 49.8321 48.2825C49.8374 47.3936 50.1605 46.5365 50.742 45.8684C51.0901 45.4391 51.5312 45.0962 52.0315 44.866C52.5317 44.6358 53.0777 44.5245 53.6274 44.5406C54.2815 44.5311 54.9263 44.6978 55.4951 45.0234Z" fill="black"/>
<path d="M63.5058 50.1184H60.4288L59.6387 51.8807H58.4414L62.0332 44.1797L65.4574 51.8807H64.2601L63.5058 50.1184ZM63.0628 49.0924L61.9972 46.6783L60.8838 49.0924H63.0628Z" fill="black"/>
<path d="M69.7216 48.9354V51.9409H68.668V44.6986H69.8652C70.3234 44.6829 70.7817 44.7234 71.2301 44.8193C71.5398 44.903 71.8212 45.0699 72.0443 45.3021C72.2474 45.5005 72.4076 45.7391 72.5148 46.0029C72.6219 46.2667 72.6737 46.5501 72.6669 46.8351C72.6783 47.1312 72.6253 47.4262 72.5116 47.6994C72.3978 47.9726 72.226 48.2173 72.0083 48.4163C71.5037 48.8224 70.8692 49.0285 70.2244 48.9957L69.7216 48.9354ZM69.7216 47.9214H70.1286C71.1223 47.9214 71.6133 47.5352 71.6133 46.7144C71.6133 45.8936 71.0984 45.5918 70.0807 45.5918H69.7216V47.9214Z" fill="black"/>
<path d="M77.144 44.6992V51.9416H76.0664V44.6992H77.144Z" fill="black"/>
<path d="M83.14 45.6649V51.9416H82.0624V45.6649H80.4102V44.6992H84.7921V45.7252L83.14 45.6649Z" fill="black"/>
<path d="M91.8691 50.1184H88.7921L88.002 51.8807H86.8047L90.3965 44.1797L93.8086 51.9411H92.6114L91.8691 50.1184ZM91.4261 49.0924L90.3605 46.6783L89.2471 49.0924H91.4261Z" fill="black"/>
<path d="M98.0817 44.6992V50.9035H100.189V51.9416H96.9922V44.6992H98.0817Z" fill="black"/>
<path d="M33 40.8709L35.8854 26L40.5906 36.7428L45.4635 26L48.0616 40.8709H45.9185L44.6015 32.5181L40.5428 41.4986L36.6038 32.5181L35.1431 40.8709H33Z" fill="black"/>
<path d="M58.5237 29.0066H53.0283V32.326H58.3681V34.2814H53.0283V38.9044H58.5237V40.8719H50.957V27.0391H58.5237V29.0066Z" fill="black"/>
<path d="M63.3135 32.5553L68.6533 27.0391H71.4189L65.2171 33.3037L71.4549 40.8719H68.6652L63.7325 34.7159L63.3015 35.1505V40.8719H61.2422V27.0391H63.3135V32.5553Z" fill="black"/>
<path d="M88.7812 40.872V26.0977L98.7784 36.6473V26.9909H100.85V41.6566L90.8406 31.1432V40.7996L88.7812 40.872Z" fill="black"/>
<path d="M111.327 33.6648H117.002V34.1234C117.011 35.0581 116.886 35.9892 116.63 36.8876C116.373 37.6535 115.966 38.3595 115.433 38.9637C114.826 39.6536 114.076 40.2005 113.236 40.5655C112.396 40.9306 111.487 41.1049 110.572 41.0761C109.652 41.0866 108.74 40.9067 107.891 40.5475C107.043 40.1883 106.276 39.6575 105.64 38.9879C104.498 37.7723 103.809 36.1955 103.69 34.5256C103.572 32.8558 104.03 31.1961 104.989 29.8288C105.947 28.4615 107.345 27.4711 108.946 27.0261C110.547 26.5812 112.251 26.7091 113.769 27.3881C114.77 27.9247 115.657 28.6548 116.379 29.5366L114.906 30.9609C114.457 30.2737 113.848 29.7077 113.133 29.3122C112.417 28.9166 111.616 28.7036 110.8 28.6917C110.12 28.6763 109.444 28.8036 108.816 29.0654C108.187 29.3272 107.619 29.7178 107.148 30.2126C106.664 30.6982 106.284 31.2785 106.03 31.9179C105.777 32.5573 105.656 33.2421 105.675 33.9303C105.655 34.6484 105.791 35.3623 106.075 36.0215C106.358 36.6806 106.782 37.2689 107.316 37.7446C108.213 38.6127 109.401 39.1084 110.644 39.1327C111.656 39.1371 112.633 38.7629 113.386 38.0826C113.769 37.781 114.088 37.404 114.323 36.9745C114.557 36.545 114.703 36.0719 114.751 35.584H111.327V33.6648Z" fill="black"/>
<path d="M82.3289 32.6286C82.3289 32.6286 81.3352 33.1959 82.8438 33.5942C84.3523 33.9926 86.6511 35.2358 85.0707 36.7084C83.6819 38 79.5872 38.8691 77.6836 41.5367C78.2458 41.6625 78.8198 41.7272 79.3957 41.7298C80.3904 41.7314 81.3756 41.5352 82.295 41.1526C83.2144 40.7699 84.0499 40.2082 84.7538 39.4997C85.4577 38.7912 86.0162 37.9496 86.3972 37.0233C86.7782 36.097 86.9743 35.104 86.9743 34.1012C86.9684 33.4281 86.8759 32.7586 86.6989 32.1096C85.223 32.0089 83.7413 32.1849 82.3289 32.6286Z" fill="black"/>
<path d="M78.449 36.418C82.0408 36.1766 83.0465 35.2955 81.502 34.535C80.775 34.2237 80.0709 33.8606 79.3949 33.4487C78.7843 33.0262 78.3293 31.7226 86.3031 30.938C85.5952 29.3411 84.3646 28.0379 82.8173 27.2468C81.27 26.4557 79.5001 26.2247 77.804 26.5924C76.1079 26.9601 74.5886 27.9043 73.5007 29.2668C72.4127 30.6293 71.8223 32.3273 71.8282 34.0763C71.8226 35.4884 72.2127 36.8734 72.9536 38.0717C74.6399 37.1135 76.5177 36.5484 78.449 36.418Z" fill="black"/>
</g>
<defs>
<clipPath id="clip0_1730_2067">
<rect width="84" height="26" fill="white" transform="translate(33 26)"/>
</clipPath>
</defs>
</svg>
