<svg width="150" height="78" viewBox="0 0 150 78" fill="none" xmlns="http://www.w3.org/2000/svg">
<rect x="0.5" y="0.5" width="149" height="77" fill="#414141" stroke="#414141"/>
<g clip-path="url(#clip0_1730_2071)">
<path d="M101.216 25.9993V38.3996C101.216 38.5207 101.216 38.5206 101.084 38.5317H100.336C100.306 38.5324 100.277 38.5245 100.252 38.5089C100.226 38.4932 100.206 38.4706 100.193 38.4436L98.5757 35.869C98.2456 35.3518 97.9265 34.8236 97.5964 34.2955C97.2663 33.7674 96.7932 33.0192 96.3971 32.381L94.8127 29.8613C94.3616 29.1461 93.9104 28.4309 93.4703 27.7158L92.4691 26.1423C92.4691 26.1423 92.4691 26.0433 92.4141 25.9993H95.2748V26.0873L96.21 27.6057L97.3103 29.3222L98.4106 31.1707L99.5109 32.8651L100.105 33.8444C100.204 34.0094 100.292 34.1745 100.391 34.3285C100.391 34.3285 100.391 34.2625 100.391 34.2185V25.9883L101.216 25.9993Z" fill="white"/>
<path d="M114.365 38.4759H112.319C112.274 38.4809 112.229 38.4706 112.191 38.4466C112.153 38.4226 112.124 38.3864 112.11 38.3439C111.978 37.9698 111.835 37.6067 111.703 37.2436L111.207 35.9452L110.877 35.076L110.349 33.6456C110.351 33.62 110.351 33.5942 110.349 33.5686C110.349 33.5686 110.349 33.5136 110.261 33.5136H106.245C106.232 33.5104 106.219 33.5098 106.205 33.512C106.192 33.5141 106.179 33.519 106.168 33.5262C106.157 33.5334 106.147 33.5428 106.14 33.5539C106.132 33.5649 106.127 33.5775 106.124 33.5906L105.959 34.0307L105.464 35.3401L105.079 36.3634C104.925 36.7485 104.782 37.1336 104.639 37.5187C104.496 37.9038 104.408 38.1238 104.298 38.4209H103.803C103.8 38.3879 103.8 38.3549 103.803 38.3219L104.1 37.5407C104.243 37.1446 104.397 36.7595 104.54 36.3634C104.683 35.9673 104.87 35.4721 105.046 35.021L105.321 34.2948C105.475 33.9097 105.618 33.5136 105.761 33.1285L106.113 32.2153L106.476 31.214C106.597 30.9279 106.707 30.6308 106.817 30.3338L107.246 29.2335C107.423 28.7383 107.61 28.2542 107.797 27.759C107.984 27.2639 108.083 26.9888 108.237 26.5927C108.237 26.4387 108.358 26.2847 108.413 26.1196C108.419 26.0721 108.419 26.024 108.413 25.9766H109.678C109.701 26.0631 109.73 26.1477 109.766 26.2296L110.052 27.0219C110.184 27.3629 110.327 27.693 110.448 28.0341C110.668 28.6063 110.877 29.1344 111.097 29.7396C111.318 30.3448 111.395 30.5318 111.549 30.9279C111.703 31.324 111.934 31.9512 112.132 32.4683L112.825 34.2728L113.408 35.8022C113.573 36.2644 113.749 36.7155 113.925 37.1776L114.332 38.2779L114.365 38.4759ZM106.278 33.0515H109.964C110.074 33.0515 110.096 33.0515 110.052 32.9194C109.876 32.4573 109.689 31.9952 109.513 31.5221L108.886 29.8386L108.226 28.0781C107.599 29.7286 106.982 31.379 106.333 33.0735" fill="white"/>
<path d="M38.1143 26V26.1761L37.7402 26.3081C37.4718 26.3862 37.2222 26.5183 37.0065 26.6961C36.7909 26.8739 36.6137 27.0938 36.4859 27.3424C36.3931 27.5463 36.3444 27.7675 36.3428 27.9915C36.3345 28.3807 36.4417 28.7636 36.6509 29.0918C36.9001 29.4901 37.2491 29.8162 37.6632 30.0381C37.9336 30.1983 38.2266 30.317 38.5324 30.3902L39.8528 30.7863L41.1291 31.1604C41.5142 31.2704 41.9103 31.3915 42.3064 31.5345C42.8002 31.7089 43.2532 31.9822 43.6378 32.3377C44.0344 32.7282 44.3259 33.2127 44.485 33.7461C44.6657 34.3232 44.705 34.9353 44.5997 35.5308C44.4944 36.1263 44.2475 36.6878 43.8798 37.168C43.2969 37.9017 42.4536 38.3825 41.5252 38.5104H41.4592C41.3051 38.5104 41.3051 38.5104 41.3161 38.3453C41.6565 38.2721 41.9692 38.1043 42.2184 37.8612C42.5463 37.5611 42.7924 37.1824 42.9336 36.7609C43.0267 36.4849 43.0641 36.1932 43.0437 35.9027C43.0232 35.5826 42.933 35.2709 42.7795 34.9894C42.4973 34.4656 42.0743 34.0311 41.5582 33.7351C41.3956 33.6379 41.222 33.5603 41.0411 33.504L39.6767 33.0969L38.4224 32.7228C37.9773 32.5988 37.54 32.4482 37.113 32.2717C36.6481 32.0691 36.2372 31.76 35.9137 31.3694C35.6502 31.0469 35.4589 30.6718 35.3526 30.2691C35.2535 29.9111 35.209 29.5401 35.2205 29.1688C35.2293 28.7024 35.3421 28.2438 35.5506 27.8265C35.7039 27.5129 35.9126 27.2296 36.1668 26.9903C36.5056 26.6669 36.9168 26.4292 37.3661 26.2971C37.5169 26.255 37.6719 26.2292 37.8282 26.22C37.8942 26.22 37.9493 26.22 37.9933 26.154L38.1143 26Z" fill="white"/>
<path d="M62.7053 26V38.4003C62.0165 38.4443 61.3255 38.4443 60.6367 38.4003V26.154C60.6422 26.1028 60.6422 26.0512 60.6367 26H62.7053Z" fill="white"/>
<path d="M49.9099 26C49.9099 26 49.9099 26.099 49.9099 26.154V38.1913C49.9151 38.2829 49.9151 38.3747 49.9099 38.4663H47.8633V26.187C47.8633 26.187 47.8633 26.066 47.8633 26H49.9099Z" fill="white"/>
<path d="M82.8199 25.9996C82.8199 25.9996 82.8199 25.9996 82.9079 25.9996C83.2789 26.0145 83.6475 26.0661 84.0082 26.1536C84.9958 26.4005 85.9068 26.8881 86.6599 27.573C87.079 27.9463 87.4487 28.3715 87.7602 28.8384C87.9996 29.2163 88.1988 29.6182 88.3544 30.0377C88.473 30.3785 88.565 30.7279 88.6295 31.083C88.8198 32.1904 88.7173 33.3282 88.3324 34.3839C88.1181 34.9522 87.8215 35.4861 87.4522 35.9683C87.1079 36.4061 86.7127 36.8013 86.2748 37.1456C85.8676 37.4608 85.4198 37.7199 84.9435 37.9158C84.6668 38.0275 84.384 38.123 84.0963 38.2019C83.9084 38.2575 83.7173 38.3016 83.5241 38.3339C83.191 38.4 82.8507 38.4222 82.5118 38.3999C82.5065 38.3708 82.5065 38.341 82.5118 38.3119V38.2459L83.128 38.0038C83.5711 37.8186 83.983 37.5663 84.3493 37.2556C84.8228 36.8723 85.2314 36.4154 85.5596 35.9023C85.8882 35.4082 86.1473 34.8714 86.3298 34.3068C86.4638 33.9097 86.5596 33.5008 86.6159 33.0855C86.6268 32.8766 86.6268 32.6673 86.6159 32.4583C86.6269 32.2531 86.6269 32.0474 86.6159 31.8422C86.6327 31.6665 86.6327 31.4897 86.6159 31.314C86.6159 31.105 86.5389 30.9069 86.4949 30.7089C86.4066 30.3009 86.2775 29.9028 86.1098 29.5205C85.6722 28.4601 84.9578 27.5367 84.0412 26.8468C83.6338 26.5467 83.1752 26.323 82.6879 26.1866L82.5118 26.1206V25.9336L82.8199 25.9996Z" fill="white"/>
<path d="M65.1159 25.9996C65.1159 25.9996 65.1159 25.9996 65.1819 25.9996H65.457C65.7471 26.0188 66.0346 26.0667 66.3152 26.1426C67.6739 26.4635 68.8815 27.2401 69.7371 28.3432C70.0885 28.7917 70.3738 29.2882 70.5844 29.8176C70.7295 30.172 70.8364 30.5409 70.9034 30.9179C70.9899 31.2781 71.0306 31.6478 71.0245 32.0182V32.2933C71.0303 32.6116 70.997 32.9294 70.9255 33.2395C70.9255 33.4816 70.8374 33.7237 70.7714 33.9547C70.7054 34.1858 70.5624 34.4939 70.4523 34.769C70.3312 35.0443 70.1877 35.3093 70.0232 35.5612C69.7592 35.9597 69.453 36.3286 69.1099 36.6615C68.6905 37.0556 68.2207 37.3923 67.7126 37.6627C67.4317 37.818 67.137 37.9469 66.8324 38.0478C66.5353 38.1359 66.2382 38.2019 65.9411 38.2679C65.6441 38.3339 65.534 38.3339 65.325 38.3669C65.153 38.3834 64.9798 38.3834 64.8078 38.3669V38.2129L65.1049 38.1359C65.6942 38.0359 66.2541 37.8067 66.7443 37.4647C66.9242 37.3348 67.0968 37.1952 67.2615 37.0466C67.4963 36.824 67.7065 36.5768 67.8886 36.3094C68.1799 35.8752 68.406 35.4007 68.5598 34.901C68.6374 34.6771 68.7036 34.4494 68.7579 34.2188C68.8129 33.9878 68.8459 33.7457 68.8789 33.5036C68.9119 33.2615 68.8789 33.1295 68.8789 32.9425C68.9152 32.5766 68.9152 32.208 68.8789 31.8422C68.8789 31.5011 68.8789 31.149 68.7799 30.8079C68.7234 30.4924 68.6499 30.1802 68.5598 29.8726C68.4448 29.4313 68.2748 29.0062 68.0537 28.6073C67.7722 28.0899 67.3994 27.6277 66.9534 27.2429C66.5271 26.8495 66.0255 26.5463 65.479 26.3517C65.2259 26.2527 64.9509 26.1976 64.6758 26.1206C64.6758 26.1206 64.6758 25.9996 64.6758 25.9336L65.1159 25.9996Z" fill="white"/>
<path d="M91.8506 26V38.4553C91.686 38.4717 91.5201 38.4717 91.3555 38.4553V26H91.8506Z" fill="white"/>
<path d="M35 34.7695H35.198C35.198 34.7695 35.198 34.7695 35.198 34.8355C35.2068 35.0846 35.2437 35.3319 35.3081 35.5727C35.3838 35.9041 35.4982 36.2254 35.6492 36.53C35.8541 36.9032 36.1264 37.2353 36.4524 37.5093C36.7042 37.7219 36.9908 37.8894 37.2996 38.0044C37.5567 38.1145 37.8265 38.1921 38.1028 38.2355L38.488 38.2905V38.4445H38.3449H35.044L35 34.7695Z" fill="white"/>
<path d="M56.6882 25.9986C56.6882 26.0976 56.6882 26.1966 56.6882 26.2846C56.6882 27.3849 56.6882 28.4852 56.6882 29.6515H56.5122C56.5176 29.6225 56.5176 29.5926 56.5122 29.5635C56.5122 29.3765 56.5122 29.1894 56.4462 29.0024C56.3911 28.6868 56.2949 28.3798 56.1601 28.0891C55.8656 27.428 55.3528 26.888 54.7077 26.5597C54.4353 26.4134 54.1422 26.3095 53.8385 26.2516L53.2773 26.1526V25.9766L56.6882 25.9986Z" fill="white"/>
<path d="M43.319 26C43.319 26.066 43.319 26.121 43.319 26.187V29.686H43.1429C43.1375 29.6274 43.1375 29.5685 43.1429 29.5099C43.1168 29.0072 42.9859 28.5155 42.7585 28.0664C42.5312 27.6174 42.2123 27.2208 41.8225 26.9022C41.4738 26.648 41.0826 26.458 40.6672 26.3411C40.425 26.2767 40.1787 26.2289 39.93 26.198H39.875C39.875 26.132 39.875 26.077 39.875 26.011L43.319 26Z" fill="white"/>
<path d="M80.3889 26C80.3889 26.1981 80.3889 26.187 80.1908 26.253L79.5527 26.5061C79.2017 26.6784 78.8728 26.8927 78.5734 27.1443C78.5074 27.1443 78.4634 27.2543 78.3973 27.2983L78.2544 27.4194C78.1491 27.1028 77.9396 26.8313 77.6602 26.6492L78.1663 26.4291L78.7715 26.2971L79.3216 26.165C79.5686 26.1213 79.819 26.0992 80.0698 26.099H80.1689L80.3889 26Z" fill="white"/>
<path d="M73.0143 27.2535H73.2343C73.4698 27.2602 73.7036 27.2112 73.9166 27.1105C74.0202 27.0478 74.137 27.0102 74.2577 27.0004C74.3347 26.9344 74.4337 26.9454 74.5217 26.9234C74.6957 26.8849 74.8759 26.8849 75.0498 26.9234L75.3249 27.0004C75.6018 27.1256 75.8299 27.3382 75.9741 27.6056C76.0834 27.8073 76.1184 28.0409 76.0731 28.2658C76.0364 28.4381 75.9612 28.5998 75.853 28.7389C75.7725 28.8378 75.6801 28.9265 75.578 29.003C75.2991 29.1939 75.1057 29.486 75.0388 29.8172C75.0388 29.9382 75.0388 30.0702 74.9618 30.2023C74.7999 30.2616 74.6279 30.2878 74.4557 30.2793H74.2136C73.8071 30.2842 73.414 30.1348 73.1133 29.8612C72.9253 29.7043 72.7781 29.5042 72.6842 29.278C72.5961 29.0737 72.562 28.8502 72.5852 28.6289C72.6327 28.281 72.7252 27.9407 72.8603 27.6166C72.8603 27.5066 72.9373 27.3745 72.9813 27.2535" fill="white"/>
<path d="M76.3949 30.9304L76.6369 30.6664C76.7734 30.5142 76.8748 30.3339 76.934 30.1382C76.9663 29.9488 76.9663 29.7554 76.934 29.5661C76.9419 29.4277 76.9794 29.2926 77.044 29.1699C77.1181 28.9688 77.2576 28.7983 77.4401 28.6858C77.5877 28.5811 77.7654 28.527 77.9463 28.5318C78.1073 28.5154 78.2695 28.5154 78.4304 28.5318C78.7126 28.6162 78.9573 28.7949 79.1236 29.0379C79.2753 29.2602 79.3801 29.511 79.4317 29.7751C79.4869 29.9983 79.5799 30.2105 79.7067 30.4023L79.7838 30.5123C79.8608 30.6333 79.8718 30.6443 79.7838 30.7654C79.5938 31.0816 79.3805 31.3832 79.1457 31.6676C78.9412 31.899 78.667 32.0573 78.3644 32.1188C78.0089 32.177 77.644 32.1262 77.318 31.973C76.9919 31.8198 76.7199 31.5714 76.5379 31.2605C76.4591 31.143 76.3928 31.0176 76.3398 30.8864" fill="white"/>
<path d="M74.1391 37.169C74.2141 36.9906 74.2587 36.8009 74.2712 36.6078C74.2712 36.6078 74.2712 36.5528 74.2712 36.5198C74.2657 36.4429 74.2657 36.3656 74.2712 36.2887C74.2712 36.2337 74.2712 36.1897 74.2712 36.1347C74.2878 35.959 74.3595 35.7931 74.4761 35.6607C74.5927 35.5283 74.7482 35.4361 74.9204 35.3975H75.0855C75.1945 35.387 75.3044 35.4047 75.4046 35.4491C75.5049 35.4934 75.5919 35.5628 75.6576 35.6505C75.7282 35.7424 75.7805 35.847 75.8116 35.9586C75.8474 36.1129 75.916 36.2577 76.0129 36.383C76.1097 36.5084 76.2325 36.6113 76.3728 36.6848C76.4718 36.6848 76.4828 36.7508 76.4608 36.8388C76.4069 37.1136 76.2729 37.3663 76.0757 37.565C75.9498 37.6921 75.7948 37.7866 75.6242 37.8403C75.4535 37.894 75.2724 37.9052 75.0964 37.8731C74.9482 37.8492 74.8082 37.7887 74.6893 37.6971C74.5132 37.554 74.3372 37.411 74.1722 37.257L74.1172 37.202" fill="white"/>
<path d="M76.2511 34.4267C76.2513 34.2687 76.2957 34.1137 76.3793 33.9796C76.4629 33.8454 76.5824 33.7373 76.7242 33.6675C76.8907 33.5839 77.0789 33.5531 77.2633 33.5795H77.6594C77.7901 33.6065 77.9249 33.6065 78.0555 33.5795C78.1545 33.5795 78.1546 33.5795 78.2206 33.5795C78.2866 33.5795 78.3966 33.8216 78.4736 33.9536C78.5569 34.0763 78.6235 34.2095 78.6717 34.3497C78.6994 34.4692 78.6994 34.5933 78.6717 34.7128C78.659 34.9131 78.5919 35.1061 78.4775 35.2709C78.363 35.4357 78.2058 35.5662 78.0225 35.6481C77.8434 35.7227 77.6544 35.7709 77.4614 35.7911C77.4064 35.7911 77.3843 35.7911 77.3733 35.7361C77.3623 35.681 77.3074 35.582 77.2633 35.516C77.1168 35.2937 76.8998 35.1271 76.6472 35.0429C76.522 34.9939 76.4137 34.9096 76.3356 34.8002C76.2574 34.6908 76.2127 34.5611 76.207 34.4267M76.4601 34.7788C76.4601 34.8668 76.5591 34.8888 76.6141 34.9438L76.4821 34.7788" fill="white"/>
<path d="M54.0665 34.595H53.9234C53.8464 34.3749 53.7694 34.1548 53.6814 33.9348C53.5536 33.5845 53.3635 33.2602 53.1202 32.9775C52.878 32.7088 52.5593 32.5206 52.2069 32.4384C51.9768 32.3785 51.7405 32.3453 51.5027 32.3393H51.4258V32.1743H51.5358C51.8474 32.1842 52.1579 32.1319 52.449 32.0203C52.6449 31.9344 52.8267 31.8194 52.9882 31.6792C53.2832 31.3971 53.5091 31.0506 53.6483 30.6669C53.7584 30.4248 53.8354 30.1828 53.9344 29.9297H54.0554C54.0554 30.0397 54.0554 34.3309 54.0554 34.617" fill="white"/>
<path d="M57.0164 34.7812H57.1815C57.1815 34.8913 57.1815 38.3132 57.1815 38.4562C57.1815 38.5993 53.8806 38.4562 53.7266 38.4562V38.3022L54.1557 38.2362C54.478 38.1795 54.7921 38.0834 55.0909 37.9501C55.4538 37.781 55.7821 37.5459 56.0592 37.2569C56.3285 36.9711 56.5446 36.6395 56.6974 36.2777C56.7959 36.0354 56.8732 35.7851 56.9285 35.5295C56.9285 35.3424 56.9834 35.1334 57.0164 34.9353V34.7812Z" fill="white"/>
<path d="M72.332 30.6992L72.442 30.4681C72.5107 30.3465 72.6092 30.2443 72.7281 30.171C72.8382 30.094 72.8711 30.094 72.9702 30.171C73.1836 30.3449 73.431 30.4723 73.6964 30.5451C73.9612 30.6186 74.2383 30.6373 74.5106 30.6002H74.8847L74.8297 30.6552L74.5326 30.8533C74.4556 30.8533 74.4556 30.9413 74.5326 31.0073C74.6234 31.1258 74.7353 31.2265 74.8627 31.3044L74.9507 31.3704C74.8644 31.4604 74.7725 31.5449 74.6757 31.6234C74.5515 31.7133 74.4188 31.7907 74.2795 31.8545C74.1288 31.9283 73.9632 31.9668 73.7954 31.9668C73.6276 31.9668 73.4619 31.9283 73.3112 31.8545C73.2112 31.7969 73.1219 31.7225 73.0472 31.6345C72.9475 31.5383 72.8589 31.4313 72.7831 31.3154C72.6746 31.1291 72.5454 30.9556 72.398 30.7982" fill="white"/>
<path d="M75.547 31.6666H75.7011C75.828 31.6937 75.9592 31.6937 76.0862 31.6666C76.1742 31.6666 76.1852 31.6666 76.1742 31.5566C76.1632 31.4466 76.1742 31.3145 76.1742 31.2045V31.1055V31.1605C76.3342 31.4849 76.5633 31.7703 76.8454 31.9967C77.0757 32.1852 77.347 32.3172 77.6376 32.3818C77.6718 32.3873 77.7036 32.4028 77.729 32.4263C77.7545 32.4498 77.7724 32.4802 77.7806 32.5138C77.8192 32.6091 77.8192 32.7157 77.7806 32.8109C77.7806 32.91 77.7036 33.009 77.6706 33.108C77.6606 33.1363 77.6404 33.1599 77.6139 33.1741C77.5875 33.1883 77.5567 33.1922 77.5276 33.185C77.4435 33.1743 77.3585 33.1743 77.2745 33.185H76.8454C76.6738 33.2243 76.4953 33.2217 76.3249 33.1777C76.1545 33.1337 75.9972 33.0494 75.8661 32.932C75.688 32.7695 75.5681 32.553 75.525 32.3158C75.4865 32.1307 75.4865 31.9397 75.525 31.7546C75.525 31.6996 75.525 31.6446 75.525 31.5676" fill="white"/>
<path d="M76.7891 29.049C76.7151 28.963 76.6241 28.8932 76.5218 28.844C76.4196 28.7948 76.3083 28.7671 76.1949 28.7629C76.2532 28.6514 76.2977 28.5332 76.327 28.4108C76.3705 28.2909 76.3929 28.1643 76.393 28.0367C76.3904 27.8765 76.3529 27.7188 76.283 27.5746C76.283 27.4755 76.1839 27.3875 76.1289 27.2885C76.2655 27.1781 76.4226 27.0958 76.5911 27.0464C76.8038 26.9602 77.0331 26.9226 77.2622 26.9364C77.3501 26.936 77.4367 26.9581 77.5137 27.0004C77.5907 27.0428 77.6556 27.104 77.7024 27.1784C77.8608 27.3907 77.9595 27.6414 77.9884 27.9046C77.9884 27.9817 77.9884 28.0477 77.9884 28.1137C77.9884 28.1797 77.9885 28.2017 77.9004 28.2237C77.7374 28.2457 77.5782 28.2901 77.4273 28.3558C77.2693 28.4251 77.1298 28.5307 77.0201 28.6638C76.9211 28.7849 76.8441 28.9169 76.7451 29.049" fill="white"/>
<path d="M74.5348 34.3495C74.5348 34.2615 74.5348 34.1844 74.4578 34.0964C74.3808 34.0084 74.3478 33.7223 74.3037 33.5243C74.2597 33.3262 74.3037 33.2052 74.2267 33.0401C74.2213 32.9742 74.2213 32.908 74.2267 32.8421C74.2267 32.666 74.2267 32.501 74.2267 32.325C74.2267 32.1489 74.2267 32.2479 74.2927 32.2259L74.4578 32.1599C74.724 32.044 74.9664 31.8799 75.173 31.6758C75.173 31.6758 75.173 31.6758 75.173 31.7308C75.1291 31.9672 75.1291 32.2096 75.173 32.446C75.2365 32.7885 75.4151 33.099 75.6791 33.3262C75.8359 33.4535 76.015 33.5505 76.2072 33.6123L76.0752 33.7663C75.8587 33.6967 75.6307 33.6706 75.404 33.6893C75.2506 33.6918 75.1005 33.7348 74.9691 33.814C74.8377 33.8933 74.7296 34.0059 74.6558 34.1404C74.6254 34.2045 74.5997 34.2707 74.5788 34.3385" fill="white"/>
<path d="M77.7344 37.8604C77.8161 37.5914 77.8161 37.3042 77.7344 37.0352C77.8043 37.0672 77.8784 37.0894 77.9544 37.1012L78.3395 37.1892C78.4007 37.1989 78.4579 37.2256 78.5046 37.2662C78.7577 37.4533 78.9997 37.6403 79.2528 37.8053C79.6161 38.0325 80.0137 38.1997 80.4301 38.3005V38.3995C79.5061 38.45 78.5857 38.2485 77.7674 37.8164" fill="white"/>
<path d="M75.4691 29.5195C75.4909 29.6447 75.5408 29.7632 75.6151 29.8661C75.6895 29.9691 75.7863 30.0537 75.8983 30.1137C76.0085 30.1684 76.1318 30.1912 76.2543 30.1795C76.3767 30.1678 76.4935 30.1222 76.5915 30.0477C76.5636 30.166 76.5069 30.2757 76.4264 30.3668C76.2818 30.5576 76.098 30.7152 75.8873 30.8289C75.8212 30.8289 75.8102 30.8949 75.8212 30.9829C75.8322 31.071 75.8212 31.247 75.8212 31.4011C75.7428 31.3969 75.6664 31.3749 75.5978 31.3367C75.5292 31.2986 75.4701 31.2453 75.4251 31.181C75.4091 31.1494 75.3834 31.1237 75.3517 31.1079C75.32 31.092 75.284 31.0868 75.2491 31.0929C75.1769 31.0975 75.1048 31.0837 75.0394 31.053C74.974 31.0222 74.9175 30.9754 74.875 30.9169C74.949 30.8416 75.0344 30.7785 75.128 30.7299C75.1855 30.7076 75.2328 30.6651 75.2612 30.6104C75.2895 30.5557 75.297 30.4926 75.2821 30.4328C75.2653 30.1421 75.3301 29.8524 75.4691 29.5966V29.5195Z" fill="white"/>
<path d="M77.7578 36.6397C77.818 36.5378 77.8695 36.4311 77.9118 36.3206C77.9118 36.2216 77.9118 36.2106 77.8458 36.1666H77.7798C78.0005 36.1354 78.2123 36.0587 78.4017 35.9412C78.5911 35.8238 78.754 35.6682 78.8801 35.4844C79.016 35.5088 79.1377 35.5834 79.2212 35.6934C79.2337 35.709 79.2405 35.7284 79.2405 35.7484C79.2405 35.7684 79.2337 35.7879 79.2212 35.8035C79.1551 35.9685 79.0891 36.1445 79.0341 36.3206C78.9827 36.4933 78.8681 36.6402 78.7131 36.732C78.558 36.8238 78.374 36.8537 78.1979 36.8157C78.0447 36.8067 77.8967 36.7574 77.7688 36.6727" fill="white"/>
<path d="M76.1747 35.0986C76.0744 35.181 75.9788 35.2692 75.8886 35.3626C75.8006 35.3076 75.7236 35.2306 75.6246 35.1756C75.5373 35.1051 75.4286 35.0663 75.3164 35.0656H74.9314C74.8927 34.9177 74.8927 34.7623 74.9314 34.6144C74.9314 34.5264 74.9314 34.4164 74.9974 34.3284C75.0287 34.2705 75.0696 34.2185 75.1184 34.1743C75.2202 34.1185 75.3327 34.0847 75.4485 34.0753C75.6277 34.0684 75.8068 34.0945 75.9767 34.1523C75.9271 34.3174 75.9271 34.4934 75.9767 34.6585C76.0149 34.828 76.0985 34.984 76.2187 35.1096" fill="white"/>
<path d="M76.7904 37.0469C76.7938 37.1092 76.7938 37.1716 76.7904 37.2339C76.9492 37.2193 77.1012 37.1623 77.2305 37.0689V37.1679C77.2855 37.3345 77.3079 37.51 77.2965 37.6851C77.2695 37.8386 77.1958 37.9801 77.0856 38.0904C76.9754 38.2006 76.8339 38.2742 76.6803 38.3012L76.1742 38.4222C76.1529 38.436 76.1281 38.4433 76.1027 38.4433C76.0773 38.4433 76.0525 38.436 76.0312 38.4222C75.9739 38.3554 75.9325 38.2764 75.9102 38.1912C75.9102 38.0922 75.9102 38.0812 75.9762 38.0262C76.0422 37.9711 76.1632 37.9051 76.2402 37.8391C76.4482 37.6293 76.6029 37.3728 76.6913 37.0909" fill="white"/>
<path d="M76.2267 29.0586C76.3357 29.0615 76.4392 29.1068 76.5153 29.1849C76.5913 29.263 76.6339 29.3677 76.6338 29.4767C76.6339 29.5857 76.5913 29.6904 76.5153 29.7685C76.4392 29.8466 76.3357 29.8919 76.2267 29.8948C76.1158 29.8948 76.0095 29.8507 75.9311 29.7723C75.8527 29.6939 75.8086 29.5876 75.8086 29.4767C75.8086 29.3658 75.8527 29.2595 75.9311 29.1811C76.0095 29.1026 76.1158 29.0586 76.2267 29.0586Z" fill="white"/>
<path d="M76.37 36.2007C76.5146 36.2042 76.6551 36.1528 76.7633 36.0568C76.8715 35.9609 76.9393 35.8275 76.9531 35.6836C77.0364 35.8131 77.0891 35.9598 77.1072 36.1127C77.1072 36.2448 77.1072 36.2667 77.2612 36.2998L77.4153 36.3548C77.3955 36.3857 77.3697 36.4123 77.3395 36.4331C77.3092 36.4539 77.2751 36.4684 77.2392 36.4758C77.1732 36.4758 77.1292 36.4758 77.1182 36.5858C77.1072 36.6959 77.0522 36.7179 76.9641 36.7619C76.9641 36.6299 76.9641 36.5088 76.8871 36.3878C76.7755 36.3927 76.6641 36.3725 76.5613 36.3287C76.4585 36.2849 76.3668 36.2186 76.293 36.1347" fill="white"/>
<path d="M76.1523 35.6288C76.1523 35.5646 76.1779 35.503 76.2233 35.4576C76.2687 35.4122 76.3302 35.3867 76.3944 35.3867C76.4568 35.3867 76.5167 35.4106 76.5618 35.4537C76.6069 35.4967 76.6336 35.5555 76.6365 35.6178C76.6338 35.684 76.6063 35.7468 76.5594 35.7937C76.5125 35.8406 76.4497 35.8681 76.3834 35.8709C76.2734 35.8709 76.1633 35.7608 76.1523 35.6288Z" fill="white"/>
<path d="M76.5024 34.7812L76.6338 34.9463C76.6338 34.8913 76.4914 34.8693 76.4805 34.7812" fill="white"/>
<path d="M66.7437 45.7814C66.5551 45.7297 66.3791 45.6398 66.2266 45.5174L66.4247 45.0883C66.5616 45.1891 66.7139 45.2672 66.8758 45.3193C67.0482 45.3841 67.2307 45.4176 67.4149 45.4184C67.5904 45.4272 67.7651 45.3893 67.9211 45.3083C67.9713 45.2793 68.013 45.2376 68.0419 45.1874C68.0709 45.1372 68.0861 45.0802 68.0861 45.0222C68.0864 44.9832 68.0788 44.9446 68.0637 44.9086C68.0486 44.8727 68.0262 44.8402 67.9981 44.8132C67.9266 44.7541 67.8444 44.7093 67.756 44.6812L67.3709 44.5711C67.1805 44.5282 66.9931 44.4731 66.8098 44.4061C66.6704 44.3516 66.546 44.2649 66.4466 44.153C66.3403 44.0188 66.2856 43.8509 66.2926 43.6799C66.2906 43.5197 66.3367 43.3626 66.4247 43.2288C66.5309 43.0822 66.6755 42.968 66.8427 42.8987C67.0524 42.8144 67.277 42.7733 67.5029 42.7777C67.6892 42.7755 67.8746 42.8014 68.0531 42.8547C68.2174 42.8935 68.3737 42.9606 68.5152 43.0527L68.3392 43.4818C68.207 43.4073 68.0667 43.3483 67.9211 43.3058C67.7825 43.285 67.6415 43.285 67.5029 43.3058C67.3306 43.2924 67.1582 43.3307 67.0078 43.4158C66.958 43.4471 66.9174 43.4911 66.8903 43.5434C66.8633 43.5956 66.8506 43.6541 66.8537 43.7129C66.8502 43.7523 66.8564 43.7919 66.8717 43.8284C66.8871 43.8648 66.9112 43.8969 66.9418 43.9219C67.0108 43.9787 67.089 44.0233 67.1729 44.054L67.569 44.153C67.7554 44.1973 67.9391 44.2524 68.1191 44.3181C68.2584 44.3725 68.3829 44.4592 68.4822 44.5711C68.5885 44.7053 68.6432 44.8732 68.6362 45.0443C68.6369 45.2043 68.591 45.361 68.5042 45.4954C68.3969 45.6383 68.2522 45.7487 68.0861 45.8145C67.8728 45.8996 67.6445 45.9408 67.4149 45.9355C67.1875 45.9357 66.9614 45.9023 66.7437 45.8365" fill="white"/>
<path d="M69.7702 45.5295C69.6495 45.3937 69.5572 45.2352 69.4987 45.0633C69.4401 44.8914 69.4164 44.7095 69.4291 44.5283V42.8008H69.9792V44.4842C69.9792 45.0674 70.2433 45.3645 70.7495 45.3645C71.2556 45.3645 71.5087 45.0674 71.5087 44.4842V42.8008H72.0588V44.5062C72.0715 44.6874 72.0478 44.8693 71.9892 45.0413C71.9307 45.2132 71.8384 45.3717 71.7177 45.5075C71.4446 45.7358 71.0999 45.8609 70.744 45.8609C70.388 45.8609 70.0433 45.7358 69.7702 45.5075" fill="white"/>
<path d="M73.6627 42.8242H73.1016V45.839H73.6627V42.8242Z" fill="white"/>
<path d="M75.3489 43.2973H74.3477V42.8242H76.9113V43.2973H75.9101V45.839H75.3489V43.2973Z" fill="white"/>
<path d="M79.8486 45.3659V45.839H77.582V42.8242H79.7826V43.2863H78.1432V44.0786H79.5956V44.5297H78.1432V45.3659H79.8486Z" fill="white"/>
<path d="M80.971 45.7814C80.7856 45.7301 80.613 45.6401 80.4648 45.5174L80.6519 45.0883C80.7929 45.1891 80.9488 45.2671 81.114 45.3193C81.2862 45.385 81.4689 45.4186 81.6532 45.4184C81.8251 45.4263 81.996 45.3883 82.1483 45.3083C82.1985 45.2793 82.2402 45.2376 82.2692 45.1874C82.2982 45.1372 82.3134 45.0802 82.3133 45.0222C82.3137 44.9832 82.3061 44.9446 82.291 44.9086C82.2758 44.8727 82.2535 44.8402 82.2254 44.8132C82.1563 44.7565 82.0782 44.7118 81.9943 44.6811L81.5982 44.5711C81.4113 44.5284 81.2275 44.4733 81.048 44.4061C80.9072 44.3485 80.7798 44.2623 80.6739 44.153C80.5715 44.0173 80.5208 43.8496 80.5309 43.6799C80.5289 43.5197 80.5749 43.3626 80.6629 43.2288C80.7648 43.0826 80.906 42.9682 81.0701 42.8987C81.2836 42.8144 81.5117 42.7733 81.7412 42.7777C81.9238 42.7754 82.1057 42.8013 82.2804 42.8547C82.4447 42.8935 82.601 42.9605 82.7425 43.0527L82.5664 43.4818C82.4352 43.4055 82.2947 43.3463 82.1483 43.3058C82.0098 43.2843 81.8688 43.2843 81.7302 43.3058C81.5613 43.2904 81.3918 43.3289 81.2461 43.4158C81.195 43.4466 81.1529 43.4902 81.1239 43.5423C81.095 43.5945 81.0801 43.6533 81.081 43.7129C81.0807 43.7519 81.0883 43.7906 81.1034 43.8265C81.1186 43.8625 81.1409 43.8949 81.169 43.9219C81.2406 43.981 81.3228 44.0259 81.4111 44.054L81.7962 44.153C81.9827 44.1973 82.1664 44.2524 82.3464 44.3181C82.4872 44.3756 82.6146 44.4618 82.7205 44.5711C82.8229 44.7068 82.8735 44.8746 82.8635 45.0443C82.8641 45.2043 82.8183 45.361 82.7315 45.4954C82.6284 45.6379 82.4873 45.7485 82.3243 45.8145C82.1108 45.8987 81.8827 45.9399 81.6532 45.9355C81.4222 45.9358 81.1924 45.9025 80.971 45.8365" fill="white"/>
<path d="M56.6983 48.9531V51.9679H56.2691V50.6256H54.5417V51.9679H54.1016V48.9531H54.5417V50.2515H56.2691V48.9531H56.6983Z" fill="white"/>
<path d="M58.2259 51.801C57.9878 51.6743 57.7896 51.4838 57.6537 51.2508C57.5084 51.0122 57.4322 50.738 57.4336 50.4586C57.4319 50.1827 57.5082 49.9119 57.6537 49.6774C57.786 49.4389 57.9848 49.2439 58.2259 49.1162C58.4795 48.9859 58.7605 48.918 59.0456 48.918C59.3307 48.918 59.6117 48.9859 59.8653 49.1162C60.1011 49.2461 60.2985 49.4359 60.4375 49.6664C60.5731 49.9085 60.645 50.1811 60.6465 50.4586C60.648 50.7365 60.5759 51.0099 60.4375 51.2508C60.2985 51.4814 60.1011 51.6711 59.8653 51.801C59.6117 51.9313 59.3307 51.9993 59.0456 51.9993C58.7605 51.9993 58.4795 51.9313 58.2259 51.801ZM59.6452 51.4709C59.8182 51.3698 59.9622 51.2258 60.0633 51.0528C60.1571 50.8687 60.2059 50.6651 60.2059 50.4586C60.2059 50.2521 60.1571 50.0485 60.0633 49.8645C59.9632 49.6936 59.8187 49.5529 59.6452 49.4573C59.4601 49.3549 59.2517 49.3019 59.0401 49.3033C58.832 49.3023 58.6273 49.3553 58.4459 49.4573C58.2725 49.5529 58.128 49.6936 58.0278 49.8645C57.8712 50.1332 57.8273 50.4529 57.9056 50.7539C57.9839 51.0549 58.1782 51.3127 58.4459 51.4709C58.6281 51.5696 58.8329 51.6189 59.0401 51.6139C59.2507 51.6188 59.4591 51.5695 59.6452 51.4709Z" fill="white"/>
<path d="M63.1684 51.8009C62.9303 51.6742 62.7321 51.4837 62.5962 51.2507C62.4531 51.0117 62.3806 50.737 62.3871 50.4585C62.382 50.1847 62.4522 49.9148 62.5899 49.6781C62.7277 49.4414 62.9278 49.247 63.1684 49.1162C63.4187 48.9826 63.6988 48.9144 63.9826 48.9181C64.2047 48.9169 64.425 48.958 64.6318 49.0392C64.8219 49.1164 64.9914 49.237 65.1269 49.3912L64.8518 49.6553C64.7417 49.5424 64.6099 49.453 64.4643 49.3925C64.3187 49.332 64.1623 49.3016 64.0046 49.3032C63.7929 49.3007 63.5842 49.3538 63.3994 49.4572C63.2195 49.5477 63.0702 49.6894 62.9703 49.8644C62.8691 50.0461 62.8161 50.2506 62.8161 50.4585C62.8161 50.6665 62.8691 50.871 62.9703 51.0527C63.0719 51.2291 63.2205 51.3738 63.3994 51.4708C63.5851 51.5709 63.7938 51.6202 64.0046 51.6138C64.1628 51.6196 64.3204 51.5911 64.4666 51.5303C64.6129 51.4695 64.7442 51.3779 64.8518 51.2617L65.1269 51.5258C64.9914 51.6801 64.8219 51.8006 64.6318 51.8779C64.4263 51.9634 64.2051 52.0046 63.9826 51.9989C63.6986 52.0041 63.4182 51.9358 63.1684 51.8009Z" fill="white"/>
<path d="M68.4287 48.9531V51.9679H67.9886V50.6256H66.2611V51.9679H65.832V48.9531H66.2611V50.2515H67.9886V48.9531H68.4287Z" fill="white"/>
<path d="M69.8471 48.9531H69.418V51.9679H69.8471V48.9531Z" fill="white"/>
<path d="M74.8619 51.9679V49.7673L73.7726 51.6048H73.5745L72.4852 49.7783V51.9679H72.0781V48.9531H72.4302L73.6846 51.0657L74.9279 48.9531H75.28V51.9679H74.8619Z" fill="white"/>
<path d="M76.7026 48.9531H76.2734V51.9679H76.7026V48.9531Z" fill="white"/>
<path d="M80.2881 48.9531V51.9679H79.936L78.1205 49.7233V51.9679H77.6914V48.9531H78.0435L79.859 51.1977V48.9531H80.2881Z" fill="white"/>
<path d="M83.863 48.9531V51.9679H83.4339V50.6256H81.7065V51.9679H81.2773V48.9531H81.7065V50.2515H83.4339V48.9531H83.863Z" fill="white"/>
<path d="M86.6269 51.8009C86.3911 51.671 86.1937 51.4813 86.0547 51.2507C85.9201 51.0087 85.8518 50.7354 85.8567 50.4585C85.8455 50.1849 85.9118 49.9137 86.0481 49.6762C86.1844 49.4387 86.385 49.2445 86.6269 49.1162C86.8812 48.9825 87.1649 48.9145 87.4521 48.9181C87.6707 48.9169 87.8873 48.958 88.0903 49.0392C88.2838 49.116 88.457 49.2365 88.5964 49.3912L88.3103 49.6553C88.2028 49.5391 88.0714 49.4475 87.9252 49.3867C87.779 49.326 87.6214 49.2975 87.4631 49.3032C87.2517 49.3032 87.0436 49.3561 86.8579 49.4572C86.6845 49.5528 86.54 49.6935 86.4398 49.8644C86.2832 50.1331 86.2392 50.4528 86.3176 50.7538C86.3959 51.0548 86.5902 51.3126 86.8579 51.4708C87.0444 51.5685 87.2526 51.6177 87.4631 51.6138C87.6214 51.6196 87.779 51.5911 87.9252 51.5303C88.0714 51.4695 88.2028 51.3779 88.3103 51.2617L88.5964 51.5258C88.457 51.6805 88.2838 51.801 88.0903 51.8779C87.8851 51.9644 87.6637 52.0056 87.4411 51.9989C87.1574 52.0026 86.8773 51.9345 86.6269 51.8009Z" fill="white"/>
<path d="M89.7299 48.9531H89.3008V51.9679H89.7299V48.9531Z" fill="white"/>
<path d="M91.3116 49.3272H90.2773V48.9531H92.775V49.3272H91.7407V51.9679H91.3116V49.3272Z" fill="white"/>
<path d="M94.4488 50.9227V51.9679H94.0196V50.9117L92.8203 48.9531H93.2824L94.2507 50.5376L95.219 48.9531H95.6481L94.4488 50.9227Z" fill="white"/>
</g>
<defs>
<clipPath id="clip0_1730_2071">
<rect width="79.3644" height="26" fill="white" transform="translate(35 26)"/>
</clipPath>
</defs>
</svg>
