<svg width="150" height="78" viewBox="0 0 150 78" fill="none" xmlns="http://www.w3.org/2000/svg">
<rect x="0.5" y="0.5" width="149" height="77" fill="white" stroke="white"/>
<g clip-path="url(#clip0_1730_2070)">
<path d="M69.1914 37.0703C70.4572 37.9245 71.9494 38.381 73.4764 38.381C75.0035 38.381 76.4957 37.9245 77.7614 37.0703H69.1914Z" fill="black"/>
<path d="M76.3089 26.69C76.9472 27.1403 77.4685 27.7369 77.8289 28.43C77.8549 28.4836 77.9007 28.5251 77.9567 28.5456C78.0127 28.5661 78.0744 28.5641 78.1289 28.54L80.4989 27.54C80.3413 27.1931 80.1575 26.8588 79.9489 26.54C79.7432 26.2336 79.5195 25.9398 79.2789 25.66L79.0989 25.47C78.9189 25.28 78.7189 25.09 78.5189 24.91L78.3289 24.76C78.1037 24.5746 77.8665 24.4042 77.6189 24.25L76.3289 26.47C76.299 26.5192 76.2895 26.5782 76.3026 26.6343C76.3157 26.6904 76.3503 26.7391 76.3989 26.77" fill="black"/>
<path d="M77.4003 34.6201C76.8048 34.6346 76.2116 34.5397 75.6503 34.3402C74.2426 33.8866 72.728 33.8866 71.3203 34.3402C70.1801 34.7135 68.9505 34.7135 67.8103 34.3402C67.4088 34.1985 66.993 34.1012 66.5703 34.0501C66.8673 34.649 67.2403 35.2069 67.6803 35.7101C68.2921 35.8983 68.9304 35.9861 69.5703 35.9702C70.3047 35.9848 71.036 35.8697 71.7303 35.6301C72.8706 35.2568 74.1001 35.2568 75.2404 35.6301C76.5376 36.0424 77.9259 36.0737 79.2404 35.7202C79.6859 35.2176 80.0595 34.6555 80.3503 34.0501C79.9324 34.1095 79.5207 34.2066 79.1203 34.3402C78.5557 34.5405 77.9592 34.6354 77.3604 34.6201" fill="black"/>
<path d="M72.8613 23.0312H72.7012H72.3912H72.3212L71.9612 23.1012C71.4717 23.2023 70.9929 23.3496 70.5312 23.5412L71.5912 25.8812C71.6154 25.9342 71.6588 25.9761 71.7126 25.9984C71.7664 26.0207 71.8267 26.0217 71.8812 26.0013C72.4011 25.8153 72.9491 25.7205 73.5012 25.7213C74.0565 25.7216 74.6077 25.8162 75.1312 26.0013C75.1858 26.0217 75.246 26.0207 75.2999 25.9984C75.3537 25.9761 75.3971 25.9342 75.4213 25.8812L76.4213 23.5512C75.9616 23.3519 75.4823 23.2011 74.9913 23.1012L74.6312 23.0312H74.5612H74.2512H74.0912H73.8613H73.0812H72.8613Z" fill="black"/>
<path d="M65.9297 32.1502V32.2002H66.2697C66.629 32.2892 66.9683 32.4452 67.2697 32.6602C67.952 33.135 68.7634 33.3896 69.5947 33.3896C70.426 33.3896 71.2374 33.135 71.9197 32.6602C72.3747 32.3101 72.9358 32.1266 73.5097 32.1402C74.0863 32.1291 74.6499 32.3122 75.1097 32.6602C75.79 33.1356 76.5998 33.3905 77.4297 33.3905C78.2596 33.3905 79.0695 33.1356 79.7497 32.6602C80.0506 32.4444 80.3901 32.2883 80.7497 32.2002H81.0897V32.1502C81.1789 31.6788 81.2225 31.1999 81.2197 30.7202V30.3702C81.2197 30.3702 81.2197 30.3002 81.2197 30.2702C81.2251 30.1836 81.2251 30.0967 81.2197 30.0102V29.8402C81.2247 29.7703 81.2247 29.7001 81.2197 29.6302V29.4402C81.2197 29.4402 81.2197 29.3802 81.2197 29.3402C81.1818 29.1101 81.1283 28.883 81.0597 28.6602L78.6097 29.4002C78.5557 29.4185 78.5104 29.4563 78.4827 29.5062C78.4549 29.5561 78.4468 29.6146 78.4597 29.6702C78.5293 29.9991 78.5661 30.334 78.5697 30.6702C78.5676 31.0786 78.5139 31.4852 78.4097 31.8802C78.1393 31.9717 77.8551 32.0157 77.5697 32.0102C76.9965 32.019 76.4369 31.836 75.9797 31.4902C75.3013 31.0056 74.4884 30.7451 73.6547 30.7451C72.821 30.7451 72.0081 31.0056 71.3297 31.4902C70.8709 31.8402 70.3067 32.0236 69.7297 32.0102C69.4444 32.0149 69.1603 31.9709 68.8897 31.8802C68.7888 31.4848 68.7384 31.0782 68.7397 30.6702C68.7434 30.334 68.7802 29.9991 68.8497 29.6702C68.8622 29.6133 68.8526 29.5537 68.8229 29.5036C68.7932 29.4535 68.7456 29.4165 68.6897 29.4002L66.2397 28.6602C66.1797 28.8802 66.1297 29.1102 66.0897 29.3402C66.0859 29.3734 66.0859 29.4069 66.0897 29.4402V29.6302V29.8402C66.0897 29.9002 66.0897 29.9502 66.0897 30.0102V30.2702V30.3702C66.0897 30.4902 66.0897 30.6002 66.0897 30.7202C66.0903 31.2002 66.1372 31.6791 66.2297 32.1502H65.9297Z" fill="black"/>
<path d="M70.6501 26.6819C70.6988 26.651 70.7333 26.6023 70.7464 26.5462C70.7595 26.4901 70.7501 26.4311 70.7202 26.3819L69.4601 24.1719C69.3047 24.2671 69.1545 24.3706 69.0101 24.4819L68.8101 24.6319L68.6201 24.7919C68.4204 24.9649 68.2302 25.1485 68.0502 25.3419L67.8701 25.5419C67.6304 25.8199 67.4099 26.1139 67.2101 26.4219C66.9999 26.7397 66.816 27.0741 66.6602 27.4219L69.0302 28.4219C69.0832 28.4456 69.1435 28.4473 69.1978 28.4267C69.2521 28.4061 69.2961 28.3648 69.3201 28.3119C69.6843 27.6183 70.2089 27.0218 70.8502 26.5719" fill="black"/>
<path d="M37.7917 43.6191H36.4617V47.9991H35.3617V43.6191H34.0117V42.5391H37.8017L37.7917 43.6191Z" fill="black"/>
<path d="M43.2486 42.5586V48.0186H42.1586V45.8286H40.1586V48.0186H39.0586V42.5586H40.1586V44.7386H42.1586V42.5586H43.2486Z" fill="black"/>
<path d="M45.9984 43.6191V44.6891H47.8784V45.7791H45.9984V46.9091H48.1884V47.9991H44.8984V42.5391H48.1884V43.6191H45.9984Z" fill="black"/>
<path d="M52.1798 45.2919C52.1758 44.7269 52.3399 44.1735 52.6511 43.702C52.9623 43.2305 53.4065 42.8621 53.9275 42.6436C54.4485 42.4251 55.0227 42.3664 55.5771 42.4749C56.1315 42.5835 56.6412 42.8543 57.0414 43.2531C57.4416 43.6519 57.7142 44.1606 57.8247 44.7146C57.9352 45.2686 57.8785 45.843 57.6618 46.3648C57.4452 46.8865 57.0783 47.3321 56.6079 47.645C56.1375 47.9578 55.5847 48.1238 55.0198 48.1219C54.2699 48.1167 53.5521 47.8171 53.0209 47.2878C52.4897 46.7585 52.1876 46.0417 52.1798 45.2919ZM56.7498 45.2919C56.7517 44.9493 56.652 44.6138 56.4631 44.328C56.2742 44.0422 56.0047 43.8189 55.6888 43.6864C55.3729 43.554 55.0247 43.5183 54.6884 43.5839C54.3522 43.6495 54.043 43.8135 53.8001 44.055C53.5571 44.2966 53.3914 44.6048 53.3238 44.9406C53.2562 45.2765 53.2899 45.6249 53.4205 45.9416C53.5512 46.2583 53.7729 46.5291 54.0576 46.7196C54.3423 46.9101 54.6772 47.0119 55.0198 47.0119C55.4769 47.0119 55.9154 46.831 56.2396 46.5087C56.5637 46.1864 56.7471 45.749 56.7498 45.2919Z" fill="black"/>
<path d="M59.0312 45.2914C59.0415 44.5405 59.3437 43.823 59.8738 43.291C60.404 42.759 61.1203 42.4543 61.8712 42.4414C62.5985 42.4596 63.2889 42.7653 63.7913 43.2914L63.1512 44.1514C62.986 43.9726 62.7868 43.8284 62.5654 43.7271C62.3439 43.6258 62.1046 43.5695 61.8613 43.5614C61.4024 43.5614 60.9624 43.7437 60.6379 44.0681C60.3135 44.3926 60.1312 44.8326 60.1312 45.2914C60.1312 45.7502 60.3135 46.1902 60.6379 46.5147C60.9624 46.8391 61.4024 47.0214 61.8613 47.0214C62.3559 46.9918 62.8192 46.7692 63.1512 46.4014L63.7812 47.2814C63.542 47.5452 63.2503 47.7561 62.9249 47.9008C62.5994 48.0454 62.2474 48.1205 61.8912 48.1214C61.1387 48.1188 60.4173 47.8208 59.8823 47.2915C59.3474 46.7621 59.0417 46.0439 59.0312 45.2914Z" fill="black"/>
<path d="M66.2015 43.6191V44.6891H68.0815V45.7791H66.2015V46.9091H68.3915V47.9991H65.1016V42.5391H68.3915V43.6191H66.2015Z" fill="black"/>
<path d="M73.2109 47.2619H71.0209L70.671 48.0219H69.4609L72.0709 42.4219L74.6909 48.0219H73.5609L73.2109 47.2619ZM72.7809 46.3219L72.1209 44.8619L71.4609 46.3219H72.791H72.7809Z" fill="black"/>
<path d="M80.379 42.5392V48.1192L77.129 44.9592V48.0192H76.0391V42.4492H76.0891L79.319 45.5992V42.5392H80.429H80.379Z" fill="black"/>
<path d="M87.59 48.0193L85.85 45.4393V48.0193H84.75V42.5593H86.53C86.7686 42.5526 87.006 42.5932 87.2288 42.6787C87.4516 42.7642 87.6553 42.8929 87.8282 43.0574C88.0011 43.2219 88.1397 43.419 88.2361 43.6372C88.3326 43.8555 88.3848 44.0907 88.39 44.3293C88.3974 44.6542 88.3058 44.9737 88.1271 45.2453C87.9485 45.5168 87.6914 45.7275 87.39 45.8493L88.94 48.0193H87.59ZM85.85 45.0193H86.55C86.733 45.0193 86.9085 44.9466 87.0379 44.8172C87.1673 44.6878 87.2401 44.5123 87.2401 44.3293C87.2401 44.1463 87.1673 43.9708 87.0379 43.8414C86.9085 43.712 86.733 43.6393 86.55 43.6393H85.85V45.0193Z" fill="black"/>
<path d="M91.2402 43.6191V44.6891H93.1301V45.7791H91.2402V46.9091H93.4601V47.9991H90.1602V42.5391H93.4601V43.6191H91.2402Z" fill="black"/>
<path d="M94.6616 47.0815L95.5316 46.4615C95.6388 46.6441 95.7948 46.7932 95.982 46.8921C96.1692 46.991 96.3803 47.0358 96.5916 47.0215C97.1116 47.0215 97.4515 46.8115 97.4515 46.5215C97.4515 46.2315 96.8016 45.8115 96.2316 45.5215C95.6616 45.2315 94.9415 44.8815 94.9415 44.0115C94.9513 43.7875 95.0067 43.5678 95.1042 43.3659C95.2018 43.164 95.3394 42.9841 95.5088 42.8372C95.6782 42.6902 95.8757 42.5794 96.0894 42.5113C96.3031 42.4433 96.5284 42.4196 96.7515 42.4415C97.0906 42.4123 97.4299 42.494 97.7185 42.6743C98.0071 42.8547 98.2293 43.124 98.3516 43.4415L97.5416 44.0115C97.4701 43.8676 97.3583 43.7474 97.2198 43.6658C97.0813 43.5841 96.9221 43.5444 96.7615 43.5515C96.3515 43.5515 96.0516 43.7915 96.0516 44.0715C96.0516 44.3515 96.4616 44.5015 97.0516 44.8015C97.9516 45.2315 98.5215 45.6915 98.5215 46.5315C98.5215 47.5315 97.7115 48.1615 96.5215 48.1615C96.1341 48.192 95.7462 48.1089 95.4052 47.9224C95.0642 47.7359 94.785 47.4541 94.6016 47.1115L94.6616 47.0815Z" fill="black"/>
<path d="M99.6797 45.2914C99.6777 44.7293 99.8427 44.1792 100.154 43.7109C100.464 43.2425 100.907 42.877 101.426 42.6605C101.945 42.444 102.516 42.3863 103.068 42.4948C103.619 42.6032 104.126 42.8729 104.524 43.2697C104.923 43.6665 105.194 44.1725 105.304 44.7237C105.415 45.2749 105.359 45.8464 105.144 46.3659C104.93 46.8854 104.566 47.3296 104.099 47.6421C103.631 47.9546 103.082 48.1214 102.52 48.1214C101.77 48.1162 101.052 47.8167 100.521 47.2874C99.9896 46.758 99.6876 46.0413 99.6797 45.2914ZM104.25 45.2914C104.252 44.9488 104.152 44.6134 103.963 44.3276C103.774 44.0417 103.505 43.8185 103.189 43.686C102.873 43.5535 102.525 43.5178 102.188 43.5834C101.852 43.6491 101.543 43.813 101.3 44.0546C101.057 44.2961 100.891 44.6043 100.824 44.9402C100.756 45.2761 100.79 45.6244 100.92 45.9411C101.051 46.2578 101.273 46.5286 101.558 46.7192C101.842 46.9097 102.177 47.0114 102.52 47.0114C102.976 47.0088 103.413 46.8271 103.737 46.5054C104.06 46.1836 104.244 45.7477 104.25 45.2914Z" fill="black"/>
<path d="M109.611 48.0193L107.871 45.4393V48.0193H106.781V42.5593H108.551C108.79 42.5526 109.027 42.5932 109.25 42.6787C109.473 42.7642 109.677 42.8929 109.849 43.0574C110.022 43.2219 110.161 43.419 110.257 43.6372C110.354 43.8555 110.406 44.0907 110.411 44.3293C110.419 44.6542 110.327 44.9737 110.148 45.2453C109.97 45.5168 109.713 45.7275 109.411 45.8493L110.971 48.0193H109.611ZM107.871 45.0193H108.571C108.754 45.0193 108.93 44.9466 109.059 44.8172C109.189 44.6878 109.261 44.5123 109.261 44.3293C109.261 44.1463 109.189 43.9708 109.059 43.8414C108.93 43.712 108.754 43.6393 108.571 43.6393H107.871V45.0193Z" fill="black"/>
<path d="M115.462 43.6191H114.122V47.9991H113.022V43.6191H111.672V42.5391H115.462V43.6191Z" fill="black"/>
<path d="M65.2486 53.8498C65.3282 53.861 65.409 53.861 65.4886 53.8498V54.2698C65.2916 54.2653 65.1002 54.2027 64.9386 54.0898C64.7214 54.2009 64.4738 54.238 64.2336 54.1956C63.9933 54.1531 63.7735 54.0333 63.6075 53.8544C63.4416 53.6755 63.3386 53.4473 63.3142 53.2046C63.2898 52.9618 63.3454 52.7177 63.4725 52.5094C63.5995 52.3011 63.7911 52.14 64.0181 52.0506C64.2451 51.9612 64.4952 51.9483 64.7302 52.014C64.9651 52.0797 65.1723 52.2203 65.32 52.4145C65.4677 52.6087 65.548 52.8458 65.5486 53.0898C65.5477 53.3496 65.4557 53.6009 65.2886 53.7998L65.2486 53.8498ZM64.3886 53.8498H64.5486C64.436 53.6953 64.2672 53.5912 64.0786 53.5598V53.1898C64.4986 53.1898 64.6486 53.4698 64.8586 53.6698C64.9828 53.5403 65.054 53.3691 65.0586 53.1898C65.0606 53.0529 65.0218 52.9185 64.9472 52.8038C64.8726 52.689 64.7655 52.599 64.6396 52.5453C64.5137 52.4915 64.3747 52.4764 64.2402 52.5019C64.1057 52.5273 63.9818 52.5923 63.8843 52.6884C63.7868 52.7844 63.7201 52.9074 63.6927 53.0415C63.6652 53.1756 63.6783 53.3148 63.7302 53.4415C63.7821 53.5682 63.8706 53.6765 63.9842 53.7528C64.0979 53.8291 64.2317 53.8698 64.3686 53.8698L64.3886 53.8498Z" fill="black"/>
<path d="M66.4609 53.4108V52.0508H66.8909V53.4108C66.8896 53.4642 66.899 53.5172 66.9185 53.5669C66.938 53.6166 66.9672 53.6619 67.0045 53.7001C67.0418 53.7383 67.0863 53.7687 67.1355 53.7894C67.1847 53.8101 67.2376 53.8208 67.291 53.8208C67.3435 53.8195 67.3953 53.8079 67.4433 53.7866C67.4913 53.7653 67.5346 53.7347 67.5709 53.6966C67.6071 53.6585 67.6355 53.6137 67.6544 53.5646C67.6732 53.5156 67.6822 53.4633 67.6809 53.4108V52.0508H68.1209V53.4108C68.1209 53.5198 68.0995 53.6277 68.0577 53.7284C68.016 53.8291 67.9549 53.9206 67.8778 53.9977C67.8007 54.0748 67.7093 54.1359 67.6086 54.1776C67.5079 54.2193 67.4 54.2408 67.291 54.2408C67.182 54.2408 67.074 54.2193 66.9733 54.1776C66.8726 54.1359 66.7811 54.0748 66.704 53.9977C66.627 53.9206 66.5658 53.8291 66.5241 53.7284C66.4824 53.6277 66.4609 53.5198 66.4609 53.4108Z" fill="black"/>
<path d="M69.7286 53.2908L69.0586 52.0508H69.5486L69.9486 52.8008L70.3386 52.0508H70.8286L70.1586 53.2908V54.2108H69.7286V53.2908Z" fill="black"/>
<path d="M75.0107 52.0517V54.2517L73.7308 53.0117V54.2117H73.3008V52.0117L74.5807 53.2617V52.0517H75.0208H75.0107Z" fill="black"/>
<path d="M77.7299 52.0508V54.2108H77.2999V53.3508H76.5298V54.2108H76.0898V52.0508H76.5298V52.9208H77.2999V52.0508H77.7299Z" fill="black"/>
<path d="M78.7189 53.1382C78.715 52.9135 78.7781 52.6927 78.9003 52.504C79.0224 52.3154 79.1981 52.1675 79.4048 52.0791C79.6115 51.9908 79.8398 51.9662 80.0605 52.0083C80.2813 52.0504 80.4845 52.1575 80.6442 52.3157C80.8038 52.4739 80.9127 52.6761 80.9568 52.8965C81.0009 53.1169 80.9783 53.3454 80.8918 53.5529C80.8054 53.7604 80.659 53.9374 80.4714 54.0612C80.2839 54.1851 80.0637 54.2502 79.8389 54.2482C79.5436 54.2483 79.2602 54.1316 79.0505 53.9238C78.8407 53.7159 78.7216 53.4335 78.7189 53.1382ZM80.5289 53.1382C80.5263 52.957 80.4524 52.784 80.3233 52.6568C80.1942 52.5295 80.0202 52.4582 79.8389 52.4582C79.7049 52.4602 79.5744 52.5018 79.4639 52.5777C79.3534 52.6536 79.2678 52.7605 79.2178 52.8849C79.1679 53.0093 79.1559 53.1457 79.1832 53.2769C79.2106 53.4082 79.2762 53.5284 79.3716 53.6225C79.4671 53.7166 79.5883 53.7804 79.7199 53.8058C79.8515 53.8312 79.9877 53.8172 80.1114 53.7655C80.2351 53.7137 80.3407 53.6266 80.415 53.515C80.4893 53.4034 80.5289 53.2723 80.5289 53.1382Z" fill="black"/>
<path d="M83.6904 52.0517V54.2517L82.4105 53.0117V54.2117H81.9805V52.0117L83.2604 53.2617V52.0517H83.6904Z" fill="black"/>
</g>
<defs>
<clipPath id="clip0_1730_2070">
<rect width="81.48" height="31.31" fill="white" transform="translate(34 23)"/>
</clipPath>
</defs>
</svg>
