<svg width="132" height="78" viewBox="0 0 132 78" fill="none" xmlns="http://www.w3.org/2000/svg">
<rect x="0.5" y="0.5" width="131" height="77" rx="38.5" fill="white" stroke="white"/>
<g clip-path="url(#clip0_1730_2070)">
<path d="M60.1914 37.0703C61.4572 37.9245 62.9494 38.381 64.4764 38.381C66.0035 38.381 67.4957 37.9245 68.7614 37.0703H60.1914Z" fill="black"/>
<path d="M67.3089 26.69C67.9472 27.1403 68.4685 27.7369 68.8289 28.43C68.8549 28.4836 68.9007 28.5251 68.9567 28.5456C69.0127 28.5661 69.0744 28.5641 69.1289 28.54L71.4989 27.54C71.3413 27.1931 71.1575 26.8588 70.9489 26.54C70.7432 26.2336 70.5195 25.9398 70.2789 25.66L70.0989 25.47C69.9189 25.28 69.7189 25.09 69.5189 24.91L69.3289 24.76C69.1037 24.5746 68.8665 24.4042 68.6189 24.25L67.3289 26.47C67.299 26.5192 67.2895 26.5782 67.3026 26.6343C67.3157 26.6904 67.3503 26.7391 67.3989 26.77" fill="black"/>
<path d="M68.4003 34.6201C67.8048 34.6346 67.2116 34.5397 66.6503 34.3402C65.2426 33.8866 63.728 33.8866 62.3203 34.3402C61.1801 34.7135 59.9505 34.7135 58.8103 34.3402C58.4088 34.1985 57.993 34.1012 57.5703 34.0501C57.8673 34.649 58.2403 35.2069 58.6803 35.7101C59.2921 35.8983 59.9304 35.9861 60.5703 35.9702C61.3047 35.9848 62.036 35.8697 62.7303 35.6301C63.8706 35.2568 65.1001 35.2568 66.2404 35.6301C67.5376 36.0424 68.9259 36.0737 70.2404 35.7202C70.6859 35.2176 71.0595 34.6555 71.3503 34.0501C70.9324 34.1095 70.5207 34.2066 70.1203 34.3402C69.5557 34.5405 68.9592 34.6354 68.3604 34.6201" fill="black"/>
<path d="M63.8613 23.0312H63.7012H63.3912H63.3212L62.9612 23.1012C62.4717 23.2023 61.9929 23.3496 61.5312 23.5412L62.5912 25.8812C62.6154 25.9342 62.6588 25.9761 62.7126 25.9984C62.7664 26.0207 62.8267 26.0217 62.8812 26.0013C63.4011 25.8153 63.9491 25.7205 64.5012 25.7213C65.0565 25.7216 65.6077 25.8162 66.1312 26.0013C66.1858 26.0217 66.246 26.0207 66.2999 25.9984C66.3537 25.9761 66.3971 25.9342 66.4213 25.8812L67.4213 23.5512C66.9616 23.3519 66.4823 23.2011 65.9913 23.1012L65.6312 23.0312H65.5612H65.2512H65.0912H64.8613H64.0812H63.8613Z" fill="black"/>
<path d="M56.9297 32.1502V32.2002H57.2697C57.629 32.2892 57.9683 32.4452 58.2697 32.6602C58.952 33.135 59.7634 33.3896 60.5947 33.3896C61.426 33.3896 62.2374 33.135 62.9197 32.6602C63.3747 32.3101 63.9358 32.1266 64.5097 32.1402C65.0863 32.1291 65.6499 32.3122 66.1097 32.6602C66.79 33.1356 67.5998 33.3905 68.4297 33.3905C69.2596 33.3905 70.0695 33.1356 70.7497 32.6602C71.0506 32.4444 71.3901 32.2883 71.7497 32.2002H72.0897V32.1502C72.1789 31.6788 72.2225 31.1999 72.2197 30.7202V30.3702C72.2197 30.3702 72.2197 30.3002 72.2197 30.2702C72.2251 30.1836 72.2251 30.0967 72.2197 30.0102V29.8402C72.2247 29.7703 72.2247 29.7001 72.2197 29.6302V29.4402C72.2197 29.4402 72.2197 29.3802 72.2197 29.3402C72.1818 29.1101 72.1283 28.883 72.0597 28.6602L69.6097 29.4002C69.5557 29.4185 69.5104 29.4563 69.4827 29.5062C69.4549 29.5561 69.4468 29.6146 69.4597 29.6702C69.5293 29.9991 69.5661 30.334 69.5697 30.6702C69.5676 31.0786 69.5139 31.4852 69.4097 31.8802C69.1393 31.9717 68.8551 32.0157 68.5697 32.0102C67.9965 32.019 67.4369 31.836 66.9797 31.4902C66.3013 31.0056 65.4884 30.7451 64.6547 30.7451C63.821 30.7451 63.0081 31.0056 62.3297 31.4902C61.8709 31.8402 61.3067 32.0236 60.7297 32.0102C60.4444 32.0149 60.1603 31.9709 59.8897 31.8802C59.7888 31.4848 59.7384 31.0782 59.7397 30.6702C59.7434 30.334 59.7802 29.9991 59.8497 29.6702C59.8622 29.6133 59.8526 29.5537 59.8229 29.5036C59.7932 29.4535 59.7456 29.4165 59.6897 29.4002L57.2397 28.6602C57.1797 28.8802 57.1297 29.1102 57.0897 29.3402C57.0859 29.3734 57.0859 29.4069 57.0897 29.4402V29.6302V29.8402C57.0897 29.9002 57.0897 29.9502 57.0897 30.0102V30.2702V30.3702C57.0897 30.4902 57.0897 30.6002 57.0897 30.7202C57.0903 31.2002 57.1372 31.6791 57.2297 32.1502H56.9297Z" fill="black"/>
<path d="M61.6501 26.6819C61.6988 26.651 61.7333 26.6023 61.7464 26.5462C61.7595 26.4901 61.7501 26.4311 61.7202 26.3819L60.4601 24.1719C60.3047 24.2671 60.1545 24.3706 60.0101 24.4819L59.8101 24.6319L59.6201 24.7919C59.4204 24.9649 59.2302 25.1485 59.0502 25.3419L58.8701 25.5419C58.6304 25.8199 58.4099 26.1139 58.2101 26.4219C57.9999 26.7397 57.816 27.0741 57.6602 27.4219L60.0302 28.4219C60.0832 28.4456 60.1435 28.4473 60.1978 28.4267C60.2521 28.4061 60.2961 28.3648 60.3201 28.3119C60.6843 27.6183 61.2089 27.0218 61.8502 26.5719" fill="black"/>
<path d="M28.7917 43.6191H27.4617V47.9991H26.3617V43.6191H25.0117V42.5391H28.8017L28.7917 43.6191Z" fill="black"/>
<path d="M34.2486 42.5586V48.0186H33.1586V45.8286H31.1586V48.0186H30.0586V42.5586H31.1586V44.7386H33.1586V42.5586H34.2486Z" fill="black"/>
<path d="M36.9984 43.6191V44.6891H38.8784V45.7791H36.9984V46.9091H39.1884V47.9991H35.8984V42.5391H39.1884V43.6191H36.9984Z" fill="black"/>
<path d="M43.1798 45.2919C43.1758 44.7269 43.3399 44.1735 43.6511 43.702C43.9623 43.2305 44.4065 42.8621 44.9275 42.6436C45.4485 42.4251 46.0227 42.3664 46.5771 42.4749C47.1315 42.5835 47.6412 42.8543 48.0414 43.2531C48.4416 43.6519 48.7142 44.1606 48.8247 44.7146C48.9352 45.2686 48.8785 45.843 48.6618 46.3648C48.4452 46.8865 48.0783 47.3321 47.6079 47.645C47.1375 47.9578 46.5847 48.1238 46.0198 48.1219C45.2699 48.1167 44.5521 47.8171 44.0209 47.2878C43.4897 46.7585 43.1876 46.0417 43.1798 45.2919ZM47.7498 45.2919C47.7517 44.9493 47.652 44.6138 47.4631 44.328C47.2742 44.0422 47.0047 43.8189 46.6888 43.6864C46.3729 43.554 46.0247 43.5183 45.6884 43.5839C45.3522 43.6495 45.043 43.8135 44.8001 44.055C44.5571 44.2966 44.3914 44.6048 44.3238 44.9406C44.2562 45.2765 44.2899 45.6249 44.4205 45.9416C44.5512 46.2583 44.7729 46.5291 45.0576 46.7196C45.3423 46.9101 45.6772 47.0119 46.0198 47.0119C46.4769 47.0119 46.9154 46.831 47.2396 46.5087C47.5637 46.1864 47.7471 45.749 47.7498 45.2919Z" fill="black"/>
<path d="M50.0312 45.2914C50.0415 44.5405 50.3437 43.823 50.8738 43.291C51.404 42.759 52.1203 42.4543 52.8712 42.4414C53.5985 42.4596 54.2889 42.7653 54.7913 43.2914L54.1512 44.1514C53.986 43.9726 53.7868 43.8284 53.5654 43.7271C53.3439 43.6258 53.1046 43.5695 52.8613 43.5614C52.4024 43.5614 51.9624 43.7437 51.6379 44.0681C51.3135 44.3926 51.1312 44.8326 51.1312 45.2914C51.1312 45.7502 51.3135 46.1902 51.6379 46.5147C51.9624 46.8391 52.4024 47.0214 52.8613 47.0214C53.3559 46.9918 53.8192 46.7692 54.1512 46.4014L54.7812 47.2814C54.542 47.5452 54.2503 47.7561 53.9249 47.9008C53.5994 48.0454 53.2474 48.1205 52.8912 48.1214C52.1387 48.1188 51.4173 47.8208 50.8823 47.2915C50.3474 46.7621 50.0417 46.0439 50.0312 45.2914Z" fill="black"/>
<path d="M57.2015 43.6191V44.6891H59.0815V45.7791H57.2015V46.9091H59.3915V47.9991H56.1016V42.5391H59.3915V43.6191H57.2015Z" fill="black"/>
<path d="M64.2109 47.2619H62.0209L61.671 48.0219H60.4609L63.0709 42.4219L65.6909 48.0219H64.5609L64.2109 47.2619ZM63.7809 46.3219L63.1209 44.8619L62.4609 46.3219H63.791H63.7809Z" fill="black"/>
<path d="M71.379 42.5392V48.1192L68.129 44.9592V48.0192H67.0391V42.4492H67.0891L70.319 45.5992V42.5392H71.429H71.379Z" fill="black"/>
<path d="M78.59 48.0193L76.85 45.4393V48.0193H75.75V42.5593H77.53C77.7686 42.5526 78.006 42.5932 78.2288 42.6787C78.4516 42.7642 78.6553 42.8929 78.8282 43.0574C79.0011 43.2219 79.1397 43.419 79.2361 43.6372C79.3326 43.8555 79.3848 44.0907 79.39 44.3293C79.3974 44.6542 79.3058 44.9737 79.1271 45.2453C78.9485 45.5168 78.6914 45.7275 78.39 45.8493L79.94 48.0193H78.59ZM76.85 45.0193H77.55C77.733 45.0193 77.9085 44.9466 78.0379 44.8172C78.1673 44.6878 78.2401 44.5123 78.2401 44.3293C78.2401 44.1463 78.1673 43.9708 78.0379 43.8414C77.9085 43.712 77.733 43.6393 77.55 43.6393H76.85V45.0193Z" fill="black"/>
<path d="M82.2402 43.6191V44.6891H84.1301V45.7791H82.2402V46.9091H84.4601V47.9991H81.1602V42.5391H84.4601V43.6191H82.2402Z" fill="black"/>
<path d="M85.6616 47.0815L86.5316 46.4615C86.6388 46.6441 86.7948 46.7932 86.982 46.8921C87.1692 46.991 87.3803 47.0358 87.5916 47.0215C88.1116 47.0215 88.4515 46.8115 88.4515 46.5215C88.4515 46.2315 87.8016 45.8115 87.2316 45.5215C86.6616 45.2315 85.9415 44.8815 85.9415 44.0115C85.9513 43.7875 86.0067 43.5678 86.1042 43.3659C86.2018 43.164 86.3394 42.9841 86.5088 42.8372C86.6782 42.6902 86.8757 42.5794 87.0894 42.5113C87.3031 42.4433 87.5284 42.4196 87.7515 42.4415C88.0906 42.4123 88.4299 42.494 88.7185 42.6743C89.0071 42.8547 89.2293 43.124 89.3516 43.4415L88.5416 44.0115C88.4701 43.8676 88.3583 43.7474 88.2198 43.6658C88.0813 43.5841 87.9221 43.5444 87.7615 43.5515C87.3515 43.5515 87.0516 43.7915 87.0516 44.0715C87.0516 44.3515 87.4616 44.5015 88.0516 44.8015C88.9516 45.2315 89.5215 45.6915 89.5215 46.5315C89.5215 47.5315 88.7115 48.1615 87.5215 48.1615C87.1341 48.192 86.7462 48.1089 86.4052 47.9224C86.0642 47.7359 85.785 47.4541 85.6016 47.1115L85.6616 47.0815Z" fill="black"/>
<path d="M90.6797 45.2914C90.6777 44.7293 90.8427 44.1792 91.1535 43.7109C91.4644 43.2425 91.9072 42.877 92.426 42.6605C92.9447 42.444 93.5161 42.3863 94.0676 42.4948C94.6192 42.6032 95.1262 42.8729 95.5244 43.2697C95.9226 43.6665 96.194 44.1725 96.3044 44.7237C96.4148 45.2749 96.3591 45.8464 96.1445 46.3659C95.9298 46.8854 95.5658 47.3296 95.0986 47.6421C94.6313 47.9546 94.0819 48.1214 93.5197 48.1214C92.7699 48.1162 92.052 47.8167 91.5208 47.2874C90.9896 46.758 90.6876 46.0413 90.6797 45.2914ZM95.2497 45.2914C95.2517 44.9488 95.1519 44.6134 94.963 44.3276C94.7741 44.0417 94.5047 43.8185 94.1887 43.686C93.8728 43.5535 93.5246 43.5178 93.1884 43.5834C92.8521 43.6491 92.543 43.813 92.3 44.0546C92.0571 44.2961 91.8913 44.6043 91.8237 44.9402C91.7562 45.2761 91.7898 45.6244 91.9205 45.9411C92.0511 46.2578 92.2729 46.5286 92.5576 46.7192C92.8423 46.9097 93.1771 47.0114 93.5197 47.0114C93.976 47.0088 94.4131 46.8271 94.7367 46.5054C95.0602 46.1836 95.2445 45.7477 95.2497 45.2914Z" fill="black"/>
<path d="M100.611 48.0193L98.8712 45.4393V48.0193H97.7812V42.5593H99.5513C99.7898 42.5526 100.027 42.5932 100.25 42.6787C100.473 42.7642 100.677 42.8929 100.849 43.0574C101.022 43.2219 101.161 43.419 101.257 43.6372C101.354 43.8555 101.406 44.0907 101.411 44.3293C101.419 44.6542 101.327 44.9737 101.148 45.2453C100.97 45.5168 100.713 45.7275 100.411 45.8493L101.971 48.0193H100.611ZM98.8712 45.0193H99.5712C99.7542 45.0193 99.9297 44.9466 100.059 44.8172C100.189 44.6878 100.261 44.5123 100.261 44.3293C100.261 44.1463 100.189 43.9708 100.059 43.8414C99.9297 43.712 99.7542 43.6393 99.5712 43.6393H98.8712V45.0193Z" fill="black"/>
<path d="M106.462 43.6191H105.122V47.9991H104.022V43.6191H102.672V42.5391H106.462V43.6191Z" fill="black"/>
<path d="M56.2486 53.8498C56.3282 53.861 56.409 53.861 56.4886 53.8498V54.2698C56.2916 54.2653 56.1002 54.2027 55.9386 54.0898C55.7214 54.2009 55.4738 54.238 55.2336 54.1956C54.9933 54.1531 54.7735 54.0333 54.6075 53.8544C54.4416 53.6755 54.3386 53.4473 54.3142 53.2046C54.2898 52.9618 54.3454 52.7177 54.4725 52.5094C54.5995 52.3011 54.7911 52.14 55.0181 52.0506C55.2451 51.9612 55.4952 51.9483 55.7302 52.014C55.9651 52.0797 56.1723 52.2203 56.32 52.4145C56.4677 52.6087 56.548 52.8458 56.5486 53.0898C56.5477 53.3496 56.4557 53.6009 56.2886 53.7998L56.2486 53.8498ZM55.3886 53.8498H55.5486C55.436 53.6953 55.2672 53.5912 55.0786 53.5598V53.1898C55.4986 53.1898 55.6486 53.4698 55.8586 53.6698C55.9828 53.5403 56.054 53.3691 56.0586 53.1898C56.0606 53.0529 56.0218 52.9185 55.9472 52.8038C55.8726 52.689 55.7655 52.599 55.6396 52.5453C55.5137 52.4915 55.3747 52.4764 55.2402 52.5019C55.1057 52.5273 54.9818 52.5923 54.8843 52.6884C54.7868 52.7844 54.7201 52.9074 54.6927 53.0415C54.6652 53.1756 54.6783 53.3148 54.7302 53.4415C54.7821 53.5682 54.8706 53.6765 54.9842 53.7528C55.0979 53.8291 55.2317 53.8698 55.3686 53.8698L55.3886 53.8498Z" fill="black"/>
<path d="M57.4609 53.4108V52.0508H57.8909V53.4108C57.8896 53.4642 57.899 53.5172 57.9185 53.5669C57.938 53.6166 57.9672 53.6619 58.0045 53.7001C58.0418 53.7383 58.0863 53.7687 58.1355 53.7894C58.1847 53.8101 58.2376 53.8208 58.291 53.8208C58.3435 53.8195 58.3953 53.8079 58.4433 53.7866C58.4913 53.7653 58.5346 53.7347 58.5709 53.6966C58.6071 53.6585 58.6355 53.6137 58.6544 53.5646C58.6732 53.5156 58.6822 53.4633 58.6809 53.4108V52.0508H59.1209V53.4108C59.1209 53.5198 59.0995 53.6277 59.0577 53.7284C59.016 53.8291 58.9549 53.9206 58.8778 53.9977C58.8007 54.0748 58.7093 54.1359 58.6086 54.1776C58.5079 54.2193 58.4 54.2408 58.291 54.2408C58.182 54.2408 58.074 54.2193 57.9733 54.1776C57.8726 54.1359 57.7811 54.0748 57.704 53.9977C57.627 53.9206 57.5658 53.8291 57.5241 53.7284C57.4824 53.6277 57.4609 53.5198 57.4609 53.4108Z" fill="black"/>
<path d="M60.7286 53.2908L60.0586 52.0508H60.5486L60.9486 52.8008L61.3386 52.0508H61.8286L61.1586 53.2908V54.2108H60.7286V53.2908Z" fill="black"/>
<path d="M66.0107 52.0517V54.2517L64.7308 53.0117V54.2117H64.3008V52.0117L65.5807 53.2617V52.0517H66.0208H66.0107Z" fill="black"/>
<path d="M68.7299 52.0508V54.2108H68.2999V53.3508H67.5298V54.2108H67.0898V52.0508H67.5298V52.9208H68.2999V52.0508H68.7299Z" fill="black"/>
<path d="M69.7189 53.1382C69.715 52.9135 69.7781 52.6927 69.9003 52.504C70.0224 52.3154 70.1981 52.1675 70.4048 52.0791C70.6115 51.9908 70.8398 51.9662 71.0605 52.0083C71.2813 52.0504 71.4845 52.1575 71.6442 52.3157C71.8038 52.4739 71.9127 52.6761 71.9568 52.8965C72.0009 53.1169 71.9783 53.3454 71.8918 53.5529C71.8054 53.7604 71.659 53.9374 71.4714 54.0612C71.2839 54.1851 71.0637 54.2502 70.8389 54.2482C70.5436 54.2483 70.2602 54.1316 70.0505 53.9238C69.8407 53.7159 69.7216 53.4335 69.7189 53.1382ZM71.5289 53.1382C71.5263 52.957 71.4524 52.784 71.3233 52.6568C71.1942 52.5295 71.0202 52.4582 70.8389 52.4582C70.7049 52.4602 70.5744 52.5018 70.4639 52.5777C70.3534 52.6536 70.2678 52.7605 70.2178 52.8849C70.1679 53.0093 70.1559 53.1457 70.1832 53.2769C70.2106 53.4082 70.2762 53.5284 70.3716 53.6225C70.4671 53.7166 70.5883 53.7804 70.7199 53.8058C70.8515 53.8312 70.9877 53.8172 71.1114 53.7655C71.2351 53.7137 71.3407 53.6266 71.415 53.515C71.4893 53.4034 71.5289 53.2723 71.5289 53.1382Z" fill="black"/>
<path d="M74.6904 52.0517V54.2517L73.4105 53.0117V54.2117H72.9805V52.0117L74.2604 53.2617V52.0517H74.6904Z" fill="black"/>
</g>
<defs>
<clipPath id="clip0_1730_2070">
<rect width="81.48" height="31.31" fill="white" transform="translate(25 23)"/>
</clipPath>
</defs>
</svg>
