<svg width="150" height="78" viewBox="0 0 150 78" fill="none" xmlns="http://www.w3.org/2000/svg">
<rect width="150" height="78" fill="white"/>
<g clip-path="url(#clip0_1730_2069)">
<path d="M67.6008 50.5997V48.6797H68.1908V53.4297H67.6008V51.1497H65.3908V53.4297H64.8008V48.6797H65.3908V50.5997H67.6008Z" fill="#010101"/>
<path d="M73.9812 51.0583C73.9661 51.7077 73.6969 52.3253 73.2312 52.7783C72.7707 53.2338 72.149 53.4893 71.5012 53.4893C70.8534 53.4893 70.2318 53.2338 69.7712 52.7783C69.3084 52.3243 69.0426 51.7065 69.0312 51.0583C69.0443 50.4075 69.3096 49.7872 69.7712 49.3283C70.2318 48.8727 70.8534 48.6172 71.5012 48.6172C72.149 48.6172 72.7707 48.8727 73.2312 49.3283C73.6957 49.7862 73.9645 50.4063 73.9812 51.0583ZM73.3912 51.0583C73.4101 50.7992 73.3754 50.539 73.2892 50.2939C73.203 50.0489 73.0673 49.8242 72.8904 49.6339C72.7135 49.4437 72.4993 49.292 72.2611 49.1882C72.023 49.0844 71.766 49.0309 71.5062 49.0309C71.2465 49.0309 70.9895 49.0844 70.7513 49.1882C70.5132 49.292 70.299 49.4437 70.1221 49.6339C69.9452 49.8242 69.8094 50.0489 69.7233 50.2939C69.6371 50.539 69.6024 50.7992 69.6212 51.0583C69.6149 51.3111 69.6591 51.5627 69.7512 51.7983C69.8409 52.0354 69.9808 52.2503 70.1612 52.4283C70.3338 52.6109 70.5412 52.7571 70.7712 52.8583C71.0073 52.9498 71.2581 52.9972 71.5112 52.9983C71.7636 53.0026 72.014 52.9542 72.2465 52.856C72.479 52.7578 72.6884 52.6122 72.8612 52.4283C73.0353 52.2471 73.1713 52.0329 73.2612 51.7983C73.3583 51.5641 73.4026 51.3115 73.3912 51.0583Z" fill="#010101"/>
<path d="M76.1406 53.4297H75.5506V49.2197H74.3906V48.6797H77.2306V49.2197H76.1106L76.1406 53.4297Z" fill="#010101"/>
<path d="M78.0391 48.6797H80.5691V49.2197H78.6191V50.5097H80.5191V51.0597H78.6191V52.8497H80.5691V53.3897H78.0391V48.6797Z" fill="#010101"/>
<path d="M82.2006 52.8897H83.6406V53.4297H81.6406V48.6797H82.2206L82.2006 52.8897Z" fill="#010101"/>
<path d="M86.4381 49.5782C86.3678 49.4413 86.2604 49.3269 86.1281 49.2482C85.9925 49.1674 85.8358 49.1291 85.6781 49.1382C85.485 49.1243 85.294 49.1866 85.1463 49.3119C84.9986 49.4372 84.9059 49.6153 84.8881 49.8082C84.8881 50.1782 85.2581 50.3782 85.5481 50.4882L85.8881 50.6182C86.5581 50.8882 87.0581 51.2582 87.0581 52.0582C87.061 52.2559 87.0236 52.4521 86.9483 52.6349C86.8731 52.8177 86.7614 52.9834 86.6202 53.1217C86.479 53.2601 86.3112 53.3684 86.1269 53.44C85.9426 53.5116 85.7457 53.545 85.5481 53.5382C85.1781 53.536 84.8219 53.3971 84.5481 53.1482C84.277 52.9065 84.1088 52.5701 84.0781 52.2082L84.6681 52.0782C84.6661 52.1985 84.69 52.3179 84.7381 52.4282C84.7796 52.5405 84.8444 52.6427 84.9281 52.7282C85.0152 52.8125 85.1168 52.8803 85.2281 52.9282C85.3384 52.9763 85.4578 53.0002 85.5781 52.9982C85.6992 52.9967 85.8185 52.9695 85.9281 52.9182C86.0385 52.8693 86.1372 52.7978 86.2181 52.7082C86.2988 52.6203 86.3632 52.5187 86.4081 52.4082C86.4497 52.2965 86.4668 52.1771 86.4581 52.0582C86.4581 51.5382 86.0481 51.3182 85.6381 51.1482L85.3181 51.0082C84.7781 50.7782 84.3181 50.4682 84.3181 49.8082C84.3256 49.6351 84.368 49.4654 84.4425 49.309C84.5171 49.1527 84.6223 49.0129 84.752 48.8981C84.8818 48.7834 85.0333 48.6959 85.1975 48.6409C85.3618 48.5859 85.5354 48.5646 85.7081 48.5782C85.9578 48.5757 86.2034 48.6414 86.4184 48.7683C86.6334 48.8952 86.8097 49.0784 86.9281 49.2982L86.4381 49.5782Z" fill="#010101"/>
<path d="M72.5206 28.7305H70.3906V43.5105H72.5406L72.5206 28.7305Z" fill="#010101"/>
<path d="M85.3909 43.5105L78.1109 32.0605V43.5105H75.9609V28.7305H78.3109L85.3909 40.0005V28.7305H87.5409V43.5105H85.3909Z" fill="#010101"/>
<path d="M64.7605 28.7297V38.3197L61.1405 28.7297H58.8305L54.5705 39.7897L50.2905 28.6797H47.9805L53.9305 43.5097H55.2305L59.9805 31.5897L64.7605 43.5097H66.9105V28.7297H64.7605Z" fill="#010101"/>
<path d="M93.0211 35.2105V28.7305H90.8711V43.5105H93.0211V35.2105Z" fill="#010101"/>
<path d="M101.109 28.7305H98.6486L93.0586 36.0805L98.6486 43.5405H101.299L95.5386 36.0805L101.109 28.7305Z" fill="#010101"/>
<path d="M71.3906 24L70.3906 26.7H72.5406L73.5406 24H71.3906Z" fill="#010101"/>
</g>
<defs>
<clipPath id="clip0_1730_2069">
<rect width="53.3" height="29.54" fill="white" transform="translate(48 24)"/>
</clipPath>
</defs>
</svg>
