<svg width="127" height="78" viewBox="0 0 127 78" fill="none" xmlns="http://www.w3.org/2000/svg">
<rect width="127" height="78" rx="39" fill="white"/>
<g clip-path="url(#clip0_1730_2069)">
<path d="M56.6008 50.5997V48.6797H57.1908V53.4297H56.6008V51.1497H54.3908V53.4297H53.8008V48.6797H54.3908V50.5997H56.6008Z" fill="#010101"/>
<path d="M62.9812 51.0583C62.9661 51.7077 62.6969 52.3253 62.2312 52.7783C61.7707 53.2338 61.149 53.4893 60.5012 53.4893C59.8534 53.4893 59.2318 53.2338 58.7712 52.7783C58.3084 52.3243 58.0426 51.7065 58.0312 51.0583C58.0443 50.4075 58.3096 49.7872 58.7712 49.3283C59.2318 48.8727 59.8534 48.6172 60.5012 48.6172C61.149 48.6172 61.7707 48.8727 62.2312 49.3283C62.6957 49.7862 62.9645 50.4063 62.9812 51.0583ZM62.3912 51.0583C62.4101 50.7992 62.3754 50.539 62.2892 50.2939C62.203 50.0489 62.0673 49.8242 61.8904 49.6339C61.7135 49.4437 61.4993 49.292 61.2611 49.1882C61.023 49.0844 60.766 49.0309 60.5062 49.0309C60.2465 49.0309 59.9895 49.0844 59.7513 49.1882C59.5132 49.292 59.299 49.4437 59.1221 49.6339C58.9452 49.8242 58.8094 50.0489 58.7233 50.2939C58.6371 50.539 58.6024 50.7992 58.6212 51.0583C58.6149 51.3111 58.6591 51.5627 58.7512 51.7983C58.8409 52.0354 58.9808 52.2503 59.1612 52.4283C59.3338 52.6109 59.5412 52.7571 59.7712 52.8583C60.0073 52.9498 60.2581 52.9972 60.5112 52.9983C60.7636 53.0026 61.014 52.9542 61.2465 52.856C61.479 52.7578 61.6884 52.6122 61.8612 52.4283C62.0353 52.2471 62.1713 52.0329 62.2612 51.7983C62.3583 51.5641 62.4026 51.3115 62.3912 51.0583Z" fill="#010101"/>
<path d="M65.1406 53.4297H64.5506V49.2197H63.3906V48.6797H66.2306V49.2197H65.1106L65.1406 53.4297Z" fill="#010101"/>
<path d="M67.0391 48.6797H69.5691V49.2197H67.6191V50.5097H69.5191V51.0597H67.6191V52.8497H69.5691V53.3897H67.0391V48.6797Z" fill="#010101"/>
<path d="M71.2006 52.8897H72.6406V53.4297H70.6406V48.6797H71.2206L71.2006 52.8897Z" fill="#010101"/>
<path d="M75.4381 49.5782C75.3678 49.4413 75.2604 49.3269 75.1281 49.2482C74.9925 49.1674 74.8358 49.1291 74.6781 49.1382C74.485 49.1243 74.294 49.1866 74.1463 49.3119C73.9986 49.4372 73.9059 49.6153 73.8881 49.8082C73.8881 50.1782 74.2581 50.3782 74.5481 50.4882L74.8881 50.6182C75.5581 50.8882 76.0581 51.2582 76.0581 52.0582C76.061 52.2559 76.0236 52.4521 75.9483 52.6349C75.8731 52.8177 75.7614 52.9834 75.6202 53.1217C75.479 53.2601 75.3112 53.3684 75.1269 53.44C74.9426 53.5116 74.7457 53.545 74.5481 53.5382C74.1781 53.536 73.8219 53.3971 73.5481 53.1482C73.277 52.9065 73.1088 52.5701 73.0781 52.2082L73.6681 52.0782C73.6661 52.1985 73.69 52.3179 73.7381 52.4282C73.7796 52.5405 73.8444 52.6427 73.9281 52.7282C74.0152 52.8125 74.1168 52.8803 74.2281 52.9282C74.3384 52.9763 74.4578 53.0002 74.5781 52.9982C74.6992 52.9967 74.8185 52.9695 74.9281 52.9182C75.0385 52.8693 75.1372 52.7978 75.2181 52.7082C75.2988 52.6203 75.3632 52.5187 75.4081 52.4082C75.4497 52.2965 75.4668 52.1771 75.4581 52.0582C75.4581 51.5382 75.0481 51.3182 74.6381 51.1482L74.3181 51.0082C73.7781 50.7782 73.3181 50.4682 73.3181 49.8082C73.3256 49.6351 73.368 49.4654 73.4425 49.309C73.5171 49.1527 73.6223 49.0129 73.752 48.8981C73.8818 48.7834 74.0333 48.6959 74.1975 48.6409C74.3618 48.5859 74.5354 48.5646 74.7081 48.5782C74.9578 48.5757 75.2034 48.6414 75.4184 48.7683C75.6334 48.8952 75.8097 49.0784 75.9281 49.2982L75.4381 49.5782Z" fill="#010101"/>
<path d="M61.5206 28.7305H59.3906V43.5105H61.5406L61.5206 28.7305Z" fill="#010101"/>
<path d="M74.3909 43.5105L67.1109 32.0605V43.5105H64.9609V28.7305H67.3109L74.3909 40.0005V28.7305H76.5409V43.5105H74.3909Z" fill="#010101"/>
<path d="M53.7605 28.7297V38.3197L50.1405 28.7297H47.8305L43.5705 39.7897L39.2905 28.6797H36.9805L42.9305 43.5097H44.2305L48.9805 31.5897L53.7605 43.5097H55.9105V28.7297H53.7605Z" fill="#010101"/>
<path d="M82.0211 35.2105V28.7305H79.8711V43.5105H82.0211V35.2105Z" fill="#010101"/>
<path d="M90.1086 28.7305H87.6486L82.0586 36.0805L87.6486 43.5405H90.2986L84.5386 36.0805L90.1086 28.7305Z" fill="#010101"/>
<path d="M60.3906 24L59.3906 26.7H61.5406L62.5406 24H60.3906Z" fill="#010101"/>
</g>
<defs>
<clipPath id="clip0_1730_2069">
<rect width="53.3" height="29.54" fill="white" transform="translate(37 24)"/>
</clipPath>
</defs>
</svg>
