<svg width="16" height="15" viewBox="0 0 16 15" fill="none" xmlns="http://www.w3.org/2000/svg">
<path d="M13.2373 12.6016C12.2849 12.5104 11.6621 11.6579 11.6133 9.98752C12.0203 9.26611 12.4874 8.30878 13.0145 7.11552L16 0.437244C12.523 0.437244 11.3294 2.16423 10.9997 2.81538L10.8959 3.06075C10.6425 1.0192 9.84273 0 8.50566 0C7.35582 0 6.14288 0.419424 4.86686 1.25827C3.46159 2.23848 2.29979 3.54559 1.47533 5.07398C0.496437 6.76845 0.00597089 8.41678 0.00393577 10.019C-0.0465473 11.3299 0.390164 12.6113 1.22501 13.6019C1.60909 14.0547 2.08535 14.4146 2.61986 14.656C3.15438 14.8974 3.73398 15.0144 4.31738 14.9986C6.97932 14.9986 9.1691 13.7005 10.8867 11.1042C10.9885 13.7005 11.7201 14.9986 13.0816 14.9986C14.3607 14.9986 15.0872 13.9983 15.2735 12.007C14.6822 12.4427 13.9624 12.6528 13.2373 12.6016ZM8.19123 8.98405C7.27746 10.9407 6.57433 12.2409 6.08183 12.8847C5.58729 13.5296 5.11413 13.8536 4.65623 13.8536C3.79232 13.8536 3.36189 13.0451 3.36189 11.4345C3.36189 9.54713 3.97242 7.41331 5.1935 5.03308C6.41457 2.65285 7.58986 1.46169 8.71935 1.45959C9.75116 1.45959 10.2732 2.48508 10.2732 4.53921L8.19123 8.98405Z" fill="#d1b57e"/>
</svg>
