<svg width="60" height="55" viewBox="0 0 60 55" fill="none" xmlns="http://www.w3.org/2000/svg">
<path d="M49.64 46.2058C46.0683 45.8713 43.733 42.7455 43.5498 36.6209C45.0762 33.9758 46.8276 30.4655 48.8043 26.0902L60 1.60323C46.9612 1.60323 42.4852 7.93551 41.2489 10.3231L40.8596 11.2227C39.9095 3.73708 36.9103 0 31.8962 0C27.5843 0 23.0358 1.53789 18.2507 4.61366C12.9809 8.20777 8.62421 13.0005 5.53249 18.6046C1.86164 24.8176 0.0223908 30.8615 0.0147591 36.7363C-0.174552 41.5431 1.46312 46.2416 4.59378 49.8736C6.03407 51.5339 7.82007 52.8536 9.82449 53.7388C11.8289 54.624 14.0024 55.0528 16.1902 54.9948C26.1724 54.9948 34.3841 50.235 40.8253 40.7155C41.2069 50.235 43.9505 54.9948 49.0561 54.9948C53.8527 54.9948 56.5772 51.3269 57.2755 44.0258C55.0584 45.6231 52.3591 46.3938 49.64 46.2058ZM30.7171 32.9415C27.2905 40.1158 24.6537 44.8832 22.8069 47.2439C20.9524 49.6084 19.178 50.7964 17.4609 50.7964C14.2212 50.7964 12.6071 47.8321 12.6071 41.9266C12.6071 35.0061 14.8966 27.1821 19.4756 18.4546C24.0546 9.72713 28.462 5.35952 32.6976 5.35183C36.5668 5.35183 38.5244 9.11197 38.5244 16.6438L30.7171 32.9415Z" fill="white"/>
</svg>
