<svg width="160" height="160" viewBox="0 0 160 160" fill="none" xmlns="http://www.w3.org/2000/svg">
<path d="M13.022 87.0831L1.40625 84.1953L1.43821 81.6604L13.006 79.4786V79.4465L1.51809 76.9277L1.55005 74.3768L13.2617 71.874L13.2457 73.35L1.67787 75.7405V75.7725L13.1658 78.3234L13.1338 80.6818L1.56603 82.9118V82.9439L13.0539 85.7034L13.022 87.0831Z" fill="#000"/>
<path d="M4.42594 97.5272L3.33946 97.7197L2.0293 90.1312L13.5012 88.1418L14.7794 95.5539L13.693 95.7464L12.6384 89.666L8.70795 90.3398L9.66661 95.8908L8.58013 96.0833L7.62147 90.5323L3.35544 91.2703L4.42594 97.5272Z" fill="#000"/>
<path d="M10.3692 109.576L8.38802 104.346L5.24042 104.49L4.74512 103.191L17.0639 102.773L17.9107 105.02L8.45193 112.945L7.92467 111.565L10.3692 109.576ZM11.28 108.854L17.3674 103.929L17.3515 103.896L9.53841 104.282L11.28 108.854Z" fill="#000"/>
<path d="M13.9488 122.924L13.1979 121.608L16.0898 116.603L14.7477 114.212L10.4178 116.667L9.7627 115.496L19.9085 109.736L21.9536 113.362C23.1839 115.544 22.8803 117.453 21.1228 118.448C19.2534 119.507 17.416 118.881 16.2017 116.715L16.1697 116.731C16.5532 117.421 16.5053 118.432 15.946 119.378L13.9488 122.924ZM17.0964 116.218C17.8793 117.614 19.0936 117.999 20.3559 117.277C21.5542 116.587 21.8098 115.368 21.0269 113.988L19.5889 111.437L15.6584 113.667L17.0964 116.218Z" fill="#000"/>
<path d="M21.2666 130.801L20.3879 131.475L15.6904 125.378L24.9095 118.223L29.4951 124.175L28.6163 124.849L24.8456 119.956L21.698 122.41L25.1332 126.87L24.2544 127.544L20.8192 123.084L17.3681 125.763L21.2666 130.801Z" fill="#000"/>
<path d="M33.9848 139.946C32.6267 141.502 30.7573 141.502 28.9359 139.898L25.4688 136.85L33.138 128.042L36.4294 130.93C37.9313 132.245 38.155 133.785 37.0366 135.053C36.03 136.224 34.608 136.176 33.1859 134.924L33.17 134.94L33.3297 135.069C35.0713 136.641 35.311 138.422 33.9848 139.946ZM32.9303 139.031C33.8251 137.989 33.6972 136.801 32.5788 135.823L30.0543 133.609L27.1784 136.898L29.7028 139.112C30.8372 140.106 32.0356 140.058 32.9303 139.031ZM35.3589 131.491L33.4096 129.774L30.7573 132.823L32.7066 134.539C33.7452 135.454 34.8476 135.438 35.6785 134.491C36.5253 133.513 36.4134 132.406 35.3589 131.491Z" fill="#000"/>
<path d="M41.6697 148.994L40.3915 148.176L40.6312 142.384L38.3304 140.892L35.6461 145.096L34.5117 144.39L40.8069 134.539L44.306 136.801C46.4151 138.165 47.0222 139.978 45.9357 141.695C44.7694 143.524 42.868 143.812 40.775 142.465L40.759 142.497C41.43 142.93 41.8455 143.844 41.7975 144.951L41.6697 148.994ZM41.3501 141.598C42.6923 142.465 43.9385 142.24 44.7214 141.005C45.4724 139.834 45.1209 138.63 43.7947 137.78L41.3342 136.208L38.8896 140.026L41.3501 141.598Z" fill="#000"/>
<path d="M51.7357 150.406L46.6389 148.128L44.5298 150.47L43.2676 149.909L51.6718 140.86L53.8607 141.839L52.7583 154.16L51.4162 153.567L51.7357 150.406ZM51.8795 149.251L52.7104 141.454L52.6784 141.438L47.4377 147.262L51.8795 149.251Z" fill="#000"/>
<path d="M66.7712 145.978L63.7514 157.289L61.4666 156.679L59.6931 144.213H59.6611L56.7212 155.412L55.459 155.075L58.4788 143.764L60.7955 144.39L62.569 156.839H62.601L65.5568 145.657L66.7712 145.978Z" fill="#000"/>
<path d="M69.056 146.379L72.4113 146.716C75.8785 147.069 77.7159 149.443 77.3484 153.101C76.9809 156.759 74.7121 158.716 71.2449 158.364L67.8896 158.027L69.056 146.379ZM71.4367 157.273C73.9771 157.529 75.6388 155.941 75.9424 152.957C76.2459 149.989 74.9358 148.08 72.3953 147.823L70.2863 147.614L69.3436 157.064L71.4367 157.273Z" fill="#000"/>
<path d="M83.1315 154.914L84.4577 154.786C84.7772 156.663 86.0395 157.642 87.9089 157.465C89.8741 157.273 90.9286 156.326 90.7848 154.914C90.6091 153.182 88.9634 153.101 87.2538 152.989C85.3045 152.877 83.2274 152.765 82.9877 150.374C82.78 148.256 84.2021 146.925 86.8064 146.668C89.2829 146.411 90.9766 147.743 91.376 150.214L90.0499 150.342C89.7782 148.577 88.6119 147.647 86.8863 147.823C85.1607 148 84.218 148.85 84.3458 150.166C84.4896 151.658 85.9915 151.754 87.6372 151.834C89.6504 151.946 91.9033 152.075 92.1749 154.69C92.3986 156.872 90.8487 158.348 88.0207 158.62C85.3684 158.877 83.547 157.513 83.1315 154.914Z" fill="#000"/>
<path d="M100.02 145.401L96.5206 146.235L98.9652 156.535L97.655 156.856L95.2104 146.556L91.7273 147.39L91.4717 146.315L99.7641 144.326L100.02 145.401Z" fill="#000"/>
<path d="M102.018 149.78C100.627 146.267 101.586 143.491 104.526 142.32C107.482 141.149 110.038 142.529 111.428 146.042C112.802 149.556 111.876 152.331 108.92 153.503C105.964 154.674 103.392 153.294 102.018 149.78ZM110.134 146.556C109.016 143.716 107.082 142.545 104.941 143.395C102.784 144.246 102.209 146.411 103.312 149.251C104.43 152.091 106.331 153.278 108.488 152.428C110.629 151.577 111.237 149.395 110.134 146.556Z" fill="#000"/>
<path d="M123.938 145.529L122.644 146.299L117.611 143.475L115.247 144.871L117.771 149.171L116.621 149.845L110.709 139.769L114.288 137.652C116.445 136.368 118.346 136.641 119.369 138.39C120.471 140.251 119.864 142.096 117.739 143.363L117.755 143.395C118.426 142.994 119.433 143.026 120.391 143.572L123.938 145.529ZM117.212 142.497C118.586 141.679 118.937 140.459 118.202 139.208C117.499 138.005 116.269 137.78 114.911 138.582L112.403 140.074L114.703 143.973L117.212 142.497Z" fill="#000"/>
<path d="M126.048 128.956L128.78 141.791L127.614 142.737L126.559 137.956L125.537 138.775L118.075 135.405L119.321 134.395L126.591 137.748L126.623 137.732L124.882 129.887L126.048 128.956Z" fill="#000"/>
<path d="M132.422 123.678L129.962 126.293L137.631 133.561L136.704 134.555L129.019 127.288L126.559 129.919L125.76 129.165L131.608 122.924L132.422 123.678Z" fill="#000"/>
<path d="M145.381 121.881L146.275 122.523L141.802 128.764L132.343 121.929L136.721 115.817L137.615 116.458L134.02 121.48L137.248 123.822L140.523 119.25L141.418 119.892L138.143 124.464L141.674 127.015L145.381 121.881Z" fill="#000"/>
<path d="M150.047 113.33L151.037 113.875L147.842 119.811L137.584 114.244L138.223 113.057L147.49 118.079L150.047 113.33Z" fill="#000"/>
<path d="M153.513 104.699L154.568 105.116L152.123 111.389L141.274 107.105L141.77 105.854L151.564 109.72L153.513 104.699Z" fill="#000"/>
<path d="M156.15 94.7038L157.22 94.9765L155.367 102.453L144.055 99.6291L145.86 92.3293L146.931 92.6021L145.445 98.6023L149.311 99.5649L150.669 94.0941L151.74 94.3668L150.382 99.8376L154.616 100.896L156.15 94.7038Z" fill="#000"/>
<path d="M158.611 83.2487L158.451 84.7567L153.21 87.1632L152.939 89.9066L157.892 90.404L157.764 91.7356L146.164 90.5644L146.579 86.4092C146.835 83.9064 148.177 82.5267 150.174 82.7353C152.315 82.9599 153.45 84.5321 153.194 87.0028H153.226C153.306 86.2167 153.929 85.4145 154.936 84.9653L158.611 83.2487ZM152.172 86.8905C152.331 85.3022 151.564 84.2915 150.127 84.131C148.752 83.9867 147.842 84.853 147.682 86.4252L147.394 89.3451L151.9 89.8104L152.172 86.8905Z" fill="#000"/>
<path d="M154.664 81.1791L154.6 79.8314C156.485 79.6229 157.524 78.4036 157.444 76.5265C157.364 74.5532 156.485 73.4302 155.079 73.4943C153.353 73.5746 153.162 75.211 152.954 76.9276C152.746 78.8689 152.491 80.9545 150.11 81.0507C148.001 81.147 146.755 79.6229 146.643 77.0078C146.531 74.5211 147.953 72.8847 150.43 72.628L150.493 73.9756C148.72 74.1521 147.729 75.2591 147.809 77.0078C147.889 78.7405 148.688 79.7352 149.982 79.6871C151.484 79.6229 151.644 78.1309 151.836 76.4944C152.059 74.489 152.315 72.2269 154.935 72.1146C157.124 72.0184 158.482 73.6548 158.61 76.4944C158.722 79.1737 157.268 80.9064 154.664 81.1791Z" fill="#000"/>
<path d="M29.1916 32.1346L25.5487 36.37L27.1624 39.0653L26.2517 40.1241L20.0684 29.4232L21.6342 27.6104L33.0422 32.2469L32.0835 33.3539L29.1916 32.1346ZM28.1371 31.6693L20.9471 28.605L20.9312 28.6211L24.9575 35.3432L28.1371 31.6693Z" fill="#000"/>
<path d="M38.395 26.1504L39.1459 27.0007L34.097 31.4287L26.4277 22.6209L27.4343 21.7385L34.3526 29.68L38.395 26.1504Z" fill="#000"/>
<path d="M42.437 14.9201C43.6513 16.7651 43.1719 18.6742 41.1268 20.0539L38.9219 21.5299L41.4783 25.3964L40.3599 26.1344L33.9209 16.38L37.2442 14.166C39.2894 12.7863 41.2227 13.0751 42.437 14.9201ZM41.2866 15.6902C40.4558 14.4227 39.2095 14.166 37.9153 15.0324L35.6305 16.5565L38.2988 20.5994L40.5676 19.0913C41.8618 18.225 42.1174 16.9576 41.2866 15.6902Z" fill="#000"/>
<path d="M51.2404 6.73804L56.1136 17.3748L54.8993 17.9363L52.6625 13.0431L47.294 15.5137L49.5308 20.423L48.3165 20.9845L43.4434 10.3478L44.6577 9.78627L46.8306 14.519L52.1991 12.0484L50.0421 7.3156L51.2404 6.73804Z" fill="#000"/>
<path d="M64.1184 11.872L58.734 13.364L58.5902 16.5245L57.248 16.8935L57.999 4.54017L60.3157 3.89844L67.266 14.118L65.86 14.5031L64.1184 11.872ZM63.4793 10.8933L59.1813 4.33161L59.1494 4.34765L58.7979 12.1928L63.4793 10.8933Z" fill="#000"/>
<path d="M76.0855 13.38C72.9379 13.5725 70.9247 11.4709 70.701 7.70068C70.4773 3.9305 72.2029 1.58818 75.3505 1.39566C77.8909 1.23523 79.7284 2.7433 80.3195 5.42253L79.0094 5.50275C78.5141 3.51338 77.156 2.43847 75.4144 2.53473C73.1296 2.67912 71.9153 4.55619 72.091 7.60442C72.2828 10.6527 73.7208 12.3693 76.0056 12.2249C77.7631 12.1126 78.9455 10.8131 79.2011 8.72745L80.5113 8.64724C80.2716 11.4548 78.6259 13.2196 76.0855 13.38Z" fill="#000"/>
<path d="M90.8969 13.8293L89.395 13.6849L86.9504 8.4387L84.2182 8.182L83.7549 13.1554L82.4287 13.0271L83.4992 1.37964L87.6374 1.76468C90.1299 1.98928 91.504 3.32088 91.3283 5.34234C91.1365 7.49214 89.5707 8.64726 87.1102 8.42265V8.45474C87.8931 8.51891 88.6919 9.1446 89.1553 10.1553L90.8969 13.8293ZM87.206 7.41193C88.7878 7.55632 89.7944 6.77019 89.9222 5.32629C90.05 3.94657 89.1872 3.0321 87.6214 2.88771L84.7135 2.61497L84.2981 7.13919L87.206 7.41193Z" fill="#000"/>
<path d="M100.245 14.9361L99.9889 16.011L92.5273 14.1821L95.2915 2.80737L102.577 4.58818L102.322 5.66308L96.33 4.20314L95.3873 8.10167L100.836 9.43326L100.58 10.5082L95.1317 9.17657L94.0932 13.428L100.245 14.9361Z" fill="#000"/>
<path d="M108.904 16.3319L103.743 14.2142L101.698 16.6207L100.42 16.0913L108.537 6.78613L110.757 7.7006L110.022 20.054L108.664 19.4924L108.904 16.3319ZM109 15.1768L109.591 7.34765L109.559 7.33161L104.494 13.3318L109 15.1768Z" fill="#000"/>
<path d="M121.814 14.7276L118.699 12.9468L113.49 22.1556L112.308 21.4818L117.516 12.2729L114.401 10.4921L114.944 9.52954L122.358 13.765L121.814 14.7276Z" fill="#000"/>
<path d="M124.594 15.3694L125.68 16.1395L118.954 25.7013L117.867 24.9312L124.594 15.3694Z" fill="#000"/>
<path d="M135.267 24.113L124.85 30.5143L122.98 28.8618L127.934 17.6636L129.036 18.6262L124.003 29.5998L124.019 29.6158L134.213 23.1825L135.267 24.113Z" fill="#000"/>
<path d="M134.292 39.1135L133.461 39.8354L128.492 33.9796L137.344 26.3911L142.201 32.1186L141.37 32.8405L137.376 28.1398L134.34 30.7389L137.983 35.0224L137.152 35.7444L133.509 31.4608L130.186 34.3005L134.292 39.1135Z" fill="#000"/>
</svg>
