<svg width="161" height="160" viewBox="0 0 161 160" fill="none" xmlns="http://www.w3.org/2000/svg">
<path d="M97.155 94.7977C94.3602 94.5291 92.4795 92.1111 92.3726 87.2746C93.5545 85.1794 94.9515 82.4388 96.5096 78.9993L105.323 59.8155C95.005 59.8155 91.5127 64.7593 90.5453 66.6399L90.2226 67.3385C89.4703 61.4813 87.1058 58.5259 83.1298 58.5259C79.7444 58.5259 76.1439 59.7618 72.3824 62.1798C68.6209 64.5981 65.2891 68.2519 62.3873 73.1418C59.4856 78.0318 58.0347 82.7608 58.0347 87.3281C58.0347 91.5199 59.2168 94.9593 61.6349 97.5924C64.0532 100.279 67.0621 101.623 70.7702 101.623C78.6694 101.623 85.1181 97.9145 90.2226 90.4455C90.5453 97.9145 92.6946 101.623 96.7247 101.623C100.486 101.623 102.69 98.7209 103.227 93.0245C99.9491 95.2279 97.155 94.7977 97.155 94.7977ZM82.2158 84.373C79.5293 90.0152 77.4334 93.7233 75.9829 95.6041C74.5317 97.4307 73.1347 98.3982 71.7911 98.3982C69.2121 98.3982 67.9761 96.0871 67.9761 91.4664C67.9761 86.0386 69.8028 79.9126 73.4033 73.0884C77.0038 66.2639 80.4967 62.8246 83.828 62.8246C86.8913 62.8246 88.4494 65.7803 88.4494 71.6913L82.2158 84.373Z" fill="#111"/>
</svg>
