<svg width="33" height="40" viewBox="0 0 33 40" fill="none" xmlns="http://www.w3.org/2000/svg">
<path d="M27.2741 25.1966C25.3117 25.0142 24.0285 23.3097 23.9279 19.9699C24.7665 18.5274 25.7289 16.6132 26.8149 14.2273L32.9662 0.874261C25.8023 0.874261 23.343 4.32733 22.6637 5.6293L22.4498 6.1199C21.9278 2.03788 20.2799 0 17.525 0C15.1558 0 12.6567 0.838629 10.0276 2.51589C7.13222 4.4758 4.73846 7.08933 3.03976 10.1453C1.02285 13.5334 0.0123024 16.8292 0.00810921 20.0328C-0.0959056 22.654 0.80389 25.2161 2.524 27.1967C3.31534 28.1021 4.29664 28.8217 5.39794 29.3044C6.49924 29.7871 7.69345 30.021 8.89548 29.9894C14.3801 29.9894 18.8919 27.3938 22.4309 22.2027C22.6406 27.3938 24.1481 29.9894 26.9533 29.9894C29.5887 29.9894 31.0856 27.9892 31.4693 24.0078C30.2512 24.8788 28.768 25.2991 27.2741 25.1966ZM16.8771 17.9634C14.9944 21.8756 13.5457 24.4754 12.5309 25.7627C11.512 27.0521 10.5371 27.6999 9.59365 27.6999C7.81366 27.6999 6.9268 26.0835 6.9268 22.8631C6.9268 19.0893 8.18474 14.8228 10.7006 10.0635C13.2165 5.30433 15.6381 2.92261 17.9653 2.91842C20.0912 2.91842 21.1667 4.96887 21.1667 9.07606L16.8771 17.9634Z" fill="white"/>
<path d="M2.35334 39.9987C1.00734 39.9987 0.214844 39.1118 0.214844 37.6086C0.214844 36.1053 1.00734 35.2248 2.35334 35.2248C2.86019 35.2008 3.35589 35.3787 3.73193 35.7193C4.10796 36.06 4.33371 36.5358 4.35976 37.0425H3.52952C3.51206 36.7409 3.38104 36.4572 3.16282 36.2483C2.94461 36.0394 2.65539 35.9209 2.35334 35.9167C1.57342 35.9167 1.0954 36.5456 1.0954 37.6086C1.0954 38.6715 1.56084 39.3068 2.35334 39.3068C2.65906 39.3007 2.95092 39.1782 3.16946 38.9643C3.388 38.7505 3.51677 38.4613 3.52952 38.1558H4.35976C4.33689 38.6658 4.11296 39.146 3.73695 39.4914C3.36095 39.8368 2.86348 40.0192 2.35334 39.9987Z" fill="white"/>
<path d="M9.05402 39.9332H8.07282L7.06019 38.0463H6.18591V39.9332H5.32422V35.2852H7.12307C8.21748 35.2852 8.87161 35.782 8.87161 36.6123C8.87161 37.4425 8.24264 38.0338 7.14194 38.0338C7.37899 38.0234 7.61455 38.0761 7.82452 38.1866C8.03449 38.2972 8.21135 38.4615 8.337 38.6627L9.05402 39.9332ZM7.1671 37.4174C7.27019 37.4313 7.37507 37.4224 7.47435 37.3913C7.57363 37.3603 7.66489 37.3078 7.74167 37.2376C7.81846 37.1674 7.8789 37.0812 7.91873 36.9852C7.95856 36.8891 7.9768 36.7854 7.97218 36.6815C7.97218 36.2349 7.67657 35.9644 7.1671 35.9644H6.18591V37.4174H7.1671Z" fill="white"/>
<path d="M13.278 39.2602V39.9332H9.95703V35.2852H13.2025V35.9581H10.8187V37.2161H12.9824V37.8891H10.8187V39.2665L13.278 39.2602Z" fill="white"/>
<path d="M17.0038 38.8152H14.9911L14.6703 39.9411H13.8086L15.2489 35.293H16.7836L18.224 39.9411H17.2994L17.0038 38.8152ZM16.8151 38.1422L16.0226 35.3684L15.2238 38.1422H16.8151Z" fill="white"/>
<path d="M21.8586 35.9581H20.5V39.9332H19.632V35.9581H18.2734V35.2852H21.8586V35.9581Z" fill="white"/>
<path d="M22.7383 35.2852H23.6V39.9332H22.7383V35.2852Z" fill="white"/>
<path d="M28.6325 35.2852L27.318 39.9332H25.7644L24.4688 35.2852H25.387L26.5632 39.8578L27.7457 35.2852H28.6325Z" fill="white"/>
<path d="M32.8032 39.2602V39.9332H29.457V35.2852H32.7088V35.9581H30.325V37.2161H32.4887V37.8891H30.325V39.2665L32.8032 39.2602Z" fill="white"/>
</svg>
